<?xml version="1.0" encoding="utf-8" standalone="no"?>
<!DOCTYPE svg PUBLIC "-//W3C//DTD SVG 1.1//EN"
  "http://www.w3.org/Graphics/SVG/1.1/DTD/svg11.dtd">
<!-- Created with matplotlib (http://matplotlib.org/) -->
<svg height="360pt" version="1.1" viewBox="0 0 720 360" width="720pt" xmlns="http://www.w3.org/2000/svg" xmlns:xlink="http://www.w3.org/1999/xlink">
 <defs>
  <style type="text/css">
*{stroke-linecap:butt;stroke-linejoin:round;stroke-miterlimit:100000;}
  </style>
 </defs>
 <g id="figure_1">
  <g id="patch_1">
   <path d="M 0 360 
L 720 360 
L 720 0 
L 0 0 
z
" style="fill:#ffffff;"/>
  </g>
  <g id="axes_1">
   <g id="patch_2">
    <path d="M 48.96 314.64 
L 707.04 314.64 
L 707.04 12.96 
L 48.96 12.96 
z
" style="fill:#ffffff;"/>
   </g>
   <g id="line2d_1">
    <path clip-path="url(#pa2951ffb94)" d="M 48.96 186.440371 
L 57.7344 177.240655 
L 66.5088 118.099619 
L 75.2832 178.5549 
L 84.0576 107.585657 
L 92.832 185.126126 
L 101.6064 107.585657 
L 110.3808 145.698769 
L 119.1552 94.443205 
L 127.9296 307.350933 
L 136.704 161.469712 
L 145.4784 82.614998 
L 154.2528 112.842638 
L 163.0272 86.557733 
L 171.8016 208.78254 
L 180.576 179.869145 
L 189.3504 132.556317 
L 198.1248 208.78254 
L 206.8992 43.18764 
L 215.6736 147.013014 
L 224.448 168.040938 
L 233.2224 116.785374 
L 241.9968 81.300752 
L 250.7712 103.642921 
L 259.5456 165.412447 
L 268.32 12.96 
L 277.0944 123.3566 
L 285.8688 174.612164 
L 294.6432 115.471128 
L 303.4176 32.673679 
L 312.192 111.528393 
L 320.9664 147.013014 
L 329.7408 136.499052 
L 338.5152 174.612164 
L 347.2896 298.151216 
L 356.064 143.070278 
L 364.8384 93.128959 
L 373.6128 31.359433 
L 382.3872 169.355183 
L 391.1616 171.983674 
L 399.936 157.526976 
L 408.7104 177.240655 
L 417.4848 204.839805 
L 426.2592 127.299336 
L 435.0336 158.841221 
L 443.808 211.411031 
L 452.5824 307.350933 
L 461.3568 185.126126 
L 470.1312 166.726693 
L 478.9056 189.068862 
L 487.68 168.040938 
L 496.4544 157.526976 
L 505.2288 308.665178 
L 514.0032 189.068862 
L 522.7776 116.785374 
L 531.552 131.242071 
L 540.3264 98.38594 
L 549.1008 147.013014 
L 557.8752 135.184807 
L 566.6496 191.697352 
L 575.424 81.300752 
L 584.1984 196.954333 
L 592.9728 140.441788 
L 601.7472 133.870562 
L 610.5216 101.014431 
L 619.296 81.300752 
L 628.0704 195.640088 
L 636.8448 165.412447 
L 645.6192 195.640088 
L 654.3936 104.957167 
L 663.168 193.011597 
L 671.9424 169.355183 
L 680.7168 181.18339 
L 689.4912 157.526976 
L 698.2656 307.350933 
L 707.04 298.151216 
" style="fill:none;stroke:#ff0000;stroke-linecap:square;stroke-width:2.0;"/>
    <defs>
     <path d="M 0 3 
C 0.795609 3 1.55874 2.683901 2.12132 2.12132 
C 2.683901 1.55874 3 0.795609 3 0 
C 3 -0.795609 2.683901 -1.55874 2.12132 -2.12132 
C 1.55874 -2.683901 0.795609 -3 0 -3 
C -0.795609 -3 -1.55874 -2.683901 -2.12132 -2.12132 
C -2.683901 -1.55874 -3 -0.795609 -3 0 
C -3 0.795609 -2.683901 1.55874 -2.12132 2.12132 
C -1.55874 2.683901 -0.795609 3 0 3 
z
" id="ma7662bfd00" style="stroke:#000000;stroke-width:0.5;"/>
    </defs>
    <g clip-path="url(#pa2951ffb94)">
     <use style="fill:#ff0000;stroke:#000000;stroke-width:0.5;" x="48.96" xlink:href="#ma7662bfd00" y="186.440371272"/>
     <use style="fill:#ff0000;stroke:#000000;stroke-width:0.5;" x="57.7344" xlink:href="#ma7662bfd00" y="177.240654613"/>
     <use style="fill:#ff0000;stroke:#000000;stroke-width:0.5;" x="66.5088" xlink:href="#ma7662bfd00" y="118.099618953"/>
     <use style="fill:#ff0000;stroke:#000000;stroke-width:0.5;" x="75.2832" xlink:href="#ma7662bfd00" y="178.55489985"/>
     <use style="fill:#ff0000;stroke:#000000;stroke-width:0.5;" x="84.0576" xlink:href="#ma7662bfd00" y="107.585657057"/>
     <use style="fill:#ff0000;stroke:#000000;stroke-width:0.5;" x="92.832" xlink:href="#ma7662bfd00" y="185.126126035"/>
     <use style="fill:#ff0000;stroke:#000000;stroke-width:0.5;" x="101.6064" xlink:href="#ma7662bfd00" y="107.585657057"/>
     <use style="fill:#ff0000;stroke:#000000;stroke-width:0.5;" x="110.3808" xlink:href="#ma7662bfd00" y="145.698768928"/>
     <use style="fill:#ff0000;stroke:#000000;stroke-width:0.5;" x="119.1552" xlink:href="#ma7662bfd00" y="94.4432046882"/>
     <use style="fill:#ff0000;stroke:#000000;stroke-width:0.5;" x="127.9296" xlink:href="#ma7662bfd00" y="307.350933067"/>
     <use style="fill:#ff0000;stroke:#000000;stroke-width:0.5;" x="136.704" xlink:href="#ma7662bfd00" y="161.46971177"/>
     <use style="fill:#ff0000;stroke:#000000;stroke-width:0.5;" x="145.4784" xlink:href="#ma7662bfd00" y="82.614997556"/>
     <use style="fill:#ff0000;stroke:#000000;stroke-width:0.5;" x="154.2528" xlink:href="#ma7662bfd00" y="112.842638005"/>
     <use style="fill:#ff0000;stroke:#000000;stroke-width:0.5;" x="163.0272" xlink:href="#ma7662bfd00" y="86.5577332668"/>
     <use style="fill:#ff0000;stroke:#000000;stroke-width:0.5;" x="171.8016" xlink:href="#ma7662bfd00" y="208.782540299"/>
     <use style="fill:#ff0000;stroke:#000000;stroke-width:0.5;" x="180.576" xlink:href="#ma7662bfd00" y="179.869145087"/>
     <use style="fill:#ff0000;stroke:#000000;stroke-width:0.5;" x="189.3504" xlink:href="#ma7662bfd00" y="132.556316558"/>
     <use style="fill:#ff0000;stroke:#000000;stroke-width:0.5;" x="198.1248" xlink:href="#ma7662bfd00" y="208.782540299"/>
     <use style="fill:#ff0000;stroke:#000000;stroke-width:0.5;" x="206.8992" xlink:href="#ma7662bfd00" y="43.1876404489"/>
     <use style="fill:#ff0000;stroke:#000000;stroke-width:0.5;" x="215.6736" xlink:href="#ma7662bfd00" y="147.013014164"/>
     <use style="fill:#ff0000;stroke:#000000;stroke-width:0.5;" x="224.448" xlink:href="#ma7662bfd00" y="168.040937955"/>
     <use style="fill:#ff0000;stroke:#000000;stroke-width:0.5;" x="233.2224" xlink:href="#ma7662bfd00" y="116.785373716"/>
     <use style="fill:#ff0000;stroke:#000000;stroke-width:0.5;" x="241.9968" xlink:href="#ma7662bfd00" y="81.3007523191"/>
     <use style="fill:#ff0000;stroke:#000000;stroke-width:0.5;" x="250.7712" xlink:href="#ma7662bfd00" y="103.642921347"/>
     <use style="fill:#ff0000;stroke:#000000;stroke-width:0.5;" x="259.5456" xlink:href="#ma7662bfd00" y="165.412447481"/>
     <use style="fill:#ff0000;stroke:#000000;stroke-width:0.5;" x="268.32" xlink:href="#ma7662bfd00" y="12.96"/>
     <use style="fill:#ff0000;stroke:#000000;stroke-width:0.5;" x="277.0944" xlink:href="#ma7662bfd00" y="123.3565999"/>
     <use style="fill:#ff0000;stroke:#000000;stroke-width:0.5;" x="285.8688" xlink:href="#ma7662bfd00" y="174.61216414"/>
     <use style="fill:#ff0000;stroke:#000000;stroke-width:0.5;" x="294.6432" xlink:href="#ma7662bfd00" y="115.471128479"/>
     <use style="fill:#ff0000;stroke:#000000;stroke-width:0.5;" x="303.4176" xlink:href="#ma7662bfd00" y="32.6736785536"/>
     <use style="fill:#ff0000;stroke:#000000;stroke-width:0.5;" x="312.192" xlink:href="#ma7662bfd00" y="111.528392768"/>
     <use style="fill:#ff0000;stroke:#000000;stroke-width:0.5;" x="320.9664" xlink:href="#ma7662bfd00" y="147.013014164"/>
     <use style="fill:#ff0000;stroke:#000000;stroke-width:0.5;" x="329.7408" xlink:href="#ma7662bfd00" y="136.499052269"/>
     <use style="fill:#ff0000;stroke:#000000;stroke-width:0.5;" x="338.5152" xlink:href="#ma7662bfd00" y="174.61216414"/>
     <use style="fill:#ff0000;stroke:#000000;stroke-width:0.5;" x="347.2896" xlink:href="#ma7662bfd00" y="298.151216409"/>
     <use style="fill:#ff0000;stroke:#000000;stroke-width:0.5;" x="356.064" xlink:href="#ma7662bfd00" y="143.070278454"/>
     <use style="fill:#ff0000;stroke:#000000;stroke-width:0.5;" x="364.8384" xlink:href="#ma7662bfd00" y="93.1289594513"/>
     <use style="fill:#ff0000;stroke:#000000;stroke-width:0.5;" x="373.6128" xlink:href="#ma7662bfd00" y="31.3594333167"/>
     <use style="fill:#ff0000;stroke:#000000;stroke-width:0.5;" x="382.3872" xlink:href="#ma7662bfd00" y="169.355183192"/>
     <use style="fill:#ff0000;stroke:#000000;stroke-width:0.5;" x="391.1616" xlink:href="#ma7662bfd00" y="171.983673666"/>
     <use style="fill:#ff0000;stroke:#000000;stroke-width:0.5;" x="399.936" xlink:href="#ma7662bfd00" y="157.52697606"/>
     <use style="fill:#ff0000;stroke:#000000;stroke-width:0.5;" x="408.7104" xlink:href="#ma7662bfd00" y="177.240654613"/>
     <use style="fill:#ff0000;stroke:#000000;stroke-width:0.5;" x="417.4848" xlink:href="#ma7662bfd00" y="204.839804588"/>
     <use style="fill:#ff0000;stroke:#000000;stroke-width:0.5;" x="426.2592" xlink:href="#ma7662bfd00" y="127.299335611"/>
     <use style="fill:#ff0000;stroke:#000000;stroke-width:0.5;" x="435.0336" xlink:href="#ma7662bfd00" y="158.841221297"/>
     <use style="fill:#ff0000;stroke:#000000;stroke-width:0.5;" x="443.808" xlink:href="#ma7662bfd00" y="211.411030773"/>
     <use style="fill:#ff0000;stroke:#000000;stroke-width:0.5;" x="452.5824" xlink:href="#ma7662bfd00" y="307.350933067"/>
     <use style="fill:#ff0000;stroke:#000000;stroke-width:0.5;" x="461.3568" xlink:href="#ma7662bfd00" y="185.126126035"/>
     <use style="fill:#ff0000;stroke:#000000;stroke-width:0.5;" x="470.1312" xlink:href="#ma7662bfd00" y="166.726692718"/>
     <use style="fill:#ff0000;stroke:#000000;stroke-width:0.5;" x="478.9056" xlink:href="#ma7662bfd00" y="189.068861745"/>
     <use style="fill:#ff0000;stroke:#000000;stroke-width:0.5;" x="487.68" xlink:href="#ma7662bfd00" y="168.040937955"/>
     <use style="fill:#ff0000;stroke:#000000;stroke-width:0.5;" x="496.4544" xlink:href="#ma7662bfd00" y="157.52697606"/>
     <use style="fill:#ff0000;stroke:#000000;stroke-width:0.5;" x="505.2288" xlink:href="#ma7662bfd00" y="308.665178304"/>
     <use style="fill:#ff0000;stroke:#000000;stroke-width:0.5;" x="514.0032" xlink:href="#ma7662bfd00" y="189.068861745"/>
     <use style="fill:#ff0000;stroke:#000000;stroke-width:0.5;" x="522.7776" xlink:href="#ma7662bfd00" y="116.785373716"/>
     <use style="fill:#ff0000;stroke:#000000;stroke-width:0.5;" x="531.552" xlink:href="#ma7662bfd00" y="131.242071322"/>
     <use style="fill:#ff0000;stroke:#000000;stroke-width:0.5;" x="540.3264" xlink:href="#ma7662bfd00" y="98.3859403989"/>
     <use style="fill:#ff0000;stroke:#000000;stroke-width:0.5;" x="549.1008" xlink:href="#ma7662bfd00" y="147.013014164"/>
     <use style="fill:#ff0000;stroke:#000000;stroke-width:0.5;" x="557.8752" xlink:href="#ma7662bfd00" y="135.184807032"/>
     <use style="fill:#ff0000;stroke:#000000;stroke-width:0.5;" x="566.6496" xlink:href="#ma7662bfd00" y="191.697352219"/>
     <use style="fill:#ff0000;stroke:#000000;stroke-width:0.5;" x="575.424" xlink:href="#ma7662bfd00" y="81.3007523191"/>
     <use style="fill:#ff0000;stroke:#000000;stroke-width:0.5;" x="584.1984" xlink:href="#ma7662bfd00" y="196.954333167"/>
     <use style="fill:#ff0000;stroke:#000000;stroke-width:0.5;" x="592.9728" xlink:href="#ma7662bfd00" y="140.44178798"/>
     <use style="fill:#ff0000;stroke:#000000;stroke-width:0.5;" x="601.7472" xlink:href="#ma7662bfd00" y="133.870561795"/>
     <use style="fill:#ff0000;stroke:#000000;stroke-width:0.5;" x="610.5216" xlink:href="#ma7662bfd00" y="101.014430873"/>
     <use style="fill:#ff0000;stroke:#000000;stroke-width:0.5;" x="619.296" xlink:href="#ma7662bfd00" y="81.3007523191"/>
     <use style="fill:#ff0000;stroke:#000000;stroke-width:0.5;" x="628.0704" xlink:href="#ma7662bfd00" y="195.64008793"/>
     <use style="fill:#ff0000;stroke:#000000;stroke-width:0.5;" x="636.8448" xlink:href="#ma7662bfd00" y="165.412447481"/>
     <use style="fill:#ff0000;stroke:#000000;stroke-width:0.5;" x="645.6192" xlink:href="#ma7662bfd00" y="195.64008793"/>
     <use style="fill:#ff0000;stroke:#000000;stroke-width:0.5;" x="654.3936" xlink:href="#ma7662bfd00" y="104.957166583"/>
     <use style="fill:#ff0000;stroke:#000000;stroke-width:0.5;" x="663.168" xlink:href="#ma7662bfd00" y="193.011597456"/>
     <use style="fill:#ff0000;stroke:#000000;stroke-width:0.5;" x="671.9424" xlink:href="#ma7662bfd00" y="169.355183192"/>
     <use style="fill:#ff0000;stroke:#000000;stroke-width:0.5;" x="680.7168" xlink:href="#ma7662bfd00" y="181.183390324"/>
     <use style="fill:#ff0000;stroke:#000000;stroke-width:0.5;" x="689.4912" xlink:href="#ma7662bfd00" y="157.52697606"/>
     <use style="fill:#ff0000;stroke:#000000;stroke-width:0.5;" x="698.2656" xlink:href="#ma7662bfd00" y="307.350933067"/>
     <use style="fill:#ff0000;stroke:#000000;stroke-width:0.5;" x="707.04" xlink:href="#ma7662bfd00" y="298.151216409"/>
    </g>
   </g>
   <g id="line2d_2">
    <path clip-path="url(#pa2951ffb94)" d="M 48.96 178.728249 
L 57.7344 210.244375 
L 66.5088 128.656951 
L 75.2832 174.218285 
L 84.0576 101.639486 
L 92.832 178.917632 
L 101.6064 118.587598 
L 110.3808 150.15222 
L 119.1552 97.990747 
L 127.9296 308.816974 
L 136.704 175.232751 
L 145.4784 91.968744 
L 154.2528 118.766467 
L 163.0272 91.066777 
L 171.8016 211.376598 
L 180.576 183.141616 
L 189.3504 116.902604 
L 198.1248 196.543106 
L 206.8992 45.304627 
L 215.6736 136.010679 
L 224.448 184.907961 
L 233.2224 103.489418 
L 241.9968 56.456655 
L 250.7712 125.944217 
L 259.5456 163.725351 
L 268.32 38.278146 
L 277.0944 123.951953 
L 285.8688 181.301015 
L 294.6432 121.762683 
L 303.4176 61.007886 
L 312.192 126.28487 
L 320.9664 152.28524 
L 329.7408 136.249477 
L 338.5152 179.533224 
L 347.2896 307.705911 
L 356.064 126.408146 
L 364.8384 91.589847 
L 373.6128 40.248594 
L 382.3872 169.592799 
L 391.1616 171.955023 
L 399.936 193.612602 
L 408.7104 189.891711 
L 417.4848 206.966122 
L 426.2592 123.66295 
L 435.0336 156.801644 
L 443.808 207.875054 
L 452.5824 293.326622 
L 461.3568 191.903032 
L 470.1312 171.540379 
L 478.9056 194.319534 
L 487.68 177.690521 
L 496.4544 159.073054 
L 505.2288 309.155655 
L 514.0032 189.307529 
L 522.7776 119.874507 
L 531.552 141.560079 
L 540.3264 96.711461 
L 549.1008 161.416091 
L 557.8752 164.559634 
L 566.6496 194.853512 
L 575.424 102.604405 
L 584.1984 207.616016 
L 592.9728 130.775646 
L 601.7472 148.282049 
L 610.5216 131.796026 
L 619.296 89.43593 
L 628.0704 201.544598 
L 636.8448 195.512606 
L 645.6192 204.273891 
L 654.3936 102.594548 
L 663.168 206.263001 
L 671.9424 189.939024 
L 680.7168 207.829581 
L 689.4912 165.169575 
L 698.2656 314.64 
L 707.04 302.54027 
" style="fill:none;stroke:#0000ff;stroke-linecap:square;stroke-width:2.0;"/>
    <defs>
     <path d="M 0 3 
C 0.795609 3 1.55874 2.683901 2.12132 2.12132 
C 2.683901 1.55874 3 0.795609 3 0 
C 3 -0.795609 2.683901 -1.55874 2.12132 -2.12132 
C 1.55874 -2.683901 0.795609 -3 0 -3 
C -0.795609 -3 -1.55874 -2.683901 -2.12132 -2.12132 
C -2.683901 -1.55874 -3 -0.795609 -3 0 
C -3 0.795609 -2.683901 1.55874 -2.12132 2.12132 
C -1.55874 2.683901 -0.795609 3 0 3 
z
" id="m751d2c37b0" style="stroke:#000000;stroke-width:0.5;"/>
    </defs>
    <g clip-path="url(#pa2951ffb94)">
     <use style="fill:#0000ff;stroke:#000000;stroke-width:0.5;" x="48.96" xlink:href="#m751d2c37b0" y="178.728248797"/>
     <use style="fill:#0000ff;stroke:#000000;stroke-width:0.5;" x="57.7344" xlink:href="#m751d2c37b0" y="210.244375276"/>
     <use style="fill:#0000ff;stroke:#000000;stroke-width:0.5;" x="66.5088" xlink:href="#m751d2c37b0" y="128.656950941"/>
     <use style="fill:#0000ff;stroke:#000000;stroke-width:0.5;" x="75.2832" xlink:href="#m751d2c37b0" y="174.218284842"/>
     <use style="fill:#0000ff;stroke:#000000;stroke-width:0.5;" x="84.0576" xlink:href="#m751d2c37b0" y="101.639485907"/>
     <use style="fill:#0000ff;stroke:#000000;stroke-width:0.5;" x="92.832" xlink:href="#m751d2c37b0" y="178.917631536"/>
     <use style="fill:#0000ff;stroke:#000000;stroke-width:0.5;" x="101.6064" xlink:href="#m751d2c37b0" y="118.587598209"/>
     <use style="fill:#0000ff;stroke:#000000;stroke-width:0.5;" x="110.3808" xlink:href="#m751d2c37b0" y="150.152220337"/>
     <use style="fill:#0000ff;stroke:#000000;stroke-width:0.5;" x="119.1552" xlink:href="#m751d2c37b0" y="97.9907468562"/>
     <use style="fill:#0000ff;stroke:#000000;stroke-width:0.5;" x="127.9296" xlink:href="#m751d2c37b0" y="308.816973629"/>
     <use style="fill:#0000ff;stroke:#000000;stroke-width:0.5;" x="136.704" xlink:href="#m751d2c37b0" y="175.23275074"/>
     <use style="fill:#0000ff;stroke:#000000;stroke-width:0.5;" x="145.4784" xlink:href="#m751d2c37b0" y="91.9687437562"/>
     <use style="fill:#0000ff;stroke:#000000;stroke-width:0.5;" x="154.2528" xlink:href="#m751d2c37b0" y="118.766466986"/>
     <use style="fill:#0000ff;stroke:#000000;stroke-width:0.5;" x="163.0272" xlink:href="#m751d2c37b0" y="91.0667772501"/>
     <use style="fill:#0000ff;stroke:#000000;stroke-width:0.5;" x="171.8016" xlink:href="#m751d2c37b0" y="211.376597548"/>
     <use style="fill:#0000ff;stroke:#000000;stroke-width:0.5;" x="180.576" xlink:href="#m751d2c37b0" y="183.141615727"/>
     <use style="fill:#0000ff;stroke:#000000;stroke-width:0.5;" x="189.3504" xlink:href="#m751d2c37b0" y="116.902604391"/>
     <use style="fill:#0000ff;stroke:#000000;stroke-width:0.5;" x="198.1248" xlink:href="#m751d2c37b0" y="196.543105832"/>
     <use style="fill:#0000ff;stroke:#000000;stroke-width:0.5;" x="206.8992" xlink:href="#m751d2c37b0" y="45.3046266765"/>
     <use style="fill:#0000ff;stroke:#000000;stroke-width:0.5;" x="215.6736" xlink:href="#m751d2c37b0" y="136.010678739"/>
     <use style="fill:#0000ff;stroke:#000000;stroke-width:0.5;" x="224.448" xlink:href="#m751d2c37b0" y="184.907961325"/>
     <use style="fill:#0000ff;stroke:#000000;stroke-width:0.5;" x="233.2224" xlink:href="#m751d2c37b0" y="103.489417503"/>
     <use style="fill:#0000ff;stroke:#000000;stroke-width:0.5;" x="241.9968" xlink:href="#m751d2c37b0" y="56.4566546342"/>
     <use style="fill:#0000ff;stroke:#000000;stroke-width:0.5;" x="250.7712" xlink:href="#m751d2c37b0" y="125.944217347"/>
     <use style="fill:#0000ff;stroke:#000000;stroke-width:0.5;" x="259.5456" xlink:href="#m751d2c37b0" y="163.725350871"/>
     <use style="fill:#0000ff;stroke:#000000;stroke-width:0.5;" x="268.32" xlink:href="#m751d2c37b0" y="38.2781459419"/>
     <use style="fill:#0000ff;stroke:#000000;stroke-width:0.5;" x="277.0944" xlink:href="#m751d2c37b0" y="123.951952992"/>
     <use style="fill:#0000ff;stroke:#000000;stroke-width:0.5;" x="285.8688" xlink:href="#m751d2c37b0" y="181.301015273"/>
     <use style="fill:#0000ff;stroke:#000000;stroke-width:0.5;" x="294.6432" xlink:href="#m751d2c37b0" y="121.762683277"/>
     <use style="fill:#0000ff;stroke:#000000;stroke-width:0.5;" x="303.4176" xlink:href="#m751d2c37b0" y="61.0078858896"/>
     <use style="fill:#0000ff;stroke:#000000;stroke-width:0.5;" x="312.192" xlink:href="#m751d2c37b0" y="126.284869713"/>
     <use style="fill:#0000ff;stroke:#000000;stroke-width:0.5;" x="320.9664" xlink:href="#m751d2c37b0" y="152.285240357"/>
     <use style="fill:#0000ff;stroke:#000000;stroke-width:0.5;" x="329.7408" xlink:href="#m751d2c37b0" y="136.249477099"/>
     <use style="fill:#0000ff;stroke:#000000;stroke-width:0.5;" x="338.5152" xlink:href="#m751d2c37b0" y="179.533224005"/>
     <use style="fill:#0000ff;stroke:#000000;stroke-width:0.5;" x="347.2896" xlink:href="#m751d2c37b0" y="307.705910706"/>
     <use style="fill:#0000ff;stroke:#000000;stroke-width:0.5;" x="356.064" xlink:href="#m751d2c37b0" y="126.408145916"/>
     <use style="fill:#0000ff;stroke:#000000;stroke-width:0.5;" x="364.8384" xlink:href="#m751d2c37b0" y="91.5898468544"/>
     <use style="fill:#0000ff;stroke:#000000;stroke-width:0.5;" x="373.6128" xlink:href="#m751d2c37b0" y="40.2485938256"/>
     <use style="fill:#0000ff;stroke:#000000;stroke-width:0.5;" x="382.3872" xlink:href="#m751d2c37b0" y="169.592798731"/>
     <use style="fill:#0000ff;stroke:#000000;stroke-width:0.5;" x="391.1616" xlink:href="#m751d2c37b0" y="171.95502312"/>
     <use style="fill:#0000ff;stroke:#000000;stroke-width:0.5;" x="399.936" xlink:href="#m751d2c37b0" y="193.612601803"/>
     <use style="fill:#0000ff;stroke:#000000;stroke-width:0.5;" x="408.7104" xlink:href="#m751d2c37b0" y="189.891710688"/>
     <use style="fill:#0000ff;stroke:#000000;stroke-width:0.5;" x="417.4848" xlink:href="#m751d2c37b0" y="206.966121957"/>
     <use style="fill:#0000ff;stroke:#000000;stroke-width:0.5;" x="426.2592" xlink:href="#m751d2c37b0" y="123.662950465"/>
     <use style="fill:#0000ff;stroke:#000000;stroke-width:0.5;" x="435.0336" xlink:href="#m751d2c37b0" y="156.801644113"/>
     <use style="fill:#0000ff;stroke:#000000;stroke-width:0.5;" x="443.808" xlink:href="#m751d2c37b0" y="207.875053963"/>
     <use style="fill:#0000ff;stroke:#000000;stroke-width:0.5;" x="452.5824" xlink:href="#m751d2c37b0" y="293.326622144"/>
     <use style="fill:#0000ff;stroke:#000000;stroke-width:0.5;" x="461.3568" xlink:href="#m751d2c37b0" y="191.903031599"/>
     <use style="fill:#0000ff;stroke:#000000;stroke-width:0.5;" x="470.1312" xlink:href="#m751d2c37b0" y="171.540378747"/>
     <use style="fill:#0000ff;stroke:#000000;stroke-width:0.5;" x="478.9056" xlink:href="#m751d2c37b0" y="194.319534316"/>
     <use style="fill:#0000ff;stroke:#000000;stroke-width:0.5;" x="487.68" xlink:href="#m751d2c37b0" y="177.690520758"/>
     <use style="fill:#0000ff;stroke:#000000;stroke-width:0.5;" x="496.4544" xlink:href="#m751d2c37b0" y="159.073054156"/>
     <use style="fill:#0000ff;stroke:#000000;stroke-width:0.5;" x="505.2288" xlink:href="#m751d2c37b0" y="309.155654626"/>
     <use style="fill:#0000ff;stroke:#000000;stroke-width:0.5;" x="514.0032" xlink:href="#m751d2c37b0" y="189.307528681"/>
     <use style="fill:#0000ff;stroke:#000000;stroke-width:0.5;" x="522.7776" xlink:href="#m751d2c37b0" y="119.874507145"/>
     <use style="fill:#0000ff;stroke:#000000;stroke-width:0.5;" x="531.552" xlink:href="#m751d2c37b0" y="141.560079252"/>
     <use style="fill:#0000ff;stroke:#000000;stroke-width:0.5;" x="540.3264" xlink:href="#m751d2c37b0" y="96.7114605426"/>
     <use style="fill:#0000ff;stroke:#000000;stroke-width:0.5;" x="549.1008" xlink:href="#m751d2c37b0" y="161.416090565"/>
     <use style="fill:#0000ff;stroke:#000000;stroke-width:0.5;" x="557.8752" xlink:href="#m751d2c37b0" y="164.559633747"/>
     <use style="fill:#0000ff;stroke:#000000;stroke-width:0.5;" x="566.6496" xlink:href="#m751d2c37b0" y="194.853512156"/>
     <use style="fill:#0000ff;stroke:#000000;stroke-width:0.5;" x="575.424" xlink:href="#m751d2c37b0" y="102.60440476"/>
     <use style="fill:#0000ff;stroke:#000000;stroke-width:0.5;" x="584.1984" xlink:href="#m751d2c37b0" y="207.616016227"/>
     <use style="fill:#0000ff;stroke:#000000;stroke-width:0.5;" x="592.9728" xlink:href="#m751d2c37b0" y="130.775645687"/>
     <use style="fill:#0000ff;stroke:#000000;stroke-width:0.5;" x="601.7472" xlink:href="#m751d2c37b0" y="148.282049365"/>
     <use style="fill:#0000ff;stroke:#000000;stroke-width:0.5;" x="610.5216" xlink:href="#m751d2c37b0" y="131.796025689"/>
     <use style="fill:#0000ff;stroke:#000000;stroke-width:0.5;" x="619.296" xlink:href="#m751d2c37b0" y="89.4359303356"/>
     <use style="fill:#0000ff;stroke:#000000;stroke-width:0.5;" x="628.0704" xlink:href="#m751d2c37b0" y="201.544597506"/>
     <use style="fill:#0000ff;stroke:#000000;stroke-width:0.5;" x="636.8448" xlink:href="#m751d2c37b0" y="195.512606142"/>
     <use style="fill:#0000ff;stroke:#000000;stroke-width:0.5;" x="645.6192" xlink:href="#m751d2c37b0" y="204.273890589"/>
     <use style="fill:#0000ff;stroke:#000000;stroke-width:0.5;" x="654.3936" xlink:href="#m751d2c37b0" y="102.594547921"/>
     <use style="fill:#0000ff;stroke:#000000;stroke-width:0.5;" x="663.168" xlink:href="#m751d2c37b0" y="206.263000755"/>
     <use style="fill:#0000ff;stroke:#000000;stroke-width:0.5;" x="671.9424" xlink:href="#m751d2c37b0" y="189.939023517"/>
     <use style="fill:#0000ff;stroke:#000000;stroke-width:0.5;" x="680.7168" xlink:href="#m751d2c37b0" y="207.829581078"/>
     <use style="fill:#0000ff;stroke:#000000;stroke-width:0.5;" x="689.4912" xlink:href="#m751d2c37b0" y="165.169574961"/>
     <use style="fill:#0000ff;stroke:#000000;stroke-width:0.5;" x="698.2656" xlink:href="#m751d2c37b0" y="314.64"/>
     <use style="fill:#0000ff;stroke:#000000;stroke-width:0.5;" x="707.04" xlink:href="#m751d2c37b0" y="302.540269802"/>
    </g>
   </g>
   <g id="patch_3">
    <path d="M 48.96 314.64 
L 707.04 314.64 
" style="fill:none;stroke:#000000;stroke-linecap:square;stroke-linejoin:miter;"/>
   </g>
   <g id="patch_4">
    <path d="M 48.96 12.96 
L 707.04 12.96 
" style="fill:none;stroke:#000000;stroke-linecap:square;stroke-linejoin:miter;"/>
   </g>
   <g id="patch_5">
    <path d="M 707.04 314.64 
L 707.04 12.96 
" style="fill:none;stroke:#000000;stroke-linecap:square;stroke-linejoin:miter;"/>
   </g>
   <g id="patch_6">
    <path d="M 48.96 314.64 
L 48.96 12.96 
" style="fill:none;stroke:#000000;stroke-linecap:square;stroke-linejoin:miter;"/>
   </g>
   <g id="matplotlib.axis_1">
    <g id="xtick_1">
     <g id="line2d_3">
      <defs>
       <path d="M 0 0 
L 0 -4 
" id="m2b1fead0bc" style="stroke:#000000;stroke-width:0.5;"/>
      </defs>
      <g>
       <use style="stroke:#000000;stroke-width:0.5;" x="127.9296" xlink:href="#m2b1fead0bc" y="314.64"/>
      </g>
     </g>
     <g id="line2d_4">
      <defs>
       <path d="M 0 0 
L 0 4 
" id="m4c9eaef107" style="stroke:#000000;stroke-width:0.5;"/>
      </defs>
      <g>
       <use style="stroke:#000000;stroke-width:0.5;" x="127.9296" xlink:href="#m4c9eaef107" y="12.96"/>
      </g>
     </g>
     <g id="text_1">
      <!-- 10 -->
      <defs>
       <path d="M 31.78125 66.40625 
Q 24.171875 66.40625 20.328125 58.90625 
Q 16.5 51.421875 16.5 36.375 
Q 16.5 21.390625 20.328125 13.890625 
Q 24.171875 6.390625 31.78125 6.390625 
Q 39.453125 6.390625 43.28125 13.890625 
Q 47.125 21.390625 47.125 36.375 
Q 47.125 51.421875 43.28125 58.90625 
Q 39.453125 66.40625 31.78125 66.40625 
M 31.78125 74.21875 
Q 44.046875 74.21875 50.515625 64.515625 
Q 56.984375 54.828125 56.984375 36.375 
Q 56.984375 17.96875 50.515625 8.265625 
Q 44.046875 -1.421875 31.78125 -1.421875 
Q 19.53125 -1.421875 13.0625 8.265625 
Q 6.59375 17.96875 6.59375 36.375 
Q 6.59375 54.828125 13.0625 64.515625 
Q 19.53125 74.21875 31.78125 74.21875 
" id="BitstreamVeraSans-Roman-30"/>
       <path d="M 12.40625 8.296875 
L 28.515625 8.296875 
L 28.515625 63.921875 
L 10.984375 60.40625 
L 10.984375 69.390625 
L 28.421875 72.90625 
L 38.28125 72.90625 
L 38.28125 8.296875 
L 54.390625 8.296875 
L 54.390625 0 
L 12.40625 0 
z
" id="BitstreamVeraSans-Roman-31"/>
      </defs>
      <g transform="translate(120.2946 327.758125)scale(0.12 -0.12)">
       <use xlink:href="#BitstreamVeraSans-Roman-31"/>
       <use x="63.623046875" xlink:href="#BitstreamVeraSans-Roman-30"/>
      </g>
     </g>
    </g>
    <g id="xtick_2">
     <g id="line2d_5">
      <g>
       <use style="stroke:#000000;stroke-width:0.5;" x="215.6736" xlink:href="#m2b1fead0bc" y="314.64"/>
      </g>
     </g>
     <g id="line2d_6">
      <g>
       <use style="stroke:#000000;stroke-width:0.5;" x="215.6736" xlink:href="#m4c9eaef107" y="12.96"/>
      </g>
     </g>
     <g id="text_2">
      <!-- 20 -->
      <defs>
       <path d="M 19.1875 8.296875 
L 53.609375 8.296875 
L 53.609375 0 
L 7.328125 0 
L 7.328125 8.296875 
Q 12.9375 14.109375 22.625 23.890625 
Q 32.328125 33.6875 34.8125 36.53125 
Q 39.546875 41.84375 41.421875 45.53125 
Q 43.3125 49.21875 43.3125 52.78125 
Q 43.3125 58.59375 39.234375 62.25 
Q 35.15625 65.921875 28.609375 65.921875 
Q 23.96875 65.921875 18.8125 64.3125 
Q 13.671875 62.703125 7.8125 59.421875 
L 7.8125 69.390625 
Q 13.765625 71.78125 18.9375 73 
Q 24.125 74.21875 28.421875 74.21875 
Q 39.75 74.21875 46.484375 68.546875 
Q 53.21875 62.890625 53.21875 53.421875 
Q 53.21875 48.921875 51.53125 44.890625 
Q 49.859375 40.875 45.40625 35.40625 
Q 44.1875 33.984375 37.640625 27.21875 
Q 31.109375 20.453125 19.1875 8.296875 
" id="BitstreamVeraSans-Roman-32"/>
      </defs>
      <g transform="translate(208.0386 327.758125)scale(0.12 -0.12)">
       <use xlink:href="#BitstreamVeraSans-Roman-32"/>
       <use x="63.623046875" xlink:href="#BitstreamVeraSans-Roman-30"/>
      </g>
     </g>
    </g>
    <g id="xtick_3">
     <g id="line2d_7">
      <g>
       <use style="stroke:#000000;stroke-width:0.5;" x="303.4176" xlink:href="#m2b1fead0bc" y="314.64"/>
      </g>
     </g>
     <g id="line2d_8">
      <g>
       <use style="stroke:#000000;stroke-width:0.5;" x="303.4176" xlink:href="#m4c9eaef107" y="12.96"/>
      </g>
     </g>
     <g id="text_3">
      <!-- 30 -->
      <defs>
       <path d="M 40.578125 39.3125 
Q 47.65625 37.796875 51.625 33 
Q 55.609375 28.21875 55.609375 21.1875 
Q 55.609375 10.40625 48.1875 4.484375 
Q 40.765625 -1.421875 27.09375 -1.421875 
Q 22.515625 -1.421875 17.65625 -0.515625 
Q 12.796875 0.390625 7.625 2.203125 
L 7.625 11.71875 
Q 11.71875 9.328125 16.59375 8.109375 
Q 21.484375 6.890625 26.8125 6.890625 
Q 36.078125 6.890625 40.9375 10.546875 
Q 45.796875 14.203125 45.796875 21.1875 
Q 45.796875 27.640625 41.28125 31.265625 
Q 36.765625 34.90625 28.71875 34.90625 
L 20.21875 34.90625 
L 20.21875 43.015625 
L 29.109375 43.015625 
Q 36.375 43.015625 40.234375 45.921875 
Q 44.09375 48.828125 44.09375 54.296875 
Q 44.09375 59.90625 40.109375 62.90625 
Q 36.140625 65.921875 28.71875 65.921875 
Q 24.65625 65.921875 20.015625 65.03125 
Q 15.375 64.15625 9.8125 62.3125 
L 9.8125 71.09375 
Q 15.4375 72.65625 20.34375 73.4375 
Q 25.25 74.21875 29.59375 74.21875 
Q 40.828125 74.21875 47.359375 69.109375 
Q 53.90625 64.015625 53.90625 55.328125 
Q 53.90625 49.265625 50.4375 45.09375 
Q 46.96875 40.921875 40.578125 39.3125 
" id="BitstreamVeraSans-Roman-33"/>
      </defs>
      <g transform="translate(295.7826 327.758125)scale(0.12 -0.12)">
       <use xlink:href="#BitstreamVeraSans-Roman-33"/>
       <use x="63.623046875" xlink:href="#BitstreamVeraSans-Roman-30"/>
      </g>
     </g>
    </g>
    <g id="xtick_4">
     <g id="line2d_9">
      <g>
       <use style="stroke:#000000;stroke-width:0.5;" x="391.1616" xlink:href="#m2b1fead0bc" y="314.64"/>
      </g>
     </g>
     <g id="line2d_10">
      <g>
       <use style="stroke:#000000;stroke-width:0.5;" x="391.1616" xlink:href="#m4c9eaef107" y="12.96"/>
      </g>
     </g>
     <g id="text_4">
      <!-- 40 -->
      <defs>
       <path d="M 37.796875 64.3125 
L 12.890625 25.390625 
L 37.796875 25.390625 
z
M 35.203125 72.90625 
L 47.609375 72.90625 
L 47.609375 25.390625 
L 58.015625 25.390625 
L 58.015625 17.1875 
L 47.609375 17.1875 
L 47.609375 0 
L 37.796875 0 
L 37.796875 17.1875 
L 4.890625 17.1875 
L 4.890625 26.703125 
z
" id="BitstreamVeraSans-Roman-34"/>
      </defs>
      <g transform="translate(383.5266 327.758125)scale(0.12 -0.12)">
       <use xlink:href="#BitstreamVeraSans-Roman-34"/>
       <use x="63.623046875" xlink:href="#BitstreamVeraSans-Roman-30"/>
      </g>
     </g>
    </g>
    <g id="xtick_5">
     <g id="line2d_11">
      <g>
       <use style="stroke:#000000;stroke-width:0.5;" x="478.9056" xlink:href="#m2b1fead0bc" y="314.64"/>
      </g>
     </g>
     <g id="line2d_12">
      <g>
       <use style="stroke:#000000;stroke-width:0.5;" x="478.9056" xlink:href="#m4c9eaef107" y="12.96"/>
      </g>
     </g>
     <g id="text_5">
      <!-- 50 -->
      <defs>
       <path d="M 10.796875 72.90625 
L 49.515625 72.90625 
L 49.515625 64.59375 
L 19.828125 64.59375 
L 19.828125 46.734375 
Q 21.96875 47.46875 24.109375 47.828125 
Q 26.265625 48.1875 28.421875 48.1875 
Q 40.625 48.1875 47.75 41.5 
Q 54.890625 34.8125 54.890625 23.390625 
Q 54.890625 11.625 47.5625 5.09375 
Q 40.234375 -1.421875 26.90625 -1.421875 
Q 22.3125 -1.421875 17.546875 -0.640625 
Q 12.796875 0.140625 7.71875 1.703125 
L 7.71875 11.625 
Q 12.109375 9.234375 16.796875 8.0625 
Q 21.484375 6.890625 26.703125 6.890625 
Q 35.15625 6.890625 40.078125 11.328125 
Q 45.015625 15.765625 45.015625 23.390625 
Q 45.015625 31 40.078125 35.4375 
Q 35.15625 39.890625 26.703125 39.890625 
Q 22.75 39.890625 18.8125 39.015625 
Q 14.890625 38.140625 10.796875 36.28125 
z
" id="BitstreamVeraSans-Roman-35"/>
      </defs>
      <g transform="translate(471.2706 327.758125)scale(0.12 -0.12)">
       <use xlink:href="#BitstreamVeraSans-Roman-35"/>
       <use x="63.623046875" xlink:href="#BitstreamVeraSans-Roman-30"/>
      </g>
     </g>
    </g>
    <g id="xtick_6">
     <g id="line2d_13">
      <g>
       <use style="stroke:#000000;stroke-width:0.5;" x="566.6496" xlink:href="#m2b1fead0bc" y="314.64"/>
      </g>
     </g>
     <g id="line2d_14">
      <g>
       <use style="stroke:#000000;stroke-width:0.5;" x="566.6496" xlink:href="#m4c9eaef107" y="12.96"/>
      </g>
     </g>
     <g id="text_6">
      <!-- 60 -->
      <defs>
       <path d="M 33.015625 40.375 
Q 26.375 40.375 22.484375 35.828125 
Q 18.609375 31.296875 18.609375 23.390625 
Q 18.609375 15.53125 22.484375 10.953125 
Q 26.375 6.390625 33.015625 6.390625 
Q 39.65625 6.390625 43.53125 10.953125 
Q 47.40625 15.53125 47.40625 23.390625 
Q 47.40625 31.296875 43.53125 35.828125 
Q 39.65625 40.375 33.015625 40.375 
M 52.59375 71.296875 
L 52.59375 62.3125 
Q 48.875 64.0625 45.09375 64.984375 
Q 41.3125 65.921875 37.59375 65.921875 
Q 27.828125 65.921875 22.671875 59.328125 
Q 17.53125 52.734375 16.796875 39.40625 
Q 19.671875 43.65625 24.015625 45.921875 
Q 28.375 48.1875 33.59375 48.1875 
Q 44.578125 48.1875 50.953125 41.515625 
Q 57.328125 34.859375 57.328125 23.390625 
Q 57.328125 12.15625 50.6875 5.359375 
Q 44.046875 -1.421875 33.015625 -1.421875 
Q 20.359375 -1.421875 13.671875 8.265625 
Q 6.984375 17.96875 6.984375 36.375 
Q 6.984375 53.65625 15.1875 63.9375 
Q 23.390625 74.21875 37.203125 74.21875 
Q 40.921875 74.21875 44.703125 73.484375 
Q 48.484375 72.75 52.59375 71.296875 
" id="BitstreamVeraSans-Roman-36"/>
      </defs>
      <g transform="translate(559.0146 327.758125)scale(0.12 -0.12)">
       <use xlink:href="#BitstreamVeraSans-Roman-36"/>
       <use x="63.623046875" xlink:href="#BitstreamVeraSans-Roman-30"/>
      </g>
     </g>
    </g>
    <g id="xtick_7">
     <g id="line2d_15">
      <g>
       <use style="stroke:#000000;stroke-width:0.5;" x="654.3936" xlink:href="#m2b1fead0bc" y="314.64"/>
      </g>
     </g>
     <g id="line2d_16">
      <g>
       <use style="stroke:#000000;stroke-width:0.5;" x="654.3936" xlink:href="#m4c9eaef107" y="12.96"/>
      </g>
     </g>
     <g id="text_7">
      <!-- 70 -->
      <defs>
       <path d="M 8.203125 72.90625 
L 55.078125 72.90625 
L 55.078125 68.703125 
L 28.609375 0 
L 18.3125 0 
L 43.21875 64.59375 
L 8.203125 64.59375 
z
" id="BitstreamVeraSans-Roman-37"/>
      </defs>
      <g transform="translate(646.7586 327.758125)scale(0.12 -0.12)">
       <use xlink:href="#BitstreamVeraSans-Roman-37"/>
       <use x="63.623046875" xlink:href="#BitstreamVeraSans-Roman-30"/>
      </g>
     </g>
    </g>
    <g id="text_8">
     <!-- residue number -->
     <defs>
      <path d="M 9.421875 54.6875 
L 18.40625 54.6875 
L 18.40625 0 
L 9.421875 0 
z
M 9.421875 75.984375 
L 18.40625 75.984375 
L 18.40625 64.59375 
L 9.421875 64.59375 
z
" id="BitstreamVeraSans-Roman-69"/>
      <path d="M 48.6875 27.296875 
Q 48.6875 37.203125 44.609375 42.84375 
Q 40.53125 48.484375 33.40625 48.484375 
Q 26.265625 48.484375 22.1875 42.84375 
Q 18.109375 37.203125 18.109375 27.296875 
Q 18.109375 17.390625 22.1875 11.75 
Q 26.265625 6.109375 33.40625 6.109375 
Q 40.53125 6.109375 44.609375 11.75 
Q 48.6875 17.390625 48.6875 27.296875 
M 18.109375 46.390625 
Q 20.953125 51.265625 25.265625 53.625 
Q 29.59375 56 35.59375 56 
Q 45.5625 56 51.78125 48.09375 
Q 58.015625 40.1875 58.015625 27.296875 
Q 58.015625 14.40625 51.78125 6.484375 
Q 45.5625 -1.421875 35.59375 -1.421875 
Q 29.59375 -1.421875 25.265625 0.953125 
Q 20.953125 3.328125 18.109375 8.203125 
L 18.109375 0 
L 9.078125 0 
L 9.078125 75.984375 
L 18.109375 75.984375 
z
" id="BitstreamVeraSans-Roman-62"/>
      <path d="M 45.40625 46.390625 
L 45.40625 75.984375 
L 54.390625 75.984375 
L 54.390625 0 
L 45.40625 0 
L 45.40625 8.203125 
Q 42.578125 3.328125 38.25 0.953125 
Q 33.9375 -1.421875 27.875 -1.421875 
Q 17.96875 -1.421875 11.734375 6.484375 
Q 5.515625 14.40625 5.515625 27.296875 
Q 5.515625 40.1875 11.734375 48.09375 
Q 17.96875 56 27.875 56 
Q 33.9375 56 38.25 53.625 
Q 42.578125 51.265625 45.40625 46.390625 
M 14.796875 27.296875 
Q 14.796875 17.390625 18.875 11.75 
Q 22.953125 6.109375 30.078125 6.109375 
Q 37.203125 6.109375 41.296875 11.75 
Q 45.40625 17.390625 45.40625 27.296875 
Q 45.40625 37.203125 41.296875 42.84375 
Q 37.203125 48.484375 30.078125 48.484375 
Q 22.953125 48.484375 18.875 42.84375 
Q 14.796875 37.203125 14.796875 27.296875 
" id="BitstreamVeraSans-Roman-64"/>
      <path d="M 54.890625 33.015625 
L 54.890625 0 
L 45.90625 0 
L 45.90625 32.71875 
Q 45.90625 40.484375 42.875 44.328125 
Q 39.84375 48.1875 33.796875 48.1875 
Q 26.515625 48.1875 22.3125 43.546875 
Q 18.109375 38.921875 18.109375 30.90625 
L 18.109375 0 
L 9.078125 0 
L 9.078125 54.6875 
L 18.109375 54.6875 
L 18.109375 46.1875 
Q 21.34375 51.125 25.703125 53.5625 
Q 30.078125 56 35.796875 56 
Q 45.21875 56 50.046875 50.171875 
Q 54.890625 44.34375 54.890625 33.015625 
" id="BitstreamVeraSans-Roman-6e"/>
      <path d="M 52 44.1875 
Q 55.375 50.25 60.0625 53.125 
Q 64.75 56 71.09375 56 
Q 79.640625 56 84.28125 50.015625 
Q 88.921875 44.046875 88.921875 33.015625 
L 88.921875 0 
L 79.890625 0 
L 79.890625 32.71875 
Q 79.890625 40.578125 77.09375 44.375 
Q 74.3125 48.1875 68.609375 48.1875 
Q 61.625 48.1875 57.5625 43.546875 
Q 53.515625 38.921875 53.515625 30.90625 
L 53.515625 0 
L 44.484375 0 
L 44.484375 32.71875 
Q 44.484375 40.625 41.703125 44.40625 
Q 38.921875 48.1875 33.109375 48.1875 
Q 26.21875 48.1875 22.15625 43.53125 
Q 18.109375 38.875 18.109375 30.90625 
L 18.109375 0 
L 9.078125 0 
L 9.078125 54.6875 
L 18.109375 54.6875 
L 18.109375 46.1875 
Q 21.1875 51.21875 25.484375 53.609375 
Q 29.78125 56 35.6875 56 
Q 41.65625 56 45.828125 52.96875 
Q 50 49.953125 52 44.1875 
" id="BitstreamVeraSans-Roman-6d"/>
      <path d="M 44.28125 53.078125 
L 44.28125 44.578125 
Q 40.484375 46.53125 36.375 47.5 
Q 32.28125 48.484375 27.875 48.484375 
Q 21.1875 48.484375 17.84375 46.4375 
Q 14.5 44.390625 14.5 40.28125 
Q 14.5 37.15625 16.890625 35.375 
Q 19.28125 33.59375 26.515625 31.984375 
L 29.59375 31.296875 
Q 39.15625 29.25 43.1875 25.515625 
Q 47.21875 21.78125 47.21875 15.09375 
Q 47.21875 7.46875 41.1875 3.015625 
Q 35.15625 -1.421875 24.609375 -1.421875 
Q 20.21875 -1.421875 15.453125 -0.5625 
Q 10.6875 0.296875 5.421875 2 
L 5.421875 11.28125 
Q 10.40625 8.6875 15.234375 7.390625 
Q 20.0625 6.109375 24.8125 6.109375 
Q 31.15625 6.109375 34.5625 8.28125 
Q 37.984375 10.453125 37.984375 14.40625 
Q 37.984375 18.0625 35.515625 20.015625 
Q 33.0625 21.96875 24.703125 23.78125 
L 21.578125 24.515625 
Q 13.234375 26.265625 9.515625 29.90625 
Q 5.8125 33.546875 5.8125 39.890625 
Q 5.8125 47.609375 11.28125 51.796875 
Q 16.75 56 26.8125 56 
Q 31.78125 56 36.171875 55.265625 
Q 40.578125 54.546875 44.28125 53.078125 
" id="BitstreamVeraSans-Roman-73"/>
      <path d="M 8.5 21.578125 
L 8.5 54.6875 
L 17.484375 54.6875 
L 17.484375 21.921875 
Q 17.484375 14.15625 20.5 10.265625 
Q 23.53125 6.390625 29.59375 6.390625 
Q 36.859375 6.390625 41.078125 11.03125 
Q 45.3125 15.671875 45.3125 23.6875 
L 45.3125 54.6875 
L 54.296875 54.6875 
L 54.296875 0 
L 45.3125 0 
L 45.3125 8.40625 
Q 42.046875 3.421875 37.71875 1 
Q 33.40625 -1.421875 27.6875 -1.421875 
Q 18.265625 -1.421875 13.375 4.4375 
Q 8.5 10.296875 8.5 21.578125 
" id="BitstreamVeraSans-Roman-75"/>
      <path d="M 41.109375 46.296875 
Q 39.59375 47.171875 37.8125 47.578125 
Q 36.03125 48 33.890625 48 
Q 26.265625 48 22.1875 43.046875 
Q 18.109375 38.09375 18.109375 28.8125 
L 18.109375 0 
L 9.078125 0 
L 9.078125 54.6875 
L 18.109375 54.6875 
L 18.109375 46.1875 
Q 20.953125 51.171875 25.484375 53.578125 
Q 30.03125 56 36.53125 56 
Q 37.453125 56 38.578125 55.875 
Q 39.703125 55.765625 41.0625 55.515625 
z
" id="BitstreamVeraSans-Roman-72"/>
      <path id="BitstreamVeraSans-Roman-20"/>
      <path d="M 56.203125 29.59375 
L 56.203125 25.203125 
L 14.890625 25.203125 
Q 15.484375 15.921875 20.484375 11.0625 
Q 25.484375 6.203125 34.421875 6.203125 
Q 39.59375 6.203125 44.453125 7.46875 
Q 49.3125 8.734375 54.109375 11.28125 
L 54.109375 2.78125 
Q 49.265625 0.734375 44.1875 -0.34375 
Q 39.109375 -1.421875 33.890625 -1.421875 
Q 20.796875 -1.421875 13.15625 6.1875 
Q 5.515625 13.8125 5.515625 26.8125 
Q 5.515625 40.234375 12.765625 48.109375 
Q 20.015625 56 32.328125 56 
Q 43.359375 56 49.78125 48.890625 
Q 56.203125 41.796875 56.203125 29.59375 
M 47.21875 32.234375 
Q 47.125 39.59375 43.09375 43.984375 
Q 39.0625 48.390625 32.421875 48.390625 
Q 24.90625 48.390625 20.390625 44.140625 
Q 15.875 39.890625 15.1875 32.171875 
z
" id="BitstreamVeraSans-Roman-65"/>
     </defs>
     <g transform="translate(330.42375 344.371875)scale(0.12 -0.12)">
      <use xlink:href="#BitstreamVeraSans-Roman-72"/>
      <use x="41.08203125" xlink:href="#BitstreamVeraSans-Roman-65"/>
      <use x="102.60546875" xlink:href="#BitstreamVeraSans-Roman-73"/>
      <use x="154.705078125" xlink:href="#BitstreamVeraSans-Roman-69"/>
      <use x="182.48828125" xlink:href="#BitstreamVeraSans-Roman-64"/>
      <use x="245.96484375" xlink:href="#BitstreamVeraSans-Roman-75"/>
      <use x="309.34375" xlink:href="#BitstreamVeraSans-Roman-65"/>
      <use x="370.8671875" xlink:href="#BitstreamVeraSans-Roman-20"/>
      <use x="402.654296875" xlink:href="#BitstreamVeraSans-Roman-6e"/>
      <use x="466.033203125" xlink:href="#BitstreamVeraSans-Roman-75"/>
      <use x="529.412109375" xlink:href="#BitstreamVeraSans-Roman-6d"/>
      <use x="626.82421875" xlink:href="#BitstreamVeraSans-Roman-62"/>
      <use x="690.30078125" xlink:href="#BitstreamVeraSans-Roman-65"/>
      <use x="751.82421875" xlink:href="#BitstreamVeraSans-Roman-72"/>
     </g>
    </g>
   </g>
   <g id="matplotlib.axis_2">
    <g id="ytick_1">
     <g id="line2d_17">
      <path clip-path="url(#pa2951ffb94)" d="M 48.96 313.922159 
L 707.04 313.922159 
" style="fill:none;stroke:#000000;stroke-dasharray:1.000000,3.000000;stroke-dashoffset:0.0;stroke-width:0.5;"/>
     </g>
     <g id="line2d_18">
      <defs>
       <path d="M 0 0 
L 4 0 
" id="m55743df95d" style="stroke:#000000;stroke-width:0.5;"/>
      </defs>
      <g>
       <use style="stroke:#000000;stroke-width:0.5;" x="48.96" xlink:href="#m55743df95d" y="313.922159252"/>
      </g>
     </g>
     <g id="line2d_19">
      <defs>
       <path d="M 0 0 
L -4 0 
" id="mf820c9358f" style="stroke:#000000;stroke-width:0.5;"/>
      </defs>
      <g>
       <use style="stroke:#000000;stroke-width:0.5;" x="707.04" xlink:href="#mf820c9358f" y="313.922159252"/>
      </g>
     </g>
     <g id="text_9">
      <!-- 45 -->
      <g transform="translate(29.69 317.233409252)scale(0.12 -0.12)">
       <use xlink:href="#BitstreamVeraSans-Roman-34"/>
       <use x="63.623046875" xlink:href="#BitstreamVeraSans-Roman-35"/>
      </g>
     </g>
    </g>
    <g id="ytick_2">
     <g id="line2d_20">
      <path clip-path="url(#pa2951ffb94)" d="M 48.96 248.209897 
L 707.04 248.209897 
" style="fill:none;stroke:#000000;stroke-dasharray:1.000000,3.000000;stroke-dashoffset:0.0;stroke-width:0.5;"/>
     </g>
     <g id="line2d_21">
      <g>
       <use style="stroke:#000000;stroke-width:0.5;" x="48.96" xlink:href="#m55743df95d" y="248.209897406"/>
      </g>
     </g>
     <g id="line2d_22">
      <g>
       <use style="stroke:#000000;stroke-width:0.5;" x="707.04" xlink:href="#mf820c9358f" y="248.209897406"/>
      </g>
     </g>
     <g id="text_10">
      <!-- 50 -->
      <g transform="translate(29.69 251.521147406)scale(0.12 -0.12)">
       <use xlink:href="#BitstreamVeraSans-Roman-35"/>
       <use x="63.623046875" xlink:href="#BitstreamVeraSans-Roman-30"/>
      </g>
     </g>
    </g>
    <g id="ytick_3">
     <g id="line2d_23">
      <path clip-path="url(#pa2951ffb94)" d="M 48.96 182.497636 
L 707.04 182.497636 
" style="fill:none;stroke:#000000;stroke-dasharray:1.000000,3.000000;stroke-dashoffset:0.0;stroke-width:0.5;"/>
     </g>
     <g id="line2d_24">
      <g>
       <use style="stroke:#000000;stroke-width:0.5;" x="48.96" xlink:href="#m55743df95d" y="182.497635561"/>
      </g>
     </g>
     <g id="line2d_25">
      <g>
       <use style="stroke:#000000;stroke-width:0.5;" x="707.04" xlink:href="#mf820c9358f" y="182.497635561"/>
      </g>
     </g>
     <g id="text_11">
      <!-- 55 -->
      <g transform="translate(29.69 185.808885561)scale(0.12 -0.12)">
       <use xlink:href="#BitstreamVeraSans-Roman-35"/>
       <use x="63.623046875" xlink:href="#BitstreamVeraSans-Roman-35"/>
      </g>
     </g>
    </g>
    <g id="ytick_4">
     <g id="line2d_26">
      <path clip-path="url(#pa2951ffb94)" d="M 48.96 116.785374 
L 707.04 116.785374 
" style="fill:none;stroke:#000000;stroke-dasharray:1.000000,3.000000;stroke-dashoffset:0.0;stroke-width:0.5;"/>
     </g>
     <g id="line2d_27">
      <g>
       <use style="stroke:#000000;stroke-width:0.5;" x="48.96" xlink:href="#m55743df95d" y="116.785373716"/>
      </g>
     </g>
     <g id="line2d_28">
      <g>
       <use style="stroke:#000000;stroke-width:0.5;" x="707.04" xlink:href="#mf820c9358f" y="116.785373716"/>
      </g>
     </g>
     <g id="text_12">
      <!-- 60 -->
      <g transform="translate(29.69 120.096623716)scale(0.12 -0.12)">
       <use xlink:href="#BitstreamVeraSans-Roman-36"/>
       <use x="63.623046875" xlink:href="#BitstreamVeraSans-Roman-30"/>
      </g>
     </g>
    </g>
    <g id="ytick_5">
     <g id="line2d_29">
      <path clip-path="url(#pa2951ffb94)" d="M 48.96 51.073112 
L 707.04 51.073112 
" style="fill:none;stroke:#000000;stroke-dasharray:1.000000,3.000000;stroke-dashoffset:0.0;stroke-width:0.5;"/>
     </g>
     <g id="line2d_30">
      <g>
       <use style="stroke:#000000;stroke-width:0.5;" x="48.96" xlink:href="#m55743df95d" y="51.0731118703"/>
      </g>
     </g>
     <g id="line2d_31">
      <g>
       <use style="stroke:#000000;stroke-width:0.5;" x="707.04" xlink:href="#mf820c9358f" y="51.0731118703"/>
      </g>
     </g>
     <g id="text_13">
      <!-- 65 -->
      <g transform="translate(29.69 54.3843618703)scale(0.12 -0.12)">
       <use xlink:href="#BitstreamVeraSans-Roman-36"/>
       <use x="63.623046875" xlink:href="#BitstreamVeraSans-Roman-35"/>
      </g>
     </g>
    </g>
    <g id="text_14">
     <!-- value -->
     <defs>
      <path d="M 2.984375 54.6875 
L 12.5 54.6875 
L 29.59375 8.796875 
L 46.6875 54.6875 
L 56.203125 54.6875 
L 35.6875 0 
L 23.484375 0 
z
" id="BitstreamVeraSans-Roman-76"/>
      <path d="M 34.28125 27.484375 
Q 23.390625 27.484375 19.1875 25 
Q 14.984375 22.515625 14.984375 16.5 
Q 14.984375 11.71875 18.140625 8.90625 
Q 21.296875 6.109375 26.703125 6.109375 
Q 34.1875 6.109375 38.703125 11.40625 
Q 43.21875 16.703125 43.21875 25.484375 
L 43.21875 27.484375 
z
M 52.203125 31.203125 
L 52.203125 0 
L 43.21875 0 
L 43.21875 8.296875 
Q 40.140625 3.328125 35.546875 0.953125 
Q 30.953125 -1.421875 24.3125 -1.421875 
Q 15.921875 -1.421875 10.953125 3.296875 
Q 6 8.015625 6 15.921875 
Q 6 25.140625 12.171875 29.828125 
Q 18.359375 34.515625 30.609375 34.515625 
L 43.21875 34.515625 
L 43.21875 35.40625 
Q 43.21875 41.609375 39.140625 45 
Q 35.0625 48.390625 27.6875 48.390625 
Q 23 48.390625 18.546875 47.265625 
Q 14.109375 46.140625 10.015625 43.890625 
L 10.015625 52.203125 
Q 14.9375 54.109375 19.578125 55.046875 
Q 24.21875 56 28.609375 56 
Q 40.484375 56 46.34375 49.84375 
Q 52.203125 43.703125 52.203125 31.203125 
" id="BitstreamVeraSans-Roman-61"/>
      <path d="M 9.421875 75.984375 
L 18.40625 75.984375 
L 18.40625 0 
L 9.421875 0 
z
" id="BitstreamVeraSans-Roman-6c"/>
     </defs>
     <g transform="translate(22.194375 180.189375)rotate(-90.0)scale(0.12 -0.12)">
      <use xlink:href="#BitstreamVeraSans-Roman-76"/>
      <use x="59.1796875" xlink:href="#BitstreamVeraSans-Roman-61"/>
      <use x="120.458984375" xlink:href="#BitstreamVeraSans-Roman-6c"/>
      <use x="148.2421875" xlink:href="#BitstreamVeraSans-Roman-75"/>
      <use x="211.62109375" xlink:href="#BitstreamVeraSans-Roman-65"/>
     </g>
    </g>
   </g>
   <g id="legend_1">
    <g id="patch_7">
     <path d="M 56.16 307.44 
L 136.6605 307.44 
L 136.6605 260.847 
L 56.16 260.847 
z
" style="fill:#ffffff;stroke:#000000;stroke-linejoin:miter;"/>
    </g>
    <g id="line2d_32">
     <path d="M 66.24 272.50875 
L 86.4 272.50875 
" style="fill:none;stroke:#ff0000;stroke-linecap:square;stroke-width:2.0;"/>
    </g>
    <g id="line2d_33">
     <g>
      <use style="fill:#ff0000;stroke:#000000;stroke-width:0.5;" x="66.24" xlink:href="#ma7662bfd00" y="272.50875"/>
      <use style="fill:#ff0000;stroke:#000000;stroke-width:0.5;" x="86.4" xlink:href="#ma7662bfd00" y="272.50875"/>
     </g>
    </g>
    <g id="text_15">
     <!-- exp -->
     <defs>
      <path d="M 54.890625 54.6875 
L 35.109375 28.078125 
L 55.90625 0 
L 45.3125 0 
L 29.390625 21.484375 
L 13.484375 0 
L 2.875 0 
L 24.125 28.609375 
L 4.6875 54.6875 
L 15.28125 54.6875 
L 29.78125 35.203125 
L 44.28125 54.6875 
z
" id="BitstreamVeraSans-Roman-78"/>
      <path d="M 18.109375 8.203125 
L 18.109375 -20.796875 
L 9.078125 -20.796875 
L 9.078125 54.6875 
L 18.109375 54.6875 
L 18.109375 46.390625 
Q 20.953125 51.265625 25.265625 53.625 
Q 29.59375 56 35.59375 56 
Q 45.5625 56 51.78125 48.09375 
Q 58.015625 40.1875 58.015625 27.296875 
Q 58.015625 14.40625 51.78125 6.484375 
Q 45.5625 -1.421875 35.59375 -1.421875 
Q 29.59375 -1.421875 25.265625 0.953125 
Q 20.953125 3.328125 18.109375 8.203125 
M 48.6875 27.296875 
Q 48.6875 37.203125 44.609375 42.84375 
Q 40.53125 48.484375 33.40625 48.484375 
Q 26.265625 48.484375 22.1875 42.84375 
Q 18.109375 37.203125 18.109375 27.296875 
Q 18.109375 17.390625 22.1875 11.75 
Q 26.265625 6.109375 33.40625 6.109375 
Q 40.53125 6.109375 44.609375 11.75 
Q 48.6875 17.390625 48.6875 27.296875 
" id="BitstreamVeraSans-Roman-70"/>
     </defs>
     <g transform="translate(102.24 277.54875)scale(0.144 -0.144)">
      <use xlink:href="#BitstreamVeraSans-Roman-65"/>
      <use x="61.5078125" xlink:href="#BitstreamVeraSans-Roman-78"/>
      <use x="120.6875" xlink:href="#BitstreamVeraSans-Roman-70"/>
     </g>
    </g>
    <g id="line2d_34">
     <path d="M 66.24 293.64525 
L 86.4 293.64525 
" style="fill:none;stroke:#0000ff;stroke-linecap:square;stroke-width:2.0;"/>
    </g>
    <g id="line2d_35">
     <g>
      <use style="fill:#0000ff;stroke:#000000;stroke-width:0.5;" x="66.24" xlink:href="#m751d2c37b0" y="293.64525"/>
      <use style="fill:#0000ff;stroke:#000000;stroke-width:0.5;" x="86.4" xlink:href="#m751d2c37b0" y="293.64525"/>
     </g>
    </g>
    <g id="text_16">
     <!-- calc -->
     <defs>
      <path d="M 48.78125 52.59375 
L 48.78125 44.1875 
Q 44.96875 46.296875 41.140625 47.34375 
Q 37.3125 48.390625 33.40625 48.390625 
Q 24.65625 48.390625 19.8125 42.84375 
Q 14.984375 37.3125 14.984375 27.296875 
Q 14.984375 17.28125 19.8125 11.734375 
Q 24.65625 6.203125 33.40625 6.203125 
Q 37.3125 6.203125 41.140625 7.25 
Q 44.96875 8.296875 48.78125 10.40625 
L 48.78125 2.09375 
Q 45.015625 0.34375 40.984375 -0.53125 
Q 36.96875 -1.421875 32.421875 -1.421875 
Q 20.0625 -1.421875 12.78125 6.34375 
Q 5.515625 14.109375 5.515625 27.296875 
Q 5.515625 40.671875 12.859375 48.328125 
Q 20.21875 56 33.015625 56 
Q 37.15625 56 41.109375 55.140625 
Q 45.0625 54.296875 48.78125 52.59375 
" id="BitstreamVeraSans-Roman-63"/>
     </defs>
     <g transform="translate(102.24 298.68525)scale(0.144 -0.144)">
      <use xlink:href="#BitstreamVeraSans-Roman-63"/>
      <use x="54.98046875" xlink:href="#BitstreamVeraSans-Roman-61"/>
      <use x="116.259765625" xlink:href="#BitstreamVeraSans-Roman-6c"/>
      <use x="144.04296875" xlink:href="#BitstreamVeraSans-Roman-63"/>
     </g>
    </g>
   </g>
  </g>
 </g>
 <defs>
  <clipPath id="pa2951ffb94">
   <rect height="301.68" width="658.08" x="48.96" y="12.96"/>
  </clipPath>
 </defs>
</svg>
