<?xml version="1.0" encoding="utf-8" standalone="no"?>
<!DOCTYPE svg PUBLIC "-//W3C//DTD SVG 1.1//EN"
  "http://www.w3.org/Graphics/SVG/1.1/DTD/svg11.dtd">
<!-- Created with matplotlib (http://matplotlib.org/) -->
<svg height="360pt" version="1.1" viewBox="0 0 720 360" width="720pt" xmlns="http://www.w3.org/2000/svg" xmlns:xlink="http://www.w3.org/1999/xlink">
 <defs>
  <style type="text/css">
*{stroke-linecap:butt;stroke-linejoin:round;stroke-miterlimit:100000;}
  </style>
 </defs>
 <g id="figure_1">
  <g id="patch_1">
   <path d="M 0 360 
L 720 360 
L 720 0 
L 0 0 
z
" style="fill:#ffffff;"/>
  </g>
  <g id="axes_1">
   <g id="patch_2">
    <path d="M 59.085 314.64 
L 707.04 314.64 
L 707.04 12.96 
L 59.085 12.96 
z
" style="fill:#ffffff;"/>
   </g>
   <g id="line2d_1">
    <path clip-path="url(#p4862400e4e)" d="M 59.085 220.724777 
L 67.841149 45.473216 
L 76.597297 21.807859 
L 85.353446 28.417102 
L 94.109595 36.092353 
L 102.865743 94.189739 
L 111.621892 64.767943 
L 137.890338 213.902332 
L 146.646486 54.960678 
L 155.402635 59.544509 
L 164.158784 30.122714 
L 172.914932 28.630304 
L 190.42723 133.205597 
L 199.183378 245.669343 
L 216.695676 177.018488 
L 225.451824 111.03265 
L 242.964122 36.625357 
L 260.476419 102.184792 
L 277.988716 46.006219 
L 286.744865 117.641894 
L 295.501014 57.092693 
L 304.257162 40.782784 
L 321.769459 120.200311 
L 330.525608 45.579816 
L 339.281757 64.021739 
L 348.037905 266.882883 
L 356.794054 281.593781 
L 391.818649 112.951463 
L 400.574797 49.737244 
L 409.330946 72.656396 
L 418.087095 51.762657 
L 426.843243 48.564636 
L 435.599392 88.4333 
L 453.111689 37.15836 
L 461.867838 249.080565 
L 470.623986 96.321753 
L 479.380135 71.163986 
L 488.136284 206.01388 
L 496.892432 314.64 
L 514.40473 200.790445 
L 523.160878 61.569922 
L 531.917027 16.158021 
L 549.429324 49.843845 
L 558.185473 22.767265 
L 566.941622 55.17388 
L 575.69777 59.970912 
L 584.453919 106.875223 
L 593.210068 251.425781 
L 601.966216 19.356042 
L 610.722365 90.671915 
L 619.478514 12.96 
L 628.234662 28.630304 
L 636.990811 40.462982 
L 654.503108 85.128678 
L 663.259257 67.21976 
L 689.527703 75.428014 
L 707.04 121.692721 
" style="fill:none;stroke:#ff0000;stroke-linecap:square;stroke-width:2.0;"/>
    <defs>
     <path d="M 0 3 
C 0.795609 3 1.55874 2.683901 2.12132 2.12132 
C 2.683901 1.55874 3 0.795609 3 0 
C 3 -0.795609 2.683901 -1.55874 2.12132 -2.12132 
C 1.55874 -2.683901 0.795609 -3 0 -3 
C -0.795609 -3 -1.55874 -2.683901 -2.12132 -2.12132 
C -2.683901 -1.55874 -3 -0.795609 -3 0 
C -3 0.795609 -2.683901 1.55874 -2.12132 2.12132 
C -1.55874 2.683901 -0.795609 3 0 3 
z
" id="m0dc6b191cb" style="stroke:#000000;stroke-width:0.5;"/>
    </defs>
    <g clip-path="url(#p4862400e4e)">
     <use style="fill:#ff0000;stroke:#000000;stroke-width:0.5;" x="59.085" xlink:href="#m0dc6b191cb" y="220.724777385"/>
     <use style="fill:#ff0000;stroke:#000000;stroke-width:0.5;" x="67.8411486486" xlink:href="#m0dc6b191cb" y="45.4732155477"/>
     <use style="fill:#ff0000;stroke:#000000;stroke-width:0.5;" x="76.5972972973" xlink:href="#m0dc6b191cb" y="21.8078586572"/>
     <use style="fill:#ff0000;stroke:#000000;stroke-width:0.5;" x="85.3534459459" xlink:href="#m0dc6b191cb" y="28.4171024735"/>
     <use style="fill:#ff0000;stroke:#000000;stroke-width:0.5;" x="94.1095945946" xlink:href="#m0dc6b191cb" y="36.0923533569"/>
     <use style="fill:#ff0000;stroke:#000000;stroke-width:0.5;" x="102.865743243" xlink:href="#m0dc6b191cb" y="94.1897385159"/>
     <use style="fill:#ff0000;stroke:#000000;stroke-width:0.5;" x="111.621891892" xlink:href="#m0dc6b191cb" y="64.7679434629"/>
     <use style="fill:#ff0000;stroke:#000000;stroke-width:0.5;" x="137.890337838" xlink:href="#m0dc6b191cb" y="213.902332155"/>
     <use style="fill:#ff0000;stroke:#000000;stroke-width:0.5;" x="146.646486486" xlink:href="#m0dc6b191cb" y="54.9606784452"/>
     <use style="fill:#ff0000;stroke:#000000;stroke-width:0.5;" x="155.402635135" xlink:href="#m0dc6b191cb" y="59.5445088339"/>
     <use style="fill:#ff0000;stroke:#000000;stroke-width:0.5;" x="164.158783784" xlink:href="#m0dc6b191cb" y="30.1227137809"/>
     <use style="fill:#ff0000;stroke:#000000;stroke-width:0.5;" x="172.914932432" xlink:href="#m0dc6b191cb" y="28.6303038869"/>
     <use style="fill:#ff0000;stroke:#000000;stroke-width:0.5;" x="190.42722973" xlink:href="#m0dc6b191cb" y="133.205597173"/>
     <use style="fill:#ff0000;stroke:#000000;stroke-width:0.5;" x="199.183378378" xlink:href="#m0dc6b191cb" y="245.669342756"/>
     <use style="fill:#ff0000;stroke:#000000;stroke-width:0.5;" x="216.695675676" xlink:href="#m0dc6b191cb" y="177.018487633"/>
     <use style="fill:#ff0000;stroke:#000000;stroke-width:0.5;" x="225.451824324" xlink:href="#m0dc6b191cb" y="111.032650177"/>
     <use style="fill:#ff0000;stroke:#000000;stroke-width:0.5;" x="242.964121622" xlink:href="#m0dc6b191cb" y="36.6253568905"/>
     <use style="fill:#ff0000;stroke:#000000;stroke-width:0.5;" x="260.476418919" xlink:href="#m0dc6b191cb" y="102.184791519"/>
     <use style="fill:#ff0000;stroke:#000000;stroke-width:0.5;" x="277.988716216" xlink:href="#m0dc6b191cb" y="46.0062190813"/>
     <use style="fill:#ff0000;stroke:#000000;stroke-width:0.5;" x="286.744864865" xlink:href="#m0dc6b191cb" y="117.641893993"/>
     <use style="fill:#ff0000;stroke:#000000;stroke-width:0.5;" x="295.501013514" xlink:href="#m0dc6b191cb" y="57.0926925795"/>
     <use style="fill:#ff0000;stroke:#000000;stroke-width:0.5;" x="304.257162162" xlink:href="#m0dc6b191cb" y="40.7827844523"/>
     <use style="fill:#ff0000;stroke:#000000;stroke-width:0.5;" x="321.769459459" xlink:href="#m0dc6b191cb" y="120.200310954"/>
     <use style="fill:#ff0000;stroke:#000000;stroke-width:0.5;" x="330.525608108" xlink:href="#m0dc6b191cb" y="45.5798162544"/>
     <use style="fill:#ff0000;stroke:#000000;stroke-width:0.5;" x="339.281756757" xlink:href="#m0dc6b191cb" y="64.0217385159"/>
     <use style="fill:#ff0000;stroke:#000000;stroke-width:0.5;" x="348.037905405" xlink:href="#m0dc6b191cb" y="266.882883392"/>
     <use style="fill:#ff0000;stroke:#000000;stroke-width:0.5;" x="356.794054054" xlink:href="#m0dc6b191cb" y="281.593780919"/>
     <use style="fill:#ff0000;stroke:#000000;stroke-width:0.5;" x="391.818648649" xlink:href="#m0dc6b191cb" y="112.951462898"/>
     <use style="fill:#ff0000;stroke:#000000;stroke-width:0.5;" x="400.574797297" xlink:href="#m0dc6b191cb" y="49.7372438163"/>
     <use style="fill:#ff0000;stroke:#000000;stroke-width:0.5;" x="409.330945946" xlink:href="#m0dc6b191cb" y="72.6563957597"/>
     <use style="fill:#ff0000;stroke:#000000;stroke-width:0.5;" x="418.087094595" xlink:href="#m0dc6b191cb" y="51.7626572438"/>
     <use style="fill:#ff0000;stroke:#000000;stroke-width:0.5;" x="426.843243243" xlink:href="#m0dc6b191cb" y="48.5646360424"/>
     <use style="fill:#ff0000;stroke:#000000;stroke-width:0.5;" x="435.599391892" xlink:href="#m0dc6b191cb" y="88.4333003534"/>
     <use style="fill:#ff0000;stroke:#000000;stroke-width:0.5;" x="453.111689189" xlink:href="#m0dc6b191cb" y="37.158360424"/>
     <use style="fill:#ff0000;stroke:#000000;stroke-width:0.5;" x="461.867837838" xlink:href="#m0dc6b191cb" y="249.080565371"/>
     <use style="fill:#ff0000;stroke:#000000;stroke-width:0.5;" x="470.623986486" xlink:href="#m0dc6b191cb" y="96.3217526502"/>
     <use style="fill:#ff0000;stroke:#000000;stroke-width:0.5;" x="479.380135135" xlink:href="#m0dc6b191cb" y="71.1639858657"/>
     <use style="fill:#ff0000;stroke:#000000;stroke-width:0.5;" x="488.136283784" xlink:href="#m0dc6b191cb" y="206.013879859"/>
     <use style="fill:#ff0000;stroke:#000000;stroke-width:0.5;" x="496.892432432" xlink:href="#m0dc6b191cb" y="314.64"/>
     <use style="fill:#ff0000;stroke:#000000;stroke-width:0.5;" x="514.40472973" xlink:href="#m0dc6b191cb" y="200.79044523"/>
     <use style="fill:#ff0000;stroke:#000000;stroke-width:0.5;" x="523.160878378" xlink:href="#m0dc6b191cb" y="61.5699222615"/>
     <use style="fill:#ff0000;stroke:#000000;stroke-width:0.5;" x="531.917027027" xlink:href="#m0dc6b191cb" y="16.1580212014"/>
     <use style="fill:#ff0000;stroke:#000000;stroke-width:0.5;" x="549.429324324" xlink:href="#m0dc6b191cb" y="49.843844523"/>
     <use style="fill:#ff0000;stroke:#000000;stroke-width:0.5;" x="558.185472973" xlink:href="#m0dc6b191cb" y="22.7672650177"/>
     <use style="fill:#ff0000;stroke:#000000;stroke-width:0.5;" x="566.941621622" xlink:href="#m0dc6b191cb" y="55.1738798587"/>
     <use style="fill:#ff0000;stroke:#000000;stroke-width:0.5;" x="575.69777027" xlink:href="#m0dc6b191cb" y="59.9709116608"/>
     <use style="fill:#ff0000;stroke:#000000;stroke-width:0.5;" x="584.453918919" xlink:href="#m0dc6b191cb" y="106.875222615"/>
     <use style="fill:#ff0000;stroke:#000000;stroke-width:0.5;" x="593.210067568" xlink:href="#m0dc6b191cb" y="251.425780919"/>
     <use style="fill:#ff0000;stroke:#000000;stroke-width:0.5;" x="601.966216216" xlink:href="#m0dc6b191cb" y="19.3560424028"/>
     <use style="fill:#ff0000;stroke:#000000;stroke-width:0.5;" x="610.722364865" xlink:href="#m0dc6b191cb" y="90.6719151943"/>
     <use style="fill:#ff0000;stroke:#000000;stroke-width:0.5;" x="619.478513514" xlink:href="#m0dc6b191cb" y="12.96"/>
     <use style="fill:#ff0000;stroke:#000000;stroke-width:0.5;" x="628.234662162" xlink:href="#m0dc6b191cb" y="28.6303038869"/>
     <use style="fill:#ff0000;stroke:#000000;stroke-width:0.5;" x="636.990810811" xlink:href="#m0dc6b191cb" y="40.4629823322"/>
     <use style="fill:#ff0000;stroke:#000000;stroke-width:0.5;" x="654.503108108" xlink:href="#m0dc6b191cb" y="85.1286784452"/>
     <use style="fill:#ff0000;stroke:#000000;stroke-width:0.5;" x="663.259256757" xlink:href="#m0dc6b191cb" y="67.2197597173"/>
     <use style="fill:#ff0000;stroke:#000000;stroke-width:0.5;" x="689.527702703" xlink:href="#m0dc6b191cb" y="75.4280141343"/>
     <use style="fill:#ff0000;stroke:#000000;stroke-width:0.5;" x="707.04" xlink:href="#m0dc6b191cb" y="121.692720848"/>
    </g>
   </g>
   <g id="line2d_2">
    <path clip-path="url(#p4862400e4e)" d="M 59.085 215.924228 
L 67.841149 45.678422 
L 76.597297 22.560886 
L 85.353446 36.138085 
L 94.109595 38.167016 
L 102.865743 96.193832 
L 111.621892 60.682578 
L 137.890338 218.772812 
L 146.646486 57.764597 
L 155.402635 63.026514 
L 164.158784 33.71068 
L 172.914932 28.074061 
L 190.42723 127.001649 
L 199.183378 244.45015 
L 216.695676 180.725314 
L 225.451824 120.34209 
L 242.964122 45.213003 
L 260.476419 98.425091 
L 277.988716 54.021206 
L 286.744865 113.075866 
L 295.501014 58.053272 
L 304.257162 44.79225 
L 321.769459 118.71483 
L 330.525608 46.153435 
L 339.281757 65.777772 
L 348.037905 261.867 
L 356.794054 280.27481 
L 391.818649 113.837102 
L 400.574797 55.626187 
L 409.330946 62.757774 
L 418.087095 58.241635 
L 426.843243 51.592523 
L 435.599392 91.008134 
L 453.111689 33.706203 
L 461.867838 245.047647 
L 470.623986 98.135777 
L 479.380135 69.120237 
L 488.136284 200.87402 
L 496.892432 311.555509 
L 514.40473 197.552342 
L 523.160878 65.221849 
L 531.917027 25.991936 
L 549.429324 48.638191 
L 558.185473 21.598601 
L 566.941622 56.103971 
L 575.69777 61.236688 
L 584.453919 107.044078 
L 593.210068 249.589797 
L 601.966216 18.122779 
L 610.722365 82.537855 
L 619.478514 16.400964 
L 628.234662 36.766496 
L 636.990811 52.693068 
L 654.503108 87.211656 
L 663.259257 54.874545 
L 689.527703 104.715386 
L 707.04 128.145262 
" style="fill:none;stroke:#0000ff;stroke-linecap:square;stroke-width:2.0;"/>
    <defs>
     <path d="M 0 3 
C 0.795609 3 1.55874 2.683901 2.12132 2.12132 
C 2.683901 1.55874 3 0.795609 3 0 
C 3 -0.795609 2.683901 -1.55874 2.12132 -2.12132 
C 1.55874 -2.683901 0.795609 -3 0 -3 
C -0.795609 -3 -1.55874 -2.683901 -2.12132 -2.12132 
C -2.683901 -1.55874 -3 -0.795609 -3 0 
C -3 0.795609 -2.683901 1.55874 -2.12132 2.12132 
C -1.55874 2.683901 -0.795609 3 0 3 
z
" id="m04f823615e" style="stroke:#000000;stroke-width:0.5;"/>
    </defs>
    <g clip-path="url(#p4862400e4e)">
     <use style="fill:#0000ff;stroke:#000000;stroke-width:0.5;" x="59.085" xlink:href="#m04f823615e" y="215.92422776"/>
     <use style="fill:#0000ff;stroke:#000000;stroke-width:0.5;" x="67.8411486486" xlink:href="#m04f823615e" y="45.6784219081"/>
     <use style="fill:#0000ff;stroke:#000000;stroke-width:0.5;" x="76.5972972973" xlink:href="#m04f823615e" y="22.5608860495"/>
     <use style="fill:#0000ff;stroke:#000000;stroke-width:0.5;" x="85.3534459459" xlink:href="#m04f823615e" y="36.1380850601"/>
     <use style="fill:#0000ff;stroke:#000000;stroke-width:0.5;" x="94.1095945946" xlink:href="#m04f823615e" y="38.167016311"/>
     <use style="fill:#0000ff;stroke:#000000;stroke-width:0.5;" x="102.865743243" xlink:href="#m04f823615e" y="96.1938318021"/>
     <use style="fill:#0000ff;stroke:#000000;stroke-width:0.5;" x="111.621891892" xlink:href="#m04f823615e" y="60.6825779788"/>
     <use style="fill:#0000ff;stroke:#000000;stroke-width:0.5;" x="137.890337838" xlink:href="#m04f823615e" y="218.772811845"/>
     <use style="fill:#0000ff;stroke:#000000;stroke-width:0.5;" x="146.646486486" xlink:href="#m04f823615e" y="57.7645968339"/>
     <use style="fill:#0000ff;stroke:#000000;stroke-width:0.5;" x="155.402635135" xlink:href="#m04f823615e" y="63.026514318"/>
     <use style="fill:#0000ff;stroke:#000000;stroke-width:0.5;" x="164.158783784" xlink:href="#m04f823615e" y="33.7106803675"/>
     <use style="fill:#0000ff;stroke:#000000;stroke-width:0.5;" x="172.914932432" xlink:href="#m04f823615e" y="28.0740613993"/>
     <use style="fill:#0000ff;stroke:#000000;stroke-width:0.5;" x="190.42722973" xlink:href="#m04f823615e" y="127.001649244"/>
     <use style="fill:#0000ff;stroke:#000000;stroke-width:0.5;" x="199.183378378" xlink:href="#m04f823615e" y="244.450150473"/>
     <use style="fill:#0000ff;stroke:#000000;stroke-width:0.5;" x="216.695675676" xlink:href="#m04f823615e" y="180.725314007"/>
     <use style="fill:#0000ff;stroke:#000000;stroke-width:0.5;" x="225.451824324" xlink:href="#m04f823615e" y="120.342089894"/>
     <use style="fill:#0000ff;stroke:#000000;stroke-width:0.5;" x="242.964121622" xlink:href="#m04f823615e" y="45.2130032226"/>
     <use style="fill:#0000ff;stroke:#000000;stroke-width:0.5;" x="260.476418919" xlink:href="#m04f823615e" y="98.4250911943"/>
     <use style="fill:#0000ff;stroke:#000000;stroke-width:0.5;" x="277.988716216" xlink:href="#m04f823615e" y="54.021206417"/>
     <use style="fill:#0000ff;stroke:#000000;stroke-width:0.5;" x="286.744864865" xlink:href="#m04f823615e" y="113.075865922"/>
     <use style="fill:#0000ff;stroke:#000000;stroke-width:0.5;" x="295.501013514" xlink:href="#m04f823615e" y="58.0532715477"/>
     <use style="fill:#0000ff;stroke:#000000;stroke-width:0.5;" x="304.257162162" xlink:href="#m04f823615e" y="44.7922502332"/>
     <use style="fill:#0000ff;stroke:#000000;stroke-width:0.5;" x="321.769459459" xlink:href="#m04f823615e" y="118.714830106"/>
     <use style="fill:#0000ff;stroke:#000000;stroke-width:0.5;" x="330.525608108" xlink:href="#m04f823615e" y="46.1534346572"/>
     <use style="fill:#0000ff;stroke:#000000;stroke-width:0.5;" x="339.281756757" xlink:href="#m04f823615e" y="65.7777719576"/>
     <use style="fill:#0000ff;stroke:#000000;stroke-width:0.5;" x="348.037905405" xlink:href="#m04f823615e" y="261.867000339"/>
     <use style="fill:#0000ff;stroke:#000000;stroke-width:0.5;" x="356.794054054" xlink:href="#m04f823615e" y="280.274810375"/>
     <use style="fill:#0000ff;stroke:#000000;stroke-width:0.5;" x="391.818648649" xlink:href="#m04f823615e" y="113.837101569"/>
     <use style="fill:#0000ff;stroke:#000000;stroke-width:0.5;" x="400.574797297" xlink:href="#m04f823615e" y="55.6261866572"/>
     <use style="fill:#0000ff;stroke:#000000;stroke-width:0.5;" x="409.330945946" xlink:href="#m04f823615e" y="62.7577739364"/>
     <use style="fill:#0000ff;stroke:#000000;stroke-width:0.5;" x="418.087094595" xlink:href="#m04f823615e" y="58.2416349965"/>
     <use style="fill:#0000ff;stroke:#000000;stroke-width:0.5;" x="426.843243243" xlink:href="#m04f823615e" y="51.5925225159"/>
     <use style="fill:#0000ff;stroke:#000000;stroke-width:0.5;" x="435.599391892" xlink:href="#m04f823615e" y="91.0081338233"/>
     <use style="fill:#0000ff;stroke:#000000;stroke-width:0.5;" x="453.111689189" xlink:href="#m04f823615e" y="33.7062031378"/>
     <use style="fill:#0000ff;stroke:#000000;stroke-width:0.5;" x="461.867837838" xlink:href="#m04f823615e" y="245.047647435"/>
     <use style="fill:#0000ff;stroke:#000000;stroke-width:0.5;" x="470.623986486" xlink:href="#m04f823615e" y="98.1357768763"/>
     <use style="fill:#0000ff;stroke:#000000;stroke-width:0.5;" x="479.380135135" xlink:href="#m04f823615e" y="69.1202371166"/>
     <use style="fill:#0000ff;stroke:#000000;stroke-width:0.5;" x="488.136283784" xlink:href="#m04f823615e" y="200.874020184"/>
     <use style="fill:#0000ff;stroke:#000000;stroke-width:0.5;" x="496.892432432" xlink:href="#m04f823615e" y="311.555508551"/>
     <use style="fill:#0000ff;stroke:#000000;stroke-width:0.5;" x="514.40472973" xlink:href="#m04f823615e" y="197.552342163"/>
     <use style="fill:#0000ff;stroke:#000000;stroke-width:0.5;" x="523.160878378" xlink:href="#m04f823615e" y="65.2218492721"/>
     <use style="fill:#0000ff;stroke:#000000;stroke-width:0.5;" x="531.917027027" xlink:href="#m04f823615e" y="25.9919363958"/>
     <use style="fill:#0000ff;stroke:#000000;stroke-width:0.5;" x="549.429324324" xlink:href="#m04f823615e" y="48.63819053"/>
     <use style="fill:#0000ff;stroke:#000000;stroke-width:0.5;" x="558.185472973" xlink:href="#m04f823615e" y="21.59860147"/>
     <use style="fill:#0000ff;stroke:#000000;stroke-width:0.5;" x="566.941621622" xlink:href="#m04f823615e" y="56.1039710247"/>
     <use style="fill:#0000ff;stroke:#000000;stroke-width:0.5;" x="575.69777027" xlink:href="#m04f823615e" y="61.2366884523"/>
     <use style="fill:#0000ff;stroke:#000000;stroke-width:0.5;" x="584.453918919" xlink:href="#m04f823615e" y="107.044078134"/>
     <use style="fill:#0000ff;stroke:#000000;stroke-width:0.5;" x="593.210067568" xlink:href="#m04f823615e" y="249.589796947"/>
     <use style="fill:#0000ff;stroke:#000000;stroke-width:0.5;" x="601.966216216" xlink:href="#m04f823615e" y="18.1227788269"/>
     <use style="fill:#0000ff;stroke:#000000;stroke-width:0.5;" x="610.722364865" xlink:href="#m04f823615e" y="82.5378548693"/>
     <use style="fill:#0000ff;stroke:#000000;stroke-width:0.5;" x="619.478513514" xlink:href="#m04f823615e" y="16.400964212"/>
     <use style="fill:#0000ff;stroke:#000000;stroke-width:0.5;" x="628.234662162" xlink:href="#m04f823615e" y="36.7664962261"/>
     <use style="fill:#0000ff;stroke:#000000;stroke-width:0.5;" x="636.990810811" xlink:href="#m04f823615e" y="52.693068212"/>
     <use style="fill:#0000ff;stroke:#000000;stroke-width:0.5;" x="654.503108108" xlink:href="#m04f823615e" y="87.2116562544"/>
     <use style="fill:#0000ff;stroke:#000000;stroke-width:0.5;" x="663.259256757" xlink:href="#m04f823615e" y="54.8745450742"/>
     <use style="fill:#0000ff;stroke:#000000;stroke-width:0.5;" x="689.527702703" xlink:href="#m04f823615e" y="104.715385696"/>
     <use style="fill:#0000ff;stroke:#000000;stroke-width:0.5;" x="707.04" xlink:href="#m04f823615e" y="128.145261625"/>
    </g>
   </g>
   <g id="patch_3">
    <path d="M 59.085 314.64 
L 707.04 314.64 
" style="fill:none;stroke:#000000;stroke-linecap:square;stroke-linejoin:miter;"/>
   </g>
   <g id="patch_4">
    <path d="M 59.085 12.96 
L 707.04 12.96 
" style="fill:none;stroke:#000000;stroke-linecap:square;stroke-linejoin:miter;"/>
   </g>
   <g id="patch_5">
    <path d="M 707.04 314.64 
L 707.04 12.96 
" style="fill:none;stroke:#000000;stroke-linecap:square;stroke-linejoin:miter;"/>
   </g>
   <g id="patch_6">
    <path d="M 59.085 314.64 
L 59.085 12.96 
" style="fill:none;stroke:#000000;stroke-linecap:square;stroke-linejoin:miter;"/>
   </g>
   <g id="matplotlib.axis_1">
    <g id="xtick_1">
     <g id="line2d_3">
      <defs>
       <path d="M 0 0 
L 0 -4 
" id="mdb82c50da6" style="stroke:#000000;stroke-width:0.5;"/>
      </defs>
      <g>
       <use style="stroke:#000000;stroke-width:0.5;" x="129.134189189" xlink:href="#mdb82c50da6" y="314.64"/>
      </g>
     </g>
     <g id="line2d_4">
      <defs>
       <path d="M 0 0 
L 0 4 
" id="mdb2e8fa830" style="stroke:#000000;stroke-width:0.5;"/>
      </defs>
      <g>
       <use style="stroke:#000000;stroke-width:0.5;" x="129.134189189" xlink:href="#mdb2e8fa830" y="12.96"/>
      </g>
     </g>
     <g id="text_1">
      <!-- 10 -->
      <defs>
       <path d="M 31.78125 66.40625 
Q 24.171875 66.40625 20.328125 58.90625 
Q 16.5 51.421875 16.5 36.375 
Q 16.5 21.390625 20.328125 13.890625 
Q 24.171875 6.390625 31.78125 6.390625 
Q 39.453125 6.390625 43.28125 13.890625 
Q 47.125 21.390625 47.125 36.375 
Q 47.125 51.421875 43.28125 58.90625 
Q 39.453125 66.40625 31.78125 66.40625 
M 31.78125 74.21875 
Q 44.046875 74.21875 50.515625 64.515625 
Q 56.984375 54.828125 56.984375 36.375 
Q 56.984375 17.96875 50.515625 8.265625 
Q 44.046875 -1.421875 31.78125 -1.421875 
Q 19.53125 -1.421875 13.0625 8.265625 
Q 6.59375 17.96875 6.59375 36.375 
Q 6.59375 54.828125 13.0625 64.515625 
Q 19.53125 74.21875 31.78125 74.21875 
" id="BitstreamVeraSans-Roman-30"/>
       <path d="M 12.40625 8.296875 
L 28.515625 8.296875 
L 28.515625 63.921875 
L 10.984375 60.40625 
L 10.984375 69.390625 
L 28.421875 72.90625 
L 38.28125 72.90625 
L 38.28125 8.296875 
L 54.390625 8.296875 
L 54.390625 0 
L 12.40625 0 
z
" id="BitstreamVeraSans-Roman-31"/>
      </defs>
      <g transform="translate(121.499189189 327.758125)scale(0.12 -0.12)">
       <use xlink:href="#BitstreamVeraSans-Roman-31"/>
       <use x="63.623046875" xlink:href="#BitstreamVeraSans-Roman-30"/>
      </g>
     </g>
    </g>
    <g id="xtick_2">
     <g id="line2d_5">
      <g>
       <use style="stroke:#000000;stroke-width:0.5;" x="216.695675676" xlink:href="#mdb82c50da6" y="314.64"/>
      </g>
     </g>
     <g id="line2d_6">
      <g>
       <use style="stroke:#000000;stroke-width:0.5;" x="216.695675676" xlink:href="#mdb2e8fa830" y="12.96"/>
      </g>
     </g>
     <g id="text_2">
      <!-- 20 -->
      <defs>
       <path d="M 19.1875 8.296875 
L 53.609375 8.296875 
L 53.609375 0 
L 7.328125 0 
L 7.328125 8.296875 
Q 12.9375 14.109375 22.625 23.890625 
Q 32.328125 33.6875 34.8125 36.53125 
Q 39.546875 41.84375 41.421875 45.53125 
Q 43.3125 49.21875 43.3125 52.78125 
Q 43.3125 58.59375 39.234375 62.25 
Q 35.15625 65.921875 28.609375 65.921875 
Q 23.96875 65.921875 18.8125 64.3125 
Q 13.671875 62.703125 7.8125 59.421875 
L 7.8125 69.390625 
Q 13.765625 71.78125 18.9375 73 
Q 24.125 74.21875 28.421875 74.21875 
Q 39.75 74.21875 46.484375 68.546875 
Q 53.21875 62.890625 53.21875 53.421875 
Q 53.21875 48.921875 51.53125 44.890625 
Q 49.859375 40.875 45.40625 35.40625 
Q 44.1875 33.984375 37.640625 27.21875 
Q 31.109375 20.453125 19.1875 8.296875 
" id="BitstreamVeraSans-Roman-32"/>
      </defs>
      <g transform="translate(209.060675676 327.758125)scale(0.12 -0.12)">
       <use xlink:href="#BitstreamVeraSans-Roman-32"/>
       <use x="63.623046875" xlink:href="#BitstreamVeraSans-Roman-30"/>
      </g>
     </g>
    </g>
    <g id="xtick_3">
     <g id="line2d_7">
      <g>
       <use style="stroke:#000000;stroke-width:0.5;" x="304.257162162" xlink:href="#mdb82c50da6" y="314.64"/>
      </g>
     </g>
     <g id="line2d_8">
      <g>
       <use style="stroke:#000000;stroke-width:0.5;" x="304.257162162" xlink:href="#mdb2e8fa830" y="12.96"/>
      </g>
     </g>
     <g id="text_3">
      <!-- 30 -->
      <defs>
       <path d="M 40.578125 39.3125 
Q 47.65625 37.796875 51.625 33 
Q 55.609375 28.21875 55.609375 21.1875 
Q 55.609375 10.40625 48.1875 4.484375 
Q 40.765625 -1.421875 27.09375 -1.421875 
Q 22.515625 -1.421875 17.65625 -0.515625 
Q 12.796875 0.390625 7.625 2.203125 
L 7.625 11.71875 
Q 11.71875 9.328125 16.59375 8.109375 
Q 21.484375 6.890625 26.8125 6.890625 
Q 36.078125 6.890625 40.9375 10.546875 
Q 45.796875 14.203125 45.796875 21.1875 
Q 45.796875 27.640625 41.28125 31.265625 
Q 36.765625 34.90625 28.71875 34.90625 
L 20.21875 34.90625 
L 20.21875 43.015625 
L 29.109375 43.015625 
Q 36.375 43.015625 40.234375 45.921875 
Q 44.09375 48.828125 44.09375 54.296875 
Q 44.09375 59.90625 40.109375 62.90625 
Q 36.140625 65.921875 28.71875 65.921875 
Q 24.65625 65.921875 20.015625 65.03125 
Q 15.375 64.15625 9.8125 62.3125 
L 9.8125 71.09375 
Q 15.4375 72.65625 20.34375 73.4375 
Q 25.25 74.21875 29.59375 74.21875 
Q 40.828125 74.21875 47.359375 69.109375 
Q 53.90625 64.015625 53.90625 55.328125 
Q 53.90625 49.265625 50.4375 45.09375 
Q 46.96875 40.921875 40.578125 39.3125 
" id="BitstreamVeraSans-Roman-33"/>
      </defs>
      <g transform="translate(296.622162162 327.758125)scale(0.12 -0.12)">
       <use xlink:href="#BitstreamVeraSans-Roman-33"/>
       <use x="63.623046875" xlink:href="#BitstreamVeraSans-Roman-30"/>
      </g>
     </g>
    </g>
    <g id="xtick_4">
     <g id="line2d_9">
      <g>
       <use style="stroke:#000000;stroke-width:0.5;" x="391.818648649" xlink:href="#mdb82c50da6" y="314.64"/>
      </g>
     </g>
     <g id="line2d_10">
      <g>
       <use style="stroke:#000000;stroke-width:0.5;" x="391.818648649" xlink:href="#mdb2e8fa830" y="12.96"/>
      </g>
     </g>
     <g id="text_4">
      <!-- 40 -->
      <defs>
       <path d="M 37.796875 64.3125 
L 12.890625 25.390625 
L 37.796875 25.390625 
z
M 35.203125 72.90625 
L 47.609375 72.90625 
L 47.609375 25.390625 
L 58.015625 25.390625 
L 58.015625 17.1875 
L 47.609375 17.1875 
L 47.609375 0 
L 37.796875 0 
L 37.796875 17.1875 
L 4.890625 17.1875 
L 4.890625 26.703125 
z
" id="BitstreamVeraSans-Roman-34"/>
      </defs>
      <g transform="translate(384.183648649 327.758125)scale(0.12 -0.12)">
       <use xlink:href="#BitstreamVeraSans-Roman-34"/>
       <use x="63.623046875" xlink:href="#BitstreamVeraSans-Roman-30"/>
      </g>
     </g>
    </g>
    <g id="xtick_5">
     <g id="line2d_11">
      <g>
       <use style="stroke:#000000;stroke-width:0.5;" x="479.380135135" xlink:href="#mdb82c50da6" y="314.64"/>
      </g>
     </g>
     <g id="line2d_12">
      <g>
       <use style="stroke:#000000;stroke-width:0.5;" x="479.380135135" xlink:href="#mdb2e8fa830" y="12.96"/>
      </g>
     </g>
     <g id="text_5">
      <!-- 50 -->
      <defs>
       <path d="M 10.796875 72.90625 
L 49.515625 72.90625 
L 49.515625 64.59375 
L 19.828125 64.59375 
L 19.828125 46.734375 
Q 21.96875 47.46875 24.109375 47.828125 
Q 26.265625 48.1875 28.421875 48.1875 
Q 40.625 48.1875 47.75 41.5 
Q 54.890625 34.8125 54.890625 23.390625 
Q 54.890625 11.625 47.5625 5.09375 
Q 40.234375 -1.421875 26.90625 -1.421875 
Q 22.3125 -1.421875 17.546875 -0.640625 
Q 12.796875 0.140625 7.71875 1.703125 
L 7.71875 11.625 
Q 12.109375 9.234375 16.796875 8.0625 
Q 21.484375 6.890625 26.703125 6.890625 
Q 35.15625 6.890625 40.078125 11.328125 
Q 45.015625 15.765625 45.015625 23.390625 
Q 45.015625 31 40.078125 35.4375 
Q 35.15625 39.890625 26.703125 39.890625 
Q 22.75 39.890625 18.8125 39.015625 
Q 14.890625 38.140625 10.796875 36.28125 
z
" id="BitstreamVeraSans-Roman-35"/>
      </defs>
      <g transform="translate(471.745135135 327.758125)scale(0.12 -0.12)">
       <use xlink:href="#BitstreamVeraSans-Roman-35"/>
       <use x="63.623046875" xlink:href="#BitstreamVeraSans-Roman-30"/>
      </g>
     </g>
    </g>
    <g id="xtick_6">
     <g id="line2d_13">
      <g>
       <use style="stroke:#000000;stroke-width:0.5;" x="566.941621622" xlink:href="#mdb82c50da6" y="314.64"/>
      </g>
     </g>
     <g id="line2d_14">
      <g>
       <use style="stroke:#000000;stroke-width:0.5;" x="566.941621622" xlink:href="#mdb2e8fa830" y="12.96"/>
      </g>
     </g>
     <g id="text_6">
      <!-- 60 -->
      <defs>
       <path d="M 33.015625 40.375 
Q 26.375 40.375 22.484375 35.828125 
Q 18.609375 31.296875 18.609375 23.390625 
Q 18.609375 15.53125 22.484375 10.953125 
Q 26.375 6.390625 33.015625 6.390625 
Q 39.65625 6.390625 43.53125 10.953125 
Q 47.40625 15.53125 47.40625 23.390625 
Q 47.40625 31.296875 43.53125 35.828125 
Q 39.65625 40.375 33.015625 40.375 
M 52.59375 71.296875 
L 52.59375 62.3125 
Q 48.875 64.0625 45.09375 64.984375 
Q 41.3125 65.921875 37.59375 65.921875 
Q 27.828125 65.921875 22.671875 59.328125 
Q 17.53125 52.734375 16.796875 39.40625 
Q 19.671875 43.65625 24.015625 45.921875 
Q 28.375 48.1875 33.59375 48.1875 
Q 44.578125 48.1875 50.953125 41.515625 
Q 57.328125 34.859375 57.328125 23.390625 
Q 57.328125 12.15625 50.6875 5.359375 
Q 44.046875 -1.421875 33.015625 -1.421875 
Q 20.359375 -1.421875 13.671875 8.265625 
Q 6.984375 17.96875 6.984375 36.375 
Q 6.984375 53.65625 15.1875 63.9375 
Q 23.390625 74.21875 37.203125 74.21875 
Q 40.921875 74.21875 44.703125 73.484375 
Q 48.484375 72.75 52.59375 71.296875 
" id="BitstreamVeraSans-Roman-36"/>
      </defs>
      <g transform="translate(559.306621622 327.758125)scale(0.12 -0.12)">
       <use xlink:href="#BitstreamVeraSans-Roman-36"/>
       <use x="63.623046875" xlink:href="#BitstreamVeraSans-Roman-30"/>
      </g>
     </g>
    </g>
    <g id="xtick_7">
     <g id="line2d_15">
      <g>
       <use style="stroke:#000000;stroke-width:0.5;" x="654.503108108" xlink:href="#mdb82c50da6" y="314.64"/>
      </g>
     </g>
     <g id="line2d_16">
      <g>
       <use style="stroke:#000000;stroke-width:0.5;" x="654.503108108" xlink:href="#mdb2e8fa830" y="12.96"/>
      </g>
     </g>
     <g id="text_7">
      <!-- 70 -->
      <defs>
       <path d="M 8.203125 72.90625 
L 55.078125 72.90625 
L 55.078125 68.703125 
L 28.609375 0 
L 18.3125 0 
L 43.21875 64.59375 
L 8.203125 64.59375 
z
" id="BitstreamVeraSans-Roman-37"/>
      </defs>
      <g transform="translate(646.868108108 327.758125)scale(0.12 -0.12)">
       <use xlink:href="#BitstreamVeraSans-Roman-37"/>
       <use x="63.623046875" xlink:href="#BitstreamVeraSans-Roman-30"/>
      </g>
     </g>
    </g>
    <g id="text_8">
     <!-- residue number -->
     <defs>
      <path d="M 9.421875 54.6875 
L 18.40625 54.6875 
L 18.40625 0 
L 9.421875 0 
z
M 9.421875 75.984375 
L 18.40625 75.984375 
L 18.40625 64.59375 
L 9.421875 64.59375 
z
" id="BitstreamVeraSans-Roman-69"/>
      <path d="M 48.6875 27.296875 
Q 48.6875 37.203125 44.609375 42.84375 
Q 40.53125 48.484375 33.40625 48.484375 
Q 26.265625 48.484375 22.1875 42.84375 
Q 18.109375 37.203125 18.109375 27.296875 
Q 18.109375 17.390625 22.1875 11.75 
Q 26.265625 6.109375 33.40625 6.109375 
Q 40.53125 6.109375 44.609375 11.75 
Q 48.6875 17.390625 48.6875 27.296875 
M 18.109375 46.390625 
Q 20.953125 51.265625 25.265625 53.625 
Q 29.59375 56 35.59375 56 
Q 45.5625 56 51.78125 48.09375 
Q 58.015625 40.1875 58.015625 27.296875 
Q 58.015625 14.40625 51.78125 6.484375 
Q 45.5625 -1.421875 35.59375 -1.421875 
Q 29.59375 -1.421875 25.265625 0.953125 
Q 20.953125 3.328125 18.109375 8.203125 
L 18.109375 0 
L 9.078125 0 
L 9.078125 75.984375 
L 18.109375 75.984375 
z
" id="BitstreamVeraSans-Roman-62"/>
      <path d="M 45.40625 46.390625 
L 45.40625 75.984375 
L 54.390625 75.984375 
L 54.390625 0 
L 45.40625 0 
L 45.40625 8.203125 
Q 42.578125 3.328125 38.25 0.953125 
Q 33.9375 -1.421875 27.875 -1.421875 
Q 17.96875 -1.421875 11.734375 6.484375 
Q 5.515625 14.40625 5.515625 27.296875 
Q 5.515625 40.1875 11.734375 48.09375 
Q 17.96875 56 27.875 56 
Q 33.9375 56 38.25 53.625 
Q 42.578125 51.265625 45.40625 46.390625 
M 14.796875 27.296875 
Q 14.796875 17.390625 18.875 11.75 
Q 22.953125 6.109375 30.078125 6.109375 
Q 37.203125 6.109375 41.296875 11.75 
Q 45.40625 17.390625 45.40625 27.296875 
Q 45.40625 37.203125 41.296875 42.84375 
Q 37.203125 48.484375 30.078125 48.484375 
Q 22.953125 48.484375 18.875 42.84375 
Q 14.796875 37.203125 14.796875 27.296875 
" id="BitstreamVeraSans-Roman-64"/>
      <path d="M 54.890625 33.015625 
L 54.890625 0 
L 45.90625 0 
L 45.90625 32.71875 
Q 45.90625 40.484375 42.875 44.328125 
Q 39.84375 48.1875 33.796875 48.1875 
Q 26.515625 48.1875 22.3125 43.546875 
Q 18.109375 38.921875 18.109375 30.90625 
L 18.109375 0 
L 9.078125 0 
L 9.078125 54.6875 
L 18.109375 54.6875 
L 18.109375 46.1875 
Q 21.34375 51.125 25.703125 53.5625 
Q 30.078125 56 35.796875 56 
Q 45.21875 56 50.046875 50.171875 
Q 54.890625 44.34375 54.890625 33.015625 
" id="BitstreamVeraSans-Roman-6e"/>
      <path d="M 52 44.1875 
Q 55.375 50.25 60.0625 53.125 
Q 64.75 56 71.09375 56 
Q 79.640625 56 84.28125 50.015625 
Q 88.921875 44.046875 88.921875 33.015625 
L 88.921875 0 
L 79.890625 0 
L 79.890625 32.71875 
Q 79.890625 40.578125 77.09375 44.375 
Q 74.3125 48.1875 68.609375 48.1875 
Q 61.625 48.1875 57.5625 43.546875 
Q 53.515625 38.921875 53.515625 30.90625 
L 53.515625 0 
L 44.484375 0 
L 44.484375 32.71875 
Q 44.484375 40.625 41.703125 44.40625 
Q 38.921875 48.1875 33.109375 48.1875 
Q 26.21875 48.1875 22.15625 43.53125 
Q 18.109375 38.875 18.109375 30.90625 
L 18.109375 0 
L 9.078125 0 
L 9.078125 54.6875 
L 18.109375 54.6875 
L 18.109375 46.1875 
Q 21.1875 51.21875 25.484375 53.609375 
Q 29.78125 56 35.6875 56 
Q 41.65625 56 45.828125 52.96875 
Q 50 49.953125 52 44.1875 
" id="BitstreamVeraSans-Roman-6d"/>
      <path d="M 44.28125 53.078125 
L 44.28125 44.578125 
Q 40.484375 46.53125 36.375 47.5 
Q 32.28125 48.484375 27.875 48.484375 
Q 21.1875 48.484375 17.84375 46.4375 
Q 14.5 44.390625 14.5 40.28125 
Q 14.5 37.15625 16.890625 35.375 
Q 19.28125 33.59375 26.515625 31.984375 
L 29.59375 31.296875 
Q 39.15625 29.25 43.1875 25.515625 
Q 47.21875 21.78125 47.21875 15.09375 
Q 47.21875 7.46875 41.1875 3.015625 
Q 35.15625 -1.421875 24.609375 -1.421875 
Q 20.21875 -1.421875 15.453125 -0.5625 
Q 10.6875 0.296875 5.421875 2 
L 5.421875 11.28125 
Q 10.40625 8.6875 15.234375 7.390625 
Q 20.0625 6.109375 24.8125 6.109375 
Q 31.15625 6.109375 34.5625 8.28125 
Q 37.984375 10.453125 37.984375 14.40625 
Q 37.984375 18.0625 35.515625 20.015625 
Q 33.0625 21.96875 24.703125 23.78125 
L 21.578125 24.515625 
Q 13.234375 26.265625 9.515625 29.90625 
Q 5.8125 33.546875 5.8125 39.890625 
Q 5.8125 47.609375 11.28125 51.796875 
Q 16.75 56 26.8125 56 
Q 31.78125 56 36.171875 55.265625 
Q 40.578125 54.546875 44.28125 53.078125 
" id="BitstreamVeraSans-Roman-73"/>
      <path d="M 8.5 21.578125 
L 8.5 54.6875 
L 17.484375 54.6875 
L 17.484375 21.921875 
Q 17.484375 14.15625 20.5 10.265625 
Q 23.53125 6.390625 29.59375 6.390625 
Q 36.859375 6.390625 41.078125 11.03125 
Q 45.3125 15.671875 45.3125 23.6875 
L 45.3125 54.6875 
L 54.296875 54.6875 
L 54.296875 0 
L 45.3125 0 
L 45.3125 8.40625 
Q 42.046875 3.421875 37.71875 1 
Q 33.40625 -1.421875 27.6875 -1.421875 
Q 18.265625 -1.421875 13.375 4.4375 
Q 8.5 10.296875 8.5 21.578125 
" id="BitstreamVeraSans-Roman-75"/>
      <path d="M 41.109375 46.296875 
Q 39.59375 47.171875 37.8125 47.578125 
Q 36.03125 48 33.890625 48 
Q 26.265625 48 22.1875 43.046875 
Q 18.109375 38.09375 18.109375 28.8125 
L 18.109375 0 
L 9.078125 0 
L 9.078125 54.6875 
L 18.109375 54.6875 
L 18.109375 46.1875 
Q 20.953125 51.171875 25.484375 53.578125 
Q 30.03125 56 36.53125 56 
Q 37.453125 56 38.578125 55.875 
Q 39.703125 55.765625 41.0625 55.515625 
z
" id="BitstreamVeraSans-Roman-72"/>
      <path id="BitstreamVeraSans-Roman-20"/>
      <path d="M 56.203125 29.59375 
L 56.203125 25.203125 
L 14.890625 25.203125 
Q 15.484375 15.921875 20.484375 11.0625 
Q 25.484375 6.203125 34.421875 6.203125 
Q 39.59375 6.203125 44.453125 7.46875 
Q 49.3125 8.734375 54.109375 11.28125 
L 54.109375 2.78125 
Q 49.265625 0.734375 44.1875 -0.34375 
Q 39.109375 -1.421875 33.890625 -1.421875 
Q 20.796875 -1.421875 13.15625 6.1875 
Q 5.515625 13.8125 5.515625 26.8125 
Q 5.515625 40.234375 12.765625 48.109375 
Q 20.015625 56 32.328125 56 
Q 43.359375 56 49.78125 48.890625 
Q 56.203125 41.796875 56.203125 29.59375 
M 47.21875 32.234375 
Q 47.125 39.59375 43.09375 43.984375 
Q 39.0625 48.390625 32.421875 48.390625 
Q 24.90625 48.390625 20.390625 44.140625 
Q 15.875 39.890625 15.1875 32.171875 
z
" id="BitstreamVeraSans-Roman-65"/>
     </defs>
     <g transform="translate(335.48625 344.371875)scale(0.12 -0.12)">
      <use xlink:href="#BitstreamVeraSans-Roman-72"/>
      <use x="41.08203125" xlink:href="#BitstreamVeraSans-Roman-65"/>
      <use x="102.60546875" xlink:href="#BitstreamVeraSans-Roman-73"/>
      <use x="154.705078125" xlink:href="#BitstreamVeraSans-Roman-69"/>
      <use x="182.48828125" xlink:href="#BitstreamVeraSans-Roman-64"/>
      <use x="245.96484375" xlink:href="#BitstreamVeraSans-Roman-75"/>
      <use x="309.34375" xlink:href="#BitstreamVeraSans-Roman-65"/>
      <use x="370.8671875" xlink:href="#BitstreamVeraSans-Roman-20"/>
      <use x="402.654296875" xlink:href="#BitstreamVeraSans-Roman-6e"/>
      <use x="466.033203125" xlink:href="#BitstreamVeraSans-Roman-75"/>
      <use x="529.412109375" xlink:href="#BitstreamVeraSans-Roman-6d"/>
      <use x="626.82421875" xlink:href="#BitstreamVeraSans-Roman-62"/>
      <use x="690.30078125" xlink:href="#BitstreamVeraSans-Roman-65"/>
      <use x="751.82421875" xlink:href="#BitstreamVeraSans-Roman-72"/>
     </g>
    </g>
   </g>
   <g id="matplotlib.axis_2">
    <g id="ytick_1">
     <g id="line2d_17">
      <path clip-path="url(#p4862400e4e)" d="M 59.085 293.53306 
L 707.04 293.53306 
" style="fill:none;stroke:#000000;stroke-dasharray:1.000000,3.000000;stroke-dashoffset:0.0;stroke-width:0.5;"/>
     </g>
     <g id="line2d_18">
      <defs>
       <path d="M 0 0 
L 4 0 
" id="m3bf988c624" style="stroke:#000000;stroke-width:0.5;"/>
      </defs>
      <g>
       <use style="stroke:#000000;stroke-width:0.5;" x="59.085" xlink:href="#m3bf988c624" y="293.533060071"/>
      </g>
     </g>
     <g id="line2d_19">
      <defs>
       <path d="M 0 0 
L -4 0 
" id="mbc2e9af4ce" style="stroke:#000000;stroke-width:0.5;"/>
      </defs>
      <g>
       <use style="stroke:#000000;stroke-width:0.5;" x="707.04" xlink:href="#mbc2e9af4ce" y="293.533060071"/>
      </g>
     </g>
     <g id="text_9">
      <!-- −15 -->
      <defs>
       <path d="M 10.59375 35.5 
L 73.1875 35.5 
L 73.1875 27.203125 
L 10.59375 27.203125 
z
" id="BitstreamVeraSans-Roman-2212"/>
      </defs>
      <g transform="translate(29.759375 296.844310071)scale(0.12 -0.12)">
       <use xlink:href="#BitstreamVeraSans-Roman-2212"/>
       <use x="83.7890625" xlink:href="#BitstreamVeraSans-Roman-31"/>
       <use x="147.412109375" xlink:href="#BitstreamVeraSans-Roman-35"/>
      </g>
     </g>
    </g>
    <g id="ytick_2">
     <g id="line2d_20">
      <path clip-path="url(#p4862400e4e)" d="M 59.085 240.232707 
L 707.04 240.232707 
" style="fill:none;stroke:#000000;stroke-dasharray:1.000000,3.000000;stroke-dashoffset:0.0;stroke-width:0.5;"/>
     </g>
     <g id="line2d_21">
      <g>
       <use style="stroke:#000000;stroke-width:0.5;" x="59.085" xlink:href="#m3bf988c624" y="240.232706714"/>
      </g>
     </g>
     <g id="line2d_22">
      <g>
       <use style="stroke:#000000;stroke-width:0.5;" x="707.04" xlink:href="#mbc2e9af4ce" y="240.232706714"/>
      </g>
     </g>
     <g id="text_10">
      <!-- −10 -->
      <g transform="translate(29.759375 243.543956714)scale(0.12 -0.12)">
       <use xlink:href="#BitstreamVeraSans-Roman-2212"/>
       <use x="83.7890625" xlink:href="#BitstreamVeraSans-Roman-31"/>
       <use x="147.412109375" xlink:href="#BitstreamVeraSans-Roman-30"/>
      </g>
     </g>
    </g>
    <g id="ytick_3">
     <g id="line2d_23">
      <path clip-path="url(#p4862400e4e)" d="M 59.085 186.932353 
L 707.04 186.932353 
" style="fill:none;stroke:#000000;stroke-dasharray:1.000000,3.000000;stroke-dashoffset:0.0;stroke-width:0.5;"/>
     </g>
     <g id="line2d_24">
      <g>
       <use style="stroke:#000000;stroke-width:0.5;" x="59.085" xlink:href="#m3bf988c624" y="186.932353357"/>
      </g>
     </g>
     <g id="line2d_25">
      <g>
       <use style="stroke:#000000;stroke-width:0.5;" x="707.04" xlink:href="#mbc2e9af4ce" y="186.932353357"/>
      </g>
     </g>
     <g id="text_11">
      <!-- −5 -->
      <g transform="translate(37.394375 190.243603357)scale(0.12 -0.12)">
       <use xlink:href="#BitstreamVeraSans-Roman-2212"/>
       <use x="83.7890625" xlink:href="#BitstreamVeraSans-Roman-35"/>
      </g>
     </g>
    </g>
    <g id="ytick_4">
     <g id="line2d_26">
      <path clip-path="url(#p4862400e4e)" d="M 59.085 133.632 
L 707.04 133.632 
" style="fill:none;stroke:#000000;stroke-dasharray:1.000000,3.000000;stroke-dashoffset:0.0;stroke-width:0.5;"/>
     </g>
     <g id="line2d_27">
      <g>
       <use style="stroke:#000000;stroke-width:0.5;" x="59.085" xlink:href="#m3bf988c624" y="133.632"/>
      </g>
     </g>
     <g id="line2d_28">
      <g>
       <use style="stroke:#000000;stroke-width:0.5;" x="707.04" xlink:href="#mbc2e9af4ce" y="133.632"/>
      </g>
     </g>
     <g id="text_12">
      <!-- 0 -->
      <g transform="translate(47.45 136.94325)scale(0.12 -0.12)">
       <use xlink:href="#BitstreamVeraSans-Roman-30"/>
      </g>
     </g>
    </g>
    <g id="ytick_5">
     <g id="line2d_29">
      <path clip-path="url(#p4862400e4e)" d="M 59.085 80.331647 
L 707.04 80.331647 
" style="fill:none;stroke:#000000;stroke-dasharray:1.000000,3.000000;stroke-dashoffset:0.0;stroke-width:0.5;"/>
     </g>
     <g id="line2d_30">
      <g>
       <use style="stroke:#000000;stroke-width:0.5;" x="59.085" xlink:href="#m3bf988c624" y="80.3316466431"/>
      </g>
     </g>
     <g id="line2d_31">
      <g>
       <use style="stroke:#000000;stroke-width:0.5;" x="707.04" xlink:href="#mbc2e9af4ce" y="80.3316466431"/>
      </g>
     </g>
     <g id="text_13">
      <!-- 5 -->
      <g transform="translate(47.45 83.6428966431)scale(0.12 -0.12)">
       <use xlink:href="#BitstreamVeraSans-Roman-35"/>
      </g>
     </g>
    </g>
    <g id="ytick_6">
     <g id="line2d_32">
      <path clip-path="url(#p4862400e4e)" d="M 59.085 27.031293 
L 707.04 27.031293 
" style="fill:none;stroke:#000000;stroke-dasharray:1.000000,3.000000;stroke-dashoffset:0.0;stroke-width:0.5;"/>
     </g>
     <g id="line2d_33">
      <g>
       <use style="stroke:#000000;stroke-width:0.5;" x="59.085" xlink:href="#m3bf988c624" y="27.0312932862"/>
      </g>
     </g>
     <g id="line2d_34">
      <g>
       <use style="stroke:#000000;stroke-width:0.5;" x="707.04" xlink:href="#mbc2e9af4ce" y="27.0312932862"/>
      </g>
     </g>
     <g id="text_14">
      <!-- 10 -->
      <g transform="translate(39.815 30.3425432862)scale(0.12 -0.12)">
       <use xlink:href="#BitstreamVeraSans-Roman-31"/>
       <use x="63.623046875" xlink:href="#BitstreamVeraSans-Roman-30"/>
      </g>
     </g>
    </g>
    <g id="text_15">
     <!-- value -->
     <defs>
      <path d="M 2.984375 54.6875 
L 12.5 54.6875 
L 29.59375 8.796875 
L 46.6875 54.6875 
L 56.203125 54.6875 
L 35.6875 0 
L 23.484375 0 
z
" id="BitstreamVeraSans-Roman-76"/>
      <path d="M 34.28125 27.484375 
Q 23.390625 27.484375 19.1875 25 
Q 14.984375 22.515625 14.984375 16.5 
Q 14.984375 11.71875 18.140625 8.90625 
Q 21.296875 6.109375 26.703125 6.109375 
Q 34.1875 6.109375 38.703125 11.40625 
Q 43.21875 16.703125 43.21875 25.484375 
L 43.21875 27.484375 
z
M 52.203125 31.203125 
L 52.203125 0 
L 43.21875 0 
L 43.21875 8.296875 
Q 40.140625 3.328125 35.546875 0.953125 
Q 30.953125 -1.421875 24.3125 -1.421875 
Q 15.921875 -1.421875 10.953125 3.296875 
Q 6 8.015625 6 15.921875 
Q 6 25.140625 12.171875 29.828125 
Q 18.359375 34.515625 30.609375 34.515625 
L 43.21875 34.515625 
L 43.21875 35.40625 
Q 43.21875 41.609375 39.140625 45 
Q 35.0625 48.390625 27.6875 48.390625 
Q 23 48.390625 18.546875 47.265625 
Q 14.109375 46.140625 10.015625 43.890625 
L 10.015625 52.203125 
Q 14.9375 54.109375 19.578125 55.046875 
Q 24.21875 56 28.609375 56 
Q 40.484375 56 46.34375 49.84375 
Q 52.203125 43.703125 52.203125 31.203125 
" id="BitstreamVeraSans-Roman-61"/>
      <path d="M 9.421875 75.984375 
L 18.40625 75.984375 
L 18.40625 0 
L 9.421875 0 
z
" id="BitstreamVeraSans-Roman-6c"/>
     </defs>
     <g transform="translate(22.26375 180.189375)rotate(-90.0)scale(0.12 -0.12)">
      <use xlink:href="#BitstreamVeraSans-Roman-76"/>
      <use x="59.1796875" xlink:href="#BitstreamVeraSans-Roman-61"/>
      <use x="120.458984375" xlink:href="#BitstreamVeraSans-Roman-6c"/>
      <use x="148.2421875" xlink:href="#BitstreamVeraSans-Roman-75"/>
      <use x="211.62109375" xlink:href="#BitstreamVeraSans-Roman-65"/>
     </g>
    </g>
   </g>
   <g id="legend_1">
    <g id="patch_7">
     <path d="M 66.285 307.44 
L 146.7855 307.44 
L 146.7855 260.847 
L 66.285 260.847 
z
" style="fill:#ffffff;stroke:#000000;stroke-linejoin:miter;"/>
    </g>
    <g id="line2d_35">
     <path d="M 76.365 272.50875 
L 96.525 272.50875 
" style="fill:none;stroke:#ff0000;stroke-linecap:square;stroke-width:2.0;"/>
    </g>
    <g id="line2d_36">
     <g>
      <use style="fill:#ff0000;stroke:#000000;stroke-width:0.5;" x="76.365" xlink:href="#m0dc6b191cb" y="272.50875"/>
      <use style="fill:#ff0000;stroke:#000000;stroke-width:0.5;" x="96.525" xlink:href="#m0dc6b191cb" y="272.50875"/>
     </g>
    </g>
    <g id="text_16">
     <!-- exp -->
     <defs>
      <path d="M 54.890625 54.6875 
L 35.109375 28.078125 
L 55.90625 0 
L 45.3125 0 
L 29.390625 21.484375 
L 13.484375 0 
L 2.875 0 
L 24.125 28.609375 
L 4.6875 54.6875 
L 15.28125 54.6875 
L 29.78125 35.203125 
L 44.28125 54.6875 
z
" id="BitstreamVeraSans-Roman-78"/>
      <path d="M 18.109375 8.203125 
L 18.109375 -20.796875 
L 9.078125 -20.796875 
L 9.078125 54.6875 
L 18.109375 54.6875 
L 18.109375 46.390625 
Q 20.953125 51.265625 25.265625 53.625 
Q 29.59375 56 35.59375 56 
Q 45.5625 56 51.78125 48.09375 
Q 58.015625 40.1875 58.015625 27.296875 
Q 58.015625 14.40625 51.78125 6.484375 
Q 45.5625 -1.421875 35.59375 -1.421875 
Q 29.59375 -1.421875 25.265625 0.953125 
Q 20.953125 3.328125 18.109375 8.203125 
M 48.6875 27.296875 
Q 48.6875 37.203125 44.609375 42.84375 
Q 40.53125 48.484375 33.40625 48.484375 
Q 26.265625 48.484375 22.1875 42.84375 
Q 18.109375 37.203125 18.109375 27.296875 
Q 18.109375 17.390625 22.1875 11.75 
Q 26.265625 6.109375 33.40625 6.109375 
Q 40.53125 6.109375 44.609375 11.75 
Q 48.6875 17.390625 48.6875 27.296875 
" id="BitstreamVeraSans-Roman-70"/>
     </defs>
     <g transform="translate(112.365 277.54875)scale(0.144 -0.144)">
      <use xlink:href="#BitstreamVeraSans-Roman-65"/>
      <use x="61.5078125" xlink:href="#BitstreamVeraSans-Roman-78"/>
      <use x="120.6875" xlink:href="#BitstreamVeraSans-Roman-70"/>
     </g>
    </g>
    <g id="line2d_37">
     <path d="M 76.365 293.64525 
L 96.525 293.64525 
" style="fill:none;stroke:#0000ff;stroke-linecap:square;stroke-width:2.0;"/>
    </g>
    <g id="line2d_38">
     <g>
      <use style="fill:#0000ff;stroke:#000000;stroke-width:0.5;" x="76.365" xlink:href="#m04f823615e" y="293.64525"/>
      <use style="fill:#0000ff;stroke:#000000;stroke-width:0.5;" x="96.525" xlink:href="#m04f823615e" y="293.64525"/>
     </g>
    </g>
    <g id="text_17">
     <!-- calc -->
     <defs>
      <path d="M 48.78125 52.59375 
L 48.78125 44.1875 
Q 44.96875 46.296875 41.140625 47.34375 
Q 37.3125 48.390625 33.40625 48.390625 
Q 24.65625 48.390625 19.8125 42.84375 
Q 14.984375 37.3125 14.984375 27.296875 
Q 14.984375 17.28125 19.8125 11.734375 
Q 24.65625 6.203125 33.40625 6.203125 
Q 37.3125 6.203125 41.140625 7.25 
Q 44.96875 8.296875 48.78125 10.40625 
L 48.78125 2.09375 
Q 45.015625 0.34375 40.984375 -0.53125 
Q 36.96875 -1.421875 32.421875 -1.421875 
Q 20.0625 -1.421875 12.78125 6.34375 
Q 5.515625 14.109375 5.515625 27.296875 
Q 5.515625 40.671875 12.859375 48.328125 
Q 20.21875 56 33.015625 56 
Q 37.15625 56 41.109375 55.140625 
Q 45.0625 54.296875 48.78125 52.59375 
" id="BitstreamVeraSans-Roman-63"/>
     </defs>
     <g transform="translate(112.365 298.68525)scale(0.144 -0.144)">
      <use xlink:href="#BitstreamVeraSans-Roman-63"/>
      <use x="54.98046875" xlink:href="#BitstreamVeraSans-Roman-61"/>
      <use x="116.259765625" xlink:href="#BitstreamVeraSans-Roman-6c"/>
      <use x="144.04296875" xlink:href="#BitstreamVeraSans-Roman-63"/>
     </g>
    </g>
   </g>
  </g>
 </g>
 <defs>
  <clipPath id="p4862400e4e">
   <rect height="301.68" width="647.955" x="59.085" y="12.96"/>
  </clipPath>
 </defs>
</svg>
