<?xml version="1.0" encoding="utf-8" standalone="no"?>
<!DOCTYPE svg PUBLIC "-//W3C//DTD SVG 1.1//EN"
  "http://www.w3.org/Graphics/SVG/1.1/DTD/svg11.dtd">
<!-- Created with matplotlib (http://matplotlib.org/) -->
<svg height="360pt" version="1.1" viewBox="0 0 432 360" width="432pt" xmlns="http://www.w3.org/2000/svg" xmlns:xlink="http://www.w3.org/1999/xlink">
 <defs>
  <style type="text/css">
*{stroke-linecap:butt;stroke-linejoin:round;stroke-miterlimit:100000;}
  </style>
 </defs>
 <g id="figure_1">
  <g id="patch_1">
   <path d="M 0 360 
L 432 360 
L 432 0 
L 0 0 
z
" style="fill:#ffffff;"/>
  </g>
  <g id="axes_1">
   <g id="patch_2">
    <path d="M 56.7225 314.64 
L 409.644503 314.64 
L 409.644503 17.02118 
L 56.7225 17.02118 
z
" style="fill:#ffffff;"/>
   </g>
   <g id="line2d_1">
    <path clip-path="url(#pd273d9f338)" d="M 56.7225 314.64 
L 431.014358 -1 
L 431.014358 -1 
" style="fill:none;stroke:#ff0000;stroke-linecap:square;stroke-width:2.0;"/>
   </g>
   <g id="line2d_2">
    <defs>
     <path d="M 0 3 
C 0.795609 3 1.55874 2.683901 2.12132 2.12132 
C 2.683901 1.55874 3 0.795609 3 0 
C 3 -0.795609 2.683901 -1.55874 2.12132 -2.12132 
C 1.55874 -2.683901 0.795609 -3 0 -3 
C -0.795609 -3 -1.55874 -2.683901 -2.12132 -2.12132 
C -2.683901 -1.55874 -3 -0.795609 -3 0 
C -3 0.795609 -2.683901 1.55874 -2.12132 2.12132 
C -1.55874 2.683901 -0.795609 3 0 3 
z
" id="md4c378472c" style="stroke:#000000;stroke-width:0.5;"/>
    </defs>
    <g clip-path="url(#pd273d9f338)">
     <use style="fill:#0000ff;stroke:#000000;stroke-width:0.5;" x="292.369179092" xlink:href="#md4c378472c" y="167.062011036"/>
     <use style="fill:#0000ff;stroke:#000000;stroke-width:0.5;" x="206.87875598" xlink:href="#md4c378472c" y="186.93647823"/>
     <use style="fill:#0000ff;stroke:#000000;stroke-width:0.5;" x="244.143812208" xlink:href="#md4c378472c" y="153.104150525"/>
     <use style="fill:#0000ff;stroke:#000000;stroke-width:0.5;" x="273.736650978" xlink:href="#md4c378472c" y="132.190605452"/>
     <use style="fill:#0000ff;stroke:#000000;stroke-width:0.5;" x="346.074701304" xlink:href="#md4c378472c" y="85.0631274658"/>
     <use style="fill:#0000ff;stroke:#000000;stroke-width:0.5;" x="209.070818111" xlink:href="#md4c378472c" y="207.50933294"/>
     <use style="fill:#0000ff;stroke:#000000;stroke-width:0.5;" x="273.736650978" xlink:href="#md4c378472c" y="143.950338394"/>
     <use style="fill:#0000ff;stroke:#000000;stroke-width:0.5;" x="104.947866884" xlink:href="#md4c378472c" y="277.937591676"/>
     <use style="fill:#0000ff;stroke:#000000;stroke-width:0.5;" x="141.116892047" xlink:href="#md4c378472c" y="245.086389367"/>
     <use style="fill:#0000ff;stroke:#000000;stroke-width:0.5;" x="280.312837371" xlink:href="#md4c378472c" y="146.886690036"/>
     <use style="fill:#0000ff;stroke:#000000;stroke-width:0.5;" x="266.064433519" xlink:href="#md4c378472c" y="135.161987384"/>
     <use style="fill:#0000ff;stroke:#000000;stroke-width:0.5;" x="342.786608107" xlink:href="#md4c378472c" y="90.4345001671"/>
     <use style="fill:#0000ff;stroke:#000000;stroke-width:0.5;" x="278.12077524" xlink:href="#md4c378472c" y="134.630525206"/>
     <use style="fill:#0000ff;stroke:#000000;stroke-width:0.5;" x="316.481862534" xlink:href="#md4c378472c" y="108.617808495"/>
     <use style="fill:#0000ff;stroke:#000000;stroke-width:0.5;" x="286.889023765" xlink:href="#md4c378472c" y="134.257762255"/>
     <use style="fill:#0000ff;stroke:#000000;stroke-width:0.5;" x="232.087470487" xlink:href="#md4c378472c" y="164.091183674"/>
     <use style="fill:#0000ff;stroke:#000000;stroke-width:0.5;" x="252.912060733" xlink:href="#md4c378472c" y="149.840233325"/>
     <use style="fill:#0000ff;stroke:#000000;stroke-width:0.5;" x="78.6431213109" xlink:href="#md4c378472c" y="249.018100348"/>
     <use style="fill:#0000ff;stroke:#000000;stroke-width:0.5;" x="302.233458682" xlink:href="#md4c378472c" y="136.595641271"/>
     <use style="fill:#0000ff;stroke:#000000;stroke-width:0.5;" x="138.924829916" xlink:href="#md4c378472c" y="222.301173144"/>
     <use style="fill:#0000ff;stroke:#000000;stroke-width:0.5;" x="272.640619912" xlink:href="#md4c378472c" y="125.358959541"/>
     <use style="fill:#0000ff;stroke:#000000;stroke-width:0.5;" x="272.640619912" xlink:href="#md4c378472c" y="160.38148524"/>
     <use style="fill:#0000ff;stroke:#000000;stroke-width:0.5;" x="274.832682044" xlink:href="#md4c378472c" y="186.534970108"/>
     <use style="fill:#0000ff;stroke:#000000;stroke-width:0.5;" x="282.504899502" xlink:href="#md4c378472c" y="160.196813687"/>
     <use style="fill:#0000ff;stroke:#000000;stroke-width:0.5;" x="247.431905405" xlink:href="#md4c378472c" y="172.880921106"/>
     <use style="fill:#0000ff;stroke:#000000;stroke-width:0.5;" x="296.753303354" xlink:href="#md4c378472c" y="148.255736607"/>
     <use style="fill:#0000ff;stroke:#000000;stroke-width:0.5;" x="261.680309257" xlink:href="#md4c378472c" y="184.70230366"/>
     <use style="fill:#0000ff;stroke:#000000;stroke-width:0.5;" x="273.736650978" xlink:href="#md4c378472c" y="155.546196128"/>
     <use style="fill:#0000ff;stroke:#000000;stroke-width:0.5;" x="298.945365486" xlink:href="#md4c378472c" y="150.085907493"/>
     <use style="fill:#0000ff;stroke:#000000;stroke-width:0.5;" x="256.200153929" xlink:href="#md4c378472c" y="174.769044476"/>
     <use style="fill:#0000ff;stroke:#000000;stroke-width:0.5;" x="209.070818111" xlink:href="#md4c378472c" y="179.908514811"/>
     <use style="fill:#0000ff;stroke:#000000;stroke-width:0.5;" x="198.110507455" xlink:href="#md4c378472c" y="193.062527224"/>
     <use style="fill:#0000ff;stroke:#000000;stroke-width:0.5;" x="137.82879885" xlink:href="#md4c378472c" y="278.645314441"/>
     <use style="fill:#0000ff;stroke:#000000;stroke-width:0.5;" x="261.680309257" xlink:href="#md4c378472c" y="151.753127454"/>
     <use style="fill:#0000ff;stroke:#000000;stroke-width:0.5;" x="189.342258931" xlink:href="#md4c378472c" y="194.646376944"/>
     <use style="fill:#0000ff;stroke:#000000;stroke-width:0.5;" x="225.511284094" xlink:href="#md4c378472c" y="177.210350653"/>
     <use style="fill:#0000ff;stroke:#000000;stroke-width:0.5;" x="237.567625815" xlink:href="#md4c378472c" y="177.497525086"/>
     <use style="fill:#0000ff;stroke:#000000;stroke-width:0.5;" x="292.369179092" xlink:href="#md4c378472c" y="140.061791384"/>
     <use style="fill:#0000ff;stroke:#000000;stroke-width:0.5;" x="307.71361401" xlink:href="#md4c378472c" y="120.713702818"/>
     <use style="fill:#0000ff;stroke:#000000;stroke-width:0.5;" x="284.696961633" xlink:href="#md4c378472c" y="119.341698544"/>
     <use style="fill:#0000ff;stroke:#000000;stroke-width:0.5;" x="315.385831469" xlink:href="#md4c378472c" y="87.2144863637"/>
     <use style="fill:#0000ff;stroke:#000000;stroke-width:0.5;" x="398.68419245" xlink:href="#md4c378472c" y="77.3498089079"/>
     <use style="fill:#0000ff;stroke:#000000;stroke-width:0.5;" x="67.6828106555" xlink:href="#md4c378472c" y="283.286319467"/>
     <use style="fill:#0000ff;stroke:#000000;stroke-width:0.5;" x="281.408868437" xlink:href="#md4c378472c" y="158.587453783"/>
     <use style="fill:#0000ff;stroke:#000000;stroke-width:0.5;" x="292.369179092" xlink:href="#md4c378472c" y="125.093875449"/>
     <use style="fill:#0000ff;stroke:#000000;stroke-width:0.5;" x="321.962017862" xlink:href="#md4c378472c" y="98.4394297115"/>
     <use style="fill:#0000ff;stroke:#000000;stroke-width:0.5;" x="293.465210158" xlink:href="#md4c378472c" y="134.70705576"/>
     <use style="fill:#0000ff;stroke:#000000;stroke-width:0.5;" x="262.776340323" xlink:href="#md4c378472c" y="138.004801683"/>
     <use style="fill:#0000ff;stroke:#000000;stroke-width:0.5;" x="133.444674588" xlink:href="#md4c378472c" y="287.85282736"/>
     <use style="fill:#0000ff;stroke:#000000;stroke-width:0.5;" x="251.816029667" xlink:href="#md4c378472c" y="161.713837815"/>
     <use style="fill:#0000ff;stroke:#000000;stroke-width:0.5;" x="137.82879885" xlink:href="#md4c378472c" y="257.309095187"/>
     <use style="fill:#0000ff;stroke:#000000;stroke-width:0.5;" x="238.663656881" xlink:href="#md4c378472c" y="139.685331305"/>
     <use style="fill:#0000ff;stroke:#000000;stroke-width:0.5;" x="188.246227865" xlink:href="#md4c378472c" y="212.936624705"/>
     <use style="fill:#0000ff;stroke:#000000;stroke-width:0.5;" x="308.809645075" xlink:href="#md4c378472c" y="143.87482455"/>
     <use style="fill:#0000ff;stroke:#000000;stroke-width:0.5;" x="213.454942373" xlink:href="#md4c378472c" y="203.257080944"/>
     <use style="fill:#0000ff;stroke:#000000;stroke-width:0.5;" x="215.647004504" xlink:href="#md4c378472c" y="194.964145113"/>
     <use style="fill:#0000ff;stroke:#000000;stroke-width:0.5;" x="247.431905405" xlink:href="#md4c378472c" y="177.619622745"/>
     <use style="fill:#0000ff;stroke:#000000;stroke-width:0.5;" x="313.193769338" xlink:href="#md4c378472c" y="120.447694444"/>
     <use style="fill:#0000ff;stroke:#000000;stroke-width:0.5;" x="266.064433519" xlink:href="#md4c378472c" y="175.909146384"/>
     <use style="fill:#0000ff;stroke:#000000;stroke-width:0.5;" x="200.302569586" xlink:href="#md4c378472c" y="161.35826651"/>
     <use style="fill:#0000ff;stroke:#000000;stroke-width:0.5;" x="203.590662783" xlink:href="#md4c378472c" y="208.063532456"/>
     <use style="fill:#0000ff;stroke:#000000;stroke-width:0.5;" x="230.991439422" xlink:href="#md4c378472c" y="165.074157633"/>
     <use style="fill:#0000ff;stroke:#000000;stroke-width:0.5;" x="343.882639173" xlink:href="#md4c378472c" y="91.9203759895"/>
     <use style="fill:#0000ff;stroke:#000000;stroke-width:0.5;" x="252.912060733" xlink:href="#md4c378472c" y="176.426097334"/>
     <use style="fill:#0000ff;stroke:#000000;stroke-width:0.5;" x="303.329489748" xlink:href="#md4c378472c" y="107.664041848"/>
     <use style="fill:#0000ff;stroke:#000000;stroke-width:0.5;" x="332.922328517" xlink:href="#md4c378472c" y="103.23839454"/>
     <use style="fill:#0000ff;stroke:#000000;stroke-width:0.5;" x="293.465210158" xlink:href="#md4c378472c" y="96.5532473335"/>
     <use style="fill:#0000ff;stroke:#000000;stroke-width:0.5;" x="300.041396551" xlink:href="#md4c378472c" y="122.484257511"/>
     <use style="fill:#0000ff;stroke:#000000;stroke-width:0.5;" x="307.71361401" xlink:href="#md4c378472c" y="116.595841432"/>
     <use style="fill:#0000ff;stroke:#000000;stroke-width:0.5;" x="280.312837371" xlink:href="#md4c378472c" y="149.878406173"/>
     <use style="fill:#0000ff;stroke:#000000;stroke-width:0.5;" x="160.845451227" xlink:href="#md4c378472c" y="257.397826264"/>
     <use style="fill:#0000ff;stroke:#000000;stroke-width:0.5;" x="205.782724914" xlink:href="#md4c378472c" y="260.04099564"/>
    </g>
   </g>
   <g id="patch_3">
    <path d="M 409.644503 314.64 
L 409.644503 17.02118 
" style="fill:none;stroke:#000000;stroke-linecap:square;stroke-linejoin:miter;"/>
   </g>
   <g id="patch_4">
    <path d="M 56.7225 314.64 
L 56.7225 17.02118 
" style="fill:none;stroke:#000000;stroke-linecap:square;stroke-linejoin:miter;"/>
   </g>
   <g id="patch_5">
    <path d="M 56.7225 314.64 
L 409.644503 314.64 
" style="fill:none;stroke:#000000;stroke-linecap:square;stroke-linejoin:miter;"/>
   </g>
   <g id="patch_6">
    <path d="M 56.7225 17.02118 
L 409.644503 17.02118 
" style="fill:none;stroke:#000000;stroke-linecap:square;stroke-linejoin:miter;"/>
   </g>
   <g id="matplotlib.axis_1">
    <g id="xtick_1">
     <g id="line2d_3">
      <defs>
       <path d="M 0 0 
L 0 -4 
" id="m7e5e866c24" style="stroke:#000000;stroke-width:0.5;"/>
      </defs>
      <g>
       <use style="stroke:#000000;stroke-width:0.5;" x="78.6431213109" xlink:href="#m7e5e866c24" y="314.64"/>
      </g>
     </g>
     <g id="line2d_4">
      <defs>
       <path d="M 0 0 
L 0 4 
" id="m80080c32fb" style="stroke:#000000;stroke-width:0.5;"/>
      </defs>
      <g>
       <use style="stroke:#000000;stroke-width:0.5;" x="78.6431213109" xlink:href="#m80080c32fb" y="17.0211801242"/>
      </g>
     </g>
     <g id="text_1">
      <!-- 105 -->
      <defs>
       <path d="M 31.78125 66.40625 
Q 24.171875 66.40625 20.328125 58.90625 
Q 16.5 51.421875 16.5 36.375 
Q 16.5 21.390625 20.328125 13.890625 
Q 24.171875 6.390625 31.78125 6.390625 
Q 39.453125 6.390625 43.28125 13.890625 
Q 47.125 21.390625 47.125 36.375 
Q 47.125 51.421875 43.28125 58.90625 
Q 39.453125 66.40625 31.78125 66.40625 
M 31.78125 74.21875 
Q 44.046875 74.21875 50.515625 64.515625 
Q 56.984375 54.828125 56.984375 36.375 
Q 56.984375 17.96875 50.515625 8.265625 
Q 44.046875 -1.421875 31.78125 -1.421875 
Q 19.53125 -1.421875 13.0625 8.265625 
Q 6.59375 17.96875 6.59375 36.375 
Q 6.59375 54.828125 13.0625 64.515625 
Q 19.53125 74.21875 31.78125 74.21875 
" id="BitstreamVeraSans-Roman-30"/>
       <path d="M 12.40625 8.296875 
L 28.515625 8.296875 
L 28.515625 63.921875 
L 10.984375 60.40625 
L 10.984375 69.390625 
L 28.421875 72.90625 
L 38.28125 72.90625 
L 38.28125 8.296875 
L 54.390625 8.296875 
L 54.390625 0 
L 12.40625 0 
z
" id="BitstreamVeraSans-Roman-31"/>
       <path d="M 10.796875 72.90625 
L 49.515625 72.90625 
L 49.515625 64.59375 
L 19.828125 64.59375 
L 19.828125 46.734375 
Q 21.96875 47.46875 24.109375 47.828125 
Q 26.265625 48.1875 28.421875 48.1875 
Q 40.625 48.1875 47.75 41.5 
Q 54.890625 34.8125 54.890625 23.390625 
Q 54.890625 11.625 47.5625 5.09375 
Q 40.234375 -1.421875 26.90625 -1.421875 
Q 22.3125 -1.421875 17.546875 -0.640625 
Q 12.796875 0.140625 7.71875 1.703125 
L 7.71875 11.625 
Q 12.109375 9.234375 16.796875 8.0625 
Q 21.484375 6.890625 26.703125 6.890625 
Q 35.15625 6.890625 40.078125 11.328125 
Q 45.015625 15.765625 45.015625 23.390625 
Q 45.015625 31 40.078125 35.4375 
Q 35.15625 39.890625 26.703125 39.890625 
Q 22.75 39.890625 18.8125 39.015625 
Q 14.890625 38.140625 10.796875 36.28125 
z
" id="BitstreamVeraSans-Roman-35"/>
      </defs>
      <g transform="translate(67.1906213109 327.758125)scale(0.12 -0.12)">
       <use xlink:href="#BitstreamVeraSans-Roman-31"/>
       <use x="63.623046875" xlink:href="#BitstreamVeraSans-Roman-30"/>
       <use x="127.24609375" xlink:href="#BitstreamVeraSans-Roman-35"/>
      </g>
     </g>
    </g>
    <g id="xtick_2">
     <g id="line2d_5">
      <g>
       <use style="stroke:#000000;stroke-width:0.5;" x="133.444674588" xlink:href="#m7e5e866c24" y="314.64"/>
      </g>
     </g>
     <g id="line2d_6">
      <g>
       <use style="stroke:#000000;stroke-width:0.5;" x="133.444674588" xlink:href="#m80080c32fb" y="17.0211801242"/>
      </g>
     </g>
     <g id="text_2">
      <!-- 110 -->
      <g transform="translate(121.992174588 327.758125)scale(0.12 -0.12)">
       <use xlink:href="#BitstreamVeraSans-Roman-31"/>
       <use x="63.623046875" xlink:href="#BitstreamVeraSans-Roman-31"/>
       <use x="127.24609375" xlink:href="#BitstreamVeraSans-Roman-30"/>
      </g>
     </g>
    </g>
    <g id="xtick_3">
     <g id="line2d_7">
      <g>
       <use style="stroke:#000000;stroke-width:0.5;" x="188.246227865" xlink:href="#m7e5e866c24" y="314.64"/>
      </g>
     </g>
     <g id="line2d_8">
      <g>
       <use style="stroke:#000000;stroke-width:0.5;" x="188.246227865" xlink:href="#m80080c32fb" y="17.0211801242"/>
      </g>
     </g>
     <g id="text_3">
      <!-- 115 -->
      <g transform="translate(176.793727865 327.758125)scale(0.12 -0.12)">
       <use xlink:href="#BitstreamVeraSans-Roman-31"/>
       <use x="63.623046875" xlink:href="#BitstreamVeraSans-Roman-31"/>
       <use x="127.24609375" xlink:href="#BitstreamVeraSans-Roman-35"/>
      </g>
     </g>
    </g>
    <g id="xtick_4">
     <g id="line2d_9">
      <g>
       <use style="stroke:#000000;stroke-width:0.5;" x="243.047781143" xlink:href="#m7e5e866c24" y="314.64"/>
      </g>
     </g>
     <g id="line2d_10">
      <g>
       <use style="stroke:#000000;stroke-width:0.5;" x="243.047781143" xlink:href="#m80080c32fb" y="17.0211801242"/>
      </g>
     </g>
     <g id="text_4">
      <!-- 120 -->
      <defs>
       <path d="M 19.1875 8.296875 
L 53.609375 8.296875 
L 53.609375 0 
L 7.328125 0 
L 7.328125 8.296875 
Q 12.9375 14.109375 22.625 23.890625 
Q 32.328125 33.6875 34.8125 36.53125 
Q 39.546875 41.84375 41.421875 45.53125 
Q 43.3125 49.21875 43.3125 52.78125 
Q 43.3125 58.59375 39.234375 62.25 
Q 35.15625 65.921875 28.609375 65.921875 
Q 23.96875 65.921875 18.8125 64.3125 
Q 13.671875 62.703125 7.8125 59.421875 
L 7.8125 69.390625 
Q 13.765625 71.78125 18.9375 73 
Q 24.125 74.21875 28.421875 74.21875 
Q 39.75 74.21875 46.484375 68.546875 
Q 53.21875 62.890625 53.21875 53.421875 
Q 53.21875 48.921875 51.53125 44.890625 
Q 49.859375 40.875 45.40625 35.40625 
Q 44.1875 33.984375 37.640625 27.21875 
Q 31.109375 20.453125 19.1875 8.296875 
" id="BitstreamVeraSans-Roman-32"/>
      </defs>
      <g transform="translate(231.595281143 327.758125)scale(0.12 -0.12)">
       <use xlink:href="#BitstreamVeraSans-Roman-31"/>
       <use x="63.623046875" xlink:href="#BitstreamVeraSans-Roman-32"/>
       <use x="127.24609375" xlink:href="#BitstreamVeraSans-Roman-30"/>
      </g>
     </g>
    </g>
    <g id="xtick_5">
     <g id="line2d_11">
      <g>
       <use style="stroke:#000000;stroke-width:0.5;" x="297.84933442" xlink:href="#m7e5e866c24" y="314.64"/>
      </g>
     </g>
     <g id="line2d_12">
      <g>
       <use style="stroke:#000000;stroke-width:0.5;" x="297.84933442" xlink:href="#m80080c32fb" y="17.0211801242"/>
      </g>
     </g>
     <g id="text_5">
      <!-- 125 -->
      <g transform="translate(286.39683442 327.758125)scale(0.12 -0.12)">
       <use xlink:href="#BitstreamVeraSans-Roman-31"/>
       <use x="63.623046875" xlink:href="#BitstreamVeraSans-Roman-32"/>
       <use x="127.24609375" xlink:href="#BitstreamVeraSans-Roman-35"/>
      </g>
     </g>
    </g>
    <g id="xtick_6">
     <g id="line2d_13">
      <g>
       <use style="stroke:#000000;stroke-width:0.5;" x="352.650887697" xlink:href="#m7e5e866c24" y="314.64"/>
      </g>
     </g>
     <g id="line2d_14">
      <g>
       <use style="stroke:#000000;stroke-width:0.5;" x="352.650887697" xlink:href="#m80080c32fb" y="17.0211801242"/>
      </g>
     </g>
     <g id="text_6">
      <!-- 130 -->
      <defs>
       <path d="M 40.578125 39.3125 
Q 47.65625 37.796875 51.625 33 
Q 55.609375 28.21875 55.609375 21.1875 
Q 55.609375 10.40625 48.1875 4.484375 
Q 40.765625 -1.421875 27.09375 -1.421875 
Q 22.515625 -1.421875 17.65625 -0.515625 
Q 12.796875 0.390625 7.625 2.203125 
L 7.625 11.71875 
Q 11.71875 9.328125 16.59375 8.109375 
Q 21.484375 6.890625 26.8125 6.890625 
Q 36.078125 6.890625 40.9375 10.546875 
Q 45.796875 14.203125 45.796875 21.1875 
Q 45.796875 27.640625 41.28125 31.265625 
Q 36.765625 34.90625 28.71875 34.90625 
L 20.21875 34.90625 
L 20.21875 43.015625 
L 29.109375 43.015625 
Q 36.375 43.015625 40.234375 45.921875 
Q 44.09375 48.828125 44.09375 54.296875 
Q 44.09375 59.90625 40.109375 62.90625 
Q 36.140625 65.921875 28.71875 65.921875 
Q 24.65625 65.921875 20.015625 65.03125 
Q 15.375 64.15625 9.8125 62.3125 
L 9.8125 71.09375 
Q 15.4375 72.65625 20.34375 73.4375 
Q 25.25 74.21875 29.59375 74.21875 
Q 40.828125 74.21875 47.359375 69.109375 
Q 53.90625 64.015625 53.90625 55.328125 
Q 53.90625 49.265625 50.4375 45.09375 
Q 46.96875 40.921875 40.578125 39.3125 
" id="BitstreamVeraSans-Roman-33"/>
      </defs>
      <g transform="translate(341.198387697 327.758125)scale(0.12 -0.12)">
       <use xlink:href="#BitstreamVeraSans-Roman-31"/>
       <use x="63.623046875" xlink:href="#BitstreamVeraSans-Roman-33"/>
       <use x="127.24609375" xlink:href="#BitstreamVeraSans-Roman-30"/>
      </g>
     </g>
    </g>
    <g id="xtick_7">
     <g id="line2d_15">
      <g>
       <use style="stroke:#000000;stroke-width:0.5;" x="407.452440974" xlink:href="#m7e5e866c24" y="314.64"/>
      </g>
     </g>
     <g id="line2d_16">
      <g>
       <use style="stroke:#000000;stroke-width:0.5;" x="407.452440974" xlink:href="#m80080c32fb" y="17.0211801242"/>
      </g>
     </g>
     <g id="text_7">
      <!-- 135 -->
      <g transform="translate(395.999940974 327.758125)scale(0.12 -0.12)">
       <use xlink:href="#BitstreamVeraSans-Roman-31"/>
       <use x="63.623046875" xlink:href="#BitstreamVeraSans-Roman-33"/>
       <use x="127.24609375" xlink:href="#BitstreamVeraSans-Roman-35"/>
      </g>
     </g>
    </g>
    <g id="text_8">
     <!-- experimental -->
     <defs>
      <path d="M 54.890625 33.015625 
L 54.890625 0 
L 45.90625 0 
L 45.90625 32.71875 
Q 45.90625 40.484375 42.875 44.328125 
Q 39.84375 48.1875 33.796875 48.1875 
Q 26.515625 48.1875 22.3125 43.546875 
Q 18.109375 38.921875 18.109375 30.90625 
L 18.109375 0 
L 9.078125 0 
L 9.078125 54.6875 
L 18.109375 54.6875 
L 18.109375 46.1875 
Q 21.34375 51.125 25.703125 53.5625 
Q 30.078125 56 35.796875 56 
Q 45.21875 56 50.046875 50.171875 
Q 54.890625 44.34375 54.890625 33.015625 
" id="BitstreamVeraSans-Roman-6e"/>
      <path d="M 9.421875 75.984375 
L 18.40625 75.984375 
L 18.40625 0 
L 9.421875 0 
z
" id="BitstreamVeraSans-Roman-6c"/>
      <path d="M 56.203125 29.59375 
L 56.203125 25.203125 
L 14.890625 25.203125 
Q 15.484375 15.921875 20.484375 11.0625 
Q 25.484375 6.203125 34.421875 6.203125 
Q 39.59375 6.203125 44.453125 7.46875 
Q 49.3125 8.734375 54.109375 11.28125 
L 54.109375 2.78125 
Q 49.265625 0.734375 44.1875 -0.34375 
Q 39.109375 -1.421875 33.890625 -1.421875 
Q 20.796875 -1.421875 13.15625 6.1875 
Q 5.515625 13.8125 5.515625 26.8125 
Q 5.515625 40.234375 12.765625 48.109375 
Q 20.015625 56 32.328125 56 
Q 43.359375 56 49.78125 48.890625 
Q 56.203125 41.796875 56.203125 29.59375 
M 47.21875 32.234375 
Q 47.125 39.59375 43.09375 43.984375 
Q 39.0625 48.390625 32.421875 48.390625 
Q 24.90625 48.390625 20.390625 44.140625 
Q 15.875 39.890625 15.1875 32.171875 
z
" id="BitstreamVeraSans-Roman-65"/>
      <path d="M 18.109375 8.203125 
L 18.109375 -20.796875 
L 9.078125 -20.796875 
L 9.078125 54.6875 
L 18.109375 54.6875 
L 18.109375 46.390625 
Q 20.953125 51.265625 25.265625 53.625 
Q 29.59375 56 35.59375 56 
Q 45.5625 56 51.78125 48.09375 
Q 58.015625 40.1875 58.015625 27.296875 
Q 58.015625 14.40625 51.78125 6.484375 
Q 45.5625 -1.421875 35.59375 -1.421875 
Q 29.59375 -1.421875 25.265625 0.953125 
Q 20.953125 3.328125 18.109375 8.203125 
M 48.6875 27.296875 
Q 48.6875 37.203125 44.609375 42.84375 
Q 40.53125 48.484375 33.40625 48.484375 
Q 26.265625 48.484375 22.1875 42.84375 
Q 18.109375 37.203125 18.109375 27.296875 
Q 18.109375 17.390625 22.1875 11.75 
Q 26.265625 6.109375 33.40625 6.109375 
Q 40.53125 6.109375 44.609375 11.75 
Q 48.6875 17.390625 48.6875 27.296875 
" id="BitstreamVeraSans-Roman-70"/>
      <path d="M 41.109375 46.296875 
Q 39.59375 47.171875 37.8125 47.578125 
Q 36.03125 48 33.890625 48 
Q 26.265625 48 22.1875 43.046875 
Q 18.109375 38.09375 18.109375 28.8125 
L 18.109375 0 
L 9.078125 0 
L 9.078125 54.6875 
L 18.109375 54.6875 
L 18.109375 46.1875 
Q 20.953125 51.171875 25.484375 53.578125 
Q 30.03125 56 36.53125 56 
Q 37.453125 56 38.578125 55.875 
Q 39.703125 55.765625 41.0625 55.515625 
z
" id="BitstreamVeraSans-Roman-72"/>
      <path d="M 18.3125 70.21875 
L 18.3125 54.6875 
L 36.8125 54.6875 
L 36.8125 47.703125 
L 18.3125 47.703125 
L 18.3125 18.015625 
Q 18.3125 11.328125 20.140625 9.421875 
Q 21.96875 7.515625 27.59375 7.515625 
L 36.8125 7.515625 
L 36.8125 0 
L 27.59375 0 
Q 17.1875 0 13.234375 3.875 
Q 9.28125 7.765625 9.28125 18.015625 
L 9.28125 47.703125 
L 2.6875 47.703125 
L 2.6875 54.6875 
L 9.28125 54.6875 
L 9.28125 70.21875 
z
" id="BitstreamVeraSans-Roman-74"/>
      <path d="M 34.28125 27.484375 
Q 23.390625 27.484375 19.1875 25 
Q 14.984375 22.515625 14.984375 16.5 
Q 14.984375 11.71875 18.140625 8.90625 
Q 21.296875 6.109375 26.703125 6.109375 
Q 34.1875 6.109375 38.703125 11.40625 
Q 43.21875 16.703125 43.21875 25.484375 
L 43.21875 27.484375 
z
M 52.203125 31.203125 
L 52.203125 0 
L 43.21875 0 
L 43.21875 8.296875 
Q 40.140625 3.328125 35.546875 0.953125 
Q 30.953125 -1.421875 24.3125 -1.421875 
Q 15.921875 -1.421875 10.953125 3.296875 
Q 6 8.015625 6 15.921875 
Q 6 25.140625 12.171875 29.828125 
Q 18.359375 34.515625 30.609375 34.515625 
L 43.21875 34.515625 
L 43.21875 35.40625 
Q 43.21875 41.609375 39.140625 45 
Q 35.0625 48.390625 27.6875 48.390625 
Q 23 48.390625 18.546875 47.265625 
Q 14.109375 46.140625 10.015625 43.890625 
L 10.015625 52.203125 
Q 14.9375 54.109375 19.578125 55.046875 
Q 24.21875 56 28.609375 56 
Q 40.484375 56 46.34375 49.84375 
Q 52.203125 43.703125 52.203125 31.203125 
" id="BitstreamVeraSans-Roman-61"/>
      <path d="M 54.890625 54.6875 
L 35.109375 28.078125 
L 55.90625 0 
L 45.3125 0 
L 29.390625 21.484375 
L 13.484375 0 
L 2.875 0 
L 24.125 28.609375 
L 4.6875 54.6875 
L 15.28125 54.6875 
L 29.78125 35.203125 
L 44.28125 54.6875 
z
" id="BitstreamVeraSans-Roman-78"/>
      <path d="M 52 44.1875 
Q 55.375 50.25 60.0625 53.125 
Q 64.75 56 71.09375 56 
Q 79.640625 56 84.28125 50.015625 
Q 88.921875 44.046875 88.921875 33.015625 
L 88.921875 0 
L 79.890625 0 
L 79.890625 32.71875 
Q 79.890625 40.578125 77.09375 44.375 
Q 74.3125 48.1875 68.609375 48.1875 
Q 61.625 48.1875 57.5625 43.546875 
Q 53.515625 38.921875 53.515625 30.90625 
L 53.515625 0 
L 44.484375 0 
L 44.484375 32.71875 
Q 44.484375 40.625 41.703125 44.40625 
Q 38.921875 48.1875 33.109375 48.1875 
Q 26.21875 48.1875 22.15625 43.53125 
Q 18.109375 38.875 18.109375 30.90625 
L 18.109375 0 
L 9.078125 0 
L 9.078125 54.6875 
L 18.109375 54.6875 
L 18.109375 46.1875 
Q 21.1875 51.21875 25.484375 53.609375 
Q 29.78125 56 35.6875 56 
Q 41.65625 56 45.828125 52.96875 
Q 50 49.953125 52 44.1875 
" id="BitstreamVeraSans-Roman-6d"/>
      <path d="M 9.421875 54.6875 
L 18.40625 54.6875 
L 18.40625 0 
L 9.421875 0 
z
M 9.421875 75.984375 
L 18.40625 75.984375 
L 18.40625 64.59375 
L 9.421875 64.59375 
z
" id="BitstreamVeraSans-Roman-69"/>
     </defs>
     <g transform="translate(193.272251553 344.371875)scale(0.12 -0.12)">
      <use xlink:href="#BitstreamVeraSans-Roman-65"/>
      <use x="61.5078125" xlink:href="#BitstreamVeraSans-Roman-78"/>
      <use x="120.6875" xlink:href="#BitstreamVeraSans-Roman-70"/>
      <use x="184.1640625" xlink:href="#BitstreamVeraSans-Roman-65"/>
      <use x="245.6875" xlink:href="#BitstreamVeraSans-Roman-72"/>
      <use x="286.80078125" xlink:href="#BitstreamVeraSans-Roman-69"/>
      <use x="314.583984375" xlink:href="#BitstreamVeraSans-Roman-6d"/>
      <use x="411.99609375" xlink:href="#BitstreamVeraSans-Roman-65"/>
      <use x="473.51953125" xlink:href="#BitstreamVeraSans-Roman-6e"/>
      <use x="536.8984375" xlink:href="#BitstreamVeraSans-Roman-74"/>
      <use x="576.107421875" xlink:href="#BitstreamVeraSans-Roman-61"/>
      <use x="637.38671875" xlink:href="#BitstreamVeraSans-Roman-6c"/>
     </g>
    </g>
   </g>
   <g id="matplotlib.axis_2">
    <g id="ytick_1">
     <g id="line2d_17">
      <defs>
       <path d="M 0 0 
L 4 0 
" id="m7b27caa97d" style="stroke:#000000;stroke-width:0.5;"/>
      </defs>
      <g>
       <use style="stroke:#000000;stroke-width:0.5;" x="56.7225" xlink:href="#m7b27caa97d" y="296.154359014"/>
      </g>
     </g>
     <g id="line2d_18">
      <defs>
       <path d="M 0 0 
L -4 0 
" id="mee0e107800" style="stroke:#000000;stroke-width:0.5;"/>
      </defs>
      <g>
       <use style="stroke:#000000;stroke-width:0.5;" x="409.644503106" xlink:href="#mee0e107800" y="296.154359014"/>
      </g>
     </g>
     <g id="text_9">
      <!-- 105 -->
      <g transform="translate(29.8175 299.465609014)scale(0.12 -0.12)">
       <use xlink:href="#BitstreamVeraSans-Roman-31"/>
       <use x="63.623046875" xlink:href="#BitstreamVeraSans-Roman-30"/>
       <use x="127.24609375" xlink:href="#BitstreamVeraSans-Roman-35"/>
      </g>
     </g>
    </g>
    <g id="ytick_2">
     <g id="line2d_19">
      <g>
       <use style="stroke:#000000;stroke-width:0.5;" x="56.7225" xlink:href="#m7b27caa97d" y="249.940256549"/>
      </g>
     </g>
     <g id="line2d_20">
      <g>
       <use style="stroke:#000000;stroke-width:0.5;" x="409.644503106" xlink:href="#mee0e107800" y="249.940256549"/>
      </g>
     </g>
     <g id="text_10">
      <!-- 110 -->
      <g transform="translate(29.8175 253.251506549)scale(0.12 -0.12)">
       <use xlink:href="#BitstreamVeraSans-Roman-31"/>
       <use x="63.623046875" xlink:href="#BitstreamVeraSans-Roman-31"/>
       <use x="127.24609375" xlink:href="#BitstreamVeraSans-Roman-30"/>
      </g>
     </g>
    </g>
    <g id="ytick_3">
     <g id="line2d_21">
      <g>
       <use style="stroke:#000000;stroke-width:0.5;" x="56.7225" xlink:href="#m7b27caa97d" y="203.726154084"/>
      </g>
     </g>
     <g id="line2d_22">
      <g>
       <use style="stroke:#000000;stroke-width:0.5;" x="409.644503106" xlink:href="#mee0e107800" y="203.726154084"/>
      </g>
     </g>
     <g id="text_11">
      <!-- 115 -->
      <g transform="translate(29.8175 207.037404084)scale(0.12 -0.12)">
       <use xlink:href="#BitstreamVeraSans-Roman-31"/>
       <use x="63.623046875" xlink:href="#BitstreamVeraSans-Roman-31"/>
       <use x="127.24609375" xlink:href="#BitstreamVeraSans-Roman-35"/>
      </g>
     </g>
    </g>
    <g id="ytick_4">
     <g id="line2d_23">
      <g>
       <use style="stroke:#000000;stroke-width:0.5;" x="56.7225" xlink:href="#m7b27caa97d" y="157.512051618"/>
      </g>
     </g>
     <g id="line2d_24">
      <g>
       <use style="stroke:#000000;stroke-width:0.5;" x="409.644503106" xlink:href="#mee0e107800" y="157.512051618"/>
      </g>
     </g>
     <g id="text_12">
      <!-- 120 -->
      <g transform="translate(29.8175 160.823301618)scale(0.12 -0.12)">
       <use xlink:href="#BitstreamVeraSans-Roman-31"/>
       <use x="63.623046875" xlink:href="#BitstreamVeraSans-Roman-32"/>
       <use x="127.24609375" xlink:href="#BitstreamVeraSans-Roman-30"/>
      </g>
     </g>
    </g>
    <g id="ytick_5">
     <g id="line2d_25">
      <g>
       <use style="stroke:#000000;stroke-width:0.5;" x="56.7225" xlink:href="#m7b27caa97d" y="111.297949153"/>
      </g>
     </g>
     <g id="line2d_26">
      <g>
       <use style="stroke:#000000;stroke-width:0.5;" x="409.644503106" xlink:href="#mee0e107800" y="111.297949153"/>
      </g>
     </g>
     <g id="text_13">
      <!-- 125 -->
      <g transform="translate(29.8175 114.609199153)scale(0.12 -0.12)">
       <use xlink:href="#BitstreamVeraSans-Roman-31"/>
       <use x="63.623046875" xlink:href="#BitstreamVeraSans-Roman-32"/>
       <use x="127.24609375" xlink:href="#BitstreamVeraSans-Roman-35"/>
      </g>
     </g>
    </g>
    <g id="ytick_6">
     <g id="line2d_27">
      <g>
       <use style="stroke:#000000;stroke-width:0.5;" x="56.7225" xlink:href="#m7b27caa97d" y="65.083846688"/>
      </g>
     </g>
     <g id="line2d_28">
      <g>
       <use style="stroke:#000000;stroke-width:0.5;" x="409.644503106" xlink:href="#mee0e107800" y="65.083846688"/>
      </g>
     </g>
     <g id="text_14">
      <!-- 130 -->
      <g transform="translate(29.8175 68.395096688)scale(0.12 -0.12)">
       <use xlink:href="#BitstreamVeraSans-Roman-31"/>
       <use x="63.623046875" xlink:href="#BitstreamVeraSans-Roman-33"/>
       <use x="127.24609375" xlink:href="#BitstreamVeraSans-Roman-30"/>
      </g>
     </g>
    </g>
    <g id="ytick_7">
     <g id="line2d_29">
      <g>
       <use style="stroke:#000000;stroke-width:0.5;" x="56.7225" xlink:href="#m7b27caa97d" y="18.8697442228"/>
      </g>
     </g>
     <g id="line2d_30">
      <g>
       <use style="stroke:#000000;stroke-width:0.5;" x="409.644503106" xlink:href="#mee0e107800" y="18.8697442228"/>
      </g>
     </g>
     <g id="text_15">
      <!-- 135 -->
      <g transform="translate(29.8175 22.1809942228)scale(0.12 -0.12)">
       <use xlink:href="#BitstreamVeraSans-Roman-31"/>
       <use x="63.623046875" xlink:href="#BitstreamVeraSans-Roman-33"/>
       <use x="127.24609375" xlink:href="#BitstreamVeraSans-Roman-35"/>
      </g>
     </g>
    </g>
    <g id="text_16">
     <!-- calculated -->
     <defs>
      <path d="M 48.78125 52.59375 
L 48.78125 44.1875 
Q 44.96875 46.296875 41.140625 47.34375 
Q 37.3125 48.390625 33.40625 48.390625 
Q 24.65625 48.390625 19.8125 42.84375 
Q 14.984375 37.3125 14.984375 27.296875 
Q 14.984375 17.28125 19.8125 11.734375 
Q 24.65625 6.203125 33.40625 6.203125 
Q 37.3125 6.203125 41.140625 7.25 
Q 44.96875 8.296875 48.78125 10.40625 
L 48.78125 2.09375 
Q 45.015625 0.34375 40.984375 -0.53125 
Q 36.96875 -1.421875 32.421875 -1.421875 
Q 20.0625 -1.421875 12.78125 6.34375 
Q 5.515625 14.109375 5.515625 27.296875 
Q 5.515625 40.671875 12.859375 48.328125 
Q 20.21875 56 33.015625 56 
Q 37.15625 56 41.109375 55.140625 
Q 45.0625 54.296875 48.78125 52.59375 
" id="BitstreamVeraSans-Roman-63"/>
      <path d="M 45.40625 46.390625 
L 45.40625 75.984375 
L 54.390625 75.984375 
L 54.390625 0 
L 45.40625 0 
L 45.40625 8.203125 
Q 42.578125 3.328125 38.25 0.953125 
Q 33.9375 -1.421875 27.875 -1.421875 
Q 17.96875 -1.421875 11.734375 6.484375 
Q 5.515625 14.40625 5.515625 27.296875 
Q 5.515625 40.1875 11.734375 48.09375 
Q 17.96875 56 27.875 56 
Q 33.9375 56 38.25 53.625 
Q 42.578125 51.265625 45.40625 46.390625 
M 14.796875 27.296875 
Q 14.796875 17.390625 18.875 11.75 
Q 22.953125 6.109375 30.078125 6.109375 
Q 37.203125 6.109375 41.296875 11.75 
Q 45.40625 17.390625 45.40625 27.296875 
Q 45.40625 37.203125 41.296875 42.84375 
Q 37.203125 48.484375 30.078125 48.484375 
Q 22.953125 48.484375 18.875 42.84375 
Q 14.796875 37.203125 14.796875 27.296875 
" id="BitstreamVeraSans-Roman-64"/>
      <path d="M 8.5 21.578125 
L 8.5 54.6875 
L 17.484375 54.6875 
L 17.484375 21.921875 
Q 17.484375 14.15625 20.5 10.265625 
Q 23.53125 6.390625 29.59375 6.390625 
Q 36.859375 6.390625 41.078125 11.03125 
Q 45.3125 15.671875 45.3125 23.6875 
L 45.3125 54.6875 
L 54.296875 54.6875 
L 54.296875 0 
L 45.3125 0 
L 45.3125 8.40625 
Q 42.046875 3.421875 37.71875 1 
Q 33.40625 -1.421875 27.6875 -1.421875 
Q 18.265625 -1.421875 13.375 4.4375 
Q 8.5 10.296875 8.5 21.578125 
" id="BitstreamVeraSans-Roman-75"/>
     </defs>
     <g transform="translate(22.321875 196.771840062)rotate(-90.0)scale(0.12 -0.12)">
      <use xlink:href="#BitstreamVeraSans-Roman-63"/>
      <use x="54.98046875" xlink:href="#BitstreamVeraSans-Roman-61"/>
      <use x="116.259765625" xlink:href="#BitstreamVeraSans-Roman-6c"/>
      <use x="144.04296875" xlink:href="#BitstreamVeraSans-Roman-63"/>
      <use x="199.0234375" xlink:href="#BitstreamVeraSans-Roman-75"/>
      <use x="262.40234375" xlink:href="#BitstreamVeraSans-Roman-6c"/>
      <use x="290.185546875" xlink:href="#BitstreamVeraSans-Roman-61"/>
      <use x="351.46484375" xlink:href="#BitstreamVeraSans-Roman-74"/>
      <use x="390.673828125" xlink:href="#BitstreamVeraSans-Roman-65"/>
      <use x="452.197265625" xlink:href="#BitstreamVeraSans-Roman-64"/>
     </g>
    </g>
   </g>
  </g>
 </g>
 <defs>
  <clipPath id="pd273d9f338">
   <rect height="297.618819876" width="352.922003106" x="56.7225" y="17.0211801242"/>
  </clipPath>
 </defs>
</svg>
