<?xml version="1.0" encoding="utf-8" standalone="no"?>
<!DOCTYPE svg PUBLIC "-//W3C//DTD SVG 1.1//EN"
  "http://www.w3.org/Graphics/SVG/1.1/DTD/svg11.dtd">
<!-- Created with matplotlib (http://matplotlib.org/) -->
<svg height="360pt" version="1.1" viewBox="0 0 720 360" width="720pt" xmlns="http://www.w3.org/2000/svg" xmlns:xlink="http://www.w3.org/1999/xlink">
 <defs>
  <style type="text/css">
*{stroke-linecap:butt;stroke-linejoin:round;stroke-miterlimit:100000;}
  </style>
 </defs>
 <g id="figure_1">
  <g id="patch_1">
   <path d="M 0 360 
L 720 360 
L 720 0 
L 0 0 
z
" style="fill:#ffffff;"/>
  </g>
  <g id="axes_1">
   <g id="patch_2">
    <path d="M 60.435 314.64 
L 707.04 314.64 
L 707.04 12.96 
L 60.435 12.96 
z
" style="fill:#ffffff;"/>
   </g>
   <g id="line2d_1">
    <path clip-path="url(#pb1925c8496)" d="M 60.435 102.005496 
L 69.172905 148.831145 
L 77.910811 127.337405 
L 86.648716 73.603053 
L 95.386622 100.470229 
L 104.124527 116.590534 
L 112.862432 88.955725 
L 121.600338 201.030229 
L 130.338243 186.445191 
L 139.076149 229.432672 
L 147.814054 125.802137 
L 156.551959 55.179847 
L 165.289865 118.125802 
L 174.02777 116.590534 
L 182.765676 164.183817 
L 191.503581 102.005496 
L 200.241486 121.963969 
L 217.717297 247.855878 
L 226.455203 169.557252 
L 235.193108 182.607023 
L 243.931014 133.478473 
L 252.668919 12.96 
L 261.406824 178.768855 
L 270.14473 165.719084 
L 278.882635 130.407939 
L 287.620541 174.163053 
L 296.358446 183.374656 
L 305.096351 151.901679 
L 313.834257 130.407939 
L 322.572162 172.627786 
L 331.310068 216.382901 
L 340.047973 117.358168 
L 348.785878 135.01374 
L 357.523784 314.64 
L 383.7375 133.478473 
L 392.475405 187.212824 
L 401.213311 213.312366 
L 409.951216 135.01374 
L 418.689122 110.449466 
L 427.427027 88.188092 
L 436.164932 107.378931 
L 444.902838 100.470229 
L 453.640743 167.254351 
L 462.378649 174.163053 
L 471.116554 125.802137 
L 479.854459 130.407939 
L 488.592365 144.992977 
L 497.33027 161.880916 
L 506.068176 39.827176 
L 514.806081 214.847634 
L 523.543986 109.681832 
L 532.281892 161.113282 
L 541.019797 137.316641 
L 549.757703 178.001221 
L 558.495608 230.200305 
L 567.233514 161.113282 
L 575.971419 231.735573 
L 584.709324 203.33313 
L 593.44723 136.549008 
L 602.185135 72.83542 
L 610.923041 198.727328 
L 619.660946 119.661069 
L 628.398851 65.159084 
L 637.136757 78.976489 
L 645.874662 151.134046 
L 654.612568 82.814656 
L 663.350473 167.254351 
L 672.088378 128.105038 
L 680.826284 148.831145 
L 689.564189 141.922443 
L 698.302095 138.084275 
L 707.04 179.536489 
" style="fill:none;stroke:#ff0000;stroke-linecap:square;stroke-width:2.0;"/>
    <defs>
     <path d="M 0 3 
C 0.795609 3 1.55874 2.683901 2.12132 2.12132 
C 2.683901 1.55874 3 0.795609 3 0 
C 3 -0.795609 2.683901 -1.55874 2.12132 -2.12132 
C 1.55874 -2.683901 0.795609 -3 0 -3 
C -0.795609 -3 -1.55874 -2.683901 -2.12132 -2.12132 
C -2.683901 -1.55874 -3 -0.795609 -3 0 
C -3 0.795609 -2.683901 1.55874 -2.12132 2.12132 
C -1.55874 2.683901 -0.795609 3 0 3 
z
" id="m148b27b423" style="stroke:#000000;stroke-width:0.5;"/>
    </defs>
    <g clip-path="url(#pb1925c8496)">
     <use style="fill:#ff0000;stroke:#000000;stroke-width:0.5;" x="60.435" xlink:href="#m148b27b423" y="102.005496183"/>
     <use style="fill:#ff0000;stroke:#000000;stroke-width:0.5;" x="69.1729054054" xlink:href="#m148b27b423" y="148.831145038"/>
     <use style="fill:#ff0000;stroke:#000000;stroke-width:0.5;" x="77.9108108108" xlink:href="#m148b27b423" y="127.33740458"/>
     <use style="fill:#ff0000;stroke:#000000;stroke-width:0.5;" x="86.6487162162" xlink:href="#m148b27b423" y="73.6030534351"/>
     <use style="fill:#ff0000;stroke:#000000;stroke-width:0.5;" x="95.3866216216" xlink:href="#m148b27b423" y="100.470229008"/>
     <use style="fill:#ff0000;stroke:#000000;stroke-width:0.5;" x="104.124527027" xlink:href="#m148b27b423" y="116.590534351"/>
     <use style="fill:#ff0000;stroke:#000000;stroke-width:0.5;" x="112.862432432" xlink:href="#m148b27b423" y="88.9557251908"/>
     <use style="fill:#ff0000;stroke:#000000;stroke-width:0.5;" x="121.600337838" xlink:href="#m148b27b423" y="201.030229008"/>
     <use style="fill:#ff0000;stroke:#000000;stroke-width:0.5;" x="130.338243243" xlink:href="#m148b27b423" y="186.44519084"/>
     <use style="fill:#ff0000;stroke:#000000;stroke-width:0.5;" x="139.076148649" xlink:href="#m148b27b423" y="229.432671756"/>
     <use style="fill:#ff0000;stroke:#000000;stroke-width:0.5;" x="147.814054054" xlink:href="#m148b27b423" y="125.802137405"/>
     <use style="fill:#ff0000;stroke:#000000;stroke-width:0.5;" x="156.551959459" xlink:href="#m148b27b423" y="55.1798473282"/>
     <use style="fill:#ff0000;stroke:#000000;stroke-width:0.5;" x="165.289864865" xlink:href="#m148b27b423" y="118.125801527"/>
     <use style="fill:#ff0000;stroke:#000000;stroke-width:0.5;" x="174.02777027" xlink:href="#m148b27b423" y="116.590534351"/>
     <use style="fill:#ff0000;stroke:#000000;stroke-width:0.5;" x="182.765675676" xlink:href="#m148b27b423" y="164.183816794"/>
     <use style="fill:#ff0000;stroke:#000000;stroke-width:0.5;" x="191.503581081" xlink:href="#m148b27b423" y="102.005496183"/>
     <use style="fill:#ff0000;stroke:#000000;stroke-width:0.5;" x="200.241486486" xlink:href="#m148b27b423" y="121.963969466"/>
     <use style="fill:#ff0000;stroke:#000000;stroke-width:0.5;" x="217.717297297" xlink:href="#m148b27b423" y="247.855877863"/>
     <use style="fill:#ff0000;stroke:#000000;stroke-width:0.5;" x="226.455202703" xlink:href="#m148b27b423" y="169.557251908"/>
     <use style="fill:#ff0000;stroke:#000000;stroke-width:0.5;" x="235.193108108" xlink:href="#m148b27b423" y="182.607022901"/>
     <use style="fill:#ff0000;stroke:#000000;stroke-width:0.5;" x="243.931013514" xlink:href="#m148b27b423" y="133.478473282"/>
     <use style="fill:#ff0000;stroke:#000000;stroke-width:0.5;" x="252.668918919" xlink:href="#m148b27b423" y="12.96"/>
     <use style="fill:#ff0000;stroke:#000000;stroke-width:0.5;" x="261.406824324" xlink:href="#m148b27b423" y="178.768854962"/>
     <use style="fill:#ff0000;stroke:#000000;stroke-width:0.5;" x="270.14472973" xlink:href="#m148b27b423" y="165.719083969"/>
     <use style="fill:#ff0000;stroke:#000000;stroke-width:0.5;" x="278.882635135" xlink:href="#m148b27b423" y="130.407938931"/>
     <use style="fill:#ff0000;stroke:#000000;stroke-width:0.5;" x="287.620540541" xlink:href="#m148b27b423" y="174.163053435"/>
     <use style="fill:#ff0000;stroke:#000000;stroke-width:0.5;" x="296.358445946" xlink:href="#m148b27b423" y="183.374656489"/>
     <use style="fill:#ff0000;stroke:#000000;stroke-width:0.5;" x="305.096351351" xlink:href="#m148b27b423" y="151.901679389"/>
     <use style="fill:#ff0000;stroke:#000000;stroke-width:0.5;" x="313.834256757" xlink:href="#m148b27b423" y="130.407938931"/>
     <use style="fill:#ff0000;stroke:#000000;stroke-width:0.5;" x="322.572162162" xlink:href="#m148b27b423" y="172.62778626"/>
     <use style="fill:#ff0000;stroke:#000000;stroke-width:0.5;" x="331.310067568" xlink:href="#m148b27b423" y="216.382900763"/>
     <use style="fill:#ff0000;stroke:#000000;stroke-width:0.5;" x="340.047972973" xlink:href="#m148b27b423" y="117.358167939"/>
     <use style="fill:#ff0000;stroke:#000000;stroke-width:0.5;" x="348.785878378" xlink:href="#m148b27b423" y="135.013740458"/>
     <use style="fill:#ff0000;stroke:#000000;stroke-width:0.5;" x="357.523783784" xlink:href="#m148b27b423" y="314.64"/>
     <use style="fill:#ff0000;stroke:#000000;stroke-width:0.5;" x="383.7375" xlink:href="#m148b27b423" y="133.478473282"/>
     <use style="fill:#ff0000;stroke:#000000;stroke-width:0.5;" x="392.475405405" xlink:href="#m148b27b423" y="187.212824427"/>
     <use style="fill:#ff0000;stroke:#000000;stroke-width:0.5;" x="401.213310811" xlink:href="#m148b27b423" y="213.312366412"/>
     <use style="fill:#ff0000;stroke:#000000;stroke-width:0.5;" x="409.951216216" xlink:href="#m148b27b423" y="135.013740458"/>
     <use style="fill:#ff0000;stroke:#000000;stroke-width:0.5;" x="418.689121622" xlink:href="#m148b27b423" y="110.449465649"/>
     <use style="fill:#ff0000;stroke:#000000;stroke-width:0.5;" x="427.427027027" xlink:href="#m148b27b423" y="88.1880916031"/>
     <use style="fill:#ff0000;stroke:#000000;stroke-width:0.5;" x="436.164932432" xlink:href="#m148b27b423" y="107.378931298"/>
     <use style="fill:#ff0000;stroke:#000000;stroke-width:0.5;" x="444.902837838" xlink:href="#m148b27b423" y="100.470229008"/>
     <use style="fill:#ff0000;stroke:#000000;stroke-width:0.5;" x="453.640743243" xlink:href="#m148b27b423" y="167.254351145"/>
     <use style="fill:#ff0000;stroke:#000000;stroke-width:0.5;" x="462.378648649" xlink:href="#m148b27b423" y="174.163053435"/>
     <use style="fill:#ff0000;stroke:#000000;stroke-width:0.5;" x="471.116554054" xlink:href="#m148b27b423" y="125.802137405"/>
     <use style="fill:#ff0000;stroke:#000000;stroke-width:0.5;" x="479.854459459" xlink:href="#m148b27b423" y="130.407938931"/>
     <use style="fill:#ff0000;stroke:#000000;stroke-width:0.5;" x="488.592364865" xlink:href="#m148b27b423" y="144.992977099"/>
     <use style="fill:#ff0000;stroke:#000000;stroke-width:0.5;" x="497.33027027" xlink:href="#m148b27b423" y="161.880916031"/>
     <use style="fill:#ff0000;stroke:#000000;stroke-width:0.5;" x="506.068175676" xlink:href="#m148b27b423" y="39.8271755725"/>
     <use style="fill:#ff0000;stroke:#000000;stroke-width:0.5;" x="514.806081081" xlink:href="#m148b27b423" y="214.847633588"/>
     <use style="fill:#ff0000;stroke:#000000;stroke-width:0.5;" x="523.543986486" xlink:href="#m148b27b423" y="109.681832061"/>
     <use style="fill:#ff0000;stroke:#000000;stroke-width:0.5;" x="532.281891892" xlink:href="#m148b27b423" y="161.113282443"/>
     <use style="fill:#ff0000;stroke:#000000;stroke-width:0.5;" x="541.019797297" xlink:href="#m148b27b423" y="137.316641221"/>
     <use style="fill:#ff0000;stroke:#000000;stroke-width:0.5;" x="549.757702703" xlink:href="#m148b27b423" y="178.001221374"/>
     <use style="fill:#ff0000;stroke:#000000;stroke-width:0.5;" x="558.495608108" xlink:href="#m148b27b423" y="230.200305344"/>
     <use style="fill:#ff0000;stroke:#000000;stroke-width:0.5;" x="567.233513514" xlink:href="#m148b27b423" y="161.113282443"/>
     <use style="fill:#ff0000;stroke:#000000;stroke-width:0.5;" x="575.971418919" xlink:href="#m148b27b423" y="231.735572519"/>
     <use style="fill:#ff0000;stroke:#000000;stroke-width:0.5;" x="584.709324324" xlink:href="#m148b27b423" y="203.333129771"/>
     <use style="fill:#ff0000;stroke:#000000;stroke-width:0.5;" x="593.44722973" xlink:href="#m148b27b423" y="136.549007634"/>
     <use style="fill:#ff0000;stroke:#000000;stroke-width:0.5;" x="602.185135135" xlink:href="#m148b27b423" y="72.8354198473"/>
     <use style="fill:#ff0000;stroke:#000000;stroke-width:0.5;" x="610.923040541" xlink:href="#m148b27b423" y="198.727328244"/>
     <use style="fill:#ff0000;stroke:#000000;stroke-width:0.5;" x="619.660945946" xlink:href="#m148b27b423" y="119.661068702"/>
     <use style="fill:#ff0000;stroke:#000000;stroke-width:0.5;" x="628.398851351" xlink:href="#m148b27b423" y="65.1590839695"/>
     <use style="fill:#ff0000;stroke:#000000;stroke-width:0.5;" x="637.136756757" xlink:href="#m148b27b423" y="78.9764885496"/>
     <use style="fill:#ff0000;stroke:#000000;stroke-width:0.5;" x="645.874662162" xlink:href="#m148b27b423" y="151.134045802"/>
     <use style="fill:#ff0000;stroke:#000000;stroke-width:0.5;" x="654.612567568" xlink:href="#m148b27b423" y="82.8146564885"/>
     <use style="fill:#ff0000;stroke:#000000;stroke-width:0.5;" x="663.350472973" xlink:href="#m148b27b423" y="167.254351145"/>
     <use style="fill:#ff0000;stroke:#000000;stroke-width:0.5;" x="672.088378378" xlink:href="#m148b27b423" y="128.105038168"/>
     <use style="fill:#ff0000;stroke:#000000;stroke-width:0.5;" x="680.826283784" xlink:href="#m148b27b423" y="148.831145038"/>
     <use style="fill:#ff0000;stroke:#000000;stroke-width:0.5;" x="689.564189189" xlink:href="#m148b27b423" y="141.922442748"/>
     <use style="fill:#ff0000;stroke:#000000;stroke-width:0.5;" x="698.302094595" xlink:href="#m148b27b423" y="138.084274809"/>
     <use style="fill:#ff0000;stroke:#000000;stroke-width:0.5;" x="707.04" xlink:href="#m148b27b423" y="179.53648855"/>
    </g>
   </g>
   <g id="line2d_2">
    <path clip-path="url(#pb1925c8496)" d="M 60.435 151.576203 
L 69.172905 92.135264 
L 77.910811 89.995101 
L 86.648716 91.515016 
L 95.386622 97.441915 
L 104.124527 119.990384 
L 112.862432 131.087295 
L 121.600338 181.473996 
L 130.338243 154.764185 
L 139.076149 176.652489 
L 147.814054 139.598048 
L 156.551959 91.916488 
L 165.289865 138.233963 
L 174.02777 139.399999 
L 182.765676 127.64062 
L 191.503581 102.552819 
L 200.241486 52.272819 
L 217.717297 185.583906 
L 226.455203 160.061624 
L 235.193108 166.740037 
L 243.931014 150.88303 
L 252.668919 162.427471 
L 261.406824 171.549261 
L 270.14473 185.906312 
L 278.882635 143.043188 
L 287.620541 173.09681 
L 296.358446 172.118845 
L 305.096351 195.409616 
L 313.834257 152.742238 
L 322.572162 183.416109 
L 331.310068 192.754371 
L 340.047973 112.1705 
L 348.785878 161.204631 
L 357.523784 218.6313 
L 383.7375 170.389367 
L 392.475405 148.815792 
L 401.213311 202.917072 
L 409.951216 104.500305 
L 418.689122 134.983803 
L 427.427027 112.317118 
L 436.164932 99.41243 
L 444.902838 102.34479 
L 453.640743 148.540212 
L 462.378649 177.941346 
L 471.116554 135.249404 
L 479.854459 129.367795 
L 488.592365 121.946314 
L 497.33027 102.597342 
L 506.068176 171.550029 
L 514.806081 195.280653 
L 523.543986 161.969194 
L 532.281892 145.101213 
L 541.019797 164.887737 
L 549.757703 197.030858 
L 558.495608 211.294258 
L 567.233514 175.018197 
L 575.971419 200.129795 
L 584.709324 156.779223 
L 593.44723 146.040029 
L 602.185135 100.989917 
L 610.923041 185.447267 
L 619.660946 122.862101 
L 628.398851 45.807041 
L 637.136757 99.805458 
L 645.874662 118.543394 
L 654.612568 104.320679 
L 663.350473 135.006832 
L 672.088378 129.532069 
L 680.826284 149.579588 
L 689.564189 139.420725 
L 698.302095 151.627634 
L 707.04 156.87441 
" style="fill:none;stroke:#0000ff;stroke-linecap:square;stroke-width:2.0;"/>
    <defs>
     <path d="M 0 3 
C 0.795609 3 1.55874 2.683901 2.12132 2.12132 
C 2.683901 1.55874 3 0.795609 3 0 
C 3 -0.795609 2.683901 -1.55874 2.12132 -2.12132 
C 1.55874 -2.683901 0.795609 -3 0 -3 
C -0.795609 -3 -1.55874 -2.683901 -2.12132 -2.12132 
C -2.683901 -1.55874 -3 -0.795609 -3 0 
C -3 0.795609 -2.683901 1.55874 -2.12132 2.12132 
C -1.55874 2.683901 -0.795609 3 0 3 
z
" id="m490f215331" style="stroke:#000000;stroke-width:0.5;"/>
    </defs>
    <g clip-path="url(#pb1925c8496)">
     <use style="fill:#0000ff;stroke:#000000;stroke-width:0.5;" x="60.435" xlink:href="#m490f215331" y="151.576202748"/>
     <use style="fill:#0000ff;stroke:#000000;stroke-width:0.5;" x="69.1729054054" xlink:href="#m490f215331" y="92.1352635115"/>
     <use style="fill:#0000ff;stroke:#000000;stroke-width:0.5;" x="77.9108108108" xlink:href="#m490f215331" y="89.9951010687"/>
     <use style="fill:#0000ff;stroke:#000000;stroke-width:0.5;" x="86.6487162162" xlink:href="#m490f215331" y="91.5150155725"/>
     <use style="fill:#0000ff;stroke:#000000;stroke-width:0.5;" x="95.3866216216" xlink:href="#m490f215331" y="97.4419145038"/>
     <use style="fill:#0000ff;stroke:#000000;stroke-width:0.5;" x="104.124527027" xlink:href="#m490f215331" y="119.990383511"/>
     <use style="fill:#0000ff;stroke:#000000;stroke-width:0.5;" x="112.862432432" xlink:href="#m490f215331" y="131.087294656"/>
     <use style="fill:#0000ff;stroke:#000000;stroke-width:0.5;" x="121.600337838" xlink:href="#m490f215331" y="181.473995725"/>
     <use style="fill:#0000ff;stroke:#000000;stroke-width:0.5;" x="130.338243243" xlink:href="#m490f215331" y="154.764185038"/>
     <use style="fill:#0000ff;stroke:#000000;stroke-width:0.5;" x="139.076148649" xlink:href="#m490f215331" y="176.65248916"/>
     <use style="fill:#0000ff;stroke:#000000;stroke-width:0.5;" x="147.814054054" xlink:href="#m490f215331" y="139.598048244"/>
     <use style="fill:#0000ff;stroke:#000000;stroke-width:0.5;" x="156.551959459" xlink:href="#m490f215331" y="91.9164879389"/>
     <use style="fill:#0000ff;stroke:#000000;stroke-width:0.5;" x="165.289864865" xlink:href="#m490f215331" y="138.233963359"/>
     <use style="fill:#0000ff;stroke:#000000;stroke-width:0.5;" x="174.02777027" xlink:href="#m490f215331" y="139.399998779"/>
     <use style="fill:#0000ff;stroke:#000000;stroke-width:0.5;" x="182.765675676" xlink:href="#m490f215331" y="127.640619847"/>
     <use style="fill:#0000ff;stroke:#000000;stroke-width:0.5;" x="191.503581081" xlink:href="#m490f215331" y="102.552818931"/>
     <use style="fill:#0000ff;stroke:#000000;stroke-width:0.5;" x="200.241486486" xlink:href="#m490f215331" y="52.2728189313"/>
     <use style="fill:#0000ff;stroke:#000000;stroke-width:0.5;" x="217.717297297" xlink:href="#m490f215331" y="185.583905954"/>
     <use style="fill:#0000ff;stroke:#000000;stroke-width:0.5;" x="226.455202703" xlink:href="#m490f215331" y="160.061624427"/>
     <use style="fill:#0000ff;stroke:#000000;stroke-width:0.5;" x="235.193108108" xlink:href="#m490f215331" y="166.740036641"/>
     <use style="fill:#0000ff;stroke:#000000;stroke-width:0.5;" x="243.931013514" xlink:href="#m490f215331" y="150.883029618"/>
     <use style="fill:#0000ff;stroke:#000000;stroke-width:0.5;" x="252.668918919" xlink:href="#m490f215331" y="162.427471145"/>
     <use style="fill:#0000ff;stroke:#000000;stroke-width:0.5;" x="261.406824324" xlink:href="#m490f215331" y="171.549261069"/>
     <use style="fill:#0000ff;stroke:#000000;stroke-width:0.5;" x="270.14472973" xlink:href="#m490f215331" y="185.906312061"/>
     <use style="fill:#0000ff;stroke:#000000;stroke-width:0.5;" x="278.882635135" xlink:href="#m490f215331" y="143.043187786"/>
     <use style="fill:#0000ff;stroke:#000000;stroke-width:0.5;" x="287.620540541" xlink:href="#m490f215331" y="173.096810382"/>
     <use style="fill:#0000ff;stroke:#000000;stroke-width:0.5;" x="296.358445946" xlink:href="#m490f215331" y="172.118845191"/>
     <use style="fill:#0000ff;stroke:#000000;stroke-width:0.5;" x="305.096351351" xlink:href="#m490f215331" y="195.409615878"/>
     <use style="fill:#0000ff;stroke:#000000;stroke-width:0.5;" x="313.834256757" xlink:href="#m490f215331" y="152.742238168"/>
     <use style="fill:#0000ff;stroke:#000000;stroke-width:0.5;" x="322.572162162" xlink:href="#m490f215331" y="183.416108702"/>
     <use style="fill:#0000ff;stroke:#000000;stroke-width:0.5;" x="331.310067568" xlink:href="#m490f215331" y="192.754371298"/>
     <use style="fill:#0000ff;stroke:#000000;stroke-width:0.5;" x="340.047972973" xlink:href="#m490f215331" y="112.170500153"/>
     <use style="fill:#0000ff;stroke:#000000;stroke-width:0.5;" x="348.785878378" xlink:href="#m490f215331" y="161.20463084"/>
     <use style="fill:#0000ff;stroke:#000000;stroke-width:0.5;" x="357.523783784" xlink:href="#m490f215331" y="218.631299542"/>
     <use style="fill:#0000ff;stroke:#000000;stroke-width:0.5;" x="383.7375" xlink:href="#m490f215331" y="170.389366718"/>
     <use style="fill:#0000ff;stroke:#000000;stroke-width:0.5;" x="392.475405405" xlink:href="#m490f215331" y="148.815792366"/>
     <use style="fill:#0000ff;stroke:#000000;stroke-width:0.5;" x="401.213310811" xlink:href="#m490f215331" y="202.917072366"/>
     <use style="fill:#0000ff;stroke:#000000;stroke-width:0.5;" x="409.951216216" xlink:href="#m490f215331" y="104.500305344"/>
     <use style="fill:#0000ff;stroke:#000000;stroke-width:0.5;" x="418.689121622" xlink:href="#m490f215331" y="134.983802748"/>
     <use style="fill:#0000ff;stroke:#000000;stroke-width:0.5;" x="427.427027027" xlink:href="#m490f215331" y="112.317118168"/>
     <use style="fill:#0000ff;stroke:#000000;stroke-width:0.5;" x="436.164932432" xlink:href="#m490f215331" y="99.4124299237"/>
     <use style="fill:#0000ff;stroke:#000000;stroke-width:0.5;" x="444.902837838" xlink:href="#m490f215331" y="102.344790229"/>
     <use style="fill:#0000ff;stroke:#000000;stroke-width:0.5;" x="453.640743243" xlink:href="#m490f215331" y="148.540211908"/>
     <use style="fill:#0000ff;stroke:#000000;stroke-width:0.5;" x="462.378648649" xlink:href="#m490f215331" y="177.941345954"/>
     <use style="fill:#0000ff;stroke:#000000;stroke-width:0.5;" x="471.116554054" xlink:href="#m490f215331" y="135.249403969"/>
     <use style="fill:#0000ff;stroke:#000000;stroke-width:0.5;" x="479.854459459" xlink:href="#m490f215331" y="129.36779542"/>
     <use style="fill:#0000ff;stroke:#000000;stroke-width:0.5;" x="488.592364865" xlink:href="#m490f215331" y="121.946313893"/>
     <use style="fill:#0000ff;stroke:#000000;stroke-width:0.5;" x="497.33027027" xlink:href="#m490f215331" y="102.597341679"/>
     <use style="fill:#0000ff;stroke:#000000;stroke-width:0.5;" x="506.068175676" xlink:href="#m490f215331" y="171.550028702"/>
     <use style="fill:#0000ff;stroke:#000000;stroke-width:0.5;" x="514.806081081" xlink:href="#m490f215331" y="195.280653435"/>
     <use style="fill:#0000ff;stroke:#000000;stroke-width:0.5;" x="523.543986486" xlink:href="#m490f215331" y="161.969193893"/>
     <use style="fill:#0000ff;stroke:#000000;stroke-width:0.5;" x="532.281891892" xlink:href="#m490f215331" y="145.101213435"/>
     <use style="fill:#0000ff;stroke:#000000;stroke-width:0.5;" x="541.019797297" xlink:href="#m490f215331" y="164.887736794"/>
     <use style="fill:#0000ff;stroke:#000000;stroke-width:0.5;" x="549.757702703" xlink:href="#m490f215331" y="197.030858015"/>
     <use style="fill:#0000ff;stroke:#000000;stroke-width:0.5;" x="558.495608108" xlink:href="#m490f215331" y="211.29425771"/>
     <use style="fill:#0000ff;stroke:#000000;stroke-width:0.5;" x="567.233513514" xlink:href="#m490f215331" y="175.018197252"/>
     <use style="fill:#0000ff;stroke:#000000;stroke-width:0.5;" x="575.971418919" xlink:href="#m490f215331" y="200.129794809"/>
     <use style="fill:#0000ff;stroke:#000000;stroke-width:0.5;" x="584.709324324" xlink:href="#m490f215331" y="156.779223206"/>
     <use style="fill:#0000ff;stroke:#000000;stroke-width:0.5;" x="593.44722973" xlink:href="#m490f215331" y="146.040029313"/>
     <use style="fill:#0000ff;stroke:#000000;stroke-width:0.5;" x="602.185135135" xlink:href="#m490f215331" y="100.989916947"/>
     <use style="fill:#0000ff;stroke:#000000;stroke-width:0.5;" x="610.923040541" xlink:href="#m490f215331" y="185.447267176"/>
     <use style="fill:#0000ff;stroke:#000000;stroke-width:0.5;" x="619.660945946" xlink:href="#m490f215331" y="122.862100763"/>
     <use style="fill:#0000ff;stroke:#000000;stroke-width:0.5;" x="628.398851351" xlink:href="#m490f215331" y="45.8070412214"/>
     <use style="fill:#0000ff;stroke:#000000;stroke-width:0.5;" x="637.136756757" xlink:href="#m490f215331" y="99.8054583206"/>
     <use style="fill:#0000ff;stroke:#000000;stroke-width:0.5;" x="645.874662162" xlink:href="#m490f215331" y="118.543394198"/>
     <use style="fill:#0000ff;stroke:#000000;stroke-width:0.5;" x="654.612567568" xlink:href="#m490f215331" y="104.320679084"/>
     <use style="fill:#0000ff;stroke:#000000;stroke-width:0.5;" x="663.350472973" xlink:href="#m490f215331" y="135.006831756"/>
     <use style="fill:#0000ff;stroke:#000000;stroke-width:0.5;" x="672.088378378" xlink:href="#m490f215331" y="129.532069008"/>
     <use style="fill:#0000ff;stroke:#000000;stroke-width:0.5;" x="680.826283784" xlink:href="#m490f215331" y="149.579587786"/>
     <use style="fill:#0000ff;stroke:#000000;stroke-width:0.5;" x="689.564189189" xlink:href="#m490f215331" y="139.420724885"/>
     <use style="fill:#0000ff;stroke:#000000;stroke-width:0.5;" x="698.302094595" xlink:href="#m490f215331" y="151.627634198"/>
     <use style="fill:#0000ff;stroke:#000000;stroke-width:0.5;" x="707.04" xlink:href="#m490f215331" y="156.874409771"/>
    </g>
   </g>
   <g id="patch_3">
    <path d="M 707.04 314.64 
L 707.04 12.96 
" style="fill:none;stroke:#000000;stroke-linecap:square;stroke-linejoin:miter;"/>
   </g>
   <g id="patch_4">
    <path d="M 60.435 314.64 
L 60.435 12.96 
" style="fill:none;stroke:#000000;stroke-linecap:square;stroke-linejoin:miter;"/>
   </g>
   <g id="patch_5">
    <path d="M 60.435 314.64 
L 707.04 314.64 
" style="fill:none;stroke:#000000;stroke-linecap:square;stroke-linejoin:miter;"/>
   </g>
   <g id="patch_6">
    <path d="M 60.435 12.96 
L 707.04 12.96 
" style="fill:none;stroke:#000000;stroke-linecap:square;stroke-linejoin:miter;"/>
   </g>
   <g id="matplotlib.axis_1">
    <g id="xtick_1">
     <g id="line2d_3">
      <defs>
       <path d="M 0 0 
L 0 -4 
" id="m78ba38c069" style="stroke:#000000;stroke-width:0.5;"/>
      </defs>
      <g>
       <use style="stroke:#000000;stroke-width:0.5;" x="130.338243243" xlink:href="#m78ba38c069" y="314.64"/>
      </g>
     </g>
     <g id="line2d_4">
      <defs>
       <path d="M 0 0 
L 0 4 
" id="m9528e3de8f" style="stroke:#000000;stroke-width:0.5;"/>
      </defs>
      <g>
       <use style="stroke:#000000;stroke-width:0.5;" x="130.338243243" xlink:href="#m9528e3de8f" y="12.96"/>
      </g>
     </g>
     <g id="text_1">
      <!-- 10 -->
      <defs>
       <path d="M 31.78125 66.40625 
Q 24.171875 66.40625 20.328125 58.90625 
Q 16.5 51.421875 16.5 36.375 
Q 16.5 21.390625 20.328125 13.890625 
Q 24.171875 6.390625 31.78125 6.390625 
Q 39.453125 6.390625 43.28125 13.890625 
Q 47.125 21.390625 47.125 36.375 
Q 47.125 51.421875 43.28125 58.90625 
Q 39.453125 66.40625 31.78125 66.40625 
M 31.78125 74.21875 
Q 44.046875 74.21875 50.515625 64.515625 
Q 56.984375 54.828125 56.984375 36.375 
Q 56.984375 17.96875 50.515625 8.265625 
Q 44.046875 -1.421875 31.78125 -1.421875 
Q 19.53125 -1.421875 13.0625 8.265625 
Q 6.59375 17.96875 6.59375 36.375 
Q 6.59375 54.828125 13.0625 64.515625 
Q 19.53125 74.21875 31.78125 74.21875 
" id="BitstreamVeraSans-Roman-30"/>
       <path d="M 12.40625 8.296875 
L 28.515625 8.296875 
L 28.515625 63.921875 
L 10.984375 60.40625 
L 10.984375 69.390625 
L 28.421875 72.90625 
L 38.28125 72.90625 
L 38.28125 8.296875 
L 54.390625 8.296875 
L 54.390625 0 
L 12.40625 0 
z
" id="BitstreamVeraSans-Roman-31"/>
      </defs>
      <g transform="translate(122.703243243 327.758125)scale(0.12 -0.12)">
       <use xlink:href="#BitstreamVeraSans-Roman-31"/>
       <use x="63.623046875" xlink:href="#BitstreamVeraSans-Roman-30"/>
      </g>
     </g>
    </g>
    <g id="xtick_2">
     <g id="line2d_5">
      <g>
       <use style="stroke:#000000;stroke-width:0.5;" x="217.717297297" xlink:href="#m78ba38c069" y="314.64"/>
      </g>
     </g>
     <g id="line2d_6">
      <g>
       <use style="stroke:#000000;stroke-width:0.5;" x="217.717297297" xlink:href="#m9528e3de8f" y="12.96"/>
      </g>
     </g>
     <g id="text_2">
      <!-- 20 -->
      <defs>
       <path d="M 19.1875 8.296875 
L 53.609375 8.296875 
L 53.609375 0 
L 7.328125 0 
L 7.328125 8.296875 
Q 12.9375 14.109375 22.625 23.890625 
Q 32.328125 33.6875 34.8125 36.53125 
Q 39.546875 41.84375 41.421875 45.53125 
Q 43.3125 49.21875 43.3125 52.78125 
Q 43.3125 58.59375 39.234375 62.25 
Q 35.15625 65.921875 28.609375 65.921875 
Q 23.96875 65.921875 18.8125 64.3125 
Q 13.671875 62.703125 7.8125 59.421875 
L 7.8125 69.390625 
Q 13.765625 71.78125 18.9375 73 
Q 24.125 74.21875 28.421875 74.21875 
Q 39.75 74.21875 46.484375 68.546875 
Q 53.21875 62.890625 53.21875 53.421875 
Q 53.21875 48.921875 51.53125 44.890625 
Q 49.859375 40.875 45.40625 35.40625 
Q 44.1875 33.984375 37.640625 27.21875 
Q 31.109375 20.453125 19.1875 8.296875 
" id="BitstreamVeraSans-Roman-32"/>
      </defs>
      <g transform="translate(210.082297297 327.758125)scale(0.12 -0.12)">
       <use xlink:href="#BitstreamVeraSans-Roman-32"/>
       <use x="63.623046875" xlink:href="#BitstreamVeraSans-Roman-30"/>
      </g>
     </g>
    </g>
    <g id="xtick_3">
     <g id="line2d_7">
      <g>
       <use style="stroke:#000000;stroke-width:0.5;" x="305.096351351" xlink:href="#m78ba38c069" y="314.64"/>
      </g>
     </g>
     <g id="line2d_8">
      <g>
       <use style="stroke:#000000;stroke-width:0.5;" x="305.096351351" xlink:href="#m9528e3de8f" y="12.96"/>
      </g>
     </g>
     <g id="text_3">
      <!-- 30 -->
      <defs>
       <path d="M 40.578125 39.3125 
Q 47.65625 37.796875 51.625 33 
Q 55.609375 28.21875 55.609375 21.1875 
Q 55.609375 10.40625 48.1875 4.484375 
Q 40.765625 -1.421875 27.09375 -1.421875 
Q 22.515625 -1.421875 17.65625 -0.515625 
Q 12.796875 0.390625 7.625 2.203125 
L 7.625 11.71875 
Q 11.71875 9.328125 16.59375 8.109375 
Q 21.484375 6.890625 26.8125 6.890625 
Q 36.078125 6.890625 40.9375 10.546875 
Q 45.796875 14.203125 45.796875 21.1875 
Q 45.796875 27.640625 41.28125 31.265625 
Q 36.765625 34.90625 28.71875 34.90625 
L 20.21875 34.90625 
L 20.21875 43.015625 
L 29.109375 43.015625 
Q 36.375 43.015625 40.234375 45.921875 
Q 44.09375 48.828125 44.09375 54.296875 
Q 44.09375 59.90625 40.109375 62.90625 
Q 36.140625 65.921875 28.71875 65.921875 
Q 24.65625 65.921875 20.015625 65.03125 
Q 15.375 64.15625 9.8125 62.3125 
L 9.8125 71.09375 
Q 15.4375 72.65625 20.34375 73.4375 
Q 25.25 74.21875 29.59375 74.21875 
Q 40.828125 74.21875 47.359375 69.109375 
Q 53.90625 64.015625 53.90625 55.328125 
Q 53.90625 49.265625 50.4375 45.09375 
Q 46.96875 40.921875 40.578125 39.3125 
" id="BitstreamVeraSans-Roman-33"/>
      </defs>
      <g transform="translate(297.461351351 327.758125)scale(0.12 -0.12)">
       <use xlink:href="#BitstreamVeraSans-Roman-33"/>
       <use x="63.623046875" xlink:href="#BitstreamVeraSans-Roman-30"/>
      </g>
     </g>
    </g>
    <g id="xtick_4">
     <g id="line2d_9">
      <g>
       <use style="stroke:#000000;stroke-width:0.5;" x="392.475405405" xlink:href="#m78ba38c069" y="314.64"/>
      </g>
     </g>
     <g id="line2d_10">
      <g>
       <use style="stroke:#000000;stroke-width:0.5;" x="392.475405405" xlink:href="#m9528e3de8f" y="12.96"/>
      </g>
     </g>
     <g id="text_4">
      <!-- 40 -->
      <defs>
       <path d="M 37.796875 64.3125 
L 12.890625 25.390625 
L 37.796875 25.390625 
z
M 35.203125 72.90625 
L 47.609375 72.90625 
L 47.609375 25.390625 
L 58.015625 25.390625 
L 58.015625 17.1875 
L 47.609375 17.1875 
L 47.609375 0 
L 37.796875 0 
L 37.796875 17.1875 
L 4.890625 17.1875 
L 4.890625 26.703125 
z
" id="BitstreamVeraSans-Roman-34"/>
      </defs>
      <g transform="translate(384.840405405 327.758125)scale(0.12 -0.12)">
       <use xlink:href="#BitstreamVeraSans-Roman-34"/>
       <use x="63.623046875" xlink:href="#BitstreamVeraSans-Roman-30"/>
      </g>
     </g>
    </g>
    <g id="xtick_5">
     <g id="line2d_11">
      <g>
       <use style="stroke:#000000;stroke-width:0.5;" x="479.854459459" xlink:href="#m78ba38c069" y="314.64"/>
      </g>
     </g>
     <g id="line2d_12">
      <g>
       <use style="stroke:#000000;stroke-width:0.5;" x="479.854459459" xlink:href="#m9528e3de8f" y="12.96"/>
      </g>
     </g>
     <g id="text_5">
      <!-- 50 -->
      <defs>
       <path d="M 10.796875 72.90625 
L 49.515625 72.90625 
L 49.515625 64.59375 
L 19.828125 64.59375 
L 19.828125 46.734375 
Q 21.96875 47.46875 24.109375 47.828125 
Q 26.265625 48.1875 28.421875 48.1875 
Q 40.625 48.1875 47.75 41.5 
Q 54.890625 34.8125 54.890625 23.390625 
Q 54.890625 11.625 47.5625 5.09375 
Q 40.234375 -1.421875 26.90625 -1.421875 
Q 22.3125 -1.421875 17.546875 -0.640625 
Q 12.796875 0.140625 7.71875 1.703125 
L 7.71875 11.625 
Q 12.109375 9.234375 16.796875 8.0625 
Q 21.484375 6.890625 26.703125 6.890625 
Q 35.15625 6.890625 40.078125 11.328125 
Q 45.015625 15.765625 45.015625 23.390625 
Q 45.015625 31 40.078125 35.4375 
Q 35.15625 39.890625 26.703125 39.890625 
Q 22.75 39.890625 18.8125 39.015625 
Q 14.890625 38.140625 10.796875 36.28125 
z
" id="BitstreamVeraSans-Roman-35"/>
      </defs>
      <g transform="translate(472.219459459 327.758125)scale(0.12 -0.12)">
       <use xlink:href="#BitstreamVeraSans-Roman-35"/>
       <use x="63.623046875" xlink:href="#BitstreamVeraSans-Roman-30"/>
      </g>
     </g>
    </g>
    <g id="xtick_6">
     <g id="line2d_13">
      <g>
       <use style="stroke:#000000;stroke-width:0.5;" x="567.233513514" xlink:href="#m78ba38c069" y="314.64"/>
      </g>
     </g>
     <g id="line2d_14">
      <g>
       <use style="stroke:#000000;stroke-width:0.5;" x="567.233513514" xlink:href="#m9528e3de8f" y="12.96"/>
      </g>
     </g>
     <g id="text_6">
      <!-- 60 -->
      <defs>
       <path d="M 33.015625 40.375 
Q 26.375 40.375 22.484375 35.828125 
Q 18.609375 31.296875 18.609375 23.390625 
Q 18.609375 15.53125 22.484375 10.953125 
Q 26.375 6.390625 33.015625 6.390625 
Q 39.65625 6.390625 43.53125 10.953125 
Q 47.40625 15.53125 47.40625 23.390625 
Q 47.40625 31.296875 43.53125 35.828125 
Q 39.65625 40.375 33.015625 40.375 
M 52.59375 71.296875 
L 52.59375 62.3125 
Q 48.875 64.0625 45.09375 64.984375 
Q 41.3125 65.921875 37.59375 65.921875 
Q 27.828125 65.921875 22.671875 59.328125 
Q 17.53125 52.734375 16.796875 39.40625 
Q 19.671875 43.65625 24.015625 45.921875 
Q 28.375 48.1875 33.59375 48.1875 
Q 44.578125 48.1875 50.953125 41.515625 
Q 57.328125 34.859375 57.328125 23.390625 
Q 57.328125 12.15625 50.6875 5.359375 
Q 44.046875 -1.421875 33.015625 -1.421875 
Q 20.359375 -1.421875 13.671875 8.265625 
Q 6.984375 17.96875 6.984375 36.375 
Q 6.984375 53.65625 15.1875 63.9375 
Q 23.390625 74.21875 37.203125 74.21875 
Q 40.921875 74.21875 44.703125 73.484375 
Q 48.484375 72.75 52.59375 71.296875 
" id="BitstreamVeraSans-Roman-36"/>
      </defs>
      <g transform="translate(559.598513514 327.758125)scale(0.12 -0.12)">
       <use xlink:href="#BitstreamVeraSans-Roman-36"/>
       <use x="63.623046875" xlink:href="#BitstreamVeraSans-Roman-30"/>
      </g>
     </g>
    </g>
    <g id="xtick_7">
     <g id="line2d_15">
      <g>
       <use style="stroke:#000000;stroke-width:0.5;" x="654.612567568" xlink:href="#m78ba38c069" y="314.64"/>
      </g>
     </g>
     <g id="line2d_16">
      <g>
       <use style="stroke:#000000;stroke-width:0.5;" x="654.612567568" xlink:href="#m9528e3de8f" y="12.96"/>
      </g>
     </g>
     <g id="text_7">
      <!-- 70 -->
      <defs>
       <path d="M 8.203125 72.90625 
L 55.078125 72.90625 
L 55.078125 68.703125 
L 28.609375 0 
L 18.3125 0 
L 43.21875 64.59375 
L 8.203125 64.59375 
z
" id="BitstreamVeraSans-Roman-37"/>
      </defs>
      <g transform="translate(646.977567568 327.758125)scale(0.12 -0.12)">
       <use xlink:href="#BitstreamVeraSans-Roman-37"/>
       <use x="63.623046875" xlink:href="#BitstreamVeraSans-Roman-30"/>
      </g>
     </g>
    </g>
    <g id="text_8">
     <!-- residue number -->
     <defs>
      <path d="M 54.890625 33.015625 
L 54.890625 0 
L 45.90625 0 
L 45.90625 32.71875 
Q 45.90625 40.484375 42.875 44.328125 
Q 39.84375 48.1875 33.796875 48.1875 
Q 26.515625 48.1875 22.3125 43.546875 
Q 18.109375 38.921875 18.109375 30.90625 
L 18.109375 0 
L 9.078125 0 
L 9.078125 54.6875 
L 18.109375 54.6875 
L 18.109375 46.1875 
Q 21.34375 51.125 25.703125 53.5625 
Q 30.078125 56 35.796875 56 
Q 45.21875 56 50.046875 50.171875 
Q 54.890625 44.34375 54.890625 33.015625 
" id="BitstreamVeraSans-Roman-6e"/>
      <path id="BitstreamVeraSans-Roman-20"/>
      <path d="M 56.203125 29.59375 
L 56.203125 25.203125 
L 14.890625 25.203125 
Q 15.484375 15.921875 20.484375 11.0625 
Q 25.484375 6.203125 34.421875 6.203125 
Q 39.59375 6.203125 44.453125 7.46875 
Q 49.3125 8.734375 54.109375 11.28125 
L 54.109375 2.78125 
Q 49.265625 0.734375 44.1875 -0.34375 
Q 39.109375 -1.421875 33.890625 -1.421875 
Q 20.796875 -1.421875 13.15625 6.1875 
Q 5.515625 13.8125 5.515625 26.8125 
Q 5.515625 40.234375 12.765625 48.109375 
Q 20.015625 56 32.328125 56 
Q 43.359375 56 49.78125 48.890625 
Q 56.203125 41.796875 56.203125 29.59375 
M 47.21875 32.234375 
Q 47.125 39.59375 43.09375 43.984375 
Q 39.0625 48.390625 32.421875 48.390625 
Q 24.90625 48.390625 20.390625 44.140625 
Q 15.875 39.890625 15.1875 32.171875 
z
" id="BitstreamVeraSans-Roman-65"/>
      <path d="M 41.109375 46.296875 
Q 39.59375 47.171875 37.8125 47.578125 
Q 36.03125 48 33.890625 48 
Q 26.265625 48 22.1875 43.046875 
Q 18.109375 38.09375 18.109375 28.8125 
L 18.109375 0 
L 9.078125 0 
L 9.078125 54.6875 
L 18.109375 54.6875 
L 18.109375 46.1875 
Q 20.953125 51.171875 25.484375 53.578125 
Q 30.03125 56 36.53125 56 
Q 37.453125 56 38.578125 55.875 
Q 39.703125 55.765625 41.0625 55.515625 
z
" id="BitstreamVeraSans-Roman-72"/>
      <path d="M 45.40625 46.390625 
L 45.40625 75.984375 
L 54.390625 75.984375 
L 54.390625 0 
L 45.40625 0 
L 45.40625 8.203125 
Q 42.578125 3.328125 38.25 0.953125 
Q 33.9375 -1.421875 27.875 -1.421875 
Q 17.96875 -1.421875 11.734375 6.484375 
Q 5.515625 14.40625 5.515625 27.296875 
Q 5.515625 40.1875 11.734375 48.09375 
Q 17.96875 56 27.875 56 
Q 33.9375 56 38.25 53.625 
Q 42.578125 51.265625 45.40625 46.390625 
M 14.796875 27.296875 
Q 14.796875 17.390625 18.875 11.75 
Q 22.953125 6.109375 30.078125 6.109375 
Q 37.203125 6.109375 41.296875 11.75 
Q 45.40625 17.390625 45.40625 27.296875 
Q 45.40625 37.203125 41.296875 42.84375 
Q 37.203125 48.484375 30.078125 48.484375 
Q 22.953125 48.484375 18.875 42.84375 
Q 14.796875 37.203125 14.796875 27.296875 
" id="BitstreamVeraSans-Roman-64"/>
      <path d="M 8.5 21.578125 
L 8.5 54.6875 
L 17.484375 54.6875 
L 17.484375 21.921875 
Q 17.484375 14.15625 20.5 10.265625 
Q 23.53125 6.390625 29.59375 6.390625 
Q 36.859375 6.390625 41.078125 11.03125 
Q 45.3125 15.671875 45.3125 23.6875 
L 45.3125 54.6875 
L 54.296875 54.6875 
L 54.296875 0 
L 45.3125 0 
L 45.3125 8.40625 
Q 42.046875 3.421875 37.71875 1 
Q 33.40625 -1.421875 27.6875 -1.421875 
Q 18.265625 -1.421875 13.375 4.4375 
Q 8.5 10.296875 8.5 21.578125 
" id="BitstreamVeraSans-Roman-75"/>
      <path d="M 48.6875 27.296875 
Q 48.6875 37.203125 44.609375 42.84375 
Q 40.53125 48.484375 33.40625 48.484375 
Q 26.265625 48.484375 22.1875 42.84375 
Q 18.109375 37.203125 18.109375 27.296875 
Q 18.109375 17.390625 22.1875 11.75 
Q 26.265625 6.109375 33.40625 6.109375 
Q 40.53125 6.109375 44.609375 11.75 
Q 48.6875 17.390625 48.6875 27.296875 
M 18.109375 46.390625 
Q 20.953125 51.265625 25.265625 53.625 
Q 29.59375 56 35.59375 56 
Q 45.5625 56 51.78125 48.09375 
Q 58.015625 40.1875 58.015625 27.296875 
Q 58.015625 14.40625 51.78125 6.484375 
Q 45.5625 -1.421875 35.59375 -1.421875 
Q 29.59375 -1.421875 25.265625 0.953125 
Q 20.953125 3.328125 18.109375 8.203125 
L 18.109375 0 
L 9.078125 0 
L 9.078125 75.984375 
L 18.109375 75.984375 
z
" id="BitstreamVeraSans-Roman-62"/>
      <path d="M 44.28125 53.078125 
L 44.28125 44.578125 
Q 40.484375 46.53125 36.375 47.5 
Q 32.28125 48.484375 27.875 48.484375 
Q 21.1875 48.484375 17.84375 46.4375 
Q 14.5 44.390625 14.5 40.28125 
Q 14.5 37.15625 16.890625 35.375 
Q 19.28125 33.59375 26.515625 31.984375 
L 29.59375 31.296875 
Q 39.15625 29.25 43.1875 25.515625 
Q 47.21875 21.78125 47.21875 15.09375 
Q 47.21875 7.46875 41.1875 3.015625 
Q 35.15625 -1.421875 24.609375 -1.421875 
Q 20.21875 -1.421875 15.453125 -0.5625 
Q 10.6875 0.296875 5.421875 2 
L 5.421875 11.28125 
Q 10.40625 8.6875 15.234375 7.390625 
Q 20.0625 6.109375 24.8125 6.109375 
Q 31.15625 6.109375 34.5625 8.28125 
Q 37.984375 10.453125 37.984375 14.40625 
Q 37.984375 18.0625 35.515625 20.015625 
Q 33.0625 21.96875 24.703125 23.78125 
L 21.578125 24.515625 
Q 13.234375 26.265625 9.515625 29.90625 
Q 5.8125 33.546875 5.8125 39.890625 
Q 5.8125 47.609375 11.28125 51.796875 
Q 16.75 56 26.8125 56 
Q 31.78125 56 36.171875 55.265625 
Q 40.578125 54.546875 44.28125 53.078125 
" id="BitstreamVeraSans-Roman-73"/>
      <path d="M 52 44.1875 
Q 55.375 50.25 60.0625 53.125 
Q 64.75 56 71.09375 56 
Q 79.640625 56 84.28125 50.015625 
Q 88.921875 44.046875 88.921875 33.015625 
L 88.921875 0 
L 79.890625 0 
L 79.890625 32.71875 
Q 79.890625 40.578125 77.09375 44.375 
Q 74.3125 48.1875 68.609375 48.1875 
Q 61.625 48.1875 57.5625 43.546875 
Q 53.515625 38.921875 53.515625 30.90625 
L 53.515625 0 
L 44.484375 0 
L 44.484375 32.71875 
Q 44.484375 40.625 41.703125 44.40625 
Q 38.921875 48.1875 33.109375 48.1875 
Q 26.21875 48.1875 22.15625 43.53125 
Q 18.109375 38.875 18.109375 30.90625 
L 18.109375 0 
L 9.078125 0 
L 9.078125 54.6875 
L 18.109375 54.6875 
L 18.109375 46.1875 
Q 21.1875 51.21875 25.484375 53.609375 
Q 29.78125 56 35.6875 56 
Q 41.65625 56 45.828125 52.96875 
Q 50 49.953125 52 44.1875 
" id="BitstreamVeraSans-Roman-6d"/>
      <path d="M 9.421875 54.6875 
L 18.40625 54.6875 
L 18.40625 0 
L 9.421875 0 
z
M 9.421875 75.984375 
L 18.40625 75.984375 
L 18.40625 64.59375 
L 9.421875 64.59375 
z
" id="BitstreamVeraSans-Roman-69"/>
     </defs>
     <g transform="translate(336.16125 344.371875)scale(0.12 -0.12)">
      <use xlink:href="#BitstreamVeraSans-Roman-72"/>
      <use x="41.08203125" xlink:href="#BitstreamVeraSans-Roman-65"/>
      <use x="102.60546875" xlink:href="#BitstreamVeraSans-Roman-73"/>
      <use x="154.705078125" xlink:href="#BitstreamVeraSans-Roman-69"/>
      <use x="182.48828125" xlink:href="#BitstreamVeraSans-Roman-64"/>
      <use x="245.96484375" xlink:href="#BitstreamVeraSans-Roman-75"/>
      <use x="309.34375" xlink:href="#BitstreamVeraSans-Roman-65"/>
      <use x="370.8671875" xlink:href="#BitstreamVeraSans-Roman-20"/>
      <use x="402.654296875" xlink:href="#BitstreamVeraSans-Roman-6e"/>
      <use x="466.033203125" xlink:href="#BitstreamVeraSans-Roman-75"/>
      <use x="529.412109375" xlink:href="#BitstreamVeraSans-Roman-6d"/>
      <use x="626.82421875" xlink:href="#BitstreamVeraSans-Roman-62"/>
      <use x="690.30078125" xlink:href="#BitstreamVeraSans-Roman-65"/>
      <use x="751.82421875" xlink:href="#BitstreamVeraSans-Roman-72"/>
     </g>
    </g>
   </g>
   <g id="matplotlib.axis_2">
    <g id="ytick_1">
     <g id="line2d_17">
      <path clip-path="url(#pb1925c8496)" d="M 60.435 290.843359 
L 707.04 290.843359 
" style="fill:none;stroke:#000000;stroke-dasharray:1.000000,3.000000;stroke-dashoffset:0.0;stroke-width:0.5;"/>
     </g>
     <g id="line2d_18">
      <defs>
       <path d="M 0 0 
L 4 0 
" id="md1901e5c83" style="stroke:#000000;stroke-width:0.5;"/>
      </defs>
      <g>
       <use style="stroke:#000000;stroke-width:0.5;" x="60.435" xlink:href="#md1901e5c83" y="290.843358779"/>
      </g>
     </g>
     <g id="line2d_19">
      <defs>
       <path d="M 0 0 
L -4 0 
" id="m8b1c36e063" style="stroke:#000000;stroke-width:0.5;"/>
      </defs>
      <g>
       <use style="stroke:#000000;stroke-width:0.5;" x="707.04" xlink:href="#m8b1c36e063" y="290.843358779"/>
      </g>
     </g>
     <g id="text_9">
      <!-- 6.5 -->
      <defs>
       <path d="M 10.6875 12.40625 
L 21 12.40625 
L 21 0 
L 10.6875 0 
z
" id="BitstreamVeraSans-Roman-2e"/>
      </defs>
      <g transform="translate(37.35125 294.154608779)scale(0.12 -0.12)">
       <use xlink:href="#BitstreamVeraSans-Roman-36"/>
       <use x="63.623046875" xlink:href="#BitstreamVeraSans-Roman-2e"/>
       <use x="95.41015625" xlink:href="#BitstreamVeraSans-Roman-35"/>
      </g>
     </g>
    </g>
    <g id="ytick_2">
     <g id="line2d_20">
      <path clip-path="url(#pb1925c8496)" d="M 60.435 252.461679 
L 707.04 252.461679 
" style="fill:none;stroke:#000000;stroke-dasharray:1.000000,3.000000;stroke-dashoffset:0.0;stroke-width:0.5;"/>
     </g>
     <g id="line2d_21">
      <g>
       <use style="stroke:#000000;stroke-width:0.5;" x="60.435" xlink:href="#md1901e5c83" y="252.461679389"/>
      </g>
     </g>
     <g id="line2d_22">
      <g>
       <use style="stroke:#000000;stroke-width:0.5;" x="707.04" xlink:href="#m8b1c36e063" y="252.461679389"/>
      </g>
     </g>
     <g id="text_10">
      <!-- 7.0 -->
      <g transform="translate(37.35125 255.772929389)scale(0.12 -0.12)">
       <use xlink:href="#BitstreamVeraSans-Roman-37"/>
       <use x="63.623046875" xlink:href="#BitstreamVeraSans-Roman-2e"/>
       <use x="95.41015625" xlink:href="#BitstreamVeraSans-Roman-30"/>
      </g>
     </g>
    </g>
    <g id="ytick_3">
     <g id="line2d_23">
      <path clip-path="url(#pb1925c8496)" d="M 60.435 214.08 
L 707.04 214.08 
" style="fill:none;stroke:#000000;stroke-dasharray:1.000000,3.000000;stroke-dashoffset:0.0;stroke-width:0.5;"/>
     </g>
     <g id="line2d_24">
      <g>
       <use style="stroke:#000000;stroke-width:0.5;" x="60.435" xlink:href="#md1901e5c83" y="214.08"/>
      </g>
     </g>
     <g id="line2d_25">
      <g>
       <use style="stroke:#000000;stroke-width:0.5;" x="707.04" xlink:href="#m8b1c36e063" y="214.08"/>
      </g>
     </g>
     <g id="text_11">
      <!-- 7.5 -->
      <g transform="translate(37.35125 217.39125)scale(0.12 -0.12)">
       <use xlink:href="#BitstreamVeraSans-Roman-37"/>
       <use x="63.623046875" xlink:href="#BitstreamVeraSans-Roman-2e"/>
       <use x="95.41015625" xlink:href="#BitstreamVeraSans-Roman-35"/>
      </g>
     </g>
    </g>
    <g id="ytick_4">
     <g id="line2d_26">
      <path clip-path="url(#pb1925c8496)" d="M 60.435 175.698321 
L 707.04 175.698321 
" style="fill:none;stroke:#000000;stroke-dasharray:1.000000,3.000000;stroke-dashoffset:0.0;stroke-width:0.5;"/>
     </g>
     <g id="line2d_27">
      <g>
       <use style="stroke:#000000;stroke-width:0.5;" x="60.435" xlink:href="#md1901e5c83" y="175.698320611"/>
      </g>
     </g>
     <g id="line2d_28">
      <g>
       <use style="stroke:#000000;stroke-width:0.5;" x="707.04" xlink:href="#m8b1c36e063" y="175.698320611"/>
      </g>
     </g>
     <g id="text_12">
      <!-- 8.0 -->
      <defs>
       <path d="M 31.78125 34.625 
Q 24.75 34.625 20.71875 30.859375 
Q 16.703125 27.09375 16.703125 20.515625 
Q 16.703125 13.921875 20.71875 10.15625 
Q 24.75 6.390625 31.78125 6.390625 
Q 38.8125 6.390625 42.859375 10.171875 
Q 46.921875 13.96875 46.921875 20.515625 
Q 46.921875 27.09375 42.890625 30.859375 
Q 38.875 34.625 31.78125 34.625 
M 21.921875 38.8125 
Q 15.578125 40.375 12.03125 44.71875 
Q 8.5 49.078125 8.5 55.328125 
Q 8.5 64.0625 14.71875 69.140625 
Q 20.953125 74.21875 31.78125 74.21875 
Q 42.671875 74.21875 48.875 69.140625 
Q 55.078125 64.0625 55.078125 55.328125 
Q 55.078125 49.078125 51.53125 44.71875 
Q 48 40.375 41.703125 38.8125 
Q 48.828125 37.15625 52.796875 32.3125 
Q 56.78125 27.484375 56.78125 20.515625 
Q 56.78125 9.90625 50.3125 4.234375 
Q 43.84375 -1.421875 31.78125 -1.421875 
Q 19.734375 -1.421875 13.25 4.234375 
Q 6.78125 9.90625 6.78125 20.515625 
Q 6.78125 27.484375 10.78125 32.3125 
Q 14.796875 37.15625 21.921875 38.8125 
M 18.3125 54.390625 
Q 18.3125 48.734375 21.84375 45.5625 
Q 25.390625 42.390625 31.78125 42.390625 
Q 38.140625 42.390625 41.71875 45.5625 
Q 45.3125 48.734375 45.3125 54.390625 
Q 45.3125 60.0625 41.71875 63.234375 
Q 38.140625 66.40625 31.78125 66.40625 
Q 25.390625 66.40625 21.84375 63.234375 
Q 18.3125 60.0625 18.3125 54.390625 
" id="BitstreamVeraSans-Roman-38"/>
      </defs>
      <g transform="translate(37.35125 179.009570611)scale(0.12 -0.12)">
       <use xlink:href="#BitstreamVeraSans-Roman-38"/>
       <use x="63.623046875" xlink:href="#BitstreamVeraSans-Roman-2e"/>
       <use x="95.41015625" xlink:href="#BitstreamVeraSans-Roman-30"/>
      </g>
     </g>
    </g>
    <g id="ytick_5">
     <g id="line2d_29">
      <path clip-path="url(#pb1925c8496)" d="M 60.435 137.316641 
L 707.04 137.316641 
" style="fill:none;stroke:#000000;stroke-dasharray:1.000000,3.000000;stroke-dashoffset:0.0;stroke-width:0.5;"/>
     </g>
     <g id="line2d_30">
      <g>
       <use style="stroke:#000000;stroke-width:0.5;" x="60.435" xlink:href="#md1901e5c83" y="137.316641221"/>
      </g>
     </g>
     <g id="line2d_31">
      <g>
       <use style="stroke:#000000;stroke-width:0.5;" x="707.04" xlink:href="#m8b1c36e063" y="137.316641221"/>
      </g>
     </g>
     <g id="text_13">
      <!-- 8.5 -->
      <g transform="translate(37.35125 140.627891221)scale(0.12 -0.12)">
       <use xlink:href="#BitstreamVeraSans-Roman-38"/>
       <use x="63.623046875" xlink:href="#BitstreamVeraSans-Roman-2e"/>
       <use x="95.41015625" xlink:href="#BitstreamVeraSans-Roman-35"/>
      </g>
     </g>
    </g>
    <g id="ytick_6">
     <g id="line2d_32">
      <path clip-path="url(#pb1925c8496)" d="M 60.435 98.934962 
L 707.04 98.934962 
" style="fill:none;stroke:#000000;stroke-dasharray:1.000000,3.000000;stroke-dashoffset:0.0;stroke-width:0.5;"/>
     </g>
     <g id="line2d_33">
      <g>
       <use style="stroke:#000000;stroke-width:0.5;" x="60.435" xlink:href="#md1901e5c83" y="98.9349618321"/>
      </g>
     </g>
     <g id="line2d_34">
      <g>
       <use style="stroke:#000000;stroke-width:0.5;" x="707.04" xlink:href="#m8b1c36e063" y="98.9349618321"/>
      </g>
     </g>
     <g id="text_14">
      <!-- 9.0 -->
      <defs>
       <path d="M 10.984375 1.515625 
L 10.984375 10.5 
Q 14.703125 8.734375 18.5 7.8125 
Q 22.3125 6.890625 25.984375 6.890625 
Q 35.75 6.890625 40.890625 13.453125 
Q 46.046875 20.015625 46.78125 33.40625 
Q 43.953125 29.203125 39.59375 26.953125 
Q 35.25 24.703125 29.984375 24.703125 
Q 19.046875 24.703125 12.671875 31.3125 
Q 6.296875 37.9375 6.296875 49.421875 
Q 6.296875 60.640625 12.9375 67.421875 
Q 19.578125 74.21875 30.609375 74.21875 
Q 43.265625 74.21875 49.921875 64.515625 
Q 56.59375 54.828125 56.59375 36.375 
Q 56.59375 19.140625 48.40625 8.859375 
Q 40.234375 -1.421875 26.421875 -1.421875 
Q 22.703125 -1.421875 18.890625 -0.6875 
Q 15.09375 0.046875 10.984375 1.515625 
M 30.609375 32.421875 
Q 37.25 32.421875 41.125 36.953125 
Q 45.015625 41.5 45.015625 49.421875 
Q 45.015625 57.28125 41.125 61.84375 
Q 37.25 66.40625 30.609375 66.40625 
Q 23.96875 66.40625 20.09375 61.84375 
Q 16.21875 57.28125 16.21875 49.421875 
Q 16.21875 41.5 20.09375 36.953125 
Q 23.96875 32.421875 30.609375 32.421875 
" id="BitstreamVeraSans-Roman-39"/>
      </defs>
      <g transform="translate(37.35125 102.246211832)scale(0.12 -0.12)">
       <use xlink:href="#BitstreamVeraSans-Roman-39"/>
       <use x="63.623046875" xlink:href="#BitstreamVeraSans-Roman-2e"/>
       <use x="95.41015625" xlink:href="#BitstreamVeraSans-Roman-30"/>
      </g>
     </g>
    </g>
    <g id="ytick_7">
     <g id="line2d_35">
      <path clip-path="url(#pb1925c8496)" d="M 60.435 60.553282 
L 707.04 60.553282 
" style="fill:none;stroke:#000000;stroke-dasharray:1.000000,3.000000;stroke-dashoffset:0.0;stroke-width:0.5;"/>
     </g>
     <g id="line2d_36">
      <g>
       <use style="stroke:#000000;stroke-width:0.5;" x="60.435" xlink:href="#md1901e5c83" y="60.5532824427"/>
      </g>
     </g>
     <g id="line2d_37">
      <g>
       <use style="stroke:#000000;stroke-width:0.5;" x="707.04" xlink:href="#m8b1c36e063" y="60.5532824427"/>
      </g>
     </g>
     <g id="text_15">
      <!-- 9.5 -->
      <g transform="translate(37.35125 63.8645324427)scale(0.12 -0.12)">
       <use xlink:href="#BitstreamVeraSans-Roman-39"/>
       <use x="63.623046875" xlink:href="#BitstreamVeraSans-Roman-2e"/>
       <use x="95.41015625" xlink:href="#BitstreamVeraSans-Roman-35"/>
      </g>
     </g>
    </g>
    <g id="ytick_8">
     <g id="line2d_38">
      <path clip-path="url(#pb1925c8496)" d="M 60.435 22.171603 
L 707.04 22.171603 
" style="fill:none;stroke:#000000;stroke-dasharray:1.000000,3.000000;stroke-dashoffset:0.0;stroke-width:0.5;"/>
     </g>
     <g id="line2d_39">
      <g>
       <use style="stroke:#000000;stroke-width:0.5;" x="60.435" xlink:href="#md1901e5c83" y="22.1716030534"/>
      </g>
     </g>
     <g id="line2d_40">
      <g>
       <use style="stroke:#000000;stroke-width:0.5;" x="707.04" xlink:href="#m8b1c36e063" y="22.1716030534"/>
      </g>
     </g>
     <g id="text_16">
      <!-- 10.0 -->
      <g transform="translate(29.71625 25.4828530534)scale(0.12 -0.12)">
       <use xlink:href="#BitstreamVeraSans-Roman-31"/>
       <use x="63.623046875" xlink:href="#BitstreamVeraSans-Roman-30"/>
       <use x="127.24609375" xlink:href="#BitstreamVeraSans-Roman-2e"/>
       <use x="159.033203125" xlink:href="#BitstreamVeraSans-Roman-30"/>
      </g>
     </g>
    </g>
    <g id="text_17">
     <!-- value -->
     <defs>
      <path d="M 2.984375 54.6875 
L 12.5 54.6875 
L 29.59375 8.796875 
L 46.6875 54.6875 
L 56.203125 54.6875 
L 35.6875 0 
L 23.484375 0 
z
" id="BitstreamVeraSans-Roman-76"/>
      <path d="M 9.421875 75.984375 
L 18.40625 75.984375 
L 18.40625 0 
L 9.421875 0 
z
" id="BitstreamVeraSans-Roman-6c"/>
      <path d="M 34.28125 27.484375 
Q 23.390625 27.484375 19.1875 25 
Q 14.984375 22.515625 14.984375 16.5 
Q 14.984375 11.71875 18.140625 8.90625 
Q 21.296875 6.109375 26.703125 6.109375 
Q 34.1875 6.109375 38.703125 11.40625 
Q 43.21875 16.703125 43.21875 25.484375 
L 43.21875 27.484375 
z
M 52.203125 31.203125 
L 52.203125 0 
L 43.21875 0 
L 43.21875 8.296875 
Q 40.140625 3.328125 35.546875 0.953125 
Q 30.953125 -1.421875 24.3125 -1.421875 
Q 15.921875 -1.421875 10.953125 3.296875 
Q 6 8.015625 6 15.921875 
Q 6 25.140625 12.171875 29.828125 
Q 18.359375 34.515625 30.609375 34.515625 
L 43.21875 34.515625 
L 43.21875 35.40625 
Q 43.21875 41.609375 39.140625 45 
Q 35.0625 48.390625 27.6875 48.390625 
Q 23 48.390625 18.546875 47.265625 
Q 14.109375 46.140625 10.015625 43.890625 
L 10.015625 52.203125 
Q 14.9375 54.109375 19.578125 55.046875 
Q 24.21875 56 28.609375 56 
Q 40.484375 56 46.34375 49.84375 
Q 52.203125 43.703125 52.203125 31.203125 
" id="BitstreamVeraSans-Roman-61"/>
     </defs>
     <g transform="translate(22.220625 180.189375)rotate(-90.0)scale(0.12 -0.12)">
      <use xlink:href="#BitstreamVeraSans-Roman-76"/>
      <use x="59.1796875" xlink:href="#BitstreamVeraSans-Roman-61"/>
      <use x="120.458984375" xlink:href="#BitstreamVeraSans-Roman-6c"/>
      <use x="148.2421875" xlink:href="#BitstreamVeraSans-Roman-75"/>
      <use x="211.62109375" xlink:href="#BitstreamVeraSans-Roman-65"/>
     </g>
    </g>
   </g>
   <g id="legend_1">
    <g id="patch_7">
     <path d="M 67.635 307.44 
L 148.1355 307.44 
L 148.1355 260.847 
L 67.635 260.847 
z
" style="fill:#ffffff;stroke:#000000;stroke-linejoin:miter;"/>
    </g>
    <g id="line2d_41">
     <path d="M 77.715 272.50875 
L 97.875 272.50875 
" style="fill:none;stroke:#ff0000;stroke-linecap:square;stroke-width:2.0;"/>
    </g>
    <g id="line2d_42">
     <g>
      <use style="fill:#ff0000;stroke:#000000;stroke-width:0.5;" x="77.715" xlink:href="#m148b27b423" y="272.50875"/>
      <use style="fill:#ff0000;stroke:#000000;stroke-width:0.5;" x="97.875" xlink:href="#m148b27b423" y="272.50875"/>
     </g>
    </g>
    <g id="text_18">
     <!-- exp -->
     <defs>
      <path d="M 54.890625 54.6875 
L 35.109375 28.078125 
L 55.90625 0 
L 45.3125 0 
L 29.390625 21.484375 
L 13.484375 0 
L 2.875 0 
L 24.125 28.609375 
L 4.6875 54.6875 
L 15.28125 54.6875 
L 29.78125 35.203125 
L 44.28125 54.6875 
z
" id="BitstreamVeraSans-Roman-78"/>
      <path d="M 18.109375 8.203125 
L 18.109375 -20.796875 
L 9.078125 -20.796875 
L 9.078125 54.6875 
L 18.109375 54.6875 
L 18.109375 46.390625 
Q 20.953125 51.265625 25.265625 53.625 
Q 29.59375 56 35.59375 56 
Q 45.5625 56 51.78125 48.09375 
Q 58.015625 40.1875 58.015625 27.296875 
Q 58.015625 14.40625 51.78125 6.484375 
Q 45.5625 -1.421875 35.59375 -1.421875 
Q 29.59375 -1.421875 25.265625 0.953125 
Q 20.953125 3.328125 18.109375 8.203125 
M 48.6875 27.296875 
Q 48.6875 37.203125 44.609375 42.84375 
Q 40.53125 48.484375 33.40625 48.484375 
Q 26.265625 48.484375 22.1875 42.84375 
Q 18.109375 37.203125 18.109375 27.296875 
Q 18.109375 17.390625 22.1875 11.75 
Q 26.265625 6.109375 33.40625 6.109375 
Q 40.53125 6.109375 44.609375 11.75 
Q 48.6875 17.390625 48.6875 27.296875 
" id="BitstreamVeraSans-Roman-70"/>
     </defs>
     <g transform="translate(113.715 277.54875)scale(0.144 -0.144)">
      <use xlink:href="#BitstreamVeraSans-Roman-65"/>
      <use x="61.5078125" xlink:href="#BitstreamVeraSans-Roman-78"/>
      <use x="120.6875" xlink:href="#BitstreamVeraSans-Roman-70"/>
     </g>
    </g>
    <g id="line2d_43">
     <path d="M 77.715 293.64525 
L 97.875 293.64525 
" style="fill:none;stroke:#0000ff;stroke-linecap:square;stroke-width:2.0;"/>
    </g>
    <g id="line2d_44">
     <g>
      <use style="fill:#0000ff;stroke:#000000;stroke-width:0.5;" x="77.715" xlink:href="#m490f215331" y="293.64525"/>
      <use style="fill:#0000ff;stroke:#000000;stroke-width:0.5;" x="97.875" xlink:href="#m490f215331" y="293.64525"/>
     </g>
    </g>
    <g id="text_19">
     <!-- calc -->
     <defs>
      <path d="M 48.78125 52.59375 
L 48.78125 44.1875 
Q 44.96875 46.296875 41.140625 47.34375 
Q 37.3125 48.390625 33.40625 48.390625 
Q 24.65625 48.390625 19.8125 42.84375 
Q 14.984375 37.3125 14.984375 27.296875 
Q 14.984375 17.28125 19.8125 11.734375 
Q 24.65625 6.203125 33.40625 6.203125 
Q 37.3125 6.203125 41.140625 7.25 
Q 44.96875 8.296875 48.78125 10.40625 
L 48.78125 2.09375 
Q 45.015625 0.34375 40.984375 -0.53125 
Q 36.96875 -1.421875 32.421875 -1.421875 
Q 20.0625 -1.421875 12.78125 6.34375 
Q 5.515625 14.109375 5.515625 27.296875 
Q 5.515625 40.671875 12.859375 48.328125 
Q 20.21875 56 33.015625 56 
Q 37.15625 56 41.109375 55.140625 
Q 45.0625 54.296875 48.78125 52.59375 
" id="BitstreamVeraSans-Roman-63"/>
     </defs>
     <g transform="translate(113.715 298.68525)scale(0.144 -0.144)">
      <use xlink:href="#BitstreamVeraSans-Roman-63"/>
      <use x="54.98046875" xlink:href="#BitstreamVeraSans-Roman-61"/>
      <use x="116.259765625" xlink:href="#BitstreamVeraSans-Roman-6c"/>
      <use x="144.04296875" xlink:href="#BitstreamVeraSans-Roman-63"/>
     </g>
    </g>
   </g>
  </g>
 </g>
 <defs>
  <clipPath id="pb1925c8496">
   <rect height="301.68" width="646.605" x="60.435" y="12.96"/>
  </clipPath>
 </defs>
</svg>
