<?xml version="1.0" encoding="utf-8" standalone="no"?>
<!DOCTYPE svg PUBLIC "-//W3C//DTD SVG 1.1//EN"
  "http://www.w3.org/Graphics/SVG/1.1/DTD/svg11.dtd">
<!-- Created with matplotlib (http://matplotlib.org/) -->
<svg height="360pt" version="1.1" viewBox="0 0 432 360" width="432pt" xmlns="http://www.w3.org/2000/svg" xmlns:xlink="http://www.w3.org/1999/xlink">
 <defs>
  <style type="text/css">
*{stroke-linecap:butt;stroke-linejoin:round;stroke-miterlimit:100000;}
  </style>
 </defs>
 <g id="figure_1">
  <g id="patch_1">
   <path d="M 0 360 
L 432 360 
L 432 0 
L 0 0 
z
" style="fill:#ffffff;"/>
  </g>
  <g id="axes_1">
   <g id="patch_2">
    <path d="M 48.96 314.64 
L 419.04 314.64 
L 419.04 12.96 
L 48.96 12.96 
z
" style="fill:#ffffff;"/>
   </g>
   <g id="line2d_1">
    <path clip-path="url(#p7b5705f496)" d="M 48.96 314.64 
L 433 1.580156 
L 433 1.580156 
" style="fill:none;stroke:#ff0000;stroke-linecap:square;stroke-width:2.0;"/>
   </g>
   <g id="line2d_2">
    <defs>
     <path d="M 0 3 
C 0.795609 3 1.55874 2.683901 2.12132 2.12132 
C 2.683901 1.55874 3 0.795609 3 0 
C 3 -0.795609 2.683901 -1.55874 2.12132 -2.12132 
C 1.55874 -2.683901 0.795609 -3 0 -3 
C -0.795609 -3 -1.55874 -2.683901 -2.12132 -2.12132 
C -2.683901 -1.55874 -3 -0.795609 -3 0 
C -3 0.795609 -2.683901 1.55874 -2.12132 2.12132 
C -1.55874 2.683901 -0.795609 3 0 3 
z
" id="m556843a6fa" style="stroke:#000000;stroke-width:0.5;"/>
    </defs>
    <g clip-path="url(#p7b5705f496)">
     <use style="fill:#0000ff;stroke:#000000;stroke-width:0.5;" x="208.452301209" xlink:href="#m556843a6fa" y="177.53181713"/>
     <use style="fill:#0000ff;stroke:#000000;stroke-width:0.5;" x="218.833384952" xlink:href="#m556843a6fa" y="206.522068523"/>
     <use style="fill:#0000ff;stroke:#000000;stroke-width:0.5;" x="285.568923302" xlink:href="#m556843a6fa" y="131.473507479"/>
     <use style="fill:#0000ff;stroke:#000000;stroke-width:0.5;" x="217.350372989" xlink:href="#m556843a6fa" y="173.383306402"/>
     <use style="fill:#0000ff;stroke:#000000;stroke-width:0.5;" x="297.433019008" xlink:href="#m556843a6fa" y="106.621370151"/>
     <use style="fill:#0000ff;stroke:#000000;stroke-width:0.5;" x="209.935313172" xlink:href="#m556843a6fa" y="177.706021699"/>
     <use style="fill:#0000ff;stroke:#000000;stroke-width:0.5;" x="297.433019008" xlink:href="#m556843a6fa" y="122.211167856"/>
     <use style="fill:#0000ff;stroke:#000000;stroke-width:0.5;" x="254.425672072" xlink:href="#m556843a6fa" y="151.24602819"/>
     <use style="fill:#0000ff;stroke:#000000;stroke-width:0.5;" x="312.263138641" xlink:href="#m556843a6fa" y="103.265061043"/>
     <use style="fill:#0000ff;stroke:#000000;stroke-width:0.5;" x="72.0152005841" xlink:href="#m556843a6fa" y="297.194518658"/>
     <use style="fill:#0000ff;stroke:#000000;stroke-width:0.5;" x="236.629528512" xlink:href="#m556843a6fa" y="174.316467444"/>
     <use style="fill:#0000ff;stroke:#000000;stroke-width:0.5;" x="325.610246311" xlink:href="#m556843a6fa" y="97.7256942722"/>
     <use style="fill:#0000ff;stroke:#000000;stroke-width:0.5;" x="291.500971155" xlink:href="#m556843a6fa" y="122.375701109"/>
     <use style="fill:#0000ff;stroke:#000000;stroke-width:0.5;" x="321.161210421" xlink:href="#m556843a6fa" y="96.8960163048"/>
     <use style="fill:#0000ff;stroke:#000000;stroke-width:0.5;" x="183.241097833" xlink:href="#m556843a6fa" y="207.563548297"/>
     <use style="fill:#0000ff;stroke:#000000;stroke-width:0.5;" x="215.867361026" xlink:href="#m556843a6fa" y="181.591472649"/>
     <use style="fill:#0000ff;stroke:#000000;stroke-width:0.5;" x="269.255791705" xlink:href="#m556843a6fa" y="120.661218676"/>
     <use style="fill:#0000ff;stroke:#000000;stroke-width:0.5;" x="183.241097833" xlink:href="#m556843a6fa" y="193.918893896"/>
     <use style="fill:#0000ff;stroke:#000000;stroke-width:0.5;" x="370.100605211" xlink:href="#m556843a6fa" y="54.8014952582"/>
     <use style="fill:#0000ff;stroke:#000000;stroke-width:0.5;" x="252.942660109" xlink:href="#m556843a6fa" y="138.237867233"/>
     <use style="fill:#0000ff;stroke:#000000;stroke-width:0.5;" x="229.214468696" xlink:href="#m556843a6fa" y="183.216253632"/>
     <use style="fill:#0000ff;stroke:#000000;stroke-width:0.5;" x="287.051935265" xlink:href="#m556843a6fa" y="108.323038091"/>
     <use style="fill:#0000ff;stroke:#000000;stroke-width:0.5;" x="327.093258274" xlink:href="#m556843a6fa" y="65.0597385815"/>
     <use style="fill:#0000ff;stroke:#000000;stroke-width:0.5;" x="301.882054898" xlink:href="#m556843a6fa" y="128.978187221"/>
     <use style="fill:#0000ff;stroke:#000000;stroke-width:0.5;" x="232.180492622" xlink:href="#m556843a6fa" y="163.731333661"/>
     <use style="fill:#0000ff;stroke:#000000;stroke-width:0.5;" x="404.209880367" xlink:href="#m556843a6fa" y="48.3381551953"/>
     <use style="fill:#0000ff;stroke:#000000;stroke-width:0.5;" x="279.636875448" xlink:href="#m556843a6fa" y="127.14559385"/>
     <use style="fill:#0000ff;stroke:#000000;stroke-width:0.5;" x="221.799408879" xlink:href="#m556843a6fa" y="179.898388002"/>
     <use style="fill:#0000ff;stroke:#000000;stroke-width:0.5;" x="288.534947228" xlink:href="#m556843a6fa" y="125.131784207"/>
     <use style="fill:#0000ff;stroke:#000000;stroke-width:0.5;" x="381.964700917" xlink:href="#m556843a6fa" y="69.246209223"/>
     <use style="fill:#0000ff;stroke:#000000;stroke-width:0.5;" x="292.983983118" xlink:href="#m556843a6fa" y="129.291537839"/>
     <use style="fill:#0000ff;stroke:#000000;stroke-width:0.5;" x="252.942660109" xlink:href="#m556843a6fa" y="153.208096296"/>
     <use style="fill:#0000ff;stroke:#000000;stroke-width:0.5;" x="264.806755815" xlink:href="#m556843a6fa" y="138.457526983"/>
     <use style="fill:#0000ff;stroke:#000000;stroke-width:0.5;" x="221.799408879" xlink:href="#m556843a6fa" y="178.272277214"/>
     <use style="fill:#0000ff;stroke:#000000;stroke-width:0.5;" x="82.3962843273" xlink:href="#m556843a6fa" y="296.172502406"/>
     <use style="fill:#0000ff;stroke:#000000;stroke-width:0.5;" x="257.391695999" xlink:href="#m556843a6fa" y="129.404934012"/>
     <use style="fill:#0000ff;stroke:#000000;stroke-width:0.5;" x="313.746150605" xlink:href="#m556843a6fa" y="97.3771642445"/>
     <use style="fill:#0000ff;stroke:#000000;stroke-width:0.5;" x="383.44771288" xlink:href="#m556843a6fa" y="50.1506805874"/>
     <use style="fill:#0000ff;stroke:#000000;stroke-width:0.5;" x="227.731456732" xlink:href="#m556843a6fa" y="169.128532095"/>
     <use style="fill:#0000ff;stroke:#000000;stroke-width:0.5;" x="224.765432806" xlink:href="#m556843a6fa" y="171.301434877"/>
     <use style="fill:#0000ff;stroke:#000000;stroke-width:0.5;" x="241.078564402" xlink:href="#m556843a6fa" y="191.223256519"/>
     <use style="fill:#0000ff;stroke:#000000;stroke-width:0.5;" x="218.833384952" xlink:href="#m556843a6fa" y="187.800578009"/>
     <use style="fill:#0000ff;stroke:#000000;stroke-width:0.5;" x="187.690133723" xlink:href="#m556843a6fa" y="203.50655239"/>
     <use style="fill:#0000ff;stroke:#000000;stroke-width:0.5;" x="275.187839558" xlink:href="#m556843a6fa" y="126.879753569"/>
     <use style="fill:#0000ff;stroke:#000000;stroke-width:0.5;" x="239.595552439" xlink:href="#m556843a6fa" y="157.362530706"/>
     <use style="fill:#0000ff;stroke:#000000;stroke-width:0.5;" x="180.275073906" xlink:href="#m556843a6fa" y="204.342637604"/>
     <use style="fill:#0000ff;stroke:#000000;stroke-width:0.5;" x="72.0152005841" xlink:href="#m556843a6fa" y="282.94564883"/>
     <use style="fill:#0000ff;stroke:#000000;stroke-width:0.5;" x="209.935313172" xlink:href="#m556843a6fa" y="189.65070064"/>
     <use style="fill:#0000ff;stroke:#000000;stroke-width:0.5;" x="230.697480659" xlink:href="#m556843a6fa" y="170.920022377"/>
     <use style="fill:#0000ff;stroke:#000000;stroke-width:0.5;" x="205.486277283" xlink:href="#m556843a6fa" y="191.873531587"/>
     <use style="fill:#0000ff;stroke:#000000;stroke-width:0.5;" x="229.214468696" xlink:href="#m556843a6fa" y="176.577258303"/>
     <use style="fill:#0000ff;stroke:#000000;stroke-width:0.5;" x="241.078564402" xlink:href="#m556843a6fa" y="159.4518975"/>
     <use style="fill:#0000ff;stroke:#000000;stroke-width:0.5;" x="70.5321886208" xlink:href="#m556843a6fa" y="297.506055905"/>
     <use style="fill:#0000ff;stroke:#000000;stroke-width:0.5;" x="205.486277283" xlink:href="#m556843a6fa" y="187.263215549"/>
     <use style="fill:#0000ff;stroke:#000000;stroke-width:0.5;" x="287.051935265" xlink:href="#m556843a6fa" y="123.394936857"/>
     <use style="fill:#0000ff;stroke:#000000;stroke-width:0.5;" x="270.738803668" xlink:href="#m556843a6fa" y="143.342508377"/>
     <use style="fill:#0000ff;stroke:#000000;stroke-width:0.5;" x="307.814102751" xlink:href="#m556843a6fa" y="102.088303745"/>
     <use style="fill:#0000ff;stroke:#000000;stroke-width:0.5;" x="252.942660109" xlink:href="#m556843a6fa" y="161.607150131"/>
     <use style="fill:#0000ff;stroke:#000000;stroke-width:0.5;" x="266.289767778" xlink:href="#m556843a6fa" y="164.498752536"/>
     <use style="fill:#0000ff;stroke:#000000;stroke-width:0.5;" x="202.520253356" xlink:href="#m556843a6fa" y="192.364713516"/>
     <use style="fill:#0000ff;stroke:#000000;stroke-width:0.5;" x="327.093258274" xlink:href="#m556843a6fa" y="107.508955119"/>
     <use style="fill:#0000ff;stroke:#000000;stroke-width:0.5;" x="196.588205503" xlink:href="#m556843a6fa" y="204.104360571"/>
     <use style="fill:#0000ff;stroke:#000000;stroke-width:0.5;" x="260.357719925" xlink:href="#m556843a6fa" y="133.422398418"/>
     <use style="fill:#0000ff;stroke:#000000;stroke-width:0.5;" x="267.772779742" xlink:href="#m556843a6fa" y="149.525742969"/>
     <use style="fill:#0000ff;stroke:#000000;stroke-width:0.5;" x="304.848078825" xlink:href="#m556843a6fa" y="134.360999574"/>
     <use style="fill:#0000ff;stroke:#000000;stroke-width:0.5;" x="327.093258274" xlink:href="#m556843a6fa" y="95.3958743992"/>
     <use style="fill:#0000ff;stroke:#000000;stroke-width:0.5;" x="198.071217466" xlink:href="#m556843a6fa" y="198.519538619"/>
     <use style="fill:#0000ff;stroke:#000000;stroke-width:0.5;" x="232.180492622" xlink:href="#m556843a6fa" y="192.970984098"/>
     <use style="fill:#0000ff;stroke:#000000;stroke-width:0.5;" x="198.071217466" xlink:href="#m556843a6fa" y="201.030091198"/>
     <use style="fill:#0000ff;stroke:#000000;stroke-width:0.5;" x="300.399042935" xlink:href="#m556843a6fa" y="107.499888261"/>
     <use style="fill:#0000ff;stroke:#000000;stroke-width:0.5;" x="201.037241393" xlink:href="#m556843a6fa" y="202.859783174"/>
     <use style="fill:#0000ff;stroke:#000000;stroke-width:0.5;" x="227.731456732" xlink:href="#m556843a6fa" y="187.844098928"/>
     <use style="fill:#0000ff;stroke:#000000;stroke-width:0.5;" x="214.384349062" xlink:href="#m556843a6fa" y="204.300809165"/>
     <use style="fill:#0000ff;stroke:#000000;stroke-width:0.5;" x="241.078564402" xlink:href="#m556843a6fa" y="165.059809719"/>
     <use style="fill:#0000ff;stroke:#000000;stroke-width:0.5;" x="72.0152005841" xlink:href="#m556843a6fa" y="302.550855785"/>
     <use style="fill:#0000ff;stroke:#000000;stroke-width:0.5;" x="82.3962843273" xlink:href="#m556843a6fa" y="291.420864273"/>
    </g>
   </g>
   <g id="patch_3">
    <path d="M 419.04 314.64 
L 419.04 12.96 
" style="fill:none;stroke:#000000;stroke-linecap:square;stroke-linejoin:miter;"/>
   </g>
   <g id="patch_4">
    <path d="M 48.96 314.64 
L 48.96 12.96 
" style="fill:none;stroke:#000000;stroke-linecap:square;stroke-linejoin:miter;"/>
   </g>
   <g id="patch_5">
    <path d="M 48.96 314.64 
L 419.04 314.64 
" style="fill:none;stroke:#000000;stroke-linecap:square;stroke-linejoin:miter;"/>
   </g>
   <g id="patch_6">
    <path d="M 48.96 12.96 
L 419.04 12.96 
" style="fill:none;stroke:#000000;stroke-linecap:square;stroke-linejoin:miter;"/>
   </g>
   <g id="matplotlib.axis_1">
    <g id="xtick_1">
     <g id="line2d_3">
      <defs>
       <path d="M 0 0 
L 0 -4 
" id="mef4d434a51" style="stroke:#000000;stroke-width:0.5;"/>
      </defs>
      <g>
       <use style="stroke:#000000;stroke-width:0.5;" x="64.6001407675" xlink:href="#mef4d434a51" y="314.64"/>
      </g>
     </g>
     <g id="line2d_4">
      <defs>
       <path d="M 0 0 
L 0 4 
" id="m1db958206d" style="stroke:#000000;stroke-width:0.5;"/>
      </defs>
      <g>
       <use style="stroke:#000000;stroke-width:0.5;" x="64.6001407675" xlink:href="#m1db958206d" y="12.96"/>
      </g>
     </g>
     <g id="text_1">
      <!-- 45 -->
      <defs>
       <path d="M 37.796875 64.3125 
L 12.890625 25.390625 
L 37.796875 25.390625 
z
M 35.203125 72.90625 
L 47.609375 72.90625 
L 47.609375 25.390625 
L 58.015625 25.390625 
L 58.015625 17.1875 
L 47.609375 17.1875 
L 47.609375 0 
L 37.796875 0 
L 37.796875 17.1875 
L 4.890625 17.1875 
L 4.890625 26.703125 
z
" id="BitstreamVeraSans-Roman-34"/>
       <path d="M 10.796875 72.90625 
L 49.515625 72.90625 
L 49.515625 64.59375 
L 19.828125 64.59375 
L 19.828125 46.734375 
Q 21.96875 47.46875 24.109375 47.828125 
Q 26.265625 48.1875 28.421875 48.1875 
Q 40.625 48.1875 47.75 41.5 
Q 54.890625 34.8125 54.890625 23.390625 
Q 54.890625 11.625 47.5625 5.09375 
Q 40.234375 -1.421875 26.90625 -1.421875 
Q 22.3125 -1.421875 17.546875 -0.640625 
Q 12.796875 0.140625 7.71875 1.703125 
L 7.71875 11.625 
Q 12.109375 9.234375 16.796875 8.0625 
Q 21.484375 6.890625 26.703125 6.890625 
Q 35.15625 6.890625 40.078125 11.328125 
Q 45.015625 15.765625 45.015625 23.390625 
Q 45.015625 31 40.078125 35.4375 
Q 35.15625 39.890625 26.703125 39.890625 
Q 22.75 39.890625 18.8125 39.015625 
Q 14.890625 38.140625 10.796875 36.28125 
z
" id="BitstreamVeraSans-Roman-35"/>
      </defs>
      <g transform="translate(56.9651407675 327.758125)scale(0.12 -0.12)">
       <use xlink:href="#BitstreamVeraSans-Roman-34"/>
       <use x="63.623046875" xlink:href="#BitstreamVeraSans-Roman-35"/>
      </g>
     </g>
    </g>
    <g id="xtick_2">
     <g id="line2d_5">
      <g>
       <use style="stroke:#000000;stroke-width:0.5;" x="138.750738933" xlink:href="#mef4d434a51" y="314.64"/>
      </g>
     </g>
     <g id="line2d_6">
      <g>
       <use style="stroke:#000000;stroke-width:0.5;" x="138.750738933" xlink:href="#m1db958206d" y="12.96"/>
      </g>
     </g>
     <g id="text_2">
      <!-- 50 -->
      <defs>
       <path d="M 31.78125 66.40625 
Q 24.171875 66.40625 20.328125 58.90625 
Q 16.5 51.421875 16.5 36.375 
Q 16.5 21.390625 20.328125 13.890625 
Q 24.171875 6.390625 31.78125 6.390625 
Q 39.453125 6.390625 43.28125 13.890625 
Q 47.125 21.390625 47.125 36.375 
Q 47.125 51.421875 43.28125 58.90625 
Q 39.453125 66.40625 31.78125 66.40625 
M 31.78125 74.21875 
Q 44.046875 74.21875 50.515625 64.515625 
Q 56.984375 54.828125 56.984375 36.375 
Q 56.984375 17.96875 50.515625 8.265625 
Q 44.046875 -1.421875 31.78125 -1.421875 
Q 19.53125 -1.421875 13.0625 8.265625 
Q 6.59375 17.96875 6.59375 36.375 
Q 6.59375 54.828125 13.0625 64.515625 
Q 19.53125 74.21875 31.78125 74.21875 
" id="BitstreamVeraSans-Roman-30"/>
      </defs>
      <g transform="translate(131.115738933 327.758125)scale(0.12 -0.12)">
       <use xlink:href="#BitstreamVeraSans-Roman-35"/>
       <use x="63.623046875" xlink:href="#BitstreamVeraSans-Roman-30"/>
      </g>
     </g>
    </g>
    <g id="xtick_3">
     <g id="line2d_7">
      <g>
       <use style="stroke:#000000;stroke-width:0.5;" x="212.901337099" xlink:href="#mef4d434a51" y="314.64"/>
      </g>
     </g>
     <g id="line2d_8">
      <g>
       <use style="stroke:#000000;stroke-width:0.5;" x="212.901337099" xlink:href="#m1db958206d" y="12.96"/>
      </g>
     </g>
     <g id="text_3">
      <!-- 55 -->
      <g transform="translate(205.266337099 327.758125)scale(0.12 -0.12)">
       <use xlink:href="#BitstreamVeraSans-Roman-35"/>
       <use x="63.623046875" xlink:href="#BitstreamVeraSans-Roman-35"/>
      </g>
     </g>
    </g>
    <g id="xtick_4">
     <g id="line2d_9">
      <g>
       <use style="stroke:#000000;stroke-width:0.5;" x="287.051935265" xlink:href="#mef4d434a51" y="314.64"/>
      </g>
     </g>
     <g id="line2d_10">
      <g>
       <use style="stroke:#000000;stroke-width:0.5;" x="287.051935265" xlink:href="#m1db958206d" y="12.96"/>
      </g>
     </g>
     <g id="text_4">
      <!-- 60 -->
      <defs>
       <path d="M 33.015625 40.375 
Q 26.375 40.375 22.484375 35.828125 
Q 18.609375 31.296875 18.609375 23.390625 
Q 18.609375 15.53125 22.484375 10.953125 
Q 26.375 6.390625 33.015625 6.390625 
Q 39.65625 6.390625 43.53125 10.953125 
Q 47.40625 15.53125 47.40625 23.390625 
Q 47.40625 31.296875 43.53125 35.828125 
Q 39.65625 40.375 33.015625 40.375 
M 52.59375 71.296875 
L 52.59375 62.3125 
Q 48.875 64.0625 45.09375 64.984375 
Q 41.3125 65.921875 37.59375 65.921875 
Q 27.828125 65.921875 22.671875 59.328125 
Q 17.53125 52.734375 16.796875 39.40625 
Q 19.671875 43.65625 24.015625 45.921875 
Q 28.375 48.1875 33.59375 48.1875 
Q 44.578125 48.1875 50.953125 41.515625 
Q 57.328125 34.859375 57.328125 23.390625 
Q 57.328125 12.15625 50.6875 5.359375 
Q 44.046875 -1.421875 33.015625 -1.421875 
Q 20.359375 -1.421875 13.671875 8.265625 
Q 6.984375 17.96875 6.984375 36.375 
Q 6.984375 53.65625 15.1875 63.9375 
Q 23.390625 74.21875 37.203125 74.21875 
Q 40.921875 74.21875 44.703125 73.484375 
Q 48.484375 72.75 52.59375 71.296875 
" id="BitstreamVeraSans-Roman-36"/>
      </defs>
      <g transform="translate(279.416935265 327.758125)scale(0.12 -0.12)">
       <use xlink:href="#BitstreamVeraSans-Roman-36"/>
       <use x="63.623046875" xlink:href="#BitstreamVeraSans-Roman-30"/>
      </g>
     </g>
    </g>
    <g id="xtick_5">
     <g id="line2d_11">
      <g>
       <use style="stroke:#000000;stroke-width:0.5;" x="361.202533431" xlink:href="#mef4d434a51" y="314.64"/>
      </g>
     </g>
     <g id="line2d_12">
      <g>
       <use style="stroke:#000000;stroke-width:0.5;" x="361.202533431" xlink:href="#m1db958206d" y="12.96"/>
      </g>
     </g>
     <g id="text_5">
      <!-- 65 -->
      <g transform="translate(353.567533431 327.758125)scale(0.12 -0.12)">
       <use xlink:href="#BitstreamVeraSans-Roman-36"/>
       <use x="63.623046875" xlink:href="#BitstreamVeraSans-Roman-35"/>
      </g>
     </g>
    </g>
    <g id="text_6">
     <!-- experimental -->
     <defs>
      <path d="M 54.890625 33.015625 
L 54.890625 0 
L 45.90625 0 
L 45.90625 32.71875 
Q 45.90625 40.484375 42.875 44.328125 
Q 39.84375 48.1875 33.796875 48.1875 
Q 26.515625 48.1875 22.3125 43.546875 
Q 18.109375 38.921875 18.109375 30.90625 
L 18.109375 0 
L 9.078125 0 
L 9.078125 54.6875 
L 18.109375 54.6875 
L 18.109375 46.1875 
Q 21.34375 51.125 25.703125 53.5625 
Q 30.078125 56 35.796875 56 
Q 45.21875 56 50.046875 50.171875 
Q 54.890625 44.34375 54.890625 33.015625 
" id="BitstreamVeraSans-Roman-6e"/>
      <path d="M 9.421875 75.984375 
L 18.40625 75.984375 
L 18.40625 0 
L 9.421875 0 
z
" id="BitstreamVeraSans-Roman-6c"/>
      <path d="M 56.203125 29.59375 
L 56.203125 25.203125 
L 14.890625 25.203125 
Q 15.484375 15.921875 20.484375 11.0625 
Q 25.484375 6.203125 34.421875 6.203125 
Q 39.59375 6.203125 44.453125 7.46875 
Q 49.3125 8.734375 54.109375 11.28125 
L 54.109375 2.78125 
Q 49.265625 0.734375 44.1875 -0.34375 
Q 39.109375 -1.421875 33.890625 -1.421875 
Q 20.796875 -1.421875 13.15625 6.1875 
Q 5.515625 13.8125 5.515625 26.8125 
Q 5.515625 40.234375 12.765625 48.109375 
Q 20.015625 56 32.328125 56 
Q 43.359375 56 49.78125 48.890625 
Q 56.203125 41.796875 56.203125 29.59375 
M 47.21875 32.234375 
Q 47.125 39.59375 43.09375 43.984375 
Q 39.0625 48.390625 32.421875 48.390625 
Q 24.90625 48.390625 20.390625 44.140625 
Q 15.875 39.890625 15.1875 32.171875 
z
" id="BitstreamVeraSans-Roman-65"/>
      <path d="M 18.109375 8.203125 
L 18.109375 -20.796875 
L 9.078125 -20.796875 
L 9.078125 54.6875 
L 18.109375 54.6875 
L 18.109375 46.390625 
Q 20.953125 51.265625 25.265625 53.625 
Q 29.59375 56 35.59375 56 
Q 45.5625 56 51.78125 48.09375 
Q 58.015625 40.1875 58.015625 27.296875 
Q 58.015625 14.40625 51.78125 6.484375 
Q 45.5625 -1.421875 35.59375 -1.421875 
Q 29.59375 -1.421875 25.265625 0.953125 
Q 20.953125 3.328125 18.109375 8.203125 
M 48.6875 27.296875 
Q 48.6875 37.203125 44.609375 42.84375 
Q 40.53125 48.484375 33.40625 48.484375 
Q 26.265625 48.484375 22.1875 42.84375 
Q 18.109375 37.203125 18.109375 27.296875 
Q 18.109375 17.390625 22.1875 11.75 
Q 26.265625 6.109375 33.40625 6.109375 
Q 40.53125 6.109375 44.609375 11.75 
Q 48.6875 17.390625 48.6875 27.296875 
" id="BitstreamVeraSans-Roman-70"/>
      <path d="M 41.109375 46.296875 
Q 39.59375 47.171875 37.8125 47.578125 
Q 36.03125 48 33.890625 48 
Q 26.265625 48 22.1875 43.046875 
Q 18.109375 38.09375 18.109375 28.8125 
L 18.109375 0 
L 9.078125 0 
L 9.078125 54.6875 
L 18.109375 54.6875 
L 18.109375 46.1875 
Q 20.953125 51.171875 25.484375 53.578125 
Q 30.03125 56 36.53125 56 
Q 37.453125 56 38.578125 55.875 
Q 39.703125 55.765625 41.0625 55.515625 
z
" id="BitstreamVeraSans-Roman-72"/>
      <path d="M 18.3125 70.21875 
L 18.3125 54.6875 
L 36.8125 54.6875 
L 36.8125 47.703125 
L 18.3125 47.703125 
L 18.3125 18.015625 
Q 18.3125 11.328125 20.140625 9.421875 
Q 21.96875 7.515625 27.59375 7.515625 
L 36.8125 7.515625 
L 36.8125 0 
L 27.59375 0 
Q 17.1875 0 13.234375 3.875 
Q 9.28125 7.765625 9.28125 18.015625 
L 9.28125 47.703125 
L 2.6875 47.703125 
L 2.6875 54.6875 
L 9.28125 54.6875 
L 9.28125 70.21875 
z
" id="BitstreamVeraSans-Roman-74"/>
      <path d="M 34.28125 27.484375 
Q 23.390625 27.484375 19.1875 25 
Q 14.984375 22.515625 14.984375 16.5 
Q 14.984375 11.71875 18.140625 8.90625 
Q 21.296875 6.109375 26.703125 6.109375 
Q 34.1875 6.109375 38.703125 11.40625 
Q 43.21875 16.703125 43.21875 25.484375 
L 43.21875 27.484375 
z
M 52.203125 31.203125 
L 52.203125 0 
L 43.21875 0 
L 43.21875 8.296875 
Q 40.140625 3.328125 35.546875 0.953125 
Q 30.953125 -1.421875 24.3125 -1.421875 
Q 15.921875 -1.421875 10.953125 3.296875 
Q 6 8.015625 6 15.921875 
Q 6 25.140625 12.171875 29.828125 
Q 18.359375 34.515625 30.609375 34.515625 
L 43.21875 34.515625 
L 43.21875 35.40625 
Q 43.21875 41.609375 39.140625 45 
Q 35.0625 48.390625 27.6875 48.390625 
Q 23 48.390625 18.546875 47.265625 
Q 14.109375 46.140625 10.015625 43.890625 
L 10.015625 52.203125 
Q 14.9375 54.109375 19.578125 55.046875 
Q 24.21875 56 28.609375 56 
Q 40.484375 56 46.34375 49.84375 
Q 52.203125 43.703125 52.203125 31.203125 
" id="BitstreamVeraSans-Roman-61"/>
      <path d="M 54.890625 54.6875 
L 35.109375 28.078125 
L 55.90625 0 
L 45.3125 0 
L 29.390625 21.484375 
L 13.484375 0 
L 2.875 0 
L 24.125 28.609375 
L 4.6875 54.6875 
L 15.28125 54.6875 
L 29.78125 35.203125 
L 44.28125 54.6875 
z
" id="BitstreamVeraSans-Roman-78"/>
      <path d="M 52 44.1875 
Q 55.375 50.25 60.0625 53.125 
Q 64.75 56 71.09375 56 
Q 79.640625 56 84.28125 50.015625 
Q 88.921875 44.046875 88.921875 33.015625 
L 88.921875 0 
L 79.890625 0 
L 79.890625 32.71875 
Q 79.890625 40.578125 77.09375 44.375 
Q 74.3125 48.1875 68.609375 48.1875 
Q 61.625 48.1875 57.5625 43.546875 
Q 53.515625 38.921875 53.515625 30.90625 
L 53.515625 0 
L 44.484375 0 
L 44.484375 32.71875 
Q 44.484375 40.625 41.703125 44.40625 
Q 38.921875 48.1875 33.109375 48.1875 
Q 26.21875 48.1875 22.15625 43.53125 
Q 18.109375 38.875 18.109375 30.90625 
L 18.109375 0 
L 9.078125 0 
L 9.078125 54.6875 
L 18.109375 54.6875 
L 18.109375 46.1875 
Q 21.1875 51.21875 25.484375 53.609375 
Q 29.78125 56 35.6875 56 
Q 41.65625 56 45.828125 52.96875 
Q 50 49.953125 52 44.1875 
" id="BitstreamVeraSans-Roman-6d"/>
      <path d="M 9.421875 54.6875 
L 18.40625 54.6875 
L 18.40625 0 
L 9.421875 0 
z
M 9.421875 75.984375 
L 18.40625 75.984375 
L 18.40625 64.59375 
L 9.421875 64.59375 
z
" id="BitstreamVeraSans-Roman-69"/>
     </defs>
     <g transform="translate(194.08875 344.371875)scale(0.12 -0.12)">
      <use xlink:href="#BitstreamVeraSans-Roman-65"/>
      <use x="61.5078125" xlink:href="#BitstreamVeraSans-Roman-78"/>
      <use x="120.6875" xlink:href="#BitstreamVeraSans-Roman-70"/>
      <use x="184.1640625" xlink:href="#BitstreamVeraSans-Roman-65"/>
      <use x="245.6875" xlink:href="#BitstreamVeraSans-Roman-72"/>
      <use x="286.80078125" xlink:href="#BitstreamVeraSans-Roman-69"/>
      <use x="314.583984375" xlink:href="#BitstreamVeraSans-Roman-6d"/>
      <use x="411.99609375" xlink:href="#BitstreamVeraSans-Roman-65"/>
      <use x="473.51953125" xlink:href="#BitstreamVeraSans-Roman-6e"/>
      <use x="536.8984375" xlink:href="#BitstreamVeraSans-Roman-74"/>
      <use x="576.107421875" xlink:href="#BitstreamVeraSans-Roman-61"/>
      <use x="637.38671875" xlink:href="#BitstreamVeraSans-Roman-6c"/>
     </g>
    </g>
   </g>
   <g id="matplotlib.axis_2">
    <g id="ytick_1">
     <g id="line2d_13">
      <defs>
       <path d="M 0 0 
L 4 0 
" id="mc44b341bb3" style="stroke:#000000;stroke-width:0.5;"/>
      </defs>
      <g>
       <use style="stroke:#000000;stroke-width:0.5;" x="48.96" xlink:href="#mc44b341bb3" y="301.890546728"/>
      </g>
     </g>
     <g id="line2d_14">
      <defs>
       <path d="M 0 0 
L -4 0 
" id="m39625a0c99" style="stroke:#000000;stroke-width:0.5;"/>
      </defs>
      <g>
       <use style="stroke:#000000;stroke-width:0.5;" x="419.04" xlink:href="#m39625a0c99" y="301.890546728"/>
      </g>
     </g>
     <g id="text_7">
      <!-- 45 -->
      <g transform="translate(29.69 305.201796728)scale(0.12 -0.12)">
       <use xlink:href="#BitstreamVeraSans-Roman-34"/>
       <use x="63.623046875" xlink:href="#BitstreamVeraSans-Roman-35"/>
      </g>
     </g>
    </g>
    <g id="ytick_2">
     <g id="line2d_15">
      <g>
       <use style="stroke:#000000;stroke-width:0.5;" x="48.96" xlink:href="#mc44b341bb3" y="241.444825656"/>
      </g>
     </g>
     <g id="line2d_16">
      <g>
       <use style="stroke:#000000;stroke-width:0.5;" x="419.04" xlink:href="#m39625a0c99" y="241.444825656"/>
      </g>
     </g>
     <g id="text_8">
      <!-- 50 -->
      <g transform="translate(29.69 244.756075656)scale(0.12 -0.12)">
       <use xlink:href="#BitstreamVeraSans-Roman-35"/>
       <use x="63.623046875" xlink:href="#BitstreamVeraSans-Roman-30"/>
      </g>
     </g>
    </g>
    <g id="ytick_3">
     <g id="line2d_17">
      <g>
       <use style="stroke:#000000;stroke-width:0.5;" x="48.96" xlink:href="#mc44b341bb3" y="180.999104583"/>
      </g>
     </g>
     <g id="line2d_18">
      <g>
       <use style="stroke:#000000;stroke-width:0.5;" x="419.04" xlink:href="#m39625a0c99" y="180.999104583"/>
      </g>
     </g>
     <g id="text_9">
      <!-- 55 -->
      <g transform="translate(29.69 184.310354583)scale(0.12 -0.12)">
       <use xlink:href="#BitstreamVeraSans-Roman-35"/>
       <use x="63.623046875" xlink:href="#BitstreamVeraSans-Roman-35"/>
      </g>
     </g>
    </g>
    <g id="ytick_4">
     <g id="line2d_19">
      <g>
       <use style="stroke:#000000;stroke-width:0.5;" x="48.96" xlink:href="#mc44b341bb3" y="120.55338351"/>
      </g>
     </g>
     <g id="line2d_20">
      <g>
       <use style="stroke:#000000;stroke-width:0.5;" x="419.04" xlink:href="#m39625a0c99" y="120.55338351"/>
      </g>
     </g>
     <g id="text_10">
      <!-- 60 -->
      <g transform="translate(29.69 123.86463351)scale(0.12 -0.12)">
       <use xlink:href="#BitstreamVeraSans-Roman-36"/>
       <use x="63.623046875" xlink:href="#BitstreamVeraSans-Roman-30"/>
      </g>
     </g>
    </g>
    <g id="ytick_5">
     <g id="line2d_21">
      <g>
       <use style="stroke:#000000;stroke-width:0.5;" x="48.96" xlink:href="#mc44b341bb3" y="60.1076624369"/>
      </g>
     </g>
     <g id="line2d_22">
      <g>
       <use style="stroke:#000000;stroke-width:0.5;" x="419.04" xlink:href="#m39625a0c99" y="60.1076624369"/>
      </g>
     </g>
     <g id="text_11">
      <!-- 65 -->
      <g transform="translate(29.69 63.4189124369)scale(0.12 -0.12)">
       <use xlink:href="#BitstreamVeraSans-Roman-36"/>
       <use x="63.623046875" xlink:href="#BitstreamVeraSans-Roman-35"/>
      </g>
     </g>
    </g>
    <g id="text_12">
     <!-- calculated -->
     <defs>
      <path d="M 48.78125 52.59375 
L 48.78125 44.1875 
Q 44.96875 46.296875 41.140625 47.34375 
Q 37.3125 48.390625 33.40625 48.390625 
Q 24.65625 48.390625 19.8125 42.84375 
Q 14.984375 37.3125 14.984375 27.296875 
Q 14.984375 17.28125 19.8125 11.734375 
Q 24.65625 6.203125 33.40625 6.203125 
Q 37.3125 6.203125 41.140625 7.25 
Q 44.96875 8.296875 48.78125 10.40625 
L 48.78125 2.09375 
Q 45.015625 0.34375 40.984375 -0.53125 
Q 36.96875 -1.421875 32.421875 -1.421875 
Q 20.0625 -1.421875 12.78125 6.34375 
Q 5.515625 14.109375 5.515625 27.296875 
Q 5.515625 40.671875 12.859375 48.328125 
Q 20.21875 56 33.015625 56 
Q 37.15625 56 41.109375 55.140625 
Q 45.0625 54.296875 48.78125 52.59375 
" id="BitstreamVeraSans-Roman-63"/>
      <path d="M 45.40625 46.390625 
L 45.40625 75.984375 
L 54.390625 75.984375 
L 54.390625 0 
L 45.40625 0 
L 45.40625 8.203125 
Q 42.578125 3.328125 38.25 0.953125 
Q 33.9375 -1.421875 27.875 -1.421875 
Q 17.96875 -1.421875 11.734375 6.484375 
Q 5.515625 14.40625 5.515625 27.296875 
Q 5.515625 40.1875 11.734375 48.09375 
Q 17.96875 56 27.875 56 
Q 33.9375 56 38.25 53.625 
Q 42.578125 51.265625 45.40625 46.390625 
M 14.796875 27.296875 
Q 14.796875 17.390625 18.875 11.75 
Q 22.953125 6.109375 30.078125 6.109375 
Q 37.203125 6.109375 41.296875 11.75 
Q 45.40625 17.390625 45.40625 27.296875 
Q 45.40625 37.203125 41.296875 42.84375 
Q 37.203125 48.484375 30.078125 48.484375 
Q 22.953125 48.484375 18.875 42.84375 
Q 14.796875 37.203125 14.796875 27.296875 
" id="BitstreamVeraSans-Roman-64"/>
      <path d="M 8.5 21.578125 
L 8.5 54.6875 
L 17.484375 54.6875 
L 17.484375 21.921875 
Q 17.484375 14.15625 20.5 10.265625 
Q 23.53125 6.390625 29.59375 6.390625 
Q 36.859375 6.390625 41.078125 11.03125 
Q 45.3125 15.671875 45.3125 23.6875 
L 45.3125 54.6875 
L 54.296875 54.6875 
L 54.296875 0 
L 45.3125 0 
L 45.3125 8.40625 
Q 42.046875 3.421875 37.71875 1 
Q 33.40625 -1.421875 27.6875 -1.421875 
Q 18.265625 -1.421875 13.375 4.4375 
Q 8.5 10.296875 8.5 21.578125 
" id="BitstreamVeraSans-Roman-75"/>
     </defs>
     <g transform="translate(22.194375 194.74125)rotate(-90.0)scale(0.12 -0.12)">
      <use xlink:href="#BitstreamVeraSans-Roman-63"/>
      <use x="54.98046875" xlink:href="#BitstreamVeraSans-Roman-61"/>
      <use x="116.259765625" xlink:href="#BitstreamVeraSans-Roman-6c"/>
      <use x="144.04296875" xlink:href="#BitstreamVeraSans-Roman-63"/>
      <use x="199.0234375" xlink:href="#BitstreamVeraSans-Roman-75"/>
      <use x="262.40234375" xlink:href="#BitstreamVeraSans-Roman-6c"/>
      <use x="290.185546875" xlink:href="#BitstreamVeraSans-Roman-61"/>
      <use x="351.46484375" xlink:href="#BitstreamVeraSans-Roman-74"/>
      <use x="390.673828125" xlink:href="#BitstreamVeraSans-Roman-65"/>
      <use x="452.197265625" xlink:href="#BitstreamVeraSans-Roman-64"/>
     </g>
    </g>
   </g>
  </g>
 </g>
 <defs>
  <clipPath id="p7b5705f496">
   <rect height="301.68" width="370.08" x="48.96" y="12.96"/>
  </clipPath>
 </defs>
</svg>
