<?xml version="1.0" encoding="utf-8" standalone="no"?>
<!DOCTYPE svg PUBLIC "-//W3C//DTD SVG 1.1//EN"
  "http://www.w3.org/Graphics/SVG/1.1/DTD/svg11.dtd">
<!-- Created with matplotlib (http://matplotlib.org/) -->
<svg height="360pt" version="1.1" viewBox="0 0 720 360" width="720pt" xmlns="http://www.w3.org/2000/svg" xmlns:xlink="http://www.w3.org/1999/xlink">
 <defs>
  <style type="text/css">
*{stroke-linecap:butt;stroke-linejoin:round;stroke-miterlimit:100000;}
  </style>
 </defs>
 <g id="figure_1">
  <g id="patch_1">
   <path d="M 0 360 
L 720 360 
L 720 0 
L 0 0 
z
" style="fill:#ffffff;"/>
  </g>
  <g id="axes_1">
   <g id="patch_2">
    <path d="M 49.0725 314.64 
L 707.04 314.64 
L 707.04 12.96 
L 49.0725 12.96 
z
" style="fill:#ffffff;"/>
   </g>
   <g id="line2d_1">
    <path clip-path="url(#pb7ee62937f)" d="M 49.0725 221.945934 
L 58.085753 235.206462 
L 67.099007 175.268872 
L 76.11226 179.512241 
L 85.125514 217.172143 
L 94.138767 215.58088 
L 103.152021 23.568423 
L 112.165274 175.268872 
L 121.178527 31.52474 
L 139.205034 220.35467 
L 148.218288 27.281371 
L 157.231541 181.633926 
L 166.244795 27.811792 
L 175.258048 149.278236 
L 184.271301 241.041095 
L 193.284555 204.972457 
L 202.297808 234.676041 
L 211.311062 229.902251 
L 220.324315 60.167482 
L 229.337568 181.103505 
L 238.350822 21.446738 
L 247.364075 214.520037 
L 256.377329 246.345306 
L 265.390582 193.833612 
L 274.403836 234.676041 
L 283.417089 220.35467 
L 292.430342 303.630791 
L 301.443596 220.885091 
L 310.456849 203.381193 
L 319.470103 250.588676 
L 328.483356 179.512241 
L 337.49661 217.172143 
L 346.509863 221.415512 
L 364.53637 183.225189 
L 373.549623 228.841408 
L 382.562877 224.067618 
L 391.57613 186.407716 
L 400.589384 240.510674 
L 409.602637 235.736883 
L 418.61589 229.902251 
L 427.629144 156.173711 
L 436.642397 180.573084 
L 445.655651 166.251713 
L 454.668904 309.995845 
L 472.695411 215.58088 
L 490.721918 178.451399 
L 499.735171 243.16278 
L 508.748425 182.164347 
L 526.774932 224.067618 
L 535.788185 12.96 
L 544.801438 184.286032 
L 553.814692 66.002115 
L 562.827945 183.225189 
L 571.841199 184.816453 
L 580.854452 199.137824 
L 589.867705 203.381193 
L 598.880959 230.432672 
L 607.894212 225.12846 
L 616.907466 259.605835 
L 625.920719 50.619902 
L 634.933973 24.629265 
L 643.947226 162.538765 
L 652.960479 226.189303 
L 661.973733 163.069186 
L 670.986986 213.459195 
L 680.00024 171.025503 
L 689.013493 232.023935 
L 698.026747 172.086345 
L 707.04 235.206462 
" style="fill:none;stroke:#ff0000;stroke-linecap:square;stroke-width:2.0;"/>
    <defs>
     <path d="M 0 3 
C 0.795609 3 1.55874 2.683901 2.12132 2.12132 
C 2.683901 1.55874 3 0.795609 3 0 
C 3 -0.795609 2.683901 -1.55874 2.12132 -2.12132 
C 1.55874 -2.683901 0.795609 -3 0 -3 
C -0.795609 -3 -1.55874 -2.683901 -2.12132 -2.12132 
C -2.683901 -1.55874 -3 -0.795609 -3 0 
C -3 0.795609 -2.683901 1.55874 -2.12132 2.12132 
C -1.55874 2.683901 -0.795609 3 0 3 
z
" id="m8f85582ad0" style="stroke:#000000;stroke-width:0.5;"/>
    </defs>
    <g clip-path="url(#pb7ee62937f)">
     <use style="fill:#ff0000;stroke:#000000;stroke-width:0.5;" x="49.0725" xlink:href="#m8f85582ad0" y="221.945933501"/>
     <use style="fill:#ff0000;stroke:#000000;stroke-width:0.5;" x="58.0857534247" xlink:href="#m8f85582ad0" y="235.206462277"/>
     <use style="fill:#ff0000;stroke:#000000;stroke-width:0.5;" x="67.0990068493" xlink:href="#m8f85582ad0" y="175.268872212"/>
     <use style="fill:#ff0000;stroke:#000000;stroke-width:0.5;" x="76.112260274" xlink:href="#m8f85582ad0" y="179.51224142"/>
     <use style="fill:#ff0000;stroke:#000000;stroke-width:0.5;" x="85.1255136986" xlink:href="#m8f85582ad0" y="217.172143142"/>
     <use style="fill:#ff0000;stroke:#000000;stroke-width:0.5;" x="94.1387671233" xlink:href="#m8f85582ad0" y="215.580879689"/>
     <use style="fill:#ff0000;stroke:#000000;stroke-width:0.5;" x="103.152020548" xlink:href="#m8f85582ad0" y="23.5684230204"/>
     <use style="fill:#ff0000;stroke:#000000;stroke-width:0.5;" x="112.165273973" xlink:href="#m8f85582ad0" y="175.268872212"/>
     <use style="fill:#ff0000;stroke:#000000;stroke-width:0.5;" x="121.178527397" xlink:href="#m8f85582ad0" y="31.5247402856"/>
     <use style="fill:#ff0000;stroke:#000000;stroke-width:0.5;" x="139.205034247" xlink:href="#m8f85582ad0" y="220.354670048"/>
     <use style="fill:#ff0000;stroke:#000000;stroke-width:0.5;" x="148.218287671" xlink:href="#m8f85582ad0" y="27.2813710775"/>
     <use style="fill:#ff0000;stroke:#000000;stroke-width:0.5;" x="157.231541096" xlink:href="#m8f85582ad0" y="181.633926024"/>
     <use style="fill:#ff0000;stroke:#000000;stroke-width:0.5;" x="166.244794521" xlink:href="#m8f85582ad0" y="27.8117922285"/>
     <use style="fill:#ff0000;stroke:#000000;stroke-width:0.5;" x="175.258047945" xlink:href="#m8f85582ad0" y="149.278235812"/>
     <use style="fill:#ff0000;stroke:#000000;stroke-width:0.5;" x="184.27130137" xlink:href="#m8f85582ad0" y="241.041094938"/>
     <use style="fill:#ff0000;stroke:#000000;stroke-width:0.5;" x="193.284554795" xlink:href="#m8f85582ad0" y="204.972456669"/>
     <use style="fill:#ff0000;stroke:#000000;stroke-width:0.5;" x="202.297808219" xlink:href="#m8f85582ad0" y="234.676041126"/>
     <use style="fill:#ff0000;stroke:#000000;stroke-width:0.5;" x="211.311061644" xlink:href="#m8f85582ad0" y="229.902250766"/>
     <use style="fill:#ff0000;stroke:#000000;stroke-width:0.5;" x="220.324315068" xlink:href="#m8f85582ad0" y="60.1674824406"/>
     <use style="fill:#ff0000;stroke:#000000;stroke-width:0.5;" x="229.337568493" xlink:href="#m8f85582ad0" y="181.103504873"/>
     <use style="fill:#ff0000;stroke:#000000;stroke-width:0.5;" x="238.350821918" xlink:href="#m8f85582ad0" y="21.4467384163"/>
     <use style="fill:#ff0000;stroke:#000000;stroke-width:0.5;" x="247.364075342" xlink:href="#m8f85582ad0" y="214.520037387"/>
     <use style="fill:#ff0000;stroke:#000000;stroke-width:0.5;" x="256.377328767" xlink:href="#m8f85582ad0" y="246.345306448"/>
     <use style="fill:#ff0000;stroke:#000000;stroke-width:0.5;" x="265.390582192" xlink:href="#m8f85582ad0" y="193.833612497"/>
     <use style="fill:#ff0000;stroke:#000000;stroke-width:0.5;" x="274.403835616" xlink:href="#m8f85582ad0" y="234.676041126"/>
     <use style="fill:#ff0000;stroke:#000000;stroke-width:0.5;" x="283.417089041" xlink:href="#m8f85582ad0" y="220.354670048"/>
     <use style="fill:#ff0000;stroke:#000000;stroke-width:0.5;" x="292.430342466" xlink:href="#m8f85582ad0" y="303.630790758"/>
     <use style="fill:#ff0000;stroke:#000000;stroke-width:0.5;" x="301.44359589" xlink:href="#m8f85582ad0" y="220.885091199"/>
     <use style="fill:#ff0000;stroke:#000000;stroke-width:0.5;" x="310.456849315" xlink:href="#m8f85582ad0" y="203.381193216"/>
     <use style="fill:#ff0000;stroke:#000000;stroke-width:0.5;" x="319.47010274" xlink:href="#m8f85582ad0" y="250.588675656"/>
     <use style="fill:#ff0000;stroke:#000000;stroke-width:0.5;" x="328.483356164" xlink:href="#m8f85582ad0" y="179.51224142"/>
     <use style="fill:#ff0000;stroke:#000000;stroke-width:0.5;" x="337.496609589" xlink:href="#m8f85582ad0" y="217.172143142"/>
     <use style="fill:#ff0000;stroke:#000000;stroke-width:0.5;" x="346.509863014" xlink:href="#m8f85582ad0" y="221.41551235"/>
     <use style="fill:#ff0000;stroke:#000000;stroke-width:0.5;" x="364.536369863" xlink:href="#m8f85582ad0" y="183.225189477"/>
     <use style="fill:#ff0000;stroke:#000000;stroke-width:0.5;" x="373.549623288" xlink:href="#m8f85582ad0" y="228.841408464"/>
     <use style="fill:#ff0000;stroke:#000000;stroke-width:0.5;" x="382.562876712" xlink:href="#m8f85582ad0" y="224.067618105"/>
     <use style="fill:#ff0000;stroke:#000000;stroke-width:0.5;" x="391.576130137" xlink:href="#m8f85582ad0" y="186.407716383"/>
     <use style="fill:#ff0000;stroke:#000000;stroke-width:0.5;" x="400.589383562" xlink:href="#m8f85582ad0" y="240.510673787"/>
     <use style="fill:#ff0000;stroke:#000000;stroke-width:0.5;" x="409.602636986" xlink:href="#m8f85582ad0" y="235.736883428"/>
     <use style="fill:#ff0000;stroke:#000000;stroke-width:0.5;" x="418.615890411" xlink:href="#m8f85582ad0" y="229.902250766"/>
     <use style="fill:#ff0000;stroke:#000000;stroke-width:0.5;" x="427.629143836" xlink:href="#m8f85582ad0" y="156.173710775"/>
     <use style="fill:#ff0000;stroke:#000000;stroke-width:0.5;" x="436.64239726" xlink:href="#m8f85582ad0" y="180.573083722"/>
     <use style="fill:#ff0000;stroke:#000000;stroke-width:0.5;" x="445.655650685" xlink:href="#m8f85582ad0" y="166.251712644"/>
     <use style="fill:#ff0000;stroke:#000000;stroke-width:0.5;" x="454.66890411" xlink:href="#m8f85582ad0" y="309.99584457"/>
     <use style="fill:#ff0000;stroke:#000000;stroke-width:0.5;" x="472.695410959" xlink:href="#m8f85582ad0" y="215.580879689"/>
     <use style="fill:#ff0000;stroke:#000000;stroke-width:0.5;" x="490.721917808" xlink:href="#m8f85582ad0" y="178.451399118"/>
     <use style="fill:#ff0000;stroke:#000000;stroke-width:0.5;" x="499.735171233" xlink:href="#m8f85582ad0" y="243.162779542"/>
     <use style="fill:#ff0000;stroke:#000000;stroke-width:0.5;" x="508.748424658" xlink:href="#m8f85582ad0" y="182.164347175"/>
     <use style="fill:#ff0000;stroke:#000000;stroke-width:0.5;" x="526.774931507" xlink:href="#m8f85582ad0" y="224.067618105"/>
     <use style="fill:#ff0000;stroke:#000000;stroke-width:0.5;" x="535.788184932" xlink:href="#m8f85582ad0" y="12.96"/>
     <use style="fill:#ff0000;stroke:#000000;stroke-width:0.5;" x="544.801438356" xlink:href="#m8f85582ad0" y="184.286031779"/>
     <use style="fill:#ff0000;stroke:#000000;stroke-width:0.5;" x="553.814691781" xlink:href="#m8f85582ad0" y="66.0021151018"/>
     <use style="fill:#ff0000;stroke:#000000;stroke-width:0.5;" x="562.827945205" xlink:href="#m8f85582ad0" y="183.225189477"/>
     <use style="fill:#ff0000;stroke:#000000;stroke-width:0.5;" x="571.84119863" xlink:href="#m8f85582ad0" y="184.81645293"/>
     <use style="fill:#ff0000;stroke:#000000;stroke-width:0.5;" x="580.854452055" xlink:href="#m8f85582ad0" y="199.137824007"/>
     <use style="fill:#ff0000;stroke:#000000;stroke-width:0.5;" x="589.867705479" xlink:href="#m8f85582ad0" y="203.381193216"/>
     <use style="fill:#ff0000;stroke:#000000;stroke-width:0.5;" x="598.880958904" xlink:href="#m8f85582ad0" y="230.432671917"/>
     <use style="fill:#ff0000;stroke:#000000;stroke-width:0.5;" x="607.894212329" xlink:href="#m8f85582ad0" y="225.128460407"/>
     <use style="fill:#ff0000;stroke:#000000;stroke-width:0.5;" x="616.907465753" xlink:href="#m8f85582ad0" y="259.605835223"/>
     <use style="fill:#ff0000;stroke:#000000;stroke-width:0.5;" x="625.920719178" xlink:href="#m8f85582ad0" y="50.6199017223"/>
     <use style="fill:#ff0000;stroke:#000000;stroke-width:0.5;" x="634.933972603" xlink:href="#m8f85582ad0" y="24.6292653224"/>
     <use style="fill:#ff0000;stroke:#000000;stroke-width:0.5;" x="643.947226027" xlink:href="#m8f85582ad0" y="162.538764587"/>
     <use style="fill:#ff0000;stroke:#000000;stroke-width:0.5;" x="652.960479452" xlink:href="#m8f85582ad0" y="226.189302709"/>
     <use style="fill:#ff0000;stroke:#000000;stroke-width:0.5;" x="661.973732877" xlink:href="#m8f85582ad0" y="163.069185738"/>
     <use style="fill:#ff0000;stroke:#000000;stroke-width:0.5;" x="670.986986301" xlink:href="#m8f85582ad0" y="213.459195085"/>
     <use style="fill:#ff0000;stroke:#000000;stroke-width:0.5;" x="680.000239726" xlink:href="#m8f85582ad0" y="171.025503003"/>
     <use style="fill:#ff0000;stroke:#000000;stroke-width:0.5;" x="689.013493151" xlink:href="#m8f85582ad0" y="232.02393537"/>
     <use style="fill:#ff0000;stroke:#000000;stroke-width:0.5;" x="698.026746575" xlink:href="#m8f85582ad0" y="172.086345305"/>
     <use style="fill:#ff0000;stroke:#000000;stroke-width:0.5;" x="707.04" xlink:href="#m8f85582ad0" y="235.206462277"/>
    </g>
   </g>
   <g id="line2d_2">
    <path clip-path="url(#pb7ee62937f)" d="M 49.0725 221.885519 
L 58.085753 234.23123 
L 67.099007 175.253278 
L 76.11226 172.484214 
L 85.125514 217.767806 
L 94.138767 216.521422 
L 103.152021 21.498083 
L 112.165274 178.547777 
L 121.178527 32.101785 
L 139.205034 219.223759 
L 148.218288 22.17071 
L 157.231541 186.100284 
L 166.244795 26.929596 
L 175.258048 154.904731 
L 184.271301 235.974989 
L 193.284555 205.507652 
L 202.297808 227.28563 
L 211.311062 231.628825 
L 220.324315 62.560106 
L 229.337568 179.60061 
L 238.350822 19.795431 
L 247.364075 202.140061 
L 256.377329 242.808776 
L 265.390582 193.007853 
L 274.403836 231.825982 
L 283.417089 229.990248 
L 292.430342 301.661867 
L 301.443596 228.986585 
L 310.456849 203.350588 
L 319.470103 247.050342 
L 328.483356 180.850865 
L 337.49661 227.246485 
L 346.509863 234.895423 
L 364.53637 199.332276 
L 373.549623 229.102057 
L 382.562877 232.501951 
L 391.57613 183.593832 
L 400.589384 241.793285 
L 409.602637 233.842803 
L 418.61589 220.575431 
L 427.629144 164.312387 
L 436.642397 181.107642 
L 445.655651 172.03569 
L 454.668904 314.64 
L 472.695411 216.311164 
L 490.721918 172.59661 
L 499.735171 235.081601 
L 508.748425 180.889215 
L 526.774932 224.90335 
L 535.788185 20.422601 
L 544.801438 178.789649 
L 553.814692 67.952527 
L 562.827945 184.588955 
L 571.841199 195.151444 
L 580.854452 202.5252 
L 589.867705 196.962143 
L 598.880959 233.631642 
L 607.894212 226.561552 
L 616.907466 252.672541 
L 625.920719 57.609049 
L 634.933973 26.2828 
L 643.947226 160.448322 
L 652.960479 231.961134 
L 661.973733 166.580786 
L 670.986986 215.378153 
L 680.00024 168.513375 
L 689.013493 230.436703 
L 698.026747 165.327931 
L 707.04 232.943314 
" style="fill:none;stroke:#0000ff;stroke-linecap:square;stroke-width:2.0;"/>
    <defs>
     <path d="M 0 3 
C 0.795609 3 1.55874 2.683901 2.12132 2.12132 
C 2.683901 1.55874 3 0.795609 3 0 
C 3 -0.795609 2.683901 -1.55874 2.12132 -2.12132 
C 1.55874 -2.683901 0.795609 -3 0 -3 
C -0.795609 -3 -1.55874 -2.683901 -2.12132 -2.12132 
C -2.683901 -1.55874 -3 -0.795609 -3 0 
C -3 0.795609 -2.683901 1.55874 -2.12132 2.12132 
C -1.55874 2.683901 -0.795609 3 0 3 
z
" id="m3f33122333" style="stroke:#000000;stroke-width:0.5;"/>
    </defs>
    <g clip-path="url(#pb7ee62937f)">
     <use style="fill:#0000ff;stroke:#000000;stroke-width:0.5;" x="49.0725" xlink:href="#m3f33122333" y="221.885518532"/>
     <use style="fill:#0000ff;stroke:#000000;stroke-width:0.5;" x="58.0857534247" xlink:href="#m3f33122333" y="234.231229948"/>
     <use style="fill:#0000ff;stroke:#000000;stroke-width:0.5;" x="67.0990068493" xlink:href="#m3f33122333" y="175.25327783"/>
     <use style="fill:#0000ff;stroke:#000000;stroke-width:0.5;" x="76.112260274" xlink:href="#m3f33122333" y="172.484214211"/>
     <use style="fill:#0000ff;stroke:#000000;stroke-width:0.5;" x="85.1255136986" xlink:href="#m3f33122333" y="217.767806095"/>
     <use style="fill:#0000ff;stroke:#000000;stroke-width:0.5;" x="94.1387671233" xlink:href="#m3f33122333" y="216.521422474"/>
     <use style="fill:#0000ff;stroke:#000000;stroke-width:0.5;" x="103.152020548" xlink:href="#m3f33122333" y="21.4980831837"/>
     <use style="fill:#0000ff;stroke:#000000;stroke-width:0.5;" x="112.165273973" xlink:href="#m3f33122333" y="178.547776641"/>
     <use style="fill:#0000ff;stroke:#000000;stroke-width:0.5;" x="121.178527397" xlink:href="#m3f33122333" y="32.1017854558"/>
     <use style="fill:#0000ff;stroke:#000000;stroke-width:0.5;" x="139.205034247" xlink:href="#m3f33122333" y="219.223759112"/>
     <use style="fill:#0000ff;stroke:#000000;stroke-width:0.5;" x="148.218287671" xlink:href="#m3f33122333" y="22.1707102453"/>
     <use style="fill:#0000ff;stroke:#000000;stroke-width:0.5;" x="157.231541096" xlink:href="#m3f33122333" y="186.100284284"/>
     <use style="fill:#0000ff;stroke:#000000;stroke-width:0.5;" x="166.244794521" xlink:href="#m3f33122333" y="26.9295957701"/>
     <use style="fill:#0000ff;stroke:#000000;stroke-width:0.5;" x="175.258047945" xlink:href="#m3f33122333" y="154.904731213"/>
     <use style="fill:#0000ff;stroke:#000000;stroke-width:0.5;" x="184.27130137" xlink:href="#m3f33122333" y="235.974989482"/>
     <use style="fill:#0000ff;stroke:#000000;stroke-width:0.5;" x="193.284554795" xlink:href="#m3f33122333" y="205.50765161"/>
     <use style="fill:#0000ff;stroke:#000000;stroke-width:0.5;" x="202.297808219" xlink:href="#m3f33122333" y="227.285630186"/>
     <use style="fill:#0000ff;stroke:#000000;stroke-width:0.5;" x="211.311061644" xlink:href="#m3f33122333" y="231.628824655"/>
     <use style="fill:#0000ff;stroke:#000000;stroke-width:0.5;" x="220.324315068" xlink:href="#m3f33122333" y="62.5601061686"/>
     <use style="fill:#0000ff;stroke:#000000;stroke-width:0.5;" x="229.337568493" xlink:href="#m3f33122333" y="179.600609583"/>
     <use style="fill:#0000ff;stroke:#000000;stroke-width:0.5;" x="238.350821918" xlink:href="#m3f33122333" y="19.7954312889"/>
     <use style="fill:#0000ff;stroke:#000000;stroke-width:0.5;" x="247.364075342" xlink:href="#m3f33122333" y="202.140060764"/>
     <use style="fill:#0000ff;stroke:#000000;stroke-width:0.5;" x="256.377328767" xlink:href="#m3f33122333" y="242.808776466"/>
     <use style="fill:#0000ff;stroke:#000000;stroke-width:0.5;" x="265.390582192" xlink:href="#m3f33122333" y="193.007852849"/>
     <use style="fill:#0000ff;stroke:#000000;stroke-width:0.5;" x="274.403835616" xlink:href="#m3f33122333" y="231.825982197"/>
     <use style="fill:#0000ff;stroke:#000000;stroke-width:0.5;" x="283.417089041" xlink:href="#m3f33122333" y="229.990247635"/>
     <use style="fill:#0000ff;stroke:#000000;stroke-width:0.5;" x="292.430342466" xlink:href="#m3f33122333" y="301.661867445"/>
     <use style="fill:#0000ff;stroke:#000000;stroke-width:0.5;" x="301.44359589" xlink:href="#m3f33122333" y="228.986584733"/>
     <use style="fill:#0000ff;stroke:#000000;stroke-width:0.5;" x="310.456849315" xlink:href="#m3f33122333" y="203.350587915"/>
     <use style="fill:#0000ff;stroke:#000000;stroke-width:0.5;" x="319.47010274" xlink:href="#m3f33122333" y="247.050342242"/>
     <use style="fill:#0000ff;stroke:#000000;stroke-width:0.5;" x="328.483356164" xlink:href="#m3f33122333" y="180.850865279"/>
     <use style="fill:#0000ff;stroke:#000000;stroke-width:0.5;" x="337.496609589" xlink:href="#m3f33122333" y="227.246485105"/>
     <use style="fill:#0000ff;stroke:#000000;stroke-width:0.5;" x="346.509863014" xlink:href="#m3f33122333" y="234.895423314"/>
     <use style="fill:#0000ff;stroke:#000000;stroke-width:0.5;" x="364.536369863" xlink:href="#m3f33122333" y="199.332276401"/>
     <use style="fill:#0000ff;stroke:#000000;stroke-width:0.5;" x="373.549623288" xlink:href="#m3f33122333" y="229.102057418"/>
     <use style="fill:#0000ff;stroke:#000000;stroke-width:0.5;" x="382.562876712" xlink:href="#m3f33122333" y="232.501950912"/>
     <use style="fill:#0000ff;stroke:#000000;stroke-width:0.5;" x="391.576130137" xlink:href="#m3f33122333" y="183.593832177"/>
     <use style="fill:#0000ff;stroke:#000000;stroke-width:0.5;" x="400.589383562" xlink:href="#m3f33122333" y="241.793285172"/>
     <use style="fill:#0000ff;stroke:#000000;stroke-width:0.5;" x="409.602636986" xlink:href="#m3f33122333" y="233.842802539"/>
     <use style="fill:#0000ff;stroke:#000000;stroke-width:0.5;" x="418.615890411" xlink:href="#m3f33122333" y="220.575431331"/>
     <use style="fill:#0000ff;stroke:#000000;stroke-width:0.5;" x="427.629143836" xlink:href="#m3f33122333" y="164.312386832"/>
     <use style="fill:#0000ff;stroke:#000000;stroke-width:0.5;" x="436.64239726" xlink:href="#m3f33122333" y="181.107642158"/>
     <use style="fill:#0000ff;stroke:#000000;stroke-width:0.5;" x="445.655650685" xlink:href="#m3f33122333" y="172.035690086"/>
     <use style="fill:#0000ff;stroke:#000000;stroke-width:0.5;" x="454.66890411" xlink:href="#m3f33122333" y="314.64"/>
     <use style="fill:#0000ff;stroke:#000000;stroke-width:0.5;" x="472.695410959" xlink:href="#m3f33122333" y="216.31116353"/>
     <use style="fill:#0000ff;stroke:#000000;stroke-width:0.5;" x="490.721917808" xlink:href="#m3f33122333" y="172.596610453"/>
     <use style="fill:#0000ff;stroke:#000000;stroke-width:0.5;" x="499.735171233" xlink:href="#m3f33122333" y="235.081601138"/>
     <use style="fill:#0000ff;stroke:#000000;stroke-width:0.5;" x="508.748424658" xlink:href="#m3f33122333" y="180.889214728"/>
     <use style="fill:#0000ff;stroke:#000000;stroke-width:0.5;" x="526.774931507" xlink:href="#m3f33122333" y="224.903349671"/>
     <use style="fill:#0000ff;stroke:#000000;stroke-width:0.5;" x="535.788184932" xlink:href="#m3f33122333" y="20.4226012579"/>
     <use style="fill:#0000ff;stroke:#000000;stroke-width:0.5;" x="544.801438356" xlink:href="#m3f33122333" y="178.789648686"/>
     <use style="fill:#0000ff;stroke:#000000;stroke-width:0.5;" x="553.814691781" xlink:href="#m3f33122333" y="67.9525267162"/>
     <use style="fill:#0000ff;stroke:#000000;stroke-width:0.5;" x="562.827945205" xlink:href="#m3f33122333" y="184.588955298"/>
     <use style="fill:#0000ff;stroke:#000000;stroke-width:0.5;" x="571.84119863" xlink:href="#m3f33122333" y="195.151443847"/>
     <use style="fill:#0000ff;stroke:#000000;stroke-width:0.5;" x="580.854452055" xlink:href="#m3f33122333" y="202.525199562"/>
     <use style="fill:#0000ff;stroke:#000000;stroke-width:0.5;" x="589.867705479" xlink:href="#m3f33122333" y="196.96214253"/>
     <use style="fill:#0000ff;stroke:#000000;stroke-width:0.5;" x="598.880958904" xlink:href="#m3f33122333" y="233.631641879"/>
     <use style="fill:#0000ff;stroke:#000000;stroke-width:0.5;" x="607.894212329" xlink:href="#m3f33122333" y="226.561552273"/>
     <use style="fill:#0000ff;stroke:#000000;stroke-width:0.5;" x="616.907465753" xlink:href="#m3f33122333" y="252.672541232"/>
     <use style="fill:#0000ff;stroke:#000000;stroke-width:0.5;" x="625.920719178" xlink:href="#m3f33122333" y="57.6090490608"/>
     <use style="fill:#0000ff;stroke:#000000;stroke-width:0.5;" x="634.933972603" xlink:href="#m3f33122333" y="26.2828002186"/>
     <use style="fill:#0000ff;stroke:#000000;stroke-width:0.5;" x="643.947226027" xlink:href="#m3f33122333" y="160.448321789"/>
     <use style="fill:#0000ff;stroke:#000000;stroke-width:0.5;" x="652.960479452" xlink:href="#m3f33122333" y="231.961133506"/>
     <use style="fill:#0000ff;stroke:#000000;stroke-width:0.5;" x="661.973732877" xlink:href="#m3f33122333" y="166.580785926"/>
     <use style="fill:#0000ff;stroke:#000000;stroke-width:0.5;" x="670.986986301" xlink:href="#m3f33122333" y="215.378152725"/>
     <use style="fill:#0000ff;stroke:#000000;stroke-width:0.5;" x="680.000239726" xlink:href="#m3f33122333" y="168.51337539"/>
     <use style="fill:#0000ff;stroke:#000000;stroke-width:0.5;" x="689.013493151" xlink:href="#m3f33122333" y="230.436703118"/>
     <use style="fill:#0000ff;stroke:#000000;stroke-width:0.5;" x="698.026746575" xlink:href="#m3f33122333" y="165.327931168"/>
     <use style="fill:#0000ff;stroke:#000000;stroke-width:0.5;" x="707.04" xlink:href="#m3f33122333" y="232.943314352"/>
    </g>
   </g>
   <g id="patch_3">
    <path d="M 49.0725 12.96 
L 707.04 12.96 
" style="fill:none;stroke:#000000;stroke-linecap:square;stroke-linejoin:miter;"/>
   </g>
   <g id="patch_4">
    <path d="M 49.0725 314.64 
L 49.0725 12.96 
" style="fill:none;stroke:#000000;stroke-linecap:square;stroke-linejoin:miter;"/>
   </g>
   <g id="patch_5">
    <path d="M 49.0725 314.64 
L 707.04 314.64 
" style="fill:none;stroke:#000000;stroke-linecap:square;stroke-linejoin:miter;"/>
   </g>
   <g id="patch_6">
    <path d="M 707.04 314.64 
L 707.04 12.96 
" style="fill:none;stroke:#000000;stroke-linecap:square;stroke-linejoin:miter;"/>
   </g>
   <g id="matplotlib.axis_1">
    <g id="xtick_1">
     <g id="line2d_3">
      <defs>
       <path d="M 0 0 
L 0 -4 
" id="m42af54da11" style="stroke:#000000;stroke-width:0.5;"/>
      </defs>
      <g>
       <use style="stroke:#000000;stroke-width:0.5;" x="130.191780822" xlink:href="#m42af54da11" y="314.64"/>
      </g>
     </g>
     <g id="line2d_4">
      <defs>
       <path d="M 0 0 
L 0 4 
" id="ma11f158786" style="stroke:#000000;stroke-width:0.5;"/>
      </defs>
      <g>
       <use style="stroke:#000000;stroke-width:0.5;" x="130.191780822" xlink:href="#ma11f158786" y="12.96"/>
      </g>
     </g>
     <g id="text_1">
      <!-- 10 -->
      <defs>
       <path d="M 31.78125 66.40625 
Q 24.171875 66.40625 20.328125 58.90625 
Q 16.5 51.421875 16.5 36.375 
Q 16.5 21.390625 20.328125 13.890625 
Q 24.171875 6.390625 31.78125 6.390625 
Q 39.453125 6.390625 43.28125 13.890625 
Q 47.125 21.390625 47.125 36.375 
Q 47.125 51.421875 43.28125 58.90625 
Q 39.453125 66.40625 31.78125 66.40625 
M 31.78125 74.21875 
Q 44.046875 74.21875 50.515625 64.515625 
Q 56.984375 54.828125 56.984375 36.375 
Q 56.984375 17.96875 50.515625 8.265625 
Q 44.046875 -1.421875 31.78125 -1.421875 
Q 19.53125 -1.421875 13.0625 8.265625 
Q 6.59375 17.96875 6.59375 36.375 
Q 6.59375 54.828125 13.0625 64.515625 
Q 19.53125 74.21875 31.78125 74.21875 
" id="BitstreamVeraSans-Roman-30"/>
       <path d="M 12.40625 8.296875 
L 28.515625 8.296875 
L 28.515625 63.921875 
L 10.984375 60.40625 
L 10.984375 69.390625 
L 28.421875 72.90625 
L 38.28125 72.90625 
L 38.28125 8.296875 
L 54.390625 8.296875 
L 54.390625 0 
L 12.40625 0 
z
" id="BitstreamVeraSans-Roman-31"/>
      </defs>
      <g transform="translate(122.556780822 327.758125)scale(0.12 -0.12)">
       <use xlink:href="#BitstreamVeraSans-Roman-31"/>
       <use x="63.623046875" xlink:href="#BitstreamVeraSans-Roman-30"/>
      </g>
     </g>
    </g>
    <g id="xtick_2">
     <g id="line2d_5">
      <g>
       <use style="stroke:#000000;stroke-width:0.5;" x="220.324315068" xlink:href="#m42af54da11" y="314.64"/>
      </g>
     </g>
     <g id="line2d_6">
      <g>
       <use style="stroke:#000000;stroke-width:0.5;" x="220.324315068" xlink:href="#ma11f158786" y="12.96"/>
      </g>
     </g>
     <g id="text_2">
      <!-- 20 -->
      <defs>
       <path d="M 19.1875 8.296875 
L 53.609375 8.296875 
L 53.609375 0 
L 7.328125 0 
L 7.328125 8.296875 
Q 12.9375 14.109375 22.625 23.890625 
Q 32.328125 33.6875 34.8125 36.53125 
Q 39.546875 41.84375 41.421875 45.53125 
Q 43.3125 49.21875 43.3125 52.78125 
Q 43.3125 58.59375 39.234375 62.25 
Q 35.15625 65.921875 28.609375 65.921875 
Q 23.96875 65.921875 18.8125 64.3125 
Q 13.671875 62.703125 7.8125 59.421875 
L 7.8125 69.390625 
Q 13.765625 71.78125 18.9375 73 
Q 24.125 74.21875 28.421875 74.21875 
Q 39.75 74.21875 46.484375 68.546875 
Q 53.21875 62.890625 53.21875 53.421875 
Q 53.21875 48.921875 51.53125 44.890625 
Q 49.859375 40.875 45.40625 35.40625 
Q 44.1875 33.984375 37.640625 27.21875 
Q 31.109375 20.453125 19.1875 8.296875 
" id="BitstreamVeraSans-Roman-32"/>
      </defs>
      <g transform="translate(212.689315068 327.758125)scale(0.12 -0.12)">
       <use xlink:href="#BitstreamVeraSans-Roman-32"/>
       <use x="63.623046875" xlink:href="#BitstreamVeraSans-Roman-30"/>
      </g>
     </g>
    </g>
    <g id="xtick_3">
     <g id="line2d_7">
      <g>
       <use style="stroke:#000000;stroke-width:0.5;" x="310.456849315" xlink:href="#m42af54da11" y="314.64"/>
      </g>
     </g>
     <g id="line2d_8">
      <g>
       <use style="stroke:#000000;stroke-width:0.5;" x="310.456849315" xlink:href="#ma11f158786" y="12.96"/>
      </g>
     </g>
     <g id="text_3">
      <!-- 30 -->
      <defs>
       <path d="M 40.578125 39.3125 
Q 47.65625 37.796875 51.625 33 
Q 55.609375 28.21875 55.609375 21.1875 
Q 55.609375 10.40625 48.1875 4.484375 
Q 40.765625 -1.421875 27.09375 -1.421875 
Q 22.515625 -1.421875 17.65625 -0.515625 
Q 12.796875 0.390625 7.625 2.203125 
L 7.625 11.71875 
Q 11.71875 9.328125 16.59375 8.109375 
Q 21.484375 6.890625 26.8125 6.890625 
Q 36.078125 6.890625 40.9375 10.546875 
Q 45.796875 14.203125 45.796875 21.1875 
Q 45.796875 27.640625 41.28125 31.265625 
Q 36.765625 34.90625 28.71875 34.90625 
L 20.21875 34.90625 
L 20.21875 43.015625 
L 29.109375 43.015625 
Q 36.375 43.015625 40.234375 45.921875 
Q 44.09375 48.828125 44.09375 54.296875 
Q 44.09375 59.90625 40.109375 62.90625 
Q 36.140625 65.921875 28.71875 65.921875 
Q 24.65625 65.921875 20.015625 65.03125 
Q 15.375 64.15625 9.8125 62.3125 
L 9.8125 71.09375 
Q 15.4375 72.65625 20.34375 73.4375 
Q 25.25 74.21875 29.59375 74.21875 
Q 40.828125 74.21875 47.359375 69.109375 
Q 53.90625 64.015625 53.90625 55.328125 
Q 53.90625 49.265625 50.4375 45.09375 
Q 46.96875 40.921875 40.578125 39.3125 
" id="BitstreamVeraSans-Roman-33"/>
      </defs>
      <g transform="translate(302.821849315 327.758125)scale(0.12 -0.12)">
       <use xlink:href="#BitstreamVeraSans-Roman-33"/>
       <use x="63.623046875" xlink:href="#BitstreamVeraSans-Roman-30"/>
      </g>
     </g>
    </g>
    <g id="xtick_4">
     <g id="line2d_9">
      <g>
       <use style="stroke:#000000;stroke-width:0.5;" x="400.589383562" xlink:href="#m42af54da11" y="314.64"/>
      </g>
     </g>
     <g id="line2d_10">
      <g>
       <use style="stroke:#000000;stroke-width:0.5;" x="400.589383562" xlink:href="#ma11f158786" y="12.96"/>
      </g>
     </g>
     <g id="text_4">
      <!-- 40 -->
      <defs>
       <path d="M 37.796875 64.3125 
L 12.890625 25.390625 
L 37.796875 25.390625 
z
M 35.203125 72.90625 
L 47.609375 72.90625 
L 47.609375 25.390625 
L 58.015625 25.390625 
L 58.015625 17.1875 
L 47.609375 17.1875 
L 47.609375 0 
L 37.796875 0 
L 37.796875 17.1875 
L 4.890625 17.1875 
L 4.890625 26.703125 
z
" id="BitstreamVeraSans-Roman-34"/>
      </defs>
      <g transform="translate(392.954383562 327.758125)scale(0.12 -0.12)">
       <use xlink:href="#BitstreamVeraSans-Roman-34"/>
       <use x="63.623046875" xlink:href="#BitstreamVeraSans-Roman-30"/>
      </g>
     </g>
    </g>
    <g id="xtick_5">
     <g id="line2d_11">
      <g>
       <use style="stroke:#000000;stroke-width:0.5;" x="490.721917808" xlink:href="#m42af54da11" y="314.64"/>
      </g>
     </g>
     <g id="line2d_12">
      <g>
       <use style="stroke:#000000;stroke-width:0.5;" x="490.721917808" xlink:href="#ma11f158786" y="12.96"/>
      </g>
     </g>
     <g id="text_5">
      <!-- 50 -->
      <defs>
       <path d="M 10.796875 72.90625 
L 49.515625 72.90625 
L 49.515625 64.59375 
L 19.828125 64.59375 
L 19.828125 46.734375 
Q 21.96875 47.46875 24.109375 47.828125 
Q 26.265625 48.1875 28.421875 48.1875 
Q 40.625 48.1875 47.75 41.5 
Q 54.890625 34.8125 54.890625 23.390625 
Q 54.890625 11.625 47.5625 5.09375 
Q 40.234375 -1.421875 26.90625 -1.421875 
Q 22.3125 -1.421875 17.546875 -0.640625 
Q 12.796875 0.140625 7.71875 1.703125 
L 7.71875 11.625 
Q 12.109375 9.234375 16.796875 8.0625 
Q 21.484375 6.890625 26.703125 6.890625 
Q 35.15625 6.890625 40.078125 11.328125 
Q 45.015625 15.765625 45.015625 23.390625 
Q 45.015625 31 40.078125 35.4375 
Q 35.15625 39.890625 26.703125 39.890625 
Q 22.75 39.890625 18.8125 39.015625 
Q 14.890625 38.140625 10.796875 36.28125 
z
" id="BitstreamVeraSans-Roman-35"/>
      </defs>
      <g transform="translate(483.086917808 327.758125)scale(0.12 -0.12)">
       <use xlink:href="#BitstreamVeraSans-Roman-35"/>
       <use x="63.623046875" xlink:href="#BitstreamVeraSans-Roman-30"/>
      </g>
     </g>
    </g>
    <g id="xtick_6">
     <g id="line2d_13">
      <g>
       <use style="stroke:#000000;stroke-width:0.5;" x="580.854452055" xlink:href="#m42af54da11" y="314.64"/>
      </g>
     </g>
     <g id="line2d_14">
      <g>
       <use style="stroke:#000000;stroke-width:0.5;" x="580.854452055" xlink:href="#ma11f158786" y="12.96"/>
      </g>
     </g>
     <g id="text_6">
      <!-- 60 -->
      <defs>
       <path d="M 33.015625 40.375 
Q 26.375 40.375 22.484375 35.828125 
Q 18.609375 31.296875 18.609375 23.390625 
Q 18.609375 15.53125 22.484375 10.953125 
Q 26.375 6.390625 33.015625 6.390625 
Q 39.65625 6.390625 43.53125 10.953125 
Q 47.40625 15.53125 47.40625 23.390625 
Q 47.40625 31.296875 43.53125 35.828125 
Q 39.65625 40.375 33.015625 40.375 
M 52.59375 71.296875 
L 52.59375 62.3125 
Q 48.875 64.0625 45.09375 64.984375 
Q 41.3125 65.921875 37.59375 65.921875 
Q 27.828125 65.921875 22.671875 59.328125 
Q 17.53125 52.734375 16.796875 39.40625 
Q 19.671875 43.65625 24.015625 45.921875 
Q 28.375 48.1875 33.59375 48.1875 
Q 44.578125 48.1875 50.953125 41.515625 
Q 57.328125 34.859375 57.328125 23.390625 
Q 57.328125 12.15625 50.6875 5.359375 
Q 44.046875 -1.421875 33.015625 -1.421875 
Q 20.359375 -1.421875 13.671875 8.265625 
Q 6.984375 17.96875 6.984375 36.375 
Q 6.984375 53.65625 15.1875 63.9375 
Q 23.390625 74.21875 37.203125 74.21875 
Q 40.921875 74.21875 44.703125 73.484375 
Q 48.484375 72.75 52.59375 71.296875 
" id="BitstreamVeraSans-Roman-36"/>
      </defs>
      <g transform="translate(573.219452055 327.758125)scale(0.12 -0.12)">
       <use xlink:href="#BitstreamVeraSans-Roman-36"/>
       <use x="63.623046875" xlink:href="#BitstreamVeraSans-Roman-30"/>
      </g>
     </g>
    </g>
    <g id="xtick_7">
     <g id="line2d_15">
      <g>
       <use style="stroke:#000000;stroke-width:0.5;" x="670.986986301" xlink:href="#m42af54da11" y="314.64"/>
      </g>
     </g>
     <g id="line2d_16">
      <g>
       <use style="stroke:#000000;stroke-width:0.5;" x="670.986986301" xlink:href="#ma11f158786" y="12.96"/>
      </g>
     </g>
     <g id="text_7">
      <!-- 70 -->
      <defs>
       <path d="M 8.203125 72.90625 
L 55.078125 72.90625 
L 55.078125 68.703125 
L 28.609375 0 
L 18.3125 0 
L 43.21875 64.59375 
L 8.203125 64.59375 
z
" id="BitstreamVeraSans-Roman-37"/>
      </defs>
      <g transform="translate(663.351986301 327.758125)scale(0.12 -0.12)">
       <use xlink:href="#BitstreamVeraSans-Roman-37"/>
       <use x="63.623046875" xlink:href="#BitstreamVeraSans-Roman-30"/>
      </g>
     </g>
    </g>
    <g id="text_8">
     <!-- residue number -->
     <defs>
      <path d="M 48.6875 27.296875 
Q 48.6875 37.203125 44.609375 42.84375 
Q 40.53125 48.484375 33.40625 48.484375 
Q 26.265625 48.484375 22.1875 42.84375 
Q 18.109375 37.203125 18.109375 27.296875 
Q 18.109375 17.390625 22.1875 11.75 
Q 26.265625 6.109375 33.40625 6.109375 
Q 40.53125 6.109375 44.609375 11.75 
Q 48.6875 17.390625 48.6875 27.296875 
M 18.109375 46.390625 
Q 20.953125 51.265625 25.265625 53.625 
Q 29.59375 56 35.59375 56 
Q 45.5625 56 51.78125 48.09375 
Q 58.015625 40.1875 58.015625 27.296875 
Q 58.015625 14.40625 51.78125 6.484375 
Q 45.5625 -1.421875 35.59375 -1.421875 
Q 29.59375 -1.421875 25.265625 0.953125 
Q 20.953125 3.328125 18.109375 8.203125 
L 18.109375 0 
L 9.078125 0 
L 9.078125 75.984375 
L 18.109375 75.984375 
z
" id="BitstreamVeraSans-Roman-62"/>
      <path d="M 44.28125 53.078125 
L 44.28125 44.578125 
Q 40.484375 46.53125 36.375 47.5 
Q 32.28125 48.484375 27.875 48.484375 
Q 21.1875 48.484375 17.84375 46.4375 
Q 14.5 44.390625 14.5 40.28125 
Q 14.5 37.15625 16.890625 35.375 
Q 19.28125 33.59375 26.515625 31.984375 
L 29.59375 31.296875 
Q 39.15625 29.25 43.1875 25.515625 
Q 47.21875 21.78125 47.21875 15.09375 
Q 47.21875 7.46875 41.1875 3.015625 
Q 35.15625 -1.421875 24.609375 -1.421875 
Q 20.21875 -1.421875 15.453125 -0.5625 
Q 10.6875 0.296875 5.421875 2 
L 5.421875 11.28125 
Q 10.40625 8.6875 15.234375 7.390625 
Q 20.0625 6.109375 24.8125 6.109375 
Q 31.15625 6.109375 34.5625 8.28125 
Q 37.984375 10.453125 37.984375 14.40625 
Q 37.984375 18.0625 35.515625 20.015625 
Q 33.0625 21.96875 24.703125 23.78125 
L 21.578125 24.515625 
Q 13.234375 26.265625 9.515625 29.90625 
Q 5.8125 33.546875 5.8125 39.890625 
Q 5.8125 47.609375 11.28125 51.796875 
Q 16.75 56 26.8125 56 
Q 31.78125 56 36.171875 55.265625 
Q 40.578125 54.546875 44.28125 53.078125 
" id="BitstreamVeraSans-Roman-73"/>
      <path d="M 41.109375 46.296875 
Q 39.59375 47.171875 37.8125 47.578125 
Q 36.03125 48 33.890625 48 
Q 26.265625 48 22.1875 43.046875 
Q 18.109375 38.09375 18.109375 28.8125 
L 18.109375 0 
L 9.078125 0 
L 9.078125 54.6875 
L 18.109375 54.6875 
L 18.109375 46.1875 
Q 20.953125 51.171875 25.484375 53.578125 
Q 30.03125 56 36.53125 56 
Q 37.453125 56 38.578125 55.875 
Q 39.703125 55.765625 41.0625 55.515625 
z
" id="BitstreamVeraSans-Roman-72"/>
      <path d="M 9.421875 54.6875 
L 18.40625 54.6875 
L 18.40625 0 
L 9.421875 0 
z
M 9.421875 75.984375 
L 18.40625 75.984375 
L 18.40625 64.59375 
L 9.421875 64.59375 
z
" id="BitstreamVeraSans-Roman-69"/>
      <path d="M 54.890625 33.015625 
L 54.890625 0 
L 45.90625 0 
L 45.90625 32.71875 
Q 45.90625 40.484375 42.875 44.328125 
Q 39.84375 48.1875 33.796875 48.1875 
Q 26.515625 48.1875 22.3125 43.546875 
Q 18.109375 38.921875 18.109375 30.90625 
L 18.109375 0 
L 9.078125 0 
L 9.078125 54.6875 
L 18.109375 54.6875 
L 18.109375 46.1875 
Q 21.34375 51.125 25.703125 53.5625 
Q 30.078125 56 35.796875 56 
Q 45.21875 56 50.046875 50.171875 
Q 54.890625 44.34375 54.890625 33.015625 
" id="BitstreamVeraSans-Roman-6e"/>
      <path d="M 8.5 21.578125 
L 8.5 54.6875 
L 17.484375 54.6875 
L 17.484375 21.921875 
Q 17.484375 14.15625 20.5 10.265625 
Q 23.53125 6.390625 29.59375 6.390625 
Q 36.859375 6.390625 41.078125 11.03125 
Q 45.3125 15.671875 45.3125 23.6875 
L 45.3125 54.6875 
L 54.296875 54.6875 
L 54.296875 0 
L 45.3125 0 
L 45.3125 8.40625 
Q 42.046875 3.421875 37.71875 1 
Q 33.40625 -1.421875 27.6875 -1.421875 
Q 18.265625 -1.421875 13.375 4.4375 
Q 8.5 10.296875 8.5 21.578125 
" id="BitstreamVeraSans-Roman-75"/>
      <path d="M 52 44.1875 
Q 55.375 50.25 60.0625 53.125 
Q 64.75 56 71.09375 56 
Q 79.640625 56 84.28125 50.015625 
Q 88.921875 44.046875 88.921875 33.015625 
L 88.921875 0 
L 79.890625 0 
L 79.890625 32.71875 
Q 79.890625 40.578125 77.09375 44.375 
Q 74.3125 48.1875 68.609375 48.1875 
Q 61.625 48.1875 57.5625 43.546875 
Q 53.515625 38.921875 53.515625 30.90625 
L 53.515625 0 
L 44.484375 0 
L 44.484375 32.71875 
Q 44.484375 40.625 41.703125 44.40625 
Q 38.921875 48.1875 33.109375 48.1875 
Q 26.21875 48.1875 22.15625 43.53125 
Q 18.109375 38.875 18.109375 30.90625 
L 18.109375 0 
L 9.078125 0 
L 9.078125 54.6875 
L 18.109375 54.6875 
L 18.109375 46.1875 
Q 21.1875 51.21875 25.484375 53.609375 
Q 29.78125 56 35.6875 56 
Q 41.65625 56 45.828125 52.96875 
Q 50 49.953125 52 44.1875 
" id="BitstreamVeraSans-Roman-6d"/>
      <path d="M 45.40625 46.390625 
L 45.40625 75.984375 
L 54.390625 75.984375 
L 54.390625 0 
L 45.40625 0 
L 45.40625 8.203125 
Q 42.578125 3.328125 38.25 0.953125 
Q 33.9375 -1.421875 27.875 -1.421875 
Q 17.96875 -1.421875 11.734375 6.484375 
Q 5.515625 14.40625 5.515625 27.296875 
Q 5.515625 40.1875 11.734375 48.09375 
Q 17.96875 56 27.875 56 
Q 33.9375 56 38.25 53.625 
Q 42.578125 51.265625 45.40625 46.390625 
M 14.796875 27.296875 
Q 14.796875 17.390625 18.875 11.75 
Q 22.953125 6.109375 30.078125 6.109375 
Q 37.203125 6.109375 41.296875 11.75 
Q 45.40625 17.390625 45.40625 27.296875 
Q 45.40625 37.203125 41.296875 42.84375 
Q 37.203125 48.484375 30.078125 48.484375 
Q 22.953125 48.484375 18.875 42.84375 
Q 14.796875 37.203125 14.796875 27.296875 
" id="BitstreamVeraSans-Roman-64"/>
      <path id="BitstreamVeraSans-Roman-20"/>
      <path d="M 56.203125 29.59375 
L 56.203125 25.203125 
L 14.890625 25.203125 
Q 15.484375 15.921875 20.484375 11.0625 
Q 25.484375 6.203125 34.421875 6.203125 
Q 39.59375 6.203125 44.453125 7.46875 
Q 49.3125 8.734375 54.109375 11.28125 
L 54.109375 2.78125 
Q 49.265625 0.734375 44.1875 -0.34375 
Q 39.109375 -1.421875 33.890625 -1.421875 
Q 20.796875 -1.421875 13.15625 6.1875 
Q 5.515625 13.8125 5.515625 26.8125 
Q 5.515625 40.234375 12.765625 48.109375 
Q 20.015625 56 32.328125 56 
Q 43.359375 56 49.78125 48.890625 
Q 56.203125 41.796875 56.203125 29.59375 
M 47.21875 32.234375 
Q 47.125 39.59375 43.09375 43.984375 
Q 39.0625 48.390625 32.421875 48.390625 
Q 24.90625 48.390625 20.390625 44.140625 
Q 15.875 39.890625 15.1875 32.171875 
z
" id="BitstreamVeraSans-Roman-65"/>
     </defs>
     <g transform="translate(330.48 344.371875)scale(0.12 -0.12)">
      <use xlink:href="#BitstreamVeraSans-Roman-72"/>
      <use x="41.08203125" xlink:href="#BitstreamVeraSans-Roman-65"/>
      <use x="102.60546875" xlink:href="#BitstreamVeraSans-Roman-73"/>
      <use x="154.705078125" xlink:href="#BitstreamVeraSans-Roman-69"/>
      <use x="182.48828125" xlink:href="#BitstreamVeraSans-Roman-64"/>
      <use x="245.96484375" xlink:href="#BitstreamVeraSans-Roman-75"/>
      <use x="309.34375" xlink:href="#BitstreamVeraSans-Roman-65"/>
      <use x="370.8671875" xlink:href="#BitstreamVeraSans-Roman-20"/>
      <use x="402.654296875" xlink:href="#BitstreamVeraSans-Roman-6e"/>
      <use x="466.033203125" xlink:href="#BitstreamVeraSans-Roman-75"/>
      <use x="529.412109375" xlink:href="#BitstreamVeraSans-Roman-6d"/>
      <use x="626.82421875" xlink:href="#BitstreamVeraSans-Roman-62"/>
      <use x="690.30078125" xlink:href="#BitstreamVeraSans-Roman-65"/>
      <use x="751.82421875" xlink:href="#BitstreamVeraSans-Roman-72"/>
     </g>
    </g>
   </g>
   <g id="matplotlib.axis_2">
    <g id="ytick_1">
     <g id="line2d_17">
      <path clip-path="url(#pb7ee62937f)" d="M 49.0725 293.022368 
L 707.04 293.022368 
" style="fill:none;stroke:#000000;stroke-dasharray:1.000000,3.000000;stroke-dashoffset:0.0;stroke-width:0.5;"/>
     </g>
     <g id="line2d_18">
      <defs>
       <path d="M 0 0 
L 4 0 
" id="mc278e5c86d" style="stroke:#000000;stroke-width:0.5;"/>
      </defs>
      <g>
       <use style="stroke:#000000;stroke-width:0.5;" x="49.0725" xlink:href="#mc278e5c86d" y="293.022367738"/>
      </g>
     </g>
     <g id="line2d_19">
      <defs>
       <path d="M 0 0 
L -4 0 
" id="m986cca675c" style="stroke:#000000;stroke-width:0.5;"/>
      </defs>
      <g>
       <use style="stroke:#000000;stroke-width:0.5;" x="707.04" xlink:href="#m986cca675c" y="293.022367738"/>
      </g>
     </g>
     <g id="text_9">
      <!-- 20 -->
      <g transform="translate(29.8025 296.333617738)scale(0.12 -0.12)">
       <use xlink:href="#BitstreamVeraSans-Roman-32"/>
       <use x="63.623046875" xlink:href="#BitstreamVeraSans-Roman-30"/>
      </g>
     </g>
    </g>
    <g id="ytick_2">
     <g id="line2d_20">
      <path clip-path="url(#pb7ee62937f)" d="M 49.0725 239.980253 
L 707.04 239.980253 
" style="fill:none;stroke:#000000;stroke-dasharray:1.000000,3.000000;stroke-dashoffset:0.0;stroke-width:0.5;"/>
     </g>
     <g id="line2d_21">
      <g>
       <use style="stroke:#000000;stroke-width:0.5;" x="49.0725" xlink:href="#mc278e5c86d" y="239.980252636"/>
      </g>
     </g>
     <g id="line2d_22">
      <g>
       <use style="stroke:#000000;stroke-width:0.5;" x="707.04" xlink:href="#m986cca675c" y="239.980252636"/>
      </g>
     </g>
     <g id="text_10">
      <!-- 30 -->
      <g transform="translate(29.8025 243.291502636)scale(0.12 -0.12)">
       <use xlink:href="#BitstreamVeraSans-Roman-33"/>
       <use x="63.623046875" xlink:href="#BitstreamVeraSans-Roman-30"/>
      </g>
     </g>
    </g>
    <g id="ytick_3">
     <g id="line2d_23">
      <path clip-path="url(#pb7ee62937f)" d="M 49.0725 186.938138 
L 707.04 186.938138 
" style="fill:none;stroke:#000000;stroke-dasharray:1.000000,3.000000;stroke-dashoffset:0.0;stroke-width:0.5;"/>
     </g>
     <g id="line2d_24">
      <g>
       <use style="stroke:#000000;stroke-width:0.5;" x="49.0725" xlink:href="#mc278e5c86d" y="186.938137534"/>
      </g>
     </g>
     <g id="line2d_25">
      <g>
       <use style="stroke:#000000;stroke-width:0.5;" x="707.04" xlink:href="#m986cca675c" y="186.938137534"/>
      </g>
     </g>
     <g id="text_11">
      <!-- 40 -->
      <g transform="translate(29.8025 190.249387534)scale(0.12 -0.12)">
       <use xlink:href="#BitstreamVeraSans-Roman-34"/>
       <use x="63.623046875" xlink:href="#BitstreamVeraSans-Roman-30"/>
      </g>
     </g>
    </g>
    <g id="ytick_4">
     <g id="line2d_26">
      <path clip-path="url(#pb7ee62937f)" d="M 49.0725 133.896022 
L 707.04 133.896022 
" style="fill:none;stroke:#000000;stroke-dasharray:1.000000,3.000000;stroke-dashoffset:0.0;stroke-width:0.5;"/>
     </g>
     <g id="line2d_27">
      <g>
       <use style="stroke:#000000;stroke-width:0.5;" x="49.0725" xlink:href="#mc278e5c86d" y="133.896022432"/>
      </g>
     </g>
     <g id="line2d_28">
      <g>
       <use style="stroke:#000000;stroke-width:0.5;" x="707.04" xlink:href="#m986cca675c" y="133.896022432"/>
      </g>
     </g>
     <g id="text_12">
      <!-- 50 -->
      <g transform="translate(29.8025 137.207272432)scale(0.12 -0.12)">
       <use xlink:href="#BitstreamVeraSans-Roman-35"/>
       <use x="63.623046875" xlink:href="#BitstreamVeraSans-Roman-30"/>
      </g>
     </g>
    </g>
    <g id="ytick_5">
     <g id="line2d_29">
      <path clip-path="url(#pb7ee62937f)" d="M 49.0725 80.853907 
L 707.04 80.853907 
" style="fill:none;stroke:#000000;stroke-dasharray:1.000000,3.000000;stroke-dashoffset:0.0;stroke-width:0.5;"/>
     </g>
     <g id="line2d_30">
      <g>
       <use style="stroke:#000000;stroke-width:0.5;" x="49.0725" xlink:href="#mc278e5c86d" y="80.8539073303"/>
      </g>
     </g>
     <g id="line2d_31">
      <g>
       <use style="stroke:#000000;stroke-width:0.5;" x="707.04" xlink:href="#m986cca675c" y="80.8539073303"/>
      </g>
     </g>
     <g id="text_13">
      <!-- 60 -->
      <g transform="translate(29.8025 84.1651573303)scale(0.12 -0.12)">
       <use xlink:href="#BitstreamVeraSans-Roman-36"/>
       <use x="63.623046875" xlink:href="#BitstreamVeraSans-Roman-30"/>
      </g>
     </g>
    </g>
    <g id="ytick_6">
     <g id="line2d_32">
      <path clip-path="url(#pb7ee62937f)" d="M 49.0725 27.811792 
L 707.04 27.811792 
" style="fill:none;stroke:#000000;stroke-dasharray:1.000000,3.000000;stroke-dashoffset:0.0;stroke-width:0.5;"/>
     </g>
     <g id="line2d_33">
      <g>
       <use style="stroke:#000000;stroke-width:0.5;" x="49.0725" xlink:href="#mc278e5c86d" y="27.8117922285"/>
      </g>
     </g>
     <g id="line2d_34">
      <g>
       <use style="stroke:#000000;stroke-width:0.5;" x="707.04" xlink:href="#m986cca675c" y="27.8117922285"/>
      </g>
     </g>
     <g id="text_14">
      <!-- 70 -->
      <g transform="translate(29.8025 31.1230422285)scale(0.12 -0.12)">
       <use xlink:href="#BitstreamVeraSans-Roman-37"/>
       <use x="63.623046875" xlink:href="#BitstreamVeraSans-Roman-30"/>
      </g>
     </g>
    </g>
    <g id="text_15">
     <!-- value -->
     <defs>
      <path d="M 2.984375 54.6875 
L 12.5 54.6875 
L 29.59375 8.796875 
L 46.6875 54.6875 
L 56.203125 54.6875 
L 35.6875 0 
L 23.484375 0 
z
" id="BitstreamVeraSans-Roman-76"/>
      <path d="M 34.28125 27.484375 
Q 23.390625 27.484375 19.1875 25 
Q 14.984375 22.515625 14.984375 16.5 
Q 14.984375 11.71875 18.140625 8.90625 
Q 21.296875 6.109375 26.703125 6.109375 
Q 34.1875 6.109375 38.703125 11.40625 
Q 43.21875 16.703125 43.21875 25.484375 
L 43.21875 27.484375 
z
M 52.203125 31.203125 
L 52.203125 0 
L 43.21875 0 
L 43.21875 8.296875 
Q 40.140625 3.328125 35.546875 0.953125 
Q 30.953125 -1.421875 24.3125 -1.421875 
Q 15.921875 -1.421875 10.953125 3.296875 
Q 6 8.015625 6 15.921875 
Q 6 25.140625 12.171875 29.828125 
Q 18.359375 34.515625 30.609375 34.515625 
L 43.21875 34.515625 
L 43.21875 35.40625 
Q 43.21875 41.609375 39.140625 45 
Q 35.0625 48.390625 27.6875 48.390625 
Q 23 48.390625 18.546875 47.265625 
Q 14.109375 46.140625 10.015625 43.890625 
L 10.015625 52.203125 
Q 14.9375 54.109375 19.578125 55.046875 
Q 24.21875 56 28.609375 56 
Q 40.484375 56 46.34375 49.84375 
Q 52.203125 43.703125 52.203125 31.203125 
" id="BitstreamVeraSans-Roman-61"/>
      <path d="M 9.421875 75.984375 
L 18.40625 75.984375 
L 18.40625 0 
L 9.421875 0 
z
" id="BitstreamVeraSans-Roman-6c"/>
     </defs>
     <g transform="translate(22.306875 180.189375)rotate(-90.0)scale(0.12 -0.12)">
      <use xlink:href="#BitstreamVeraSans-Roman-76"/>
      <use x="59.1796875" xlink:href="#BitstreamVeraSans-Roman-61"/>
      <use x="120.458984375" xlink:href="#BitstreamVeraSans-Roman-6c"/>
      <use x="148.2421875" xlink:href="#BitstreamVeraSans-Roman-75"/>
      <use x="211.62109375" xlink:href="#BitstreamVeraSans-Roman-65"/>
     </g>
    </g>
   </g>
   <g id="legend_1">
    <g id="patch_7">
     <path d="M 56.2725 307.44 
L 136.773 307.44 
L 136.773 260.847 
L 56.2725 260.847 
z
" style="fill:#ffffff;stroke:#000000;stroke-linejoin:miter;"/>
    </g>
    <g id="line2d_35">
     <path d="M 66.3525 272.50875 
L 86.5125 272.50875 
" style="fill:none;stroke:#ff0000;stroke-linecap:square;stroke-width:2.0;"/>
    </g>
    <g id="line2d_36">
     <g>
      <use style="fill:#ff0000;stroke:#000000;stroke-width:0.5;" x="66.3525" xlink:href="#m8f85582ad0" y="272.50875"/>
      <use style="fill:#ff0000;stroke:#000000;stroke-width:0.5;" x="86.5125" xlink:href="#m8f85582ad0" y="272.50875"/>
     </g>
    </g>
    <g id="text_16">
     <!-- exp -->
     <defs>
      <path d="M 18.109375 8.203125 
L 18.109375 -20.796875 
L 9.078125 -20.796875 
L 9.078125 54.6875 
L 18.109375 54.6875 
L 18.109375 46.390625 
Q 20.953125 51.265625 25.265625 53.625 
Q 29.59375 56 35.59375 56 
Q 45.5625 56 51.78125 48.09375 
Q 58.015625 40.1875 58.015625 27.296875 
Q 58.015625 14.40625 51.78125 6.484375 
Q 45.5625 -1.421875 35.59375 -1.421875 
Q 29.59375 -1.421875 25.265625 0.953125 
Q 20.953125 3.328125 18.109375 8.203125 
M 48.6875 27.296875 
Q 48.6875 37.203125 44.609375 42.84375 
Q 40.53125 48.484375 33.40625 48.484375 
Q 26.265625 48.484375 22.1875 42.84375 
Q 18.109375 37.203125 18.109375 27.296875 
Q 18.109375 17.390625 22.1875 11.75 
Q 26.265625 6.109375 33.40625 6.109375 
Q 40.53125 6.109375 44.609375 11.75 
Q 48.6875 17.390625 48.6875 27.296875 
" id="BitstreamVeraSans-Roman-70"/>
      <path d="M 54.890625 54.6875 
L 35.109375 28.078125 
L 55.90625 0 
L 45.3125 0 
L 29.390625 21.484375 
L 13.484375 0 
L 2.875 0 
L 24.125 28.609375 
L 4.6875 54.6875 
L 15.28125 54.6875 
L 29.78125 35.203125 
L 44.28125 54.6875 
z
" id="BitstreamVeraSans-Roman-78"/>
     </defs>
     <g transform="translate(102.3525 277.54875)scale(0.144 -0.144)">
      <use xlink:href="#BitstreamVeraSans-Roman-65"/>
      <use x="61.5078125" xlink:href="#BitstreamVeraSans-Roman-78"/>
      <use x="120.6875" xlink:href="#BitstreamVeraSans-Roman-70"/>
     </g>
    </g>
    <g id="line2d_37">
     <path d="M 66.3525 293.64525 
L 86.5125 293.64525 
" style="fill:none;stroke:#0000ff;stroke-linecap:square;stroke-width:2.0;"/>
    </g>
    <g id="line2d_38">
     <g>
      <use style="fill:#0000ff;stroke:#000000;stroke-width:0.5;" x="66.3525" xlink:href="#m3f33122333" y="293.64525"/>
      <use style="fill:#0000ff;stroke:#000000;stroke-width:0.5;" x="86.5125" xlink:href="#m3f33122333" y="293.64525"/>
     </g>
    </g>
    <g id="text_17">
     <!-- calc -->
     <defs>
      <path d="M 48.78125 52.59375 
L 48.78125 44.1875 
Q 44.96875 46.296875 41.140625 47.34375 
Q 37.3125 48.390625 33.40625 48.390625 
Q 24.65625 48.390625 19.8125 42.84375 
Q 14.984375 37.3125 14.984375 27.296875 
Q 14.984375 17.28125 19.8125 11.734375 
Q 24.65625 6.203125 33.40625 6.203125 
Q 37.3125 6.203125 41.140625 7.25 
Q 44.96875 8.296875 48.78125 10.40625 
L 48.78125 2.09375 
Q 45.015625 0.34375 40.984375 -0.53125 
Q 36.96875 -1.421875 32.421875 -1.421875 
Q 20.0625 -1.421875 12.78125 6.34375 
Q 5.515625 14.109375 5.515625 27.296875 
Q 5.515625 40.671875 12.859375 48.328125 
Q 20.21875 56 33.015625 56 
Q 37.15625 56 41.109375 55.140625 
Q 45.0625 54.296875 48.78125 52.59375 
" id="BitstreamVeraSans-Roman-63"/>
     </defs>
     <g transform="translate(102.3525 298.68525)scale(0.144 -0.144)">
      <use xlink:href="#BitstreamVeraSans-Roman-63"/>
      <use x="54.98046875" xlink:href="#BitstreamVeraSans-Roman-61"/>
      <use x="116.259765625" xlink:href="#BitstreamVeraSans-Roman-6c"/>
      <use x="144.04296875" xlink:href="#BitstreamVeraSans-Roman-63"/>
     </g>
    </g>
   </g>
  </g>
 </g>
 <defs>
  <clipPath id="pb7ee62937f">
   <rect height="301.68" width="657.9675" x="49.0725" y="12.96"/>
  </clipPath>
 </defs>
</svg>
