<?xml version="1.0" encoding="utf-8" standalone="no"?>
<!DOCTYPE svg PUBLIC "-//W3C//DTD SVG 1.1//EN"
  "http://www.w3.org/Graphics/SVG/1.1/DTD/svg11.dtd">
<!-- Created with matplotlib (http://matplotlib.org/) -->
<svg height="360pt" version="1.1" viewBox="0 0 432 360" width="432pt" xmlns="http://www.w3.org/2000/svg" xmlns:xlink="http://www.w3.org/1999/xlink">
 <defs>
  <style type="text/css">
*{stroke-linecap:butt;stroke-linejoin:round;stroke-miterlimit:100000;}
  </style>
 </defs>
 <g id="figure_1">
  <g id="patch_1">
   <path d="M 0 360 
L 432 360 
L 432 0 
L 0 0 
z
" style="fill:#ffffff;"/>
  </g>
  <g id="axes_1">
   <g id="patch_2">
    <path d="M 48.96 314.64 
L 419.04 314.64 
L 419.04 12.96 
L 48.96 12.96 
z
" style="fill:#ffffff;"/>
   </g>
   <g id="line2d_1">
    <path clip-path="url(#p4462359828)" d="M 48.96 314.64 
L 57.129536 307.980397 
L 65.299073 301.320795 
L 73.468609 294.661192 
L 81.638146 288.001589 
L 89.807682 281.341987 
L 97.977219 274.682384 
L 106.146755 268.022781 
L 114.316291 261.363179 
L 122.485828 254.703576 
L 130.655364 248.043974 
L 138.824901 241.384371 
L 146.994437 234.724768 
L 155.163974 228.065166 
L 163.33351 221.405563 
L 171.503046 214.74596 
L 179.672583 208.086358 
L 187.842119 201.426755 
L 196.011656 194.767152 
L 204.181192 188.10755 
L 212.350728 181.447947 
L 220.520265 174.788344 
L 228.689801 168.128742 
L 236.859338 161.469139 
L 245.028874 154.809536 
L 253.198411 148.149934 
L 261.367947 141.490331 
L 269.537483 134.830728 
L 277.70702 128.171126 
L 285.876556 121.511523 
L 294.046093 114.851921 
L 302.215629 108.192318 
L 310.385166 101.532715 
L 318.554702 94.873113 
L 326.724238 88.21351 
L 334.893775 81.553907 
L 343.063311 74.894305 
L 351.232848 68.234702 
L 359.402384 61.575099 
L 367.571921 54.915497 
L 375.741457 48.255894 
L 383.910993 41.596291 
L 392.08053 34.936689 
L 400.250066 28.277086 
L 408.419603 21.617483 
L 416.589139 14.957881 
L 424.758675 8.298278 
L 432.928212 1.638675 
L 433 1.580156 
" style="fill:none;stroke:#ff0000;stroke-linecap:square;stroke-width:2.0;"/>
   </g>
   <g id="line2d_2">
    <defs>
     <path d="M 0 3 
C 0.795609 3 1.55874 2.683901 2.12132 2.12132 
C 2.683901 1.55874 3 0.795609 3 0 
C 3 -0.795609 2.683901 -1.55874 2.12132 -2.12132 
C 1.55874 -2.683901 0.795609 -3 0 -3 
C -0.795609 -3 -1.55874 -2.683901 -2.12132 -2.12132 
C -2.683901 -1.55874 -3 -0.795609 -3 0 
C -3 0.795609 -2.683901 1.55874 -2.12132 2.12132 
C -1.55874 2.683901 -0.795609 3 0 3 
z
" id="m17ae2aa52e" style="stroke:#000000;stroke-width:0.5;"/>
    </defs>
    <g clip-path="url(#p4462359828)">
     <use style="fill:#0000ff;stroke:#000000;stroke-width:0.5;" x="299.764768212" xlink:href="#m17ae2aa52e" y="153.195248742"/>
     <use style="fill:#0000ff;stroke:#000000;stroke-width:0.5;" x="249.930596026" xlink:href="#m17ae2aa52e" y="101.627281589"/>
     <use style="fill:#0000ff;stroke:#000000;stroke-width:0.5;" x="272.805298013" xlink:href="#m17ae2aa52e" y="99.7705843709"/>
     <use style="fill:#0000ff;stroke:#000000;stroke-width:0.5;" x="329.99205298" xlink:href="#m17ae2aa52e" y="101.089185695"/>
     <use style="fill:#0000ff;stroke:#000000;stroke-width:0.5;" x="301.398675497" xlink:href="#m17ae2aa52e" y="106.231064901"/>
     <use style="fill:#0000ff;stroke:#000000;stroke-width:0.5;" x="284.242649007" xlink:href="#m17ae2aa52e" y="125.792981722"/>
     <use style="fill:#0000ff;stroke:#000000;stroke-width:0.5;" x="313.652980132" xlink:href="#m17ae2aa52e" y="135.420103311"/>
     <use style="fill:#0000ff;stroke:#000000;stroke-width:0.5;" x="194.377748344" xlink:href="#m17ae2aa52e" y="179.133069139"/>
     <use style="fill:#0000ff;stroke:#000000;stroke-width:0.5;" x="209.89986755" xlink:href="#m17ae2aa52e" y="155.960981722"/>
     <use style="fill:#0000ff;stroke:#000000;stroke-width:0.5;" x="164.150463576" xlink:href="#m17ae2aa52e" y="174.950172715"/>
     <use style="fill:#0000ff;stroke:#000000;stroke-width:0.5;" x="274.439205298" xlink:href="#m17ae2aa52e" y="142.803604768"/>
     <use style="fill:#0000ff;stroke:#000000;stroke-width:0.5;" x="349.598940397" xlink:href="#m17ae2aa52e" y="101.437482914"/>
     <use style="fill:#0000ff;stroke:#000000;stroke-width:0.5;" x="282.608741722" xlink:href="#m17ae2aa52e" y="141.620193377"/>
     <use style="fill:#0000ff;stroke:#000000;stroke-width:0.5;" x="284.242649007" xlink:href="#m17ae2aa52e" y="142.63178702"/>
     <use style="fill:#0000ff;stroke:#000000;stroke-width:0.5;" x="233.591523179" xlink:href="#m17ae2aa52e" y="132.429941722"/>
     <use style="fill:#0000ff;stroke:#000000;stroke-width:0.5;" x="299.764768212" xlink:href="#m17ae2aa52e" y="110.665028344"/>
     <use style="fill:#0000ff;stroke:#000000;stroke-width:0.5;" x="278.52397351" xlink:href="#m17ae2aa52e" y="67.0446309934"/>
     <use style="fill:#0000ff;stroke:#000000;stroke-width:0.5;" x="144.543576159" xlink:href="#m17ae2aa52e" y="182.698620397"/>
     <use style="fill:#0000ff;stroke:#000000;stroke-width:0.5;" x="227.872847682" xlink:href="#m17ae2aa52e" y="160.55677351"/>
     <use style="fill:#0000ff;stroke:#000000;stroke-width:0.5;" x="213.984635762" xlink:href="#m17ae2aa52e" y="166.350627815"/>
     <use style="fill:#0000ff;stroke:#000000;stroke-width:0.5;" x="266.269668874" xlink:href="#m17ae2aa52e" y="152.593886623"/>
     <use style="fill:#0000ff;stroke:#000000;stroke-width:0.5;" x="394.531390728" xlink:href="#m17ae2aa52e" y="162.609263046"/>
     <use style="fill:#0000ff;stroke:#000000;stroke-width:0.5;" x="218.069403974" xlink:href="#m17ae2aa52e" y="170.522868874"/>
     <use style="fill:#0000ff;stroke:#000000;stroke-width:0.5;" x="231.957615894" xlink:href="#m17ae2aa52e" y="182.978323709"/>
     <use style="fill:#0000ff;stroke:#000000;stroke-width:0.5;" x="269.537483444" xlink:href="#m17ae2aa52e" y="145.792434437"/>
     <use style="fill:#0000ff;stroke:#000000;stroke-width:0.5;" x="222.971125828" xlink:href="#m17ae2aa52e" y="171.865444768"/>
     <use style="fill:#0000ff;stroke:#000000;stroke-width:0.5;" x="213.167682119" xlink:href="#m17ae2aa52e" y="171.017011391"/>
     <use style="fill:#0000ff;stroke:#000000;stroke-width:0.5;" x="246.662781457" xlink:href="#m17ae2aa52e" y="191.222911788"/>
     <use style="fill:#0000ff;stroke:#000000;stroke-width:0.5;" x="269.537483444" xlink:href="#m17ae2aa52e" y="154.206842384"/>
     <use style="fill:#0000ff;stroke:#000000;stroke-width:0.5;" x="224.605033113" xlink:href="#m17ae2aa52e" y="180.817948609"/>
     <use style="fill:#0000ff;stroke:#000000;stroke-width:0.5;" x="178.038675497" xlink:href="#m17ae2aa52e" y="188.919355232"/>
     <use style="fill:#0000ff;stroke:#000000;stroke-width:0.5;" x="283.425695364" xlink:href="#m17ae2aa52e" y="119.008844503"/>
     <use style="fill:#0000ff;stroke:#000000;stroke-width:0.5;" x="264.635761589" xlink:href="#m17ae2aa52e" y="161.548388344"/>
     <use style="fill:#0000ff;stroke:#000000;stroke-width:0.5;" x="73.4686092715" xlink:href="#m17ae2aa52e" y="211.368875762"/>
     <use style="fill:#0000ff;stroke:#000000;stroke-width:0.5;" x="266.269668874" xlink:href="#m17ae2aa52e" y="169.516602914"/>
     <use style="fill:#0000ff;stroke:#000000;stroke-width:0.5;" x="209.082913907" xlink:href="#m17ae2aa52e" y="150.800455629"/>
     <use style="fill:#0000ff;stroke:#000000;stroke-width:0.5;" x="181.306490066" xlink:href="#m17ae2aa52e" y="197.736003179"/>
     <use style="fill:#0000ff;stroke:#000000;stroke-width:0.5;" x="264.635761589" xlink:href="#m17ae2aa52e" y="112.354569536"/>
     <use style="fill:#0000ff;stroke:#000000;stroke-width:0.5;" x="290.778278146" xlink:href="#m17ae2aa52e" y="138.800517616"/>
     <use style="fill:#0000ff;stroke:#000000;stroke-width:0.5;" x="314.469933775" xlink:href="#m17ae2aa52e" y="119.136042914"/>
     <use style="fill:#0000ff;stroke:#000000;stroke-width:0.5;" x="294.046092715" xlink:href="#m17ae2aa52e" y="107.940584901"/>
     <use style="fill:#0000ff;stroke:#000000;stroke-width:0.5;" x="301.398675497" xlink:href="#m17ae2aa52e" y="110.484553113"/>
     <use style="fill:#0000ff;stroke:#000000;stroke-width:0.5;" x="230.323708609" xlink:href="#m17ae2aa52e" y="150.561375894"/>
     <use style="fill:#0000ff;stroke:#000000;stroke-width:0.5;" x="222.971125828" xlink:href="#m17ae2aa52e" y="176.06832"/>
     <use style="fill:#0000ff;stroke:#000000;stroke-width:0.5;" x="274.439205298" xlink:href="#m17ae2aa52e" y="139.030939868"/>
     <use style="fill:#0000ff;stroke:#000000;stroke-width:0.5;" x="269.537483444" xlink:href="#m17ae2aa52e" y="133.928352318"/>
     <use style="fill:#0000ff;stroke:#000000;stroke-width:0.5;" x="254.015364238" xlink:href="#m17ae2aa52e" y="127.489848477"/>
     <use style="fill:#0000ff;stroke:#000000;stroke-width:0.5;" x="236.042384106" xlink:href="#m17ae2aa52e" y="110.70365404"/>
     <use style="fill:#0000ff;stroke:#000000;stroke-width:0.5;" x="365.938013245" xlink:href="#m17ae2aa52e" y="170.523534834"/>
     <use style="fill:#0000ff;stroke:#000000;stroke-width:0.5;" x="179.672582781" xlink:href="#m17ae2aa52e" y="191.111030464"/>
     <use style="fill:#0000ff;stroke:#000000;stroke-width:0.5;" x="291.595231788" xlink:href="#m17ae2aa52e" y="162.211684768"/>
     <use style="fill:#0000ff;stroke:#000000;stroke-width:0.5;" x="236.859337748" xlink:href="#m17ae2aa52e" y="147.577873907"/>
     <use style="fill:#0000ff;stroke:#000000;stroke-width:0.5;" x="262.184900662" xlink:href="#m17ae2aa52e" y="164.743665695"/>
     <use style="fill:#0000ff;stroke:#000000;stroke-width:0.5;" x="218.886357616" xlink:href="#m17ae2aa52e" y="192.629419868"/>
     <use style="fill:#0000ff;stroke:#000000;stroke-width:0.5;" x="163.333509934" xlink:href="#m17ae2aa52e" y="205.00362755"/>
     <use style="fill:#0000ff;stroke:#000000;stroke-width:0.5;" x="236.859337748" xlink:href="#m17ae2aa52e" y="173.532343311"/>
     <use style="fill:#0000ff;stroke:#000000;stroke-width:0.5;" x="161.699602649" xlink:href="#m17ae2aa52e" y="195.317901457"/>
     <use style="fill:#0000ff;stroke:#000000;stroke-width:0.5;" x="191.926887417" xlink:href="#m17ae2aa52e" y="157.709127417"/>
     <use style="fill:#0000ff;stroke:#000000;stroke-width:0.5;" x="263.001854305" xlink:href="#m17ae2aa52e" y="148.392343311"/>
     <use style="fill:#0000ff;stroke:#000000;stroke-width:0.5;" x="330.809006623" xlink:href="#m17ae2aa52e" y="109.309133245"/>
     <use style="fill:#0000ff;stroke:#000000;stroke-width:0.5;" x="196.828609272" xlink:href="#m17ae2aa52e" y="182.58007947"/>
     <use style="fill:#0000ff;stroke:#000000;stroke-width:0.5;" x="280.974834437" xlink:href="#m17ae2aa52e" y="128.284339073"/>
     <use style="fill:#0000ff;stroke:#000000;stroke-width:0.5;" x="338.978543046" xlink:href="#m17ae2aa52e" y="61.4352476821"/>
     <use style="fill:#0000ff;stroke:#000000;stroke-width:0.5;" x="324.273377483" xlink:href="#m17ae2aa52e" y="108.281556556"/>
     <use style="fill:#0000ff;stroke:#000000;stroke-width:0.5;" x="247.479735099" xlink:href="#m17ae2aa52e" y="124.537646623"/>
     <use style="fill:#0000ff;stroke:#000000;stroke-width:0.5;" x="320.188609272" xlink:href="#m17ae2aa52e" y="112.198734834"/>
     <use style="fill:#0000ff;stroke:#000000;stroke-width:0.5;" x="230.323708609" xlink:href="#m17ae2aa52e" y="138.820496424"/>
     <use style="fill:#0000ff;stroke:#000000;stroke-width:0.5;" x="271.988344371" xlink:href="#m17ae2aa52e" y="134.070867815"/>
     <use style="fill:#0000ff;stroke:#000000;stroke-width:0.5;" x="249.930596026" xlink:href="#m17ae2aa52e" y="151.463086093"/>
     <use style="fill:#0000ff;stroke:#000000;stroke-width:0.5;" x="257.283178808" xlink:href="#m17ae2aa52e" y="142.649767947"/>
     <use style="fill:#0000ff;stroke:#000000;stroke-width:0.5;" x="261.36794702" xlink:href="#m17ae2aa52e" y="153.239868079"/>
     <use style="fill:#0000ff;stroke:#000000;stroke-width:0.5;" x="217.252450331" xlink:href="#m17ae2aa52e" y="157.79170649"/>
    </g>
   </g>
   <g id="patch_3">
    <path d="M 48.96 314.64 
L 419.04 314.64 
" style="fill:none;stroke:#000000;stroke-linecap:square;stroke-linejoin:miter;"/>
   </g>
   <g id="patch_4">
    <path d="M 419.04 314.64 
L 419.04 12.96 
" style="fill:none;stroke:#000000;stroke-linecap:square;stroke-linejoin:miter;"/>
   </g>
   <g id="patch_5">
    <path d="M 48.96 314.64 
L 48.96 12.96 
" style="fill:none;stroke:#000000;stroke-linecap:square;stroke-linejoin:miter;"/>
   </g>
   <g id="patch_6">
    <path d="M 48.96 12.96 
L 419.04 12.96 
" style="fill:none;stroke:#000000;stroke-linecap:square;stroke-linejoin:miter;"/>
   </g>
   <g id="matplotlib.axis_1">
    <g id="xtick_1">
     <g id="line2d_3">
      <defs>
       <path d="M 0 0 
L 0 -4 
" id="m1942ddd75e" style="stroke:#000000;stroke-width:0.5;"/>
      </defs>
      <g>
       <use style="stroke:#000000;stroke-width:0.5;" x="57.9464900662" xlink:href="#m1942ddd75e" y="314.64"/>
      </g>
     </g>
     <g id="line2d_4">
      <defs>
       <path d="M 0 0 
L 0 4 
" id="m055a7192bd" style="stroke:#000000;stroke-width:0.5;"/>
      </defs>
      <g>
       <use style="stroke:#000000;stroke-width:0.5;" x="57.9464900662" xlink:href="#m055a7192bd" y="12.96"/>
      </g>
     </g>
     <g id="text_1">
      <!-- 6 -->
      <defs>
       <path d="M 33.015625 40.375 
Q 26.375 40.375 22.484375 35.828125 
Q 18.609375 31.296875 18.609375 23.390625 
Q 18.609375 15.53125 22.484375 10.953125 
Q 26.375 6.390625 33.015625 6.390625 
Q 39.65625 6.390625 43.53125 10.953125 
Q 47.40625 15.53125 47.40625 23.390625 
Q 47.40625 31.296875 43.53125 35.828125 
Q 39.65625 40.375 33.015625 40.375 
M 52.59375 71.296875 
L 52.59375 62.3125 
Q 48.875 64.0625 45.09375 64.984375 
Q 41.3125 65.921875 37.59375 65.921875 
Q 27.828125 65.921875 22.671875 59.328125 
Q 17.53125 52.734375 16.796875 39.40625 
Q 19.671875 43.65625 24.015625 45.921875 
Q 28.375 48.1875 33.59375 48.1875 
Q 44.578125 48.1875 50.953125 41.515625 
Q 57.328125 34.859375 57.328125 23.390625 
Q 57.328125 12.15625 50.6875 5.359375 
Q 44.046875 -1.421875 33.015625 -1.421875 
Q 20.359375 -1.421875 13.671875 8.265625 
Q 6.984375 17.96875 6.984375 36.375 
Q 6.984375 53.65625 15.1875 63.9375 
Q 23.390625 74.21875 37.203125 74.21875 
Q 40.921875 74.21875 44.703125 73.484375 
Q 48.484375 72.75 52.59375 71.296875 
" id="BitstreamVeraSans-Roman-36"/>
      </defs>
      <g transform="translate(54.1289900662 327.758125)scale(0.12 -0.12)">
       <use xlink:href="#BitstreamVeraSans-Roman-36"/>
      </g>
     </g>
    </g>
    <g id="xtick_2">
     <g id="line2d_5">
      <g>
       <use style="stroke:#000000;stroke-width:0.5;" x="139.641854305" xlink:href="#m1942ddd75e" y="314.64"/>
      </g>
     </g>
     <g id="line2d_6">
      <g>
       <use style="stroke:#000000;stroke-width:0.5;" x="139.641854305" xlink:href="#m055a7192bd" y="12.96"/>
      </g>
     </g>
     <g id="text_2">
      <!-- 7 -->
      <defs>
       <path d="M 8.203125 72.90625 
L 55.078125 72.90625 
L 55.078125 68.703125 
L 28.609375 0 
L 18.3125 0 
L 43.21875 64.59375 
L 8.203125 64.59375 
z
" id="BitstreamVeraSans-Roman-37"/>
      </defs>
      <g transform="translate(135.824354305 327.758125)scale(0.12 -0.12)">
       <use xlink:href="#BitstreamVeraSans-Roman-37"/>
      </g>
     </g>
    </g>
    <g id="xtick_3">
     <g id="line2d_7">
      <g>
       <use style="stroke:#000000;stroke-width:0.5;" x="221.337218543" xlink:href="#m1942ddd75e" y="314.64"/>
      </g>
     </g>
     <g id="line2d_8">
      <g>
       <use style="stroke:#000000;stroke-width:0.5;" x="221.337218543" xlink:href="#m055a7192bd" y="12.96"/>
      </g>
     </g>
     <g id="text_3">
      <!-- 8 -->
      <defs>
       <path d="M 31.78125 34.625 
Q 24.75 34.625 20.71875 30.859375 
Q 16.703125 27.09375 16.703125 20.515625 
Q 16.703125 13.921875 20.71875 10.15625 
Q 24.75 6.390625 31.78125 6.390625 
Q 38.8125 6.390625 42.859375 10.171875 
Q 46.921875 13.96875 46.921875 20.515625 
Q 46.921875 27.09375 42.890625 30.859375 
Q 38.875 34.625 31.78125 34.625 
M 21.921875 38.8125 
Q 15.578125 40.375 12.03125 44.71875 
Q 8.5 49.078125 8.5 55.328125 
Q 8.5 64.0625 14.71875 69.140625 
Q 20.953125 74.21875 31.78125 74.21875 
Q 42.671875 74.21875 48.875 69.140625 
Q 55.078125 64.0625 55.078125 55.328125 
Q 55.078125 49.078125 51.53125 44.71875 
Q 48 40.375 41.703125 38.8125 
Q 48.828125 37.15625 52.796875 32.3125 
Q 56.78125 27.484375 56.78125 20.515625 
Q 56.78125 9.90625 50.3125 4.234375 
Q 43.84375 -1.421875 31.78125 -1.421875 
Q 19.734375 -1.421875 13.25 4.234375 
Q 6.78125 9.90625 6.78125 20.515625 
Q 6.78125 27.484375 10.78125 32.3125 
Q 14.796875 37.15625 21.921875 38.8125 
M 18.3125 54.390625 
Q 18.3125 48.734375 21.84375 45.5625 
Q 25.390625 42.390625 31.78125 42.390625 
Q 38.140625 42.390625 41.71875 45.5625 
Q 45.3125 48.734375 45.3125 54.390625 
Q 45.3125 60.0625 41.71875 63.234375 
Q 38.140625 66.40625 31.78125 66.40625 
Q 25.390625 66.40625 21.84375 63.234375 
Q 18.3125 60.0625 18.3125 54.390625 
" id="BitstreamVeraSans-Roman-38"/>
      </defs>
      <g transform="translate(217.519718543 327.758125)scale(0.12 -0.12)">
       <use xlink:href="#BitstreamVeraSans-Roman-38"/>
      </g>
     </g>
    </g>
    <g id="xtick_4">
     <g id="line2d_9">
      <g>
       <use style="stroke:#000000;stroke-width:0.5;" x="303.032582781" xlink:href="#m1942ddd75e" y="314.64"/>
      </g>
     </g>
     <g id="line2d_10">
      <g>
       <use style="stroke:#000000;stroke-width:0.5;" x="303.032582781" xlink:href="#m055a7192bd" y="12.96"/>
      </g>
     </g>
     <g id="text_4">
      <!-- 9 -->
      <defs>
       <path d="M 10.984375 1.515625 
L 10.984375 10.5 
Q 14.703125 8.734375 18.5 7.8125 
Q 22.3125 6.890625 25.984375 6.890625 
Q 35.75 6.890625 40.890625 13.453125 
Q 46.046875 20.015625 46.78125 33.40625 
Q 43.953125 29.203125 39.59375 26.953125 
Q 35.25 24.703125 29.984375 24.703125 
Q 19.046875 24.703125 12.671875 31.3125 
Q 6.296875 37.9375 6.296875 49.421875 
Q 6.296875 60.640625 12.9375 67.421875 
Q 19.578125 74.21875 30.609375 74.21875 
Q 43.265625 74.21875 49.921875 64.515625 
Q 56.59375 54.828125 56.59375 36.375 
Q 56.59375 19.140625 48.40625 8.859375 
Q 40.234375 -1.421875 26.421875 -1.421875 
Q 22.703125 -1.421875 18.890625 -0.6875 
Q 15.09375 0.046875 10.984375 1.515625 
M 30.609375 32.421875 
Q 37.25 32.421875 41.125 36.953125 
Q 45.015625 41.5 45.015625 49.421875 
Q 45.015625 57.28125 41.125 61.84375 
Q 37.25 66.40625 30.609375 66.40625 
Q 23.96875 66.40625 20.09375 61.84375 
Q 16.21875 57.28125 16.21875 49.421875 
Q 16.21875 41.5 20.09375 36.953125 
Q 23.96875 32.421875 30.609375 32.421875 
" id="BitstreamVeraSans-Roman-39"/>
      </defs>
      <g transform="translate(299.215082781 327.758125)scale(0.12 -0.12)">
       <use xlink:href="#BitstreamVeraSans-Roman-39"/>
      </g>
     </g>
    </g>
    <g id="xtick_5">
     <g id="line2d_11">
      <g>
       <use style="stroke:#000000;stroke-width:0.5;" x="384.72794702" xlink:href="#m1942ddd75e" y="314.64"/>
      </g>
     </g>
     <g id="line2d_12">
      <g>
       <use style="stroke:#000000;stroke-width:0.5;" x="384.72794702" xlink:href="#m055a7192bd" y="12.96"/>
      </g>
     </g>
     <g id="text_5">
      <!-- 10 -->
      <defs>
       <path d="M 12.40625 8.296875 
L 28.515625 8.296875 
L 28.515625 63.921875 
L 10.984375 60.40625 
L 10.984375 69.390625 
L 28.421875 72.90625 
L 38.28125 72.90625 
L 38.28125 8.296875 
L 54.390625 8.296875 
L 54.390625 0 
L 12.40625 0 
z
" id="BitstreamVeraSans-Roman-31"/>
       <path d="M 31.78125 66.40625 
Q 24.171875 66.40625 20.328125 58.90625 
Q 16.5 51.421875 16.5 36.375 
Q 16.5 21.390625 20.328125 13.890625 
Q 24.171875 6.390625 31.78125 6.390625 
Q 39.453125 6.390625 43.28125 13.890625 
Q 47.125 21.390625 47.125 36.375 
Q 47.125 51.421875 43.28125 58.90625 
Q 39.453125 66.40625 31.78125 66.40625 
M 31.78125 74.21875 
Q 44.046875 74.21875 50.515625 64.515625 
Q 56.984375 54.828125 56.984375 36.375 
Q 56.984375 17.96875 50.515625 8.265625 
Q 44.046875 -1.421875 31.78125 -1.421875 
Q 19.53125 -1.421875 13.0625 8.265625 
Q 6.59375 17.96875 6.59375 36.375 
Q 6.59375 54.828125 13.0625 64.515625 
Q 19.53125 74.21875 31.78125 74.21875 
" id="BitstreamVeraSans-Roman-30"/>
      </defs>
      <g transform="translate(377.09294702 327.758125)scale(0.12 -0.12)">
       <use xlink:href="#BitstreamVeraSans-Roman-31"/>
       <use x="63.623046875" xlink:href="#BitstreamVeraSans-Roman-30"/>
      </g>
     </g>
    </g>
    <g id="text_6">
     <!-- experimental -->
     <defs>
      <path d="M 56.203125 29.59375 
L 56.203125 25.203125 
L 14.890625 25.203125 
Q 15.484375 15.921875 20.484375 11.0625 
Q 25.484375 6.203125 34.421875 6.203125 
Q 39.59375 6.203125 44.453125 7.46875 
Q 49.3125 8.734375 54.109375 11.28125 
L 54.109375 2.78125 
Q 49.265625 0.734375 44.1875 -0.34375 
Q 39.109375 -1.421875 33.890625 -1.421875 
Q 20.796875 -1.421875 13.15625 6.1875 
Q 5.515625 13.8125 5.515625 26.8125 
Q 5.515625 40.234375 12.765625 48.109375 
Q 20.015625 56 32.328125 56 
Q 43.359375 56 49.78125 48.890625 
Q 56.203125 41.796875 56.203125 29.59375 
M 47.21875 32.234375 
Q 47.125 39.59375 43.09375 43.984375 
Q 39.0625 48.390625 32.421875 48.390625 
Q 24.90625 48.390625 20.390625 44.140625 
Q 15.875 39.890625 15.1875 32.171875 
z
" id="BitstreamVeraSans-Roman-65"/>
      <path d="M 52 44.1875 
Q 55.375 50.25 60.0625 53.125 
Q 64.75 56 71.09375 56 
Q 79.640625 56 84.28125 50.015625 
Q 88.921875 44.046875 88.921875 33.015625 
L 88.921875 0 
L 79.890625 0 
L 79.890625 32.71875 
Q 79.890625 40.578125 77.09375 44.375 
Q 74.3125 48.1875 68.609375 48.1875 
Q 61.625 48.1875 57.5625 43.546875 
Q 53.515625 38.921875 53.515625 30.90625 
L 53.515625 0 
L 44.484375 0 
L 44.484375 32.71875 
Q 44.484375 40.625 41.703125 44.40625 
Q 38.921875 48.1875 33.109375 48.1875 
Q 26.21875 48.1875 22.15625 43.53125 
Q 18.109375 38.875 18.109375 30.90625 
L 18.109375 0 
L 9.078125 0 
L 9.078125 54.6875 
L 18.109375 54.6875 
L 18.109375 46.1875 
Q 21.1875 51.21875 25.484375 53.609375 
Q 29.78125 56 35.6875 56 
Q 41.65625 56 45.828125 52.96875 
Q 50 49.953125 52 44.1875 
" id="BitstreamVeraSans-Roman-6d"/>
      <path d="M 41.109375 46.296875 
Q 39.59375 47.171875 37.8125 47.578125 
Q 36.03125 48 33.890625 48 
Q 26.265625 48 22.1875 43.046875 
Q 18.109375 38.09375 18.109375 28.8125 
L 18.109375 0 
L 9.078125 0 
L 9.078125 54.6875 
L 18.109375 54.6875 
L 18.109375 46.1875 
Q 20.953125 51.171875 25.484375 53.578125 
Q 30.03125 56 36.53125 56 
Q 37.453125 56 38.578125 55.875 
Q 39.703125 55.765625 41.0625 55.515625 
z
" id="BitstreamVeraSans-Roman-72"/>
      <path d="M 54.890625 54.6875 
L 35.109375 28.078125 
L 55.90625 0 
L 45.3125 0 
L 29.390625 21.484375 
L 13.484375 0 
L 2.875 0 
L 24.125 28.609375 
L 4.6875 54.6875 
L 15.28125 54.6875 
L 29.78125 35.203125 
L 44.28125 54.6875 
z
" id="BitstreamVeraSans-Roman-78"/>
      <path d="M 54.890625 33.015625 
L 54.890625 0 
L 45.90625 0 
L 45.90625 32.71875 
Q 45.90625 40.484375 42.875 44.328125 
Q 39.84375 48.1875 33.796875 48.1875 
Q 26.515625 48.1875 22.3125 43.546875 
Q 18.109375 38.921875 18.109375 30.90625 
L 18.109375 0 
L 9.078125 0 
L 9.078125 54.6875 
L 18.109375 54.6875 
L 18.109375 46.1875 
Q 21.34375 51.125 25.703125 53.5625 
Q 30.078125 56 35.796875 56 
Q 45.21875 56 50.046875 50.171875 
Q 54.890625 44.34375 54.890625 33.015625 
" id="BitstreamVeraSans-Roman-6e"/>
      <path d="M 9.421875 75.984375 
L 18.40625 75.984375 
L 18.40625 0 
L 9.421875 0 
z
" id="BitstreamVeraSans-Roman-6c"/>
      <path d="M 18.3125 70.21875 
L 18.3125 54.6875 
L 36.8125 54.6875 
L 36.8125 47.703125 
L 18.3125 47.703125 
L 18.3125 18.015625 
Q 18.3125 11.328125 20.140625 9.421875 
Q 21.96875 7.515625 27.59375 7.515625 
L 36.8125 7.515625 
L 36.8125 0 
L 27.59375 0 
Q 17.1875 0 13.234375 3.875 
Q 9.28125 7.765625 9.28125 18.015625 
L 9.28125 47.703125 
L 2.6875 47.703125 
L 2.6875 54.6875 
L 9.28125 54.6875 
L 9.28125 70.21875 
z
" id="BitstreamVeraSans-Roman-74"/>
      <path d="M 9.421875 54.6875 
L 18.40625 54.6875 
L 18.40625 0 
L 9.421875 0 
z
M 9.421875 75.984375 
L 18.40625 75.984375 
L 18.40625 64.59375 
L 9.421875 64.59375 
z
" id="BitstreamVeraSans-Roman-69"/>
      <path d="M 18.109375 8.203125 
L 18.109375 -20.796875 
L 9.078125 -20.796875 
L 9.078125 54.6875 
L 18.109375 54.6875 
L 18.109375 46.390625 
Q 20.953125 51.265625 25.265625 53.625 
Q 29.59375 56 35.59375 56 
Q 45.5625 56 51.78125 48.09375 
Q 58.015625 40.1875 58.015625 27.296875 
Q 58.015625 14.40625 51.78125 6.484375 
Q 45.5625 -1.421875 35.59375 -1.421875 
Q 29.59375 -1.421875 25.265625 0.953125 
Q 20.953125 3.328125 18.109375 8.203125 
M 48.6875 27.296875 
Q 48.6875 37.203125 44.609375 42.84375 
Q 40.53125 48.484375 33.40625 48.484375 
Q 26.265625 48.484375 22.1875 42.84375 
Q 18.109375 37.203125 18.109375 27.296875 
Q 18.109375 17.390625 22.1875 11.75 
Q 26.265625 6.109375 33.40625 6.109375 
Q 40.53125 6.109375 44.609375 11.75 
Q 48.6875 17.390625 48.6875 27.296875 
" id="BitstreamVeraSans-Roman-70"/>
      <path d="M 34.28125 27.484375 
Q 23.390625 27.484375 19.1875 25 
Q 14.984375 22.515625 14.984375 16.5 
Q 14.984375 11.71875 18.140625 8.90625 
Q 21.296875 6.109375 26.703125 6.109375 
Q 34.1875 6.109375 38.703125 11.40625 
Q 43.21875 16.703125 43.21875 25.484375 
L 43.21875 27.484375 
z
M 52.203125 31.203125 
L 52.203125 0 
L 43.21875 0 
L 43.21875 8.296875 
Q 40.140625 3.328125 35.546875 0.953125 
Q 30.953125 -1.421875 24.3125 -1.421875 
Q 15.921875 -1.421875 10.953125 3.296875 
Q 6 8.015625 6 15.921875 
Q 6 25.140625 12.171875 29.828125 
Q 18.359375 34.515625 30.609375 34.515625 
L 43.21875 34.515625 
L 43.21875 35.40625 
Q 43.21875 41.609375 39.140625 45 
Q 35.0625 48.390625 27.6875 48.390625 
Q 23 48.390625 18.546875 47.265625 
Q 14.109375 46.140625 10.015625 43.890625 
L 10.015625 52.203125 
Q 14.9375 54.109375 19.578125 55.046875 
Q 24.21875 56 28.609375 56 
Q 40.484375 56 46.34375 49.84375 
Q 52.203125 43.703125 52.203125 31.203125 
" id="BitstreamVeraSans-Roman-61"/>
     </defs>
     <g transform="translate(194.08875 344.371875)scale(0.12 -0.12)">
      <use xlink:href="#BitstreamVeraSans-Roman-65"/>
      <use x="61.5078125" xlink:href="#BitstreamVeraSans-Roman-78"/>
      <use x="120.6875" xlink:href="#BitstreamVeraSans-Roman-70"/>
      <use x="184.1640625" xlink:href="#BitstreamVeraSans-Roman-65"/>
      <use x="245.6875" xlink:href="#BitstreamVeraSans-Roman-72"/>
      <use x="286.80078125" xlink:href="#BitstreamVeraSans-Roman-69"/>
      <use x="314.583984375" xlink:href="#BitstreamVeraSans-Roman-6d"/>
      <use x="411.99609375" xlink:href="#BitstreamVeraSans-Roman-65"/>
      <use x="473.51953125" xlink:href="#BitstreamVeraSans-Roman-6e"/>
      <use x="536.8984375" xlink:href="#BitstreamVeraSans-Roman-74"/>
      <use x="576.107421875" xlink:href="#BitstreamVeraSans-Roman-61"/>
      <use x="637.38671875" xlink:href="#BitstreamVeraSans-Roman-6c"/>
     </g>
    </g>
   </g>
   <g id="matplotlib.axis_2">
    <g id="ytick_1">
     <g id="line2d_13">
      <defs>
       <path d="M 0 0 
L 4 0 
" id="m65b25e0e9a" style="stroke:#000000;stroke-width:0.5;"/>
      </defs>
      <g>
       <use style="stroke:#000000;stroke-width:0.5;" x="48.96" xlink:href="#m65b25e0e9a" y="307.314437086"/>
      </g>
     </g>
     <g id="line2d_14">
      <defs>
       <path d="M 0 0 
L -4 0 
" id="m6def201f8e" style="stroke:#000000;stroke-width:0.5;"/>
      </defs>
      <g>
       <use style="stroke:#000000;stroke-width:0.5;" x="419.04" xlink:href="#m6def201f8e" y="307.314437086"/>
      </g>
     </g>
     <g id="text_7">
      <!-- 6 -->
      <g transform="translate(37.325 310.625687086)scale(0.12 -0.12)">
       <use xlink:href="#BitstreamVeraSans-Roman-36"/>
      </g>
     </g>
    </g>
    <g id="ytick_2">
     <g id="line2d_15">
      <g>
       <use style="stroke:#000000;stroke-width:0.5;" x="48.96" xlink:href="#m65b25e0e9a" y="240.718410596"/>
      </g>
     </g>
     <g id="line2d_16">
      <g>
       <use style="stroke:#000000;stroke-width:0.5;" x="419.04" xlink:href="#m6def201f8e" y="240.718410596"/>
      </g>
     </g>
     <g id="text_8">
      <!-- 7 -->
      <g transform="translate(37.325 244.029660596)scale(0.12 -0.12)">
       <use xlink:href="#BitstreamVeraSans-Roman-37"/>
      </g>
     </g>
    </g>
    <g id="ytick_3">
     <g id="line2d_17">
      <g>
       <use style="stroke:#000000;stroke-width:0.5;" x="48.96" xlink:href="#m65b25e0e9a" y="174.122384106"/>
      </g>
     </g>
     <g id="line2d_18">
      <g>
       <use style="stroke:#000000;stroke-width:0.5;" x="419.04" xlink:href="#m6def201f8e" y="174.122384106"/>
      </g>
     </g>
     <g id="text_9">
      <!-- 8 -->
      <g transform="translate(37.325 177.433634106)scale(0.12 -0.12)">
       <use xlink:href="#BitstreamVeraSans-Roman-38"/>
      </g>
     </g>
    </g>
    <g id="ytick_4">
     <g id="line2d_19">
      <g>
       <use style="stroke:#000000;stroke-width:0.5;" x="48.96" xlink:href="#m65b25e0e9a" y="107.526357616"/>
      </g>
     </g>
     <g id="line2d_20">
      <g>
       <use style="stroke:#000000;stroke-width:0.5;" x="419.04" xlink:href="#m6def201f8e" y="107.526357616"/>
      </g>
     </g>
     <g id="text_10">
      <!-- 9 -->
      <g transform="translate(37.325 110.837607616)scale(0.12 -0.12)">
       <use xlink:href="#BitstreamVeraSans-Roman-39"/>
      </g>
     </g>
    </g>
    <g id="ytick_5">
     <g id="line2d_21">
      <g>
       <use style="stroke:#000000;stroke-width:0.5;" x="48.96" xlink:href="#m65b25e0e9a" y="40.9303311258"/>
      </g>
     </g>
     <g id="line2d_22">
      <g>
       <use style="stroke:#000000;stroke-width:0.5;" x="419.04" xlink:href="#m6def201f8e" y="40.9303311258"/>
      </g>
     </g>
     <g id="text_11">
      <!-- 10 -->
      <g transform="translate(29.69 44.2415811258)scale(0.12 -0.12)">
       <use xlink:href="#BitstreamVeraSans-Roman-31"/>
       <use x="63.623046875" xlink:href="#BitstreamVeraSans-Roman-30"/>
      </g>
     </g>
    </g>
    <g id="text_12">
     <!-- calculated -->
     <defs>
      <path d="M 48.78125 52.59375 
L 48.78125 44.1875 
Q 44.96875 46.296875 41.140625 47.34375 
Q 37.3125 48.390625 33.40625 48.390625 
Q 24.65625 48.390625 19.8125 42.84375 
Q 14.984375 37.3125 14.984375 27.296875 
Q 14.984375 17.28125 19.8125 11.734375 
Q 24.65625 6.203125 33.40625 6.203125 
Q 37.3125 6.203125 41.140625 7.25 
Q 44.96875 8.296875 48.78125 10.40625 
L 48.78125 2.09375 
Q 45.015625 0.34375 40.984375 -0.53125 
Q 36.96875 -1.421875 32.421875 -1.421875 
Q 20.0625 -1.421875 12.78125 6.34375 
Q 5.515625 14.109375 5.515625 27.296875 
Q 5.515625 40.671875 12.859375 48.328125 
Q 20.21875 56 33.015625 56 
Q 37.15625 56 41.109375 55.140625 
Q 45.0625 54.296875 48.78125 52.59375 
" id="BitstreamVeraSans-Roman-63"/>
      <path d="M 8.5 21.578125 
L 8.5 54.6875 
L 17.484375 54.6875 
L 17.484375 21.921875 
Q 17.484375 14.15625 20.5 10.265625 
Q 23.53125 6.390625 29.59375 6.390625 
Q 36.859375 6.390625 41.078125 11.03125 
Q 45.3125 15.671875 45.3125 23.6875 
L 45.3125 54.6875 
L 54.296875 54.6875 
L 54.296875 0 
L 45.3125 0 
L 45.3125 8.40625 
Q 42.046875 3.421875 37.71875 1 
Q 33.40625 -1.421875 27.6875 -1.421875 
Q 18.265625 -1.421875 13.375 4.4375 
Q 8.5 10.296875 8.5 21.578125 
" id="BitstreamVeraSans-Roman-75"/>
      <path d="M 45.40625 46.390625 
L 45.40625 75.984375 
L 54.390625 75.984375 
L 54.390625 0 
L 45.40625 0 
L 45.40625 8.203125 
Q 42.578125 3.328125 38.25 0.953125 
Q 33.9375 -1.421875 27.875 -1.421875 
Q 17.96875 -1.421875 11.734375 6.484375 
Q 5.515625 14.40625 5.515625 27.296875 
Q 5.515625 40.1875 11.734375 48.09375 
Q 17.96875 56 27.875 56 
Q 33.9375 56 38.25 53.625 
Q 42.578125 51.265625 45.40625 46.390625 
M 14.796875 27.296875 
Q 14.796875 17.390625 18.875 11.75 
Q 22.953125 6.109375 30.078125 6.109375 
Q 37.203125 6.109375 41.296875 11.75 
Q 45.40625 17.390625 45.40625 27.296875 
Q 45.40625 37.203125 41.296875 42.84375 
Q 37.203125 48.484375 30.078125 48.484375 
Q 22.953125 48.484375 18.875 42.84375 
Q 14.796875 37.203125 14.796875 27.296875 
" id="BitstreamVeraSans-Roman-64"/>
     </defs>
     <g transform="translate(22.194375 194.74125)rotate(-90.0)scale(0.12 -0.12)">
      <use xlink:href="#BitstreamVeraSans-Roman-63"/>
      <use x="54.98046875" xlink:href="#BitstreamVeraSans-Roman-61"/>
      <use x="116.259765625" xlink:href="#BitstreamVeraSans-Roman-6c"/>
      <use x="144.04296875" xlink:href="#BitstreamVeraSans-Roman-63"/>
      <use x="199.0234375" xlink:href="#BitstreamVeraSans-Roman-75"/>
      <use x="262.40234375" xlink:href="#BitstreamVeraSans-Roman-6c"/>
      <use x="290.185546875" xlink:href="#BitstreamVeraSans-Roman-61"/>
      <use x="351.46484375" xlink:href="#BitstreamVeraSans-Roman-74"/>
      <use x="390.673828125" xlink:href="#BitstreamVeraSans-Roman-65"/>
      <use x="452.197265625" xlink:href="#BitstreamVeraSans-Roman-64"/>
     </g>
    </g>
   </g>
  </g>
 </g>
 <defs>
  <clipPath id="p4462359828">
   <rect height="301.68" width="370.08" x="48.96" y="12.96"/>
  </clipPath>
 </defs>
</svg>
