<?xml version="1.0" encoding="utf-8" standalone="no"?>
<!DOCTYPE svg PUBLIC "-//W3C//DTD SVG 1.1//EN"
  "http://www.w3.org/Graphics/SVG/1.1/DTD/svg11.dtd">
<!-- Created with matplotlib (http://matplotlib.org/) -->
<svg height="360pt" version="1.1" viewBox="0 0 432 360" width="432pt" xmlns="http://www.w3.org/2000/svg" xmlns:xlink="http://www.w3.org/1999/xlink">
 <defs>
  <style type="text/css">
*{stroke-linecap:butt;stroke-linejoin:round;stroke-miterlimit:100000;}
  </style>
 </defs>
 <g id="figure_1">
  <g id="patch_1">
   <path d="M 0 360 
L 432 360 
L 432 0 
L 0 0 
z
" style="fill:#ffffff;"/>
  </g>
  <g id="axes_1">
   <g id="patch_2">
    <path d="M 51.5475 314.64 
L 419.04 314.64 
L 419.04 14.63104 
L 51.5475 14.63104 
z
" style="fill:#ffffff;"/>
   </g>
   <g id="line2d_1">
    <path clip-path="url(#peb5dd6b0b9)" d="M 51.5475 314.64 
L 55.991182 311.012322 
L 60.434864 307.384644 
L 64.878546 303.756966 
L 69.322228 300.129289 
L 73.76591 296.501611 
L 78.209592 292.873933 
L 82.653274 289.246255 
L 87.096956 285.618577 
L 91.540638 281.990899 
L 95.98432 278.363221 
L 100.428002 274.735543 
L 104.871684 271.107866 
L 109.315366 267.480188 
L 113.759048 263.85251 
L 118.20273 260.224832 
L 122.646412 256.597154 
L 127.090094 252.969476 
L 131.533776 249.341798 
L 135.977458 245.71412 
L 140.42114 242.086443 
L 144.864822 238.458765 
L 149.308504 234.831087 
L 153.752186 231.203409 
L 158.195868 227.575731 
L 162.63955 223.948053 
L 167.083232 220.320375 
L 171.526914 216.692697 
L 175.970596 213.06502 
L 180.414278 209.437342 
L 184.857959 205.809664 
L 189.301641 202.181986 
L 193.745323 198.554308 
L 198.189005 194.92663 
L 202.632687 191.298952 
L 207.076369 187.671274 
L 211.520051 184.043597 
L 215.963733 180.415919 
L 220.407415 176.788241 
L 224.851097 173.160563 
L 229.294779 169.532885 
L 233.738461 165.905207 
L 238.182143 162.277529 
L 242.625825 158.649851 
L 247.069507 155.022174 
L 251.513189 151.394496 
L 255.956871 147.766818 
L 260.400553 144.13914 
L 264.844235 140.511462 
L 269.287917 136.883784 
L 273.731599 133.256106 
L 278.175281 129.628428 
L 282.618963 126.000751 
L 287.062645 122.373073 
L 291.506327 118.745395 
L 295.950009 115.117717 
L 300.393691 111.490039 
L 304.837373 107.862361 
L 309.281055 104.234683 
L 313.724737 100.607005 
L 318.168419 96.979328 
L 322.612101 93.35165 
L 327.055783 89.723972 
L 331.499465 86.096294 
L 335.943147 82.468616 
L 340.386829 78.840938 
L 344.830511 75.21326 
L 349.274193 71.585583 
L 353.717875 67.957905 
L 358.161557 64.330227 
L 362.605239 60.702549 
L 367.048921 57.074871 
L 371.492603 53.447193 
L 375.936285 49.819515 
L 380.379967 46.191837 
L 384.823649 42.56416 
L 389.267331 38.936482 
L 393.711013 35.308804 
L 398.154695 31.681126 
L 402.598377 28.053448 
L 407.042059 24.42577 
L 411.485741 20.798092 
L 415.929423 17.170414 
L 420.373105 13.542737 
L 424.816787 9.915059 
L 429.260469 6.287381 
L 433 3.234549 
" style="fill:none;stroke:#ff0000;stroke-linecap:square;stroke-width:2.0;"/>
   </g>
   <g id="line2d_2">
    <defs>
     <path d="M 0 3 
C 0.795609 3 1.55874 2.683901 2.12132 2.12132 
C 2.683901 1.55874 3 0.795609 3 0 
C 3 -0.795609 2.683901 -1.55874 2.12132 -2.12132 
C 1.55874 -2.683901 0.795609 -3 0 -3 
C -0.795609 -3 -1.55874 -2.683901 -2.12132 -2.12132 
C -2.683901 -1.55874 -3 -0.795609 -3 0 
C -3 0.795609 -2.683901 1.55874 -2.12132 2.12132 
C -1.55874 2.683901 -0.795609 3 0 3 
z
" id="m14cc78f243" style="stroke:#000000;stroke-width:0.5;"/>
    </defs>
    <g clip-path="url(#peb5dd6b0b9)">
     <use style="fill:#0000ff;stroke:#000000;stroke-width:0.5;" x="108.870997582" xlink:href="#m14cc78f243" y="233.813885919"/>
     <use style="fill:#0000ff;stroke:#000000;stroke-width:0.5;" x="243.07019347" xlink:href="#m14cc78f243" y="154.663759014"/>
     <use style="fill:#0000ff;stroke:#000000;stroke-width:0.5;" x="90.2075332527" xlink:href="#m14cc78f243" y="242.201077161"/>
     <use style="fill:#0000ff;stroke:#000000;stroke-width:0.5;" x="234.627197703" xlink:href="#m14cc78f243" y="174.512235729"/>
     <use style="fill:#0000ff;stroke:#000000;stroke-width:0.5;" x="127.090093712" xlink:href="#m14cc78f243" y="256.957745213"/>
     <use style="fill:#0000ff;stroke:#000000;stroke-width:0.5;" x="288.840117896" xlink:href="#m14cc78f243" y="165.060683798"/>
     <use style="fill:#0000ff;stroke:#000000;stroke-width:0.5;" x="241.737088875" xlink:href="#m14cc78f243" y="125.351396265"/>
     <use style="fill:#0000ff;stroke:#000000;stroke-width:0.5;" x="132.422512092" xlink:href="#m14cc78f243" y="216.576248969"/>
     <use style="fill:#0000ff;stroke:#000000;stroke-width:0.5;" x="200.855214631" xlink:href="#m14cc78f243" y="186.904020575"/>
     <use style="fill:#0000ff;stroke:#000000;stroke-width:0.5;" x="375.936284764" xlink:href="#m14cc78f243" y="126.335585272"/>
     <use style="fill:#0000ff;stroke:#000000;stroke-width:0.5;" x="124.423884522" xlink:href="#m14cc78f243" y="238.887556192"/>
     <use style="fill:#0000ff;stroke:#000000;stroke-width:0.5;" x="405.708954051" xlink:href="#m14cc78f243" y="112.398772419"/>
     <use style="fill:#0000ff;stroke:#000000;stroke-width:0.5;" x="114.64778416" xlink:href="#m14cc78f243" y="253.183509154"/>
     <use style="fill:#0000ff;stroke:#000000;stroke-width:0.5;" x="137.310562273" xlink:href="#m14cc78f243" y="223.921933894"/>
     <use style="fill:#0000ff;stroke:#000000;stroke-width:0.5;" x="263.511130593" xlink:href="#m14cc78f243" y="150.446583487"/>
     <use style="fill:#0000ff;stroke:#000000;stroke-width:0.5;" x="128.423198307" xlink:href="#m14cc78f243" y="224.839010861"/>
     <use style="fill:#0000ff;stroke:#000000;stroke-width:0.5;" x="180.858645707" xlink:href="#m14cc78f243" y="200.61083865"/>
     <use style="fill:#0000ff;stroke:#000000;stroke-width:0.5;" x="267.954812576" xlink:href="#m14cc78f243" y="185.186315102"/>
     <use style="fill:#0000ff;stroke:#000000;stroke-width:0.5;" x="274.175967352" xlink:href="#m14cc78f243" y="156.997806958"/>
     <use style="fill:#0000ff;stroke:#000000;stroke-width:0.5;" x="202.188319226" xlink:href="#m14cc78f243" y="143.262692995"/>
     <use style="fill:#0000ff;stroke:#000000;stroke-width:0.5;" x="302.615532044" xlink:href="#m14cc78f243" y="121.565914404"/>
     <use style="fill:#0000ff;stroke:#000000;stroke-width:0.5;" x="64.8785459492" xlink:href="#m14cc78f243" y="241.539751485"/>
     <use style="fill:#0000ff;stroke:#000000;stroke-width:0.5;" x="325.722678356" xlink:href="#m14cc78f243" y="96.6902016938"/>
     <use style="fill:#0000ff;stroke:#000000;stroke-width:0.5;" x="210.186946796" xlink:href="#m14cc78f243" y="149.929276622"/>
     <use style="fill:#0000ff;stroke:#000000;stroke-width:0.5;" x="267.510444377" xlink:href="#m14cc78f243" y="176.102609708"/>
     <use style="fill:#0000ff;stroke:#000000;stroke-width:0.5;" x="187.524168682" xlink:href="#m14cc78f243" y="185.692013398"/>
     <use style="fill:#0000ff;stroke:#000000;stroke-width:0.5;" x="189.301641475" xlink:href="#m14cc78f243" y="121.229991433"/>
     <use style="fill:#0000ff;stroke:#000000;stroke-width:0.5;" x="281.730226723" xlink:href="#m14cc78f243" y="122.292538282"/>
     <use style="fill:#0000ff;stroke:#000000;stroke-width:0.5;" x="169.305072551" xlink:href="#m14cc78f243" y="234.661674237"/>
     <use style="fill:#0000ff;stroke:#000000;stroke-width:0.5;" x="171.082545345" xlink:href="#m14cc78f243" y="223.191682339"/>
     <use style="fill:#0000ff;stroke:#000000;stroke-width:0.5;" x="151.530344619" xlink:href="#m14cc78f243" y="170.661818434"/>
     <use style="fill:#0000ff;stroke:#000000;stroke-width:0.5;" x="305.281741233" xlink:href="#m14cc78f243" y="125.075692747"/>
     <use style="fill:#0000ff;stroke:#000000;stroke-width:0.5;" x="183.969223096" xlink:href="#m14cc78f243" y="184.464407205"/>
     <use style="fill:#0000ff;stroke:#000000;stroke-width:0.5;" x="355.93971584" xlink:href="#m14cc78f243" y="145.025744441"/>
     <use style="fill:#0000ff;stroke:#000000;stroke-width:0.5;" x="255.512503023" xlink:href="#m14cc78f243" y="175.933922687"/>
     <use style="fill:#0000ff;stroke:#000000;stroke-width:0.5;" x="257.289975816" xlink:href="#m14cc78f243" y="114.849994358"/>
     <use style="fill:#0000ff;stroke:#000000;stroke-width:0.5;" x="169.74944075" xlink:href="#m14cc78f243" y="220.596804356"/>
     <use style="fill:#0000ff;stroke:#000000;stroke-width:0.5;" x="307.059214027" xlink:href="#m14cc78f243" y="101.619853155"/>
     <use style="fill:#0000ff;stroke:#000000;stroke-width:0.5;" x="312.836000605" xlink:href="#m14cc78f243" y="96.9488551261"/>
     <use style="fill:#0000ff;stroke:#000000;stroke-width:0.5;" x="143.976085248" xlink:href="#m14cc78f243" y="213.609534005"/>
     <use style="fill:#0000ff;stroke:#000000;stroke-width:0.5;" x="307.947950423" xlink:href="#m14cc78f243" y="106.16533353"/>
     <use style="fill:#0000ff;stroke:#000000;stroke-width:0.5;" x="267.066076179" xlink:href="#m14cc78f243" y="177.963608457"/>
     <use style="fill:#0000ff;stroke:#000000;stroke-width:0.5;" x="329.72199214" xlink:href="#m14cc78f243" y="145.03082319"/>
     <use style="fill:#0000ff;stroke:#000000;stroke-width:0.5;" x="141.754244256" xlink:href="#m14cc78f243" y="163.537421859"/>
     <use style="fill:#0000ff;stroke:#000000;stroke-width:0.5;" x="378.158125756" xlink:href="#m14cc78f243" y="115.677104913"/>
     <use style="fill:#0000ff;stroke:#000000;stroke-width:0.5;" x="183.080486699" xlink:href="#m14cc78f243" y="170.016817308"/>
     <use style="fill:#0000ff;stroke:#000000;stroke-width:0.5;" x="172.860018138" xlink:href="#m14cc78f243" y="134.756876686"/>
     <use style="fill:#0000ff;stroke:#000000;stroke-width:0.5;" x="400.820903869" xlink:href="#m14cc78f243" y="128.600344568"/>
     <use style="fill:#0000ff;stroke:#000000;stroke-width:0.5;" x="209.298210399" xlink:href="#m14cc78f243" y="195.319507705"/>
     <use style="fill:#0000ff;stroke:#000000;stroke-width:0.5;" x="272.842862757" xlink:href="#m14cc78f243" y="122.159039737"/>
     <use style="fill:#0000ff;stroke:#000000;stroke-width:0.5;" x="97.3174244256" xlink:href="#m14cc78f243" y="235.942244527"/>
     <use style="fill:#0000ff;stroke:#000000;stroke-width:0.5;" x="224.406729141" xlink:href="#m14cc78f243" y="115.0038079"/>
     <use style="fill:#0000ff;stroke:#000000;stroke-width:0.5;" x="373.270075574" xlink:href="#m14cc78f243" y="145.059481846"/>
     <use style="fill:#0000ff;stroke:#000000;stroke-width:0.5;" x="161.306444982" xlink:href="#m14cc78f243" y="193.972188143"/>
     <use style="fill:#0000ff;stroke:#000000;stroke-width:0.5;" x="89.7631650544" xlink:href="#m14cc78f243" y="223.413696224"/>
     <use style="fill:#0000ff;stroke:#000000;stroke-width:0.5;" x="107.982261185" xlink:href="#m14cc78f243" y="202.179446563"/>
     <use style="fill:#0000ff;stroke:#000000;stroke-width:0.5;" x="115.980888755" xlink:href="#m14cc78f243" y="229.965645231"/>
     <use style="fill:#0000ff;stroke:#000000;stroke-width:0.5;" x="253.290662031" xlink:href="#m14cc78f243" y="168.188830428"/>
     <use style="fill:#0000ff;stroke:#000000;stroke-width:0.5;" x="144.864821644" xlink:href="#m14cc78f243" y="255.960133798"/>
     <use style="fill:#0000ff;stroke:#000000;stroke-width:0.5;" x="132.422512092" xlink:href="#m14cc78f243" y="225.83916165"/>
     <use style="fill:#0000ff;stroke:#000000;stroke-width:0.5;" x="204.854528416" xlink:href="#m14cc78f243" y="176.224136917"/>
    </g>
   </g>
   <g id="patch_3">
    <path d="M 51.5475 14.63104 
L 419.04 14.63104 
" style="fill:none;stroke:#000000;stroke-linecap:square;stroke-linejoin:miter;"/>
   </g>
   <g id="patch_4">
    <path d="M 51.5475 314.64 
L 419.04 314.64 
" style="fill:none;stroke:#000000;stroke-linecap:square;stroke-linejoin:miter;"/>
   </g>
   <g id="patch_5">
    <path d="M 419.04 314.64 
L 419.04 14.63104 
" style="fill:none;stroke:#000000;stroke-linecap:square;stroke-linejoin:miter;"/>
   </g>
   <g id="patch_6">
    <path d="M 51.5475 314.64 
L 51.5475 14.63104 
" style="fill:none;stroke:#000000;stroke-linecap:square;stroke-linejoin:miter;"/>
   </g>
   <g id="matplotlib.axis_1">
    <g id="xtick_1">
     <g id="line2d_3">
      <defs>
       <path d="M 0 0 
L 0 -4 
" id="mf6329ce25e" style="stroke:#000000;stroke-width:0.5;"/>
      </defs>
      <g>
       <use style="stroke:#000000;stroke-width:0.5;" x="58.2130229746" xlink:href="#mf6329ce25e" y="314.64"/>
      </g>
     </g>
     <g id="line2d_4">
      <defs>
       <path d="M 0 0 
L 0 4 
" id="m9a1d92ed25" style="stroke:#000000;stroke-width:0.5;"/>
      </defs>
      <g>
       <use style="stroke:#000000;stroke-width:0.5;" x="58.2130229746" xlink:href="#m9a1d92ed25" y="14.6310399033"/>
      </g>
     </g>
     <g id="text_1">
      <!-- −4 -->
      <defs>
       <path d="M 10.59375 35.5 
L 73.1875 35.5 
L 73.1875 27.203125 
L 10.59375 27.203125 
z
" id="BitstreamVeraSans-Roman-2212"/>
       <path d="M 37.796875 64.3125 
L 12.890625 25.390625 
L 37.796875 25.390625 
z
M 35.203125 72.90625 
L 47.609375 72.90625 
L 47.609375 25.390625 
L 58.015625 25.390625 
L 58.015625 17.1875 
L 47.609375 17.1875 
L 47.609375 0 
L 37.796875 0 
L 37.796875 17.1875 
L 4.890625 17.1875 
L 4.890625 26.703125 
z
" id="BitstreamVeraSans-Roman-34"/>
      </defs>
      <g transform="translate(49.3677104746 327.758125)scale(0.12 -0.12)">
       <use xlink:href="#BitstreamVeraSans-Roman-2212"/>
       <use x="83.7890625" xlink:href="#BitstreamVeraSans-Roman-34"/>
      </g>
     </g>
    </g>
    <g id="xtick_2">
     <g id="line2d_5">
      <g>
       <use style="stroke:#000000;stroke-width:0.5;" x="102.649842805" xlink:href="#mf6329ce25e" y="314.64"/>
      </g>
     </g>
     <g id="line2d_6">
      <g>
       <use style="stroke:#000000;stroke-width:0.5;" x="102.649842805" xlink:href="#m9a1d92ed25" y="14.6310399033"/>
      </g>
     </g>
     <g id="text_2">
      <!-- −3 -->
      <defs>
       <path d="M 40.578125 39.3125 
Q 47.65625 37.796875 51.625 33 
Q 55.609375 28.21875 55.609375 21.1875 
Q 55.609375 10.40625 48.1875 4.484375 
Q 40.765625 -1.421875 27.09375 -1.421875 
Q 22.515625 -1.421875 17.65625 -0.515625 
Q 12.796875 0.390625 7.625 2.203125 
L 7.625 11.71875 
Q 11.71875 9.328125 16.59375 8.109375 
Q 21.484375 6.890625 26.8125 6.890625 
Q 36.078125 6.890625 40.9375 10.546875 
Q 45.796875 14.203125 45.796875 21.1875 
Q 45.796875 27.640625 41.28125 31.265625 
Q 36.765625 34.90625 28.71875 34.90625 
L 20.21875 34.90625 
L 20.21875 43.015625 
L 29.109375 43.015625 
Q 36.375 43.015625 40.234375 45.921875 
Q 44.09375 48.828125 44.09375 54.296875 
Q 44.09375 59.90625 40.109375 62.90625 
Q 36.140625 65.921875 28.71875 65.921875 
Q 24.65625 65.921875 20.015625 65.03125 
Q 15.375 64.15625 9.8125 62.3125 
L 9.8125 71.09375 
Q 15.4375 72.65625 20.34375 73.4375 
Q 25.25 74.21875 29.59375 74.21875 
Q 40.828125 74.21875 47.359375 69.109375 
Q 53.90625 64.015625 53.90625 55.328125 
Q 53.90625 49.265625 50.4375 45.09375 
Q 46.96875 40.921875 40.578125 39.3125 
" id="BitstreamVeraSans-Roman-33"/>
      </defs>
      <g transform="translate(93.8045303053 327.758125)scale(0.12 -0.12)">
       <use xlink:href="#BitstreamVeraSans-Roman-2212"/>
       <use x="83.7890625" xlink:href="#BitstreamVeraSans-Roman-33"/>
      </g>
     </g>
    </g>
    <g id="xtick_3">
     <g id="line2d_7">
      <g>
       <use style="stroke:#000000;stroke-width:0.5;" x="147.086662636" xlink:href="#mf6329ce25e" y="314.64"/>
      </g>
     </g>
     <g id="line2d_8">
      <g>
       <use style="stroke:#000000;stroke-width:0.5;" x="147.086662636" xlink:href="#m9a1d92ed25" y="14.6310399033"/>
      </g>
     </g>
     <g id="text_3">
      <!-- −2 -->
      <defs>
       <path d="M 19.1875 8.296875 
L 53.609375 8.296875 
L 53.609375 0 
L 7.328125 0 
L 7.328125 8.296875 
Q 12.9375 14.109375 22.625 23.890625 
Q 32.328125 33.6875 34.8125 36.53125 
Q 39.546875 41.84375 41.421875 45.53125 
Q 43.3125 49.21875 43.3125 52.78125 
Q 43.3125 58.59375 39.234375 62.25 
Q 35.15625 65.921875 28.609375 65.921875 
Q 23.96875 65.921875 18.8125 64.3125 
Q 13.671875 62.703125 7.8125 59.421875 
L 7.8125 69.390625 
Q 13.765625 71.78125 18.9375 73 
Q 24.125 74.21875 28.421875 74.21875 
Q 39.75 74.21875 46.484375 68.546875 
Q 53.21875 62.890625 53.21875 53.421875 
Q 53.21875 48.921875 51.53125 44.890625 
Q 49.859375 40.875 45.40625 35.40625 
Q 44.1875 33.984375 37.640625 27.21875 
Q 31.109375 20.453125 19.1875 8.296875 
" id="BitstreamVeraSans-Roman-32"/>
      </defs>
      <g transform="translate(138.241350136 327.758125)scale(0.12 -0.12)">
       <use xlink:href="#BitstreamVeraSans-Roman-2212"/>
       <use x="83.7890625" xlink:href="#BitstreamVeraSans-Roman-32"/>
      </g>
     </g>
    </g>
    <g id="xtick_4">
     <g id="line2d_9">
      <g>
       <use style="stroke:#000000;stroke-width:0.5;" x="191.523482467" xlink:href="#mf6329ce25e" y="314.64"/>
      </g>
     </g>
     <g id="line2d_10">
      <g>
       <use style="stroke:#000000;stroke-width:0.5;" x="191.523482467" xlink:href="#m9a1d92ed25" y="14.6310399033"/>
      </g>
     </g>
     <g id="text_4">
      <!-- −1 -->
      <defs>
       <path d="M 12.40625 8.296875 
L 28.515625 8.296875 
L 28.515625 63.921875 
L 10.984375 60.40625 
L 10.984375 69.390625 
L 28.421875 72.90625 
L 38.28125 72.90625 
L 38.28125 8.296875 
L 54.390625 8.296875 
L 54.390625 0 
L 12.40625 0 
z
" id="BitstreamVeraSans-Roman-31"/>
      </defs>
      <g transform="translate(182.678169967 327.758125)scale(0.12 -0.12)">
       <use xlink:href="#BitstreamVeraSans-Roman-2212"/>
       <use x="83.7890625" xlink:href="#BitstreamVeraSans-Roman-31"/>
      </g>
     </g>
    </g>
    <g id="xtick_5">
     <g id="line2d_11">
      <g>
       <use style="stroke:#000000;stroke-width:0.5;" x="235.960302297" xlink:href="#mf6329ce25e" y="314.64"/>
      </g>
     </g>
     <g id="line2d_12">
      <g>
       <use style="stroke:#000000;stroke-width:0.5;" x="235.960302297" xlink:href="#m9a1d92ed25" y="14.6310399033"/>
      </g>
     </g>
     <g id="text_5">
      <!-- 0 -->
      <defs>
       <path d="M 31.78125 66.40625 
Q 24.171875 66.40625 20.328125 58.90625 
Q 16.5 51.421875 16.5 36.375 
Q 16.5 21.390625 20.328125 13.890625 
Q 24.171875 6.390625 31.78125 6.390625 
Q 39.453125 6.390625 43.28125 13.890625 
Q 47.125 21.390625 47.125 36.375 
Q 47.125 51.421875 43.28125 58.90625 
Q 39.453125 66.40625 31.78125 66.40625 
M 31.78125 74.21875 
Q 44.046875 74.21875 50.515625 64.515625 
Q 56.984375 54.828125 56.984375 36.375 
Q 56.984375 17.96875 50.515625 8.265625 
Q 44.046875 -1.421875 31.78125 -1.421875 
Q 19.53125 -1.421875 13.0625 8.265625 
Q 6.59375 17.96875 6.59375 36.375 
Q 6.59375 54.828125 13.0625 64.515625 
Q 19.53125 74.21875 31.78125 74.21875 
" id="BitstreamVeraSans-Roman-30"/>
      </defs>
      <g transform="translate(232.142802297 327.758125)scale(0.12 -0.12)">
       <use xlink:href="#BitstreamVeraSans-Roman-30"/>
      </g>
     </g>
    </g>
    <g id="xtick_6">
     <g id="line2d_13">
      <g>
       <use style="stroke:#000000;stroke-width:0.5;" x="280.397122128" xlink:href="#mf6329ce25e" y="314.64"/>
      </g>
     </g>
     <g id="line2d_14">
      <g>
       <use style="stroke:#000000;stroke-width:0.5;" x="280.397122128" xlink:href="#m9a1d92ed25" y="14.6310399033"/>
      </g>
     </g>
     <g id="text_6">
      <!-- 1 -->
      <g transform="translate(276.579622128 327.758125)scale(0.12 -0.12)">
       <use xlink:href="#BitstreamVeraSans-Roman-31"/>
      </g>
     </g>
    </g>
    <g id="xtick_7">
     <g id="line2d_15">
      <g>
       <use style="stroke:#000000;stroke-width:0.5;" x="324.833941959" xlink:href="#mf6329ce25e" y="314.64"/>
      </g>
     </g>
     <g id="line2d_16">
      <g>
       <use style="stroke:#000000;stroke-width:0.5;" x="324.833941959" xlink:href="#m9a1d92ed25" y="14.6310399033"/>
      </g>
     </g>
     <g id="text_7">
      <!-- 2 -->
      <g transform="translate(321.016441959 327.758125)scale(0.12 -0.12)">
       <use xlink:href="#BitstreamVeraSans-Roman-32"/>
      </g>
     </g>
    </g>
    <g id="xtick_8">
     <g id="line2d_17">
      <g>
       <use style="stroke:#000000;stroke-width:0.5;" x="369.27076179" xlink:href="#mf6329ce25e" y="314.64"/>
      </g>
     </g>
     <g id="line2d_18">
      <g>
       <use style="stroke:#000000;stroke-width:0.5;" x="369.27076179" xlink:href="#m9a1d92ed25" y="14.6310399033"/>
      </g>
     </g>
     <g id="text_8">
      <!-- 3 -->
      <g transform="translate(365.45326179 327.758125)scale(0.12 -0.12)">
       <use xlink:href="#BitstreamVeraSans-Roman-33"/>
      </g>
     </g>
    </g>
    <g id="xtick_9">
     <g id="line2d_19">
      <g>
       <use style="stroke:#000000;stroke-width:0.5;" x="413.70758162" xlink:href="#mf6329ce25e" y="314.64"/>
      </g>
     </g>
     <g id="line2d_20">
      <g>
       <use style="stroke:#000000;stroke-width:0.5;" x="413.70758162" xlink:href="#m9a1d92ed25" y="14.6310399033"/>
      </g>
     </g>
     <g id="text_9">
      <!-- 4 -->
      <g transform="translate(409.89008162 327.758125)scale(0.12 -0.12)">
       <use xlink:href="#BitstreamVeraSans-Roman-34"/>
      </g>
     </g>
    </g>
    <g id="text_10">
     <!-- experimental -->
     <defs>
      <path d="M 56.203125 29.59375 
L 56.203125 25.203125 
L 14.890625 25.203125 
Q 15.484375 15.921875 20.484375 11.0625 
Q 25.484375 6.203125 34.421875 6.203125 
Q 39.59375 6.203125 44.453125 7.46875 
Q 49.3125 8.734375 54.109375 11.28125 
L 54.109375 2.78125 
Q 49.265625 0.734375 44.1875 -0.34375 
Q 39.109375 -1.421875 33.890625 -1.421875 
Q 20.796875 -1.421875 13.15625 6.1875 
Q 5.515625 13.8125 5.515625 26.8125 
Q 5.515625 40.234375 12.765625 48.109375 
Q 20.015625 56 32.328125 56 
Q 43.359375 56 49.78125 48.890625 
Q 56.203125 41.796875 56.203125 29.59375 
M 47.21875 32.234375 
Q 47.125 39.59375 43.09375 43.984375 
Q 39.0625 48.390625 32.421875 48.390625 
Q 24.90625 48.390625 20.390625 44.140625 
Q 15.875 39.890625 15.1875 32.171875 
z
" id="BitstreamVeraSans-Roman-65"/>
      <path d="M 54.890625 33.015625 
L 54.890625 0 
L 45.90625 0 
L 45.90625 32.71875 
Q 45.90625 40.484375 42.875 44.328125 
Q 39.84375 48.1875 33.796875 48.1875 
Q 26.515625 48.1875 22.3125 43.546875 
Q 18.109375 38.921875 18.109375 30.90625 
L 18.109375 0 
L 9.078125 0 
L 9.078125 54.6875 
L 18.109375 54.6875 
L 18.109375 46.1875 
Q 21.34375 51.125 25.703125 53.5625 
Q 30.078125 56 35.796875 56 
Q 45.21875 56 50.046875 50.171875 
Q 54.890625 44.34375 54.890625 33.015625 
" id="BitstreamVeraSans-Roman-6e"/>
      <path d="M 18.109375 8.203125 
L 18.109375 -20.796875 
L 9.078125 -20.796875 
L 9.078125 54.6875 
L 18.109375 54.6875 
L 18.109375 46.390625 
Q 20.953125 51.265625 25.265625 53.625 
Q 29.59375 56 35.59375 56 
Q 45.5625 56 51.78125 48.09375 
Q 58.015625 40.1875 58.015625 27.296875 
Q 58.015625 14.40625 51.78125 6.484375 
Q 45.5625 -1.421875 35.59375 -1.421875 
Q 29.59375 -1.421875 25.265625 0.953125 
Q 20.953125 3.328125 18.109375 8.203125 
M 48.6875 27.296875 
Q 48.6875 37.203125 44.609375 42.84375 
Q 40.53125 48.484375 33.40625 48.484375 
Q 26.265625 48.484375 22.1875 42.84375 
Q 18.109375 37.203125 18.109375 27.296875 
Q 18.109375 17.390625 22.1875 11.75 
Q 26.265625 6.109375 33.40625 6.109375 
Q 40.53125 6.109375 44.609375 11.75 
Q 48.6875 17.390625 48.6875 27.296875 
" id="BitstreamVeraSans-Roman-70"/>
      <path d="M 34.28125 27.484375 
Q 23.390625 27.484375 19.1875 25 
Q 14.984375 22.515625 14.984375 16.5 
Q 14.984375 11.71875 18.140625 8.90625 
Q 21.296875 6.109375 26.703125 6.109375 
Q 34.1875 6.109375 38.703125 11.40625 
Q 43.21875 16.703125 43.21875 25.484375 
L 43.21875 27.484375 
z
M 52.203125 31.203125 
L 52.203125 0 
L 43.21875 0 
L 43.21875 8.296875 
Q 40.140625 3.328125 35.546875 0.953125 
Q 30.953125 -1.421875 24.3125 -1.421875 
Q 15.921875 -1.421875 10.953125 3.296875 
Q 6 8.015625 6 15.921875 
Q 6 25.140625 12.171875 29.828125 
Q 18.359375 34.515625 30.609375 34.515625 
L 43.21875 34.515625 
L 43.21875 35.40625 
Q 43.21875 41.609375 39.140625 45 
Q 35.0625 48.390625 27.6875 48.390625 
Q 23 48.390625 18.546875 47.265625 
Q 14.109375 46.140625 10.015625 43.890625 
L 10.015625 52.203125 
Q 14.9375 54.109375 19.578125 55.046875 
Q 24.21875 56 28.609375 56 
Q 40.484375 56 46.34375 49.84375 
Q 52.203125 43.703125 52.203125 31.203125 
" id="BitstreamVeraSans-Roman-61"/>
      <path d="M 18.3125 70.21875 
L 18.3125 54.6875 
L 36.8125 54.6875 
L 36.8125 47.703125 
L 18.3125 47.703125 
L 18.3125 18.015625 
Q 18.3125 11.328125 20.140625 9.421875 
Q 21.96875 7.515625 27.59375 7.515625 
L 36.8125 7.515625 
L 36.8125 0 
L 27.59375 0 
Q 17.1875 0 13.234375 3.875 
Q 9.28125 7.765625 9.28125 18.015625 
L 9.28125 47.703125 
L 2.6875 47.703125 
L 2.6875 54.6875 
L 9.28125 54.6875 
L 9.28125 70.21875 
z
" id="BitstreamVeraSans-Roman-74"/>
      <path d="M 9.421875 75.984375 
L 18.40625 75.984375 
L 18.40625 0 
L 9.421875 0 
z
" id="BitstreamVeraSans-Roman-6c"/>
      <path d="M 9.421875 54.6875 
L 18.40625 54.6875 
L 18.40625 0 
L 9.421875 0 
z
M 9.421875 75.984375 
L 18.40625 75.984375 
L 18.40625 64.59375 
L 9.421875 64.59375 
z
" id="BitstreamVeraSans-Roman-69"/>
      <path d="M 41.109375 46.296875 
Q 39.59375 47.171875 37.8125 47.578125 
Q 36.03125 48 33.890625 48 
Q 26.265625 48 22.1875 43.046875 
Q 18.109375 38.09375 18.109375 28.8125 
L 18.109375 0 
L 9.078125 0 
L 9.078125 54.6875 
L 18.109375 54.6875 
L 18.109375 46.1875 
Q 20.953125 51.171875 25.484375 53.578125 
Q 30.03125 56 36.53125 56 
Q 37.453125 56 38.578125 55.875 
Q 39.703125 55.765625 41.0625 55.515625 
z
" id="BitstreamVeraSans-Roman-72"/>
      <path d="M 52 44.1875 
Q 55.375 50.25 60.0625 53.125 
Q 64.75 56 71.09375 56 
Q 79.640625 56 84.28125 50.015625 
Q 88.921875 44.046875 88.921875 33.015625 
L 88.921875 0 
L 79.890625 0 
L 79.890625 32.71875 
Q 79.890625 40.578125 77.09375 44.375 
Q 74.3125 48.1875 68.609375 48.1875 
Q 61.625 48.1875 57.5625 43.546875 
Q 53.515625 38.921875 53.515625 30.90625 
L 53.515625 0 
L 44.484375 0 
L 44.484375 32.71875 
Q 44.484375 40.625 41.703125 44.40625 
Q 38.921875 48.1875 33.109375 48.1875 
Q 26.21875 48.1875 22.15625 43.53125 
Q 18.109375 38.875 18.109375 30.90625 
L 18.109375 0 
L 9.078125 0 
L 9.078125 54.6875 
L 18.109375 54.6875 
L 18.109375 46.1875 
Q 21.1875 51.21875 25.484375 53.609375 
Q 29.78125 56 35.6875 56 
Q 41.65625 56 45.828125 52.96875 
Q 50 49.953125 52 44.1875 
" id="BitstreamVeraSans-Roman-6d"/>
      <path d="M 54.890625 54.6875 
L 35.109375 28.078125 
L 55.90625 0 
L 45.3125 0 
L 29.390625 21.484375 
L 13.484375 0 
L 2.875 0 
L 24.125 28.609375 
L 4.6875 54.6875 
L 15.28125 54.6875 
L 29.78125 35.203125 
L 44.28125 54.6875 
z
" id="BitstreamVeraSans-Roman-78"/>
     </defs>
     <g transform="translate(195.3825 344.371875)scale(0.12 -0.12)">
      <use xlink:href="#BitstreamVeraSans-Roman-65"/>
      <use x="61.5078125" xlink:href="#BitstreamVeraSans-Roman-78"/>
      <use x="120.6875" xlink:href="#BitstreamVeraSans-Roman-70"/>
      <use x="184.1640625" xlink:href="#BitstreamVeraSans-Roman-65"/>
      <use x="245.6875" xlink:href="#BitstreamVeraSans-Roman-72"/>
      <use x="286.80078125" xlink:href="#BitstreamVeraSans-Roman-69"/>
      <use x="314.583984375" xlink:href="#BitstreamVeraSans-Roman-6d"/>
      <use x="411.99609375" xlink:href="#BitstreamVeraSans-Roman-65"/>
      <use x="473.51953125" xlink:href="#BitstreamVeraSans-Roman-6e"/>
      <use x="536.8984375" xlink:href="#BitstreamVeraSans-Roman-74"/>
      <use x="576.107421875" xlink:href="#BitstreamVeraSans-Roman-61"/>
      <use x="637.38671875" xlink:href="#BitstreamVeraSans-Roman-6c"/>
     </g>
    </g>
   </g>
   <g id="matplotlib.axis_2">
    <g id="ytick_1">
     <g id="line2d_21">
      <defs>
       <path d="M 0 0 
L 4 0 
" id="m4acb6edc3c" style="stroke:#000000;stroke-width:0.5;"/>
      </defs>
      <g>
       <use style="stroke:#000000;stroke-width:0.5;" x="51.5475" xlink:href="#m4acb6edc3c" y="309.198483191"/>
      </g>
     </g>
     <g id="line2d_22">
      <defs>
       <path d="M 0 0 
L -4 0 
" id="ma7200ea315" style="stroke:#000000;stroke-width:0.5;"/>
      </defs>
      <g>
       <use style="stroke:#000000;stroke-width:0.5;" x="419.04" xlink:href="#ma7200ea315" y="309.198483191"/>
      </g>
     </g>
     <g id="text_11">
      <!-- −4 -->
      <g transform="translate(29.856875 312.509733191)scale(0.12 -0.12)">
       <use xlink:href="#BitstreamVeraSans-Roman-2212"/>
       <use x="83.7890625" xlink:href="#BitstreamVeraSans-Roman-34"/>
      </g>
     </g>
    </g>
    <g id="ytick_2">
     <g id="line2d_23">
      <g>
       <use style="stroke:#000000;stroke-width:0.5;" x="51.5475" xlink:href="#m4acb6edc3c" y="272.921704461"/>
      </g>
     </g>
     <g id="line2d_24">
      <g>
       <use style="stroke:#000000;stroke-width:0.5;" x="419.04" xlink:href="#ma7200ea315" y="272.921704461"/>
      </g>
     </g>
     <g id="text_12">
      <!-- −3 -->
      <g transform="translate(29.856875 276.232954461)scale(0.12 -0.12)">
       <use xlink:href="#BitstreamVeraSans-Roman-2212"/>
       <use x="83.7890625" xlink:href="#BitstreamVeraSans-Roman-33"/>
      </g>
     </g>
    </g>
    <g id="ytick_3">
     <g id="line2d_25">
      <g>
       <use style="stroke:#000000;stroke-width:0.5;" x="51.5475" xlink:href="#m4acb6edc3c" y="236.644925731"/>
      </g>
     </g>
     <g id="line2d_26">
      <g>
       <use style="stroke:#000000;stroke-width:0.5;" x="419.04" xlink:href="#ma7200ea315" y="236.644925731"/>
      </g>
     </g>
     <g id="text_13">
      <!-- −2 -->
      <g transform="translate(29.856875 239.956175731)scale(0.12 -0.12)">
       <use xlink:href="#BitstreamVeraSans-Roman-2212"/>
       <use x="83.7890625" xlink:href="#BitstreamVeraSans-Roman-32"/>
      </g>
     </g>
    </g>
    <g id="ytick_4">
     <g id="line2d_27">
      <g>
       <use style="stroke:#000000;stroke-width:0.5;" x="51.5475" xlink:href="#m4acb6edc3c" y="200.368147001"/>
      </g>
     </g>
     <g id="line2d_28">
      <g>
       <use style="stroke:#000000;stroke-width:0.5;" x="419.04" xlink:href="#ma7200ea315" y="200.368147001"/>
      </g>
     </g>
     <g id="text_14">
      <!-- −1 -->
      <g transform="translate(29.856875 203.679397001)scale(0.12 -0.12)">
       <use xlink:href="#BitstreamVeraSans-Roman-2212"/>
       <use x="83.7890625" xlink:href="#BitstreamVeraSans-Roman-31"/>
      </g>
     </g>
    </g>
    <g id="ytick_5">
     <g id="line2d_29">
      <g>
       <use style="stroke:#000000;stroke-width:0.5;" x="51.5475" xlink:href="#m4acb6edc3c" y="164.091368271"/>
      </g>
     </g>
     <g id="line2d_30">
      <g>
       <use style="stroke:#000000;stroke-width:0.5;" x="419.04" xlink:href="#ma7200ea315" y="164.091368271"/>
      </g>
     </g>
     <g id="text_15">
      <!-- 0 -->
      <g transform="translate(39.9125 167.402618271)scale(0.12 -0.12)">
       <use xlink:href="#BitstreamVeraSans-Roman-30"/>
      </g>
     </g>
    </g>
    <g id="ytick_6">
     <g id="line2d_31">
      <g>
       <use style="stroke:#000000;stroke-width:0.5;" x="51.5475" xlink:href="#m4acb6edc3c" y="127.814589541"/>
      </g>
     </g>
     <g id="line2d_32">
      <g>
       <use style="stroke:#000000;stroke-width:0.5;" x="419.04" xlink:href="#ma7200ea315" y="127.814589541"/>
      </g>
     </g>
     <g id="text_16">
      <!-- 1 -->
      <g transform="translate(39.9125 131.125839541)scale(0.12 -0.12)">
       <use xlink:href="#BitstreamVeraSans-Roman-31"/>
      </g>
     </g>
    </g>
    <g id="ytick_7">
     <g id="line2d_33">
      <g>
       <use style="stroke:#000000;stroke-width:0.5;" x="51.5475" xlink:href="#m4acb6edc3c" y="91.5378108108"/>
      </g>
     </g>
     <g id="line2d_34">
      <g>
       <use style="stroke:#000000;stroke-width:0.5;" x="419.04" xlink:href="#ma7200ea315" y="91.5378108108"/>
      </g>
     </g>
     <g id="text_17">
      <!-- 2 -->
      <g transform="translate(39.9125 94.8490608108)scale(0.12 -0.12)">
       <use xlink:href="#BitstreamVeraSans-Roman-32"/>
      </g>
     </g>
    </g>
    <g id="ytick_8">
     <g id="line2d_35">
      <g>
       <use style="stroke:#000000;stroke-width:0.5;" x="51.5475" xlink:href="#m4acb6edc3c" y="55.2610320808"/>
      </g>
     </g>
     <g id="line2d_36">
      <g>
       <use style="stroke:#000000;stroke-width:0.5;" x="419.04" xlink:href="#ma7200ea315" y="55.2610320808"/>
      </g>
     </g>
     <g id="text_18">
      <!-- 3 -->
      <g transform="translate(39.9125 58.5722820808)scale(0.12 -0.12)">
       <use xlink:href="#BitstreamVeraSans-Roman-33"/>
      </g>
     </g>
    </g>
    <g id="ytick_9">
     <g id="line2d_37">
      <g>
       <use style="stroke:#000000;stroke-width:0.5;" x="51.5475" xlink:href="#m4acb6edc3c" y="18.9842533509"/>
      </g>
     </g>
     <g id="line2d_38">
      <g>
       <use style="stroke:#000000;stroke-width:0.5;" x="419.04" xlink:href="#ma7200ea315" y="18.9842533509"/>
      </g>
     </g>
     <g id="text_19">
      <!-- 4 -->
      <g transform="translate(39.9125 22.2955033509)scale(0.12 -0.12)">
       <use xlink:href="#BitstreamVeraSans-Roman-34"/>
      </g>
     </g>
    </g>
    <g id="text_20">
     <!-- calculated -->
     <defs>
      <path d="M 45.40625 46.390625 
L 45.40625 75.984375 
L 54.390625 75.984375 
L 54.390625 0 
L 45.40625 0 
L 45.40625 8.203125 
Q 42.578125 3.328125 38.25 0.953125 
Q 33.9375 -1.421875 27.875 -1.421875 
Q 17.96875 -1.421875 11.734375 6.484375 
Q 5.515625 14.40625 5.515625 27.296875 
Q 5.515625 40.1875 11.734375 48.09375 
Q 17.96875 56 27.875 56 
Q 33.9375 56 38.25 53.625 
Q 42.578125 51.265625 45.40625 46.390625 
M 14.796875 27.296875 
Q 14.796875 17.390625 18.875 11.75 
Q 22.953125 6.109375 30.078125 6.109375 
Q 37.203125 6.109375 41.296875 11.75 
Q 45.40625 17.390625 45.40625 27.296875 
Q 45.40625 37.203125 41.296875 42.84375 
Q 37.203125 48.484375 30.078125 48.484375 
Q 22.953125 48.484375 18.875 42.84375 
Q 14.796875 37.203125 14.796875 27.296875 
" id="BitstreamVeraSans-Roman-64"/>
      <path d="M 48.78125 52.59375 
L 48.78125 44.1875 
Q 44.96875 46.296875 41.140625 47.34375 
Q 37.3125 48.390625 33.40625 48.390625 
Q 24.65625 48.390625 19.8125 42.84375 
Q 14.984375 37.3125 14.984375 27.296875 
Q 14.984375 17.28125 19.8125 11.734375 
Q 24.65625 6.203125 33.40625 6.203125 
Q 37.3125 6.203125 41.140625 7.25 
Q 44.96875 8.296875 48.78125 10.40625 
L 48.78125 2.09375 
Q 45.015625 0.34375 40.984375 -0.53125 
Q 36.96875 -1.421875 32.421875 -1.421875 
Q 20.0625 -1.421875 12.78125 6.34375 
Q 5.515625 14.109375 5.515625 27.296875 
Q 5.515625 40.671875 12.859375 48.328125 
Q 20.21875 56 33.015625 56 
Q 37.15625 56 41.109375 55.140625 
Q 45.0625 54.296875 48.78125 52.59375 
" id="BitstreamVeraSans-Roman-63"/>
      <path d="M 8.5 21.578125 
L 8.5 54.6875 
L 17.484375 54.6875 
L 17.484375 21.921875 
Q 17.484375 14.15625 20.5 10.265625 
Q 23.53125 6.390625 29.59375 6.390625 
Q 36.859375 6.390625 41.078125 11.03125 
Q 45.3125 15.671875 45.3125 23.6875 
L 45.3125 54.6875 
L 54.296875 54.6875 
L 54.296875 0 
L 45.3125 0 
L 45.3125 8.40625 
Q 42.046875 3.421875 37.71875 1 
Q 33.40625 -1.421875 27.6875 -1.421875 
Q 18.265625 -1.421875 13.375 4.4375 
Q 8.5 10.296875 8.5 21.578125 
" id="BitstreamVeraSans-Roman-75"/>
     </defs>
     <g transform="translate(22.36125 195.576769952)rotate(-90.0)scale(0.12 -0.12)">
      <use xlink:href="#BitstreamVeraSans-Roman-63"/>
      <use x="54.98046875" xlink:href="#BitstreamVeraSans-Roman-61"/>
      <use x="116.259765625" xlink:href="#BitstreamVeraSans-Roman-6c"/>
      <use x="144.04296875" xlink:href="#BitstreamVeraSans-Roman-63"/>
      <use x="199.0234375" xlink:href="#BitstreamVeraSans-Roman-75"/>
      <use x="262.40234375" xlink:href="#BitstreamVeraSans-Roman-6c"/>
      <use x="290.185546875" xlink:href="#BitstreamVeraSans-Roman-61"/>
      <use x="351.46484375" xlink:href="#BitstreamVeraSans-Roman-74"/>
      <use x="390.673828125" xlink:href="#BitstreamVeraSans-Roman-65"/>
      <use x="452.197265625" xlink:href="#BitstreamVeraSans-Roman-64"/>
     </g>
    </g>
   </g>
  </g>
 </g>
 <defs>
  <clipPath id="peb5dd6b0b9">
   <rect height="300.008960097" width="367.4925" x="51.5475" y="14.6310399033"/>
  </clipPath>
 </defs>
</svg>
