<?xml version="1.0" encoding="utf-8" standalone="no"?>
<!DOCTYPE svg PUBLIC "-//W3C//DTD SVG 1.1//EN"
  "http://www.w3.org/Graphics/SVG/1.1/DTD/svg11.dtd">
<!-- Created with matplotlib (http://matplotlib.org/) -->
<svg height="360pt" version="1.1" viewBox="0 0 720 360" width="720pt" xmlns="http://www.w3.org/2000/svg" xmlns:xlink="http://www.w3.org/1999/xlink">
 <defs>
  <style type="text/css">
*{stroke-linecap:butt;stroke-linejoin:round;stroke-miterlimit:100000;}
  </style>
 </defs>
 <g id="figure_1">
  <g id="patch_1">
   <path d="M 0 360 
L 720 360 
L 720 0 
L 0 0 
z
" style="fill:#ffffff;"/>
  </g>
  <g id="axes_1">
   <g id="patch_2">
    <path d="M 59.085 314.64 
L 707.04 314.64 
L 707.04 12.96 
L 59.085 12.96 
z
" style="fill:#ffffff;"/>
   </g>
   <g id="line2d_1">
    <path clip-path="url(#pacd6f02ae1)" d="M 59.085 222.323196 
L 67.841149 50.05438 
L 76.597297 26.791803 
L 85.353446 33.288559 
L 94.109595 40.833178 
L 102.865743 97.941758 
L 111.621892 69.020716 
L 137.890338 215.616867 
L 146.646486 59.380368 
L 155.402635 63.886183 
L 164.158784 34.965141 
L 172.914932 33.498131 
L 181.671081 116.69852 
L 190.42723 136.293574 
L 199.183378 246.843209 
L 216.695676 179.360778 
L 225.451824 114.498006 
L 234.207973 12.96 
L 242.964122 41.35711 
L 260.476419 105.800736 
L 269.232568 43.557624 
L 277.988716 50.578312 
L 286.744865 120.994762 
L 295.501014 61.476096 
L 304.257162 45.443779 
L 313.013311 91.864147 
L 321.769459 123.509635 
L 330.525608 50.159166 
L 339.281757 68.287211 
L 348.037905 267.6957 
L 356.794054 282.156221 
L 383.0625 24.591289 
L 391.818649 116.384161 
L 400.574797 54.245835 
L 409.330946 76.774908 
L 418.087095 56.236777 
L 426.843243 53.093185 
L 435.599392 92.283293 
L 444.355541 62.838319 
L 453.111689 41.881042 
L 461.867838 250.196374 
L 470.623986 100.037485 
L 479.380135 75.307899 
L 488.136284 207.862675 
L 496.892432 314.64 
L 514.40473 202.728142 
L 523.160878 65.877124 
L 531.917027 21.238124 
L 540.673176 22.914706 
L 549.429324 54.350622 
L 558.185473 27.73488 
L 566.941622 59.589941 
L 575.69777 64.305328 
L 584.453919 110.411337 
L 593.210068 252.501674 
L 601.966216 24.381716 
L 610.722365 94.483807 
L 619.478514 18.094533 
L 628.234662 33.498131 
L 636.990811 45.12942 
L 645.746959 70.173366 
L 654.503108 89.034915 
L 663.259257 71.430802 
L 672.015405 101.714067 
L 680.771554 49.425662 
L 689.527703 79.499354 
L 698.283851 114.602793 
L 707.04 124.976645 
" style="fill:none;stroke:#ff0000;stroke-linecap:square;stroke-width:2.0;"/>
    <defs>
     <path d="M 0 3 
C 0.795609 3 1.55874 2.683901 2.12132 2.12132 
C 2.683901 1.55874 3 0.795609 3 0 
C 3 -0.795609 2.683901 -1.55874 2.12132 -2.12132 
C 1.55874 -2.683901 0.795609 -3 0 -3 
C -0.795609 -3 -1.55874 -2.683901 -2.12132 -2.12132 
C -2.683901 -1.55874 -3 -0.795609 -3 0 
C -3 0.795609 -2.683901 1.55874 -2.12132 2.12132 
C -1.55874 2.683901 -0.795609 3 0 3 
z
" id="m1f410a5935" style="stroke:#000000;stroke-width:0.5;"/>
    </defs>
    <g clip-path="url(#pacd6f02ae1)">
     <use style="fill:#ff0000;stroke:#000000;stroke-width:0.5;" x="59.085" xlink:href="#m1f410a5935" y="222.323195554"/>
     <use style="fill:#ff0000;stroke:#000000;stroke-width:0.5;" x="67.8411486486" xlink:href="#m1f410a5935" y="50.0543799931"/>
     <use style="fill:#ff0000;stroke:#000000;stroke-width:0.5;" x="76.5972972973" xlink:href="#m1f410a5935" y="26.7918027093"/>
     <use style="fill:#ff0000;stroke:#000000;stroke-width:0.5;" x="85.3534459459" xlink:href="#m1f410a5935" y="33.2885585273"/>
     <use style="fill:#ff0000;stroke:#000000;stroke-width:0.5;" x="94.1095945946" xlink:href="#m1f410a5935" y="40.8331781869"/>
     <use style="fill:#ff0000;stroke:#000000;stroke-width:0.5;" x="102.865743243" xlink:href="#m1f410a5935" y="97.9417575547"/>
     <use style="fill:#ff0000;stroke:#000000;stroke-width:0.5;" x="111.621891892" xlink:href="#m1f410a5935" y="69.0207155262"/>
     <use style="fill:#ff0000;stroke:#000000;stroke-width:0.5;" x="137.890337838" xlink:href="#m1f410a5935" y="215.616866968"/>
     <use style="fill:#ff0000;stroke:#000000;stroke-width:0.5;" x="146.646486486" xlink:href="#m1f410a5935" y="59.3803681834"/>
     <use style="fill:#ff0000;stroke:#000000;stroke-width:0.5;" x="155.402635135" xlink:href="#m1f410a5935" y="63.8861827023"/>
     <use style="fill:#ff0000;stroke:#000000;stroke-width:0.5;" x="164.158783784" xlink:href="#m1f410a5935" y="34.9651406738"/>
     <use style="fill:#ff0000;stroke:#000000;stroke-width:0.5;" x="172.914932432" xlink:href="#m1f410a5935" y="33.4981312956"/>
     <use style="fill:#ff0000;stroke:#000000;stroke-width:0.5;" x="181.671081081" xlink:href="#m1f410a5935" y="116.69852032"/>
     <use style="fill:#ff0000;stroke:#000000;stroke-width:0.5;" x="190.42722973" xlink:href="#m1f410a5935" y="136.293574158"/>
     <use style="fill:#ff0000;stroke:#000000;stroke-width:0.5;" x="199.183378378" xlink:href="#m1f410a5935" y="246.843209448"/>
     <use style="fill:#ff0000;stroke:#000000;stroke-width:0.5;" x="216.695675676" xlink:href="#m1f410a5935" y="179.360778048"/>
     <use style="fill:#ff0000;stroke:#000000;stroke-width:0.5;" x="225.451824324" xlink:href="#m1f410a5935" y="114.498006252"/>
     <use style="fill:#ff0000;stroke:#000000;stroke-width:0.5;" x="234.207972973" xlink:href="#m1f410a5935" y="12.96"/>
     <use style="fill:#ff0000;stroke:#000000;stroke-width:0.5;" x="242.964121622" xlink:href="#m1f410a5935" y="41.3571101077"/>
     <use style="fill:#ff0000;stroke:#000000;stroke-width:0.5;" x="260.476418919" xlink:href="#m1f410a5935" y="105.800736367"/>
     <use style="fill:#ff0000;stroke:#000000;stroke-width:0.5;" x="269.232567568" xlink:href="#m1f410a5935" y="43.5576241751"/>
     <use style="fill:#ff0000;stroke:#000000;stroke-width:0.5;" x="277.988716216" xlink:href="#m1f410a5935" y="50.5783119139"/>
     <use style="fill:#ff0000;stroke:#000000;stroke-width:0.5;" x="286.744864865" xlink:href="#m1f410a5935" y="120.99476207"/>
     <use style="fill:#ff0000;stroke:#000000;stroke-width:0.5;" x="295.501013514" xlink:href="#m1f410a5935" y="61.4760958666"/>
     <use style="fill:#ff0000;stroke:#000000;stroke-width:0.5;" x="304.257162162" xlink:href="#m1f410a5935" y="45.44377909"/>
     <use style="fill:#ff0000;stroke:#000000;stroke-width:0.5;" x="313.013310811" xlink:href="#m1f410a5935" y="91.8641472734"/>
     <use style="fill:#ff0000;stroke:#000000;stroke-width:0.5;" x="321.769459459" xlink:href="#m1f410a5935" y="123.50963529"/>
     <use style="fill:#ff0000;stroke:#000000;stroke-width:0.5;" x="330.525608108" xlink:href="#m1f410a5935" y="50.1591663772"/>
     <use style="fill:#ff0000;stroke:#000000;stroke-width:0.5;" x="339.281756757" xlink:href="#m1f410a5935" y="68.2872108371"/>
     <use style="fill:#ff0000;stroke:#000000;stroke-width:0.5;" x="348.037905405" xlink:href="#m1f410a5935" y="267.695699896"/>
     <use style="fill:#ff0000;stroke:#000000;stroke-width:0.5;" x="356.794054054" xlink:href="#m1f410a5935" y="282.15622091"/>
     <use style="fill:#ff0000;stroke:#000000;stroke-width:0.5;" x="383.0625" xlink:href="#m1f410a5935" y="24.5912886419"/>
     <use style="fill:#ff0000;stroke:#000000;stroke-width:0.5;" x="391.818648649" xlink:href="#m1f410a5935" y="116.384161167"/>
     <use style="fill:#ff0000;stroke:#000000;stroke-width:0.5;" x="400.574797297" xlink:href="#m1f410a5935" y="54.2458353595"/>
     <use style="fill:#ff0000;stroke:#000000;stroke-width:0.5;" x="409.330945946" xlink:href="#m1f410a5935" y="76.7749079542"/>
     <use style="fill:#ff0000;stroke:#000000;stroke-width:0.5;" x="418.087094595" xlink:href="#m1f410a5935" y="56.2367766586"/>
     <use style="fill:#ff0000;stroke:#000000;stroke-width:0.5;" x="426.843243243" xlink:href="#m1f410a5935" y="53.0931851337"/>
     <use style="fill:#ff0000;stroke:#000000;stroke-width:0.5;" x="435.599391892" xlink:href="#m1f410a5935" y="92.28329281"/>
     <use style="fill:#ff0000;stroke:#000000;stroke-width:0.5;" x="444.355540541" xlink:href="#m1f410a5935" y="62.8383188607"/>
     <use style="fill:#ff0000;stroke:#000000;stroke-width:0.5;" x="453.111689189" xlink:href="#m1f410a5935" y="41.8810420285"/>
     <use style="fill:#ff0000;stroke:#000000;stroke-width:0.5;" x="461.867837838" xlink:href="#m1f410a5935" y="250.196373741"/>
     <use style="fill:#ff0000;stroke:#000000;stroke-width:0.5;" x="470.623986486" xlink:href="#m1f410a5935" y="100.037485238"/>
     <use style="fill:#ff0000;stroke:#000000;stroke-width:0.5;" x="479.380135135" xlink:href="#m1f410a5935" y="75.3078985759"/>
     <use style="fill:#ff0000;stroke:#000000;stroke-width:0.5;" x="488.136283784" xlink:href="#m1f410a5935" y="207.86267454"/>
     <use style="fill:#ff0000;stroke:#000000;stroke-width:0.5;" x="496.892432432" xlink:href="#m1f410a5935" y="314.64"/>
     <use style="fill:#ff0000;stroke:#000000;stroke-width:0.5;" x="514.40472973" xlink:href="#m1f410a5935" y="202.728141716"/>
     <use style="fill:#ff0000;stroke:#000000;stroke-width:0.5;" x="523.160878378" xlink:href="#m1f410a5935" y="65.8771240014"/>
     <use style="fill:#ff0000;stroke:#000000;stroke-width:0.5;" x="531.917027027" xlink:href="#m1f410a5935" y="21.2381243487"/>
     <use style="fill:#ff0000;stroke:#000000;stroke-width:0.5;" x="540.673175676" xlink:href="#m1f410a5935" y="22.9147064953"/>
     <use style="fill:#ff0000;stroke:#000000;stroke-width:0.5;" x="549.429324324" xlink:href="#m1f410a5935" y="54.3506217437"/>
     <use style="fill:#ff0000;stroke:#000000;stroke-width:0.5;" x="558.185472973" xlink:href="#m1f410a5935" y="27.7348801667"/>
     <use style="fill:#ff0000;stroke:#000000;stroke-width:0.5;" x="566.941621622" xlink:href="#m1f410a5935" y="59.5899409517"/>
     <use style="fill:#ff0000;stroke:#000000;stroke-width:0.5;" x="575.69777027" xlink:href="#m1f410a5935" y="64.305328239"/>
     <use style="fill:#ff0000;stroke:#000000;stroke-width:0.5;" x="584.453918919" xlink:href="#m1f410a5935" y="110.41133727"/>
     <use style="fill:#ff0000;stroke:#000000;stroke-width:0.5;" x="593.210067568" xlink:href="#m1f410a5935" y="252.501674192"/>
     <use style="fill:#ff0000;stroke:#000000;stroke-width:0.5;" x="601.966216216" xlink:href="#m1f410a5935" y="24.3817158736"/>
     <use style="fill:#ff0000;stroke:#000000;stroke-width:0.5;" x="610.722364865" xlink:href="#m1f410a5935" y="94.4838068774"/>
     <use style="fill:#ff0000;stroke:#000000;stroke-width:0.5;" x="619.478513514" xlink:href="#m1f410a5935" y="18.0945328239"/>
     <use style="fill:#ff0000;stroke:#000000;stroke-width:0.5;" x="628.234662162" xlink:href="#m1f410a5935" y="33.4981312956"/>
     <use style="fill:#ff0000;stroke:#000000;stroke-width:0.5;" x="636.990810811" xlink:href="#m1f410a5935" y="45.1294199375"/>
     <use style="fill:#ff0000;stroke:#000000;stroke-width:0.5;" x="645.746959459" xlink:href="#m1f410a5935" y="70.173365752"/>
     <use style="fill:#ff0000;stroke:#000000;stroke-width:0.5;" x="654.503108108" xlink:href="#m1f410a5935" y="89.034914901"/>
     <use style="fill:#ff0000;stroke:#000000;stroke-width:0.5;" x="663.259256757" xlink:href="#m1f410a5935" y="71.4308023619"/>
     <use style="fill:#ff0000;stroke:#000000;stroke-width:0.5;" x="672.015405405" xlink:href="#m1f410a5935" y="101.714067385"/>
     <use style="fill:#ff0000;stroke:#000000;stroke-width:0.5;" x="680.771554054" xlink:href="#m1f410a5935" y="49.4256616881"/>
     <use style="fill:#ff0000;stroke:#000000;stroke-width:0.5;" x="689.527702703" xlink:href="#m1f410a5935" y="79.4993539423"/>
     <use style="fill:#ff0000;stroke:#000000;stroke-width:0.5;" x="698.283851351" xlink:href="#m1f410a5935" y="114.602792636"/>
     <use style="fill:#ff0000;stroke:#000000;stroke-width:0.5;" x="707.04" xlink:href="#m1f410a5935" y="124.976644668"/>
    </g>
   </g>
   <g id="line2d_2">
    <path clip-path="url(#pacd6f02ae1)" d="M 59.085 217.39593 
L 67.841149 54.156033 
L 76.597297 28.692733 
L 85.353446 40.116439 
L 94.109595 43.276273 
L 102.865743 98.425975 
L 111.621892 69.770672 
L 137.890338 217.043324 
L 146.646486 61.242422 
L 155.402635 65.179142 
L 164.158784 39.500819 
L 172.914932 36.522895 
L 181.671081 119.135852 
L 190.42723 133.198813 
L 199.183378 243.69616 
L 216.695676 177.647521 
L 225.451824 125.694327 
L 234.207973 21.293661 
L 242.964122 49.869746 
L 260.476419 103.142411 
L 269.232568 46.094922 
L 277.988716 59.186304 
L 286.744865 117.311521 
L 295.501014 63.726593 
L 304.257162 49.602017 
L 313.013311 95.311829 
L 321.769459 122.780951 
L 330.525608 51.628376 
L 339.281757 71.035234 
L 348.037905 260.338962 
L 356.794054 277.558194 
L 383.0625 28.162828 
L 391.818649 114.208796 
L 400.574797 64.52779 
L 409.330946 69.280271 
L 418.087095 65.702026 
L 426.843243 56.291999 
L 435.599392 92.876489 
L 444.355541 63.324423 
L 453.111689 38.785443 
L 461.867838 240.123468 
L 470.623986 98.469147 
L 479.380135 74.453575 
L 488.136284 202.7951 
L 496.892432 305.130845 
L 514.40473 199.10641 
L 523.160878 70.622375 
L 531.917027 32.666232 
L 540.673176 27.167881 
L 549.429324 57.066999 
L 558.185473 27.447661 
L 566.941622 64.977428 
L 575.69777 70.216538 
L 584.453919 111.969301 
L 593.210068 248.852803 
L 601.966216 27.998837 
L 610.722365 89.593636 
L 619.478514 24.465545 
L 628.234662 40.776384 
L 636.990811 57.700747 
L 645.746959 68.92054 
L 654.503108 94.104271 
L 663.259257 64.023348 
L 672.015405 115.681673 
L 680.771554 39.696141 
L 689.527703 105.084102 
L 698.283851 139.00094 
L 707.04 132.249868 
" style="fill:none;stroke:#0000ff;stroke-linecap:square;stroke-width:2.0;"/>
    <defs>
     <path d="M 0 3 
C 0.795609 3 1.55874 2.683901 2.12132 2.12132 
C 2.683901 1.55874 3 0.795609 3 0 
C 3 -0.795609 2.683901 -1.55874 2.12132 -2.12132 
C 1.55874 -2.683901 0.795609 -3 0 -3 
C -0.795609 -3 -1.55874 -2.683901 -2.12132 -2.12132 
C -2.683901 -1.55874 -3 -0.795609 -3 0 
C -3 0.795609 -2.683901 1.55874 -2.12132 2.12132 
C -1.55874 2.683901 -0.795609 3 0 3 
z
" id="m96862b59d1" style="stroke:#000000;stroke-width:0.5;"/>
    </defs>
    <g clip-path="url(#pacd6f02ae1)">
     <use style="fill:#0000ff;stroke:#000000;stroke-width:0.5;" x="59.085" xlink:href="#m96862b59d1" y="217.395930198"/>
     <use style="fill:#0000ff;stroke:#000000;stroke-width:0.5;" x="67.8411486486" xlink:href="#m96862b59d1" y="54.1560334283"/>
     <use style="fill:#0000ff;stroke:#000000;stroke-width:0.5;" x="76.5972972973" xlink:href="#m96862b59d1" y="28.6927325043"/>
     <use style="fill:#0000ff;stroke:#000000;stroke-width:0.5;" x="85.3534459459" xlink:href="#m96862b59d1" y="40.1164393192"/>
     <use style="fill:#0000ff;stroke:#000000;stroke-width:0.5;" x="94.1095945946" xlink:href="#m96862b59d1" y="43.2762727336"/>
     <use style="fill:#0000ff;stroke:#000000;stroke-width:0.5;" x="102.865743243" xlink:href="#m96862b59d1" y="98.4259754359"/>
     <use style="fill:#0000ff;stroke:#000000;stroke-width:0.5;" x="111.621891892" xlink:href="#m96862b59d1" y="69.7706716777"/>
     <use style="fill:#0000ff;stroke:#000000;stroke-width:0.5;" x="137.890337838" xlink:href="#m96862b59d1" y="217.043324015"/>
     <use style="fill:#0000ff;stroke:#000000;stroke-width:0.5;" x="146.646486486" xlink:href="#m96862b59d1" y="61.2424222299"/>
     <use style="fill:#0000ff;stroke:#000000;stroke-width:0.5;" x="155.402635135" xlink:href="#m96862b59d1" y="65.1791418965"/>
     <use style="fill:#0000ff;stroke:#000000;stroke-width:0.5;" x="164.158783784" xlink:href="#m96862b59d1" y="39.5008193123"/>
     <use style="fill:#0000ff;stroke:#000000;stroke-width:0.5;" x="172.914932432" xlink:href="#m96862b59d1" y="36.5228950608"/>
     <use style="fill:#0000ff;stroke:#000000;stroke-width:0.5;" x="181.671081081" xlink:href="#m96862b59d1" y="119.135851615"/>
     <use style="fill:#0000ff;stroke:#000000;stroke-width:0.5;" x="190.42722973" xlink:href="#m96862b59d1" y="133.198813088"/>
     <use style="fill:#0000ff;stroke:#000000;stroke-width:0.5;" x="199.183378378" xlink:href="#m96862b59d1" y="243.696159972"/>
     <use style="fill:#0000ff;stroke:#000000;stroke-width:0.5;" x="216.695675676" xlink:href="#m96862b59d1" y="177.647520667"/>
     <use style="fill:#0000ff;stroke:#000000;stroke-width:0.5;" x="225.451824324" xlink:href="#m96862b59d1" y="125.694326613"/>
     <use style="fill:#0000ff;stroke:#000000;stroke-width:0.5;" x="234.207972973" xlink:href="#m96862b59d1" y="21.2936611323"/>
     <use style="fill:#0000ff;stroke:#000000;stroke-width:0.5;" x="242.964121622" xlink:href="#m96862b59d1" y="49.8697463842"/>
     <use style="fill:#0000ff;stroke:#000000;stroke-width:0.5;" x="260.476418919" xlink:href="#m96862b59d1" y="103.142410587"/>
     <use style="fill:#0000ff;stroke:#000000;stroke-width:0.5;" x="269.232567568" xlink:href="#m96862b59d1" y="46.0949216811"/>
     <use style="fill:#0000ff;stroke:#000000;stroke-width:0.5;" x="277.988716216" xlink:href="#m96862b59d1" y="59.1863037999"/>
     <use style="fill:#0000ff;stroke:#000000;stroke-width:0.5;" x="286.744864865" xlink:href="#m96862b59d1" y="117.311520667"/>
     <use style="fill:#0000ff;stroke:#000000;stroke-width:0.5;" x="295.501013514" xlink:href="#m96862b59d1" y="63.7265930392"/>
     <use style="fill:#0000ff;stroke:#000000;stroke-width:0.5;" x="304.257162162" xlink:href="#m96862b59d1" y="49.6020171726"/>
     <use style="fill:#0000ff;stroke:#000000;stroke-width:0.5;" x="313.013310811" xlink:href="#m96862b59d1" y="95.311828885"/>
     <use style="fill:#0000ff;stroke:#000000;stroke-width:0.5;" x="321.769459459" xlink:href="#m96862b59d1" y="122.780950775"/>
     <use style="fill:#0000ff;stroke:#000000;stroke-width:0.5;" x="330.525608108" xlink:href="#m96862b59d1" y="51.6283762695"/>
     <use style="fill:#0000ff;stroke:#000000;stroke-width:0.5;" x="339.281756757" xlink:href="#m96862b59d1" y="71.0352337617"/>
     <use style="fill:#0000ff;stroke:#000000;stroke-width:0.5;" x="348.037905405" xlink:href="#m96862b59d1" y="260.338962223"/>
     <use style="fill:#0000ff;stroke:#000000;stroke-width:0.5;" x="356.794054054" xlink:href="#m96862b59d1" y="277.558194373"/>
     <use style="fill:#0000ff;stroke:#000000;stroke-width:0.5;" x="383.0625" xlink:href="#m96862b59d1" y="28.1628277596"/>
     <use style="fill:#0000ff;stroke:#000000;stroke-width:0.5;" x="391.818648649" xlink:href="#m96862b59d1" y="114.208795832"/>
     <use style="fill:#0000ff;stroke:#000000;stroke-width:0.5;" x="400.574797297" xlink:href="#m96862b59d1" y="64.5277897325"/>
     <use style="fill:#0000ff;stroke:#000000;stroke-width:0.5;" x="409.330945946" xlink:href="#m96862b59d1" y="69.2802713998"/>
     <use style="fill:#0000ff;stroke:#000000;stroke-width:0.5;" x="418.087094595" xlink:href="#m96862b59d1" y="65.7020259535"/>
     <use style="fill:#0000ff;stroke:#000000;stroke-width:0.5;" x="426.843243243" xlink:href="#m96862b59d1" y="56.291999083"/>
     <use style="fill:#0000ff;stroke:#000000;stroke-width:0.5;" x="435.599391892" xlink:href="#m96862b59d1" y="92.8764885307"/>
     <use style="fill:#0000ff;stroke:#000000;stroke-width:0.5;" x="444.355540541" xlink:href="#m96862b59d1" y="63.3244228968"/>
     <use style="fill:#0000ff;stroke:#000000;stroke-width:0.5;" x="453.111689189" xlink:href="#m96862b59d1" y="38.7854426676"/>
     <use style="fill:#0000ff;stroke:#000000;stroke-width:0.5;" x="461.867837838" xlink:href="#m96862b59d1" y="240.123468204"/>
     <use style="fill:#0000ff;stroke:#000000;stroke-width:0.5;" x="470.623986486" xlink:href="#m96862b59d1" y="98.4691474262"/>
     <use style="fill:#0000ff;stroke:#000000;stroke-width:0.5;" x="479.380135135" xlink:href="#m96862b59d1" y="74.4535751858"/>
     <use style="fill:#0000ff;stroke:#000000;stroke-width:0.5;" x="488.136283784" xlink:href="#m96862b59d1" y="202.795100215"/>
     <use style="fill:#0000ff;stroke:#000000;stroke-width:0.5;" x="496.892432432" xlink:href="#m96862b59d1" y="305.13084521"/>
     <use style="fill:#0000ff;stroke:#000000;stroke-width:0.5;" x="514.40472973" xlink:href="#m96862b59d1" y="199.10640992"/>
     <use style="fill:#0000ff;stroke:#000000;stroke-width:0.5;" x="523.160878378" xlink:href="#m96862b59d1" y="70.6223754081"/>
     <use style="fill:#0000ff;stroke:#000000;stroke-width:0.5;" x="531.917027027" xlink:href="#m96862b59d1" y="32.6662321917"/>
     <use style="fill:#0000ff;stroke:#000000;stroke-width:0.5;" x="540.673175676" xlink:href="#m96862b59d1" y="27.167881042"/>
     <use style="fill:#0000ff;stroke:#000000;stroke-width:0.5;" x="549.429324324" xlink:href="#m96862b59d1" y="57.0669991803"/>
     <use style="fill:#0000ff;stroke:#000000;stroke-width:0.5;" x="558.185472973" xlink:href="#m96862b59d1" y="27.4476606877"/>
     <use style="fill:#0000ff;stroke:#000000;stroke-width:0.5;" x="566.941621622" xlink:href="#m96862b59d1" y="64.977428107"/>
     <use style="fill:#0000ff;stroke:#000000;stroke-width:0.5;" x="575.69777027" xlink:href="#m96862b59d1" y="70.2165377423"/>
     <use style="fill:#0000ff;stroke:#000000;stroke-width:0.5;" x="584.453918919" xlink:href="#m96862b59d1" y="111.96930123"/>
     <use style="fill:#0000ff;stroke:#000000;stroke-width:0.5;" x="593.210067568" xlink:href="#m96862b59d1" y="248.852802723"/>
     <use style="fill:#0000ff;stroke:#000000;stroke-width:0.5;" x="601.966216216" xlink:href="#m96862b59d1" y="27.9988370684"/>
     <use style="fill:#0000ff;stroke:#000000;stroke-width:0.5;" x="610.722364865" xlink:href="#m96862b59d1" y="89.5936359014"/>
     <use style="fill:#0000ff;stroke:#000000;stroke-width:0.5;" x="619.478513514" xlink:href="#m96862b59d1" y="24.4655449809"/>
     <use style="fill:#0000ff;stroke:#000000;stroke-width:0.5;" x="628.234662162" xlink:href="#m96862b59d1" y="40.7763839667"/>
     <use style="fill:#0000ff;stroke:#000000;stroke-width:0.5;" x="636.990810811" xlink:href="#m96862b59d1" y="57.7007472317"/>
     <use style="fill:#0000ff;stroke:#000000;stroke-width:0.5;" x="645.746959459" xlink:href="#m96862b59d1" y="68.920539743"/>
     <use style="fill:#0000ff;stroke:#000000;stroke-width:0.5;" x="654.503108108" xlink:href="#m96862b59d1" y="94.104270594"/>
     <use style="fill:#0000ff;stroke:#000000;stroke-width:0.5;" x="663.259256757" xlink:href="#m96862b59d1" y="64.0233480792"/>
     <use style="fill:#0000ff;stroke:#000000;stroke-width:0.5;" x="672.015405405" xlink:href="#m96862b59d1" y="115.681673248"/>
     <use style="fill:#0000ff;stroke:#000000;stroke-width:0.5;" x="680.771554054" xlink:href="#m96862b59d1" y="39.6961411323"/>
     <use style="fill:#0000ff;stroke:#000000;stroke-width:0.5;" x="689.527702703" xlink:href="#m96862b59d1" y="105.084102286"/>
     <use style="fill:#0000ff;stroke:#000000;stroke-width:0.5;" x="698.283851351" xlink:href="#m96862b59d1" y="139.000939965"/>
     <use style="fill:#0000ff;stroke:#000000;stroke-width:0.5;" x="707.04" xlink:href="#m96862b59d1" y="132.249867593"/>
    </g>
   </g>
   <g id="patch_3">
    <path d="M 59.085 12.96 
L 707.04 12.96 
" style="fill:none;stroke:#000000;stroke-linecap:square;stroke-linejoin:miter;"/>
   </g>
   <g id="patch_4">
    <path d="M 59.085 314.64 
L 707.04 314.64 
" style="fill:none;stroke:#000000;stroke-linecap:square;stroke-linejoin:miter;"/>
   </g>
   <g id="patch_5">
    <path d="M 707.04 314.64 
L 707.04 12.96 
" style="fill:none;stroke:#000000;stroke-linecap:square;stroke-linejoin:miter;"/>
   </g>
   <g id="patch_6">
    <path d="M 59.085 314.64 
L 59.085 12.96 
" style="fill:none;stroke:#000000;stroke-linecap:square;stroke-linejoin:miter;"/>
   </g>
   <g id="matplotlib.axis_1">
    <g id="xtick_1">
     <g id="line2d_3">
      <defs>
       <path d="M 0 0 
L 0 -4 
" id="m889cdc6a1e" style="stroke:#000000;stroke-width:0.5;"/>
      </defs>
      <g>
       <use style="stroke:#000000;stroke-width:0.5;" x="129.134189189" xlink:href="#m889cdc6a1e" y="314.64"/>
      </g>
     </g>
     <g id="line2d_4">
      <defs>
       <path d="M 0 0 
L 0 4 
" id="m5284efeaf9" style="stroke:#000000;stroke-width:0.5;"/>
      </defs>
      <g>
       <use style="stroke:#000000;stroke-width:0.5;" x="129.134189189" xlink:href="#m5284efeaf9" y="12.96"/>
      </g>
     </g>
     <g id="text_1">
      <!-- 10 -->
      <defs>
       <path d="M 12.40625 8.296875 
L 28.515625 8.296875 
L 28.515625 63.921875 
L 10.984375 60.40625 
L 10.984375 69.390625 
L 28.421875 72.90625 
L 38.28125 72.90625 
L 38.28125 8.296875 
L 54.390625 8.296875 
L 54.390625 0 
L 12.40625 0 
z
" id="BitstreamVeraSans-Roman-31"/>
       <path d="M 31.78125 66.40625 
Q 24.171875 66.40625 20.328125 58.90625 
Q 16.5 51.421875 16.5 36.375 
Q 16.5 21.390625 20.328125 13.890625 
Q 24.171875 6.390625 31.78125 6.390625 
Q 39.453125 6.390625 43.28125 13.890625 
Q 47.125 21.390625 47.125 36.375 
Q 47.125 51.421875 43.28125 58.90625 
Q 39.453125 66.40625 31.78125 66.40625 
M 31.78125 74.21875 
Q 44.046875 74.21875 50.515625 64.515625 
Q 56.984375 54.828125 56.984375 36.375 
Q 56.984375 17.96875 50.515625 8.265625 
Q 44.046875 -1.421875 31.78125 -1.421875 
Q 19.53125 -1.421875 13.0625 8.265625 
Q 6.59375 17.96875 6.59375 36.375 
Q 6.59375 54.828125 13.0625 64.515625 
Q 19.53125 74.21875 31.78125 74.21875 
" id="BitstreamVeraSans-Roman-30"/>
      </defs>
      <g transform="translate(121.499189189 327.758125)scale(0.12 -0.12)">
       <use xlink:href="#BitstreamVeraSans-Roman-31"/>
       <use x="63.623046875" xlink:href="#BitstreamVeraSans-Roman-30"/>
      </g>
     </g>
    </g>
    <g id="xtick_2">
     <g id="line2d_5">
      <g>
       <use style="stroke:#000000;stroke-width:0.5;" x="216.695675676" xlink:href="#m889cdc6a1e" y="314.64"/>
      </g>
     </g>
     <g id="line2d_6">
      <g>
       <use style="stroke:#000000;stroke-width:0.5;" x="216.695675676" xlink:href="#m5284efeaf9" y="12.96"/>
      </g>
     </g>
     <g id="text_2">
      <!-- 20 -->
      <defs>
       <path d="M 19.1875 8.296875 
L 53.609375 8.296875 
L 53.609375 0 
L 7.328125 0 
L 7.328125 8.296875 
Q 12.9375 14.109375 22.625 23.890625 
Q 32.328125 33.6875 34.8125 36.53125 
Q 39.546875 41.84375 41.421875 45.53125 
Q 43.3125 49.21875 43.3125 52.78125 
Q 43.3125 58.59375 39.234375 62.25 
Q 35.15625 65.921875 28.609375 65.921875 
Q 23.96875 65.921875 18.8125 64.3125 
Q 13.671875 62.703125 7.8125 59.421875 
L 7.8125 69.390625 
Q 13.765625 71.78125 18.9375 73 
Q 24.125 74.21875 28.421875 74.21875 
Q 39.75 74.21875 46.484375 68.546875 
Q 53.21875 62.890625 53.21875 53.421875 
Q 53.21875 48.921875 51.53125 44.890625 
Q 49.859375 40.875 45.40625 35.40625 
Q 44.1875 33.984375 37.640625 27.21875 
Q 31.109375 20.453125 19.1875 8.296875 
" id="BitstreamVeraSans-Roman-32"/>
      </defs>
      <g transform="translate(209.060675676 327.758125)scale(0.12 -0.12)">
       <use xlink:href="#BitstreamVeraSans-Roman-32"/>
       <use x="63.623046875" xlink:href="#BitstreamVeraSans-Roman-30"/>
      </g>
     </g>
    </g>
    <g id="xtick_3">
     <g id="line2d_7">
      <g>
       <use style="stroke:#000000;stroke-width:0.5;" x="304.257162162" xlink:href="#m889cdc6a1e" y="314.64"/>
      </g>
     </g>
     <g id="line2d_8">
      <g>
       <use style="stroke:#000000;stroke-width:0.5;" x="304.257162162" xlink:href="#m5284efeaf9" y="12.96"/>
      </g>
     </g>
     <g id="text_3">
      <!-- 30 -->
      <defs>
       <path d="M 40.578125 39.3125 
Q 47.65625 37.796875 51.625 33 
Q 55.609375 28.21875 55.609375 21.1875 
Q 55.609375 10.40625 48.1875 4.484375 
Q 40.765625 -1.421875 27.09375 -1.421875 
Q 22.515625 -1.421875 17.65625 -0.515625 
Q 12.796875 0.390625 7.625 2.203125 
L 7.625 11.71875 
Q 11.71875 9.328125 16.59375 8.109375 
Q 21.484375 6.890625 26.8125 6.890625 
Q 36.078125 6.890625 40.9375 10.546875 
Q 45.796875 14.203125 45.796875 21.1875 
Q 45.796875 27.640625 41.28125 31.265625 
Q 36.765625 34.90625 28.71875 34.90625 
L 20.21875 34.90625 
L 20.21875 43.015625 
L 29.109375 43.015625 
Q 36.375 43.015625 40.234375 45.921875 
Q 44.09375 48.828125 44.09375 54.296875 
Q 44.09375 59.90625 40.109375 62.90625 
Q 36.140625 65.921875 28.71875 65.921875 
Q 24.65625 65.921875 20.015625 65.03125 
Q 15.375 64.15625 9.8125 62.3125 
L 9.8125 71.09375 
Q 15.4375 72.65625 20.34375 73.4375 
Q 25.25 74.21875 29.59375 74.21875 
Q 40.828125 74.21875 47.359375 69.109375 
Q 53.90625 64.015625 53.90625 55.328125 
Q 53.90625 49.265625 50.4375 45.09375 
Q 46.96875 40.921875 40.578125 39.3125 
" id="BitstreamVeraSans-Roman-33"/>
      </defs>
      <g transform="translate(296.622162162 327.758125)scale(0.12 -0.12)">
       <use xlink:href="#BitstreamVeraSans-Roman-33"/>
       <use x="63.623046875" xlink:href="#BitstreamVeraSans-Roman-30"/>
      </g>
     </g>
    </g>
    <g id="xtick_4">
     <g id="line2d_9">
      <g>
       <use style="stroke:#000000;stroke-width:0.5;" x="391.818648649" xlink:href="#m889cdc6a1e" y="314.64"/>
      </g>
     </g>
     <g id="line2d_10">
      <g>
       <use style="stroke:#000000;stroke-width:0.5;" x="391.818648649" xlink:href="#m5284efeaf9" y="12.96"/>
      </g>
     </g>
     <g id="text_4">
      <!-- 40 -->
      <defs>
       <path d="M 37.796875 64.3125 
L 12.890625 25.390625 
L 37.796875 25.390625 
z
M 35.203125 72.90625 
L 47.609375 72.90625 
L 47.609375 25.390625 
L 58.015625 25.390625 
L 58.015625 17.1875 
L 47.609375 17.1875 
L 47.609375 0 
L 37.796875 0 
L 37.796875 17.1875 
L 4.890625 17.1875 
L 4.890625 26.703125 
z
" id="BitstreamVeraSans-Roman-34"/>
      </defs>
      <g transform="translate(384.183648649 327.758125)scale(0.12 -0.12)">
       <use xlink:href="#BitstreamVeraSans-Roman-34"/>
       <use x="63.623046875" xlink:href="#BitstreamVeraSans-Roman-30"/>
      </g>
     </g>
    </g>
    <g id="xtick_5">
     <g id="line2d_11">
      <g>
       <use style="stroke:#000000;stroke-width:0.5;" x="479.380135135" xlink:href="#m889cdc6a1e" y="314.64"/>
      </g>
     </g>
     <g id="line2d_12">
      <g>
       <use style="stroke:#000000;stroke-width:0.5;" x="479.380135135" xlink:href="#m5284efeaf9" y="12.96"/>
      </g>
     </g>
     <g id="text_5">
      <!-- 50 -->
      <defs>
       <path d="M 10.796875 72.90625 
L 49.515625 72.90625 
L 49.515625 64.59375 
L 19.828125 64.59375 
L 19.828125 46.734375 
Q 21.96875 47.46875 24.109375 47.828125 
Q 26.265625 48.1875 28.421875 48.1875 
Q 40.625 48.1875 47.75 41.5 
Q 54.890625 34.8125 54.890625 23.390625 
Q 54.890625 11.625 47.5625 5.09375 
Q 40.234375 -1.421875 26.90625 -1.421875 
Q 22.3125 -1.421875 17.546875 -0.640625 
Q 12.796875 0.140625 7.71875 1.703125 
L 7.71875 11.625 
Q 12.109375 9.234375 16.796875 8.0625 
Q 21.484375 6.890625 26.703125 6.890625 
Q 35.15625 6.890625 40.078125 11.328125 
Q 45.015625 15.765625 45.015625 23.390625 
Q 45.015625 31 40.078125 35.4375 
Q 35.15625 39.890625 26.703125 39.890625 
Q 22.75 39.890625 18.8125 39.015625 
Q 14.890625 38.140625 10.796875 36.28125 
z
" id="BitstreamVeraSans-Roman-35"/>
      </defs>
      <g transform="translate(471.745135135 327.758125)scale(0.12 -0.12)">
       <use xlink:href="#BitstreamVeraSans-Roman-35"/>
       <use x="63.623046875" xlink:href="#BitstreamVeraSans-Roman-30"/>
      </g>
     </g>
    </g>
    <g id="xtick_6">
     <g id="line2d_13">
      <g>
       <use style="stroke:#000000;stroke-width:0.5;" x="566.941621622" xlink:href="#m889cdc6a1e" y="314.64"/>
      </g>
     </g>
     <g id="line2d_14">
      <g>
       <use style="stroke:#000000;stroke-width:0.5;" x="566.941621622" xlink:href="#m5284efeaf9" y="12.96"/>
      </g>
     </g>
     <g id="text_6">
      <!-- 60 -->
      <defs>
       <path d="M 33.015625 40.375 
Q 26.375 40.375 22.484375 35.828125 
Q 18.609375 31.296875 18.609375 23.390625 
Q 18.609375 15.53125 22.484375 10.953125 
Q 26.375 6.390625 33.015625 6.390625 
Q 39.65625 6.390625 43.53125 10.953125 
Q 47.40625 15.53125 47.40625 23.390625 
Q 47.40625 31.296875 43.53125 35.828125 
Q 39.65625 40.375 33.015625 40.375 
M 52.59375 71.296875 
L 52.59375 62.3125 
Q 48.875 64.0625 45.09375 64.984375 
Q 41.3125 65.921875 37.59375 65.921875 
Q 27.828125 65.921875 22.671875 59.328125 
Q 17.53125 52.734375 16.796875 39.40625 
Q 19.671875 43.65625 24.015625 45.921875 
Q 28.375 48.1875 33.59375 48.1875 
Q 44.578125 48.1875 50.953125 41.515625 
Q 57.328125 34.859375 57.328125 23.390625 
Q 57.328125 12.15625 50.6875 5.359375 
Q 44.046875 -1.421875 33.015625 -1.421875 
Q 20.359375 -1.421875 13.671875 8.265625 
Q 6.984375 17.96875 6.984375 36.375 
Q 6.984375 53.65625 15.1875 63.9375 
Q 23.390625 74.21875 37.203125 74.21875 
Q 40.921875 74.21875 44.703125 73.484375 
Q 48.484375 72.75 52.59375 71.296875 
" id="BitstreamVeraSans-Roman-36"/>
      </defs>
      <g transform="translate(559.306621622 327.758125)scale(0.12 -0.12)">
       <use xlink:href="#BitstreamVeraSans-Roman-36"/>
       <use x="63.623046875" xlink:href="#BitstreamVeraSans-Roman-30"/>
      </g>
     </g>
    </g>
    <g id="xtick_7">
     <g id="line2d_15">
      <g>
       <use style="stroke:#000000;stroke-width:0.5;" x="654.503108108" xlink:href="#m889cdc6a1e" y="314.64"/>
      </g>
     </g>
     <g id="line2d_16">
      <g>
       <use style="stroke:#000000;stroke-width:0.5;" x="654.503108108" xlink:href="#m5284efeaf9" y="12.96"/>
      </g>
     </g>
     <g id="text_7">
      <!-- 70 -->
      <defs>
       <path d="M 8.203125 72.90625 
L 55.078125 72.90625 
L 55.078125 68.703125 
L 28.609375 0 
L 18.3125 0 
L 43.21875 64.59375 
L 8.203125 64.59375 
z
" id="BitstreamVeraSans-Roman-37"/>
      </defs>
      <g transform="translate(646.868108108 327.758125)scale(0.12 -0.12)">
       <use xlink:href="#BitstreamVeraSans-Roman-37"/>
       <use x="63.623046875" xlink:href="#BitstreamVeraSans-Roman-30"/>
      </g>
     </g>
    </g>
    <g id="text_8">
     <!-- residue number -->
     <defs>
      <path d="M 41.109375 46.296875 
Q 39.59375 47.171875 37.8125 47.578125 
Q 36.03125 48 33.890625 48 
Q 26.265625 48 22.1875 43.046875 
Q 18.109375 38.09375 18.109375 28.8125 
L 18.109375 0 
L 9.078125 0 
L 9.078125 54.6875 
L 18.109375 54.6875 
L 18.109375 46.1875 
Q 20.953125 51.171875 25.484375 53.578125 
Q 30.03125 56 36.53125 56 
Q 37.453125 56 38.578125 55.875 
Q 39.703125 55.765625 41.0625 55.515625 
z
" id="BitstreamVeraSans-Roman-72"/>
      <path d="M 54.890625 33.015625 
L 54.890625 0 
L 45.90625 0 
L 45.90625 32.71875 
Q 45.90625 40.484375 42.875 44.328125 
Q 39.84375 48.1875 33.796875 48.1875 
Q 26.515625 48.1875 22.3125 43.546875 
Q 18.109375 38.921875 18.109375 30.90625 
L 18.109375 0 
L 9.078125 0 
L 9.078125 54.6875 
L 18.109375 54.6875 
L 18.109375 46.1875 
Q 21.34375 51.125 25.703125 53.5625 
Q 30.078125 56 35.796875 56 
Q 45.21875 56 50.046875 50.171875 
Q 54.890625 44.34375 54.890625 33.015625 
" id="BitstreamVeraSans-Roman-6e"/>
      <path d="M 52 44.1875 
Q 55.375 50.25 60.0625 53.125 
Q 64.75 56 71.09375 56 
Q 79.640625 56 84.28125 50.015625 
Q 88.921875 44.046875 88.921875 33.015625 
L 88.921875 0 
L 79.890625 0 
L 79.890625 32.71875 
Q 79.890625 40.578125 77.09375 44.375 
Q 74.3125 48.1875 68.609375 48.1875 
Q 61.625 48.1875 57.5625 43.546875 
Q 53.515625 38.921875 53.515625 30.90625 
L 53.515625 0 
L 44.484375 0 
L 44.484375 32.71875 
Q 44.484375 40.625 41.703125 44.40625 
Q 38.921875 48.1875 33.109375 48.1875 
Q 26.21875 48.1875 22.15625 43.53125 
Q 18.109375 38.875 18.109375 30.90625 
L 18.109375 0 
L 9.078125 0 
L 9.078125 54.6875 
L 18.109375 54.6875 
L 18.109375 46.1875 
Q 21.1875 51.21875 25.484375 53.609375 
Q 29.78125 56 35.6875 56 
Q 41.65625 56 45.828125 52.96875 
Q 50 49.953125 52 44.1875 
" id="BitstreamVeraSans-Roman-6d"/>
      <path d="M 8.5 21.578125 
L 8.5 54.6875 
L 17.484375 54.6875 
L 17.484375 21.921875 
Q 17.484375 14.15625 20.5 10.265625 
Q 23.53125 6.390625 29.59375 6.390625 
Q 36.859375 6.390625 41.078125 11.03125 
Q 45.3125 15.671875 45.3125 23.6875 
L 45.3125 54.6875 
L 54.296875 54.6875 
L 54.296875 0 
L 45.3125 0 
L 45.3125 8.40625 
Q 42.046875 3.421875 37.71875 1 
Q 33.40625 -1.421875 27.6875 -1.421875 
Q 18.265625 -1.421875 13.375 4.4375 
Q 8.5 10.296875 8.5 21.578125 
" id="BitstreamVeraSans-Roman-75"/>
      <path id="BitstreamVeraSans-Roman-20"/>
      <path d="M 44.28125 53.078125 
L 44.28125 44.578125 
Q 40.484375 46.53125 36.375 47.5 
Q 32.28125 48.484375 27.875 48.484375 
Q 21.1875 48.484375 17.84375 46.4375 
Q 14.5 44.390625 14.5 40.28125 
Q 14.5 37.15625 16.890625 35.375 
Q 19.28125 33.59375 26.515625 31.984375 
L 29.59375 31.296875 
Q 39.15625 29.25 43.1875 25.515625 
Q 47.21875 21.78125 47.21875 15.09375 
Q 47.21875 7.46875 41.1875 3.015625 
Q 35.15625 -1.421875 24.609375 -1.421875 
Q 20.21875 -1.421875 15.453125 -0.5625 
Q 10.6875 0.296875 5.421875 2 
L 5.421875 11.28125 
Q 10.40625 8.6875 15.234375 7.390625 
Q 20.0625 6.109375 24.8125 6.109375 
Q 31.15625 6.109375 34.5625 8.28125 
Q 37.984375 10.453125 37.984375 14.40625 
Q 37.984375 18.0625 35.515625 20.015625 
Q 33.0625 21.96875 24.703125 23.78125 
L 21.578125 24.515625 
Q 13.234375 26.265625 9.515625 29.90625 
Q 5.8125 33.546875 5.8125 39.890625 
Q 5.8125 47.609375 11.28125 51.796875 
Q 16.75 56 26.8125 56 
Q 31.78125 56 36.171875 55.265625 
Q 40.578125 54.546875 44.28125 53.078125 
" id="BitstreamVeraSans-Roman-73"/>
      <path d="M 48.6875 27.296875 
Q 48.6875 37.203125 44.609375 42.84375 
Q 40.53125 48.484375 33.40625 48.484375 
Q 26.265625 48.484375 22.1875 42.84375 
Q 18.109375 37.203125 18.109375 27.296875 
Q 18.109375 17.390625 22.1875 11.75 
Q 26.265625 6.109375 33.40625 6.109375 
Q 40.53125 6.109375 44.609375 11.75 
Q 48.6875 17.390625 48.6875 27.296875 
M 18.109375 46.390625 
Q 20.953125 51.265625 25.265625 53.625 
Q 29.59375 56 35.59375 56 
Q 45.5625 56 51.78125 48.09375 
Q 58.015625 40.1875 58.015625 27.296875 
Q 58.015625 14.40625 51.78125 6.484375 
Q 45.5625 -1.421875 35.59375 -1.421875 
Q 29.59375 -1.421875 25.265625 0.953125 
Q 20.953125 3.328125 18.109375 8.203125 
L 18.109375 0 
L 9.078125 0 
L 9.078125 75.984375 
L 18.109375 75.984375 
z
" id="BitstreamVeraSans-Roman-62"/>
      <path d="M 9.421875 54.6875 
L 18.40625 54.6875 
L 18.40625 0 
L 9.421875 0 
z
M 9.421875 75.984375 
L 18.40625 75.984375 
L 18.40625 64.59375 
L 9.421875 64.59375 
z
" id="BitstreamVeraSans-Roman-69"/>
      <path d="M 56.203125 29.59375 
L 56.203125 25.203125 
L 14.890625 25.203125 
Q 15.484375 15.921875 20.484375 11.0625 
Q 25.484375 6.203125 34.421875 6.203125 
Q 39.59375 6.203125 44.453125 7.46875 
Q 49.3125 8.734375 54.109375 11.28125 
L 54.109375 2.78125 
Q 49.265625 0.734375 44.1875 -0.34375 
Q 39.109375 -1.421875 33.890625 -1.421875 
Q 20.796875 -1.421875 13.15625 6.1875 
Q 5.515625 13.8125 5.515625 26.8125 
Q 5.515625 40.234375 12.765625 48.109375 
Q 20.015625 56 32.328125 56 
Q 43.359375 56 49.78125 48.890625 
Q 56.203125 41.796875 56.203125 29.59375 
M 47.21875 32.234375 
Q 47.125 39.59375 43.09375 43.984375 
Q 39.0625 48.390625 32.421875 48.390625 
Q 24.90625 48.390625 20.390625 44.140625 
Q 15.875 39.890625 15.1875 32.171875 
z
" id="BitstreamVeraSans-Roman-65"/>
      <path d="M 45.40625 46.390625 
L 45.40625 75.984375 
L 54.390625 75.984375 
L 54.390625 0 
L 45.40625 0 
L 45.40625 8.203125 
Q 42.578125 3.328125 38.25 0.953125 
Q 33.9375 -1.421875 27.875 -1.421875 
Q 17.96875 -1.421875 11.734375 6.484375 
Q 5.515625 14.40625 5.515625 27.296875 
Q 5.515625 40.1875 11.734375 48.09375 
Q 17.96875 56 27.875 56 
Q 33.9375 56 38.25 53.625 
Q 42.578125 51.265625 45.40625 46.390625 
M 14.796875 27.296875 
Q 14.796875 17.390625 18.875 11.75 
Q 22.953125 6.109375 30.078125 6.109375 
Q 37.203125 6.109375 41.296875 11.75 
Q 45.40625 17.390625 45.40625 27.296875 
Q 45.40625 37.203125 41.296875 42.84375 
Q 37.203125 48.484375 30.078125 48.484375 
Q 22.953125 48.484375 18.875 42.84375 
Q 14.796875 37.203125 14.796875 27.296875 
" id="BitstreamVeraSans-Roman-64"/>
     </defs>
     <g transform="translate(335.48625 344.371875)scale(0.12 -0.12)">
      <use xlink:href="#BitstreamVeraSans-Roman-72"/>
      <use x="41.08203125" xlink:href="#BitstreamVeraSans-Roman-65"/>
      <use x="102.60546875" xlink:href="#BitstreamVeraSans-Roman-73"/>
      <use x="154.705078125" xlink:href="#BitstreamVeraSans-Roman-69"/>
      <use x="182.48828125" xlink:href="#BitstreamVeraSans-Roman-64"/>
      <use x="245.96484375" xlink:href="#BitstreamVeraSans-Roman-75"/>
      <use x="309.34375" xlink:href="#BitstreamVeraSans-Roman-65"/>
      <use x="370.8671875" xlink:href="#BitstreamVeraSans-Roman-20"/>
      <use x="402.654296875" xlink:href="#BitstreamVeraSans-Roman-6e"/>
      <use x="466.033203125" xlink:href="#BitstreamVeraSans-Roman-75"/>
      <use x="529.412109375" xlink:href="#BitstreamVeraSans-Roman-6d"/>
      <use x="626.82421875" xlink:href="#BitstreamVeraSans-Roman-62"/>
      <use x="690.30078125" xlink:href="#BitstreamVeraSans-Roman-65"/>
      <use x="751.82421875" xlink:href="#BitstreamVeraSans-Roman-72"/>
     </g>
    </g>
   </g>
   <g id="matplotlib.axis_2">
    <g id="ytick_1">
     <g id="line2d_17">
      <path clip-path="url(#pacd6f02ae1)" d="M 59.085 293.892296 
L 707.04 293.892296 
" style="fill:none;stroke:#000000;stroke-dasharray:1.000000,3.000000;stroke-dashoffset:0.0;stroke-width:0.5;"/>
     </g>
     <g id="line2d_18">
      <defs>
       <path d="M 0 0 
L 4 0 
" id="m79cacbe377" style="stroke:#000000;stroke-width:0.5;"/>
      </defs>
      <g>
       <use style="stroke:#000000;stroke-width:0.5;" x="59.085" xlink:href="#m79cacbe377" y="293.892295936"/>
      </g>
     </g>
     <g id="line2d_19">
      <defs>
       <path d="M 0 0 
L -4 0 
" id="m2e30da011f" style="stroke:#000000;stroke-width:0.5;"/>
      </defs>
      <g>
       <use style="stroke:#000000;stroke-width:0.5;" x="707.04" xlink:href="#m2e30da011f" y="293.892295936"/>
      </g>
     </g>
     <g id="text_9">
      <!-- −15 -->
      <defs>
       <path d="M 10.59375 35.5 
L 73.1875 35.5 
L 73.1875 27.203125 
L 10.59375 27.203125 
z
" id="BitstreamVeraSans-Roman-2212"/>
      </defs>
      <g transform="translate(29.759375 297.203545936)scale(0.12 -0.12)">
       <use xlink:href="#BitstreamVeraSans-Roman-2212"/>
       <use x="83.7890625" xlink:href="#BitstreamVeraSans-Roman-31"/>
       <use x="147.412109375" xlink:href="#BitstreamVeraSans-Roman-35"/>
      </g>
     </g>
    </g>
    <g id="ytick_2">
     <g id="line2d_20">
      <path clip-path="url(#pacd6f02ae1)" d="M 59.085 241.499104 
L 707.04 241.499104 
" style="fill:none;stroke:#000000;stroke-dasharray:1.000000,3.000000;stroke-dashoffset:0.0;stroke-width:0.5;"/>
     </g>
     <g id="line2d_21">
      <g>
       <use style="stroke:#000000;stroke-width:0.5;" x="59.085" xlink:href="#m79cacbe377" y="241.499103856"/>
      </g>
     </g>
     <g id="line2d_22">
      <g>
       <use style="stroke:#000000;stroke-width:0.5;" x="707.04" xlink:href="#m2e30da011f" y="241.499103856"/>
      </g>
     </g>
     <g id="text_10">
      <!-- −10 -->
      <g transform="translate(29.759375 244.810353856)scale(0.12 -0.12)">
       <use xlink:href="#BitstreamVeraSans-Roman-2212"/>
       <use x="83.7890625" xlink:href="#BitstreamVeraSans-Roman-31"/>
       <use x="147.412109375" xlink:href="#BitstreamVeraSans-Roman-30"/>
      </g>
     </g>
    </g>
    <g id="ytick_3">
     <g id="line2d_23">
      <path clip-path="url(#pacd6f02ae1)" d="M 59.085 189.105912 
L 707.04 189.105912 
" style="fill:none;stroke:#000000;stroke-dasharray:1.000000,3.000000;stroke-dashoffset:0.0;stroke-width:0.5;"/>
     </g>
     <g id="line2d_24">
      <g>
       <use style="stroke:#000000;stroke-width:0.5;" x="59.085" xlink:href="#m79cacbe377" y="189.105911775"/>
      </g>
     </g>
     <g id="line2d_25">
      <g>
       <use style="stroke:#000000;stroke-width:0.5;" x="707.04" xlink:href="#m2e30da011f" y="189.105911775"/>
      </g>
     </g>
     <g id="text_11">
      <!-- −5 -->
      <g transform="translate(37.394375 192.417161775)scale(0.12 -0.12)">
       <use xlink:href="#BitstreamVeraSans-Roman-2212"/>
       <use x="83.7890625" xlink:href="#BitstreamVeraSans-Roman-35"/>
      </g>
     </g>
    </g>
    <g id="ytick_4">
     <g id="line2d_26">
      <path clip-path="url(#pacd6f02ae1)" d="M 59.085 136.71272 
L 707.04 136.71272 
" style="fill:none;stroke:#000000;stroke-dasharray:1.000000,3.000000;stroke-dashoffset:0.0;stroke-width:0.5;"/>
     </g>
     <g id="line2d_27">
      <g>
       <use style="stroke:#000000;stroke-width:0.5;" x="59.085" xlink:href="#m79cacbe377" y="136.712719694"/>
      </g>
     </g>
     <g id="line2d_28">
      <g>
       <use style="stroke:#000000;stroke-width:0.5;" x="707.04" xlink:href="#m2e30da011f" y="136.712719694"/>
      </g>
     </g>
     <g id="text_12">
      <!-- 0 -->
      <g transform="translate(47.45 140.023969694)scale(0.12 -0.12)">
       <use xlink:href="#BitstreamVeraSans-Roman-30"/>
      </g>
     </g>
    </g>
    <g id="ytick_5">
     <g id="line2d_29">
      <path clip-path="url(#pacd6f02ae1)" d="M 59.085 84.319528 
L 707.04 84.319528 
" style="fill:none;stroke:#000000;stroke-dasharray:1.000000,3.000000;stroke-dashoffset:0.0;stroke-width:0.5;"/>
     </g>
     <g id="line2d_30">
      <g>
       <use style="stroke:#000000;stroke-width:0.5;" x="59.085" xlink:href="#m79cacbe377" y="84.3195276138"/>
      </g>
     </g>
     <g id="line2d_31">
      <g>
       <use style="stroke:#000000;stroke-width:0.5;" x="707.04" xlink:href="#m2e30da011f" y="84.3195276138"/>
      </g>
     </g>
     <g id="text_13">
      <!-- 5 -->
      <g transform="translate(47.45 87.6307776138)scale(0.12 -0.12)">
       <use xlink:href="#BitstreamVeraSans-Roman-35"/>
      </g>
     </g>
    </g>
    <g id="ytick_6">
     <g id="line2d_32">
      <path clip-path="url(#pacd6f02ae1)" d="M 59.085 31.926336 
L 707.04 31.926336 
" style="fill:none;stroke:#000000;stroke-dasharray:1.000000,3.000000;stroke-dashoffset:0.0;stroke-width:0.5;"/>
     </g>
     <g id="line2d_33">
      <g>
       <use style="stroke:#000000;stroke-width:0.5;" x="59.085" xlink:href="#m79cacbe377" y="31.9263355332"/>
      </g>
     </g>
     <g id="line2d_34">
      <g>
       <use style="stroke:#000000;stroke-width:0.5;" x="707.04" xlink:href="#m2e30da011f" y="31.9263355332"/>
      </g>
     </g>
     <g id="text_14">
      <!-- 10 -->
      <g transform="translate(39.815 35.2375855332)scale(0.12 -0.12)">
       <use xlink:href="#BitstreamVeraSans-Roman-31"/>
       <use x="63.623046875" xlink:href="#BitstreamVeraSans-Roman-30"/>
      </g>
     </g>
    </g>
    <g id="text_15">
     <!-- value -->
     <defs>
      <path d="M 9.421875 75.984375 
L 18.40625 75.984375 
L 18.40625 0 
L 9.421875 0 
z
" id="BitstreamVeraSans-Roman-6c"/>
      <path d="M 2.984375 54.6875 
L 12.5 54.6875 
L 29.59375 8.796875 
L 46.6875 54.6875 
L 56.203125 54.6875 
L 35.6875 0 
L 23.484375 0 
z
" id="BitstreamVeraSans-Roman-76"/>
      <path d="M 34.28125 27.484375 
Q 23.390625 27.484375 19.1875 25 
Q 14.984375 22.515625 14.984375 16.5 
Q 14.984375 11.71875 18.140625 8.90625 
Q 21.296875 6.109375 26.703125 6.109375 
Q 34.1875 6.109375 38.703125 11.40625 
Q 43.21875 16.703125 43.21875 25.484375 
L 43.21875 27.484375 
z
M 52.203125 31.203125 
L 52.203125 0 
L 43.21875 0 
L 43.21875 8.296875 
Q 40.140625 3.328125 35.546875 0.953125 
Q 30.953125 -1.421875 24.3125 -1.421875 
Q 15.921875 -1.421875 10.953125 3.296875 
Q 6 8.015625 6 15.921875 
Q 6 25.140625 12.171875 29.828125 
Q 18.359375 34.515625 30.609375 34.515625 
L 43.21875 34.515625 
L 43.21875 35.40625 
Q 43.21875 41.609375 39.140625 45 
Q 35.0625 48.390625 27.6875 48.390625 
Q 23 48.390625 18.546875 47.265625 
Q 14.109375 46.140625 10.015625 43.890625 
L 10.015625 52.203125 
Q 14.9375 54.109375 19.578125 55.046875 
Q 24.21875 56 28.609375 56 
Q 40.484375 56 46.34375 49.84375 
Q 52.203125 43.703125 52.203125 31.203125 
" id="BitstreamVeraSans-Roman-61"/>
     </defs>
     <g transform="translate(22.26375 180.189375)rotate(-90.0)scale(0.12 -0.12)">
      <use xlink:href="#BitstreamVeraSans-Roman-76"/>
      <use x="59.1796875" xlink:href="#BitstreamVeraSans-Roman-61"/>
      <use x="120.458984375" xlink:href="#BitstreamVeraSans-Roman-6c"/>
      <use x="148.2421875" xlink:href="#BitstreamVeraSans-Roman-75"/>
      <use x="211.62109375" xlink:href="#BitstreamVeraSans-Roman-65"/>
     </g>
    </g>
   </g>
   <g id="legend_1">
    <g id="patch_7">
     <path d="M 66.285 307.44 
L 146.7855 307.44 
L 146.7855 260.847 
L 66.285 260.847 
z
" style="fill:#ffffff;stroke:#000000;stroke-linejoin:miter;"/>
    </g>
    <g id="line2d_35">
     <path d="M 76.365 272.50875 
L 96.525 272.50875 
" style="fill:none;stroke:#ff0000;stroke-linecap:square;stroke-width:2.0;"/>
    </g>
    <g id="line2d_36">
     <g>
      <use style="fill:#ff0000;stroke:#000000;stroke-width:0.5;" x="76.365" xlink:href="#m1f410a5935" y="272.50875"/>
      <use style="fill:#ff0000;stroke:#000000;stroke-width:0.5;" x="96.525" xlink:href="#m1f410a5935" y="272.50875"/>
     </g>
    </g>
    <g id="text_16">
     <!-- exp -->
     <defs>
      <path d="M 18.109375 8.203125 
L 18.109375 -20.796875 
L 9.078125 -20.796875 
L 9.078125 54.6875 
L 18.109375 54.6875 
L 18.109375 46.390625 
Q 20.953125 51.265625 25.265625 53.625 
Q 29.59375 56 35.59375 56 
Q 45.5625 56 51.78125 48.09375 
Q 58.015625 40.1875 58.015625 27.296875 
Q 58.015625 14.40625 51.78125 6.484375 
Q 45.5625 -1.421875 35.59375 -1.421875 
Q 29.59375 -1.421875 25.265625 0.953125 
Q 20.953125 3.328125 18.109375 8.203125 
M 48.6875 27.296875 
Q 48.6875 37.203125 44.609375 42.84375 
Q 40.53125 48.484375 33.40625 48.484375 
Q 26.265625 48.484375 22.1875 42.84375 
Q 18.109375 37.203125 18.109375 27.296875 
Q 18.109375 17.390625 22.1875 11.75 
Q 26.265625 6.109375 33.40625 6.109375 
Q 40.53125 6.109375 44.609375 11.75 
Q 48.6875 17.390625 48.6875 27.296875 
" id="BitstreamVeraSans-Roman-70"/>
      <path d="M 54.890625 54.6875 
L 35.109375 28.078125 
L 55.90625 0 
L 45.3125 0 
L 29.390625 21.484375 
L 13.484375 0 
L 2.875 0 
L 24.125 28.609375 
L 4.6875 54.6875 
L 15.28125 54.6875 
L 29.78125 35.203125 
L 44.28125 54.6875 
z
" id="BitstreamVeraSans-Roman-78"/>
     </defs>
     <g transform="translate(112.365 277.54875)scale(0.144 -0.144)">
      <use xlink:href="#BitstreamVeraSans-Roman-65"/>
      <use x="61.5078125" xlink:href="#BitstreamVeraSans-Roman-78"/>
      <use x="120.6875" xlink:href="#BitstreamVeraSans-Roman-70"/>
     </g>
    </g>
    <g id="line2d_37">
     <path d="M 76.365 293.64525 
L 96.525 293.64525 
" style="fill:none;stroke:#0000ff;stroke-linecap:square;stroke-width:2.0;"/>
    </g>
    <g id="line2d_38">
     <g>
      <use style="fill:#0000ff;stroke:#000000;stroke-width:0.5;" x="76.365" xlink:href="#m96862b59d1" y="293.64525"/>
      <use style="fill:#0000ff;stroke:#000000;stroke-width:0.5;" x="96.525" xlink:href="#m96862b59d1" y="293.64525"/>
     </g>
    </g>
    <g id="text_17">
     <!-- calc -->
     <defs>
      <path d="M 48.78125 52.59375 
L 48.78125 44.1875 
Q 44.96875 46.296875 41.140625 47.34375 
Q 37.3125 48.390625 33.40625 48.390625 
Q 24.65625 48.390625 19.8125 42.84375 
Q 14.984375 37.3125 14.984375 27.296875 
Q 14.984375 17.28125 19.8125 11.734375 
Q 24.65625 6.203125 33.40625 6.203125 
Q 37.3125 6.203125 41.140625 7.25 
Q 44.96875 8.296875 48.78125 10.40625 
L 48.78125 2.09375 
Q 45.015625 0.34375 40.984375 -0.53125 
Q 36.96875 -1.421875 32.421875 -1.421875 
Q 20.0625 -1.421875 12.78125 6.34375 
Q 5.515625 14.109375 5.515625 27.296875 
Q 5.515625 40.671875 12.859375 48.328125 
Q 20.21875 56 33.015625 56 
Q 37.15625 56 41.109375 55.140625 
Q 45.0625 54.296875 48.78125 52.59375 
" id="BitstreamVeraSans-Roman-63"/>
     </defs>
     <g transform="translate(112.365 298.68525)scale(0.144 -0.144)">
      <use xlink:href="#BitstreamVeraSans-Roman-63"/>
      <use x="54.98046875" xlink:href="#BitstreamVeraSans-Roman-61"/>
      <use x="116.259765625" xlink:href="#BitstreamVeraSans-Roman-6c"/>
      <use x="144.04296875" xlink:href="#BitstreamVeraSans-Roman-63"/>
     </g>
    </g>
   </g>
  </g>
 </g>
 <defs>
  <clipPath id="pacd6f02ae1">
   <rect height="301.68" width="647.955" x="59.085" y="12.96"/>
  </clipPath>
 </defs>
</svg>
