<?xml version="1.0" encoding="utf-8" standalone="no"?>
<!DOCTYPE svg PUBLIC "-//W3C//DTD SVG 1.1//EN"
  "http://www.w3.org/Graphics/SVG/1.1/DTD/svg11.dtd">
<!-- Created with matplotlib (http://matplotlib.org/) -->
<svg height="360pt" version="1.1" viewBox="0 0 720 360" width="720pt" xmlns="http://www.w3.org/2000/svg" xmlns:xlink="http://www.w3.org/1999/xlink">
 <defs>
  <style type="text/css">
*{stroke-linecap:butt;stroke-linejoin:round;stroke-miterlimit:100000;}
  </style>
 </defs>
 <g id="figure_1">
  <g id="patch_1">
   <path d="M 0 360 
L 720 360 
L 720 0 
L 0 0 
z
" style="fill:#ffffff;"/>
  </g>
  <g id="axes_1">
   <g id="patch_2">
    <path d="M 51.5475 314.64 
L 707.04 314.64 
L 707.04 12.96 
L 51.5475 12.96 
z
" style="fill:#ffffff;"/>
   </g>
   <g id="line2d_1">
    <path clip-path="url(#pf9907703d1)" d="M 51.5475 276.059254 
L 60.405507 113.698615 
L 69.263514 202.648668 
L 78.12152 278.738472 
L 86.979527 161.388703 
L 95.837534 314.104156 
L 104.695541 137.811581 
L 122.411554 231.584227 
L 131.269561 194.075169 
L 148.985574 64.400995 
L 157.843581 286.240284 
L 166.701588 51.540746 
L 175.559595 314.64 
L 184.417601 87.442274 
L 193.275608 261.055631 
L 210.991622 118.521208 
L 219.849628 264.270693 
L 228.707635 185.50167 
L 237.565642 178.535702 
L 255.281655 105.125115 
L 264.139662 70.831119 
L 272.997669 278.202629 
L 281.855676 12.96 
L 290.713682 122.272114 
L 299.571689 160.85286 
L 308.429696 183.358295 
L 317.287703 73.510337 
L 326.145709 76.7254 
L 335.003716 276.059254 
L 343.861723 272.308348 
L 352.71973 158.709485 
L 379.29375 177.999858 
L 388.151757 108.340178 
L 397.009764 166.211297 
L 414.725777 250.338757 
L 423.583784 25.820249 
L 441.299797 20.997655 
L 450.157804 230.51254 
L 459.015811 83.691368 
L 467.873818 39.216341 
L 476.731824 185.50167 
L 485.589831 110.483552 
L 494.447838 83.691368 
L 512.163851 254.089663 
L 529.879865 46.182309 
L 538.737872 158.709485 
L 547.595878 86.90643 
L 556.453885 82.61968 
L 565.311892 196.754387 
L 574.169899 61.721776 
L 583.027905 278.738472 
L 600.743919 103.517584 
L 609.601926 195.6827 
L 618.459932 247.123694 
L 627.317939 207.471261 
L 636.175946 246.587851 
L 645.033953 153.886892 
L 653.891959 310.889094 
L 662.749966 124.951332 
L 671.607973 186.573357 
L 680.46598 223.010728 
L 689.323986 152.815204 
L 698.181993 160.317016 
L 707.04 138.347425 
" style="fill:none;stroke:#ff0000;stroke-linecap:square;stroke-width:2.0;"/>
    <defs>
     <path d="M 0 3 
C 0.795609 3 1.55874 2.683901 2.12132 2.12132 
C 2.683901 1.55874 3 0.795609 3 0 
C 3 -0.795609 2.683901 -1.55874 2.12132 -2.12132 
C 1.55874 -2.683901 0.795609 -3 0 -3 
C -0.795609 -3 -1.55874 -2.683901 -2.12132 -2.12132 
C -2.683901 -1.55874 -3 -0.795609 -3 0 
C -3 0.795609 -2.683901 1.55874 -2.12132 2.12132 
C -1.55874 2.683901 -0.795609 3 0 3 
z
" id="m40ad655cfd" style="stroke:#000000;stroke-width:0.5;"/>
    </defs>
    <g clip-path="url(#pf9907703d1)">
     <use style="fill:#ff0000;stroke:#000000;stroke-width:0.5;" x="51.5475" xlink:href="#m40ad655cfd" y="276.059253996"/>
     <use style="fill:#ff0000;stroke:#000000;stroke-width:0.5;" x="60.4055067568" xlink:href="#m40ad655cfd" y="113.698614565"/>
     <use style="fill:#ff0000;stroke:#000000;stroke-width:0.5;" x="69.2635135135" xlink:href="#m40ad655cfd" y="202.648667851"/>
     <use style="fill:#ff0000;stroke:#000000;stroke-width:0.5;" x="78.1215202703" xlink:href="#m40ad655cfd" y="278.738472469"/>
     <use style="fill:#ff0000;stroke:#000000;stroke-width:0.5;" x="86.979527027" xlink:href="#m40ad655cfd" y="161.388703375"/>
     <use style="fill:#ff0000;stroke:#000000;stroke-width:0.5;" x="95.8375337838" xlink:href="#m40ad655cfd" y="314.104156306"/>
     <use style="fill:#ff0000;stroke:#000000;stroke-width:0.5;" x="104.695540541" xlink:href="#m40ad655cfd" y="137.811580817"/>
     <use style="fill:#ff0000;stroke:#000000;stroke-width:0.5;" x="122.411554054" xlink:href="#m40ad655cfd" y="231.584227353"/>
     <use style="fill:#ff0000;stroke:#000000;stroke-width:0.5;" x="131.269560811" xlink:href="#m40ad655cfd" y="194.075168739"/>
     <use style="fill:#ff0000;stroke:#000000;stroke-width:0.5;" x="148.985574324" xlink:href="#m40ad655cfd" y="64.4009946714"/>
     <use style="fill:#ff0000;stroke:#000000;stroke-width:0.5;" x="157.843581081" xlink:href="#m40ad655cfd" y="286.240284192"/>
     <use style="fill:#ff0000;stroke:#000000;stroke-width:0.5;" x="166.701587838" xlink:href="#m40ad655cfd" y="51.5407460036"/>
     <use style="fill:#ff0000;stroke:#000000;stroke-width:0.5;" x="175.559594595" xlink:href="#m40ad655cfd" y="314.64"/>
     <use style="fill:#ff0000;stroke:#000000;stroke-width:0.5;" x="184.417601351" xlink:href="#m40ad655cfd" y="87.4422735346"/>
     <use style="fill:#ff0000;stroke:#000000;stroke-width:0.5;" x="193.275608108" xlink:href="#m40ad655cfd" y="261.055630551"/>
     <use style="fill:#ff0000;stroke:#000000;stroke-width:0.5;" x="210.991621622" xlink:href="#m40ad655cfd" y="118.521207815"/>
     <use style="fill:#ff0000;stroke:#000000;stroke-width:0.5;" x="219.849628378" xlink:href="#m40ad655cfd" y="264.270692718"/>
     <use style="fill:#ff0000;stroke:#000000;stroke-width:0.5;" x="228.707635135" xlink:href="#m40ad655cfd" y="185.501669627"/>
     <use style="fill:#ff0000;stroke:#000000;stroke-width:0.5;" x="237.565641892" xlink:href="#m40ad655cfd" y="178.535701599"/>
     <use style="fill:#ff0000;stroke:#000000;stroke-width:0.5;" x="255.281655405" xlink:href="#m40ad655cfd" y="105.125115453"/>
     <use style="fill:#ff0000;stroke:#000000;stroke-width:0.5;" x="264.139662162" xlink:href="#m40ad655cfd" y="70.8311190053"/>
     <use style="fill:#ff0000;stroke:#000000;stroke-width:0.5;" x="272.997668919" xlink:href="#m40ad655cfd" y="278.202628774"/>
     <use style="fill:#ff0000;stroke:#000000;stroke-width:0.5;" x="281.855675676" xlink:href="#m40ad655cfd" y="12.96"/>
     <use style="fill:#ff0000;stroke:#000000;stroke-width:0.5;" x="290.713682432" xlink:href="#m40ad655cfd" y="122.272113677"/>
     <use style="fill:#ff0000;stroke:#000000;stroke-width:0.5;" x="299.571689189" xlink:href="#m40ad655cfd" y="160.85285968"/>
     <use style="fill:#ff0000;stroke:#000000;stroke-width:0.5;" x="308.429695946" xlink:href="#m40ad655cfd" y="183.358294849"/>
     <use style="fill:#ff0000;stroke:#000000;stroke-width:0.5;" x="317.287702703" xlink:href="#m40ad655cfd" y="73.5103374778"/>
     <use style="fill:#ff0000;stroke:#000000;stroke-width:0.5;" x="326.145709459" xlink:href="#m40ad655cfd" y="76.7253996448"/>
     <use style="fill:#ff0000;stroke:#000000;stroke-width:0.5;" x="335.003716216" xlink:href="#m40ad655cfd" y="276.059253996"/>
     <use style="fill:#ff0000;stroke:#000000;stroke-width:0.5;" x="343.861722973" xlink:href="#m40ad655cfd" y="272.308348135"/>
     <use style="fill:#ff0000;stroke:#000000;stroke-width:0.5;" x="352.71972973" xlink:href="#m40ad655cfd" y="158.709484902"/>
     <use style="fill:#ff0000;stroke:#000000;stroke-width:0.5;" x="379.29375" xlink:href="#m40ad655cfd" y="177.999857904"/>
     <use style="fill:#ff0000;stroke:#000000;stroke-width:0.5;" x="388.151756757" xlink:href="#m40ad655cfd" y="108.34017762"/>
     <use style="fill:#ff0000;stroke:#000000;stroke-width:0.5;" x="397.009763514" xlink:href="#m40ad655cfd" y="166.211296625"/>
     <use style="fill:#ff0000;stroke:#000000;stroke-width:0.5;" x="414.725777027" xlink:href="#m40ad655cfd" y="250.338756661"/>
     <use style="fill:#ff0000;stroke:#000000;stroke-width:0.5;" x="423.583783784" xlink:href="#m40ad655cfd" y="25.8202486679"/>
     <use style="fill:#ff0000;stroke:#000000;stroke-width:0.5;" x="441.299797297" xlink:href="#m40ad655cfd" y="20.9976554174"/>
     <use style="fill:#ff0000;stroke:#000000;stroke-width:0.5;" x="450.157804054" xlink:href="#m40ad655cfd" y="230.512539964"/>
     <use style="fill:#ff0000;stroke:#000000;stroke-width:0.5;" x="459.015810811" xlink:href="#m40ad655cfd" y="83.6913676732"/>
     <use style="fill:#ff0000;stroke:#000000;stroke-width:0.5;" x="467.873817568" xlink:href="#m40ad655cfd" y="39.2163410302"/>
     <use style="fill:#ff0000;stroke:#000000;stroke-width:0.5;" x="476.731824324" xlink:href="#m40ad655cfd" y="185.501669627"/>
     <use style="fill:#ff0000;stroke:#000000;stroke-width:0.5;" x="485.589831081" xlink:href="#m40ad655cfd" y="110.483552398"/>
     <use style="fill:#ff0000;stroke:#000000;stroke-width:0.5;" x="494.447837838" xlink:href="#m40ad655cfd" y="83.6913676732"/>
     <use style="fill:#ff0000;stroke:#000000;stroke-width:0.5;" x="512.163851351" xlink:href="#m40ad655cfd" y="254.089662522"/>
     <use style="fill:#ff0000;stroke:#000000;stroke-width:0.5;" x="529.879864865" xlink:href="#m40ad655cfd" y="46.1823090586"/>
     <use style="fill:#ff0000;stroke:#000000;stroke-width:0.5;" x="538.737871622" xlink:href="#m40ad655cfd" y="158.709484902"/>
     <use style="fill:#ff0000;stroke:#000000;stroke-width:0.5;" x="547.595878378" xlink:href="#m40ad655cfd" y="86.9064298401"/>
     <use style="fill:#ff0000;stroke:#000000;stroke-width:0.5;" x="556.453885135" xlink:href="#m40ad655cfd" y="82.6196802842"/>
     <use style="fill:#ff0000;stroke:#000000;stroke-width:0.5;" x="565.311891892" xlink:href="#m40ad655cfd" y="196.754387211"/>
     <use style="fill:#ff0000;stroke:#000000;stroke-width:0.5;" x="574.169898649" xlink:href="#m40ad655cfd" y="61.7217761989"/>
     <use style="fill:#ff0000;stroke:#000000;stroke-width:0.5;" x="583.027905405" xlink:href="#m40ad655cfd" y="278.738472469"/>
     <use style="fill:#ff0000;stroke:#000000;stroke-width:0.5;" x="600.743918919" xlink:href="#m40ad655cfd" y="103.517584369"/>
     <use style="fill:#ff0000;stroke:#000000;stroke-width:0.5;" x="609.601925676" xlink:href="#m40ad655cfd" y="195.682699822"/>
     <use style="fill:#ff0000;stroke:#000000;stroke-width:0.5;" x="618.459932432" xlink:href="#m40ad655cfd" y="247.123694494"/>
     <use style="fill:#ff0000;stroke:#000000;stroke-width:0.5;" x="627.317939189" xlink:href="#m40ad655cfd" y="207.471261101"/>
     <use style="fill:#ff0000;stroke:#000000;stroke-width:0.5;" x="636.175945946" xlink:href="#m40ad655cfd" y="246.587850799"/>
     <use style="fill:#ff0000;stroke:#000000;stroke-width:0.5;" x="645.033952703" xlink:href="#m40ad655cfd" y="153.886891652"/>
     <use style="fill:#ff0000;stroke:#000000;stroke-width:0.5;" x="653.891959459" xlink:href="#m40ad655cfd" y="310.889094139"/>
     <use style="fill:#ff0000;stroke:#000000;stroke-width:0.5;" x="662.749966216" xlink:href="#m40ad655cfd" y="124.951332149"/>
     <use style="fill:#ff0000;stroke:#000000;stroke-width:0.5;" x="671.607972973" xlink:href="#m40ad655cfd" y="186.573357016"/>
     <use style="fill:#ff0000;stroke:#000000;stroke-width:0.5;" x="680.46597973" xlink:href="#m40ad655cfd" y="223.010728242"/>
     <use style="fill:#ff0000;stroke:#000000;stroke-width:0.5;" x="689.323986486" xlink:href="#m40ad655cfd" y="152.815204263"/>
     <use style="fill:#ff0000;stroke:#000000;stroke-width:0.5;" x="698.181993243" xlink:href="#m40ad655cfd" y="160.317015986"/>
     <use style="fill:#ff0000;stroke:#000000;stroke-width:0.5;" x="707.04" xlink:href="#m40ad655cfd" y="138.347424512"/>
    </g>
   </g>
   <g id="line2d_2">
    <path clip-path="url(#pf9907703d1)" d="M 51.5475 247.648821 
L 60.405507 130.683252 
L 69.263514 191.391128 
L 78.12152 256.476846 
L 86.979527 162.577205 
L 95.837534 279.998777 
L 104.695541 148.029048 
L 122.411554 222.046745 
L 131.269561 176.823145 
L 148.985574 92.077321 
L 157.843581 254.953978 
L 166.701588 74.340359 
L 175.559595 275.231375 
L 184.417601 92.186098 
L 193.275608 233.566849 
L 210.991622 127.541065 
L 219.849628 235.327096 
L 228.707635 195.595357 
L 237.565642 177.902334 
L 255.281655 112.812329 
L 264.139662 86.438102 
L 272.997669 258.816876 
L 281.855676 48.909753 
L 290.713682 123.690492 
L 299.571689 164.911876 
L 308.429696 179.30303 
L 317.287703 81.490122 
L 326.145709 86.89357 
L 335.003716 248.330414 
L 343.861723 232.661809 
L 352.71973 152.241852 
L 379.29375 172.273832 
L 388.151757 120.431491 
L 397.009764 165.663129 
L 414.725777 228.440432 
L 423.583784 56.432463 
L 441.299797 49.421484 
L 450.157804 214.509032 
L 459.015811 98.097525 
L 467.873818 64.056983 
L 476.731824 167.270124 
L 485.589831 121.409405 
L 494.447838 96.070965 
L 512.163851 236.668312 
L 529.879865 79.27548 
L 538.737872 156.236566 
L 547.595878 100.694224 
L 556.453885 96.838829 
L 565.311892 192.12309 
L 574.169899 85.416784 
L 583.027905 247.092616 
L 600.743919 120.634575 
L 609.601926 186.262032 
L 618.459932 232.965632 
L 627.317939 199.164612 
L 636.175946 242.104982 
L 645.033953 154.556696 
L 653.891959 277.920239 
L 662.749966 126.216995 
L 671.607973 232.40514 
L 680.46598 165.590254 
L 689.323986 192.56784 
L 698.181993 206.616055 
L 707.04 104.409764 
" style="fill:none;stroke:#0000ff;stroke-linecap:square;stroke-width:2.0;"/>
    <defs>
     <path d="M 0 3 
C 0.795609 3 1.55874 2.683901 2.12132 2.12132 
C 2.683901 1.55874 3 0.795609 3 0 
C 3 -0.795609 2.683901 -1.55874 2.12132 -2.12132 
C 1.55874 -2.683901 0.795609 -3 0 -3 
C -0.795609 -3 -1.55874 -2.683901 -2.12132 -2.12132 
C -2.683901 -1.55874 -3 -0.795609 -3 0 
C -3 0.795609 -2.683901 1.55874 -2.12132 2.12132 
C -1.55874 2.683901 -0.795609 3 0 3 
z
" id="m02d92be8a1" style="stroke:#000000;stroke-width:0.5;"/>
    </defs>
    <g clip-path="url(#pf9907703d1)">
     <use style="fill:#0000ff;stroke:#000000;stroke-width:0.5;" x="51.5475" xlink:href="#m02d92be8a1" y="247.648821314"/>
     <use style="fill:#0000ff;stroke:#000000;stroke-width:0.5;" x="60.4055067568" xlink:href="#m02d92be8a1" y="130.683252149"/>
     <use style="fill:#0000ff;stroke:#000000;stroke-width:0.5;" x="69.2635135135" xlink:href="#m02d92be8a1" y="191.391127673"/>
     <use style="fill:#0000ff;stroke:#000000;stroke-width:0.5;" x="78.1215202703" xlink:href="#m02d92be8a1" y="256.476846181"/>
     <use style="fill:#0000ff;stroke:#000000;stroke-width:0.5;" x="86.979527027" xlink:href="#m02d92be8a1" y="162.577204689"/>
     <use style="fill:#0000ff;stroke:#000000;stroke-width:0.5;" x="95.8375337838" xlink:href="#m02d92be8a1" y="279.998776838"/>
     <use style="fill:#0000ff;stroke:#000000;stroke-width:0.5;" x="104.695540541" xlink:href="#m02d92be8a1" y="148.029048384"/>
     <use style="fill:#0000ff;stroke:#000000;stroke-width:0.5;" x="122.411554054" xlink:href="#m02d92be8a1" y="222.046745435"/>
     <use style="fill:#0000ff;stroke:#000000;stroke-width:0.5;" x="131.269560811" xlink:href="#m02d92be8a1" y="176.823145151"/>
     <use style="fill:#0000ff;stroke:#000000;stroke-width:0.5;" x="148.985574324" xlink:href="#m02d92be8a1" y="92.077321492"/>
     <use style="fill:#0000ff;stroke:#000000;stroke-width:0.5;" x="157.843581081" xlink:href="#m02d92be8a1" y="254.953978401"/>
     <use style="fill:#0000ff;stroke:#000000;stroke-width:0.5;" x="166.701587838" xlink:href="#m02d92be8a1" y="74.3403593606"/>
     <use style="fill:#0000ff;stroke:#000000;stroke-width:0.5;" x="175.559594595" xlink:href="#m02d92be8a1" y="275.231375488"/>
     <use style="fill:#0000ff;stroke:#000000;stroke-width:0.5;" x="184.417601351" xlink:href="#m02d92be8a1" y="92.186097762"/>
     <use style="fill:#0000ff;stroke:#000000;stroke-width:0.5;" x="193.275608108" xlink:href="#m02d92be8a1" y="233.566849023"/>
     <use style="fill:#0000ff;stroke:#000000;stroke-width:0.5;" x="210.991621622" xlink:href="#m02d92be8a1" y="127.541064725"/>
     <use style="fill:#0000ff;stroke:#000000;stroke-width:0.5;" x="219.849628378" xlink:href="#m02d92be8a1" y="235.32709556"/>
     <use style="fill:#0000ff;stroke:#000000;stroke-width:0.5;" x="228.707635135" xlink:href="#m02d92be8a1" y="195.5953573"/>
     <use style="fill:#0000ff;stroke:#000000;stroke-width:0.5;" x="237.565641892" xlink:href="#m02d92be8a1" y="177.902334352"/>
     <use style="fill:#0000ff;stroke:#000000;stroke-width:0.5;" x="255.281655405" xlink:href="#m02d92be8a1" y="112.812329094"/>
     <use style="fill:#0000ff;stroke:#000000;stroke-width:0.5;" x="264.139662162" xlink:href="#m02d92be8a1" y="86.4381024512"/>
     <use style="fill:#0000ff;stroke:#000000;stroke-width:0.5;" x="272.997668919" xlink:href="#m02d92be8a1" y="258.816875595"/>
     <use style="fill:#0000ff;stroke:#000000;stroke-width:0.5;" x="281.855675676" xlink:href="#m02d92be8a1" y="48.9097534636"/>
     <use style="fill:#0000ff;stroke:#000000;stroke-width:0.5;" x="290.713682432" xlink:href="#m02d92be8a1" y="123.690491936"/>
     <use style="fill:#0000ff;stroke:#000000;stroke-width:0.5;" x="299.571689189" xlink:href="#m02d92be8a1" y="164.911875666"/>
     <use style="fill:#0000ff;stroke:#000000;stroke-width:0.5;" x="308.429695946" xlink:href="#m02d92be8a1" y="179.303029769"/>
     <use style="fill:#0000ff;stroke:#000000;stroke-width:0.5;" x="317.287702703" xlink:href="#m02d92be8a1" y="81.4901217762"/>
     <use style="fill:#0000ff;stroke:#000000;stroke-width:0.5;" x="326.145709459" xlink:href="#m02d92be8a1" y="86.8935695915"/>
     <use style="fill:#0000ff;stroke:#000000;stroke-width:0.5;" x="335.003716216" xlink:href="#m02d92be8a1" y="248.330414494"/>
     <use style="fill:#0000ff;stroke:#000000;stroke-width:0.5;" x="343.861722973" xlink:href="#m02d92be8a1" y="232.661809023"/>
     <use style="fill:#0000ff;stroke:#000000;stroke-width:0.5;" x="352.71972973" xlink:href="#m02d92be8a1" y="152.24185151"/>
     <use style="fill:#0000ff;stroke:#000000;stroke-width:0.5;" x="379.29375" xlink:href="#m02d92be8a1" y="172.273832185"/>
     <use style="fill:#0000ff;stroke:#000000;stroke-width:0.5;" x="388.151756757" xlink:href="#m02d92be8a1" y="120.431490586"/>
     <use style="fill:#0000ff;stroke:#000000;stroke-width:0.5;" x="397.009763514" xlink:href="#m02d92be8a1" y="165.663128526"/>
     <use style="fill:#0000ff;stroke:#000000;stroke-width:0.5;" x="414.725777027" xlink:href="#m02d92be8a1" y="228.440432398"/>
     <use style="fill:#0000ff;stroke:#000000;stroke-width:0.5;" x="423.583783784" xlink:href="#m02d92be8a1" y="56.4324630906"/>
     <use style="fill:#0000ff;stroke:#000000;stroke-width:0.5;" x="441.299797297" xlink:href="#m02d92be8a1" y="49.4214841918"/>
     <use style="fill:#0000ff;stroke:#000000;stroke-width:0.5;" x="450.157804054" xlink:href="#m02d92be8a1" y="214.509032185"/>
     <use style="fill:#0000ff;stroke:#000000;stroke-width:0.5;" x="459.015810811" xlink:href="#m02d92be8a1" y="98.0975253996"/>
     <use style="fill:#0000ff;stroke:#000000;stroke-width:0.5;" x="467.873817568" xlink:href="#m02d92be8a1" y="64.0569830195"/>
     <use style="fill:#0000ff;stroke:#000000;stroke-width:0.5;" x="476.731824324" xlink:href="#m02d92be8a1" y="167.270123766"/>
     <use style="fill:#0000ff;stroke:#000000;stroke-width:0.5;" x="485.589831081" xlink:href="#m02d92be8a1" y="121.409405329"/>
     <use style="fill:#0000ff;stroke:#000000;stroke-width:0.5;" x="494.447837838" xlink:href="#m02d92be8a1" y="96.0709645471"/>
     <use style="fill:#0000ff;stroke:#000000;stroke-width:0.5;" x="512.163851351" xlink:href="#m02d92be8a1" y="236.668312327"/>
     <use style="fill:#0000ff;stroke:#000000;stroke-width:0.5;" x="529.879864865" xlink:href="#m02d92be8a1" y="79.2754797869"/>
     <use style="fill:#0000ff;stroke:#000000;stroke-width:0.5;" x="538.737871622" xlink:href="#m02d92be8a1" y="156.236566252"/>
     <use style="fill:#0000ff;stroke:#000000;stroke-width:0.5;" x="547.595878378" xlink:href="#m02d92be8a1" y="100.694223943"/>
     <use style="fill:#0000ff;stroke:#000000;stroke-width:0.5;" x="556.453885135" xlink:href="#m02d92be8a1" y="96.8388285613"/>
     <use style="fill:#0000ff;stroke:#000000;stroke-width:0.5;" x="565.311891892" xlink:href="#m02d92be8a1" y="192.12309016"/>
     <use style="fill:#0000ff;stroke:#000000;stroke-width:0.5;" x="574.169898649" xlink:href="#m02d92be8a1" y="85.4167843694"/>
     <use style="fill:#0000ff;stroke:#000000;stroke-width:0.5;" x="583.027905405" xlink:href="#m02d92be8a1" y="247.09261556"/>
     <use style="fill:#0000ff;stroke:#000000;stroke-width:0.5;" x="600.743918919" xlink:href="#m02d92be8a1" y="120.634575346"/>
     <use style="fill:#0000ff;stroke:#000000;stroke-width:0.5;" x="609.601925676" xlink:href="#m02d92be8a1" y="186.262031829"/>
     <use style="fill:#0000ff;stroke:#000000;stroke-width:0.5;" x="618.459932432" xlink:href="#m02d92be8a1" y="232.965632398"/>
     <use style="fill:#0000ff;stroke:#000000;stroke-width:0.5;" x="627.317939189" xlink:href="#m02d92be8a1" y="199.164612149"/>
     <use style="fill:#0000ff;stroke:#000000;stroke-width:0.5;" x="636.175945946" xlink:href="#m02d92be8a1" y="242.104982451"/>
     <use style="fill:#0000ff;stroke:#000000;stroke-width:0.5;" x="645.033952703" xlink:href="#m02d92be8a1" y="154.55669627"/>
     <use style="fill:#0000ff;stroke:#000000;stroke-width:0.5;" x="653.891959459" xlink:href="#m02d92be8a1" y="277.920239147"/>
     <use style="fill:#0000ff;stroke:#000000;stroke-width:0.5;" x="662.749966216" xlink:href="#m02d92be8a1" y="126.216994956"/>
     <use style="fill:#0000ff;stroke:#000000;stroke-width:0.5;" x="671.607972973" xlink:href="#m02d92be8a1" y="232.405139893"/>
     <use style="fill:#0000ff;stroke:#000000;stroke-width:0.5;" x="680.46597973" xlink:href="#m02d92be8a1" y="165.590253783"/>
     <use style="fill:#0000ff;stroke:#000000;stroke-width:0.5;" x="689.323986486" xlink:href="#m02d92be8a1" y="192.567840426"/>
     <use style="fill:#0000ff;stroke:#000000;stroke-width:0.5;" x="698.181993243" xlink:href="#m02d92be8a1" y="206.616054565"/>
     <use style="fill:#0000ff;stroke:#000000;stroke-width:0.5;" x="707.04" xlink:href="#m02d92be8a1" y="104.409764121"/>
    </g>
   </g>
   <g id="patch_3">
    <path d="M 51.5475 12.96 
L 707.04 12.96 
" style="fill:none;stroke:#000000;stroke-linecap:square;stroke-linejoin:miter;"/>
   </g>
   <g id="patch_4">
    <path d="M 51.5475 314.64 
L 707.04 314.64 
" style="fill:none;stroke:#000000;stroke-linecap:square;stroke-linejoin:miter;"/>
   </g>
   <g id="patch_5">
    <path d="M 707.04 314.64 
L 707.04 12.96 
" style="fill:none;stroke:#000000;stroke-linecap:square;stroke-linejoin:miter;"/>
   </g>
   <g id="patch_6">
    <path d="M 51.5475 314.64 
L 51.5475 12.96 
" style="fill:none;stroke:#000000;stroke-linecap:square;stroke-linejoin:miter;"/>
   </g>
   <g id="matplotlib.axis_1">
    <g id="xtick_1">
     <g id="line2d_3">
      <defs>
       <path d="M 0 0 
L 0 -4 
" id="m4d69c87c0a" style="stroke:#000000;stroke-width:0.5;"/>
      </defs>
      <g>
       <use style="stroke:#000000;stroke-width:0.5;" x="131.269560811" xlink:href="#m4d69c87c0a" y="314.64"/>
      </g>
     </g>
     <g id="line2d_4">
      <defs>
       <path d="M 0 0 
L 0 4 
" id="m113af91e7e" style="stroke:#000000;stroke-width:0.5;"/>
      </defs>
      <g>
       <use style="stroke:#000000;stroke-width:0.5;" x="131.269560811" xlink:href="#m113af91e7e" y="12.96"/>
      </g>
     </g>
     <g id="text_1">
      <!-- 10 -->
      <defs>
       <path d="M 12.40625 8.296875 
L 28.515625 8.296875 
L 28.515625 63.921875 
L 10.984375 60.40625 
L 10.984375 69.390625 
L 28.421875 72.90625 
L 38.28125 72.90625 
L 38.28125 8.296875 
L 54.390625 8.296875 
L 54.390625 0 
L 12.40625 0 
z
" id="BitstreamVeraSans-Roman-31"/>
       <path d="M 31.78125 66.40625 
Q 24.171875 66.40625 20.328125 58.90625 
Q 16.5 51.421875 16.5 36.375 
Q 16.5 21.390625 20.328125 13.890625 
Q 24.171875 6.390625 31.78125 6.390625 
Q 39.453125 6.390625 43.28125 13.890625 
Q 47.125 21.390625 47.125 36.375 
Q 47.125 51.421875 43.28125 58.90625 
Q 39.453125 66.40625 31.78125 66.40625 
M 31.78125 74.21875 
Q 44.046875 74.21875 50.515625 64.515625 
Q 56.984375 54.828125 56.984375 36.375 
Q 56.984375 17.96875 50.515625 8.265625 
Q 44.046875 -1.421875 31.78125 -1.421875 
Q 19.53125 -1.421875 13.0625 8.265625 
Q 6.59375 17.96875 6.59375 36.375 
Q 6.59375 54.828125 13.0625 64.515625 
Q 19.53125 74.21875 31.78125 74.21875 
" id="BitstreamVeraSans-Roman-30"/>
      </defs>
      <g transform="translate(123.634560811 327.758125)scale(0.12 -0.12)">
       <use xlink:href="#BitstreamVeraSans-Roman-31"/>
       <use x="63.623046875" xlink:href="#BitstreamVeraSans-Roman-30"/>
      </g>
     </g>
    </g>
    <g id="xtick_2">
     <g id="line2d_5">
      <g>
       <use style="stroke:#000000;stroke-width:0.5;" x="219.849628378" xlink:href="#m4d69c87c0a" y="314.64"/>
      </g>
     </g>
     <g id="line2d_6">
      <g>
       <use style="stroke:#000000;stroke-width:0.5;" x="219.849628378" xlink:href="#m113af91e7e" y="12.96"/>
      </g>
     </g>
     <g id="text_2">
      <!-- 20 -->
      <defs>
       <path d="M 19.1875 8.296875 
L 53.609375 8.296875 
L 53.609375 0 
L 7.328125 0 
L 7.328125 8.296875 
Q 12.9375 14.109375 22.625 23.890625 
Q 32.328125 33.6875 34.8125 36.53125 
Q 39.546875 41.84375 41.421875 45.53125 
Q 43.3125 49.21875 43.3125 52.78125 
Q 43.3125 58.59375 39.234375 62.25 
Q 35.15625 65.921875 28.609375 65.921875 
Q 23.96875 65.921875 18.8125 64.3125 
Q 13.671875 62.703125 7.8125 59.421875 
L 7.8125 69.390625 
Q 13.765625 71.78125 18.9375 73 
Q 24.125 74.21875 28.421875 74.21875 
Q 39.75 74.21875 46.484375 68.546875 
Q 53.21875 62.890625 53.21875 53.421875 
Q 53.21875 48.921875 51.53125 44.890625 
Q 49.859375 40.875 45.40625 35.40625 
Q 44.1875 33.984375 37.640625 27.21875 
Q 31.109375 20.453125 19.1875 8.296875 
" id="BitstreamVeraSans-Roman-32"/>
      </defs>
      <g transform="translate(212.214628378 327.758125)scale(0.12 -0.12)">
       <use xlink:href="#BitstreamVeraSans-Roman-32"/>
       <use x="63.623046875" xlink:href="#BitstreamVeraSans-Roman-30"/>
      </g>
     </g>
    </g>
    <g id="xtick_3">
     <g id="line2d_7">
      <g>
       <use style="stroke:#000000;stroke-width:0.5;" x="308.429695946" xlink:href="#m4d69c87c0a" y="314.64"/>
      </g>
     </g>
     <g id="line2d_8">
      <g>
       <use style="stroke:#000000;stroke-width:0.5;" x="308.429695946" xlink:href="#m113af91e7e" y="12.96"/>
      </g>
     </g>
     <g id="text_3">
      <!-- 30 -->
      <defs>
       <path d="M 40.578125 39.3125 
Q 47.65625 37.796875 51.625 33 
Q 55.609375 28.21875 55.609375 21.1875 
Q 55.609375 10.40625 48.1875 4.484375 
Q 40.765625 -1.421875 27.09375 -1.421875 
Q 22.515625 -1.421875 17.65625 -0.515625 
Q 12.796875 0.390625 7.625 2.203125 
L 7.625 11.71875 
Q 11.71875 9.328125 16.59375 8.109375 
Q 21.484375 6.890625 26.8125 6.890625 
Q 36.078125 6.890625 40.9375 10.546875 
Q 45.796875 14.203125 45.796875 21.1875 
Q 45.796875 27.640625 41.28125 31.265625 
Q 36.765625 34.90625 28.71875 34.90625 
L 20.21875 34.90625 
L 20.21875 43.015625 
L 29.109375 43.015625 
Q 36.375 43.015625 40.234375 45.921875 
Q 44.09375 48.828125 44.09375 54.296875 
Q 44.09375 59.90625 40.109375 62.90625 
Q 36.140625 65.921875 28.71875 65.921875 
Q 24.65625 65.921875 20.015625 65.03125 
Q 15.375 64.15625 9.8125 62.3125 
L 9.8125 71.09375 
Q 15.4375 72.65625 20.34375 73.4375 
Q 25.25 74.21875 29.59375 74.21875 
Q 40.828125 74.21875 47.359375 69.109375 
Q 53.90625 64.015625 53.90625 55.328125 
Q 53.90625 49.265625 50.4375 45.09375 
Q 46.96875 40.921875 40.578125 39.3125 
" id="BitstreamVeraSans-Roman-33"/>
      </defs>
      <g transform="translate(300.794695946 327.758125)scale(0.12 -0.12)">
       <use xlink:href="#BitstreamVeraSans-Roman-33"/>
       <use x="63.623046875" xlink:href="#BitstreamVeraSans-Roman-30"/>
      </g>
     </g>
    </g>
    <g id="xtick_4">
     <g id="line2d_9">
      <g>
       <use style="stroke:#000000;stroke-width:0.5;" x="397.009763514" xlink:href="#m4d69c87c0a" y="314.64"/>
      </g>
     </g>
     <g id="line2d_10">
      <g>
       <use style="stroke:#000000;stroke-width:0.5;" x="397.009763514" xlink:href="#m113af91e7e" y="12.96"/>
      </g>
     </g>
     <g id="text_4">
      <!-- 40 -->
      <defs>
       <path d="M 37.796875 64.3125 
L 12.890625 25.390625 
L 37.796875 25.390625 
z
M 35.203125 72.90625 
L 47.609375 72.90625 
L 47.609375 25.390625 
L 58.015625 25.390625 
L 58.015625 17.1875 
L 47.609375 17.1875 
L 47.609375 0 
L 37.796875 0 
L 37.796875 17.1875 
L 4.890625 17.1875 
L 4.890625 26.703125 
z
" id="BitstreamVeraSans-Roman-34"/>
      </defs>
      <g transform="translate(389.374763514 327.758125)scale(0.12 -0.12)">
       <use xlink:href="#BitstreamVeraSans-Roman-34"/>
       <use x="63.623046875" xlink:href="#BitstreamVeraSans-Roman-30"/>
      </g>
     </g>
    </g>
    <g id="xtick_5">
     <g id="line2d_11">
      <g>
       <use style="stroke:#000000;stroke-width:0.5;" x="485.589831081" xlink:href="#m4d69c87c0a" y="314.64"/>
      </g>
     </g>
     <g id="line2d_12">
      <g>
       <use style="stroke:#000000;stroke-width:0.5;" x="485.589831081" xlink:href="#m113af91e7e" y="12.96"/>
      </g>
     </g>
     <g id="text_5">
      <!-- 50 -->
      <defs>
       <path d="M 10.796875 72.90625 
L 49.515625 72.90625 
L 49.515625 64.59375 
L 19.828125 64.59375 
L 19.828125 46.734375 
Q 21.96875 47.46875 24.109375 47.828125 
Q 26.265625 48.1875 28.421875 48.1875 
Q 40.625 48.1875 47.75 41.5 
Q 54.890625 34.8125 54.890625 23.390625 
Q 54.890625 11.625 47.5625 5.09375 
Q 40.234375 -1.421875 26.90625 -1.421875 
Q 22.3125 -1.421875 17.546875 -0.640625 
Q 12.796875 0.140625 7.71875 1.703125 
L 7.71875 11.625 
Q 12.109375 9.234375 16.796875 8.0625 
Q 21.484375 6.890625 26.703125 6.890625 
Q 35.15625 6.890625 40.078125 11.328125 
Q 45.015625 15.765625 45.015625 23.390625 
Q 45.015625 31 40.078125 35.4375 
Q 35.15625 39.890625 26.703125 39.890625 
Q 22.75 39.890625 18.8125 39.015625 
Q 14.890625 38.140625 10.796875 36.28125 
z
" id="BitstreamVeraSans-Roman-35"/>
      </defs>
      <g transform="translate(477.954831081 327.758125)scale(0.12 -0.12)">
       <use xlink:href="#BitstreamVeraSans-Roman-35"/>
       <use x="63.623046875" xlink:href="#BitstreamVeraSans-Roman-30"/>
      </g>
     </g>
    </g>
    <g id="xtick_6">
     <g id="line2d_13">
      <g>
       <use style="stroke:#000000;stroke-width:0.5;" x="574.169898649" xlink:href="#m4d69c87c0a" y="314.64"/>
      </g>
     </g>
     <g id="line2d_14">
      <g>
       <use style="stroke:#000000;stroke-width:0.5;" x="574.169898649" xlink:href="#m113af91e7e" y="12.96"/>
      </g>
     </g>
     <g id="text_6">
      <!-- 60 -->
      <defs>
       <path d="M 33.015625 40.375 
Q 26.375 40.375 22.484375 35.828125 
Q 18.609375 31.296875 18.609375 23.390625 
Q 18.609375 15.53125 22.484375 10.953125 
Q 26.375 6.390625 33.015625 6.390625 
Q 39.65625 6.390625 43.53125 10.953125 
Q 47.40625 15.53125 47.40625 23.390625 
Q 47.40625 31.296875 43.53125 35.828125 
Q 39.65625 40.375 33.015625 40.375 
M 52.59375 71.296875 
L 52.59375 62.3125 
Q 48.875 64.0625 45.09375 64.984375 
Q 41.3125 65.921875 37.59375 65.921875 
Q 27.828125 65.921875 22.671875 59.328125 
Q 17.53125 52.734375 16.796875 39.40625 
Q 19.671875 43.65625 24.015625 45.921875 
Q 28.375 48.1875 33.59375 48.1875 
Q 44.578125 48.1875 50.953125 41.515625 
Q 57.328125 34.859375 57.328125 23.390625 
Q 57.328125 12.15625 50.6875 5.359375 
Q 44.046875 -1.421875 33.015625 -1.421875 
Q 20.359375 -1.421875 13.671875 8.265625 
Q 6.984375 17.96875 6.984375 36.375 
Q 6.984375 53.65625 15.1875 63.9375 
Q 23.390625 74.21875 37.203125 74.21875 
Q 40.921875 74.21875 44.703125 73.484375 
Q 48.484375 72.75 52.59375 71.296875 
" id="BitstreamVeraSans-Roman-36"/>
      </defs>
      <g transform="translate(566.534898649 327.758125)scale(0.12 -0.12)">
       <use xlink:href="#BitstreamVeraSans-Roman-36"/>
       <use x="63.623046875" xlink:href="#BitstreamVeraSans-Roman-30"/>
      </g>
     </g>
    </g>
    <g id="xtick_7">
     <g id="line2d_15">
      <g>
       <use style="stroke:#000000;stroke-width:0.5;" x="662.749966216" xlink:href="#m4d69c87c0a" y="314.64"/>
      </g>
     </g>
     <g id="line2d_16">
      <g>
       <use style="stroke:#000000;stroke-width:0.5;" x="662.749966216" xlink:href="#m113af91e7e" y="12.96"/>
      </g>
     </g>
     <g id="text_7">
      <!-- 70 -->
      <defs>
       <path d="M 8.203125 72.90625 
L 55.078125 72.90625 
L 55.078125 68.703125 
L 28.609375 0 
L 18.3125 0 
L 43.21875 64.59375 
L 8.203125 64.59375 
z
" id="BitstreamVeraSans-Roman-37"/>
      </defs>
      <g transform="translate(655.114966216 327.758125)scale(0.12 -0.12)">
       <use xlink:href="#BitstreamVeraSans-Roman-37"/>
       <use x="63.623046875" xlink:href="#BitstreamVeraSans-Roman-30"/>
      </g>
     </g>
    </g>
    <g id="text_8">
     <!-- residue number -->
     <defs>
      <path d="M 41.109375 46.296875 
Q 39.59375 47.171875 37.8125 47.578125 
Q 36.03125 48 33.890625 48 
Q 26.265625 48 22.1875 43.046875 
Q 18.109375 38.09375 18.109375 28.8125 
L 18.109375 0 
L 9.078125 0 
L 9.078125 54.6875 
L 18.109375 54.6875 
L 18.109375 46.1875 
Q 20.953125 51.171875 25.484375 53.578125 
Q 30.03125 56 36.53125 56 
Q 37.453125 56 38.578125 55.875 
Q 39.703125 55.765625 41.0625 55.515625 
z
" id="BitstreamVeraSans-Roman-72"/>
      <path d="M 54.890625 33.015625 
L 54.890625 0 
L 45.90625 0 
L 45.90625 32.71875 
Q 45.90625 40.484375 42.875 44.328125 
Q 39.84375 48.1875 33.796875 48.1875 
Q 26.515625 48.1875 22.3125 43.546875 
Q 18.109375 38.921875 18.109375 30.90625 
L 18.109375 0 
L 9.078125 0 
L 9.078125 54.6875 
L 18.109375 54.6875 
L 18.109375 46.1875 
Q 21.34375 51.125 25.703125 53.5625 
Q 30.078125 56 35.796875 56 
Q 45.21875 56 50.046875 50.171875 
Q 54.890625 44.34375 54.890625 33.015625 
" id="BitstreamVeraSans-Roman-6e"/>
      <path d="M 52 44.1875 
Q 55.375 50.25 60.0625 53.125 
Q 64.75 56 71.09375 56 
Q 79.640625 56 84.28125 50.015625 
Q 88.921875 44.046875 88.921875 33.015625 
L 88.921875 0 
L 79.890625 0 
L 79.890625 32.71875 
Q 79.890625 40.578125 77.09375 44.375 
Q 74.3125 48.1875 68.609375 48.1875 
Q 61.625 48.1875 57.5625 43.546875 
Q 53.515625 38.921875 53.515625 30.90625 
L 53.515625 0 
L 44.484375 0 
L 44.484375 32.71875 
Q 44.484375 40.625 41.703125 44.40625 
Q 38.921875 48.1875 33.109375 48.1875 
Q 26.21875 48.1875 22.15625 43.53125 
Q 18.109375 38.875 18.109375 30.90625 
L 18.109375 0 
L 9.078125 0 
L 9.078125 54.6875 
L 18.109375 54.6875 
L 18.109375 46.1875 
Q 21.1875 51.21875 25.484375 53.609375 
Q 29.78125 56 35.6875 56 
Q 41.65625 56 45.828125 52.96875 
Q 50 49.953125 52 44.1875 
" id="BitstreamVeraSans-Roman-6d"/>
      <path d="M 8.5 21.578125 
L 8.5 54.6875 
L 17.484375 54.6875 
L 17.484375 21.921875 
Q 17.484375 14.15625 20.5 10.265625 
Q 23.53125 6.390625 29.59375 6.390625 
Q 36.859375 6.390625 41.078125 11.03125 
Q 45.3125 15.671875 45.3125 23.6875 
L 45.3125 54.6875 
L 54.296875 54.6875 
L 54.296875 0 
L 45.3125 0 
L 45.3125 8.40625 
Q 42.046875 3.421875 37.71875 1 
Q 33.40625 -1.421875 27.6875 -1.421875 
Q 18.265625 -1.421875 13.375 4.4375 
Q 8.5 10.296875 8.5 21.578125 
" id="BitstreamVeraSans-Roman-75"/>
      <path id="BitstreamVeraSans-Roman-20"/>
      <path d="M 44.28125 53.078125 
L 44.28125 44.578125 
Q 40.484375 46.53125 36.375 47.5 
Q 32.28125 48.484375 27.875 48.484375 
Q 21.1875 48.484375 17.84375 46.4375 
Q 14.5 44.390625 14.5 40.28125 
Q 14.5 37.15625 16.890625 35.375 
Q 19.28125 33.59375 26.515625 31.984375 
L 29.59375 31.296875 
Q 39.15625 29.25 43.1875 25.515625 
Q 47.21875 21.78125 47.21875 15.09375 
Q 47.21875 7.46875 41.1875 3.015625 
Q 35.15625 -1.421875 24.609375 -1.421875 
Q 20.21875 -1.421875 15.453125 -0.5625 
Q 10.6875 0.296875 5.421875 2 
L 5.421875 11.28125 
Q 10.40625 8.6875 15.234375 7.390625 
Q 20.0625 6.109375 24.8125 6.109375 
Q 31.15625 6.109375 34.5625 8.28125 
Q 37.984375 10.453125 37.984375 14.40625 
Q 37.984375 18.0625 35.515625 20.015625 
Q 33.0625 21.96875 24.703125 23.78125 
L 21.578125 24.515625 
Q 13.234375 26.265625 9.515625 29.90625 
Q 5.8125 33.546875 5.8125 39.890625 
Q 5.8125 47.609375 11.28125 51.796875 
Q 16.75 56 26.8125 56 
Q 31.78125 56 36.171875 55.265625 
Q 40.578125 54.546875 44.28125 53.078125 
" id="BitstreamVeraSans-Roman-73"/>
      <path d="M 48.6875 27.296875 
Q 48.6875 37.203125 44.609375 42.84375 
Q 40.53125 48.484375 33.40625 48.484375 
Q 26.265625 48.484375 22.1875 42.84375 
Q 18.109375 37.203125 18.109375 27.296875 
Q 18.109375 17.390625 22.1875 11.75 
Q 26.265625 6.109375 33.40625 6.109375 
Q 40.53125 6.109375 44.609375 11.75 
Q 48.6875 17.390625 48.6875 27.296875 
M 18.109375 46.390625 
Q 20.953125 51.265625 25.265625 53.625 
Q 29.59375 56 35.59375 56 
Q 45.5625 56 51.78125 48.09375 
Q 58.015625 40.1875 58.015625 27.296875 
Q 58.015625 14.40625 51.78125 6.484375 
Q 45.5625 -1.421875 35.59375 -1.421875 
Q 29.59375 -1.421875 25.265625 0.953125 
Q 20.953125 3.328125 18.109375 8.203125 
L 18.109375 0 
L 9.078125 0 
L 9.078125 75.984375 
L 18.109375 75.984375 
z
" id="BitstreamVeraSans-Roman-62"/>
      <path d="M 9.421875 54.6875 
L 18.40625 54.6875 
L 18.40625 0 
L 9.421875 0 
z
M 9.421875 75.984375 
L 18.40625 75.984375 
L 18.40625 64.59375 
L 9.421875 64.59375 
z
" id="BitstreamVeraSans-Roman-69"/>
      <path d="M 56.203125 29.59375 
L 56.203125 25.203125 
L 14.890625 25.203125 
Q 15.484375 15.921875 20.484375 11.0625 
Q 25.484375 6.203125 34.421875 6.203125 
Q 39.59375 6.203125 44.453125 7.46875 
Q 49.3125 8.734375 54.109375 11.28125 
L 54.109375 2.78125 
Q 49.265625 0.734375 44.1875 -0.34375 
Q 39.109375 -1.421875 33.890625 -1.421875 
Q 20.796875 -1.421875 13.15625 6.1875 
Q 5.515625 13.8125 5.515625 26.8125 
Q 5.515625 40.234375 12.765625 48.109375 
Q 20.015625 56 32.328125 56 
Q 43.359375 56 49.78125 48.890625 
Q 56.203125 41.796875 56.203125 29.59375 
M 47.21875 32.234375 
Q 47.125 39.59375 43.09375 43.984375 
Q 39.0625 48.390625 32.421875 48.390625 
Q 24.90625 48.390625 20.390625 44.140625 
Q 15.875 39.890625 15.1875 32.171875 
z
" id="BitstreamVeraSans-Roman-65"/>
      <path d="M 45.40625 46.390625 
L 45.40625 75.984375 
L 54.390625 75.984375 
L 54.390625 0 
L 45.40625 0 
L 45.40625 8.203125 
Q 42.578125 3.328125 38.25 0.953125 
Q 33.9375 -1.421875 27.875 -1.421875 
Q 17.96875 -1.421875 11.734375 6.484375 
Q 5.515625 14.40625 5.515625 27.296875 
Q 5.515625 40.1875 11.734375 48.09375 
Q 17.96875 56 27.875 56 
Q 33.9375 56 38.25 53.625 
Q 42.578125 51.265625 45.40625 46.390625 
M 14.796875 27.296875 
Q 14.796875 17.390625 18.875 11.75 
Q 22.953125 6.109375 30.078125 6.109375 
Q 37.203125 6.109375 41.296875 11.75 
Q 45.40625 17.390625 45.40625 27.296875 
Q 45.40625 37.203125 41.296875 42.84375 
Q 37.203125 48.484375 30.078125 48.484375 
Q 22.953125 48.484375 18.875 42.84375 
Q 14.796875 37.203125 14.796875 27.296875 
" id="BitstreamVeraSans-Roman-64"/>
     </defs>
     <g transform="translate(331.7175 344.371875)scale(0.12 -0.12)">
      <use xlink:href="#BitstreamVeraSans-Roman-72"/>
      <use x="41.08203125" xlink:href="#BitstreamVeraSans-Roman-65"/>
      <use x="102.60546875" xlink:href="#BitstreamVeraSans-Roman-73"/>
      <use x="154.705078125" xlink:href="#BitstreamVeraSans-Roman-69"/>
      <use x="182.48828125" xlink:href="#BitstreamVeraSans-Roman-64"/>
      <use x="245.96484375" xlink:href="#BitstreamVeraSans-Roman-75"/>
      <use x="309.34375" xlink:href="#BitstreamVeraSans-Roman-65"/>
      <use x="370.8671875" xlink:href="#BitstreamVeraSans-Roman-20"/>
      <use x="402.654296875" xlink:href="#BitstreamVeraSans-Roman-6e"/>
      <use x="466.033203125" xlink:href="#BitstreamVeraSans-Roman-75"/>
      <use x="529.412109375" xlink:href="#BitstreamVeraSans-Roman-6d"/>
      <use x="626.82421875" xlink:href="#BitstreamVeraSans-Roman-62"/>
      <use x="690.30078125" xlink:href="#BitstreamVeraSans-Roman-65"/>
      <use x="751.82421875" xlink:href="#BitstreamVeraSans-Roman-72"/>
     </g>
    </g>
   </g>
   <g id="matplotlib.axis_2">
    <g id="ytick_1">
     <g id="line2d_17">
      <path clip-path="url(#pf9907703d1)" d="M 51.5475 307.138188 
L 707.04 307.138188 
" style="fill:none;stroke:#000000;stroke-dasharray:1.000000,3.000000;stroke-dashoffset:0.0;stroke-width:0.5;"/>
     </g>
     <g id="line2d_18">
      <defs>
       <path d="M 0 0 
L 4 0 
" id="mb3a52660f4" style="stroke:#000000;stroke-width:0.5;"/>
      </defs>
      <g>
       <use style="stroke:#000000;stroke-width:0.5;" x="51.5475" xlink:href="#mb3a52660f4" y="307.138188277"/>
      </g>
     </g>
     <g id="line2d_19">
      <defs>
       <path d="M 0 0 
L -4 0 
" id="m6e8e02b577" style="stroke:#000000;stroke-width:0.5;"/>
      </defs>
      <g>
       <use style="stroke:#000000;stroke-width:0.5;" x="707.04" xlink:href="#m6e8e02b577" y="307.138188277"/>
      </g>
     </g>
     <g id="text_9">
      <!-- −3 -->
      <defs>
       <path d="M 10.59375 35.5 
L 73.1875 35.5 
L 73.1875 27.203125 
L 10.59375 27.203125 
z
" id="BitstreamVeraSans-Roman-2212"/>
      </defs>
      <g transform="translate(29.856875 310.449438277)scale(0.12 -0.12)">
       <use xlink:href="#BitstreamVeraSans-Roman-2212"/>
       <use x="83.7890625" xlink:href="#BitstreamVeraSans-Roman-33"/>
      </g>
     </g>
    </g>
    <g id="ytick_2">
     <g id="line2d_20">
      <path clip-path="url(#pf9907703d1)" d="M 51.5475 253.553819 
L 707.04 253.553819 
" style="fill:none;stroke:#000000;stroke-dasharray:1.000000,3.000000;stroke-dashoffset:0.0;stroke-width:0.5;"/>
     </g>
     <g id="line2d_21">
      <g>
       <use style="stroke:#000000;stroke-width:0.5;" x="51.5475" xlink:href="#mb3a52660f4" y="253.553818828"/>
      </g>
     </g>
     <g id="line2d_22">
      <g>
       <use style="stroke:#000000;stroke-width:0.5;" x="707.04" xlink:href="#m6e8e02b577" y="253.553818828"/>
      </g>
     </g>
     <g id="text_10">
      <!-- −2 -->
      <g transform="translate(29.856875 256.865068828)scale(0.12 -0.12)">
       <use xlink:href="#BitstreamVeraSans-Roman-2212"/>
       <use x="83.7890625" xlink:href="#BitstreamVeraSans-Roman-32"/>
      </g>
     </g>
    </g>
    <g id="ytick_3">
     <g id="line2d_23">
      <path clip-path="url(#pf9907703d1)" d="M 51.5475 199.969449 
L 707.04 199.969449 
" style="fill:none;stroke:#000000;stroke-dasharray:1.000000,3.000000;stroke-dashoffset:0.0;stroke-width:0.5;"/>
     </g>
     <g id="line2d_24">
      <g>
       <use style="stroke:#000000;stroke-width:0.5;" x="51.5475" xlink:href="#mb3a52660f4" y="199.969449378"/>
      </g>
     </g>
     <g id="line2d_25">
      <g>
       <use style="stroke:#000000;stroke-width:0.5;" x="707.04" xlink:href="#m6e8e02b577" y="199.969449378"/>
      </g>
     </g>
     <g id="text_11">
      <!-- −1 -->
      <g transform="translate(29.856875 203.280699378)scale(0.12 -0.12)">
       <use xlink:href="#BitstreamVeraSans-Roman-2212"/>
       <use x="83.7890625" xlink:href="#BitstreamVeraSans-Roman-31"/>
      </g>
     </g>
    </g>
    <g id="ytick_4">
     <g id="line2d_26">
      <path clip-path="url(#pf9907703d1)" d="M 51.5475 146.38508 
L 707.04 146.38508 
" style="fill:none;stroke:#000000;stroke-dasharray:1.000000,3.000000;stroke-dashoffset:0.0;stroke-width:0.5;"/>
     </g>
     <g id="line2d_27">
      <g>
       <use style="stroke:#000000;stroke-width:0.5;" x="51.5475" xlink:href="#mb3a52660f4" y="146.385079929"/>
      </g>
     </g>
     <g id="line2d_28">
      <g>
       <use style="stroke:#000000;stroke-width:0.5;" x="707.04" xlink:href="#m6e8e02b577" y="146.385079929"/>
      </g>
     </g>
     <g id="text_12">
      <!-- 0 -->
      <g transform="translate(39.9125 149.696329929)scale(0.12 -0.12)">
       <use xlink:href="#BitstreamVeraSans-Roman-30"/>
      </g>
     </g>
    </g>
    <g id="ytick_5">
     <g id="line2d_29">
      <path clip-path="url(#pf9907703d1)" d="M 51.5475 92.80071 
L 707.04 92.80071 
" style="fill:none;stroke:#000000;stroke-dasharray:1.000000,3.000000;stroke-dashoffset:0.0;stroke-width:0.5;"/>
     </g>
     <g id="line2d_30">
      <g>
       <use style="stroke:#000000;stroke-width:0.5;" x="51.5475" xlink:href="#mb3a52660f4" y="92.8007104796"/>
      </g>
     </g>
     <g id="line2d_31">
      <g>
       <use style="stroke:#000000;stroke-width:0.5;" x="707.04" xlink:href="#m6e8e02b577" y="92.8007104796"/>
      </g>
     </g>
     <g id="text_13">
      <!-- 1 -->
      <g transform="translate(39.9125 96.1119604796)scale(0.12 -0.12)">
       <use xlink:href="#BitstreamVeraSans-Roman-31"/>
      </g>
     </g>
    </g>
    <g id="ytick_6">
     <g id="line2d_32">
      <path clip-path="url(#pf9907703d1)" d="M 51.5475 39.216341 
L 707.04 39.216341 
" style="fill:none;stroke:#000000;stroke-dasharray:1.000000,3.000000;stroke-dashoffset:0.0;stroke-width:0.5;"/>
     </g>
     <g id="line2d_33">
      <g>
       <use style="stroke:#000000;stroke-width:0.5;" x="51.5475" xlink:href="#mb3a52660f4" y="39.2163410302"/>
      </g>
     </g>
     <g id="line2d_34">
      <g>
       <use style="stroke:#000000;stroke-width:0.5;" x="707.04" xlink:href="#m6e8e02b577" y="39.2163410302"/>
      </g>
     </g>
     <g id="text_14">
      <!-- 2 -->
      <g transform="translate(39.9125 42.5275910302)scale(0.12 -0.12)">
       <use xlink:href="#BitstreamVeraSans-Roman-32"/>
      </g>
     </g>
    </g>
    <g id="text_15">
     <!-- value -->
     <defs>
      <path d="M 9.421875 75.984375 
L 18.40625 75.984375 
L 18.40625 0 
L 9.421875 0 
z
" id="BitstreamVeraSans-Roman-6c"/>
      <path d="M 2.984375 54.6875 
L 12.5 54.6875 
L 29.59375 8.796875 
L 46.6875 54.6875 
L 56.203125 54.6875 
L 35.6875 0 
L 23.484375 0 
z
" id="BitstreamVeraSans-Roman-76"/>
      <path d="M 34.28125 27.484375 
Q 23.390625 27.484375 19.1875 25 
Q 14.984375 22.515625 14.984375 16.5 
Q 14.984375 11.71875 18.140625 8.90625 
Q 21.296875 6.109375 26.703125 6.109375 
Q 34.1875 6.109375 38.703125 11.40625 
Q 43.21875 16.703125 43.21875 25.484375 
L 43.21875 27.484375 
z
M 52.203125 31.203125 
L 52.203125 0 
L 43.21875 0 
L 43.21875 8.296875 
Q 40.140625 3.328125 35.546875 0.953125 
Q 30.953125 -1.421875 24.3125 -1.421875 
Q 15.921875 -1.421875 10.953125 3.296875 
Q 6 8.015625 6 15.921875 
Q 6 25.140625 12.171875 29.828125 
Q 18.359375 34.515625 30.609375 34.515625 
L 43.21875 34.515625 
L 43.21875 35.40625 
Q 43.21875 41.609375 39.140625 45 
Q 35.0625 48.390625 27.6875 48.390625 
Q 23 48.390625 18.546875 47.265625 
Q 14.109375 46.140625 10.015625 43.890625 
L 10.015625 52.203125 
Q 14.9375 54.109375 19.578125 55.046875 
Q 24.21875 56 28.609375 56 
Q 40.484375 56 46.34375 49.84375 
Q 52.203125 43.703125 52.203125 31.203125 
" id="BitstreamVeraSans-Roman-61"/>
     </defs>
     <g transform="translate(22.36125 180.189375)rotate(-90.0)scale(0.12 -0.12)">
      <use xlink:href="#BitstreamVeraSans-Roman-76"/>
      <use x="59.1796875" xlink:href="#BitstreamVeraSans-Roman-61"/>
      <use x="120.458984375" xlink:href="#BitstreamVeraSans-Roman-6c"/>
      <use x="148.2421875" xlink:href="#BitstreamVeraSans-Roman-75"/>
      <use x="211.62109375" xlink:href="#BitstreamVeraSans-Roman-65"/>
     </g>
    </g>
   </g>
   <g id="legend_1">
    <g id="patch_7">
     <path d="M 58.7475 307.44 
L 139.248 307.44 
L 139.248 260.847 
L 58.7475 260.847 
z
" style="fill:#ffffff;stroke:#000000;stroke-linejoin:miter;"/>
    </g>
    <g id="line2d_35">
     <path d="M 68.8275 272.50875 
L 88.9875 272.50875 
" style="fill:none;stroke:#ff0000;stroke-linecap:square;stroke-width:2.0;"/>
    </g>
    <g id="line2d_36">
     <g>
      <use style="fill:#ff0000;stroke:#000000;stroke-width:0.5;" x="68.8275" xlink:href="#m40ad655cfd" y="272.50875"/>
      <use style="fill:#ff0000;stroke:#000000;stroke-width:0.5;" x="88.9875" xlink:href="#m40ad655cfd" y="272.50875"/>
     </g>
    </g>
    <g id="text_16">
     <!-- exp -->
     <defs>
      <path d="M 18.109375 8.203125 
L 18.109375 -20.796875 
L 9.078125 -20.796875 
L 9.078125 54.6875 
L 18.109375 54.6875 
L 18.109375 46.390625 
Q 20.953125 51.265625 25.265625 53.625 
Q 29.59375 56 35.59375 56 
Q 45.5625 56 51.78125 48.09375 
Q 58.015625 40.1875 58.015625 27.296875 
Q 58.015625 14.40625 51.78125 6.484375 
Q 45.5625 -1.421875 35.59375 -1.421875 
Q 29.59375 -1.421875 25.265625 0.953125 
Q 20.953125 3.328125 18.109375 8.203125 
M 48.6875 27.296875 
Q 48.6875 37.203125 44.609375 42.84375 
Q 40.53125 48.484375 33.40625 48.484375 
Q 26.265625 48.484375 22.1875 42.84375 
Q 18.109375 37.203125 18.109375 27.296875 
Q 18.109375 17.390625 22.1875 11.75 
Q 26.265625 6.109375 33.40625 6.109375 
Q 40.53125 6.109375 44.609375 11.75 
Q 48.6875 17.390625 48.6875 27.296875 
" id="BitstreamVeraSans-Roman-70"/>
      <path d="M 54.890625 54.6875 
L 35.109375 28.078125 
L 55.90625 0 
L 45.3125 0 
L 29.390625 21.484375 
L 13.484375 0 
L 2.875 0 
L 24.125 28.609375 
L 4.6875 54.6875 
L 15.28125 54.6875 
L 29.78125 35.203125 
L 44.28125 54.6875 
z
" id="BitstreamVeraSans-Roman-78"/>
     </defs>
     <g transform="translate(104.8275 277.54875)scale(0.144 -0.144)">
      <use xlink:href="#BitstreamVeraSans-Roman-65"/>
      <use x="61.5078125" xlink:href="#BitstreamVeraSans-Roman-78"/>
      <use x="120.6875" xlink:href="#BitstreamVeraSans-Roman-70"/>
     </g>
    </g>
    <g id="line2d_37">
     <path d="M 68.8275 293.64525 
L 88.9875 293.64525 
" style="fill:none;stroke:#0000ff;stroke-linecap:square;stroke-width:2.0;"/>
    </g>
    <g id="line2d_38">
     <g>
      <use style="fill:#0000ff;stroke:#000000;stroke-width:0.5;" x="68.8275" xlink:href="#m02d92be8a1" y="293.64525"/>
      <use style="fill:#0000ff;stroke:#000000;stroke-width:0.5;" x="88.9875" xlink:href="#m02d92be8a1" y="293.64525"/>
     </g>
    </g>
    <g id="text_17">
     <!-- calc -->
     <defs>
      <path d="M 48.78125 52.59375 
L 48.78125 44.1875 
Q 44.96875 46.296875 41.140625 47.34375 
Q 37.3125 48.390625 33.40625 48.390625 
Q 24.65625 48.390625 19.8125 42.84375 
Q 14.984375 37.3125 14.984375 27.296875 
Q 14.984375 17.28125 19.8125 11.734375 
Q 24.65625 6.203125 33.40625 6.203125 
Q 37.3125 6.203125 41.140625 7.25 
Q 44.96875 8.296875 48.78125 10.40625 
L 48.78125 2.09375 
Q 45.015625 0.34375 40.984375 -0.53125 
Q 36.96875 -1.421875 32.421875 -1.421875 
Q 20.0625 -1.421875 12.78125 6.34375 
Q 5.515625 14.109375 5.515625 27.296875 
Q 5.515625 40.671875 12.859375 48.328125 
Q 20.21875 56 33.015625 56 
Q 37.15625 56 41.109375 55.140625 
Q 45.0625 54.296875 48.78125 52.59375 
" id="BitstreamVeraSans-Roman-63"/>
     </defs>
     <g transform="translate(104.8275 298.68525)scale(0.144 -0.144)">
      <use xlink:href="#BitstreamVeraSans-Roman-63"/>
      <use x="54.98046875" xlink:href="#BitstreamVeraSans-Roman-61"/>
      <use x="116.259765625" xlink:href="#BitstreamVeraSans-Roman-6c"/>
      <use x="144.04296875" xlink:href="#BitstreamVeraSans-Roman-63"/>
     </g>
    </g>
   </g>
  </g>
 </g>
 <defs>
  <clipPath id="pf9907703d1">
   <rect height="301.68" width="655.4925" x="51.5475" y="12.96"/>
  </clipPath>
 </defs>
</svg>
