<?xml version="1.0" encoding="utf-8" standalone="no"?>
<!DOCTYPE svg PUBLIC "-//W3C//DTD SVG 1.1//EN"
  "http://www.w3.org/Graphics/SVG/1.1/DTD/svg11.dtd">
<!-- Created with matplotlib (http://matplotlib.org/) -->
<svg height="360pt" version="1.1" viewBox="0 0 432 360" width="432pt" xmlns="http://www.w3.org/2000/svg" xmlns:xlink="http://www.w3.org/1999/xlink">
 <defs>
  <style type="text/css">
*{stroke-linecap:butt;stroke-linejoin:round;stroke-miterlimit:100000;}
  </style>
 </defs>
 <g id="figure_1">
  <g id="patch_1">
   <path d="M 0 360 
L 432 360 
L 432 0 
L 0 0 
z
" style="fill:#ffffff;"/>
  </g>
  <g id="axes_1">
   <g id="patch_2">
    <path d="M 59.085 314.64 
L 419.04 314.64 
L 419.04 12.96 
L 59.085 12.96 
z
" style="fill:#ffffff;"/>
   </g>
   <g id="line2d_1">
    <path clip-path="url(#p354736387b)" d="M 59.085 314.64 
L 433 1.260058 
L 433 1.260058 
" style="fill:none;stroke:#ff0000;stroke-linecap:square;stroke-width:2.0;"/>
   </g>
   <g id="line2d_2">
    <defs>
     <path d="M 0 3 
C 0.795609 3 1.55874 2.683901 2.12132 2.12132 
C 2.683901 1.55874 3 0.795609 3 0 
C 3 -0.795609 2.683901 -1.55874 2.12132 -2.12132 
C 1.55874 -2.683901 0.795609 -3 0 -3 
C -0.795609 -3 -1.55874 -2.683901 -2.12132 -2.12132 
C -2.683901 -1.55874 -3 -0.795609 -3 0 
C -3 0.795609 -2.683901 1.55874 -2.12132 2.12132 
C -1.55874 2.683901 -0.795609 3 0 3 
z
" id="m78c3c45614" style="stroke:#000000;stroke-width:0.5;"/>
    </defs>
    <g clip-path="url(#p354736387b)">
     <use style="fill:#0000ff;stroke:#000000;stroke-width:0.5;" x="175.624886139" xlink:href="#m78c3c45614" y="212.483684673"/>
     <use style="fill:#0000ff;stroke:#000000;stroke-width:0.5;" x="370.92720297" xlink:href="#m78c3c45614" y="53.4752257426"/>
     <use style="fill:#0000ff;stroke:#000000;stroke-width:0.5;" x="397.300143564" xlink:href="#m78c3c45614" y="31.8835998416"/>
     <use style="fill:#0000ff;stroke:#000000;stroke-width:0.5;" x="389.934727723" xlink:href="#m78c3c45614" y="44.564614099"/>
     <use style="fill:#0000ff;stroke:#000000;stroke-width:0.5;" x="381.381341584" xlink:href="#m78c3c45614" y="46.459622495"/>
     <use style="fill:#0000ff;stroke:#000000;stroke-width:0.5;" x="316.636960396" xlink:href="#m78c3c45614" y="100.656285149"/>
     <use style="fill:#0000ff;stroke:#000000;stroke-width:0.5;" x="349.424940594" xlink:href="#m78c3c45614" y="67.4890084752"/>
     <use style="fill:#0000ff;stroke:#000000;stroke-width:0.5;" x="183.22789604" xlink:href="#m78c3c45614" y="215.144243406"/>
     <use style="fill:#0000ff;stroke:#000000;stroke-width:0.5;" x="360.354267327" xlink:href="#m78c3c45614" y="64.7636333465"/>
     <use style="fill:#0000ff;stroke:#000000;stroke-width:0.5;" x="355.24599505" xlink:href="#m78c3c45614" y="69.6782295446"/>
     <use style="fill:#0000ff;stroke:#000000;stroke-width:0.5;" x="388.033975248" xlink:href="#m78c3c45614" y="42.2974341386"/>
     <use style="fill:#0000ff;stroke:#000000;stroke-width:0.5;" x="389.697133663" xlink:href="#m78c3c45614" y="37.0328692277"/>
     <use style="fill:#0000ff;stroke:#000000;stroke-width:0.5;" x="273.157247525" xlink:href="#m78c3c45614" y="129.430583287"/>
     <use style="fill:#0000ff;stroke:#000000;stroke-width:0.5;" x="147.826381188" xlink:href="#m78c3c45614" y="239.126708198"/>
     <use style="fill:#0000ff;stroke:#000000;stroke-width:0.5;" x="224.331668317" xlink:href="#m78c3c45614" y="179.608131564"/>
     <use style="fill:#0000ff;stroke:#000000;stroke-width:0.5;" x="297.867029703" xlink:href="#m78c3c45614" y="123.210598812"/>
     <use style="fill:#0000ff;stroke:#000000;stroke-width:0.5;" x="380.787356436" xlink:href="#m78c3c45614" y="53.0405277624"/>
     <use style="fill:#0000ff;stroke:#000000;stroke-width:0.5;" x="307.727183168" xlink:href="#m78c3c45614" y="102.740266693"/>
     <use style="fill:#0000ff;stroke:#000000;stroke-width:0.5;" x="370.333217822" xlink:href="#m78c3c45614" y="61.2673314059"/>
     <use style="fill:#0000ff;stroke:#000000;stroke-width:0.5;" x="290.501613861" xlink:href="#m78c3c45614" y="116.423993584"/>
     <use style="fill:#0000ff;stroke:#000000;stroke-width:0.5;" x="357.978326733" xlink:href="#m78c3c45614" y="65.0332536238"/>
     <use style="fill:#0000ff;stroke:#000000;stroke-width:0.5;" x="376.154272277" xlink:href="#m78c3c45614" y="52.6475472475"/>
     <use style="fill:#0000ff;stroke:#000000;stroke-width:0.5;" x="287.650485149" xlink:href="#m78c3c45614" y="121.690748911"/>
     <use style="fill:#0000ff;stroke:#000000;stroke-width:0.5;" x="370.808405941" xlink:href="#m78c3c45614" y="53.9188845149"/>
     <use style="fill:#0000ff;stroke:#000000;stroke-width:0.5;" x="350.256519802" xlink:href="#m78c3c45614" y="72.2478860198"/>
     <use style="fill:#0000ff;stroke:#000000;stroke-width:0.5;" x="124.185772277" xlink:href="#m78c3c45614" y="255.39393101"/>
     <use style="fill:#0000ff;stroke:#000000;stroke-width:0.5;" x="107.791782178" xlink:href="#m78c3c45614" y="272.586704079"/>
     <use style="fill:#0000ff;stroke:#000000;stroke-width:0.5;" x="295.728683168" xlink:href="#m78c3c45614" y="117.134982653"/>
     <use style="fill:#0000ff;stroke:#000000;stroke-width:0.5;" x="366.175321782" xlink:href="#m78c3c45614" y="62.7663723564"/>
     <use style="fill:#0000ff;stroke:#000000;stroke-width:0.5;" x="340.633960396" xlink:href="#m78c3c45614" y="69.427227802"/>
     <use style="fill:#0000ff;stroke:#000000;stroke-width:0.5;" x="363.918178218" xlink:href="#m78c3c45614" y="65.2091838416"/>
     <use style="fill:#0000ff;stroke:#000000;stroke-width:0.5;" x="367.482089109" xlink:href="#m78c3c45614" y="58.9989566733"/>
     <use style="fill:#0000ff;stroke:#000000;stroke-width:0.5;" x="323.052" xlink:href="#m78c3c45614" y="95.8128774653"/>
     <use style="fill:#0000ff;stroke:#000000;stroke-width:0.5;" x="380.193371287" xlink:href="#m78c3c45614" y="42.2932524356"/>
     <use style="fill:#0000ff;stroke:#000000;stroke-width:0.5;" x="144.024876238" xlink:href="#m78c3c45614" y="239.684766416"/>
     <use style="fill:#0000ff;stroke:#000000;stroke-width:0.5;" x="314.261019802" xlink:href="#m78c3c45614" y="102.47004903"/>
     <use style="fill:#0000ff;stroke:#000000;stroke-width:0.5;" x="342.297118812" xlink:href="#m78c3c45614" y="75.3697264158"/>
     <use style="fill:#0000ff;stroke:#000000;stroke-width:0.5;" x="192.018876238" xlink:href="#m78c3c45614" y="198.426890139"/>
     <use style="fill:#0000ff;stroke:#000000;stroke-width:0.5;" x="70.9647029703" xlink:href="#m78c3c45614" y="301.802669703"/>
     <use style="fill:#0000ff;stroke:#000000;stroke-width:0.5;" x="197.839930693" xlink:href="#m78c3c45614" y="195.324464792"/>
     <use style="fill:#0000ff;stroke:#000000;stroke-width:0.5;" x="352.988851485" xlink:href="#m78c3c45614" y="71.728657901"/>
     <use style="fill:#0000ff;stroke:#000000;stroke-width:0.5;" x="403.596386139" xlink:href="#m78c3c45614" y="35.0881782178"/>
     <use style="fill:#0000ff;stroke:#000000;stroke-width:0.5;" x="366.056524752" xlink:href="#m78c3c45614" y="56.239630099"/>
     <use style="fill:#0000ff;stroke:#000000;stroke-width:0.5;" x="396.230970297" xlink:href="#m78c3c45614" y="30.984832396"/>
     <use style="fill:#0000ff;stroke:#000000;stroke-width:0.5;" x="360.116673267" xlink:href="#m78c3c45614" y="63.212619802"/>
     <use style="fill:#0000ff;stroke:#000000;stroke-width:0.5;" x="354.770806931" xlink:href="#m78c3c45614" y="68.006544"/>
     <use style="fill:#0000ff;stroke:#000000;stroke-width:0.5;" x="302.500113861" xlink:href="#m78c3c45614" y="110.790343604"/>
     <use style="fill:#0000ff;stroke:#000000;stroke-width:0.5;" x="141.411341584" xlink:href="#m78c3c45614" y="243.927104079"/>
     <use style="fill:#0000ff;stroke:#000000;stroke-width:0.5;" x="400.032475248" xlink:href="#m78c3c45614" y="27.7384369901"/>
     <use style="fill:#0000ff;stroke:#000000;stroke-width:0.5;" x="320.557262376" xlink:href="#m78c3c45614" y="87.9016928317"/>
     <use style="fill:#0000ff;stroke:#000000;stroke-width:0.5;" x="407.16029703" xlink:href="#m78c3c45614" y="26.130273505"/>
     <use style="fill:#0000ff;stroke:#000000;stroke-width:0.5;" x="389.697133663" xlink:href="#m78c3c45614" y="45.1515459802"/>
     <use style="fill:#0000ff;stroke:#000000;stroke-width:0.5;" x="376.510663366" xlink:href="#m78c3c45614" y="60.0268590891"/>
     <use style="fill:#0000ff;stroke:#000000;stroke-width:0.5;" x="326.734707921" xlink:href="#m78c3c45614" y="92.2669924752"/>
     <use style="fill:#0000ff;stroke:#000000;stroke-width:0.5;" x="346.692608911" xlink:href="#m78c3c45614" y="62.0643440792"/>
     <use style="fill:#0000ff;stroke:#000000;stroke-width:0.5;" x="337.545237624" xlink:href="#m78c3c45614" y="108.615360238"/>
     <use style="fill:#0000ff;stroke:#000000;stroke-width:0.5;" x="285.987326733" xlink:href="#m78c3c45614" y="130.498709703"/>
    </g>
   </g>
   <g id="patch_3">
    <path d="M 59.085 314.64 
L 59.085 12.96 
" style="fill:none;stroke:#000000;stroke-linecap:square;stroke-linejoin:miter;"/>
   </g>
   <g id="patch_4">
    <path d="M 59.085 314.64 
L 419.04 314.64 
" style="fill:none;stroke:#000000;stroke-linecap:square;stroke-linejoin:miter;"/>
   </g>
   <g id="patch_5">
    <path d="M 59.085 12.96 
L 419.04 12.96 
" style="fill:none;stroke:#000000;stroke-linecap:square;stroke-linejoin:miter;"/>
   </g>
   <g id="patch_6">
    <path d="M 419.04 314.64 
L 419.04 12.96 
" style="fill:none;stroke:#000000;stroke-linecap:square;stroke-linejoin:miter;"/>
   </g>
   <g id="matplotlib.axis_1">
    <g id="xtick_1">
     <g id="line2d_3">
      <defs>
       <path d="M 0 0 
L 0 -4 
" id="mf82c3b504a" style="stroke:#000000;stroke-width:0.5;"/>
      </defs>
      <g>
       <use style="stroke:#000000;stroke-width:0.5;" x="94.4865148515" xlink:href="#mf82c3b504a" y="314.64"/>
      </g>
     </g>
     <g id="line2d_4">
      <defs>
       <path d="M 0 0 
L 0 4 
" id="m973ef08404" style="stroke:#000000;stroke-width:0.5;"/>
      </defs>
      <g>
       <use style="stroke:#000000;stroke-width:0.5;" x="94.4865148515" xlink:href="#m973ef08404" y="12.96"/>
      </g>
     </g>
     <g id="text_1">
      <!-- −15 -->
      <defs>
       <path d="M 12.40625 8.296875 
L 28.515625 8.296875 
L 28.515625 63.921875 
L 10.984375 60.40625 
L 10.984375 69.390625 
L 28.421875 72.90625 
L 38.28125 72.90625 
L 38.28125 8.296875 
L 54.390625 8.296875 
L 54.390625 0 
L 12.40625 0 
z
" id="BitstreamVeraSans-Roman-31"/>
       <path d="M 10.796875 72.90625 
L 49.515625 72.90625 
L 49.515625 64.59375 
L 19.828125 64.59375 
L 19.828125 46.734375 
Q 21.96875 47.46875 24.109375 47.828125 
Q 26.265625 48.1875 28.421875 48.1875 
Q 40.625 48.1875 47.75 41.5 
Q 54.890625 34.8125 54.890625 23.390625 
Q 54.890625 11.625 47.5625 5.09375 
Q 40.234375 -1.421875 26.90625 -1.421875 
Q 22.3125 -1.421875 17.546875 -0.640625 
Q 12.796875 0.140625 7.71875 1.703125 
L 7.71875 11.625 
Q 12.109375 9.234375 16.796875 8.0625 
Q 21.484375 6.890625 26.703125 6.890625 
Q 35.15625 6.890625 40.078125 11.328125 
Q 45.015625 15.765625 45.015625 23.390625 
Q 45.015625 31 40.078125 35.4375 
Q 35.15625 39.890625 26.703125 39.890625 
Q 22.75 39.890625 18.8125 39.015625 
Q 14.890625 38.140625 10.796875 36.28125 
z
" id="BitstreamVeraSans-Roman-35"/>
       <path d="M 10.59375 35.5 
L 73.1875 35.5 
L 73.1875 27.203125 
L 10.59375 27.203125 
z
" id="BitstreamVeraSans-Roman-2212"/>
      </defs>
      <g transform="translate(81.8237023515 327.758125)scale(0.12 -0.12)">
       <use xlink:href="#BitstreamVeraSans-Roman-2212"/>
       <use x="83.7890625" xlink:href="#BitstreamVeraSans-Roman-31"/>
       <use x="147.412109375" xlink:href="#BitstreamVeraSans-Roman-35"/>
      </g>
     </g>
    </g>
    <g id="xtick_2">
     <g id="line2d_5">
      <g>
       <use style="stroke:#000000;stroke-width:0.5;" x="153.885029703" xlink:href="#mf82c3b504a" y="314.64"/>
      </g>
     </g>
     <g id="line2d_6">
      <g>
       <use style="stroke:#000000;stroke-width:0.5;" x="153.885029703" xlink:href="#m973ef08404" y="12.96"/>
      </g>
     </g>
     <g id="text_2">
      <!-- −10 -->
      <defs>
       <path d="M 31.78125 66.40625 
Q 24.171875 66.40625 20.328125 58.90625 
Q 16.5 51.421875 16.5 36.375 
Q 16.5 21.390625 20.328125 13.890625 
Q 24.171875 6.390625 31.78125 6.390625 
Q 39.453125 6.390625 43.28125 13.890625 
Q 47.125 21.390625 47.125 36.375 
Q 47.125 51.421875 43.28125 58.90625 
Q 39.453125 66.40625 31.78125 66.40625 
M 31.78125 74.21875 
Q 44.046875 74.21875 50.515625 64.515625 
Q 56.984375 54.828125 56.984375 36.375 
Q 56.984375 17.96875 50.515625 8.265625 
Q 44.046875 -1.421875 31.78125 -1.421875 
Q 19.53125 -1.421875 13.0625 8.265625 
Q 6.59375 17.96875 6.59375 36.375 
Q 6.59375 54.828125 13.0625 64.515625 
Q 19.53125 74.21875 31.78125 74.21875 
" id="BitstreamVeraSans-Roman-30"/>
      </defs>
      <g transform="translate(141.222217203 327.758125)scale(0.12 -0.12)">
       <use xlink:href="#BitstreamVeraSans-Roman-2212"/>
       <use x="83.7890625" xlink:href="#BitstreamVeraSans-Roman-31"/>
       <use x="147.412109375" xlink:href="#BitstreamVeraSans-Roman-30"/>
      </g>
     </g>
    </g>
    <g id="xtick_3">
     <g id="line2d_7">
      <g>
       <use style="stroke:#000000;stroke-width:0.5;" x="213.283544554" xlink:href="#mf82c3b504a" y="314.64"/>
      </g>
     </g>
     <g id="line2d_8">
      <g>
       <use style="stroke:#000000;stroke-width:0.5;" x="213.283544554" xlink:href="#m973ef08404" y="12.96"/>
      </g>
     </g>
     <g id="text_3">
      <!-- −5 -->
      <g transform="translate(204.438232054 327.758125)scale(0.12 -0.12)">
       <use xlink:href="#BitstreamVeraSans-Roman-2212"/>
       <use x="83.7890625" xlink:href="#BitstreamVeraSans-Roman-35"/>
      </g>
     </g>
    </g>
    <g id="xtick_4">
     <g id="line2d_9">
      <g>
       <use style="stroke:#000000;stroke-width:0.5;" x="272.682059406" xlink:href="#mf82c3b504a" y="314.64"/>
      </g>
     </g>
     <g id="line2d_10">
      <g>
       <use style="stroke:#000000;stroke-width:0.5;" x="272.682059406" xlink:href="#m973ef08404" y="12.96"/>
      </g>
     </g>
     <g id="text_4">
      <!-- 0 -->
      <g transform="translate(268.864559406 327.758125)scale(0.12 -0.12)">
       <use xlink:href="#BitstreamVeraSans-Roman-30"/>
      </g>
     </g>
    </g>
    <g id="xtick_5">
     <g id="line2d_11">
      <g>
       <use style="stroke:#000000;stroke-width:0.5;" x="332.080574257" xlink:href="#mf82c3b504a" y="314.64"/>
      </g>
     </g>
     <g id="line2d_12">
      <g>
       <use style="stroke:#000000;stroke-width:0.5;" x="332.080574257" xlink:href="#m973ef08404" y="12.96"/>
      </g>
     </g>
     <g id="text_5">
      <!-- 5 -->
      <g transform="translate(328.263074257 327.758125)scale(0.12 -0.12)">
       <use xlink:href="#BitstreamVeraSans-Roman-35"/>
      </g>
     </g>
    </g>
    <g id="xtick_6">
     <g id="line2d_13">
      <g>
       <use style="stroke:#000000;stroke-width:0.5;" x="391.479089109" xlink:href="#mf82c3b504a" y="314.64"/>
      </g>
     </g>
     <g id="line2d_14">
      <g>
       <use style="stroke:#000000;stroke-width:0.5;" x="391.479089109" xlink:href="#m973ef08404" y="12.96"/>
      </g>
     </g>
     <g id="text_6">
      <!-- 10 -->
      <g transform="translate(383.844089109 327.758125)scale(0.12 -0.12)">
       <use xlink:href="#BitstreamVeraSans-Roman-31"/>
       <use x="63.623046875" xlink:href="#BitstreamVeraSans-Roman-30"/>
      </g>
     </g>
    </g>
    <g id="text_7">
     <!-- experimental -->
     <defs>
      <path d="M 18.109375 8.203125 
L 18.109375 -20.796875 
L 9.078125 -20.796875 
L 9.078125 54.6875 
L 18.109375 54.6875 
L 18.109375 46.390625 
Q 20.953125 51.265625 25.265625 53.625 
Q 29.59375 56 35.59375 56 
Q 45.5625 56 51.78125 48.09375 
Q 58.015625 40.1875 58.015625 27.296875 
Q 58.015625 14.40625 51.78125 6.484375 
Q 45.5625 -1.421875 35.59375 -1.421875 
Q 29.59375 -1.421875 25.265625 0.953125 
Q 20.953125 3.328125 18.109375 8.203125 
M 48.6875 27.296875 
Q 48.6875 37.203125 44.609375 42.84375 
Q 40.53125 48.484375 33.40625 48.484375 
Q 26.265625 48.484375 22.1875 42.84375 
Q 18.109375 37.203125 18.109375 27.296875 
Q 18.109375 17.390625 22.1875 11.75 
Q 26.265625 6.109375 33.40625 6.109375 
Q 40.53125 6.109375 44.609375 11.75 
Q 48.6875 17.390625 48.6875 27.296875 
" id="BitstreamVeraSans-Roman-70"/>
      <path d="M 9.421875 75.984375 
L 18.40625 75.984375 
L 18.40625 0 
L 9.421875 0 
z
" id="BitstreamVeraSans-Roman-6c"/>
      <path d="M 9.421875 54.6875 
L 18.40625 54.6875 
L 18.40625 0 
L 9.421875 0 
z
M 9.421875 75.984375 
L 18.40625 75.984375 
L 18.40625 64.59375 
L 9.421875 64.59375 
z
" id="BitstreamVeraSans-Roman-69"/>
      <path d="M 56.203125 29.59375 
L 56.203125 25.203125 
L 14.890625 25.203125 
Q 15.484375 15.921875 20.484375 11.0625 
Q 25.484375 6.203125 34.421875 6.203125 
Q 39.59375 6.203125 44.453125 7.46875 
Q 49.3125 8.734375 54.109375 11.28125 
L 54.109375 2.78125 
Q 49.265625 0.734375 44.1875 -0.34375 
Q 39.109375 -1.421875 33.890625 -1.421875 
Q 20.796875 -1.421875 13.15625 6.1875 
Q 5.515625 13.8125 5.515625 26.8125 
Q 5.515625 40.234375 12.765625 48.109375 
Q 20.015625 56 32.328125 56 
Q 43.359375 56 49.78125 48.890625 
Q 56.203125 41.796875 56.203125 29.59375 
M 47.21875 32.234375 
Q 47.125 39.59375 43.09375 43.984375 
Q 39.0625 48.390625 32.421875 48.390625 
Q 24.90625 48.390625 20.390625 44.140625 
Q 15.875 39.890625 15.1875 32.171875 
z
" id="BitstreamVeraSans-Roman-65"/>
      <path d="M 41.109375 46.296875 
Q 39.59375 47.171875 37.8125 47.578125 
Q 36.03125 48 33.890625 48 
Q 26.265625 48 22.1875 43.046875 
Q 18.109375 38.09375 18.109375 28.8125 
L 18.109375 0 
L 9.078125 0 
L 9.078125 54.6875 
L 18.109375 54.6875 
L 18.109375 46.1875 
Q 20.953125 51.171875 25.484375 53.578125 
Q 30.03125 56 36.53125 56 
Q 37.453125 56 38.578125 55.875 
Q 39.703125 55.765625 41.0625 55.515625 
z
" id="BitstreamVeraSans-Roman-72"/>
      <path d="M 34.28125 27.484375 
Q 23.390625 27.484375 19.1875 25 
Q 14.984375 22.515625 14.984375 16.5 
Q 14.984375 11.71875 18.140625 8.90625 
Q 21.296875 6.109375 26.703125 6.109375 
Q 34.1875 6.109375 38.703125 11.40625 
Q 43.21875 16.703125 43.21875 25.484375 
L 43.21875 27.484375 
z
M 52.203125 31.203125 
L 52.203125 0 
L 43.21875 0 
L 43.21875 8.296875 
Q 40.140625 3.328125 35.546875 0.953125 
Q 30.953125 -1.421875 24.3125 -1.421875 
Q 15.921875 -1.421875 10.953125 3.296875 
Q 6 8.015625 6 15.921875 
Q 6 25.140625 12.171875 29.828125 
Q 18.359375 34.515625 30.609375 34.515625 
L 43.21875 34.515625 
L 43.21875 35.40625 
Q 43.21875 41.609375 39.140625 45 
Q 35.0625 48.390625 27.6875 48.390625 
Q 23 48.390625 18.546875 47.265625 
Q 14.109375 46.140625 10.015625 43.890625 
L 10.015625 52.203125 
Q 14.9375 54.109375 19.578125 55.046875 
Q 24.21875 56 28.609375 56 
Q 40.484375 56 46.34375 49.84375 
Q 52.203125 43.703125 52.203125 31.203125 
" id="BitstreamVeraSans-Roman-61"/>
      <path d="M 18.3125 70.21875 
L 18.3125 54.6875 
L 36.8125 54.6875 
L 36.8125 47.703125 
L 18.3125 47.703125 
L 18.3125 18.015625 
Q 18.3125 11.328125 20.140625 9.421875 
Q 21.96875 7.515625 27.59375 7.515625 
L 36.8125 7.515625 
L 36.8125 0 
L 27.59375 0 
Q 17.1875 0 13.234375 3.875 
Q 9.28125 7.765625 9.28125 18.015625 
L 9.28125 47.703125 
L 2.6875 47.703125 
L 2.6875 54.6875 
L 9.28125 54.6875 
L 9.28125 70.21875 
z
" id="BitstreamVeraSans-Roman-74"/>
      <path d="M 54.890625 54.6875 
L 35.109375 28.078125 
L 55.90625 0 
L 45.3125 0 
L 29.390625 21.484375 
L 13.484375 0 
L 2.875 0 
L 24.125 28.609375 
L 4.6875 54.6875 
L 15.28125 54.6875 
L 29.78125 35.203125 
L 44.28125 54.6875 
z
" id="BitstreamVeraSans-Roman-78"/>
      <path d="M 52 44.1875 
Q 55.375 50.25 60.0625 53.125 
Q 64.75 56 71.09375 56 
Q 79.640625 56 84.28125 50.015625 
Q 88.921875 44.046875 88.921875 33.015625 
L 88.921875 0 
L 79.890625 0 
L 79.890625 32.71875 
Q 79.890625 40.578125 77.09375 44.375 
Q 74.3125 48.1875 68.609375 48.1875 
Q 61.625 48.1875 57.5625 43.546875 
Q 53.515625 38.921875 53.515625 30.90625 
L 53.515625 0 
L 44.484375 0 
L 44.484375 32.71875 
Q 44.484375 40.625 41.703125 44.40625 
Q 38.921875 48.1875 33.109375 48.1875 
Q 26.21875 48.1875 22.15625 43.53125 
Q 18.109375 38.875 18.109375 30.90625 
L 18.109375 0 
L 9.078125 0 
L 9.078125 54.6875 
L 18.109375 54.6875 
L 18.109375 46.1875 
Q 21.1875 51.21875 25.484375 53.609375 
Q 29.78125 56 35.6875 56 
Q 41.65625 56 45.828125 52.96875 
Q 50 49.953125 52 44.1875 
" id="BitstreamVeraSans-Roman-6d"/>
      <path d="M 54.890625 33.015625 
L 54.890625 0 
L 45.90625 0 
L 45.90625 32.71875 
Q 45.90625 40.484375 42.875 44.328125 
Q 39.84375 48.1875 33.796875 48.1875 
Q 26.515625 48.1875 22.3125 43.546875 
Q 18.109375 38.921875 18.109375 30.90625 
L 18.109375 0 
L 9.078125 0 
L 9.078125 54.6875 
L 18.109375 54.6875 
L 18.109375 46.1875 
Q 21.34375 51.125 25.703125 53.5625 
Q 30.078125 56 35.796875 56 
Q 45.21875 56 50.046875 50.171875 
Q 54.890625 44.34375 54.890625 33.015625 
" id="BitstreamVeraSans-Roman-6e"/>
     </defs>
     <g transform="translate(199.15125 344.371875)scale(0.12 -0.12)">
      <use xlink:href="#BitstreamVeraSans-Roman-65"/>
      <use x="61.5078125" xlink:href="#BitstreamVeraSans-Roman-78"/>
      <use x="120.6875" xlink:href="#BitstreamVeraSans-Roman-70"/>
      <use x="184.1640625" xlink:href="#BitstreamVeraSans-Roman-65"/>
      <use x="245.6875" xlink:href="#BitstreamVeraSans-Roman-72"/>
      <use x="286.80078125" xlink:href="#BitstreamVeraSans-Roman-69"/>
      <use x="314.583984375" xlink:href="#BitstreamVeraSans-Roman-6d"/>
      <use x="411.99609375" xlink:href="#BitstreamVeraSans-Roman-65"/>
      <use x="473.51953125" xlink:href="#BitstreamVeraSans-Roman-6e"/>
      <use x="536.8984375" xlink:href="#BitstreamVeraSans-Roman-74"/>
      <use x="576.107421875" xlink:href="#BitstreamVeraSans-Roman-61"/>
      <use x="637.38671875" xlink:href="#BitstreamVeraSans-Roman-6c"/>
     </g>
    </g>
   </g>
   <g id="matplotlib.axis_2">
    <g id="ytick_1">
     <g id="line2d_15">
      <defs>
       <path d="M 0 0 
L 4 0 
" id="mb8014e30a7" style="stroke:#000000;stroke-width:0.5;"/>
      </defs>
      <g>
       <use style="stroke:#000000;stroke-width:0.5;" x="59.085" xlink:href="#mb8014e30a7" y="284.969821782"/>
      </g>
     </g>
     <g id="line2d_16">
      <defs>
       <path d="M 0 0 
L -4 0 
" id="mdd4a9f21e0" style="stroke:#000000;stroke-width:0.5;"/>
      </defs>
      <g>
       <use style="stroke:#000000;stroke-width:0.5;" x="419.04" xlink:href="#mdd4a9f21e0" y="284.969821782"/>
      </g>
     </g>
     <g id="text_8">
      <!-- −15 -->
      <g transform="translate(29.759375 288.281071782)scale(0.12 -0.12)">
       <use xlink:href="#BitstreamVeraSans-Roman-2212"/>
       <use x="83.7890625" xlink:href="#BitstreamVeraSans-Roman-31"/>
       <use x="147.412109375" xlink:href="#BitstreamVeraSans-Roman-35"/>
      </g>
     </g>
    </g>
    <g id="ytick_2">
     <g id="line2d_17">
      <g>
       <use style="stroke:#000000;stroke-width:0.5;" x="59.085" xlink:href="#mb8014e30a7" y="235.187643564"/>
      </g>
     </g>
     <g id="line2d_18">
      <g>
       <use style="stroke:#000000;stroke-width:0.5;" x="419.04" xlink:href="#mdd4a9f21e0" y="235.187643564"/>
      </g>
     </g>
     <g id="text_9">
      <!-- −10 -->
      <g transform="translate(29.759375 238.498893564)scale(0.12 -0.12)">
       <use xlink:href="#BitstreamVeraSans-Roman-2212"/>
       <use x="83.7890625" xlink:href="#BitstreamVeraSans-Roman-31"/>
       <use x="147.412109375" xlink:href="#BitstreamVeraSans-Roman-30"/>
      </g>
     </g>
    </g>
    <g id="ytick_3">
     <g id="line2d_19">
      <g>
       <use style="stroke:#000000;stroke-width:0.5;" x="59.085" xlink:href="#mb8014e30a7" y="185.405465347"/>
      </g>
     </g>
     <g id="line2d_20">
      <g>
       <use style="stroke:#000000;stroke-width:0.5;" x="419.04" xlink:href="#mdd4a9f21e0" y="185.405465347"/>
      </g>
     </g>
     <g id="text_10">
      <!-- −5 -->
      <g transform="translate(37.394375 188.716715347)scale(0.12 -0.12)">
       <use xlink:href="#BitstreamVeraSans-Roman-2212"/>
       <use x="83.7890625" xlink:href="#BitstreamVeraSans-Roman-35"/>
      </g>
     </g>
    </g>
    <g id="ytick_4">
     <g id="line2d_21">
      <g>
       <use style="stroke:#000000;stroke-width:0.5;" x="59.085" xlink:href="#mb8014e30a7" y="135.623287129"/>
      </g>
     </g>
     <g id="line2d_22">
      <g>
       <use style="stroke:#000000;stroke-width:0.5;" x="419.04" xlink:href="#mdd4a9f21e0" y="135.623287129"/>
      </g>
     </g>
     <g id="text_11">
      <!-- 0 -->
      <g transform="translate(47.45 138.934537129)scale(0.12 -0.12)">
       <use xlink:href="#BitstreamVeraSans-Roman-30"/>
      </g>
     </g>
    </g>
    <g id="ytick_5">
     <g id="line2d_23">
      <g>
       <use style="stroke:#000000;stroke-width:0.5;" x="59.085" xlink:href="#mb8014e30a7" y="85.8411089109"/>
      </g>
     </g>
     <g id="line2d_24">
      <g>
       <use style="stroke:#000000;stroke-width:0.5;" x="419.04" xlink:href="#mdd4a9f21e0" y="85.8411089109"/>
      </g>
     </g>
     <g id="text_12">
      <!-- 5 -->
      <g transform="translate(47.45 89.1523589109)scale(0.12 -0.12)">
       <use xlink:href="#BitstreamVeraSans-Roman-35"/>
      </g>
     </g>
    </g>
    <g id="ytick_6">
     <g id="line2d_25">
      <g>
       <use style="stroke:#000000;stroke-width:0.5;" x="59.085" xlink:href="#mb8014e30a7" y="36.0589306931"/>
      </g>
     </g>
     <g id="line2d_26">
      <g>
       <use style="stroke:#000000;stroke-width:0.5;" x="419.04" xlink:href="#mdd4a9f21e0" y="36.0589306931"/>
      </g>
     </g>
     <g id="text_13">
      <!-- 10 -->
      <g transform="translate(39.815 39.3701806931)scale(0.12 -0.12)">
       <use xlink:href="#BitstreamVeraSans-Roman-31"/>
       <use x="63.623046875" xlink:href="#BitstreamVeraSans-Roman-30"/>
      </g>
     </g>
    </g>
    <g id="text_14">
     <!-- calculated -->
     <defs>
      <path d="M 48.78125 52.59375 
L 48.78125 44.1875 
Q 44.96875 46.296875 41.140625 47.34375 
Q 37.3125 48.390625 33.40625 48.390625 
Q 24.65625 48.390625 19.8125 42.84375 
Q 14.984375 37.3125 14.984375 27.296875 
Q 14.984375 17.28125 19.8125 11.734375 
Q 24.65625 6.203125 33.40625 6.203125 
Q 37.3125 6.203125 41.140625 7.25 
Q 44.96875 8.296875 48.78125 10.40625 
L 48.78125 2.09375 
Q 45.015625 0.34375 40.984375 -0.53125 
Q 36.96875 -1.421875 32.421875 -1.421875 
Q 20.0625 -1.421875 12.78125 6.34375 
Q 5.515625 14.109375 5.515625 27.296875 
Q 5.515625 40.671875 12.859375 48.328125 
Q 20.21875 56 33.015625 56 
Q 37.15625 56 41.109375 55.140625 
Q 45.0625 54.296875 48.78125 52.59375 
" id="BitstreamVeraSans-Roman-63"/>
      <path d="M 45.40625 46.390625 
L 45.40625 75.984375 
L 54.390625 75.984375 
L 54.390625 0 
L 45.40625 0 
L 45.40625 8.203125 
Q 42.578125 3.328125 38.25 0.953125 
Q 33.9375 -1.421875 27.875 -1.421875 
Q 17.96875 -1.421875 11.734375 6.484375 
Q 5.515625 14.40625 5.515625 27.296875 
Q 5.515625 40.1875 11.734375 48.09375 
Q 17.96875 56 27.875 56 
Q 33.9375 56 38.25 53.625 
Q 42.578125 51.265625 45.40625 46.390625 
M 14.796875 27.296875 
Q 14.796875 17.390625 18.875 11.75 
Q 22.953125 6.109375 30.078125 6.109375 
Q 37.203125 6.109375 41.296875 11.75 
Q 45.40625 17.390625 45.40625 27.296875 
Q 45.40625 37.203125 41.296875 42.84375 
Q 37.203125 48.484375 30.078125 48.484375 
Q 22.953125 48.484375 18.875 42.84375 
Q 14.796875 37.203125 14.796875 27.296875 
" id="BitstreamVeraSans-Roman-64"/>
      <path d="M 8.5 21.578125 
L 8.5 54.6875 
L 17.484375 54.6875 
L 17.484375 21.921875 
Q 17.484375 14.15625 20.5 10.265625 
Q 23.53125 6.390625 29.59375 6.390625 
Q 36.859375 6.390625 41.078125 11.03125 
Q 45.3125 15.671875 45.3125 23.6875 
L 45.3125 54.6875 
L 54.296875 54.6875 
L 54.296875 0 
L 45.3125 0 
L 45.3125 8.40625 
Q 42.046875 3.421875 37.71875 1 
Q 33.40625 -1.421875 27.6875 -1.421875 
Q 18.265625 -1.421875 13.375 4.4375 
Q 8.5 10.296875 8.5 21.578125 
" id="BitstreamVeraSans-Roman-75"/>
     </defs>
     <g transform="translate(22.26375 194.74125)rotate(-90.0)scale(0.12 -0.12)">
      <use xlink:href="#BitstreamVeraSans-Roman-63"/>
      <use x="54.98046875" xlink:href="#BitstreamVeraSans-Roman-61"/>
      <use x="116.259765625" xlink:href="#BitstreamVeraSans-Roman-6c"/>
      <use x="144.04296875" xlink:href="#BitstreamVeraSans-Roman-63"/>
      <use x="199.0234375" xlink:href="#BitstreamVeraSans-Roman-75"/>
      <use x="262.40234375" xlink:href="#BitstreamVeraSans-Roman-6c"/>
      <use x="290.185546875" xlink:href="#BitstreamVeraSans-Roman-61"/>
      <use x="351.46484375" xlink:href="#BitstreamVeraSans-Roman-74"/>
      <use x="390.673828125" xlink:href="#BitstreamVeraSans-Roman-65"/>
      <use x="452.197265625" xlink:href="#BitstreamVeraSans-Roman-64"/>
     </g>
    </g>
   </g>
  </g>
 </g>
 <defs>
  <clipPath id="p354736387b">
   <rect height="301.68" width="359.955" x="59.085" y="12.96"/>
  </clipPath>
 </defs>
</svg>
