<?xml version="1.0" encoding="utf-8" standalone="no"?>
<!DOCTYPE svg PUBLIC "-//W3C//DTD SVG 1.1//EN"
  "http://www.w3.org/Graphics/SVG/1.1/DTD/svg11.dtd">
<!-- Created with matplotlib (http://matplotlib.org/) -->
<svg height="360pt" version="1.1" viewBox="0 0 720 360" width="720pt" xmlns="http://www.w3.org/2000/svg" xmlns:xlink="http://www.w3.org/1999/xlink">
 <defs>
  <style type="text/css">
*{stroke-linecap:butt;stroke-linejoin:round;stroke-miterlimit:100000;}
  </style>
 </defs>
 <g id="figure_1">
  <g id="patch_1">
   <path d="M 0 360 
L 720 360 
L 720 0 
L 0 0 
z
" style="fill:#ffffff;"/>
  </g>
  <g id="axes_1">
   <g id="patch_2">
    <path d="M 52.8975 314.64 
L 707.04 314.64 
L 707.04 12.96 
L 52.8975 12.96 
z
" style="fill:#ffffff;"/>
   </g>
   <g id="line2d_1">
    <path clip-path="url(#p108f893e6e)" d="M 52.8975 146.615696 
L 61.982813 314.64 
L 71.068125 210.579494 
L 80.153437 282.180759 
L 89.23875 155.207848 
L 98.324062 125.612658 
L 107.409375 86.470633 
L 116.494687 171.437468 
L 134.665312 100.790886 
L 143.750625 232.537215 
L 152.835938 180.02962 
L 161.92125 182.893671 
L 171.006563 258.313671 
L 180.091875 202.942025 
L 189.177187 283.135443 
L 198.2625 209.62481 
L 225.518437 76.923797 
L 234.60375 96.017468 
L 243.689062 29.18962 
L 261.859687 68.331646 
L 270.945 38.736456 
L 280.030312 48.283291 
L 289.115625 12.96 
L 298.200937 62.603544 
L 307.28625 36.827089 
L 316.371562 25.370886 
L 325.456875 46.373924 
L 334.542187 96.972152 
L 361.798125 114.156456 
L 389.054062 82.651899 
L 398.139375 170.482785 
L 407.224687 154.253165 
L 416.31 272.633924 
L 425.395312 197.213924 
L 434.480625 203.896709 
L 443.565937 287.908861 
L 452.65125 265.951139 
L 470.821875 200.077975 
L 479.907187 93.153418 
L 488.9925 111.292405 
L 498.077812 119.884557 
L 507.163125 64.512911 
L 525.33375 159.026582 
L 534.419062 138.978228 
L 543.504375 76.923797 
L 561.675 54.966076 
L 570.760312 149.479747 
L 579.845625 215.352911 
L 588.930938 93.153418 
L 598.01625 195.304557 
L 607.101562 68.331646 
L 616.186875 162.845316 
L 634.3575 163.8 
L 643.442812 209.62481 
L 652.528125 208.670127 
L 661.613437 180.02962 
L 670.69875 254.494937 
L 679.784062 138.978228 
L 697.954687 159.026582 
L 707.04 153.298481 
" style="fill:none;stroke:#ff0000;stroke-linecap:square;stroke-width:2.0;"/>
    <defs>
     <path d="M 0 3 
C 0.795609 3 1.55874 2.683901 2.12132 2.12132 
C 2.683901 1.55874 3 0.795609 3 0 
C 3 -0.795609 2.683901 -1.55874 2.12132 -2.12132 
C 1.55874 -2.683901 0.795609 -3 0 -3 
C -0.795609 -3 -1.55874 -2.683901 -2.12132 -2.12132 
C -2.683901 -1.55874 -3 -0.795609 -3 0 
C -3 0.795609 -2.683901 1.55874 -2.12132 2.12132 
C -1.55874 2.683901 -0.795609 3 0 3 
z
" id="m40cbc69464" style="stroke:#000000;stroke-width:0.5;"/>
    </defs>
    <g clip-path="url(#p108f893e6e)">
     <use style="fill:#ff0000;stroke:#000000;stroke-width:0.5;" x="52.8975" xlink:href="#m40cbc69464" y="146.615696203"/>
     <use style="fill:#ff0000;stroke:#000000;stroke-width:0.5;" x="61.9828125" xlink:href="#m40cbc69464" y="314.64"/>
     <use style="fill:#ff0000;stroke:#000000;stroke-width:0.5;" x="71.068125" xlink:href="#m40cbc69464" y="210.579493671"/>
     <use style="fill:#ff0000;stroke:#000000;stroke-width:0.5;" x="80.1534375" xlink:href="#m40cbc69464" y="282.180759494"/>
     <use style="fill:#ff0000;stroke:#000000;stroke-width:0.5;" x="89.23875" xlink:href="#m40cbc69464" y="155.207848101"/>
     <use style="fill:#ff0000;stroke:#000000;stroke-width:0.5;" x="98.3240625" xlink:href="#m40cbc69464" y="125.612658228"/>
     <use style="fill:#ff0000;stroke:#000000;stroke-width:0.5;" x="107.409375" xlink:href="#m40cbc69464" y="86.4706329114"/>
     <use style="fill:#ff0000;stroke:#000000;stroke-width:0.5;" x="116.4946875" xlink:href="#m40cbc69464" y="171.437468354"/>
     <use style="fill:#ff0000;stroke:#000000;stroke-width:0.5;" x="134.6653125" xlink:href="#m40cbc69464" y="100.790886076"/>
     <use style="fill:#ff0000;stroke:#000000;stroke-width:0.5;" x="143.750625" xlink:href="#m40cbc69464" y="232.53721519"/>
     <use style="fill:#ff0000;stroke:#000000;stroke-width:0.5;" x="152.8359375" xlink:href="#m40cbc69464" y="180.029620253"/>
     <use style="fill:#ff0000;stroke:#000000;stroke-width:0.5;" x="161.92125" xlink:href="#m40cbc69464" y="182.893670886"/>
     <use style="fill:#ff0000;stroke:#000000;stroke-width:0.5;" x="171.0065625" xlink:href="#m40cbc69464" y="258.313670886"/>
     <use style="fill:#ff0000;stroke:#000000;stroke-width:0.5;" x="180.091875" xlink:href="#m40cbc69464" y="202.942025316"/>
     <use style="fill:#ff0000;stroke:#000000;stroke-width:0.5;" x="189.1771875" xlink:href="#m40cbc69464" y="283.135443038"/>
     <use style="fill:#ff0000;stroke:#000000;stroke-width:0.5;" x="198.2625" xlink:href="#m40cbc69464" y="209.624810127"/>
     <use style="fill:#ff0000;stroke:#000000;stroke-width:0.5;" x="225.5184375" xlink:href="#m40cbc69464" y="76.9237974684"/>
     <use style="fill:#ff0000;stroke:#000000;stroke-width:0.5;" x="234.60375" xlink:href="#m40cbc69464" y="96.0174683544"/>
     <use style="fill:#ff0000;stroke:#000000;stroke-width:0.5;" x="243.6890625" xlink:href="#m40cbc69464" y="29.1896202532"/>
     <use style="fill:#ff0000;stroke:#000000;stroke-width:0.5;" x="261.8596875" xlink:href="#m40cbc69464" y="68.3316455696"/>
     <use style="fill:#ff0000;stroke:#000000;stroke-width:0.5;" x="270.945" xlink:href="#m40cbc69464" y="38.7364556962"/>
     <use style="fill:#ff0000;stroke:#000000;stroke-width:0.5;" x="280.0303125" xlink:href="#m40cbc69464" y="48.2832911392"/>
     <use style="fill:#ff0000;stroke:#000000;stroke-width:0.5;" x="289.115625" xlink:href="#m40cbc69464" y="12.96"/>
     <use style="fill:#ff0000;stroke:#000000;stroke-width:0.5;" x="298.2009375" xlink:href="#m40cbc69464" y="62.6035443038"/>
     <use style="fill:#ff0000;stroke:#000000;stroke-width:0.5;" x="307.28625" xlink:href="#m40cbc69464" y="36.8270886076"/>
     <use style="fill:#ff0000;stroke:#000000;stroke-width:0.5;" x="316.3715625" xlink:href="#m40cbc69464" y="25.3708860759"/>
     <use style="fill:#ff0000;stroke:#000000;stroke-width:0.5;" x="325.456875" xlink:href="#m40cbc69464" y="46.3739240506"/>
     <use style="fill:#ff0000;stroke:#000000;stroke-width:0.5;" x="334.5421875" xlink:href="#m40cbc69464" y="96.9721518987"/>
     <use style="fill:#ff0000;stroke:#000000;stroke-width:0.5;" x="361.798125" xlink:href="#m40cbc69464" y="114.156455696"/>
     <use style="fill:#ff0000;stroke:#000000;stroke-width:0.5;" x="389.0540625" xlink:href="#m40cbc69464" y="82.6518987342"/>
     <use style="fill:#ff0000;stroke:#000000;stroke-width:0.5;" x="398.139375" xlink:href="#m40cbc69464" y="170.48278481"/>
     <use style="fill:#ff0000;stroke:#000000;stroke-width:0.5;" x="407.2246875" xlink:href="#m40cbc69464" y="154.253164557"/>
     <use style="fill:#ff0000;stroke:#000000;stroke-width:0.5;" x="416.31" xlink:href="#m40cbc69464" y="272.633924051"/>
     <use style="fill:#ff0000;stroke:#000000;stroke-width:0.5;" x="425.3953125" xlink:href="#m40cbc69464" y="197.213924051"/>
     <use style="fill:#ff0000;stroke:#000000;stroke-width:0.5;" x="434.480625" xlink:href="#m40cbc69464" y="203.896708861"/>
     <use style="fill:#ff0000;stroke:#000000;stroke-width:0.5;" x="443.5659375" xlink:href="#m40cbc69464" y="287.908860759"/>
     <use style="fill:#ff0000;stroke:#000000;stroke-width:0.5;" x="452.65125" xlink:href="#m40cbc69464" y="265.951139241"/>
     <use style="fill:#ff0000;stroke:#000000;stroke-width:0.5;" x="470.821875" xlink:href="#m40cbc69464" y="200.077974684"/>
     <use style="fill:#ff0000;stroke:#000000;stroke-width:0.5;" x="479.9071875" xlink:href="#m40cbc69464" y="93.1534177215"/>
     <use style="fill:#ff0000;stroke:#000000;stroke-width:0.5;" x="488.9925" xlink:href="#m40cbc69464" y="111.292405063"/>
     <use style="fill:#ff0000;stroke:#000000;stroke-width:0.5;" x="498.0778125" xlink:href="#m40cbc69464" y="119.884556962"/>
     <use style="fill:#ff0000;stroke:#000000;stroke-width:0.5;" x="507.163125" xlink:href="#m40cbc69464" y="64.5129113924"/>
     <use style="fill:#ff0000;stroke:#000000;stroke-width:0.5;" x="525.33375" xlink:href="#m40cbc69464" y="159.026582278"/>
     <use style="fill:#ff0000;stroke:#000000;stroke-width:0.5;" x="534.4190625" xlink:href="#m40cbc69464" y="138.978227848"/>
     <use style="fill:#ff0000;stroke:#000000;stroke-width:0.5;" x="543.504375" xlink:href="#m40cbc69464" y="76.9237974684"/>
     <use style="fill:#ff0000;stroke:#000000;stroke-width:0.5;" x="561.675" xlink:href="#m40cbc69464" y="54.9660759494"/>
     <use style="fill:#ff0000;stroke:#000000;stroke-width:0.5;" x="570.7603125" xlink:href="#m40cbc69464" y="149.479746835"/>
     <use style="fill:#ff0000;stroke:#000000;stroke-width:0.5;" x="579.845625" xlink:href="#m40cbc69464" y="215.352911392"/>
     <use style="fill:#ff0000;stroke:#000000;stroke-width:0.5;" x="588.9309375" xlink:href="#m40cbc69464" y="93.1534177215"/>
     <use style="fill:#ff0000;stroke:#000000;stroke-width:0.5;" x="598.01625" xlink:href="#m40cbc69464" y="195.304556962"/>
     <use style="fill:#ff0000;stroke:#000000;stroke-width:0.5;" x="607.1015625" xlink:href="#m40cbc69464" y="68.3316455696"/>
     <use style="fill:#ff0000;stroke:#000000;stroke-width:0.5;" x="616.186875" xlink:href="#m40cbc69464" y="162.845316456"/>
     <use style="fill:#ff0000;stroke:#000000;stroke-width:0.5;" x="634.3575" xlink:href="#m40cbc69464" y="163.8"/>
     <use style="fill:#ff0000;stroke:#000000;stroke-width:0.5;" x="643.4428125" xlink:href="#m40cbc69464" y="209.624810127"/>
     <use style="fill:#ff0000;stroke:#000000;stroke-width:0.5;" x="652.528125" xlink:href="#m40cbc69464" y="208.670126582"/>
     <use style="fill:#ff0000;stroke:#000000;stroke-width:0.5;" x="661.6134375" xlink:href="#m40cbc69464" y="180.029620253"/>
     <use style="fill:#ff0000;stroke:#000000;stroke-width:0.5;" x="670.69875" xlink:href="#m40cbc69464" y="254.494936709"/>
     <use style="fill:#ff0000;stroke:#000000;stroke-width:0.5;" x="679.7840625" xlink:href="#m40cbc69464" y="138.978227848"/>
     <use style="fill:#ff0000;stroke:#000000;stroke-width:0.5;" x="697.9546875" xlink:href="#m40cbc69464" y="159.026582278"/>
     <use style="fill:#ff0000;stroke:#000000;stroke-width:0.5;" x="707.04" xlink:href="#m40cbc69464" y="153.298481013"/>
    </g>
   </g>
   <g id="line2d_2">
    <path clip-path="url(#p108f893e6e)" d="M 52.8975 154.30864 
L 61.982813 278.458254 
L 71.068125 264.564157 
L 80.153437 253.921173 
L 89.23875 164.904078 
L 98.324062 171.703834 
L 107.409375 52.421698 
L 116.494687 138.00711 
L 134.665312 120.878238 
L 143.750625 237.88384 
L 152.835938 215.16997 
L 161.92125 178.566652 
L 171.006563 269.224257 
L 180.091875 172.946044 
L 189.177187 290.894617 
L 198.2625 241.058195 
L 225.518437 60.608942 
L 234.60375 105.97989 
L 243.689062 51.288149 
L 261.859687 54.467662 
L 270.945 51.425878 
L 280.030312 51.147492 
L 289.115625 51.747297 
L 298.200937 53.512569 
L 307.28625 53.247286 
L 316.371562 51.147532 
L 325.456875 51.197429 
L 334.542187 88.78753 
L 361.798125 102.46432 
L 389.054062 62.294262 
L 398.139375 163.681324 
L 407.224687 194.799159 
L 416.31 269.453245 
L 425.395312 185.990423 
L 434.480625 265.619938 
L 443.565937 289.796844 
L 452.65125 217.865519 
L 470.821875 220.317365 
L 479.907187 79.860498 
L 488.9925 107.614914 
L 498.077812 125.447009 
L 507.163125 56.976579 
L 525.33375 211.60303 
L 534.419062 196.042184 
L 543.504375 51.14748 
L 561.675 51.532862 
L 570.760312 162.375092 
L 579.845625 216.635349 
L 588.930938 88.062586 
L 598.01625 197.876185 
L 607.101562 57.190315 
L 616.186875 114.030323 
L 634.3575 214.089085 
L 643.442812 183.673287 
L 652.528125 229.758576 
L 661.613437 193.592808 
L 670.69875 251.461027 
L 679.784062 178.311185 
L 697.954687 232.034911 
L 707.04 176.987894 
" style="fill:none;stroke:#0000ff;stroke-linecap:square;stroke-width:2.0;"/>
    <defs>
     <path d="M 0 3 
C 0.795609 3 1.55874 2.683901 2.12132 2.12132 
C 2.683901 1.55874 3 0.795609 3 0 
C 3 -0.795609 2.683901 -1.55874 2.12132 -2.12132 
C 1.55874 -2.683901 0.795609 -3 0 -3 
C -0.795609 -3 -1.55874 -2.683901 -2.12132 -2.12132 
C -2.683901 -1.55874 -3 -0.795609 -3 0 
C -3 0.795609 -2.683901 1.55874 -2.12132 2.12132 
C -1.55874 2.683901 -0.795609 3 0 3 
z
" id="mcc23465707" style="stroke:#000000;stroke-width:0.5;"/>
    </defs>
    <g clip-path="url(#p108f893e6e)">
     <use style="fill:#0000ff;stroke:#000000;stroke-width:0.5;" x="52.8975" xlink:href="#mcc23465707" y="154.308640031"/>
     <use style="fill:#0000ff;stroke:#000000;stroke-width:0.5;" x="61.9828125" xlink:href="#mcc23465707" y="278.458254386"/>
     <use style="fill:#0000ff;stroke:#000000;stroke-width:0.5;" x="71.068125" xlink:href="#mcc23465707" y="264.564156955"/>
     <use style="fill:#0000ff;stroke:#000000;stroke-width:0.5;" x="80.1534375" xlink:href="#mcc23465707" y="253.92117333"/>
     <use style="fill:#0000ff;stroke:#000000;stroke-width:0.5;" x="89.23875" xlink:href="#mcc23465707" y="164.904078165"/>
     <use style="fill:#0000ff;stroke:#000000;stroke-width:0.5;" x="98.3240625" xlink:href="#mcc23465707" y="171.703833963"/>
     <use style="fill:#0000ff;stroke:#000000;stroke-width:0.5;" x="107.409375" xlink:href="#mcc23465707" y="52.421698423"/>
     <use style="fill:#0000ff;stroke:#000000;stroke-width:0.5;" x="116.4946875" xlink:href="#mcc23465707" y="138.007109613"/>
     <use style="fill:#0000ff;stroke:#000000;stroke-width:0.5;" x="134.6653125" xlink:href="#mcc23465707" y="120.878237935"/>
     <use style="fill:#0000ff;stroke:#000000;stroke-width:0.5;" x="143.750625" xlink:href="#mcc23465707" y="237.883839881"/>
     <use style="fill:#0000ff;stroke:#000000;stroke-width:0.5;" x="152.8359375" xlink:href="#mcc23465707" y="215.169970488"/>
     <use style="fill:#0000ff;stroke:#000000;stroke-width:0.5;" x="161.92125" xlink:href="#mcc23465707" y="178.566652104"/>
     <use style="fill:#0000ff;stroke:#000000;stroke-width:0.5;" x="171.0065625" xlink:href="#mcc23465707" y="269.224256809"/>
     <use style="fill:#0000ff;stroke:#000000;stroke-width:0.5;" x="180.091875" xlink:href="#mcc23465707" y="172.946044185"/>
     <use style="fill:#0000ff;stroke:#000000;stroke-width:0.5;" x="189.1771875" xlink:href="#mcc23465707" y="290.894616782"/>
     <use style="fill:#0000ff;stroke:#000000;stroke-width:0.5;" x="198.2625" xlink:href="#mcc23465707" y="241.058194564"/>
     <use style="fill:#0000ff;stroke:#000000;stroke-width:0.5;" x="225.5184375" xlink:href="#mcc23465707" y="60.6089423634"/>
     <use style="fill:#0000ff;stroke:#000000;stroke-width:0.5;" x="234.60375" xlink:href="#mcc23465707" y="105.979890405"/>
     <use style="fill:#0000ff;stroke:#000000;stroke-width:0.5;" x="243.6890625" xlink:href="#mcc23465707" y="51.2881494599"/>
     <use style="fill:#0000ff;stroke:#000000;stroke-width:0.5;" x="261.8596875" xlink:href="#mcc23465707" y="54.4676615523"/>
     <use style="fill:#0000ff;stroke:#000000;stroke-width:0.5;" x="270.945" xlink:href="#mcc23465707" y="51.4258784766"/>
     <use style="fill:#0000ff;stroke:#000000;stroke-width:0.5;" x="280.0303125" xlink:href="#mcc23465707" y="51.1474916216"/>
     <use style="fill:#0000ff;stroke:#000000;stroke-width:0.5;" x="289.115625" xlink:href="#mcc23465707" y="51.7472974341"/>
     <use style="fill:#0000ff;stroke:#000000;stroke-width:0.5;" x="298.2009375" xlink:href="#mcc23465707" y="53.512568711"/>
     <use style="fill:#0000ff;stroke:#000000;stroke-width:0.5;" x="307.28625" xlink:href="#mcc23465707" y="53.2472861929"/>
     <use style="fill:#0000ff;stroke:#000000;stroke-width:0.5;" x="316.3715625" xlink:href="#mcc23465707" y="51.1475322154"/>
     <use style="fill:#0000ff;stroke:#000000;stroke-width:0.5;" x="325.456875" xlink:href="#mcc23465707" y="51.1974285255"/>
     <use style="fill:#0000ff;stroke:#000000;stroke-width:0.5;" x="334.5421875" xlink:href="#mcc23465707" y="88.78753008"/>
     <use style="fill:#0000ff;stroke:#000000;stroke-width:0.5;" x="361.798125" xlink:href="#mcc23465707" y="102.46432027"/>
     <use style="fill:#0000ff;stroke:#000000;stroke-width:0.5;" x="389.0540625" xlink:href="#mcc23465707" y="62.2942615199"/>
     <use style="fill:#0000ff;stroke:#000000;stroke-width:0.5;" x="398.139375" xlink:href="#mcc23465707" y="163.681324034"/>
     <use style="fill:#0000ff;stroke:#000000;stroke-width:0.5;" x="407.2246875" xlink:href="#mcc23465707" y="194.799158633"/>
     <use style="fill:#0000ff;stroke:#000000;stroke-width:0.5;" x="416.31" xlink:href="#mcc23465707" y="269.453244778"/>
     <use style="fill:#0000ff;stroke:#000000;stroke-width:0.5;" x="425.3953125" xlink:href="#mcc23465707" y="185.990422583"/>
     <use style="fill:#0000ff;stroke:#000000;stroke-width:0.5;" x="434.480625" xlink:href="#mcc23465707" y="265.619937865"/>
     <use style="fill:#0000ff;stroke:#000000;stroke-width:0.5;" x="443.5659375" xlink:href="#mcc23465707" y="289.796843512"/>
     <use style="fill:#0000ff;stroke:#000000;stroke-width:0.5;" x="452.65125" xlink:href="#mcc23465707" y="217.865519223"/>
     <use style="fill:#0000ff;stroke:#000000;stroke-width:0.5;" x="470.821875" xlink:href="#mcc23465707" y="220.317364697"/>
     <use style="fill:#0000ff;stroke:#000000;stroke-width:0.5;" x="479.9071875" xlink:href="#mcc23465707" y="79.8604975156"/>
     <use style="fill:#0000ff;stroke:#000000;stroke-width:0.5;" x="488.9925" xlink:href="#mcc23465707" y="107.614913517"/>
     <use style="fill:#0000ff;stroke:#000000;stroke-width:0.5;" x="498.0778125" xlink:href="#mcc23465707" y="125.447008849"/>
     <use style="fill:#0000ff;stroke:#000000;stroke-width:0.5;" x="507.163125" xlink:href="#mcc23465707" y="56.9765786863"/>
     <use style="fill:#0000ff;stroke:#000000;stroke-width:0.5;" x="525.33375" xlink:href="#mcc23465707" y="211.603029658"/>
     <use style="fill:#0000ff;stroke:#000000;stroke-width:0.5;" x="534.4190625" xlink:href="#mcc23465707" y="196.042184088"/>
     <use style="fill:#0000ff;stroke:#000000;stroke-width:0.5;" x="543.504375" xlink:href="#mcc23465707" y="51.1474799897"/>
     <use style="fill:#0000ff;stroke:#000000;stroke-width:0.5;" x="561.675" xlink:href="#mcc23465707" y="51.5328621017"/>
     <use style="fill:#0000ff;stroke:#000000;stroke-width:0.5;" x="570.7603125" xlink:href="#mcc23465707" y="162.37509233"/>
     <use style="fill:#0000ff;stroke:#000000;stroke-width:0.5;" x="579.845625" xlink:href="#mcc23465707" y="216.635349287"/>
     <use style="fill:#0000ff;stroke:#000000;stroke-width:0.5;" x="588.9309375" xlink:href="#mcc23465707" y="88.0625855955"/>
     <use style="fill:#0000ff;stroke:#000000;stroke-width:0.5;" x="598.01625" xlink:href="#mcc23465707" y="197.876185281"/>
     <use style="fill:#0000ff;stroke:#000000;stroke-width:0.5;" x="607.1015625" xlink:href="#mcc23465707" y="57.1903149907"/>
     <use style="fill:#0000ff;stroke:#000000;stroke-width:0.5;" x="616.186875" xlink:href="#mcc23465707" y="114.030322742"/>
     <use style="fill:#0000ff;stroke:#000000;stroke-width:0.5;" x="634.3575" xlink:href="#mcc23465707" y="214.089085491"/>
     <use style="fill:#0000ff;stroke:#000000;stroke-width:0.5;" x="643.4428125" xlink:href="#mcc23465707" y="183.673287383"/>
     <use style="fill:#0000ff;stroke:#000000;stroke-width:0.5;" x="652.528125" xlink:href="#mcc23465707" y="229.758575856"/>
     <use style="fill:#0000ff;stroke:#000000;stroke-width:0.5;" x="661.6134375" xlink:href="#mcc23465707" y="193.592808112"/>
     <use style="fill:#0000ff;stroke:#000000;stroke-width:0.5;" x="670.69875" xlink:href="#mcc23465707" y="251.461027267"/>
     <use style="fill:#0000ff;stroke:#000000;stroke-width:0.5;" x="679.7840625" xlink:href="#mcc23465707" y="178.311185195"/>
     <use style="fill:#0000ff;stroke:#000000;stroke-width:0.5;" x="697.9546875" xlink:href="#mcc23465707" y="232.034910591"/>
     <use style="fill:#0000ff;stroke:#000000;stroke-width:0.5;" x="707.04" xlink:href="#mcc23465707" y="176.987893705"/>
    </g>
   </g>
   <g id="patch_3">
    <path d="M 52.8975 314.64 
L 52.8975 12.96 
" style="fill:none;stroke:#000000;stroke-linecap:square;stroke-linejoin:miter;"/>
   </g>
   <g id="patch_4">
    <path d="M 52.8975 314.64 
L 707.04 314.64 
" style="fill:none;stroke:#000000;stroke-linecap:square;stroke-linejoin:miter;"/>
   </g>
   <g id="patch_5">
    <path d="M 52.8975 12.96 
L 707.04 12.96 
" style="fill:none;stroke:#000000;stroke-linecap:square;stroke-linejoin:miter;"/>
   </g>
   <g id="patch_6">
    <path d="M 707.04 314.64 
L 707.04 12.96 
" style="fill:none;stroke:#000000;stroke-linecap:square;stroke-linejoin:miter;"/>
   </g>
   <g id="matplotlib.axis_1">
    <g id="xtick_1">
     <g id="line2d_3">
      <defs>
       <path d="M 0 0 
L 0 -4 
" id="ma384c3cabb" style="stroke:#000000;stroke-width:0.5;"/>
      </defs>
      <g>
       <use style="stroke:#000000;stroke-width:0.5;" x="125.58" xlink:href="#ma384c3cabb" y="314.64"/>
      </g>
     </g>
     <g id="line2d_4">
      <defs>
       <path d="M 0 0 
L 0 4 
" id="m629acc5942" style="stroke:#000000;stroke-width:0.5;"/>
      </defs>
      <g>
       <use style="stroke:#000000;stroke-width:0.5;" x="125.58" xlink:href="#m629acc5942" y="12.96"/>
      </g>
     </g>
     <g id="text_1">
      <!-- 10 -->
      <defs>
       <path d="M 12.40625 8.296875 
L 28.515625 8.296875 
L 28.515625 63.921875 
L 10.984375 60.40625 
L 10.984375 69.390625 
L 28.421875 72.90625 
L 38.28125 72.90625 
L 38.28125 8.296875 
L 54.390625 8.296875 
L 54.390625 0 
L 12.40625 0 
z
" id="BitstreamVeraSans-Roman-31"/>
       <path d="M 31.78125 66.40625 
Q 24.171875 66.40625 20.328125 58.90625 
Q 16.5 51.421875 16.5 36.375 
Q 16.5 21.390625 20.328125 13.890625 
Q 24.171875 6.390625 31.78125 6.390625 
Q 39.453125 6.390625 43.28125 13.890625 
Q 47.125 21.390625 47.125 36.375 
Q 47.125 51.421875 43.28125 58.90625 
Q 39.453125 66.40625 31.78125 66.40625 
M 31.78125 74.21875 
Q 44.046875 74.21875 50.515625 64.515625 
Q 56.984375 54.828125 56.984375 36.375 
Q 56.984375 17.96875 50.515625 8.265625 
Q 44.046875 -1.421875 31.78125 -1.421875 
Q 19.53125 -1.421875 13.0625 8.265625 
Q 6.59375 17.96875 6.59375 36.375 
Q 6.59375 54.828125 13.0625 64.515625 
Q 19.53125 74.21875 31.78125 74.21875 
" id="BitstreamVeraSans-Roman-30"/>
      </defs>
      <g transform="translate(117.945 327.758125)scale(0.12 -0.12)">
       <use xlink:href="#BitstreamVeraSans-Roman-31"/>
       <use x="63.623046875" xlink:href="#BitstreamVeraSans-Roman-30"/>
      </g>
     </g>
    </g>
    <g id="xtick_2">
     <g id="line2d_5">
      <g>
       <use style="stroke:#000000;stroke-width:0.5;" x="216.433125" xlink:href="#ma384c3cabb" y="314.64"/>
      </g>
     </g>
     <g id="line2d_6">
      <g>
       <use style="stroke:#000000;stroke-width:0.5;" x="216.433125" xlink:href="#m629acc5942" y="12.96"/>
      </g>
     </g>
     <g id="text_2">
      <!-- 20 -->
      <defs>
       <path d="M 19.1875 8.296875 
L 53.609375 8.296875 
L 53.609375 0 
L 7.328125 0 
L 7.328125 8.296875 
Q 12.9375 14.109375 22.625 23.890625 
Q 32.328125 33.6875 34.8125 36.53125 
Q 39.546875 41.84375 41.421875 45.53125 
Q 43.3125 49.21875 43.3125 52.78125 
Q 43.3125 58.59375 39.234375 62.25 
Q 35.15625 65.921875 28.609375 65.921875 
Q 23.96875 65.921875 18.8125 64.3125 
Q 13.671875 62.703125 7.8125 59.421875 
L 7.8125 69.390625 
Q 13.765625 71.78125 18.9375 73 
Q 24.125 74.21875 28.421875 74.21875 
Q 39.75 74.21875 46.484375 68.546875 
Q 53.21875 62.890625 53.21875 53.421875 
Q 53.21875 48.921875 51.53125 44.890625 
Q 49.859375 40.875 45.40625 35.40625 
Q 44.1875 33.984375 37.640625 27.21875 
Q 31.109375 20.453125 19.1875 8.296875 
" id="BitstreamVeraSans-Roman-32"/>
      </defs>
      <g transform="translate(208.798125 327.758125)scale(0.12 -0.12)">
       <use xlink:href="#BitstreamVeraSans-Roman-32"/>
       <use x="63.623046875" xlink:href="#BitstreamVeraSans-Roman-30"/>
      </g>
     </g>
    </g>
    <g id="xtick_3">
     <g id="line2d_7">
      <g>
       <use style="stroke:#000000;stroke-width:0.5;" x="307.28625" xlink:href="#ma384c3cabb" y="314.64"/>
      </g>
     </g>
     <g id="line2d_8">
      <g>
       <use style="stroke:#000000;stroke-width:0.5;" x="307.28625" xlink:href="#m629acc5942" y="12.96"/>
      </g>
     </g>
     <g id="text_3">
      <!-- 30 -->
      <defs>
       <path d="M 40.578125 39.3125 
Q 47.65625 37.796875 51.625 33 
Q 55.609375 28.21875 55.609375 21.1875 
Q 55.609375 10.40625 48.1875 4.484375 
Q 40.765625 -1.421875 27.09375 -1.421875 
Q 22.515625 -1.421875 17.65625 -0.515625 
Q 12.796875 0.390625 7.625 2.203125 
L 7.625 11.71875 
Q 11.71875 9.328125 16.59375 8.109375 
Q 21.484375 6.890625 26.8125 6.890625 
Q 36.078125 6.890625 40.9375 10.546875 
Q 45.796875 14.203125 45.796875 21.1875 
Q 45.796875 27.640625 41.28125 31.265625 
Q 36.765625 34.90625 28.71875 34.90625 
L 20.21875 34.90625 
L 20.21875 43.015625 
L 29.109375 43.015625 
Q 36.375 43.015625 40.234375 45.921875 
Q 44.09375 48.828125 44.09375 54.296875 
Q 44.09375 59.90625 40.109375 62.90625 
Q 36.140625 65.921875 28.71875 65.921875 
Q 24.65625 65.921875 20.015625 65.03125 
Q 15.375 64.15625 9.8125 62.3125 
L 9.8125 71.09375 
Q 15.4375 72.65625 20.34375 73.4375 
Q 25.25 74.21875 29.59375 74.21875 
Q 40.828125 74.21875 47.359375 69.109375 
Q 53.90625 64.015625 53.90625 55.328125 
Q 53.90625 49.265625 50.4375 45.09375 
Q 46.96875 40.921875 40.578125 39.3125 
" id="BitstreamVeraSans-Roman-33"/>
      </defs>
      <g transform="translate(299.65125 327.758125)scale(0.12 -0.12)">
       <use xlink:href="#BitstreamVeraSans-Roman-33"/>
       <use x="63.623046875" xlink:href="#BitstreamVeraSans-Roman-30"/>
      </g>
     </g>
    </g>
    <g id="xtick_4">
     <g id="line2d_9">
      <g>
       <use style="stroke:#000000;stroke-width:0.5;" x="398.139375" xlink:href="#ma384c3cabb" y="314.64"/>
      </g>
     </g>
     <g id="line2d_10">
      <g>
       <use style="stroke:#000000;stroke-width:0.5;" x="398.139375" xlink:href="#m629acc5942" y="12.96"/>
      </g>
     </g>
     <g id="text_4">
      <!-- 40 -->
      <defs>
       <path d="M 37.796875 64.3125 
L 12.890625 25.390625 
L 37.796875 25.390625 
z
M 35.203125 72.90625 
L 47.609375 72.90625 
L 47.609375 25.390625 
L 58.015625 25.390625 
L 58.015625 17.1875 
L 47.609375 17.1875 
L 47.609375 0 
L 37.796875 0 
L 37.796875 17.1875 
L 4.890625 17.1875 
L 4.890625 26.703125 
z
" id="BitstreamVeraSans-Roman-34"/>
      </defs>
      <g transform="translate(390.504375 327.758125)scale(0.12 -0.12)">
       <use xlink:href="#BitstreamVeraSans-Roman-34"/>
       <use x="63.623046875" xlink:href="#BitstreamVeraSans-Roman-30"/>
      </g>
     </g>
    </g>
    <g id="xtick_5">
     <g id="line2d_11">
      <g>
       <use style="stroke:#000000;stroke-width:0.5;" x="488.9925" xlink:href="#ma384c3cabb" y="314.64"/>
      </g>
     </g>
     <g id="line2d_12">
      <g>
       <use style="stroke:#000000;stroke-width:0.5;" x="488.9925" xlink:href="#m629acc5942" y="12.96"/>
      </g>
     </g>
     <g id="text_5">
      <!-- 50 -->
      <defs>
       <path d="M 10.796875 72.90625 
L 49.515625 72.90625 
L 49.515625 64.59375 
L 19.828125 64.59375 
L 19.828125 46.734375 
Q 21.96875 47.46875 24.109375 47.828125 
Q 26.265625 48.1875 28.421875 48.1875 
Q 40.625 48.1875 47.75 41.5 
Q 54.890625 34.8125 54.890625 23.390625 
Q 54.890625 11.625 47.5625 5.09375 
Q 40.234375 -1.421875 26.90625 -1.421875 
Q 22.3125 -1.421875 17.546875 -0.640625 
Q 12.796875 0.140625 7.71875 1.703125 
L 7.71875 11.625 
Q 12.109375 9.234375 16.796875 8.0625 
Q 21.484375 6.890625 26.703125 6.890625 
Q 35.15625 6.890625 40.078125 11.328125 
Q 45.015625 15.765625 45.015625 23.390625 
Q 45.015625 31 40.078125 35.4375 
Q 35.15625 39.890625 26.703125 39.890625 
Q 22.75 39.890625 18.8125 39.015625 
Q 14.890625 38.140625 10.796875 36.28125 
z
" id="BitstreamVeraSans-Roman-35"/>
      </defs>
      <g transform="translate(481.3575 327.758125)scale(0.12 -0.12)">
       <use xlink:href="#BitstreamVeraSans-Roman-35"/>
       <use x="63.623046875" xlink:href="#BitstreamVeraSans-Roman-30"/>
      </g>
     </g>
    </g>
    <g id="xtick_6">
     <g id="line2d_13">
      <g>
       <use style="stroke:#000000;stroke-width:0.5;" x="579.845625" xlink:href="#ma384c3cabb" y="314.64"/>
      </g>
     </g>
     <g id="line2d_14">
      <g>
       <use style="stroke:#000000;stroke-width:0.5;" x="579.845625" xlink:href="#m629acc5942" y="12.96"/>
      </g>
     </g>
     <g id="text_6">
      <!-- 60 -->
      <defs>
       <path d="M 33.015625 40.375 
Q 26.375 40.375 22.484375 35.828125 
Q 18.609375 31.296875 18.609375 23.390625 
Q 18.609375 15.53125 22.484375 10.953125 
Q 26.375 6.390625 33.015625 6.390625 
Q 39.65625 6.390625 43.53125 10.953125 
Q 47.40625 15.53125 47.40625 23.390625 
Q 47.40625 31.296875 43.53125 35.828125 
Q 39.65625 40.375 33.015625 40.375 
M 52.59375 71.296875 
L 52.59375 62.3125 
Q 48.875 64.0625 45.09375 64.984375 
Q 41.3125 65.921875 37.59375 65.921875 
Q 27.828125 65.921875 22.671875 59.328125 
Q 17.53125 52.734375 16.796875 39.40625 
Q 19.671875 43.65625 24.015625 45.921875 
Q 28.375 48.1875 33.59375 48.1875 
Q 44.578125 48.1875 50.953125 41.515625 
Q 57.328125 34.859375 57.328125 23.390625 
Q 57.328125 12.15625 50.6875 5.359375 
Q 44.046875 -1.421875 33.015625 -1.421875 
Q 20.359375 -1.421875 13.671875 8.265625 
Q 6.984375 17.96875 6.984375 36.375 
Q 6.984375 53.65625 15.1875 63.9375 
Q 23.390625 74.21875 37.203125 74.21875 
Q 40.921875 74.21875 44.703125 73.484375 
Q 48.484375 72.75 52.59375 71.296875 
" id="BitstreamVeraSans-Roman-36"/>
      </defs>
      <g transform="translate(572.210625 327.758125)scale(0.12 -0.12)">
       <use xlink:href="#BitstreamVeraSans-Roman-36"/>
       <use x="63.623046875" xlink:href="#BitstreamVeraSans-Roman-30"/>
      </g>
     </g>
    </g>
    <g id="xtick_7">
     <g id="line2d_15">
      <g>
       <use style="stroke:#000000;stroke-width:0.5;" x="670.69875" xlink:href="#ma384c3cabb" y="314.64"/>
      </g>
     </g>
     <g id="line2d_16">
      <g>
       <use style="stroke:#000000;stroke-width:0.5;" x="670.69875" xlink:href="#m629acc5942" y="12.96"/>
      </g>
     </g>
     <g id="text_7">
      <!-- 70 -->
      <defs>
       <path d="M 8.203125 72.90625 
L 55.078125 72.90625 
L 55.078125 68.703125 
L 28.609375 0 
L 18.3125 0 
L 43.21875 64.59375 
L 8.203125 64.59375 
z
" id="BitstreamVeraSans-Roman-37"/>
      </defs>
      <g transform="translate(663.06375 327.758125)scale(0.12 -0.12)">
       <use xlink:href="#BitstreamVeraSans-Roman-37"/>
       <use x="63.623046875" xlink:href="#BitstreamVeraSans-Roman-30"/>
      </g>
     </g>
    </g>
    <g id="text_8">
     <!-- residue number -->
     <defs>
      <path d="M 48.6875 27.296875 
Q 48.6875 37.203125 44.609375 42.84375 
Q 40.53125 48.484375 33.40625 48.484375 
Q 26.265625 48.484375 22.1875 42.84375 
Q 18.109375 37.203125 18.109375 27.296875 
Q 18.109375 17.390625 22.1875 11.75 
Q 26.265625 6.109375 33.40625 6.109375 
Q 40.53125 6.109375 44.609375 11.75 
Q 48.6875 17.390625 48.6875 27.296875 
M 18.109375 46.390625 
Q 20.953125 51.265625 25.265625 53.625 
Q 29.59375 56 35.59375 56 
Q 45.5625 56 51.78125 48.09375 
Q 58.015625 40.1875 58.015625 27.296875 
Q 58.015625 14.40625 51.78125 6.484375 
Q 45.5625 -1.421875 35.59375 -1.421875 
Q 29.59375 -1.421875 25.265625 0.953125 
Q 20.953125 3.328125 18.109375 8.203125 
L 18.109375 0 
L 9.078125 0 
L 9.078125 75.984375 
L 18.109375 75.984375 
z
" id="BitstreamVeraSans-Roman-62"/>
      <path d="M 9.421875 54.6875 
L 18.40625 54.6875 
L 18.40625 0 
L 9.421875 0 
z
M 9.421875 75.984375 
L 18.40625 75.984375 
L 18.40625 64.59375 
L 9.421875 64.59375 
z
" id="BitstreamVeraSans-Roman-69"/>
      <path d="M 45.40625 46.390625 
L 45.40625 75.984375 
L 54.390625 75.984375 
L 54.390625 0 
L 45.40625 0 
L 45.40625 8.203125 
Q 42.578125 3.328125 38.25 0.953125 
Q 33.9375 -1.421875 27.875 -1.421875 
Q 17.96875 -1.421875 11.734375 6.484375 
Q 5.515625 14.40625 5.515625 27.296875 
Q 5.515625 40.1875 11.734375 48.09375 
Q 17.96875 56 27.875 56 
Q 33.9375 56 38.25 53.625 
Q 42.578125 51.265625 45.40625 46.390625 
M 14.796875 27.296875 
Q 14.796875 17.390625 18.875 11.75 
Q 22.953125 6.109375 30.078125 6.109375 
Q 37.203125 6.109375 41.296875 11.75 
Q 45.40625 17.390625 45.40625 27.296875 
Q 45.40625 37.203125 41.296875 42.84375 
Q 37.203125 48.484375 30.078125 48.484375 
Q 22.953125 48.484375 18.875 42.84375 
Q 14.796875 37.203125 14.796875 27.296875 
" id="BitstreamVeraSans-Roman-64"/>
      <path id="BitstreamVeraSans-Roman-20"/>
      <path d="M 56.203125 29.59375 
L 56.203125 25.203125 
L 14.890625 25.203125 
Q 15.484375 15.921875 20.484375 11.0625 
Q 25.484375 6.203125 34.421875 6.203125 
Q 39.59375 6.203125 44.453125 7.46875 
Q 49.3125 8.734375 54.109375 11.28125 
L 54.109375 2.78125 
Q 49.265625 0.734375 44.1875 -0.34375 
Q 39.109375 -1.421875 33.890625 -1.421875 
Q 20.796875 -1.421875 13.15625 6.1875 
Q 5.515625 13.8125 5.515625 26.8125 
Q 5.515625 40.234375 12.765625 48.109375 
Q 20.015625 56 32.328125 56 
Q 43.359375 56 49.78125 48.890625 
Q 56.203125 41.796875 56.203125 29.59375 
M 47.21875 32.234375 
Q 47.125 39.59375 43.09375 43.984375 
Q 39.0625 48.390625 32.421875 48.390625 
Q 24.90625 48.390625 20.390625 44.140625 
Q 15.875 39.890625 15.1875 32.171875 
z
" id="BitstreamVeraSans-Roman-65"/>
      <path d="M 41.109375 46.296875 
Q 39.59375 47.171875 37.8125 47.578125 
Q 36.03125 48 33.890625 48 
Q 26.265625 48 22.1875 43.046875 
Q 18.109375 38.09375 18.109375 28.8125 
L 18.109375 0 
L 9.078125 0 
L 9.078125 54.6875 
L 18.109375 54.6875 
L 18.109375 46.1875 
Q 20.953125 51.171875 25.484375 53.578125 
Q 30.03125 56 36.53125 56 
Q 37.453125 56 38.578125 55.875 
Q 39.703125 55.765625 41.0625 55.515625 
z
" id="BitstreamVeraSans-Roman-72"/>
      <path d="M 52 44.1875 
Q 55.375 50.25 60.0625 53.125 
Q 64.75 56 71.09375 56 
Q 79.640625 56 84.28125 50.015625 
Q 88.921875 44.046875 88.921875 33.015625 
L 88.921875 0 
L 79.890625 0 
L 79.890625 32.71875 
Q 79.890625 40.578125 77.09375 44.375 
Q 74.3125 48.1875 68.609375 48.1875 
Q 61.625 48.1875 57.5625 43.546875 
Q 53.515625 38.921875 53.515625 30.90625 
L 53.515625 0 
L 44.484375 0 
L 44.484375 32.71875 
Q 44.484375 40.625 41.703125 44.40625 
Q 38.921875 48.1875 33.109375 48.1875 
Q 26.21875 48.1875 22.15625 43.53125 
Q 18.109375 38.875 18.109375 30.90625 
L 18.109375 0 
L 9.078125 0 
L 9.078125 54.6875 
L 18.109375 54.6875 
L 18.109375 46.1875 
Q 21.1875 51.21875 25.484375 53.609375 
Q 29.78125 56 35.6875 56 
Q 41.65625 56 45.828125 52.96875 
Q 50 49.953125 52 44.1875 
" id="BitstreamVeraSans-Roman-6d"/>
      <path d="M 44.28125 53.078125 
L 44.28125 44.578125 
Q 40.484375 46.53125 36.375 47.5 
Q 32.28125 48.484375 27.875 48.484375 
Q 21.1875 48.484375 17.84375 46.4375 
Q 14.5 44.390625 14.5 40.28125 
Q 14.5 37.15625 16.890625 35.375 
Q 19.28125 33.59375 26.515625 31.984375 
L 29.59375 31.296875 
Q 39.15625 29.25 43.1875 25.515625 
Q 47.21875 21.78125 47.21875 15.09375 
Q 47.21875 7.46875 41.1875 3.015625 
Q 35.15625 -1.421875 24.609375 -1.421875 
Q 20.21875 -1.421875 15.453125 -0.5625 
Q 10.6875 0.296875 5.421875 2 
L 5.421875 11.28125 
Q 10.40625 8.6875 15.234375 7.390625 
Q 20.0625 6.109375 24.8125 6.109375 
Q 31.15625 6.109375 34.5625 8.28125 
Q 37.984375 10.453125 37.984375 14.40625 
Q 37.984375 18.0625 35.515625 20.015625 
Q 33.0625 21.96875 24.703125 23.78125 
L 21.578125 24.515625 
Q 13.234375 26.265625 9.515625 29.90625 
Q 5.8125 33.546875 5.8125 39.890625 
Q 5.8125 47.609375 11.28125 51.796875 
Q 16.75 56 26.8125 56 
Q 31.78125 56 36.171875 55.265625 
Q 40.578125 54.546875 44.28125 53.078125 
" id="BitstreamVeraSans-Roman-73"/>
      <path d="M 8.5 21.578125 
L 8.5 54.6875 
L 17.484375 54.6875 
L 17.484375 21.921875 
Q 17.484375 14.15625 20.5 10.265625 
Q 23.53125 6.390625 29.59375 6.390625 
Q 36.859375 6.390625 41.078125 11.03125 
Q 45.3125 15.671875 45.3125 23.6875 
L 45.3125 54.6875 
L 54.296875 54.6875 
L 54.296875 0 
L 45.3125 0 
L 45.3125 8.40625 
Q 42.046875 3.421875 37.71875 1 
Q 33.40625 -1.421875 27.6875 -1.421875 
Q 18.265625 -1.421875 13.375 4.4375 
Q 8.5 10.296875 8.5 21.578125 
" id="BitstreamVeraSans-Roman-75"/>
      <path d="M 54.890625 33.015625 
L 54.890625 0 
L 45.90625 0 
L 45.90625 32.71875 
Q 45.90625 40.484375 42.875 44.328125 
Q 39.84375 48.1875 33.796875 48.1875 
Q 26.515625 48.1875 22.3125 43.546875 
Q 18.109375 38.921875 18.109375 30.90625 
L 18.109375 0 
L 9.078125 0 
L 9.078125 54.6875 
L 18.109375 54.6875 
L 18.109375 46.1875 
Q 21.34375 51.125 25.703125 53.5625 
Q 30.078125 56 35.796875 56 
Q 45.21875 56 50.046875 50.171875 
Q 54.890625 44.34375 54.890625 33.015625 
" id="BitstreamVeraSans-Roman-6e"/>
     </defs>
     <g transform="translate(332.3925 344.371875)scale(0.12 -0.12)">
      <use xlink:href="#BitstreamVeraSans-Roman-72"/>
      <use x="41.08203125" xlink:href="#BitstreamVeraSans-Roman-65"/>
      <use x="102.60546875" xlink:href="#BitstreamVeraSans-Roman-73"/>
      <use x="154.705078125" xlink:href="#BitstreamVeraSans-Roman-69"/>
      <use x="182.48828125" xlink:href="#BitstreamVeraSans-Roman-64"/>
      <use x="245.96484375" xlink:href="#BitstreamVeraSans-Roman-75"/>
      <use x="309.34375" xlink:href="#BitstreamVeraSans-Roman-65"/>
      <use x="370.8671875" xlink:href="#BitstreamVeraSans-Roman-20"/>
      <use x="402.654296875" xlink:href="#BitstreamVeraSans-Roman-6e"/>
      <use x="466.033203125" xlink:href="#BitstreamVeraSans-Roman-75"/>
      <use x="529.412109375" xlink:href="#BitstreamVeraSans-Roman-6d"/>
      <use x="626.82421875" xlink:href="#BitstreamVeraSans-Roman-62"/>
      <use x="690.30078125" xlink:href="#BitstreamVeraSans-Roman-65"/>
      <use x="751.82421875" xlink:href="#BitstreamVeraSans-Roman-72"/>
     </g>
    </g>
   </g>
   <g id="matplotlib.axis_2">
    <g id="ytick_1">
     <g id="line2d_17">
      <path clip-path="url(#p108f893e6e)" d="M 52.8975 291.727595 
L 707.04 291.727595 
" style="fill:none;stroke:#000000;stroke-dasharray:1.000000,3.000000;stroke-dashoffset:0.0;stroke-width:0.5;"/>
     </g>
     <g id="line2d_18">
      <defs>
       <path d="M 0 0 
L 4 0 
" id="m849f5f85bf" style="stroke:#000000;stroke-width:0.5;"/>
      </defs>
      <g>
       <use style="stroke:#000000;stroke-width:0.5;" x="52.8975" xlink:href="#m849f5f85bf" y="291.727594937"/>
      </g>
     </g>
     <g id="line2d_19">
      <defs>
       <path d="M 0 0 
L -4 0 
" id="me43c27150a" style="stroke:#000000;stroke-width:0.5;"/>
      </defs>
      <g>
       <use style="stroke:#000000;stroke-width:0.5;" x="707.04" xlink:href="#me43c27150a" y="291.727594937"/>
      </g>
     </g>
     <g id="text_9">
      <!-- 0.0 -->
      <defs>
       <path d="M 10.6875 12.40625 
L 21 12.40625 
L 21 0 
L 10.6875 0 
z
" id="BitstreamVeraSans-Roman-2e"/>
      </defs>
      <g transform="translate(29.81375 295.038844937)scale(0.12 -0.12)">
       <use xlink:href="#BitstreamVeraSans-Roman-30"/>
       <use x="63.623046875" xlink:href="#BitstreamVeraSans-Roman-2e"/>
       <use x="95.41015625" xlink:href="#BitstreamVeraSans-Roman-30"/>
      </g>
     </g>
    </g>
    <g id="ytick_2">
     <g id="line2d_20">
      <path clip-path="url(#p108f893e6e)" d="M 52.8975 243.993418 
L 707.04 243.993418 
" style="fill:none;stroke:#000000;stroke-dasharray:1.000000,3.000000;stroke-dashoffset:0.0;stroke-width:0.5;"/>
     </g>
     <g id="line2d_21">
      <g>
       <use style="stroke:#000000;stroke-width:0.5;" x="52.8975" xlink:href="#m849f5f85bf" y="243.993417722"/>
      </g>
     </g>
     <g id="line2d_22">
      <g>
       <use style="stroke:#000000;stroke-width:0.5;" x="707.04" xlink:href="#me43c27150a" y="243.993417722"/>
      </g>
     </g>
     <g id="text_10">
      <!-- 0.5 -->
      <g transform="translate(29.81375 247.304667722)scale(0.12 -0.12)">
       <use xlink:href="#BitstreamVeraSans-Roman-30"/>
       <use x="63.623046875" xlink:href="#BitstreamVeraSans-Roman-2e"/>
       <use x="95.41015625" xlink:href="#BitstreamVeraSans-Roman-35"/>
      </g>
     </g>
    </g>
    <g id="ytick_3">
     <g id="line2d_23">
      <path clip-path="url(#p108f893e6e)" d="M 52.8975 196.259241 
L 707.04 196.259241 
" style="fill:none;stroke:#000000;stroke-dasharray:1.000000,3.000000;stroke-dashoffset:0.0;stroke-width:0.5;"/>
     </g>
     <g id="line2d_24">
      <g>
       <use style="stroke:#000000;stroke-width:0.5;" x="52.8975" xlink:href="#m849f5f85bf" y="196.259240506"/>
      </g>
     </g>
     <g id="line2d_25">
      <g>
       <use style="stroke:#000000;stroke-width:0.5;" x="707.04" xlink:href="#me43c27150a" y="196.259240506"/>
      </g>
     </g>
     <g id="text_11">
      <!-- 1.0 -->
      <g transform="translate(29.81375 199.570490506)scale(0.12 -0.12)">
       <use xlink:href="#BitstreamVeraSans-Roman-31"/>
       <use x="63.623046875" xlink:href="#BitstreamVeraSans-Roman-2e"/>
       <use x="95.41015625" xlink:href="#BitstreamVeraSans-Roman-30"/>
      </g>
     </g>
    </g>
    <g id="ytick_4">
     <g id="line2d_26">
      <path clip-path="url(#p108f893e6e)" d="M 52.8975 148.525063 
L 707.04 148.525063 
" style="fill:none;stroke:#000000;stroke-dasharray:1.000000,3.000000;stroke-dashoffset:0.0;stroke-width:0.5;"/>
     </g>
     <g id="line2d_27">
      <g>
       <use style="stroke:#000000;stroke-width:0.5;" x="52.8975" xlink:href="#m849f5f85bf" y="148.525063291"/>
      </g>
     </g>
     <g id="line2d_28">
      <g>
       <use style="stroke:#000000;stroke-width:0.5;" x="707.04" xlink:href="#me43c27150a" y="148.525063291"/>
      </g>
     </g>
     <g id="text_12">
      <!-- 1.5 -->
      <g transform="translate(29.81375 151.836313291)scale(0.12 -0.12)">
       <use xlink:href="#BitstreamVeraSans-Roman-31"/>
       <use x="63.623046875" xlink:href="#BitstreamVeraSans-Roman-2e"/>
       <use x="95.41015625" xlink:href="#BitstreamVeraSans-Roman-35"/>
      </g>
     </g>
    </g>
    <g id="ytick_5">
     <g id="line2d_29">
      <path clip-path="url(#p108f893e6e)" d="M 52.8975 100.790886 
L 707.04 100.790886 
" style="fill:none;stroke:#000000;stroke-dasharray:1.000000,3.000000;stroke-dashoffset:0.0;stroke-width:0.5;"/>
     </g>
     <g id="line2d_30">
      <g>
       <use style="stroke:#000000;stroke-width:0.5;" x="52.8975" xlink:href="#m849f5f85bf" y="100.790886076"/>
      </g>
     </g>
     <g id="line2d_31">
      <g>
       <use style="stroke:#000000;stroke-width:0.5;" x="707.04" xlink:href="#me43c27150a" y="100.790886076"/>
      </g>
     </g>
     <g id="text_13">
      <!-- 2.0 -->
      <g transform="translate(29.81375 104.102136076)scale(0.12 -0.12)">
       <use xlink:href="#BitstreamVeraSans-Roman-32"/>
       <use x="63.623046875" xlink:href="#BitstreamVeraSans-Roman-2e"/>
       <use x="95.41015625" xlink:href="#BitstreamVeraSans-Roman-30"/>
      </g>
     </g>
    </g>
    <g id="ytick_6">
     <g id="line2d_32">
      <path clip-path="url(#p108f893e6e)" d="M 52.8975 53.056709 
L 707.04 53.056709 
" style="fill:none;stroke:#000000;stroke-dasharray:1.000000,3.000000;stroke-dashoffset:0.0;stroke-width:0.5;"/>
     </g>
     <g id="line2d_33">
      <g>
       <use style="stroke:#000000;stroke-width:0.5;" x="52.8975" xlink:href="#m849f5f85bf" y="53.0567088608"/>
      </g>
     </g>
     <g id="line2d_34">
      <g>
       <use style="stroke:#000000;stroke-width:0.5;" x="707.04" xlink:href="#me43c27150a" y="53.0567088608"/>
      </g>
     </g>
     <g id="text_14">
      <!-- 2.5 -->
      <g transform="translate(29.81375 56.3679588608)scale(0.12 -0.12)">
       <use xlink:href="#BitstreamVeraSans-Roman-32"/>
       <use x="63.623046875" xlink:href="#BitstreamVeraSans-Roman-2e"/>
       <use x="95.41015625" xlink:href="#BitstreamVeraSans-Roman-35"/>
      </g>
     </g>
    </g>
    <g id="text_15">
     <!-- value -->
     <defs>
      <path d="M 2.984375 54.6875 
L 12.5 54.6875 
L 29.59375 8.796875 
L 46.6875 54.6875 
L 56.203125 54.6875 
L 35.6875 0 
L 23.484375 0 
z
" id="BitstreamVeraSans-Roman-76"/>
      <path d="M 9.421875 75.984375 
L 18.40625 75.984375 
L 18.40625 0 
L 9.421875 0 
z
" id="BitstreamVeraSans-Roman-6c"/>
      <path d="M 34.28125 27.484375 
Q 23.390625 27.484375 19.1875 25 
Q 14.984375 22.515625 14.984375 16.5 
Q 14.984375 11.71875 18.140625 8.90625 
Q 21.296875 6.109375 26.703125 6.109375 
Q 34.1875 6.109375 38.703125 11.40625 
Q 43.21875 16.703125 43.21875 25.484375 
L 43.21875 27.484375 
z
M 52.203125 31.203125 
L 52.203125 0 
L 43.21875 0 
L 43.21875 8.296875 
Q 40.140625 3.328125 35.546875 0.953125 
Q 30.953125 -1.421875 24.3125 -1.421875 
Q 15.921875 -1.421875 10.953125 3.296875 
Q 6 8.015625 6 15.921875 
Q 6 25.140625 12.171875 29.828125 
Q 18.359375 34.515625 30.609375 34.515625 
L 43.21875 34.515625 
L 43.21875 35.40625 
Q 43.21875 41.609375 39.140625 45 
Q 35.0625 48.390625 27.6875 48.390625 
Q 23 48.390625 18.546875 47.265625 
Q 14.109375 46.140625 10.015625 43.890625 
L 10.015625 52.203125 
Q 14.9375 54.109375 19.578125 55.046875 
Q 24.21875 56 28.609375 56 
Q 40.484375 56 46.34375 49.84375 
Q 52.203125 43.703125 52.203125 31.203125 
" id="BitstreamVeraSans-Roman-61"/>
     </defs>
     <g transform="translate(22.318125 180.189375)rotate(-90.0)scale(0.12 -0.12)">
      <use xlink:href="#BitstreamVeraSans-Roman-76"/>
      <use x="59.1796875" xlink:href="#BitstreamVeraSans-Roman-61"/>
      <use x="120.458984375" xlink:href="#BitstreamVeraSans-Roman-6c"/>
      <use x="148.2421875" xlink:href="#BitstreamVeraSans-Roman-75"/>
      <use x="211.62109375" xlink:href="#BitstreamVeraSans-Roman-65"/>
     </g>
    </g>
   </g>
   <g id="legend_1">
    <g id="patch_7">
     <path d="M 60.0975 307.44 
L 140.598 307.44 
L 140.598 260.847 
L 60.0975 260.847 
z
" style="fill:#ffffff;stroke:#000000;stroke-linejoin:miter;"/>
    </g>
    <g id="line2d_35">
     <path d="M 70.1775 272.50875 
L 90.3375 272.50875 
" style="fill:none;stroke:#ff0000;stroke-linecap:square;stroke-width:2.0;"/>
    </g>
    <g id="line2d_36">
     <g>
      <use style="fill:#ff0000;stroke:#000000;stroke-width:0.5;" x="70.1775" xlink:href="#m40cbc69464" y="272.50875"/>
      <use style="fill:#ff0000;stroke:#000000;stroke-width:0.5;" x="90.3375" xlink:href="#m40cbc69464" y="272.50875"/>
     </g>
    </g>
    <g id="text_16">
     <!-- exp -->
     <defs>
      <path d="M 18.109375 8.203125 
L 18.109375 -20.796875 
L 9.078125 -20.796875 
L 9.078125 54.6875 
L 18.109375 54.6875 
L 18.109375 46.390625 
Q 20.953125 51.265625 25.265625 53.625 
Q 29.59375 56 35.59375 56 
Q 45.5625 56 51.78125 48.09375 
Q 58.015625 40.1875 58.015625 27.296875 
Q 58.015625 14.40625 51.78125 6.484375 
Q 45.5625 -1.421875 35.59375 -1.421875 
Q 29.59375 -1.421875 25.265625 0.953125 
Q 20.953125 3.328125 18.109375 8.203125 
M 48.6875 27.296875 
Q 48.6875 37.203125 44.609375 42.84375 
Q 40.53125 48.484375 33.40625 48.484375 
Q 26.265625 48.484375 22.1875 42.84375 
Q 18.109375 37.203125 18.109375 27.296875 
Q 18.109375 17.390625 22.1875 11.75 
Q 26.265625 6.109375 33.40625 6.109375 
Q 40.53125 6.109375 44.609375 11.75 
Q 48.6875 17.390625 48.6875 27.296875 
" id="BitstreamVeraSans-Roman-70"/>
      <path d="M 54.890625 54.6875 
L 35.109375 28.078125 
L 55.90625 0 
L 45.3125 0 
L 29.390625 21.484375 
L 13.484375 0 
L 2.875 0 
L 24.125 28.609375 
L 4.6875 54.6875 
L 15.28125 54.6875 
L 29.78125 35.203125 
L 44.28125 54.6875 
z
" id="BitstreamVeraSans-Roman-78"/>
     </defs>
     <g transform="translate(106.1775 277.54875)scale(0.144 -0.144)">
      <use xlink:href="#BitstreamVeraSans-Roman-65"/>
      <use x="61.5078125" xlink:href="#BitstreamVeraSans-Roman-78"/>
      <use x="120.6875" xlink:href="#BitstreamVeraSans-Roman-70"/>
     </g>
    </g>
    <g id="line2d_37">
     <path d="M 70.1775 293.64525 
L 90.3375 293.64525 
" style="fill:none;stroke:#0000ff;stroke-linecap:square;stroke-width:2.0;"/>
    </g>
    <g id="line2d_38">
     <g>
      <use style="fill:#0000ff;stroke:#000000;stroke-width:0.5;" x="70.1775" xlink:href="#mcc23465707" y="293.64525"/>
      <use style="fill:#0000ff;stroke:#000000;stroke-width:0.5;" x="90.3375" xlink:href="#mcc23465707" y="293.64525"/>
     </g>
    </g>
    <g id="text_17">
     <!-- calc -->
     <defs>
      <path d="M 48.78125 52.59375 
L 48.78125 44.1875 
Q 44.96875 46.296875 41.140625 47.34375 
Q 37.3125 48.390625 33.40625 48.390625 
Q 24.65625 48.390625 19.8125 42.84375 
Q 14.984375 37.3125 14.984375 27.296875 
Q 14.984375 17.28125 19.8125 11.734375 
Q 24.65625 6.203125 33.40625 6.203125 
Q 37.3125 6.203125 41.140625 7.25 
Q 44.96875 8.296875 48.78125 10.40625 
L 48.78125 2.09375 
Q 45.015625 0.34375 40.984375 -0.53125 
Q 36.96875 -1.421875 32.421875 -1.421875 
Q 20.0625 -1.421875 12.78125 6.34375 
Q 5.515625 14.109375 5.515625 27.296875 
Q 5.515625 40.671875 12.859375 48.328125 
Q 20.21875 56 33.015625 56 
Q 37.15625 56 41.109375 55.140625 
Q 45.0625 54.296875 48.78125 52.59375 
" id="BitstreamVeraSans-Roman-63"/>
     </defs>
     <g transform="translate(106.1775 298.68525)scale(0.144 -0.144)">
      <use xlink:href="#BitstreamVeraSans-Roman-63"/>
      <use x="54.98046875" xlink:href="#BitstreamVeraSans-Roman-61"/>
      <use x="116.259765625" xlink:href="#BitstreamVeraSans-Roman-6c"/>
      <use x="144.04296875" xlink:href="#BitstreamVeraSans-Roman-63"/>
     </g>
    </g>
   </g>
  </g>
 </g>
 <defs>
  <clipPath id="p108f893e6e">
   <rect height="301.68" width="654.1425" x="52.8975" y="12.96"/>
  </clipPath>
 </defs>
</svg>
