<?xml version="1.0" encoding="utf-8" standalone="no"?>
<!DOCTYPE svg PUBLIC "-//W3C//DTD SVG 1.1//EN"
  "http://www.w3.org/Graphics/SVG/1.1/DTD/svg11.dtd">
<!-- Created with matplotlib (http://matplotlib.org/) -->
<svg height="360pt" version="1.1" viewBox="0 0 720 360" width="720pt" xmlns="http://www.w3.org/2000/svg" xmlns:xlink="http://www.w3.org/1999/xlink">
 <defs>
  <style type="text/css">
*{stroke-linecap:butt;stroke-linejoin:round;stroke-miterlimit:100000;}
  </style>
 </defs>
 <g id="figure_1">
  <g id="patch_1">
   <path d="M 0 360 
L 720 360 
L 720 0 
L 0 0 
z
" style="fill:#ffffff;"/>
  </g>
  <g id="axes_1">
   <g id="patch_2">
    <path d="M 56.7225 314.64 
L 707.04 314.64 
L 707.04 12.96 
L 56.7225 12.96 
z
" style="fill:#ffffff;"/>
   </g>
   <g id="line2d_1">
    <path clip-path="url(#p456dd75532)" d="M 56.7225 314.64 
L 65.510574 151.969412 
L 74.298649 261.402353 
L 83.086723 178.588235 
L 91.874797 187.461176 
L 100.662872 119.435294 
L 109.450946 125.350588 
L 118.23902 69.155294 
L 127.027095 166.757647 
L 135.815169 211.122353 
L 144.603243 160.842353 
L 153.391318 202.249412 
L 162.179392 175.630588 
L 170.967466 219.995294 
L 179.755541 196.334118 
L 188.543615 157.884706 
L 197.331689 211.122353 
L 214.907838 172.672941 
L 223.695912 193.376471 
L 232.483986 143.096471 
L 241.272061 131.265882 
L 250.060135 66.197647 
L 258.848209 63.24 
L 267.636284 83.943529 
L 276.424358 95.774118 
L 285.212432 18.875294 
L 294.000507 27.748235 
L 302.788581 27.748235 
L 311.576655 86.901176 
L 320.36473 69.155294 
L 329.152804 113.52 
L 337.940878 98.731765 
L 346.728953 95.774118 
L 355.517027 214.08 
L 381.88125 86.901176 
L 390.669324 122.392941 
L 399.457399 169.715294 
L 408.245473 149.011765 
L 417.033547 217.037647 
L 425.821622 172.672941 
L 434.609696 157.884706 
L 443.39777 193.376471 
L 452.185845 113.52 
L 460.973919 219.995294 
L 469.761993 193.376471 
L 478.550068 166.757647 
L 487.338142 134.223529 
L 496.126216 169.715294 
L 504.914291 110.562353 
L 513.702365 190.418824 
L 522.490439 172.672941 
L 531.278514 137.181176 
L 540.066588 12.96 
L 548.854662 86.901176 
L 557.642736 110.562353 
L 566.430811 193.376471 
L 575.218885 205.207059 
L 584.006959 196.334118 
L 592.795034 157.884706 
L 601.583108 160.842353 
L 610.371182 175.630588 
L 619.159257 270.275294 
L 627.947331 219.995294 
L 636.735405 172.672941 
L 645.52348 219.995294 
L 654.311554 172.672941 
L 663.099628 211.122353 
L 671.887703 98.731765 
L 680.675777 172.672941 
L 689.463851 110.562353 
L 698.251926 128.308235 
L 707.04 222.952941 
" style="fill:none;stroke:#ff0000;stroke-linecap:square;stroke-width:2.0;"/>
    <defs>
     <path d="M 0 3 
C 0.795609 3 1.55874 2.683901 2.12132 2.12132 
C 2.683901 1.55874 3 0.795609 3 0 
C 3 -0.795609 2.683901 -1.55874 2.12132 -2.12132 
C 1.55874 -2.683901 0.795609 -3 0 -3 
C -0.795609 -3 -1.55874 -2.683901 -2.12132 -2.12132 
C -2.683901 -1.55874 -3 -0.795609 -3 0 
C -3 0.795609 -2.683901 1.55874 -2.12132 2.12132 
C -1.55874 2.683901 -0.795609 3 0 3 
z
" id="m616f13dc9c" style="stroke:#000000;stroke-width:0.5;"/>
    </defs>
    <g clip-path="url(#p456dd75532)">
     <use style="fill:#ff0000;stroke:#000000;stroke-width:0.5;" x="56.7225" xlink:href="#m616f13dc9c" y="314.64"/>
     <use style="fill:#ff0000;stroke:#000000;stroke-width:0.5;" x="65.5105743243" xlink:href="#m616f13dc9c" y="151.969411765"/>
     <use style="fill:#ff0000;stroke:#000000;stroke-width:0.5;" x="74.2986486486" xlink:href="#m616f13dc9c" y="261.402352941"/>
     <use style="fill:#ff0000;stroke:#000000;stroke-width:0.5;" x="83.086722973" xlink:href="#m616f13dc9c" y="178.588235294"/>
     <use style="fill:#ff0000;stroke:#000000;stroke-width:0.5;" x="91.8747972973" xlink:href="#m616f13dc9c" y="187.461176471"/>
     <use style="fill:#ff0000;stroke:#000000;stroke-width:0.5;" x="100.662871622" xlink:href="#m616f13dc9c" y="119.435294118"/>
     <use style="fill:#ff0000;stroke:#000000;stroke-width:0.5;" x="109.450945946" xlink:href="#m616f13dc9c" y="125.350588235"/>
     <use style="fill:#ff0000;stroke:#000000;stroke-width:0.5;" x="118.23902027" xlink:href="#m616f13dc9c" y="69.1552941176"/>
     <use style="fill:#ff0000;stroke:#000000;stroke-width:0.5;" x="127.027094595" xlink:href="#m616f13dc9c" y="166.757647059"/>
     <use style="fill:#ff0000;stroke:#000000;stroke-width:0.5;" x="135.815168919" xlink:href="#m616f13dc9c" y="211.122352941"/>
     <use style="fill:#ff0000;stroke:#000000;stroke-width:0.5;" x="144.603243243" xlink:href="#m616f13dc9c" y="160.842352941"/>
     <use style="fill:#ff0000;stroke:#000000;stroke-width:0.5;" x="153.391317568" xlink:href="#m616f13dc9c" y="202.249411765"/>
     <use style="fill:#ff0000;stroke:#000000;stroke-width:0.5;" x="162.179391892" xlink:href="#m616f13dc9c" y="175.630588235"/>
     <use style="fill:#ff0000;stroke:#000000;stroke-width:0.5;" x="170.967466216" xlink:href="#m616f13dc9c" y="219.995294118"/>
     <use style="fill:#ff0000;stroke:#000000;stroke-width:0.5;" x="179.755540541" xlink:href="#m616f13dc9c" y="196.334117647"/>
     <use style="fill:#ff0000;stroke:#000000;stroke-width:0.5;" x="188.543614865" xlink:href="#m616f13dc9c" y="157.884705882"/>
     <use style="fill:#ff0000;stroke:#000000;stroke-width:0.5;" x="197.331689189" xlink:href="#m616f13dc9c" y="211.122352941"/>
     <use style="fill:#ff0000;stroke:#000000;stroke-width:0.5;" x="214.907837838" xlink:href="#m616f13dc9c" y="172.672941176"/>
     <use style="fill:#ff0000;stroke:#000000;stroke-width:0.5;" x="223.695912162" xlink:href="#m616f13dc9c" y="193.376470588"/>
     <use style="fill:#ff0000;stroke:#000000;stroke-width:0.5;" x="232.483986486" xlink:href="#m616f13dc9c" y="143.096470588"/>
     <use style="fill:#ff0000;stroke:#000000;stroke-width:0.5;" x="241.272060811" xlink:href="#m616f13dc9c" y="131.265882353"/>
     <use style="fill:#ff0000;stroke:#000000;stroke-width:0.5;" x="250.060135135" xlink:href="#m616f13dc9c" y="66.1976470588"/>
     <use style="fill:#ff0000;stroke:#000000;stroke-width:0.5;" x="258.848209459" xlink:href="#m616f13dc9c" y="63.24"/>
     <use style="fill:#ff0000;stroke:#000000;stroke-width:0.5;" x="267.636283784" xlink:href="#m616f13dc9c" y="83.9435294118"/>
     <use style="fill:#ff0000;stroke:#000000;stroke-width:0.5;" x="276.424358108" xlink:href="#m616f13dc9c" y="95.7741176471"/>
     <use style="fill:#ff0000;stroke:#000000;stroke-width:0.5;" x="285.212432432" xlink:href="#m616f13dc9c" y="18.8752941176"/>
     <use style="fill:#ff0000;stroke:#000000;stroke-width:0.5;" x="294.000506757" xlink:href="#m616f13dc9c" y="27.7482352941"/>
     <use style="fill:#ff0000;stroke:#000000;stroke-width:0.5;" x="302.788581081" xlink:href="#m616f13dc9c" y="27.7482352941"/>
     <use style="fill:#ff0000;stroke:#000000;stroke-width:0.5;" x="311.576655405" xlink:href="#m616f13dc9c" y="86.9011764706"/>
     <use style="fill:#ff0000;stroke:#000000;stroke-width:0.5;" x="320.36472973" xlink:href="#m616f13dc9c" y="69.1552941176"/>
     <use style="fill:#ff0000;stroke:#000000;stroke-width:0.5;" x="329.152804054" xlink:href="#m616f13dc9c" y="113.52"/>
     <use style="fill:#ff0000;stroke:#000000;stroke-width:0.5;" x="337.940878378" xlink:href="#m616f13dc9c" y="98.7317647059"/>
     <use style="fill:#ff0000;stroke:#000000;stroke-width:0.5;" x="346.728952703" xlink:href="#m616f13dc9c" y="95.7741176471"/>
     <use style="fill:#ff0000;stroke:#000000;stroke-width:0.5;" x="355.517027027" xlink:href="#m616f13dc9c" y="214.08"/>
     <use style="fill:#ff0000;stroke:#000000;stroke-width:0.5;" x="381.88125" xlink:href="#m616f13dc9c" y="86.9011764706"/>
     <use style="fill:#ff0000;stroke:#000000;stroke-width:0.5;" x="390.669324324" xlink:href="#m616f13dc9c" y="122.392941176"/>
     <use style="fill:#ff0000;stroke:#000000;stroke-width:0.5;" x="399.457398649" xlink:href="#m616f13dc9c" y="169.715294118"/>
     <use style="fill:#ff0000;stroke:#000000;stroke-width:0.5;" x="408.245472973" xlink:href="#m616f13dc9c" y="149.011764706"/>
     <use style="fill:#ff0000;stroke:#000000;stroke-width:0.5;" x="417.033547297" xlink:href="#m616f13dc9c" y="217.037647059"/>
     <use style="fill:#ff0000;stroke:#000000;stroke-width:0.5;" x="425.821621622" xlink:href="#m616f13dc9c" y="172.672941176"/>
     <use style="fill:#ff0000;stroke:#000000;stroke-width:0.5;" x="434.609695946" xlink:href="#m616f13dc9c" y="157.884705882"/>
     <use style="fill:#ff0000;stroke:#000000;stroke-width:0.5;" x="443.39777027" xlink:href="#m616f13dc9c" y="193.376470588"/>
     <use style="fill:#ff0000;stroke:#000000;stroke-width:0.5;" x="452.185844595" xlink:href="#m616f13dc9c" y="113.52"/>
     <use style="fill:#ff0000;stroke:#000000;stroke-width:0.5;" x="460.973918919" xlink:href="#m616f13dc9c" y="219.995294118"/>
     <use style="fill:#ff0000;stroke:#000000;stroke-width:0.5;" x="469.761993243" xlink:href="#m616f13dc9c" y="193.376470588"/>
     <use style="fill:#ff0000;stroke:#000000;stroke-width:0.5;" x="478.550067568" xlink:href="#m616f13dc9c" y="166.757647059"/>
     <use style="fill:#ff0000;stroke:#000000;stroke-width:0.5;" x="487.338141892" xlink:href="#m616f13dc9c" y="134.223529412"/>
     <use style="fill:#ff0000;stroke:#000000;stroke-width:0.5;" x="496.126216216" xlink:href="#m616f13dc9c" y="169.715294118"/>
     <use style="fill:#ff0000;stroke:#000000;stroke-width:0.5;" x="504.914290541" xlink:href="#m616f13dc9c" y="110.562352941"/>
     <use style="fill:#ff0000;stroke:#000000;stroke-width:0.5;" x="513.702364865" xlink:href="#m616f13dc9c" y="190.418823529"/>
     <use style="fill:#ff0000;stroke:#000000;stroke-width:0.5;" x="522.490439189" xlink:href="#m616f13dc9c" y="172.672941176"/>
     <use style="fill:#ff0000;stroke:#000000;stroke-width:0.5;" x="531.278513514" xlink:href="#m616f13dc9c" y="137.181176471"/>
     <use style="fill:#ff0000;stroke:#000000;stroke-width:0.5;" x="540.066587838" xlink:href="#m616f13dc9c" y="12.96"/>
     <use style="fill:#ff0000;stroke:#000000;stroke-width:0.5;" x="548.854662162" xlink:href="#m616f13dc9c" y="86.9011764706"/>
     <use style="fill:#ff0000;stroke:#000000;stroke-width:0.5;" x="557.642736486" xlink:href="#m616f13dc9c" y="110.562352941"/>
     <use style="fill:#ff0000;stroke:#000000;stroke-width:0.5;" x="566.430810811" xlink:href="#m616f13dc9c" y="193.376470588"/>
     <use style="fill:#ff0000;stroke:#000000;stroke-width:0.5;" x="575.218885135" xlink:href="#m616f13dc9c" y="205.207058824"/>
     <use style="fill:#ff0000;stroke:#000000;stroke-width:0.5;" x="584.006959459" xlink:href="#m616f13dc9c" y="196.334117647"/>
     <use style="fill:#ff0000;stroke:#000000;stroke-width:0.5;" x="592.795033784" xlink:href="#m616f13dc9c" y="157.884705882"/>
     <use style="fill:#ff0000;stroke:#000000;stroke-width:0.5;" x="601.583108108" xlink:href="#m616f13dc9c" y="160.842352941"/>
     <use style="fill:#ff0000;stroke:#000000;stroke-width:0.5;" x="610.371182432" xlink:href="#m616f13dc9c" y="175.630588235"/>
     <use style="fill:#ff0000;stroke:#000000;stroke-width:0.5;" x="619.159256757" xlink:href="#m616f13dc9c" y="270.275294118"/>
     <use style="fill:#ff0000;stroke:#000000;stroke-width:0.5;" x="627.947331081" xlink:href="#m616f13dc9c" y="219.995294118"/>
     <use style="fill:#ff0000;stroke:#000000;stroke-width:0.5;" x="636.735405405" xlink:href="#m616f13dc9c" y="172.672941176"/>
     <use style="fill:#ff0000;stroke:#000000;stroke-width:0.5;" x="645.52347973" xlink:href="#m616f13dc9c" y="219.995294118"/>
     <use style="fill:#ff0000;stroke:#000000;stroke-width:0.5;" x="654.311554054" xlink:href="#m616f13dc9c" y="172.672941176"/>
     <use style="fill:#ff0000;stroke:#000000;stroke-width:0.5;" x="663.099628378" xlink:href="#m616f13dc9c" y="211.122352941"/>
     <use style="fill:#ff0000;stroke:#000000;stroke-width:0.5;" x="671.887702703" xlink:href="#m616f13dc9c" y="98.7317647059"/>
     <use style="fill:#ff0000;stroke:#000000;stroke-width:0.5;" x="680.675777027" xlink:href="#m616f13dc9c" y="172.672941176"/>
     <use style="fill:#ff0000;stroke:#000000;stroke-width:0.5;" x="689.463851351" xlink:href="#m616f13dc9c" y="110.562352941"/>
     <use style="fill:#ff0000;stroke:#000000;stroke-width:0.5;" x="698.251925676" xlink:href="#m616f13dc9c" y="128.308235294"/>
     <use style="fill:#ff0000;stroke:#000000;stroke-width:0.5;" x="707.04" xlink:href="#m616f13dc9c" y="222.952941176"/>
    </g>
   </g>
   <g id="line2d_2">
    <path clip-path="url(#p456dd75532)" d="M 56.7225 244.998355 
L 65.510574 262.169567 
L 74.298649 251.229526 
L 83.086723 221.851809 
L 91.874797 229.96079 
L 100.662872 175.55014 
L 109.450946 185.951002 
L 118.23902 111.543404 
L 127.027095 198.379035 
L 135.815169 260.948354 
L 144.603243 192.968907 
L 153.391318 256.957601 
L 162.179392 220.718439 
L 170.967466 237.711008 
L 179.755541 209.962955 
L 188.543615 199.128798 
L 197.331689 230.438746 
L 214.907838 119.276764 
L 223.695912 241.077994 
L 232.483986 178.978053 
L 241.272061 175.404624 
L 250.060135 106.413957 
L 258.848209 107.979736 
L 267.636284 141.95896 
L 276.424358 115.560185 
L 285.212432 85.728765 
L 294.000507 64.201827 
L 302.788581 69.630884 
L 311.576655 113.951816 
L 320.36473 120.334123 
L 329.152804 111.23995 
L 337.940878 111.730919 
L 346.728953 141.349684 
L 355.517027 259.183822 
L 381.88125 117.081599 
L 390.669324 159.125439 
L 399.457399 216.986184 
L 408.245473 198.717981 
L 417.033547 232.17873 
L 425.821622 194.266427 
L 434.609696 226.966172 
L 443.39777 225.564839 
L 452.185845 127.318311 
L 460.973919 233.235201 
L 469.761993 204.870479 
L 478.550068 200.643114 
L 487.338142 166.425799 
L 496.126216 132.596528 
L 504.914291 132.420548 
L 513.702365 260.444075 
L 522.490439 205.872234 
L 531.278514 185.10896 
L 540.066588 56.289234 
L 548.854662 171.24351 
L 557.642736 141.983508 
L 566.430811 207.786127 
L 575.218885 221.442767 
L 584.006959 178.085731 
L 592.795034 207.020096 
L 601.583108 167.736924 
L 610.371182 212.856717 
L 619.159257 259.740155 
L 627.947331 240.473747 
L 636.735405 209.502745 
L 645.52348 270.536454 
L 654.311554 192.655988 
L 663.099628 241.268762 
L 671.887703 184.339972 
L 680.675777 205.840291 
L 689.463851 172.668209 
L 698.251926 172.957467 
L 707.04 256.818296 
" style="fill:none;stroke:#0000ff;stroke-linecap:square;stroke-width:2.0;"/>
    <defs>
     <path d="M 0 3 
C 0.795609 3 1.55874 2.683901 2.12132 2.12132 
C 2.683901 1.55874 3 0.795609 3 0 
C 3 -0.795609 2.683901 -1.55874 2.12132 -2.12132 
C 1.55874 -2.683901 0.795609 -3 0 -3 
C -0.795609 -3 -1.55874 -2.683901 -2.12132 -2.12132 
C -2.683901 -1.55874 -3 -0.795609 -3 0 
C -3 0.795609 -2.683901 1.55874 -2.12132 2.12132 
C -1.55874 2.683901 -0.795609 3 0 3 
z
" id="m94cb4f36f6" style="stroke:#000000;stroke-width:0.5;"/>
    </defs>
    <g clip-path="url(#p456dd75532)">
     <use style="fill:#0000ff;stroke:#000000;stroke-width:0.5;" x="56.7225" xlink:href="#m94cb4f36f6" y="244.998355059"/>
     <use style="fill:#0000ff;stroke:#000000;stroke-width:0.5;" x="65.5105743243" xlink:href="#m94cb4f36f6" y="262.169566588"/>
     <use style="fill:#0000ff;stroke:#000000;stroke-width:0.5;" x="74.2986486486" xlink:href="#m94cb4f36f6" y="251.229525882"/>
     <use style="fill:#0000ff;stroke:#000000;stroke-width:0.5;" x="83.086722973" xlink:href="#m94cb4f36f6" y="221.851809176"/>
     <use style="fill:#0000ff;stroke:#000000;stroke-width:0.5;" x="91.8747972973" xlink:href="#m94cb4f36f6" y="229.960790118"/>
     <use style="fill:#0000ff;stroke:#000000;stroke-width:0.5;" x="100.662871622" xlink:href="#m94cb4f36f6" y="175.550140235"/>
     <use style="fill:#0000ff;stroke:#000000;stroke-width:0.5;" x="109.450945946" xlink:href="#m94cb4f36f6" y="185.951001882"/>
     <use style="fill:#0000ff;stroke:#000000;stroke-width:0.5;" x="118.23902027" xlink:href="#m94cb4f36f6" y="111.543404471"/>
     <use style="fill:#0000ff;stroke:#000000;stroke-width:0.5;" x="127.027094595" xlink:href="#m94cb4f36f6" y="198.379034824"/>
     <use style="fill:#0000ff;stroke:#000000;stroke-width:0.5;" x="135.815168919" xlink:href="#m94cb4f36f6" y="260.948354118"/>
     <use style="fill:#0000ff;stroke:#000000;stroke-width:0.5;" x="144.603243243" xlink:href="#m94cb4f36f6" y="192.968906824"/>
     <use style="fill:#0000ff;stroke:#000000;stroke-width:0.5;" x="153.391317568" xlink:href="#m94cb4f36f6" y="256.957600941"/>
     <use style="fill:#0000ff;stroke:#000000;stroke-width:0.5;" x="162.179391892" xlink:href="#m94cb4f36f6" y="220.718438824"/>
     <use style="fill:#0000ff;stroke:#000000;stroke-width:0.5;" x="170.967466216" xlink:href="#m94cb4f36f6" y="237.711008471"/>
     <use style="fill:#0000ff;stroke:#000000;stroke-width:0.5;" x="179.755540541" xlink:href="#m94cb4f36f6" y="209.962955294"/>
     <use style="fill:#0000ff;stroke:#000000;stroke-width:0.5;" x="188.543614865" xlink:href="#m94cb4f36f6" y="199.128798353"/>
     <use style="fill:#0000ff;stroke:#000000;stroke-width:0.5;" x="197.331689189" xlink:href="#m94cb4f36f6" y="230.438745882"/>
     <use style="fill:#0000ff;stroke:#000000;stroke-width:0.5;" x="214.907837838" xlink:href="#m94cb4f36f6" y="119.276764235"/>
     <use style="fill:#0000ff;stroke:#000000;stroke-width:0.5;" x="223.695912162" xlink:href="#m94cb4f36f6" y="241.077993882"/>
     <use style="fill:#0000ff;stroke:#000000;stroke-width:0.5;" x="232.483986486" xlink:href="#m94cb4f36f6" y="178.978053176"/>
     <use style="fill:#0000ff;stroke:#000000;stroke-width:0.5;" x="241.272060811" xlink:href="#m94cb4f36f6" y="175.404624"/>
     <use style="fill:#0000ff;stroke:#000000;stroke-width:0.5;" x="250.060135135" xlink:href="#m94cb4f36f6" y="106.413957176"/>
     <use style="fill:#0000ff;stroke:#000000;stroke-width:0.5;" x="258.848209459" xlink:href="#m94cb4f36f6" y="107.979735529"/>
     <use style="fill:#0000ff;stroke:#000000;stroke-width:0.5;" x="267.636283784" xlink:href="#m94cb4f36f6" y="141.958959529"/>
     <use style="fill:#0000ff;stroke:#000000;stroke-width:0.5;" x="276.424358108" xlink:href="#m94cb4f36f6" y="115.560184941"/>
     <use style="fill:#0000ff;stroke:#000000;stroke-width:0.5;" x="285.212432432" xlink:href="#m94cb4f36f6" y="85.7287651765"/>
     <use style="fill:#0000ff;stroke:#000000;stroke-width:0.5;" x="294.000506757" xlink:href="#m94cb4f36f6" y="64.2018268235"/>
     <use style="fill:#0000ff;stroke:#000000;stroke-width:0.5;" x="302.788581081" xlink:href="#m94cb4f36f6" y="69.6308837647"/>
     <use style="fill:#0000ff;stroke:#000000;stroke-width:0.5;" x="311.576655405" xlink:href="#m94cb4f36f6" y="113.951816471"/>
     <use style="fill:#0000ff;stroke:#000000;stroke-width:0.5;" x="320.36472973" xlink:href="#m94cb4f36f6" y="120.334123059"/>
     <use style="fill:#0000ff;stroke:#000000;stroke-width:0.5;" x="329.152804054" xlink:href="#m94cb4f36f6" y="111.239949882"/>
     <use style="fill:#0000ff;stroke:#000000;stroke-width:0.5;" x="337.940878378" xlink:href="#m94cb4f36f6" y="111.730919294"/>
     <use style="fill:#0000ff;stroke:#000000;stroke-width:0.5;" x="346.728952703" xlink:href="#m94cb4f36f6" y="141.349684235"/>
     <use style="fill:#0000ff;stroke:#000000;stroke-width:0.5;" x="355.517027027" xlink:href="#m94cb4f36f6" y="259.183821882"/>
     <use style="fill:#0000ff;stroke:#000000;stroke-width:0.5;" x="381.88125" xlink:href="#m94cb4f36f6" y="117.081598588"/>
     <use style="fill:#0000ff;stroke:#000000;stroke-width:0.5;" x="390.669324324" xlink:href="#m94cb4f36f6" y="159.125438824"/>
     <use style="fill:#0000ff;stroke:#000000;stroke-width:0.5;" x="399.457398649" xlink:href="#m94cb4f36f6" y="216.986184"/>
     <use style="fill:#0000ff;stroke:#000000;stroke-width:0.5;" x="408.245472973" xlink:href="#m94cb4f36f6" y="198.717981176"/>
     <use style="fill:#0000ff;stroke:#000000;stroke-width:0.5;" x="417.033547297" xlink:href="#m94cb4f36f6" y="232.178729647"/>
     <use style="fill:#0000ff;stroke:#000000;stroke-width:0.5;" x="425.821621622" xlink:href="#m94cb4f36f6" y="194.266426588"/>
     <use style="fill:#0000ff;stroke:#000000;stroke-width:0.5;" x="434.609695946" xlink:href="#m94cb4f36f6" y="226.966172471"/>
     <use style="fill:#0000ff;stroke:#000000;stroke-width:0.5;" x="443.39777027" xlink:href="#m94cb4f36f6" y="225.564839294"/>
     <use style="fill:#0000ff;stroke:#000000;stroke-width:0.5;" x="452.185844595" xlink:href="#m94cb4f36f6" y="127.318310824"/>
     <use style="fill:#0000ff;stroke:#000000;stroke-width:0.5;" x="460.973918919" xlink:href="#m94cb4f36f6" y="233.235201176"/>
     <use style="fill:#0000ff;stroke:#000000;stroke-width:0.5;" x="469.761993243" xlink:href="#m94cb4f36f6" y="204.870478588"/>
     <use style="fill:#0000ff;stroke:#000000;stroke-width:0.5;" x="478.550067568" xlink:href="#m94cb4f36f6" y="200.643113647"/>
     <use style="fill:#0000ff;stroke:#000000;stroke-width:0.5;" x="487.338141892" xlink:href="#m94cb4f36f6" y="166.425799059"/>
     <use style="fill:#0000ff;stroke:#000000;stroke-width:0.5;" x="496.126216216" xlink:href="#m94cb4f36f6" y="132.596527765"/>
     <use style="fill:#0000ff;stroke:#000000;stroke-width:0.5;" x="504.914290541" xlink:href="#m94cb4f36f6" y="132.420547765"/>
     <use style="fill:#0000ff;stroke:#000000;stroke-width:0.5;" x="513.702364865" xlink:href="#m94cb4f36f6" y="260.444075294"/>
     <use style="fill:#0000ff;stroke:#000000;stroke-width:0.5;" x="522.490439189" xlink:href="#m94cb4f36f6" y="205.872233647"/>
     <use style="fill:#0000ff;stroke:#000000;stroke-width:0.5;" x="531.278513514" xlink:href="#m94cb4f36f6" y="185.108959765"/>
     <use style="fill:#0000ff;stroke:#000000;stroke-width:0.5;" x="540.066587838" xlink:href="#m94cb4f36f6" y="56.2892336471"/>
     <use style="fill:#0000ff;stroke:#000000;stroke-width:0.5;" x="548.854662162" xlink:href="#m94cb4f36f6" y="171.243510353"/>
     <use style="fill:#0000ff;stroke:#000000;stroke-width:0.5;" x="557.642736486" xlink:href="#m94cb4f36f6" y="141.983508"/>
     <use style="fill:#0000ff;stroke:#000000;stroke-width:0.5;" x="566.430810811" xlink:href="#m94cb4f36f6" y="207.786127059"/>
     <use style="fill:#0000ff;stroke:#000000;stroke-width:0.5;" x="575.218885135" xlink:href="#m94cb4f36f6" y="221.442766588"/>
     <use style="fill:#0000ff;stroke:#000000;stroke-width:0.5;" x="584.006959459" xlink:href="#m94cb4f36f6" y="178.085731059"/>
     <use style="fill:#0000ff;stroke:#000000;stroke-width:0.5;" x="592.795033784" xlink:href="#m94cb4f36f6" y="207.020096471"/>
     <use style="fill:#0000ff;stroke:#000000;stroke-width:0.5;" x="601.583108108" xlink:href="#m94cb4f36f6" y="167.736924"/>
     <use style="fill:#0000ff;stroke:#000000;stroke-width:0.5;" x="610.371182432" xlink:href="#m94cb4f36f6" y="212.856717176"/>
     <use style="fill:#0000ff;stroke:#000000;stroke-width:0.5;" x="619.159256757" xlink:href="#m94cb4f36f6" y="259.740155294"/>
     <use style="fill:#0000ff;stroke:#000000;stroke-width:0.5;" x="627.947331081" xlink:href="#m94cb4f36f6" y="240.473746588"/>
     <use style="fill:#0000ff;stroke:#000000;stroke-width:0.5;" x="636.735405405" xlink:href="#m94cb4f36f6" y="209.502745412"/>
     <use style="fill:#0000ff;stroke:#000000;stroke-width:0.5;" x="645.52347973" xlink:href="#m94cb4f36f6" y="270.536454353"/>
     <use style="fill:#0000ff;stroke:#000000;stroke-width:0.5;" x="654.311554054" xlink:href="#m94cb4f36f6" y="192.655987765"/>
     <use style="fill:#0000ff;stroke:#000000;stroke-width:0.5;" x="663.099628378" xlink:href="#m94cb4f36f6" y="241.268762118"/>
     <use style="fill:#0000ff;stroke:#000000;stroke-width:0.5;" x="671.887702703" xlink:href="#m94cb4f36f6" y="184.339971529"/>
     <use style="fill:#0000ff;stroke:#000000;stroke-width:0.5;" x="680.675777027" xlink:href="#m94cb4f36f6" y="205.840291059"/>
     <use style="fill:#0000ff;stroke:#000000;stroke-width:0.5;" x="689.463851351" xlink:href="#m94cb4f36f6" y="172.668208941"/>
     <use style="fill:#0000ff;stroke:#000000;stroke-width:0.5;" x="698.251925676" xlink:href="#m94cb4f36f6" y="172.957466824"/>
     <use style="fill:#0000ff;stroke:#000000;stroke-width:0.5;" x="707.04" xlink:href="#m94cb4f36f6" y="256.818295765"/>
    </g>
   </g>
   <g id="patch_3">
    <path d="M 56.7225 12.96 
L 707.04 12.96 
" style="fill:none;stroke:#000000;stroke-linecap:square;stroke-linejoin:miter;"/>
   </g>
   <g id="patch_4">
    <path d="M 707.04 314.64 
L 707.04 12.96 
" style="fill:none;stroke:#000000;stroke-linecap:square;stroke-linejoin:miter;"/>
   </g>
   <g id="patch_5">
    <path d="M 56.7225 314.64 
L 707.04 314.64 
" style="fill:none;stroke:#000000;stroke-linecap:square;stroke-linejoin:miter;"/>
   </g>
   <g id="patch_6">
    <path d="M 56.7225 314.64 
L 56.7225 12.96 
" style="fill:none;stroke:#000000;stroke-linecap:square;stroke-linejoin:miter;"/>
   </g>
   <g id="matplotlib.axis_1">
    <g id="xtick_1">
     <g id="line2d_3">
      <defs>
       <path d="M 0 0 
L 0 -4 
" id="maa080e0c2d" style="stroke:#000000;stroke-width:0.5;"/>
      </defs>
      <g>
       <use style="stroke:#000000;stroke-width:0.5;" x="135.815168919" xlink:href="#maa080e0c2d" y="314.64"/>
      </g>
     </g>
     <g id="line2d_4">
      <defs>
       <path d="M 0 0 
L 0 4 
" id="mde86bf541c" style="stroke:#000000;stroke-width:0.5;"/>
      </defs>
      <g>
       <use style="stroke:#000000;stroke-width:0.5;" x="135.815168919" xlink:href="#mde86bf541c" y="12.96"/>
      </g>
     </g>
     <g id="text_1">
      <!-- 10 -->
      <defs>
       <path d="M 31.78125 66.40625 
Q 24.171875 66.40625 20.328125 58.90625 
Q 16.5 51.421875 16.5 36.375 
Q 16.5 21.390625 20.328125 13.890625 
Q 24.171875 6.390625 31.78125 6.390625 
Q 39.453125 6.390625 43.28125 13.890625 
Q 47.125 21.390625 47.125 36.375 
Q 47.125 51.421875 43.28125 58.90625 
Q 39.453125 66.40625 31.78125 66.40625 
M 31.78125 74.21875 
Q 44.046875 74.21875 50.515625 64.515625 
Q 56.984375 54.828125 56.984375 36.375 
Q 56.984375 17.96875 50.515625 8.265625 
Q 44.046875 -1.421875 31.78125 -1.421875 
Q 19.53125 -1.421875 13.0625 8.265625 
Q 6.59375 17.96875 6.59375 36.375 
Q 6.59375 54.828125 13.0625 64.515625 
Q 19.53125 74.21875 31.78125 74.21875 
" id="BitstreamVeraSans-Roman-30"/>
       <path d="M 12.40625 8.296875 
L 28.515625 8.296875 
L 28.515625 63.921875 
L 10.984375 60.40625 
L 10.984375 69.390625 
L 28.421875 72.90625 
L 38.28125 72.90625 
L 38.28125 8.296875 
L 54.390625 8.296875 
L 54.390625 0 
L 12.40625 0 
z
" id="BitstreamVeraSans-Roman-31"/>
      </defs>
      <g transform="translate(128.180168919 327.758125)scale(0.12 -0.12)">
       <use xlink:href="#BitstreamVeraSans-Roman-31"/>
       <use x="63.623046875" xlink:href="#BitstreamVeraSans-Roman-30"/>
      </g>
     </g>
    </g>
    <g id="xtick_2">
     <g id="line2d_5">
      <g>
       <use style="stroke:#000000;stroke-width:0.5;" x="223.695912162" xlink:href="#maa080e0c2d" y="314.64"/>
      </g>
     </g>
     <g id="line2d_6">
      <g>
       <use style="stroke:#000000;stroke-width:0.5;" x="223.695912162" xlink:href="#mde86bf541c" y="12.96"/>
      </g>
     </g>
     <g id="text_2">
      <!-- 20 -->
      <defs>
       <path d="M 19.1875 8.296875 
L 53.609375 8.296875 
L 53.609375 0 
L 7.328125 0 
L 7.328125 8.296875 
Q 12.9375 14.109375 22.625 23.890625 
Q 32.328125 33.6875 34.8125 36.53125 
Q 39.546875 41.84375 41.421875 45.53125 
Q 43.3125 49.21875 43.3125 52.78125 
Q 43.3125 58.59375 39.234375 62.25 
Q 35.15625 65.921875 28.609375 65.921875 
Q 23.96875 65.921875 18.8125 64.3125 
Q 13.671875 62.703125 7.8125 59.421875 
L 7.8125 69.390625 
Q 13.765625 71.78125 18.9375 73 
Q 24.125 74.21875 28.421875 74.21875 
Q 39.75 74.21875 46.484375 68.546875 
Q 53.21875 62.890625 53.21875 53.421875 
Q 53.21875 48.921875 51.53125 44.890625 
Q 49.859375 40.875 45.40625 35.40625 
Q 44.1875 33.984375 37.640625 27.21875 
Q 31.109375 20.453125 19.1875 8.296875 
" id="BitstreamVeraSans-Roman-32"/>
      </defs>
      <g transform="translate(216.060912162 327.758125)scale(0.12 -0.12)">
       <use xlink:href="#BitstreamVeraSans-Roman-32"/>
       <use x="63.623046875" xlink:href="#BitstreamVeraSans-Roman-30"/>
      </g>
     </g>
    </g>
    <g id="xtick_3">
     <g id="line2d_7">
      <g>
       <use style="stroke:#000000;stroke-width:0.5;" x="311.576655405" xlink:href="#maa080e0c2d" y="314.64"/>
      </g>
     </g>
     <g id="line2d_8">
      <g>
       <use style="stroke:#000000;stroke-width:0.5;" x="311.576655405" xlink:href="#mde86bf541c" y="12.96"/>
      </g>
     </g>
     <g id="text_3">
      <!-- 30 -->
      <defs>
       <path d="M 40.578125 39.3125 
Q 47.65625 37.796875 51.625 33 
Q 55.609375 28.21875 55.609375 21.1875 
Q 55.609375 10.40625 48.1875 4.484375 
Q 40.765625 -1.421875 27.09375 -1.421875 
Q 22.515625 -1.421875 17.65625 -0.515625 
Q 12.796875 0.390625 7.625 2.203125 
L 7.625 11.71875 
Q 11.71875 9.328125 16.59375 8.109375 
Q 21.484375 6.890625 26.8125 6.890625 
Q 36.078125 6.890625 40.9375 10.546875 
Q 45.796875 14.203125 45.796875 21.1875 
Q 45.796875 27.640625 41.28125 31.265625 
Q 36.765625 34.90625 28.71875 34.90625 
L 20.21875 34.90625 
L 20.21875 43.015625 
L 29.109375 43.015625 
Q 36.375 43.015625 40.234375 45.921875 
Q 44.09375 48.828125 44.09375 54.296875 
Q 44.09375 59.90625 40.109375 62.90625 
Q 36.140625 65.921875 28.71875 65.921875 
Q 24.65625 65.921875 20.015625 65.03125 
Q 15.375 64.15625 9.8125 62.3125 
L 9.8125 71.09375 
Q 15.4375 72.65625 20.34375 73.4375 
Q 25.25 74.21875 29.59375 74.21875 
Q 40.828125 74.21875 47.359375 69.109375 
Q 53.90625 64.015625 53.90625 55.328125 
Q 53.90625 49.265625 50.4375 45.09375 
Q 46.96875 40.921875 40.578125 39.3125 
" id="BitstreamVeraSans-Roman-33"/>
      </defs>
      <g transform="translate(303.941655405 327.758125)scale(0.12 -0.12)">
       <use xlink:href="#BitstreamVeraSans-Roman-33"/>
       <use x="63.623046875" xlink:href="#BitstreamVeraSans-Roman-30"/>
      </g>
     </g>
    </g>
    <g id="xtick_4">
     <g id="line2d_9">
      <g>
       <use style="stroke:#000000;stroke-width:0.5;" x="399.457398649" xlink:href="#maa080e0c2d" y="314.64"/>
      </g>
     </g>
     <g id="line2d_10">
      <g>
       <use style="stroke:#000000;stroke-width:0.5;" x="399.457398649" xlink:href="#mde86bf541c" y="12.96"/>
      </g>
     </g>
     <g id="text_4">
      <!-- 40 -->
      <defs>
       <path d="M 37.796875 64.3125 
L 12.890625 25.390625 
L 37.796875 25.390625 
z
M 35.203125 72.90625 
L 47.609375 72.90625 
L 47.609375 25.390625 
L 58.015625 25.390625 
L 58.015625 17.1875 
L 47.609375 17.1875 
L 47.609375 0 
L 37.796875 0 
L 37.796875 17.1875 
L 4.890625 17.1875 
L 4.890625 26.703125 
z
" id="BitstreamVeraSans-Roman-34"/>
      </defs>
      <g transform="translate(391.822398649 327.758125)scale(0.12 -0.12)">
       <use xlink:href="#BitstreamVeraSans-Roman-34"/>
       <use x="63.623046875" xlink:href="#BitstreamVeraSans-Roman-30"/>
      </g>
     </g>
    </g>
    <g id="xtick_5">
     <g id="line2d_11">
      <g>
       <use style="stroke:#000000;stroke-width:0.5;" x="487.338141892" xlink:href="#maa080e0c2d" y="314.64"/>
      </g>
     </g>
     <g id="line2d_12">
      <g>
       <use style="stroke:#000000;stroke-width:0.5;" x="487.338141892" xlink:href="#mde86bf541c" y="12.96"/>
      </g>
     </g>
     <g id="text_5">
      <!-- 50 -->
      <defs>
       <path d="M 10.796875 72.90625 
L 49.515625 72.90625 
L 49.515625 64.59375 
L 19.828125 64.59375 
L 19.828125 46.734375 
Q 21.96875 47.46875 24.109375 47.828125 
Q 26.265625 48.1875 28.421875 48.1875 
Q 40.625 48.1875 47.75 41.5 
Q 54.890625 34.8125 54.890625 23.390625 
Q 54.890625 11.625 47.5625 5.09375 
Q 40.234375 -1.421875 26.90625 -1.421875 
Q 22.3125 -1.421875 17.546875 -0.640625 
Q 12.796875 0.140625 7.71875 1.703125 
L 7.71875 11.625 
Q 12.109375 9.234375 16.796875 8.0625 
Q 21.484375 6.890625 26.703125 6.890625 
Q 35.15625 6.890625 40.078125 11.328125 
Q 45.015625 15.765625 45.015625 23.390625 
Q 45.015625 31 40.078125 35.4375 
Q 35.15625 39.890625 26.703125 39.890625 
Q 22.75 39.890625 18.8125 39.015625 
Q 14.890625 38.140625 10.796875 36.28125 
z
" id="BitstreamVeraSans-Roman-35"/>
      </defs>
      <g transform="translate(479.703141892 327.758125)scale(0.12 -0.12)">
       <use xlink:href="#BitstreamVeraSans-Roman-35"/>
       <use x="63.623046875" xlink:href="#BitstreamVeraSans-Roman-30"/>
      </g>
     </g>
    </g>
    <g id="xtick_6">
     <g id="line2d_13">
      <g>
       <use style="stroke:#000000;stroke-width:0.5;" x="575.218885135" xlink:href="#maa080e0c2d" y="314.64"/>
      </g>
     </g>
     <g id="line2d_14">
      <g>
       <use style="stroke:#000000;stroke-width:0.5;" x="575.218885135" xlink:href="#mde86bf541c" y="12.96"/>
      </g>
     </g>
     <g id="text_6">
      <!-- 60 -->
      <defs>
       <path d="M 33.015625 40.375 
Q 26.375 40.375 22.484375 35.828125 
Q 18.609375 31.296875 18.609375 23.390625 
Q 18.609375 15.53125 22.484375 10.953125 
Q 26.375 6.390625 33.015625 6.390625 
Q 39.65625 6.390625 43.53125 10.953125 
Q 47.40625 15.53125 47.40625 23.390625 
Q 47.40625 31.296875 43.53125 35.828125 
Q 39.65625 40.375 33.015625 40.375 
M 52.59375 71.296875 
L 52.59375 62.3125 
Q 48.875 64.0625 45.09375 64.984375 
Q 41.3125 65.921875 37.59375 65.921875 
Q 27.828125 65.921875 22.671875 59.328125 
Q 17.53125 52.734375 16.796875 39.40625 
Q 19.671875 43.65625 24.015625 45.921875 
Q 28.375 48.1875 33.59375 48.1875 
Q 44.578125 48.1875 50.953125 41.515625 
Q 57.328125 34.859375 57.328125 23.390625 
Q 57.328125 12.15625 50.6875 5.359375 
Q 44.046875 -1.421875 33.015625 -1.421875 
Q 20.359375 -1.421875 13.671875 8.265625 
Q 6.984375 17.96875 6.984375 36.375 
Q 6.984375 53.65625 15.1875 63.9375 
Q 23.390625 74.21875 37.203125 74.21875 
Q 40.921875 74.21875 44.703125 73.484375 
Q 48.484375 72.75 52.59375 71.296875 
" id="BitstreamVeraSans-Roman-36"/>
      </defs>
      <g transform="translate(567.583885135 327.758125)scale(0.12 -0.12)">
       <use xlink:href="#BitstreamVeraSans-Roman-36"/>
       <use x="63.623046875" xlink:href="#BitstreamVeraSans-Roman-30"/>
      </g>
     </g>
    </g>
    <g id="xtick_7">
     <g id="line2d_15">
      <g>
       <use style="stroke:#000000;stroke-width:0.5;" x="663.099628378" xlink:href="#maa080e0c2d" y="314.64"/>
      </g>
     </g>
     <g id="line2d_16">
      <g>
       <use style="stroke:#000000;stroke-width:0.5;" x="663.099628378" xlink:href="#mde86bf541c" y="12.96"/>
      </g>
     </g>
     <g id="text_7">
      <!-- 70 -->
      <defs>
       <path d="M 8.203125 72.90625 
L 55.078125 72.90625 
L 55.078125 68.703125 
L 28.609375 0 
L 18.3125 0 
L 43.21875 64.59375 
L 8.203125 64.59375 
z
" id="BitstreamVeraSans-Roman-37"/>
      </defs>
      <g transform="translate(655.464628378 327.758125)scale(0.12 -0.12)">
       <use xlink:href="#BitstreamVeraSans-Roman-37"/>
       <use x="63.623046875" xlink:href="#BitstreamVeraSans-Roman-30"/>
      </g>
     </g>
    </g>
    <g id="text_8">
     <!-- residue number -->
     <defs>
      <path d="M 8.5 21.578125 
L 8.5 54.6875 
L 17.484375 54.6875 
L 17.484375 21.921875 
Q 17.484375 14.15625 20.5 10.265625 
Q 23.53125 6.390625 29.59375 6.390625 
Q 36.859375 6.390625 41.078125 11.03125 
Q 45.3125 15.671875 45.3125 23.6875 
L 45.3125 54.6875 
L 54.296875 54.6875 
L 54.296875 0 
L 45.3125 0 
L 45.3125 8.40625 
Q 42.046875 3.421875 37.71875 1 
Q 33.40625 -1.421875 27.6875 -1.421875 
Q 18.265625 -1.421875 13.375 4.4375 
Q 8.5 10.296875 8.5 21.578125 
" id="BitstreamVeraSans-Roman-75"/>
      <path d="M 52 44.1875 
Q 55.375 50.25 60.0625 53.125 
Q 64.75 56 71.09375 56 
Q 79.640625 56 84.28125 50.015625 
Q 88.921875 44.046875 88.921875 33.015625 
L 88.921875 0 
L 79.890625 0 
L 79.890625 32.71875 
Q 79.890625 40.578125 77.09375 44.375 
Q 74.3125 48.1875 68.609375 48.1875 
Q 61.625 48.1875 57.5625 43.546875 
Q 53.515625 38.921875 53.515625 30.90625 
L 53.515625 0 
L 44.484375 0 
L 44.484375 32.71875 
Q 44.484375 40.625 41.703125 44.40625 
Q 38.921875 48.1875 33.109375 48.1875 
Q 26.21875 48.1875 22.15625 43.53125 
Q 18.109375 38.875 18.109375 30.90625 
L 18.109375 0 
L 9.078125 0 
L 9.078125 54.6875 
L 18.109375 54.6875 
L 18.109375 46.1875 
Q 21.1875 51.21875 25.484375 53.609375 
Q 29.78125 56 35.6875 56 
Q 41.65625 56 45.828125 52.96875 
Q 50 49.953125 52 44.1875 
" id="BitstreamVeraSans-Roman-6d"/>
      <path d="M 45.40625 46.390625 
L 45.40625 75.984375 
L 54.390625 75.984375 
L 54.390625 0 
L 45.40625 0 
L 45.40625 8.203125 
Q 42.578125 3.328125 38.25 0.953125 
Q 33.9375 -1.421875 27.875 -1.421875 
Q 17.96875 -1.421875 11.734375 6.484375 
Q 5.515625 14.40625 5.515625 27.296875 
Q 5.515625 40.1875 11.734375 48.09375 
Q 17.96875 56 27.875 56 
Q 33.9375 56 38.25 53.625 
Q 42.578125 51.265625 45.40625 46.390625 
M 14.796875 27.296875 
Q 14.796875 17.390625 18.875 11.75 
Q 22.953125 6.109375 30.078125 6.109375 
Q 37.203125 6.109375 41.296875 11.75 
Q 45.40625 17.390625 45.40625 27.296875 
Q 45.40625 37.203125 41.296875 42.84375 
Q 37.203125 48.484375 30.078125 48.484375 
Q 22.953125 48.484375 18.875 42.84375 
Q 14.796875 37.203125 14.796875 27.296875 
" id="BitstreamVeraSans-Roman-64"/>
      <path d="M 48.6875 27.296875 
Q 48.6875 37.203125 44.609375 42.84375 
Q 40.53125 48.484375 33.40625 48.484375 
Q 26.265625 48.484375 22.1875 42.84375 
Q 18.109375 37.203125 18.109375 27.296875 
Q 18.109375 17.390625 22.1875 11.75 
Q 26.265625 6.109375 33.40625 6.109375 
Q 40.53125 6.109375 44.609375 11.75 
Q 48.6875 17.390625 48.6875 27.296875 
M 18.109375 46.390625 
Q 20.953125 51.265625 25.265625 53.625 
Q 29.59375 56 35.59375 56 
Q 45.5625 56 51.78125 48.09375 
Q 58.015625 40.1875 58.015625 27.296875 
Q 58.015625 14.40625 51.78125 6.484375 
Q 45.5625 -1.421875 35.59375 -1.421875 
Q 29.59375 -1.421875 25.265625 0.953125 
Q 20.953125 3.328125 18.109375 8.203125 
L 18.109375 0 
L 9.078125 0 
L 9.078125 75.984375 
L 18.109375 75.984375 
z
" id="BitstreamVeraSans-Roman-62"/>
      <path d="M 54.890625 33.015625 
L 54.890625 0 
L 45.90625 0 
L 45.90625 32.71875 
Q 45.90625 40.484375 42.875 44.328125 
Q 39.84375 48.1875 33.796875 48.1875 
Q 26.515625 48.1875 22.3125 43.546875 
Q 18.109375 38.921875 18.109375 30.90625 
L 18.109375 0 
L 9.078125 0 
L 9.078125 54.6875 
L 18.109375 54.6875 
L 18.109375 46.1875 
Q 21.34375 51.125 25.703125 53.5625 
Q 30.078125 56 35.796875 56 
Q 45.21875 56 50.046875 50.171875 
Q 54.890625 44.34375 54.890625 33.015625 
" id="BitstreamVeraSans-Roman-6e"/>
      <path d="M 44.28125 53.078125 
L 44.28125 44.578125 
Q 40.484375 46.53125 36.375 47.5 
Q 32.28125 48.484375 27.875 48.484375 
Q 21.1875 48.484375 17.84375 46.4375 
Q 14.5 44.390625 14.5 40.28125 
Q 14.5 37.15625 16.890625 35.375 
Q 19.28125 33.59375 26.515625 31.984375 
L 29.59375 31.296875 
Q 39.15625 29.25 43.1875 25.515625 
Q 47.21875 21.78125 47.21875 15.09375 
Q 47.21875 7.46875 41.1875 3.015625 
Q 35.15625 -1.421875 24.609375 -1.421875 
Q 20.21875 -1.421875 15.453125 -0.5625 
Q 10.6875 0.296875 5.421875 2 
L 5.421875 11.28125 
Q 10.40625 8.6875 15.234375 7.390625 
Q 20.0625 6.109375 24.8125 6.109375 
Q 31.15625 6.109375 34.5625 8.28125 
Q 37.984375 10.453125 37.984375 14.40625 
Q 37.984375 18.0625 35.515625 20.015625 
Q 33.0625 21.96875 24.703125 23.78125 
L 21.578125 24.515625 
Q 13.234375 26.265625 9.515625 29.90625 
Q 5.8125 33.546875 5.8125 39.890625 
Q 5.8125 47.609375 11.28125 51.796875 
Q 16.75 56 26.8125 56 
Q 31.78125 56 36.171875 55.265625 
Q 40.578125 54.546875 44.28125 53.078125 
" id="BitstreamVeraSans-Roman-73"/>
      <path id="BitstreamVeraSans-Roman-20"/>
      <path d="M 56.203125 29.59375 
L 56.203125 25.203125 
L 14.890625 25.203125 
Q 15.484375 15.921875 20.484375 11.0625 
Q 25.484375 6.203125 34.421875 6.203125 
Q 39.59375 6.203125 44.453125 7.46875 
Q 49.3125 8.734375 54.109375 11.28125 
L 54.109375 2.78125 
Q 49.265625 0.734375 44.1875 -0.34375 
Q 39.109375 -1.421875 33.890625 -1.421875 
Q 20.796875 -1.421875 13.15625 6.1875 
Q 5.515625 13.8125 5.515625 26.8125 
Q 5.515625 40.234375 12.765625 48.109375 
Q 20.015625 56 32.328125 56 
Q 43.359375 56 49.78125 48.890625 
Q 56.203125 41.796875 56.203125 29.59375 
M 47.21875 32.234375 
Q 47.125 39.59375 43.09375 43.984375 
Q 39.0625 48.390625 32.421875 48.390625 
Q 24.90625 48.390625 20.390625 44.140625 
Q 15.875 39.890625 15.1875 32.171875 
z
" id="BitstreamVeraSans-Roman-65"/>
      <path d="M 41.109375 46.296875 
Q 39.59375 47.171875 37.8125 47.578125 
Q 36.03125 48 33.890625 48 
Q 26.265625 48 22.1875 43.046875 
Q 18.109375 38.09375 18.109375 28.8125 
L 18.109375 0 
L 9.078125 0 
L 9.078125 54.6875 
L 18.109375 54.6875 
L 18.109375 46.1875 
Q 20.953125 51.171875 25.484375 53.578125 
Q 30.03125 56 36.53125 56 
Q 37.453125 56 38.578125 55.875 
Q 39.703125 55.765625 41.0625 55.515625 
z
" id="BitstreamVeraSans-Roman-72"/>
      <path d="M 9.421875 54.6875 
L 18.40625 54.6875 
L 18.40625 0 
L 9.421875 0 
z
M 9.421875 75.984375 
L 18.40625 75.984375 
L 18.40625 64.59375 
L 9.421875 64.59375 
z
" id="BitstreamVeraSans-Roman-69"/>
     </defs>
     <g transform="translate(334.305 344.371875)scale(0.12 -0.12)">
      <use xlink:href="#BitstreamVeraSans-Roman-72"/>
      <use x="41.08203125" xlink:href="#BitstreamVeraSans-Roman-65"/>
      <use x="102.60546875" xlink:href="#BitstreamVeraSans-Roman-73"/>
      <use x="154.705078125" xlink:href="#BitstreamVeraSans-Roman-69"/>
      <use x="182.48828125" xlink:href="#BitstreamVeraSans-Roman-64"/>
      <use x="245.96484375" xlink:href="#BitstreamVeraSans-Roman-75"/>
      <use x="309.34375" xlink:href="#BitstreamVeraSans-Roman-65"/>
      <use x="370.8671875" xlink:href="#BitstreamVeraSans-Roman-20"/>
      <use x="402.654296875" xlink:href="#BitstreamVeraSans-Roman-6e"/>
      <use x="466.033203125" xlink:href="#BitstreamVeraSans-Roman-75"/>
      <use x="529.412109375" xlink:href="#BitstreamVeraSans-Roman-6d"/>
      <use x="626.82421875" xlink:href="#BitstreamVeraSans-Roman-62"/>
      <use x="690.30078125" xlink:href="#BitstreamVeraSans-Roman-65"/>
      <use x="751.82421875" xlink:href="#BitstreamVeraSans-Roman-72"/>
     </g>
    </g>
   </g>
   <g id="matplotlib.axis_2">
    <g id="ytick_1">
     <g id="line2d_17">
      <path clip-path="url(#p456dd75532)" d="M 56.7225 296.894118 
L 707.04 296.894118 
" style="fill:none;stroke:#000000;stroke-dasharray:1.000000,3.000000;stroke-dashoffset:0.0;stroke-width:0.5;"/>
     </g>
     <g id="line2d_18">
      <defs>
       <path d="M 0 0 
L 4 0 
" id="m9813442ac6" style="stroke:#000000;stroke-width:0.5;"/>
      </defs>
      <g>
       <use style="stroke:#000000;stroke-width:0.5;" x="56.7225" xlink:href="#m9813442ac6" y="296.894117647"/>
      </g>
     </g>
     <g id="line2d_19">
      <defs>
       <path d="M 0 0 
L -4 0 
" id="m28a93092e6" style="stroke:#000000;stroke-width:0.5;"/>
      </defs>
      <g>
       <use style="stroke:#000000;stroke-width:0.5;" x="707.04" xlink:href="#m28a93092e6" y="296.894117647"/>
      </g>
     </g>
     <g id="text_9">
      <!-- 172 -->
      <g transform="translate(29.8175 300.205367647)scale(0.12 -0.12)">
       <use xlink:href="#BitstreamVeraSans-Roman-31"/>
       <use x="63.623046875" xlink:href="#BitstreamVeraSans-Roman-37"/>
       <use x="127.24609375" xlink:href="#BitstreamVeraSans-Roman-32"/>
      </g>
     </g>
    </g>
    <g id="ytick_2">
     <g id="line2d_20">
      <path clip-path="url(#p456dd75532)" d="M 56.7225 237.741176 
L 707.04 237.741176 
" style="fill:none;stroke:#000000;stroke-dasharray:1.000000,3.000000;stroke-dashoffset:0.0;stroke-width:0.5;"/>
     </g>
     <g id="line2d_21">
      <g>
       <use style="stroke:#000000;stroke-width:0.5;" x="56.7225" xlink:href="#m9813442ac6" y="237.741176471"/>
      </g>
     </g>
     <g id="line2d_22">
      <g>
       <use style="stroke:#000000;stroke-width:0.5;" x="707.04" xlink:href="#m28a93092e6" y="237.741176471"/>
      </g>
     </g>
     <g id="text_10">
      <!-- 174 -->
      <g transform="translate(29.8175 241.052426471)scale(0.12 -0.12)">
       <use xlink:href="#BitstreamVeraSans-Roman-31"/>
       <use x="63.623046875" xlink:href="#BitstreamVeraSans-Roman-37"/>
       <use x="127.24609375" xlink:href="#BitstreamVeraSans-Roman-34"/>
      </g>
     </g>
    </g>
    <g id="ytick_3">
     <g id="line2d_23">
      <path clip-path="url(#p456dd75532)" d="M 56.7225 178.588235 
L 707.04 178.588235 
" style="fill:none;stroke:#000000;stroke-dasharray:1.000000,3.000000;stroke-dashoffset:0.0;stroke-width:0.5;"/>
     </g>
     <g id="line2d_24">
      <g>
       <use style="stroke:#000000;stroke-width:0.5;" x="56.7225" xlink:href="#m9813442ac6" y="178.588235294"/>
      </g>
     </g>
     <g id="line2d_25">
      <g>
       <use style="stroke:#000000;stroke-width:0.5;" x="707.04" xlink:href="#m28a93092e6" y="178.588235294"/>
      </g>
     </g>
     <g id="text_11">
      <!-- 176 -->
      <g transform="translate(29.8175 181.899485294)scale(0.12 -0.12)">
       <use xlink:href="#BitstreamVeraSans-Roman-31"/>
       <use x="63.623046875" xlink:href="#BitstreamVeraSans-Roman-37"/>
       <use x="127.24609375" xlink:href="#BitstreamVeraSans-Roman-36"/>
      </g>
     </g>
    </g>
    <g id="ytick_4">
     <g id="line2d_26">
      <path clip-path="url(#p456dd75532)" d="M 56.7225 119.435294 
L 707.04 119.435294 
" style="fill:none;stroke:#000000;stroke-dasharray:1.000000,3.000000;stroke-dashoffset:0.0;stroke-width:0.5;"/>
     </g>
     <g id="line2d_27">
      <g>
       <use style="stroke:#000000;stroke-width:0.5;" x="56.7225" xlink:href="#m9813442ac6" y="119.435294118"/>
      </g>
     </g>
     <g id="line2d_28">
      <g>
       <use style="stroke:#000000;stroke-width:0.5;" x="707.04" xlink:href="#m28a93092e6" y="119.435294118"/>
      </g>
     </g>
     <g id="text_12">
      <!-- 178 -->
      <defs>
       <path d="M 31.78125 34.625 
Q 24.75 34.625 20.71875 30.859375 
Q 16.703125 27.09375 16.703125 20.515625 
Q 16.703125 13.921875 20.71875 10.15625 
Q 24.75 6.390625 31.78125 6.390625 
Q 38.8125 6.390625 42.859375 10.171875 
Q 46.921875 13.96875 46.921875 20.515625 
Q 46.921875 27.09375 42.890625 30.859375 
Q 38.875 34.625 31.78125 34.625 
M 21.921875 38.8125 
Q 15.578125 40.375 12.03125 44.71875 
Q 8.5 49.078125 8.5 55.328125 
Q 8.5 64.0625 14.71875 69.140625 
Q 20.953125 74.21875 31.78125 74.21875 
Q 42.671875 74.21875 48.875 69.140625 
Q 55.078125 64.0625 55.078125 55.328125 
Q 55.078125 49.078125 51.53125 44.71875 
Q 48 40.375 41.703125 38.8125 
Q 48.828125 37.15625 52.796875 32.3125 
Q 56.78125 27.484375 56.78125 20.515625 
Q 56.78125 9.90625 50.3125 4.234375 
Q 43.84375 -1.421875 31.78125 -1.421875 
Q 19.734375 -1.421875 13.25 4.234375 
Q 6.78125 9.90625 6.78125 20.515625 
Q 6.78125 27.484375 10.78125 32.3125 
Q 14.796875 37.15625 21.921875 38.8125 
M 18.3125 54.390625 
Q 18.3125 48.734375 21.84375 45.5625 
Q 25.390625 42.390625 31.78125 42.390625 
Q 38.140625 42.390625 41.71875 45.5625 
Q 45.3125 48.734375 45.3125 54.390625 
Q 45.3125 60.0625 41.71875 63.234375 
Q 38.140625 66.40625 31.78125 66.40625 
Q 25.390625 66.40625 21.84375 63.234375 
Q 18.3125 60.0625 18.3125 54.390625 
" id="BitstreamVeraSans-Roman-38"/>
      </defs>
      <g transform="translate(29.8175 122.746544118)scale(0.12 -0.12)">
       <use xlink:href="#BitstreamVeraSans-Roman-31"/>
       <use x="63.623046875" xlink:href="#BitstreamVeraSans-Roman-37"/>
       <use x="127.24609375" xlink:href="#BitstreamVeraSans-Roman-38"/>
      </g>
     </g>
    </g>
    <g id="ytick_5">
     <g id="line2d_29">
      <path clip-path="url(#p456dd75532)" d="M 56.7225 60.282353 
L 707.04 60.282353 
" style="fill:none;stroke:#000000;stroke-dasharray:1.000000,3.000000;stroke-dashoffset:0.0;stroke-width:0.5;"/>
     </g>
     <g id="line2d_30">
      <g>
       <use style="stroke:#000000;stroke-width:0.5;" x="56.7225" xlink:href="#m9813442ac6" y="60.2823529412"/>
      </g>
     </g>
     <g id="line2d_31">
      <g>
       <use style="stroke:#000000;stroke-width:0.5;" x="707.04" xlink:href="#m28a93092e6" y="60.2823529412"/>
      </g>
     </g>
     <g id="text_13">
      <!-- 180 -->
      <g transform="translate(29.8175 63.5936029412)scale(0.12 -0.12)">
       <use xlink:href="#BitstreamVeraSans-Roman-31"/>
       <use x="63.623046875" xlink:href="#BitstreamVeraSans-Roman-38"/>
       <use x="127.24609375" xlink:href="#BitstreamVeraSans-Roman-30"/>
      </g>
     </g>
    </g>
    <g id="text_14">
     <!-- value -->
     <defs>
      <path d="M 9.421875 75.984375 
L 18.40625 75.984375 
L 18.40625 0 
L 9.421875 0 
z
" id="BitstreamVeraSans-Roman-6c"/>
      <path d="M 34.28125 27.484375 
Q 23.390625 27.484375 19.1875 25 
Q 14.984375 22.515625 14.984375 16.5 
Q 14.984375 11.71875 18.140625 8.90625 
Q 21.296875 6.109375 26.703125 6.109375 
Q 34.1875 6.109375 38.703125 11.40625 
Q 43.21875 16.703125 43.21875 25.484375 
L 43.21875 27.484375 
z
M 52.203125 31.203125 
L 52.203125 0 
L 43.21875 0 
L 43.21875 8.296875 
Q 40.140625 3.328125 35.546875 0.953125 
Q 30.953125 -1.421875 24.3125 -1.421875 
Q 15.921875 -1.421875 10.953125 3.296875 
Q 6 8.015625 6 15.921875 
Q 6 25.140625 12.171875 29.828125 
Q 18.359375 34.515625 30.609375 34.515625 
L 43.21875 34.515625 
L 43.21875 35.40625 
Q 43.21875 41.609375 39.140625 45 
Q 35.0625 48.390625 27.6875 48.390625 
Q 23 48.390625 18.546875 47.265625 
Q 14.109375 46.140625 10.015625 43.890625 
L 10.015625 52.203125 
Q 14.9375 54.109375 19.578125 55.046875 
Q 24.21875 56 28.609375 56 
Q 40.484375 56 46.34375 49.84375 
Q 52.203125 43.703125 52.203125 31.203125 
" id="BitstreamVeraSans-Roman-61"/>
      <path d="M 2.984375 54.6875 
L 12.5 54.6875 
L 29.59375 8.796875 
L 46.6875 54.6875 
L 56.203125 54.6875 
L 35.6875 0 
L 23.484375 0 
z
" id="BitstreamVeraSans-Roman-76"/>
     </defs>
     <g transform="translate(22.321875 180.189375)rotate(-90.0)scale(0.12 -0.12)">
      <use xlink:href="#BitstreamVeraSans-Roman-76"/>
      <use x="59.1796875" xlink:href="#BitstreamVeraSans-Roman-61"/>
      <use x="120.458984375" xlink:href="#BitstreamVeraSans-Roman-6c"/>
      <use x="148.2421875" xlink:href="#BitstreamVeraSans-Roman-75"/>
      <use x="211.62109375" xlink:href="#BitstreamVeraSans-Roman-65"/>
     </g>
    </g>
   </g>
   <g id="legend_1">
    <g id="patch_7">
     <path d="M 63.9225 307.44 
L 144.423 307.44 
L 144.423 260.847 
L 63.9225 260.847 
z
" style="fill:#ffffff;stroke:#000000;stroke-linejoin:miter;"/>
    </g>
    <g id="line2d_32">
     <path d="M 74.0025 272.50875 
L 94.1625 272.50875 
" style="fill:none;stroke:#ff0000;stroke-linecap:square;stroke-width:2.0;"/>
    </g>
    <g id="line2d_33">
     <g>
      <use style="fill:#ff0000;stroke:#000000;stroke-width:0.5;" x="74.0025" xlink:href="#m616f13dc9c" y="272.50875"/>
      <use style="fill:#ff0000;stroke:#000000;stroke-width:0.5;" x="94.1625" xlink:href="#m616f13dc9c" y="272.50875"/>
     </g>
    </g>
    <g id="text_15">
     <!-- exp -->
     <defs>
      <path d="M 54.890625 54.6875 
L 35.109375 28.078125 
L 55.90625 0 
L 45.3125 0 
L 29.390625 21.484375 
L 13.484375 0 
L 2.875 0 
L 24.125 28.609375 
L 4.6875 54.6875 
L 15.28125 54.6875 
L 29.78125 35.203125 
L 44.28125 54.6875 
z
" id="BitstreamVeraSans-Roman-78"/>
      <path d="M 18.109375 8.203125 
L 18.109375 -20.796875 
L 9.078125 -20.796875 
L 9.078125 54.6875 
L 18.109375 54.6875 
L 18.109375 46.390625 
Q 20.953125 51.265625 25.265625 53.625 
Q 29.59375 56 35.59375 56 
Q 45.5625 56 51.78125 48.09375 
Q 58.015625 40.1875 58.015625 27.296875 
Q 58.015625 14.40625 51.78125 6.484375 
Q 45.5625 -1.421875 35.59375 -1.421875 
Q 29.59375 -1.421875 25.265625 0.953125 
Q 20.953125 3.328125 18.109375 8.203125 
M 48.6875 27.296875 
Q 48.6875 37.203125 44.609375 42.84375 
Q 40.53125 48.484375 33.40625 48.484375 
Q 26.265625 48.484375 22.1875 42.84375 
Q 18.109375 37.203125 18.109375 27.296875 
Q 18.109375 17.390625 22.1875 11.75 
Q 26.265625 6.109375 33.40625 6.109375 
Q 40.53125 6.109375 44.609375 11.75 
Q 48.6875 17.390625 48.6875 27.296875 
" id="BitstreamVeraSans-Roman-70"/>
     </defs>
     <g transform="translate(110.0025 277.54875)scale(0.144 -0.144)">
      <use xlink:href="#BitstreamVeraSans-Roman-65"/>
      <use x="61.5078125" xlink:href="#BitstreamVeraSans-Roman-78"/>
      <use x="120.6875" xlink:href="#BitstreamVeraSans-Roman-70"/>
     </g>
    </g>
    <g id="line2d_34">
     <path d="M 74.0025 293.64525 
L 94.1625 293.64525 
" style="fill:none;stroke:#0000ff;stroke-linecap:square;stroke-width:2.0;"/>
    </g>
    <g id="line2d_35">
     <g>
      <use style="fill:#0000ff;stroke:#000000;stroke-width:0.5;" x="74.0025" xlink:href="#m94cb4f36f6" y="293.64525"/>
      <use style="fill:#0000ff;stroke:#000000;stroke-width:0.5;" x="94.1625" xlink:href="#m94cb4f36f6" y="293.64525"/>
     </g>
    </g>
    <g id="text_16">
     <!-- calc -->
     <defs>
      <path d="M 48.78125 52.59375 
L 48.78125 44.1875 
Q 44.96875 46.296875 41.140625 47.34375 
Q 37.3125 48.390625 33.40625 48.390625 
Q 24.65625 48.390625 19.8125 42.84375 
Q 14.984375 37.3125 14.984375 27.296875 
Q 14.984375 17.28125 19.8125 11.734375 
Q 24.65625 6.203125 33.40625 6.203125 
Q 37.3125 6.203125 41.140625 7.25 
Q 44.96875 8.296875 48.78125 10.40625 
L 48.78125 2.09375 
Q 45.015625 0.34375 40.984375 -0.53125 
Q 36.96875 -1.421875 32.421875 -1.421875 
Q 20.0625 -1.421875 12.78125 6.34375 
Q 5.515625 14.109375 5.515625 27.296875 
Q 5.515625 40.671875 12.859375 48.328125 
Q 20.21875 56 33.015625 56 
Q 37.15625 56 41.109375 55.140625 
Q 45.0625 54.296875 48.78125 52.59375 
" id="BitstreamVeraSans-Roman-63"/>
     </defs>
     <g transform="translate(110.0025 298.68525)scale(0.144 -0.144)">
      <use xlink:href="#BitstreamVeraSans-Roman-63"/>
      <use x="54.98046875" xlink:href="#BitstreamVeraSans-Roman-61"/>
      <use x="116.259765625" xlink:href="#BitstreamVeraSans-Roman-6c"/>
      <use x="144.04296875" xlink:href="#BitstreamVeraSans-Roman-63"/>
     </g>
    </g>
   </g>
  </g>
 </g>
 <defs>
  <clipPath id="p456dd75532">
   <rect height="301.68" width="650.3175" x="56.7225" y="12.96"/>
  </clipPath>
 </defs>
</svg>
