<?xml version="1.0" encoding="utf-8" standalone="no"?>
<!DOCTYPE svg PUBLIC "-//W3C//DTD SVG 1.1//EN"
  "http://www.w3.org/Graphics/SVG/1.1/DTD/svg11.dtd">
<!-- Created with matplotlib (http://matplotlib.org/) -->
<svg height="360pt" version="1.1" viewBox="0 0 720 360" width="720pt" xmlns="http://www.w3.org/2000/svg" xmlns:xlink="http://www.w3.org/1999/xlink">
 <defs>
  <style type="text/css">
*{stroke-linecap:butt;stroke-linejoin:round;stroke-miterlimit:100000;}
  </style>
 </defs>
 <g id="figure_1">
  <g id="patch_1">
   <path d="M 0 360 
L 720 360 
L 720 0 
L 0 0 
z
" style="fill:#ffffff;"/>
  </g>
  <g id="axes_1">
   <g id="patch_2">
    <path d="M 56.7225 314.64 
L 707.04 314.64 
L 707.04 12.96 
L 56.7225 12.96 
z
" style="fill:#ffffff;"/>
   </g>
   <g id="line2d_1">
    <path clip-path="url(#pd03409a486)" d="M 56.7225 109.857219 
L 65.510574 187.77457 
L 74.298649 153.810596 
L 83.086723 126.839205 
L 91.874797 60.909139 
L 100.662872 185.776689 
L 109.450946 126.839205 
L 118.23902 280.676026 
L 127.027095 247.710993 
L 135.815169 120.845563 
L 144.603243 133.831788 
L 153.391318 63.90596 
L 162.179392 122.843444 
L 170.967466 87.88053 
L 179.755541 114.851921 
L 188.543615 164.79894 
L 197.331689 145.819073 
L 214.907838 304.650596 
L 223.695912 100.866755 
L 232.483986 249.708874 
L 241.272061 127.838146 
L 250.060135 127.838146 
L 258.848209 125.840265 
L 267.636284 118.847682 
L 276.424358 150.813775 
L 285.212432 105.861457 
L 294.000507 137.82755 
L 302.788581 126.839205 
L 311.576655 103.863576 
L 320.36473 142.822252 
L 329.152804 185.776689 
L 337.940878 195.766093 
L 346.728953 250.707815 
L 355.517027 137.82755 
L 381.88125 203.757616 
L 390.669324 170.792583 
L 399.457399 159.804238 
L 408.245473 109.857219 
L 417.033547 95.872053 
L 425.821622 116.849801 
L 434.609696 88.87947 
L 443.39777 12.96 
L 452.185845 314.64 
L 460.973919 119.846623 
L 469.761993 109.857219 
L 478.550068 82.885828 
L 487.338142 108.858278 
L 496.126216 136.828609 
L 504.914291 254.703576 
L 513.702365 146.818013 
L 522.490439 250.707815 
L 531.278514 158.805298 
L 540.066588 204.756556 
L 548.854662 94.873113 
L 557.642736 181.780927 
L 566.430811 179.783046 
L 575.218885 150.813775 
L 584.006959 90.877351 
L 592.795034 133.831788 
L 601.583108 193.768212 
L 610.371182 190.771391 
L 619.159257 165.797881 
L 627.947331 62.90702 
L 636.735405 145.819073 
L 645.52348 99.867815 
L 654.311554 72.896424 
L 663.099628 108.858278 
L 671.887703 102.864636 
L 680.675777 95.872053 
L 689.463851 120.845563 
L 698.251926 229.730066 
L 707.04 188.77351 
" style="fill:none;stroke:#ff0000;stroke-linecap:square;stroke-width:2.0;"/>
    <defs>
     <path d="M 0 3 
C 0.795609 3 1.55874 2.683901 2.12132 2.12132 
C 2.683901 1.55874 3 0.795609 3 0 
C 3 -0.795609 2.683901 -1.55874 2.12132 -2.12132 
C 1.55874 -2.683901 0.795609 -3 0 -3 
C -0.795609 -3 -1.55874 -2.683901 -2.12132 -2.12132 
C -2.683901 -1.55874 -3 -0.795609 -3 0 
C -3 0.795609 -2.683901 1.55874 -2.12132 2.12132 
C -1.55874 2.683901 -0.795609 3 0 3 
z
" id="mbd7c534727" style="stroke:#000000;stroke-width:0.5;"/>
    </defs>
    <g clip-path="url(#pd03409a486)">
     <use style="fill:#ff0000;stroke:#000000;stroke-width:0.5;" x="56.7225" xlink:href="#mbd7c534727" y="109.857218543"/>
     <use style="fill:#ff0000;stroke:#000000;stroke-width:0.5;" x="65.5105743243" xlink:href="#mbd7c534727" y="187.774569536"/>
     <use style="fill:#ff0000;stroke:#000000;stroke-width:0.5;" x="74.2986486486" xlink:href="#mbd7c534727" y="153.810596026"/>
     <use style="fill:#ff0000;stroke:#000000;stroke-width:0.5;" x="83.086722973" xlink:href="#mbd7c534727" y="126.839205298"/>
     <use style="fill:#ff0000;stroke:#000000;stroke-width:0.5;" x="91.8747972973" xlink:href="#mbd7c534727" y="60.9091390728"/>
     <use style="fill:#ff0000;stroke:#000000;stroke-width:0.5;" x="100.662871622" xlink:href="#mbd7c534727" y="185.776688742"/>
     <use style="fill:#ff0000;stroke:#000000;stroke-width:0.5;" x="109.450945946" xlink:href="#mbd7c534727" y="126.839205298"/>
     <use style="fill:#ff0000;stroke:#000000;stroke-width:0.5;" x="118.23902027" xlink:href="#mbd7c534727" y="280.67602649"/>
     <use style="fill:#ff0000;stroke:#000000;stroke-width:0.5;" x="127.027094595" xlink:href="#mbd7c534727" y="247.710993377"/>
     <use style="fill:#ff0000;stroke:#000000;stroke-width:0.5;" x="135.815168919" xlink:href="#mbd7c534727" y="120.845562914"/>
     <use style="fill:#ff0000;stroke:#000000;stroke-width:0.5;" x="144.603243243" xlink:href="#mbd7c534727" y="133.831788079"/>
     <use style="fill:#ff0000;stroke:#000000;stroke-width:0.5;" x="153.391317568" xlink:href="#mbd7c534727" y="63.9059602649"/>
     <use style="fill:#ff0000;stroke:#000000;stroke-width:0.5;" x="162.179391892" xlink:href="#mbd7c534727" y="122.843443709"/>
     <use style="fill:#ff0000;stroke:#000000;stroke-width:0.5;" x="170.967466216" xlink:href="#mbd7c534727" y="87.8805298013"/>
     <use style="fill:#ff0000;stroke:#000000;stroke-width:0.5;" x="179.755540541" xlink:href="#mbd7c534727" y="114.85192053"/>
     <use style="fill:#ff0000;stroke:#000000;stroke-width:0.5;" x="188.543614865" xlink:href="#mbd7c534727" y="164.798940397"/>
     <use style="fill:#ff0000;stroke:#000000;stroke-width:0.5;" x="197.331689189" xlink:href="#mbd7c534727" y="145.819072848"/>
     <use style="fill:#ff0000;stroke:#000000;stroke-width:0.5;" x="214.907837838" xlink:href="#mbd7c534727" y="304.650596026"/>
     <use style="fill:#ff0000;stroke:#000000;stroke-width:0.5;" x="223.695912162" xlink:href="#mbd7c534727" y="100.866754967"/>
     <use style="fill:#ff0000;stroke:#000000;stroke-width:0.5;" x="232.483986486" xlink:href="#mbd7c534727" y="249.708874172"/>
     <use style="fill:#ff0000;stroke:#000000;stroke-width:0.5;" x="241.272060811" xlink:href="#mbd7c534727" y="127.838145695"/>
     <use style="fill:#ff0000;stroke:#000000;stroke-width:0.5;" x="250.060135135" xlink:href="#mbd7c534727" y="127.838145695"/>
     <use style="fill:#ff0000;stroke:#000000;stroke-width:0.5;" x="258.848209459" xlink:href="#mbd7c534727" y="125.840264901"/>
     <use style="fill:#ff0000;stroke:#000000;stroke-width:0.5;" x="267.636283784" xlink:href="#mbd7c534727" y="118.847682119"/>
     <use style="fill:#ff0000;stroke:#000000;stroke-width:0.5;" x="276.424358108" xlink:href="#mbd7c534727" y="150.813774834"/>
     <use style="fill:#ff0000;stroke:#000000;stroke-width:0.5;" x="285.212432432" xlink:href="#mbd7c534727" y="105.861456954"/>
     <use style="fill:#ff0000;stroke:#000000;stroke-width:0.5;" x="294.000506757" xlink:href="#mbd7c534727" y="137.827549669"/>
     <use style="fill:#ff0000;stroke:#000000;stroke-width:0.5;" x="302.788581081" xlink:href="#mbd7c534727" y="126.839205298"/>
     <use style="fill:#ff0000;stroke:#000000;stroke-width:0.5;" x="311.576655405" xlink:href="#mbd7c534727" y="103.863576159"/>
     <use style="fill:#ff0000;stroke:#000000;stroke-width:0.5;" x="320.36472973" xlink:href="#mbd7c534727" y="142.822251656"/>
     <use style="fill:#ff0000;stroke:#000000;stroke-width:0.5;" x="329.152804054" xlink:href="#mbd7c534727" y="185.776688742"/>
     <use style="fill:#ff0000;stroke:#000000;stroke-width:0.5;" x="337.940878378" xlink:href="#mbd7c534727" y="195.766092715"/>
     <use style="fill:#ff0000;stroke:#000000;stroke-width:0.5;" x="346.728952703" xlink:href="#mbd7c534727" y="250.70781457"/>
     <use style="fill:#ff0000;stroke:#000000;stroke-width:0.5;" x="355.517027027" xlink:href="#mbd7c534727" y="137.827549669"/>
     <use style="fill:#ff0000;stroke:#000000;stroke-width:0.5;" x="381.88125" xlink:href="#mbd7c534727" y="203.757615894"/>
     <use style="fill:#ff0000;stroke:#000000;stroke-width:0.5;" x="390.669324324" xlink:href="#mbd7c534727" y="170.792582781"/>
     <use style="fill:#ff0000;stroke:#000000;stroke-width:0.5;" x="399.457398649" xlink:href="#mbd7c534727" y="159.804238411"/>
     <use style="fill:#ff0000;stroke:#000000;stroke-width:0.5;" x="408.245472973" xlink:href="#mbd7c534727" y="109.857218543"/>
     <use style="fill:#ff0000;stroke:#000000;stroke-width:0.5;" x="417.033547297" xlink:href="#mbd7c534727" y="95.8720529801"/>
     <use style="fill:#ff0000;stroke:#000000;stroke-width:0.5;" x="425.821621622" xlink:href="#mbd7c534727" y="116.849801325"/>
     <use style="fill:#ff0000;stroke:#000000;stroke-width:0.5;" x="434.609695946" xlink:href="#mbd7c534727" y="88.8794701987"/>
     <use style="fill:#ff0000;stroke:#000000;stroke-width:0.5;" x="443.39777027" xlink:href="#mbd7c534727" y="12.96"/>
     <use style="fill:#ff0000;stroke:#000000;stroke-width:0.5;" x="452.185844595" xlink:href="#mbd7c534727" y="314.64"/>
     <use style="fill:#ff0000;stroke:#000000;stroke-width:0.5;" x="460.973918919" xlink:href="#mbd7c534727" y="119.846622517"/>
     <use style="fill:#ff0000;stroke:#000000;stroke-width:0.5;" x="469.761993243" xlink:href="#mbd7c534727" y="109.857218543"/>
     <use style="fill:#ff0000;stroke:#000000;stroke-width:0.5;" x="478.550067568" xlink:href="#mbd7c534727" y="82.8858278146"/>
     <use style="fill:#ff0000;stroke:#000000;stroke-width:0.5;" x="487.338141892" xlink:href="#mbd7c534727" y="108.858278146"/>
     <use style="fill:#ff0000;stroke:#000000;stroke-width:0.5;" x="496.126216216" xlink:href="#mbd7c534727" y="136.828609272"/>
     <use style="fill:#ff0000;stroke:#000000;stroke-width:0.5;" x="504.914290541" xlink:href="#mbd7c534727" y="254.703576159"/>
     <use style="fill:#ff0000;stroke:#000000;stroke-width:0.5;" x="513.702364865" xlink:href="#mbd7c534727" y="146.818013245"/>
     <use style="fill:#ff0000;stroke:#000000;stroke-width:0.5;" x="522.490439189" xlink:href="#mbd7c534727" y="250.70781457"/>
     <use style="fill:#ff0000;stroke:#000000;stroke-width:0.5;" x="531.278513514" xlink:href="#mbd7c534727" y="158.805298013"/>
     <use style="fill:#ff0000;stroke:#000000;stroke-width:0.5;" x="540.066587838" xlink:href="#mbd7c534727" y="204.756556291"/>
     <use style="fill:#ff0000;stroke:#000000;stroke-width:0.5;" x="548.854662162" xlink:href="#mbd7c534727" y="94.8731125828"/>
     <use style="fill:#ff0000;stroke:#000000;stroke-width:0.5;" x="557.642736486" xlink:href="#mbd7c534727" y="181.780927152"/>
     <use style="fill:#ff0000;stroke:#000000;stroke-width:0.5;" x="566.430810811" xlink:href="#mbd7c534727" y="179.783046358"/>
     <use style="fill:#ff0000;stroke:#000000;stroke-width:0.5;" x="575.218885135" xlink:href="#mbd7c534727" y="150.813774834"/>
     <use style="fill:#ff0000;stroke:#000000;stroke-width:0.5;" x="584.006959459" xlink:href="#mbd7c534727" y="90.8773509934"/>
     <use style="fill:#ff0000;stroke:#000000;stroke-width:0.5;" x="592.795033784" xlink:href="#mbd7c534727" y="133.831788079"/>
     <use style="fill:#ff0000;stroke:#000000;stroke-width:0.5;" x="601.583108108" xlink:href="#mbd7c534727" y="193.768211921"/>
     <use style="fill:#ff0000;stroke:#000000;stroke-width:0.5;" x="610.371182432" xlink:href="#mbd7c534727" y="190.771390728"/>
     <use style="fill:#ff0000;stroke:#000000;stroke-width:0.5;" x="619.159256757" xlink:href="#mbd7c534727" y="165.797880795"/>
     <use style="fill:#ff0000;stroke:#000000;stroke-width:0.5;" x="627.947331081" xlink:href="#mbd7c534727" y="62.9070198675"/>
     <use style="fill:#ff0000;stroke:#000000;stroke-width:0.5;" x="636.735405405" xlink:href="#mbd7c534727" y="145.819072848"/>
     <use style="fill:#ff0000;stroke:#000000;stroke-width:0.5;" x="645.52347973" xlink:href="#mbd7c534727" y="99.8678145695"/>
     <use style="fill:#ff0000;stroke:#000000;stroke-width:0.5;" x="654.311554054" xlink:href="#mbd7c534727" y="72.8964238411"/>
     <use style="fill:#ff0000;stroke:#000000;stroke-width:0.5;" x="663.099628378" xlink:href="#mbd7c534727" y="108.858278146"/>
     <use style="fill:#ff0000;stroke:#000000;stroke-width:0.5;" x="671.887702703" xlink:href="#mbd7c534727" y="102.864635762"/>
     <use style="fill:#ff0000;stroke:#000000;stroke-width:0.5;" x="680.675777027" xlink:href="#mbd7c534727" y="95.8720529801"/>
     <use style="fill:#ff0000;stroke:#000000;stroke-width:0.5;" x="689.463851351" xlink:href="#mbd7c534727" y="120.845562914"/>
     <use style="fill:#ff0000;stroke:#000000;stroke-width:0.5;" x="698.251925676" xlink:href="#mbd7c534727" y="229.730066225"/>
     <use style="fill:#ff0000;stroke:#000000;stroke-width:0.5;" x="707.04" xlink:href="#mbd7c534727" y="188.773509934"/>
    </g>
   </g>
   <g id="line2d_2">
    <path clip-path="url(#pd03409a486)" d="M 56.7225 165.130888 
L 65.510574 186.610704 
L 74.298649 150.04559 
L 83.086723 127.442765 
L 91.874797 76.508592 
L 100.662872 208.845319 
L 109.450946 140.152384 
L 118.23902 284.96238 
L 127.027095 249.457641 
L 135.815169 143.325917 
L 144.603243 130.654159 
L 153.391318 82.313835 
L 162.179392 130.079768 
L 170.967466 101.965889 
L 179.755541 129.676895 
L 188.543615 161.920094 
L 197.331689 146.518031 
L 214.907838 253.706933 
L 223.695912 132.203615 
L 232.483986 224.831962 
L 241.272061 120.059297 
L 250.060135 157.910747 
L 258.848209 186.176764 
L 267.636284 157.711159 
L 276.424358 171.419817 
L 285.212432 144.805548 
L 294.000507 184.196065 
L 302.788581 152.68489 
L 311.576655 146.78355 
L 320.36473 173.460453 
L 329.152804 179.015061 
L 337.940878 193.231581 
L 346.728953 285.727269 
L 355.517027 148.585438 
L 381.88125 194.943365 
L 390.669324 176.098954 
L 399.457399 176.409325 
L 408.245473 135.949742 
L 417.033547 115.038822 
L 425.821622 113.555995 
L 434.609696 78.833726 
L 443.39777 68.172235 
L 452.185845 290.743148 
L 460.973919 155.971804 
L 469.761993 119.772801 
L 478.550068 90.965358 
L 487.338142 130.16248 
L 496.126216 133.7266 
L 504.914291 295.678513 
L 513.702365 159.350719 
L 522.490439 262.667628 
L 531.278514 135.542873 
L 540.066588 214.710997 
L 548.854662 140.07077 
L 557.642736 204.249594 
L 566.430811 195.286801 
L 575.218885 176.541285 
L 584.006959 114.751327 
L 592.795034 174.692646 
L 601.583108 158.966427 
L 610.371182 209.444284 
L 619.159257 162.982467 
L 627.947331 83.919731 
L 636.735405 175.251353 
L 645.52348 100.935082 
L 654.311554 96.151956 
L 663.099628 88.92682 
L 671.887703 116.952393 
L 680.675777 110.588343 
L 689.463851 146.559288 
L 698.251926 262.763527 
L 707.04 265.620197 
" style="fill:none;stroke:#0000ff;stroke-linecap:square;stroke-width:2.0;"/>
    <defs>
     <path d="M 0 3 
C 0.795609 3 1.55874 2.683901 2.12132 2.12132 
C 2.683901 1.55874 3 0.795609 3 0 
C 3 -0.795609 2.683901 -1.55874 2.12132 -2.12132 
C 1.55874 -2.683901 0.795609 -3 0 -3 
C -0.795609 -3 -1.55874 -2.683901 -2.12132 -2.12132 
C -2.683901 -1.55874 -3 -0.795609 -3 0 
C -3 0.795609 -2.683901 1.55874 -2.12132 2.12132 
C -1.55874 2.683901 -0.795609 3 0 3 
z
" id="m7bd416fa18" style="stroke:#000000;stroke-width:0.5;"/>
    </defs>
    <g clip-path="url(#pd03409a486)">
     <use style="fill:#0000ff;stroke:#000000;stroke-width:0.5;" x="56.7225" xlink:href="#m7bd416fa18" y="165.130888291"/>
     <use style="fill:#0000ff;stroke:#000000;stroke-width:0.5;" x="65.5105743243" xlink:href="#m7bd416fa18" y="186.610704079"/>
     <use style="fill:#0000ff;stroke:#000000;stroke-width:0.5;" x="74.2986486486" xlink:href="#m7bd416fa18" y="150.045589669"/>
     <use style="fill:#0000ff;stroke:#000000;stroke-width:0.5;" x="83.086722973" xlink:href="#m7bd416fa18" y="127.442765086"/>
     <use style="fill:#0000ff;stroke:#000000;stroke-width:0.5;" x="91.8747972973" xlink:href="#m7bd416fa18" y="76.5085923179"/>
     <use style="fill:#0000ff;stroke:#000000;stroke-width:0.5;" x="100.662871622" xlink:href="#m7bd416fa18" y="208.845319232"/>
     <use style="fill:#0000ff;stroke:#000000;stroke-width:0.5;" x="109.450945946" xlink:href="#m7bd416fa18" y="140.152383656"/>
     <use style="fill:#0000ff;stroke:#000000;stroke-width:0.5;" x="118.23902027" xlink:href="#m7bd416fa18" y="284.962379841"/>
     <use style="fill:#0000ff;stroke:#000000;stroke-width:0.5;" x="127.027094595" xlink:href="#m7bd416fa18" y="249.457640662"/>
     <use style="fill:#0000ff;stroke:#000000;stroke-width:0.5;" x="135.815168919" xlink:href="#m7bd416fa18" y="143.325917404"/>
     <use style="fill:#0000ff;stroke:#000000;stroke-width:0.5;" x="144.603243243" xlink:href="#m7bd416fa18" y="130.654158675"/>
     <use style="fill:#0000ff;stroke:#000000;stroke-width:0.5;" x="153.391317568" xlink:href="#m7bd416fa18" y="82.313834543"/>
     <use style="fill:#0000ff;stroke:#000000;stroke-width:0.5;" x="162.179391892" xlink:href="#m7bd416fa18" y="130.079767947"/>
     <use style="fill:#0000ff;stroke:#000000;stroke-width:0.5;" x="170.967466216" xlink:href="#m7bd416fa18" y="101.965889086"/>
     <use style="fill:#0000ff;stroke:#000000;stroke-width:0.5;" x="179.755540541" xlink:href="#m7bd416fa18" y="129.676895285"/>
     <use style="fill:#0000ff;stroke:#000000;stroke-width:0.5;" x="188.543614865" xlink:href="#m7bd416fa18" y="161.920094066"/>
     <use style="fill:#0000ff;stroke:#000000;stroke-width:0.5;" x="197.331689189" xlink:href="#m7bd416fa18" y="146.518031444"/>
     <use style="fill:#0000ff;stroke:#000000;stroke-width:0.5;" x="214.907837838" xlink:href="#m7bd416fa18" y="253.706933325"/>
     <use style="fill:#0000ff;stroke:#000000;stroke-width:0.5;" x="223.695912162" xlink:href="#m7bd416fa18" y="132.203615126"/>
     <use style="fill:#0000ff;stroke:#000000;stroke-width:0.5;" x="232.483986486" xlink:href="#m7bd416fa18" y="224.831961775"/>
     <use style="fill:#0000ff;stroke:#000000;stroke-width:0.5;" x="241.272060811" xlink:href="#m7bd416fa18" y="120.059296927"/>
     <use style="fill:#0000ff;stroke:#000000;stroke-width:0.5;" x="250.060135135" xlink:href="#m7bd416fa18" y="157.910746887"/>
     <use style="fill:#0000ff;stroke:#000000;stroke-width:0.5;" x="258.848209459" xlink:href="#m7bd416fa18" y="186.176764371"/>
     <use style="fill:#0000ff;stroke:#000000;stroke-width:0.5;" x="267.636283784" xlink:href="#m7bd416fa18" y="157.711158596"/>
     <use style="fill:#0000ff;stroke:#000000;stroke-width:0.5;" x="276.424358108" xlink:href="#m7bd416fa18" y="171.419817457"/>
     <use style="fill:#0000ff;stroke:#000000;stroke-width:0.5;" x="285.212432432" xlink:href="#m7bd416fa18" y="144.805547921"/>
     <use style="fill:#0000ff;stroke:#000000;stroke-width:0.5;" x="294.000506757" xlink:href="#m7bd416fa18" y="184.196065351"/>
     <use style="fill:#0000ff;stroke:#000000;stroke-width:0.5;" x="302.788581081" xlink:href="#m7bd416fa18" y="152.684890093"/>
     <use style="fill:#0000ff;stroke:#000000;stroke-width:0.5;" x="311.576655405" xlink:href="#m7bd416fa18" y="146.783549801"/>
     <use style="fill:#0000ff;stroke:#000000;stroke-width:0.5;" x="320.36472973" xlink:href="#m7bd416fa18" y="173.460452901"/>
     <use style="fill:#0000ff;stroke:#000000;stroke-width:0.5;" x="329.152804054" xlink:href="#m7bd416fa18" y="179.01506098"/>
     <use style="fill:#0000ff;stroke:#000000;stroke-width:0.5;" x="337.940878378" xlink:href="#m7bd416fa18" y="193.231581139"/>
     <use style="fill:#0000ff;stroke:#000000;stroke-width:0.5;" x="346.728952703" xlink:href="#m7bd416fa18" y="285.727268503"/>
     <use style="fill:#0000ff;stroke:#000000;stroke-width:0.5;" x="355.517027027" xlink:href="#m7bd416fa18" y="148.58543849"/>
     <use style="fill:#0000ff;stroke:#000000;stroke-width:0.5;" x="381.88125" xlink:href="#m7bd416fa18" y="194.943365404"/>
     <use style="fill:#0000ff;stroke:#000000;stroke-width:0.5;" x="390.669324324" xlink:href="#m7bd416fa18" y="176.098954172"/>
     <use style="fill:#0000ff;stroke:#000000;stroke-width:0.5;" x="399.457398649" xlink:href="#m7bd416fa18" y="176.409324954"/>
     <use style="fill:#0000ff;stroke:#000000;stroke-width:0.5;" x="408.245472973" xlink:href="#m7bd416fa18" y="135.94974151"/>
     <use style="fill:#0000ff;stroke:#000000;stroke-width:0.5;" x="417.033547297" xlink:href="#m7bd416fa18" y="115.038822278"/>
     <use style="fill:#0000ff;stroke:#000000;stroke-width:0.5;" x="425.821621622" xlink:href="#m7bd416fa18" y="113.555995152"/>
     <use style="fill:#0000ff;stroke:#000000;stroke-width:0.5;" x="434.609695946" xlink:href="#m7bd416fa18" y="78.8337259868"/>
     <use style="fill:#0000ff;stroke:#000000;stroke-width:0.5;" x="443.39777027" xlink:href="#m7bd416fa18" y="68.1722349139"/>
     <use style="fill:#0000ff;stroke:#000000;stroke-width:0.5;" x="452.185844595" xlink:href="#m7bd416fa18" y="290.743148026"/>
     <use style="fill:#0000ff;stroke:#000000;stroke-width:0.5;" x="460.973918919" xlink:href="#m7bd416fa18" y="155.971803576"/>
     <use style="fill:#0000ff;stroke:#000000;stroke-width:0.5;" x="469.761993243" xlink:href="#m7bd416fa18" y="119.772800821"/>
     <use style="fill:#0000ff;stroke:#000000;stroke-width:0.5;" x="478.550067568" xlink:href="#m7bd416fa18" y="90.9653576424"/>
     <use style="fill:#0000ff;stroke:#000000;stroke-width:0.5;" x="487.338141892" xlink:href="#m7bd416fa18" y="130.162480212"/>
     <use style="fill:#0000ff;stroke:#000000;stroke-width:0.5;" x="496.126216216" xlink:href="#m7bd416fa18" y="133.726599656"/>
     <use style="fill:#0000ff;stroke:#000000;stroke-width:0.5;" x="504.914290541" xlink:href="#m7bd416fa18" y="295.678512954"/>
     <use style="fill:#0000ff;stroke:#000000;stroke-width:0.5;" x="513.702364865" xlink:href="#m7bd416fa18" y="159.35071947"/>
     <use style="fill:#0000ff;stroke:#000000;stroke-width:0.5;" x="522.490439189" xlink:href="#m7bd416fa18" y="262.667628477"/>
     <use style="fill:#0000ff;stroke:#000000;stroke-width:0.5;" x="531.278513514" xlink:href="#m7bd416fa18" y="135.542873086"/>
     <use style="fill:#0000ff;stroke:#000000;stroke-width:0.5;" x="540.066587838" xlink:href="#m7bd416fa18" y="214.710997351"/>
     <use style="fill:#0000ff;stroke:#000000;stroke-width:0.5;" x="548.854662162" xlink:href="#m7bd416fa18" y="140.070770225"/>
     <use style="fill:#0000ff;stroke:#000000;stroke-width:0.5;" x="557.642736486" xlink:href="#m7bd416fa18" y="204.24959404"/>
     <use style="fill:#0000ff;stroke:#000000;stroke-width:0.5;" x="566.430810811" xlink:href="#m7bd416fa18" y="195.286801113"/>
     <use style="fill:#0000ff;stroke:#000000;stroke-width:0.5;" x="575.218885135" xlink:href="#m7bd416fa18" y="176.54128498"/>
     <use style="fill:#0000ff;stroke:#000000;stroke-width:0.5;" x="584.006959459" xlink:href="#m7bd416fa18" y="114.751327232"/>
     <use style="fill:#0000ff;stroke:#000000;stroke-width:0.5;" x="592.795033784" xlink:href="#m7bd416fa18" y="174.692645881"/>
     <use style="fill:#0000ff;stroke:#000000;stroke-width:0.5;" x="601.583108108" xlink:href="#m7bd416fa18" y="158.966427099"/>
     <use style="fill:#0000ff;stroke:#000000;stroke-width:0.5;" x="610.371182432" xlink:href="#m7bd416fa18" y="209.444283894"/>
     <use style="fill:#0000ff;stroke:#000000;stroke-width:0.5;" x="619.159256757" xlink:href="#m7bd416fa18" y="162.982467179"/>
     <use style="fill:#0000ff;stroke:#000000;stroke-width:0.5;" x="627.947331081" xlink:href="#m7bd416fa18" y="83.9197311258"/>
     <use style="fill:#0000ff;stroke:#000000;stroke-width:0.5;" x="636.735405405" xlink:href="#m7bd416fa18" y="175.251353245"/>
     <use style="fill:#0000ff;stroke:#000000;stroke-width:0.5;" x="645.52347973" xlink:href="#m7bd416fa18" y="100.93508249"/>
     <use style="fill:#0000ff;stroke:#000000;stroke-width:0.5;" x="654.311554054" xlink:href="#m7bd416fa18" y="96.1519560795"/>
     <use style="fill:#0000ff;stroke:#000000;stroke-width:0.5;" x="663.099628378" xlink:href="#m7bd416fa18" y="88.9268199735"/>
     <use style="fill:#0000ff;stroke:#000000;stroke-width:0.5;" x="671.887702703" xlink:href="#m7bd416fa18" y="116.952392503"/>
     <use style="fill:#0000ff;stroke:#000000;stroke-width:0.5;" x="680.675777027" xlink:href="#m7bd416fa18" y="110.58834302"/>
     <use style="fill:#0000ff;stroke:#000000;stroke-width:0.5;" x="689.463851351" xlink:href="#m7bd416fa18" y="146.559287682"/>
     <use style="fill:#0000ff;stroke:#000000;stroke-width:0.5;" x="698.251925676" xlink:href="#m7bd416fa18" y="262.763526755"/>
     <use style="fill:#0000ff;stroke:#000000;stroke-width:0.5;" x="707.04" xlink:href="#m7bd416fa18" y="265.620196609"/>
    </g>
   </g>
   <g id="patch_3">
    <path d="M 707.04 314.64 
L 707.04 12.96 
" style="fill:none;stroke:#000000;stroke-linecap:square;stroke-linejoin:miter;"/>
   </g>
   <g id="patch_4">
    <path d="M 56.7225 12.96 
L 707.04 12.96 
" style="fill:none;stroke:#000000;stroke-linecap:square;stroke-linejoin:miter;"/>
   </g>
   <g id="patch_5">
    <path d="M 56.7225 314.64 
L 707.04 314.64 
" style="fill:none;stroke:#000000;stroke-linecap:square;stroke-linejoin:miter;"/>
   </g>
   <g id="patch_6">
    <path d="M 56.7225 314.64 
L 56.7225 12.96 
" style="fill:none;stroke:#000000;stroke-linecap:square;stroke-linejoin:miter;"/>
   </g>
   <g id="matplotlib.axis_1">
    <g id="xtick_1">
     <g id="line2d_3">
      <defs>
       <path d="M 0 0 
L 0 -4 
" id="m040664dcb7" style="stroke:#000000;stroke-width:0.5;"/>
      </defs>
      <g>
       <use style="stroke:#000000;stroke-width:0.5;" x="127.027094595" xlink:href="#m040664dcb7" y="314.64"/>
      </g>
     </g>
     <g id="line2d_4">
      <defs>
       <path d="M 0 0 
L 0 4 
" id="mfeadc5130c" style="stroke:#000000;stroke-width:0.5;"/>
      </defs>
      <g>
       <use style="stroke:#000000;stroke-width:0.5;" x="127.027094595" xlink:href="#mfeadc5130c" y="12.96"/>
      </g>
     </g>
     <g id="text_1">
      <!-- 10 -->
      <defs>
       <path d="M 12.40625 8.296875 
L 28.515625 8.296875 
L 28.515625 63.921875 
L 10.984375 60.40625 
L 10.984375 69.390625 
L 28.421875 72.90625 
L 38.28125 72.90625 
L 38.28125 8.296875 
L 54.390625 8.296875 
L 54.390625 0 
L 12.40625 0 
z
" id="BitstreamVeraSans-Roman-31"/>
       <path d="M 31.78125 66.40625 
Q 24.171875 66.40625 20.328125 58.90625 
Q 16.5 51.421875 16.5 36.375 
Q 16.5 21.390625 20.328125 13.890625 
Q 24.171875 6.390625 31.78125 6.390625 
Q 39.453125 6.390625 43.28125 13.890625 
Q 47.125 21.390625 47.125 36.375 
Q 47.125 51.421875 43.28125 58.90625 
Q 39.453125 66.40625 31.78125 66.40625 
M 31.78125 74.21875 
Q 44.046875 74.21875 50.515625 64.515625 
Q 56.984375 54.828125 56.984375 36.375 
Q 56.984375 17.96875 50.515625 8.265625 
Q 44.046875 -1.421875 31.78125 -1.421875 
Q 19.53125 -1.421875 13.0625 8.265625 
Q 6.59375 17.96875 6.59375 36.375 
Q 6.59375 54.828125 13.0625 64.515625 
Q 19.53125 74.21875 31.78125 74.21875 
" id="BitstreamVeraSans-Roman-30"/>
      </defs>
      <g transform="translate(119.392094595 327.758125)scale(0.12 -0.12)">
       <use xlink:href="#BitstreamVeraSans-Roman-31"/>
       <use x="63.623046875" xlink:href="#BitstreamVeraSans-Roman-30"/>
      </g>
     </g>
    </g>
    <g id="xtick_2">
     <g id="line2d_5">
      <g>
       <use style="stroke:#000000;stroke-width:0.5;" x="214.907837838" xlink:href="#m040664dcb7" y="314.64"/>
      </g>
     </g>
     <g id="line2d_6">
      <g>
       <use style="stroke:#000000;stroke-width:0.5;" x="214.907837838" xlink:href="#mfeadc5130c" y="12.96"/>
      </g>
     </g>
     <g id="text_2">
      <!-- 20 -->
      <defs>
       <path d="M 19.1875 8.296875 
L 53.609375 8.296875 
L 53.609375 0 
L 7.328125 0 
L 7.328125 8.296875 
Q 12.9375 14.109375 22.625 23.890625 
Q 32.328125 33.6875 34.8125 36.53125 
Q 39.546875 41.84375 41.421875 45.53125 
Q 43.3125 49.21875 43.3125 52.78125 
Q 43.3125 58.59375 39.234375 62.25 
Q 35.15625 65.921875 28.609375 65.921875 
Q 23.96875 65.921875 18.8125 64.3125 
Q 13.671875 62.703125 7.8125 59.421875 
L 7.8125 69.390625 
Q 13.765625 71.78125 18.9375 73 
Q 24.125 74.21875 28.421875 74.21875 
Q 39.75 74.21875 46.484375 68.546875 
Q 53.21875 62.890625 53.21875 53.421875 
Q 53.21875 48.921875 51.53125 44.890625 
Q 49.859375 40.875 45.40625 35.40625 
Q 44.1875 33.984375 37.640625 27.21875 
Q 31.109375 20.453125 19.1875 8.296875 
" id="BitstreamVeraSans-Roman-32"/>
      </defs>
      <g transform="translate(207.272837838 327.758125)scale(0.12 -0.12)">
       <use xlink:href="#BitstreamVeraSans-Roman-32"/>
       <use x="63.623046875" xlink:href="#BitstreamVeraSans-Roman-30"/>
      </g>
     </g>
    </g>
    <g id="xtick_3">
     <g id="line2d_7">
      <g>
       <use style="stroke:#000000;stroke-width:0.5;" x="302.788581081" xlink:href="#m040664dcb7" y="314.64"/>
      </g>
     </g>
     <g id="line2d_8">
      <g>
       <use style="stroke:#000000;stroke-width:0.5;" x="302.788581081" xlink:href="#mfeadc5130c" y="12.96"/>
      </g>
     </g>
     <g id="text_3">
      <!-- 30 -->
      <defs>
       <path d="M 40.578125 39.3125 
Q 47.65625 37.796875 51.625 33 
Q 55.609375 28.21875 55.609375 21.1875 
Q 55.609375 10.40625 48.1875 4.484375 
Q 40.765625 -1.421875 27.09375 -1.421875 
Q 22.515625 -1.421875 17.65625 -0.515625 
Q 12.796875 0.390625 7.625 2.203125 
L 7.625 11.71875 
Q 11.71875 9.328125 16.59375 8.109375 
Q 21.484375 6.890625 26.8125 6.890625 
Q 36.078125 6.890625 40.9375 10.546875 
Q 45.796875 14.203125 45.796875 21.1875 
Q 45.796875 27.640625 41.28125 31.265625 
Q 36.765625 34.90625 28.71875 34.90625 
L 20.21875 34.90625 
L 20.21875 43.015625 
L 29.109375 43.015625 
Q 36.375 43.015625 40.234375 45.921875 
Q 44.09375 48.828125 44.09375 54.296875 
Q 44.09375 59.90625 40.109375 62.90625 
Q 36.140625 65.921875 28.71875 65.921875 
Q 24.65625 65.921875 20.015625 65.03125 
Q 15.375 64.15625 9.8125 62.3125 
L 9.8125 71.09375 
Q 15.4375 72.65625 20.34375 73.4375 
Q 25.25 74.21875 29.59375 74.21875 
Q 40.828125 74.21875 47.359375 69.109375 
Q 53.90625 64.015625 53.90625 55.328125 
Q 53.90625 49.265625 50.4375 45.09375 
Q 46.96875 40.921875 40.578125 39.3125 
" id="BitstreamVeraSans-Roman-33"/>
      </defs>
      <g transform="translate(295.153581081 327.758125)scale(0.12 -0.12)">
       <use xlink:href="#BitstreamVeraSans-Roman-33"/>
       <use x="63.623046875" xlink:href="#BitstreamVeraSans-Roman-30"/>
      </g>
     </g>
    </g>
    <g id="xtick_4">
     <g id="line2d_9">
      <g>
       <use style="stroke:#000000;stroke-width:0.5;" x="390.669324324" xlink:href="#m040664dcb7" y="314.64"/>
      </g>
     </g>
     <g id="line2d_10">
      <g>
       <use style="stroke:#000000;stroke-width:0.5;" x="390.669324324" xlink:href="#mfeadc5130c" y="12.96"/>
      </g>
     </g>
     <g id="text_4">
      <!-- 40 -->
      <defs>
       <path d="M 37.796875 64.3125 
L 12.890625 25.390625 
L 37.796875 25.390625 
z
M 35.203125 72.90625 
L 47.609375 72.90625 
L 47.609375 25.390625 
L 58.015625 25.390625 
L 58.015625 17.1875 
L 47.609375 17.1875 
L 47.609375 0 
L 37.796875 0 
L 37.796875 17.1875 
L 4.890625 17.1875 
L 4.890625 26.703125 
z
" id="BitstreamVeraSans-Roman-34"/>
      </defs>
      <g transform="translate(383.034324324 327.758125)scale(0.12 -0.12)">
       <use xlink:href="#BitstreamVeraSans-Roman-34"/>
       <use x="63.623046875" xlink:href="#BitstreamVeraSans-Roman-30"/>
      </g>
     </g>
    </g>
    <g id="xtick_5">
     <g id="line2d_11">
      <g>
       <use style="stroke:#000000;stroke-width:0.5;" x="478.550067568" xlink:href="#m040664dcb7" y="314.64"/>
      </g>
     </g>
     <g id="line2d_12">
      <g>
       <use style="stroke:#000000;stroke-width:0.5;" x="478.550067568" xlink:href="#mfeadc5130c" y="12.96"/>
      </g>
     </g>
     <g id="text_5">
      <!-- 50 -->
      <defs>
       <path d="M 10.796875 72.90625 
L 49.515625 72.90625 
L 49.515625 64.59375 
L 19.828125 64.59375 
L 19.828125 46.734375 
Q 21.96875 47.46875 24.109375 47.828125 
Q 26.265625 48.1875 28.421875 48.1875 
Q 40.625 48.1875 47.75 41.5 
Q 54.890625 34.8125 54.890625 23.390625 
Q 54.890625 11.625 47.5625 5.09375 
Q 40.234375 -1.421875 26.90625 -1.421875 
Q 22.3125 -1.421875 17.546875 -0.640625 
Q 12.796875 0.140625 7.71875 1.703125 
L 7.71875 11.625 
Q 12.109375 9.234375 16.796875 8.0625 
Q 21.484375 6.890625 26.703125 6.890625 
Q 35.15625 6.890625 40.078125 11.328125 
Q 45.015625 15.765625 45.015625 23.390625 
Q 45.015625 31 40.078125 35.4375 
Q 35.15625 39.890625 26.703125 39.890625 
Q 22.75 39.890625 18.8125 39.015625 
Q 14.890625 38.140625 10.796875 36.28125 
z
" id="BitstreamVeraSans-Roman-35"/>
      </defs>
      <g transform="translate(470.915067568 327.758125)scale(0.12 -0.12)">
       <use xlink:href="#BitstreamVeraSans-Roman-35"/>
       <use x="63.623046875" xlink:href="#BitstreamVeraSans-Roman-30"/>
      </g>
     </g>
    </g>
    <g id="xtick_6">
     <g id="line2d_13">
      <g>
       <use style="stroke:#000000;stroke-width:0.5;" x="566.430810811" xlink:href="#m040664dcb7" y="314.64"/>
      </g>
     </g>
     <g id="line2d_14">
      <g>
       <use style="stroke:#000000;stroke-width:0.5;" x="566.430810811" xlink:href="#mfeadc5130c" y="12.96"/>
      </g>
     </g>
     <g id="text_6">
      <!-- 60 -->
      <defs>
       <path d="M 33.015625 40.375 
Q 26.375 40.375 22.484375 35.828125 
Q 18.609375 31.296875 18.609375 23.390625 
Q 18.609375 15.53125 22.484375 10.953125 
Q 26.375 6.390625 33.015625 6.390625 
Q 39.65625 6.390625 43.53125 10.953125 
Q 47.40625 15.53125 47.40625 23.390625 
Q 47.40625 31.296875 43.53125 35.828125 
Q 39.65625 40.375 33.015625 40.375 
M 52.59375 71.296875 
L 52.59375 62.3125 
Q 48.875 64.0625 45.09375 64.984375 
Q 41.3125 65.921875 37.59375 65.921875 
Q 27.828125 65.921875 22.671875 59.328125 
Q 17.53125 52.734375 16.796875 39.40625 
Q 19.671875 43.65625 24.015625 45.921875 
Q 28.375 48.1875 33.59375 48.1875 
Q 44.578125 48.1875 50.953125 41.515625 
Q 57.328125 34.859375 57.328125 23.390625 
Q 57.328125 12.15625 50.6875 5.359375 
Q 44.046875 -1.421875 33.015625 -1.421875 
Q 20.359375 -1.421875 13.671875 8.265625 
Q 6.984375 17.96875 6.984375 36.375 
Q 6.984375 53.65625 15.1875 63.9375 
Q 23.390625 74.21875 37.203125 74.21875 
Q 40.921875 74.21875 44.703125 73.484375 
Q 48.484375 72.75 52.59375 71.296875 
" id="BitstreamVeraSans-Roman-36"/>
      </defs>
      <g transform="translate(558.795810811 327.758125)scale(0.12 -0.12)">
       <use xlink:href="#BitstreamVeraSans-Roman-36"/>
       <use x="63.623046875" xlink:href="#BitstreamVeraSans-Roman-30"/>
      </g>
     </g>
    </g>
    <g id="xtick_7">
     <g id="line2d_15">
      <g>
       <use style="stroke:#000000;stroke-width:0.5;" x="654.311554054" xlink:href="#m040664dcb7" y="314.64"/>
      </g>
     </g>
     <g id="line2d_16">
      <g>
       <use style="stroke:#000000;stroke-width:0.5;" x="654.311554054" xlink:href="#mfeadc5130c" y="12.96"/>
      </g>
     </g>
     <g id="text_7">
      <!-- 70 -->
      <defs>
       <path d="M 8.203125 72.90625 
L 55.078125 72.90625 
L 55.078125 68.703125 
L 28.609375 0 
L 18.3125 0 
L 43.21875 64.59375 
L 8.203125 64.59375 
z
" id="BitstreamVeraSans-Roman-37"/>
      </defs>
      <g transform="translate(646.676554054 327.758125)scale(0.12 -0.12)">
       <use xlink:href="#BitstreamVeraSans-Roman-37"/>
       <use x="63.623046875" xlink:href="#BitstreamVeraSans-Roman-30"/>
      </g>
     </g>
    </g>
    <g id="text_8">
     <!-- residue number -->
     <defs>
      <path d="M 44.28125 53.078125 
L 44.28125 44.578125 
Q 40.484375 46.53125 36.375 47.5 
Q 32.28125 48.484375 27.875 48.484375 
Q 21.1875 48.484375 17.84375 46.4375 
Q 14.5 44.390625 14.5 40.28125 
Q 14.5 37.15625 16.890625 35.375 
Q 19.28125 33.59375 26.515625 31.984375 
L 29.59375 31.296875 
Q 39.15625 29.25 43.1875 25.515625 
Q 47.21875 21.78125 47.21875 15.09375 
Q 47.21875 7.46875 41.1875 3.015625 
Q 35.15625 -1.421875 24.609375 -1.421875 
Q 20.21875 -1.421875 15.453125 -0.5625 
Q 10.6875 0.296875 5.421875 2 
L 5.421875 11.28125 
Q 10.40625 8.6875 15.234375 7.390625 
Q 20.0625 6.109375 24.8125 6.109375 
Q 31.15625 6.109375 34.5625 8.28125 
Q 37.984375 10.453125 37.984375 14.40625 
Q 37.984375 18.0625 35.515625 20.015625 
Q 33.0625 21.96875 24.703125 23.78125 
L 21.578125 24.515625 
Q 13.234375 26.265625 9.515625 29.90625 
Q 5.8125 33.546875 5.8125 39.890625 
Q 5.8125 47.609375 11.28125 51.796875 
Q 16.75 56 26.8125 56 
Q 31.78125 56 36.171875 55.265625 
Q 40.578125 54.546875 44.28125 53.078125 
" id="BitstreamVeraSans-Roman-73"/>
      <path d="M 48.6875 27.296875 
Q 48.6875 37.203125 44.609375 42.84375 
Q 40.53125 48.484375 33.40625 48.484375 
Q 26.265625 48.484375 22.1875 42.84375 
Q 18.109375 37.203125 18.109375 27.296875 
Q 18.109375 17.390625 22.1875 11.75 
Q 26.265625 6.109375 33.40625 6.109375 
Q 40.53125 6.109375 44.609375 11.75 
Q 48.6875 17.390625 48.6875 27.296875 
M 18.109375 46.390625 
Q 20.953125 51.265625 25.265625 53.625 
Q 29.59375 56 35.59375 56 
Q 45.5625 56 51.78125 48.09375 
Q 58.015625 40.1875 58.015625 27.296875 
Q 58.015625 14.40625 51.78125 6.484375 
Q 45.5625 -1.421875 35.59375 -1.421875 
Q 29.59375 -1.421875 25.265625 0.953125 
Q 20.953125 3.328125 18.109375 8.203125 
L 18.109375 0 
L 9.078125 0 
L 9.078125 75.984375 
L 18.109375 75.984375 
z
" id="BitstreamVeraSans-Roman-62"/>
      <path d="M 45.40625 46.390625 
L 45.40625 75.984375 
L 54.390625 75.984375 
L 54.390625 0 
L 45.40625 0 
L 45.40625 8.203125 
Q 42.578125 3.328125 38.25 0.953125 
Q 33.9375 -1.421875 27.875 -1.421875 
Q 17.96875 -1.421875 11.734375 6.484375 
Q 5.515625 14.40625 5.515625 27.296875 
Q 5.515625 40.1875 11.734375 48.09375 
Q 17.96875 56 27.875 56 
Q 33.9375 56 38.25 53.625 
Q 42.578125 51.265625 45.40625 46.390625 
M 14.796875 27.296875 
Q 14.796875 17.390625 18.875 11.75 
Q 22.953125 6.109375 30.078125 6.109375 
Q 37.203125 6.109375 41.296875 11.75 
Q 45.40625 17.390625 45.40625 27.296875 
Q 45.40625 37.203125 41.296875 42.84375 
Q 37.203125 48.484375 30.078125 48.484375 
Q 22.953125 48.484375 18.875 42.84375 
Q 14.796875 37.203125 14.796875 27.296875 
" id="BitstreamVeraSans-Roman-64"/>
      <path d="M 54.890625 33.015625 
L 54.890625 0 
L 45.90625 0 
L 45.90625 32.71875 
Q 45.90625 40.484375 42.875 44.328125 
Q 39.84375 48.1875 33.796875 48.1875 
Q 26.515625 48.1875 22.3125 43.546875 
Q 18.109375 38.921875 18.109375 30.90625 
L 18.109375 0 
L 9.078125 0 
L 9.078125 54.6875 
L 18.109375 54.6875 
L 18.109375 46.1875 
Q 21.34375 51.125 25.703125 53.5625 
Q 30.078125 56 35.796875 56 
Q 45.21875 56 50.046875 50.171875 
Q 54.890625 44.34375 54.890625 33.015625 
" id="BitstreamVeraSans-Roman-6e"/>
      <path d="M 9.421875 54.6875 
L 18.40625 54.6875 
L 18.40625 0 
L 9.421875 0 
z
M 9.421875 75.984375 
L 18.40625 75.984375 
L 18.40625 64.59375 
L 9.421875 64.59375 
z
" id="BitstreamVeraSans-Roman-69"/>
      <path d="M 56.203125 29.59375 
L 56.203125 25.203125 
L 14.890625 25.203125 
Q 15.484375 15.921875 20.484375 11.0625 
Q 25.484375 6.203125 34.421875 6.203125 
Q 39.59375 6.203125 44.453125 7.46875 
Q 49.3125 8.734375 54.109375 11.28125 
L 54.109375 2.78125 
Q 49.265625 0.734375 44.1875 -0.34375 
Q 39.109375 -1.421875 33.890625 -1.421875 
Q 20.796875 -1.421875 13.15625 6.1875 
Q 5.515625 13.8125 5.515625 26.8125 
Q 5.515625 40.234375 12.765625 48.109375 
Q 20.015625 56 32.328125 56 
Q 43.359375 56 49.78125 48.890625 
Q 56.203125 41.796875 56.203125 29.59375 
M 47.21875 32.234375 
Q 47.125 39.59375 43.09375 43.984375 
Q 39.0625 48.390625 32.421875 48.390625 
Q 24.90625 48.390625 20.390625 44.140625 
Q 15.875 39.890625 15.1875 32.171875 
z
" id="BitstreamVeraSans-Roman-65"/>
      <path id="BitstreamVeraSans-Roman-20"/>
      <path d="M 52 44.1875 
Q 55.375 50.25 60.0625 53.125 
Q 64.75 56 71.09375 56 
Q 79.640625 56 84.28125 50.015625 
Q 88.921875 44.046875 88.921875 33.015625 
L 88.921875 0 
L 79.890625 0 
L 79.890625 32.71875 
Q 79.890625 40.578125 77.09375 44.375 
Q 74.3125 48.1875 68.609375 48.1875 
Q 61.625 48.1875 57.5625 43.546875 
Q 53.515625 38.921875 53.515625 30.90625 
L 53.515625 0 
L 44.484375 0 
L 44.484375 32.71875 
Q 44.484375 40.625 41.703125 44.40625 
Q 38.921875 48.1875 33.109375 48.1875 
Q 26.21875 48.1875 22.15625 43.53125 
Q 18.109375 38.875 18.109375 30.90625 
L 18.109375 0 
L 9.078125 0 
L 9.078125 54.6875 
L 18.109375 54.6875 
L 18.109375 46.1875 
Q 21.1875 51.21875 25.484375 53.609375 
Q 29.78125 56 35.6875 56 
Q 41.65625 56 45.828125 52.96875 
Q 50 49.953125 52 44.1875 
" id="BitstreamVeraSans-Roman-6d"/>
      <path d="M 41.109375 46.296875 
Q 39.59375 47.171875 37.8125 47.578125 
Q 36.03125 48 33.890625 48 
Q 26.265625 48 22.1875 43.046875 
Q 18.109375 38.09375 18.109375 28.8125 
L 18.109375 0 
L 9.078125 0 
L 9.078125 54.6875 
L 18.109375 54.6875 
L 18.109375 46.1875 
Q 20.953125 51.171875 25.484375 53.578125 
Q 30.03125 56 36.53125 56 
Q 37.453125 56 38.578125 55.875 
Q 39.703125 55.765625 41.0625 55.515625 
z
" id="BitstreamVeraSans-Roman-72"/>
      <path d="M 8.5 21.578125 
L 8.5 54.6875 
L 17.484375 54.6875 
L 17.484375 21.921875 
Q 17.484375 14.15625 20.5 10.265625 
Q 23.53125 6.390625 29.59375 6.390625 
Q 36.859375 6.390625 41.078125 11.03125 
Q 45.3125 15.671875 45.3125 23.6875 
L 45.3125 54.6875 
L 54.296875 54.6875 
L 54.296875 0 
L 45.3125 0 
L 45.3125 8.40625 
Q 42.046875 3.421875 37.71875 1 
Q 33.40625 -1.421875 27.6875 -1.421875 
Q 18.265625 -1.421875 13.375 4.4375 
Q 8.5 10.296875 8.5 21.578125 
" id="BitstreamVeraSans-Roman-75"/>
     </defs>
     <g transform="translate(334.305 344.371875)scale(0.12 -0.12)">
      <use xlink:href="#BitstreamVeraSans-Roman-72"/>
      <use x="41.08203125" xlink:href="#BitstreamVeraSans-Roman-65"/>
      <use x="102.60546875" xlink:href="#BitstreamVeraSans-Roman-73"/>
      <use x="154.705078125" xlink:href="#BitstreamVeraSans-Roman-69"/>
      <use x="182.48828125" xlink:href="#BitstreamVeraSans-Roman-64"/>
      <use x="245.96484375" xlink:href="#BitstreamVeraSans-Roman-75"/>
      <use x="309.34375" xlink:href="#BitstreamVeraSans-Roman-65"/>
      <use x="370.8671875" xlink:href="#BitstreamVeraSans-Roman-20"/>
      <use x="402.654296875" xlink:href="#BitstreamVeraSans-Roman-6e"/>
      <use x="466.033203125" xlink:href="#BitstreamVeraSans-Roman-75"/>
      <use x="529.412109375" xlink:href="#BitstreamVeraSans-Roman-6d"/>
      <use x="626.82421875" xlink:href="#BitstreamVeraSans-Roman-62"/>
      <use x="690.30078125" xlink:href="#BitstreamVeraSans-Roman-65"/>
      <use x="751.82421875" xlink:href="#BitstreamVeraSans-Roman-72"/>
     </g>
    </g>
   </g>
   <g id="matplotlib.axis_2">
    <g id="ytick_1">
     <g id="line2d_17">
      <path clip-path="url(#pd03409a486)" d="M 56.7225 304.650596 
L 707.04 304.650596 
" style="fill:none;stroke:#000000;stroke-dasharray:1.000000,3.000000;stroke-dashoffset:0.0;stroke-width:0.5;"/>
     </g>
     <g id="line2d_18">
      <defs>
       <path d="M 0 0 
L 4 0 
" id="m72fc8e4988" style="stroke:#000000;stroke-width:0.5;"/>
      </defs>
      <g>
       <use style="stroke:#000000;stroke-width:0.5;" x="56.7225" xlink:href="#m72fc8e4988" y="304.650596026"/>
      </g>
     </g>
     <g id="line2d_19">
      <defs>
       <path d="M 0 0 
L -4 0 
" id="mdfd24e1e31" style="stroke:#000000;stroke-width:0.5;"/>
      </defs>
      <g>
       <use style="stroke:#000000;stroke-width:0.5;" x="707.04" xlink:href="#mdfd24e1e31" y="304.650596026"/>
      </g>
     </g>
     <g id="text_9">
      <!-- 105 -->
      <g transform="translate(29.8175 307.961846026)scale(0.12 -0.12)">
       <use xlink:href="#BitstreamVeraSans-Roman-31"/>
       <use x="63.623046875" xlink:href="#BitstreamVeraSans-Roman-30"/>
       <use x="127.24609375" xlink:href="#BitstreamVeraSans-Roman-35"/>
      </g>
     </g>
    </g>
    <g id="ytick_2">
     <g id="line2d_20">
      <path clip-path="url(#pd03409a486)" d="M 56.7225 254.703576 
L 707.04 254.703576 
" style="fill:none;stroke:#000000;stroke-dasharray:1.000000,3.000000;stroke-dashoffset:0.0;stroke-width:0.5;"/>
     </g>
     <g id="line2d_21">
      <g>
       <use style="stroke:#000000;stroke-width:0.5;" x="56.7225" xlink:href="#m72fc8e4988" y="254.703576159"/>
      </g>
     </g>
     <g id="line2d_22">
      <g>
       <use style="stroke:#000000;stroke-width:0.5;" x="707.04" xlink:href="#mdfd24e1e31" y="254.703576159"/>
      </g>
     </g>
     <g id="text_10">
      <!-- 110 -->
      <g transform="translate(29.8175 258.014826159)scale(0.12 -0.12)">
       <use xlink:href="#BitstreamVeraSans-Roman-31"/>
       <use x="63.623046875" xlink:href="#BitstreamVeraSans-Roman-31"/>
       <use x="127.24609375" xlink:href="#BitstreamVeraSans-Roman-30"/>
      </g>
     </g>
    </g>
    <g id="ytick_3">
     <g id="line2d_23">
      <path clip-path="url(#pd03409a486)" d="M 56.7225 204.756556 
L 707.04 204.756556 
" style="fill:none;stroke:#000000;stroke-dasharray:1.000000,3.000000;stroke-dashoffset:0.0;stroke-width:0.5;"/>
     </g>
     <g id="line2d_24">
      <g>
       <use style="stroke:#000000;stroke-width:0.5;" x="56.7225" xlink:href="#m72fc8e4988" y="204.756556291"/>
      </g>
     </g>
     <g id="line2d_25">
      <g>
       <use style="stroke:#000000;stroke-width:0.5;" x="707.04" xlink:href="#mdfd24e1e31" y="204.756556291"/>
      </g>
     </g>
     <g id="text_11">
      <!-- 115 -->
      <g transform="translate(29.8175 208.067806291)scale(0.12 -0.12)">
       <use xlink:href="#BitstreamVeraSans-Roman-31"/>
       <use x="63.623046875" xlink:href="#BitstreamVeraSans-Roman-31"/>
       <use x="127.24609375" xlink:href="#BitstreamVeraSans-Roman-35"/>
      </g>
     </g>
    </g>
    <g id="ytick_4">
     <g id="line2d_26">
      <path clip-path="url(#pd03409a486)" d="M 56.7225 154.809536 
L 707.04 154.809536 
" style="fill:none;stroke:#000000;stroke-dasharray:1.000000,3.000000;stroke-dashoffset:0.0;stroke-width:0.5;"/>
     </g>
     <g id="line2d_27">
      <g>
       <use style="stroke:#000000;stroke-width:0.5;" x="56.7225" xlink:href="#m72fc8e4988" y="154.809536424"/>
      </g>
     </g>
     <g id="line2d_28">
      <g>
       <use style="stroke:#000000;stroke-width:0.5;" x="707.04" xlink:href="#mdfd24e1e31" y="154.809536424"/>
      </g>
     </g>
     <g id="text_12">
      <!-- 120 -->
      <g transform="translate(29.8175 158.120786424)scale(0.12 -0.12)">
       <use xlink:href="#BitstreamVeraSans-Roman-31"/>
       <use x="63.623046875" xlink:href="#BitstreamVeraSans-Roman-32"/>
       <use x="127.24609375" xlink:href="#BitstreamVeraSans-Roman-30"/>
      </g>
     </g>
    </g>
    <g id="ytick_5">
     <g id="line2d_29">
      <path clip-path="url(#pd03409a486)" d="M 56.7225 104.862517 
L 707.04 104.862517 
" style="fill:none;stroke:#000000;stroke-dasharray:1.000000,3.000000;stroke-dashoffset:0.0;stroke-width:0.5;"/>
     </g>
     <g id="line2d_30">
      <g>
       <use style="stroke:#000000;stroke-width:0.5;" x="56.7225" xlink:href="#m72fc8e4988" y="104.862516556"/>
      </g>
     </g>
     <g id="line2d_31">
      <g>
       <use style="stroke:#000000;stroke-width:0.5;" x="707.04" xlink:href="#mdfd24e1e31" y="104.862516556"/>
      </g>
     </g>
     <g id="text_13">
      <!-- 125 -->
      <g transform="translate(29.8175 108.173766556)scale(0.12 -0.12)">
       <use xlink:href="#BitstreamVeraSans-Roman-31"/>
       <use x="63.623046875" xlink:href="#BitstreamVeraSans-Roman-32"/>
       <use x="127.24609375" xlink:href="#BitstreamVeraSans-Roman-35"/>
      </g>
     </g>
    </g>
    <g id="ytick_6">
     <g id="line2d_32">
      <path clip-path="url(#pd03409a486)" d="M 56.7225 54.915497 
L 707.04 54.915497 
" style="fill:none;stroke:#000000;stroke-dasharray:1.000000,3.000000;stroke-dashoffset:0.0;stroke-width:0.5;"/>
     </g>
     <g id="line2d_33">
      <g>
       <use style="stroke:#000000;stroke-width:0.5;" x="56.7225" xlink:href="#m72fc8e4988" y="54.9154966887"/>
      </g>
     </g>
     <g id="line2d_34">
      <g>
       <use style="stroke:#000000;stroke-width:0.5;" x="707.04" xlink:href="#mdfd24e1e31" y="54.9154966887"/>
      </g>
     </g>
     <g id="text_14">
      <!-- 130 -->
      <g transform="translate(29.8175 58.2267466887)scale(0.12 -0.12)">
       <use xlink:href="#BitstreamVeraSans-Roman-31"/>
       <use x="63.623046875" xlink:href="#BitstreamVeraSans-Roman-33"/>
       <use x="127.24609375" xlink:href="#BitstreamVeraSans-Roman-30"/>
      </g>
     </g>
    </g>
    <g id="text_15">
     <!-- value -->
     <defs>
      <path d="M 9.421875 75.984375 
L 18.40625 75.984375 
L 18.40625 0 
L 9.421875 0 
z
" id="BitstreamVeraSans-Roman-6c"/>
      <path d="M 2.984375 54.6875 
L 12.5 54.6875 
L 29.59375 8.796875 
L 46.6875 54.6875 
L 56.203125 54.6875 
L 35.6875 0 
L 23.484375 0 
z
" id="BitstreamVeraSans-Roman-76"/>
      <path d="M 34.28125 27.484375 
Q 23.390625 27.484375 19.1875 25 
Q 14.984375 22.515625 14.984375 16.5 
Q 14.984375 11.71875 18.140625 8.90625 
Q 21.296875 6.109375 26.703125 6.109375 
Q 34.1875 6.109375 38.703125 11.40625 
Q 43.21875 16.703125 43.21875 25.484375 
L 43.21875 27.484375 
z
M 52.203125 31.203125 
L 52.203125 0 
L 43.21875 0 
L 43.21875 8.296875 
Q 40.140625 3.328125 35.546875 0.953125 
Q 30.953125 -1.421875 24.3125 -1.421875 
Q 15.921875 -1.421875 10.953125 3.296875 
Q 6 8.015625 6 15.921875 
Q 6 25.140625 12.171875 29.828125 
Q 18.359375 34.515625 30.609375 34.515625 
L 43.21875 34.515625 
L 43.21875 35.40625 
Q 43.21875 41.609375 39.140625 45 
Q 35.0625 48.390625 27.6875 48.390625 
Q 23 48.390625 18.546875 47.265625 
Q 14.109375 46.140625 10.015625 43.890625 
L 10.015625 52.203125 
Q 14.9375 54.109375 19.578125 55.046875 
Q 24.21875 56 28.609375 56 
Q 40.484375 56 46.34375 49.84375 
Q 52.203125 43.703125 52.203125 31.203125 
" id="BitstreamVeraSans-Roman-61"/>
     </defs>
     <g transform="translate(22.321875 180.189375)rotate(-90.0)scale(0.12 -0.12)">
      <use xlink:href="#BitstreamVeraSans-Roman-76"/>
      <use x="59.1796875" xlink:href="#BitstreamVeraSans-Roman-61"/>
      <use x="120.458984375" xlink:href="#BitstreamVeraSans-Roman-6c"/>
      <use x="148.2421875" xlink:href="#BitstreamVeraSans-Roman-75"/>
      <use x="211.62109375" xlink:href="#BitstreamVeraSans-Roman-65"/>
     </g>
    </g>
   </g>
   <g id="legend_1">
    <g id="patch_7">
     <path d="M 63.9225 307.44 
L 144.423 307.44 
L 144.423 260.847 
L 63.9225 260.847 
z
" style="fill:#ffffff;stroke:#000000;stroke-linejoin:miter;"/>
    </g>
    <g id="line2d_35">
     <path d="M 74.0025 272.50875 
L 94.1625 272.50875 
" style="fill:none;stroke:#ff0000;stroke-linecap:square;stroke-width:2.0;"/>
    </g>
    <g id="line2d_36">
     <g>
      <use style="fill:#ff0000;stroke:#000000;stroke-width:0.5;" x="74.0025" xlink:href="#mbd7c534727" y="272.50875"/>
      <use style="fill:#ff0000;stroke:#000000;stroke-width:0.5;" x="94.1625" xlink:href="#mbd7c534727" y="272.50875"/>
     </g>
    </g>
    <g id="text_16">
     <!-- exp -->
     <defs>
      <path d="M 18.109375 8.203125 
L 18.109375 -20.796875 
L 9.078125 -20.796875 
L 9.078125 54.6875 
L 18.109375 54.6875 
L 18.109375 46.390625 
Q 20.953125 51.265625 25.265625 53.625 
Q 29.59375 56 35.59375 56 
Q 45.5625 56 51.78125 48.09375 
Q 58.015625 40.1875 58.015625 27.296875 
Q 58.015625 14.40625 51.78125 6.484375 
Q 45.5625 -1.421875 35.59375 -1.421875 
Q 29.59375 -1.421875 25.265625 0.953125 
Q 20.953125 3.328125 18.109375 8.203125 
M 48.6875 27.296875 
Q 48.6875 37.203125 44.609375 42.84375 
Q 40.53125 48.484375 33.40625 48.484375 
Q 26.265625 48.484375 22.1875 42.84375 
Q 18.109375 37.203125 18.109375 27.296875 
Q 18.109375 17.390625 22.1875 11.75 
Q 26.265625 6.109375 33.40625 6.109375 
Q 40.53125 6.109375 44.609375 11.75 
Q 48.6875 17.390625 48.6875 27.296875 
" id="BitstreamVeraSans-Roman-70"/>
      <path d="M 54.890625 54.6875 
L 35.109375 28.078125 
L 55.90625 0 
L 45.3125 0 
L 29.390625 21.484375 
L 13.484375 0 
L 2.875 0 
L 24.125 28.609375 
L 4.6875 54.6875 
L 15.28125 54.6875 
L 29.78125 35.203125 
L 44.28125 54.6875 
z
" id="BitstreamVeraSans-Roman-78"/>
     </defs>
     <g transform="translate(110.0025 277.54875)scale(0.144 -0.144)">
      <use xlink:href="#BitstreamVeraSans-Roman-65"/>
      <use x="61.5078125" xlink:href="#BitstreamVeraSans-Roman-78"/>
      <use x="120.6875" xlink:href="#BitstreamVeraSans-Roman-70"/>
     </g>
    </g>
    <g id="line2d_37">
     <path d="M 74.0025 293.64525 
L 94.1625 293.64525 
" style="fill:none;stroke:#0000ff;stroke-linecap:square;stroke-width:2.0;"/>
    </g>
    <g id="line2d_38">
     <g>
      <use style="fill:#0000ff;stroke:#000000;stroke-width:0.5;" x="74.0025" xlink:href="#m7bd416fa18" y="293.64525"/>
      <use style="fill:#0000ff;stroke:#000000;stroke-width:0.5;" x="94.1625" xlink:href="#m7bd416fa18" y="293.64525"/>
     </g>
    </g>
    <g id="text_17">
     <!-- calc -->
     <defs>
      <path d="M 48.78125 52.59375 
L 48.78125 44.1875 
Q 44.96875 46.296875 41.140625 47.34375 
Q 37.3125 48.390625 33.40625 48.390625 
Q 24.65625 48.390625 19.8125 42.84375 
Q 14.984375 37.3125 14.984375 27.296875 
Q 14.984375 17.28125 19.8125 11.734375 
Q 24.65625 6.203125 33.40625 6.203125 
Q 37.3125 6.203125 41.140625 7.25 
Q 44.96875 8.296875 48.78125 10.40625 
L 48.78125 2.09375 
Q 45.015625 0.34375 40.984375 -0.53125 
Q 36.96875 -1.421875 32.421875 -1.421875 
Q 20.0625 -1.421875 12.78125 6.34375 
Q 5.515625 14.109375 5.515625 27.296875 
Q 5.515625 40.671875 12.859375 48.328125 
Q 20.21875 56 33.015625 56 
Q 37.15625 56 41.109375 55.140625 
Q 45.0625 54.296875 48.78125 52.59375 
" id="BitstreamVeraSans-Roman-63"/>
     </defs>
     <g transform="translate(110.0025 298.68525)scale(0.144 -0.144)">
      <use xlink:href="#BitstreamVeraSans-Roman-63"/>
      <use x="54.98046875" xlink:href="#BitstreamVeraSans-Roman-61"/>
      <use x="116.259765625" xlink:href="#BitstreamVeraSans-Roman-6c"/>
      <use x="144.04296875" xlink:href="#BitstreamVeraSans-Roman-63"/>
     </g>
    </g>
   </g>
  </g>
 </g>
 <defs>
  <clipPath id="pd03409a486">
   <rect height="301.68" width="650.3175" x="56.7225" y="12.96"/>
  </clipPath>
 </defs>
</svg>
