<?xml version="1.0" encoding="utf-8" standalone="no"?>
<!DOCTYPE svg PUBLIC "-//W3C//DTD SVG 1.1//EN"
  "http://www.w3.org/Graphics/SVG/1.1/DTD/svg11.dtd">
<!-- Created with matplotlib (http://matplotlib.org/) -->
<svg height="360pt" version="1.1" viewBox="0 0 720 360" width="720pt" xmlns="http://www.w3.org/2000/svg" xmlns:xlink="http://www.w3.org/1999/xlink">
 <defs>
  <style type="text/css">
*{stroke-linecap:butt;stroke-linejoin:round;stroke-miterlimit:100000;}
  </style>
 </defs>
 <g id="figure_1">
  <g id="patch_1">
   <path d="M 0 360 
L 720 360 
L 720 0 
L 0 0 
z
" style="fill:#ffffff;"/>
  </g>
  <g id="axes_1">
   <g id="patch_2">
    <path d="M 48.96 314.64 
L 707.04 314.64 
L 707.04 12.96 
L 48.96 12.96 
z
" style="fill:#ffffff;"/>
   </g>
   <g id="line2d_1">
    <path clip-path="url(#p0d8639ea44)" d="M 48.96 87.712566 
L 58.1 51.099064 
L 67.24 21.731985 
L 76.38 23.257547 
L 85.52 49.954893 
L 94.66 64.066346 
L 103.8 246.371075 
L 112.94 75.508066 
L 131.22 127.758584 
L 140.36 35.843439 
L 149.5 26.690063 
L 158.64 37.750392 
L 167.78 25.164501 
L 176.92 32.029532 
L 186.06 30.122579 
L 195.2 40.038736 
L 213.48 114.028521 
L 222.62 194.120556 
L 231.76 115.935474 
L 240.9 254.380278 
L 259.18 194.883338 
L 268.32 186.492743 
L 277.46 241.412996 
L 286.6 230.352668 
L 295.74 192.976384 
L 304.88 184.58579 
L 323.16 258.956966 
L 332.3 132.716662 
L 341.44 40.801517 
L 359.72 100.298458 
L 387.14 208.23201 
L 396.28 44.234033 
L 405.42 83.89866 
L 414.56 30.50397 
L 423.7 36.224829 
L 432.84 12.96 
L 441.98 71.694159 
L 451.12 157.888445 
L 469.4 45.759595 
L 478.54 138.818913 
L 487.68 133.479444 
L 496.82 97.247332 
L 505.96 310.063312 
L 524.24 38.894564 
L 533.38 53.768799 
L 542.52 263.533654 
L 551.66 263.533654 
L 560.8 246.752465 
L 569.94 44.234033 
L 579.08 127.758584 
L 588.22 124.707459 
L 597.36 61.015221 
L 606.5 314.64 
L 615.64 130.428319 
L 624.78 189.925259 
L 633.92 30.122579 
L 643.06 27.834235 
L 652.2 34.699267 
L 661.34 38.894564 
L 670.48 27.834235 
L 679.62 88.093957 
L 697.9 117.842427 
L 707.04 150.260632 
" style="fill:none;stroke:#ff0000;stroke-linecap:square;stroke-width:2.0;"/>
    <defs>
     <path d="M 0 3 
C 0.795609 3 1.55874 2.683901 2.12132 2.12132 
C 2.683901 1.55874 3 0.795609 3 0 
C 3 -0.795609 2.683901 -1.55874 2.12132 -2.12132 
C 1.55874 -2.683901 0.795609 -3 0 -3 
C -0.795609 -3 -1.55874 -2.683901 -2.12132 -2.12132 
C -2.683901 -1.55874 -3 -0.795609 -3 0 
C -3 0.795609 -2.683901 1.55874 -2.12132 2.12132 
C -1.55874 2.683901 -0.795609 3 0 3 
z
" id="md4ff837faf" style="stroke:#000000;stroke-width:0.5;"/>
    </defs>
    <g clip-path="url(#p0d8639ea44)">
     <use style="fill:#ff0000;stroke:#000000;stroke-width:0.5;" x="48.96" xlink:href="#md4ff837faf" y="87.7125663717"/>
     <use style="fill:#ff0000;stroke:#000000;stroke-width:0.5;" x="58.1" xlink:href="#md4ff837faf" y="51.0990644753"/>
     <use style="fill:#ff0000;stroke:#000000;stroke-width:0.5;" x="67.24" xlink:href="#md4ff837faf" y="21.7319848293"/>
     <use style="fill:#ff0000;stroke:#000000;stroke-width:0.5;" x="76.38" xlink:href="#md4ff837faf" y="23.2575474083"/>
     <use style="fill:#ff0000;stroke:#000000;stroke-width:0.5;" x="85.52" xlink:href="#md4ff837faf" y="49.9548925411"/>
     <use style="fill:#ff0000;stroke:#000000;stroke-width:0.5;" x="94.66" xlink:href="#md4ff837faf" y="64.066346397"/>
     <use style="fill:#ff0000;stroke:#000000;stroke-width:0.5;" x="103.8" xlink:href="#md4ff837faf" y="246.371074589"/>
     <use style="fill:#ff0000;stroke:#000000;stroke-width:0.5;" x="112.94" xlink:href="#md4ff837faf" y="75.5080657396"/>
     <use style="fill:#ff0000;stroke:#000000;stroke-width:0.5;" x="131.22" xlink:href="#md4ff837faf" y="127.758584071"/>
     <use style="fill:#ff0000;stroke:#000000;stroke-width:0.5;" x="140.36" xlink:href="#md4ff837faf" y="35.8434386852"/>
     <use style="fill:#ff0000;stroke:#000000;stroke-width:0.5;" x="149.5" xlink:href="#md4ff837faf" y="26.6900632111"/>
     <use style="fill:#ff0000;stroke:#000000;stroke-width:0.5;" x="158.64" xlink:href="#md4ff837faf" y="37.750391909"/>
     <use style="fill:#ff0000;stroke:#000000;stroke-width:0.5;" x="167.78" xlink:href="#md4ff837faf" y="25.1645006321"/>
     <use style="fill:#ff0000;stroke:#000000;stroke-width:0.5;" x="176.92" xlink:href="#md4ff837faf" y="32.0295322377"/>
     <use style="fill:#ff0000;stroke:#000000;stroke-width:0.5;" x="186.06" xlink:href="#md4ff837faf" y="30.1225790139"/>
     <use style="fill:#ff0000;stroke:#000000;stroke-width:0.5;" x="195.2" xlink:href="#md4ff837faf" y="40.0387357775"/>
     <use style="fill:#ff0000;stroke:#000000;stroke-width:0.5;" x="213.48" xlink:href="#md4ff837faf" y="114.02852086"/>
     <use style="fill:#ff0000;stroke:#000000;stroke-width:0.5;" x="222.62" xlink:href="#md4ff837faf" y="194.120556258"/>
     <use style="fill:#ff0000;stroke:#000000;stroke-width:0.5;" x="231.76" xlink:href="#md4ff837faf" y="115.935474083"/>
     <use style="fill:#ff0000;stroke:#000000;stroke-width:0.5;" x="240.9" xlink:href="#md4ff837faf" y="254.380278129"/>
     <use style="fill:#ff0000;stroke:#000000;stroke-width:0.5;" x="259.18" xlink:href="#md4ff837faf" y="194.883337547"/>
     <use style="fill:#ff0000;stroke:#000000;stroke-width:0.5;" x="268.32" xlink:href="#md4ff837faf" y="186.492743363"/>
     <use style="fill:#ff0000;stroke:#000000;stroke-width:0.5;" x="277.46" xlink:href="#md4ff837faf" y="241.412996207"/>
     <use style="fill:#ff0000;stroke:#000000;stroke-width:0.5;" x="286.6" xlink:href="#md4ff837faf" y="230.352667509"/>
     <use style="fill:#ff0000;stroke:#000000;stroke-width:0.5;" x="295.74" xlink:href="#md4ff837faf" y="192.976384324"/>
     <use style="fill:#ff0000;stroke:#000000;stroke-width:0.5;" x="304.88" xlink:href="#md4ff837faf" y="184.585790139"/>
     <use style="fill:#ff0000;stroke:#000000;stroke-width:0.5;" x="323.16" xlink:href="#md4ff837faf" y="258.956965866"/>
     <use style="fill:#ff0000;stroke:#000000;stroke-width:0.5;" x="332.3" xlink:href="#md4ff837faf" y="132.716662453"/>
     <use style="fill:#ff0000;stroke:#000000;stroke-width:0.5;" x="341.44" xlink:href="#md4ff837faf" y="40.801517067"/>
     <use style="fill:#ff0000;stroke:#000000;stroke-width:0.5;" x="359.72" xlink:href="#md4ff837faf" y="100.298457649"/>
     <use style="fill:#ff0000;stroke:#000000;stroke-width:0.5;" x="387.14" xlink:href="#md4ff837faf" y="208.232010114"/>
     <use style="fill:#ff0000;stroke:#000000;stroke-width:0.5;" x="396.28" xlink:href="#md4ff837faf" y="44.2340328698"/>
     <use style="fill:#ff0000;stroke:#000000;stroke-width:0.5;" x="405.42" xlink:href="#md4ff837faf" y="83.8986599241"/>
     <use style="fill:#ff0000;stroke:#000000;stroke-width:0.5;" x="414.56" xlink:href="#md4ff837faf" y="30.5039696587"/>
     <use style="fill:#ff0000;stroke:#000000;stroke-width:0.5;" x="423.7" xlink:href="#md4ff837faf" y="36.22482933"/>
     <use style="fill:#ff0000;stroke:#000000;stroke-width:0.5;" x="432.84" xlink:href="#md4ff837faf" y="12.96"/>
     <use style="fill:#ff0000;stroke:#000000;stroke-width:0.5;" x="441.98" xlink:href="#md4ff837faf" y="71.694159292"/>
     <use style="fill:#ff0000;stroke:#000000;stroke-width:0.5;" x="451.12" xlink:href="#md4ff837faf" y="157.888445006"/>
     <use style="fill:#ff0000;stroke:#000000;stroke-width:0.5;" x="469.4" xlink:href="#md4ff837faf" y="45.7595954488"/>
     <use style="fill:#ff0000;stroke:#000000;stroke-width:0.5;" x="478.54" xlink:href="#md4ff837faf" y="138.818912769"/>
     <use style="fill:#ff0000;stroke:#000000;stroke-width:0.5;" x="487.68" xlink:href="#md4ff837faf" y="133.479443742"/>
     <use style="fill:#ff0000;stroke:#000000;stroke-width:0.5;" x="496.82" xlink:href="#md4ff837faf" y="97.2473324905"/>
     <use style="fill:#ff0000;stroke:#000000;stroke-width:0.5;" x="505.96" xlink:href="#md4ff837faf" y="310.063312263"/>
     <use style="fill:#ff0000;stroke:#000000;stroke-width:0.5;" x="524.24" xlink:href="#md4ff837faf" y="38.8945638432"/>
     <use style="fill:#ff0000;stroke:#000000;stroke-width:0.5;" x="533.38" xlink:href="#md4ff837faf" y="53.7687989886"/>
     <use style="fill:#ff0000;stroke:#000000;stroke-width:0.5;" x="542.52" xlink:href="#md4ff837faf" y="263.533653603"/>
     <use style="fill:#ff0000;stroke:#000000;stroke-width:0.5;" x="551.66" xlink:href="#md4ff837faf" y="263.533653603"/>
     <use style="fill:#ff0000;stroke:#000000;stroke-width:0.5;" x="560.8" xlink:href="#md4ff837faf" y="246.752465234"/>
     <use style="fill:#ff0000;stroke:#000000;stroke-width:0.5;" x="569.94" xlink:href="#md4ff837faf" y="44.2340328698"/>
     <use style="fill:#ff0000;stroke:#000000;stroke-width:0.5;" x="579.08" xlink:href="#md4ff837faf" y="127.758584071"/>
     <use style="fill:#ff0000;stroke:#000000;stroke-width:0.5;" x="588.22" xlink:href="#md4ff837faf" y="124.707458913"/>
     <use style="fill:#ff0000;stroke:#000000;stroke-width:0.5;" x="597.36" xlink:href="#md4ff837faf" y="61.0152212389"/>
     <use style="fill:#ff0000;stroke:#000000;stroke-width:0.5;" x="606.5" xlink:href="#md4ff837faf" y="314.64"/>
     <use style="fill:#ff0000;stroke:#000000;stroke-width:0.5;" x="615.64" xlink:href="#md4ff837faf" y="130.428318584"/>
     <use style="fill:#ff0000;stroke:#000000;stroke-width:0.5;" x="624.78" xlink:href="#md4ff837faf" y="189.925259166"/>
     <use style="fill:#ff0000;stroke:#000000;stroke-width:0.5;" x="633.92" xlink:href="#md4ff837faf" y="30.1225790139"/>
     <use style="fill:#ff0000;stroke:#000000;stroke-width:0.5;" x="643.06" xlink:href="#md4ff837faf" y="27.8342351454"/>
     <use style="fill:#ff0000;stroke:#000000;stroke-width:0.5;" x="652.2" xlink:href="#md4ff837faf" y="34.6992667509"/>
     <use style="fill:#ff0000;stroke:#000000;stroke-width:0.5;" x="661.34" xlink:href="#md4ff837faf" y="38.8945638432"/>
     <use style="fill:#ff0000;stroke:#000000;stroke-width:0.5;" x="670.48" xlink:href="#md4ff837faf" y="27.8342351454"/>
     <use style="fill:#ff0000;stroke:#000000;stroke-width:0.5;" x="679.62" xlink:href="#md4ff837faf" y="88.0939570164"/>
     <use style="fill:#ff0000;stroke:#000000;stroke-width:0.5;" x="697.9" xlink:href="#md4ff837faf" y="117.842427307"/>
     <use style="fill:#ff0000;stroke:#000000;stroke-width:0.5;" x="707.04" xlink:href="#md4ff837faf" y="150.260632111"/>
    </g>
   </g>
   <g id="line2d_2">
    <path clip-path="url(#p0d8639ea44)" d="M 48.96 61.841239 
L 58.1 29.539551 
L 67.24 22.291807 
L 76.38 20.445503 
L 85.52 53.788101 
L 94.66 49.234901 
L 103.8 228.275547 
L 112.94 75.904687 
L 131.22 92.925697 
L 140.36 21.115412 
L 149.5 26.730662 
L 158.64 44.724628 
L 167.78 24.144118 
L 176.92 48.292175 
L 186.06 54.787196 
L 195.2 20.65222 
L 213.48 114.9521 
L 222.62 191.999518 
L 231.76 110.272903 
L 240.9 240.318249 
L 259.18 215.056134 
L 268.32 238.926405 
L 277.46 246.053051 
L 286.6 233.146334 
L 295.74 219.870688 
L 304.88 221.447133 
L 323.16 243.841403 
L 332.3 134.194612 
L 341.44 27.192193 
L 359.72 114.837828 
L 387.14 187.109476 
L 396.28 54.660653 
L 405.42 35.544377 
L 414.56 24.060004 
L 423.7 40.347283 
L 432.84 23.014969 
L 441.98 49.128752 
L 451.12 133.106722 
L 469.4 25.019814 
L 478.54 148.965431 
L 487.68 108.232874 
L 496.82 88.093316 
L 505.96 204.350125 
L 524.24 28.064324 
L 533.38 34.89321 
L 542.52 246.251063 
L 551.66 239.039312 
L 560.8 236.052525 
L 569.94 55.621735 
L 579.08 132.738513 
L 588.22 135.302142 
L 597.36 33.998225 
L 606.5 283.862686 
L 615.64 129.002671 
L 624.78 155.924463 
L 633.92 27.19012 
L 643.06 41.575777 
L 652.2 22.61417 
L 661.34 36.166322 
L 670.48 20.299145 
L 679.62 45.379309 
L 697.9 28.121826 
L 707.04 126.415596 
" style="fill:none;stroke:#0000ff;stroke-linecap:square;stroke-width:2.0;"/>
    <defs>
     <path d="M 0 3 
C 0.795609 3 1.55874 2.683901 2.12132 2.12132 
C 2.683901 1.55874 3 0.795609 3 0 
C 3 -0.795609 2.683901 -1.55874 2.12132 -2.12132 
C 1.55874 -2.683901 0.795609 -3 0 -3 
C -0.795609 -3 -1.55874 -2.683901 -2.12132 -2.12132 
C -2.683901 -1.55874 -3 -0.795609 -3 0 
C -3 0.795609 -2.683901 1.55874 -2.12132 2.12132 
C -1.55874 2.683901 -0.795609 3 0 3 
z
" id="maa942b3b0b" style="stroke:#000000;stroke-width:0.5;"/>
    </defs>
    <g clip-path="url(#p0d8639ea44)">
     <use style="fill:#0000ff;stroke:#000000;stroke-width:0.5;" x="48.96" xlink:href="#maa942b3b0b" y="61.8412386536"/>
     <use style="fill:#0000ff;stroke:#000000;stroke-width:0.5;" x="58.1" xlink:href="#maa942b3b0b" y="29.5395514816"/>
     <use style="fill:#0000ff;stroke:#000000;stroke-width:0.5;" x="67.24" xlink:href="#maa942b3b0b" y="22.2918066696"/>
     <use style="fill:#0000ff;stroke:#000000;stroke-width:0.5;" x="76.38" xlink:href="#maa942b3b0b" y="20.445503266"/>
     <use style="fill:#0000ff;stroke:#000000;stroke-width:0.5;" x="85.52" xlink:href="#maa942b3b0b" y="53.788100797"/>
     <use style="fill:#0000ff;stroke:#000000;stroke-width:0.5;" x="94.66" xlink:href="#maa942b3b0b" y="49.2349010405"/>
     <use style="fill:#0000ff;stroke:#000000;stroke-width:0.5;" x="103.8" xlink:href="#maa942b3b0b" y="228.27554721"/>
     <use style="fill:#0000ff;stroke:#000000;stroke-width:0.5;" x="112.94" xlink:href="#maa942b3b0b" y="75.9046866802"/>
     <use style="fill:#0000ff;stroke:#000000;stroke-width:0.5;" x="131.22" xlink:href="#maa942b3b0b" y="92.9256966995"/>
     <use style="fill:#0000ff;stroke:#000000;stroke-width:0.5;" x="140.36" xlink:href="#maa942b3b0b" y="21.1154119424"/>
     <use style="fill:#0000ff;stroke:#000000;stroke-width:0.5;" x="149.5" xlink:href="#maa942b3b0b" y="26.7306616064"/>
     <use style="fill:#0000ff;stroke:#000000;stroke-width:0.5;" x="158.64" xlink:href="#maa942b3b0b" y="44.7246277833"/>
     <use style="fill:#0000ff;stroke:#000000;stroke-width:0.5;" x="167.78" xlink:href="#maa942b3b0b" y="24.1441176417"/>
     <use style="fill:#0000ff;stroke:#000000;stroke-width:0.5;" x="176.92" xlink:href="#maa942b3b0b" y="48.2921746261"/>
     <use style="fill:#0000ff;stroke:#000000;stroke-width:0.5;" x="186.06" xlink:href="#maa942b3b0b" y="54.7871964532"/>
     <use style="fill:#0000ff;stroke:#000000;stroke-width:0.5;" x="195.2" xlink:href="#maa942b3b0b" y="20.6522203465"/>
     <use style="fill:#0000ff;stroke:#000000;stroke-width:0.5;" x="213.48" xlink:href="#maa942b3b0b" y="114.952100081"/>
     <use style="fill:#0000ff;stroke:#000000;stroke-width:0.5;" x="222.62" xlink:href="#maa942b3b0b" y="191.999518167"/>
     <use style="fill:#0000ff;stroke:#000000;stroke-width:0.5;" x="231.76" xlink:href="#maa942b3b0b" y="110.272903205"/>
     <use style="fill:#0000ff;stroke:#000000;stroke-width:0.5;" x="240.9" xlink:href="#maa942b3b0b" y="240.318249019"/>
     <use style="fill:#0000ff;stroke:#000000;stroke-width:0.5;" x="259.18" xlink:href="#maa942b3b0b" y="215.056133885"/>
     <use style="fill:#0000ff;stroke:#000000;stroke-width:0.5;" x="268.32" xlink:href="#maa942b3b0b" y="238.926404551"/>
     <use style="fill:#0000ff;stroke:#000000;stroke-width:0.5;" x="277.46" xlink:href="#maa942b3b0b" y="246.053050626"/>
     <use style="fill:#0000ff;stroke:#000000;stroke-width:0.5;" x="286.6" xlink:href="#maa942b3b0b" y="233.14633356"/>
     <use style="fill:#0000ff;stroke:#000000;stroke-width:0.5;" x="295.74" xlink:href="#maa942b3b0b" y="219.870687869"/>
     <use style="fill:#0000ff;stroke:#000000;stroke-width:0.5;" x="304.88" xlink:href="#maa942b3b0b" y="221.447133334"/>
     <use style="fill:#0000ff;stroke:#000000;stroke-width:0.5;" x="323.16" xlink:href="#maa942b3b0b" y="243.841403261"/>
     <use style="fill:#0000ff;stroke:#000000;stroke-width:0.5;" x="332.3" xlink:href="#maa942b3b0b" y="134.194612191"/>
     <use style="fill:#0000ff;stroke:#000000;stroke-width:0.5;" x="341.44" xlink:href="#maa942b3b0b" y="27.1921933254"/>
     <use style="fill:#0000ff;stroke:#000000;stroke-width:0.5;" x="359.72" xlink:href="#maa942b3b0b" y="114.837827865"/>
     <use style="fill:#0000ff;stroke:#000000;stroke-width:0.5;" x="387.14" xlink:href="#maa942b3b0b" y="187.109475514"/>
     <use style="fill:#0000ff;stroke:#000000;stroke-width:0.5;" x="396.28" xlink:href="#maa942b3b0b" y="54.6606533287"/>
     <use style="fill:#0000ff;stroke:#000000;stroke-width:0.5;" x="405.42" xlink:href="#maa942b3b0b" y="35.5443774236"/>
     <use style="fill:#0000ff;stroke:#000000;stroke-width:0.5;" x="414.56" xlink:href="#maa942b3b0b" y="24.0600040608"/>
     <use style="fill:#0000ff;stroke:#000000;stroke-width:0.5;" x="423.7" xlink:href="#maa942b3b0b" y="40.3472832835"/>
     <use style="fill:#0000ff;stroke:#000000;stroke-width:0.5;" x="432.84" xlink:href="#maa942b3b0b" y="23.0149687851"/>
     <use style="fill:#0000ff;stroke:#000000;stroke-width:0.5;" x="441.98" xlink:href="#maa942b3b0b" y="49.1287515791"/>
     <use style="fill:#0000ff;stroke:#000000;stroke-width:0.5;" x="451.12" xlink:href="#maa942b3b0b" y="133.106722319"/>
     <use style="fill:#0000ff;stroke:#000000;stroke-width:0.5;" x="469.4" xlink:href="#maa942b3b0b" y="25.0198141588"/>
     <use style="fill:#0000ff;stroke:#000000;stroke-width:0.5;" x="478.54" xlink:href="#maa942b3b0b" y="148.965430548"/>
     <use style="fill:#0000ff;stroke:#000000;stroke-width:0.5;" x="487.68" xlink:href="#maa942b3b0b" y="108.232873924"/>
     <use style="fill:#0000ff;stroke:#000000;stroke-width:0.5;" x="496.82" xlink:href="#maa942b3b0b" y="88.0933164511"/>
     <use style="fill:#0000ff;stroke:#000000;stroke-width:0.5;" x="505.96" xlink:href="#maa942b3b0b" y="204.35012544"/>
     <use style="fill:#0000ff;stroke:#000000;stroke-width:0.5;" x="524.24" xlink:href="#maa942b3b0b" y="28.0643244323"/>
     <use style="fill:#0000ff;stroke:#000000;stroke-width:0.5;" x="533.38" xlink:href="#maa942b3b0b" y="34.8932095493"/>
     <use style="fill:#0000ff;stroke:#000000;stroke-width:0.5;" x="542.52" xlink:href="#maa942b3b0b" y="246.251062808"/>
     <use style="fill:#0000ff;stroke:#000000;stroke-width:0.5;" x="551.66" xlink:href="#maa942b3b0b" y="239.039311688"/>
     <use style="fill:#0000ff;stroke:#000000;stroke-width:0.5;" x="560.8" xlink:href="#maa942b3b0b" y="236.052524929"/>
     <use style="fill:#0000ff;stroke:#000000;stroke-width:0.5;" x="569.94" xlink:href="#maa942b3b0b" y="55.6217346196"/>
     <use style="fill:#0000ff;stroke:#000000;stroke-width:0.5;" x="579.08" xlink:href="#maa942b3b0b" y="132.738513282"/>
     <use style="fill:#0000ff;stroke:#000000;stroke-width:0.5;" x="588.22" xlink:href="#maa942b3b0b" y="135.302142134"/>
     <use style="fill:#0000ff;stroke:#000000;stroke-width:0.5;" x="597.36" xlink:href="#maa942b3b0b" y="33.9982247049"/>
     <use style="fill:#0000ff;stroke:#000000;stroke-width:0.5;" x="606.5" xlink:href="#maa942b3b0b" y="283.862685539"/>
     <use style="fill:#0000ff;stroke:#000000;stroke-width:0.5;" x="615.64" xlink:href="#maa942b3b0b" y="129.002670969"/>
     <use style="fill:#0000ff;stroke:#000000;stroke-width:0.5;" x="624.78" xlink:href="#maa942b3b0b" y="155.924463478"/>
     <use style="fill:#0000ff;stroke:#000000;stroke-width:0.5;" x="633.92" xlink:href="#maa942b3b0b" y="27.1901199734"/>
     <use style="fill:#0000ff;stroke:#000000;stroke-width:0.5;" x="643.06" xlink:href="#maa942b3b0b" y="41.575777177"/>
     <use style="fill:#0000ff;stroke:#000000;stroke-width:0.5;" x="652.2" xlink:href="#maa942b3b0b" y="22.6141704387"/>
     <use style="fill:#0000ff;stroke:#000000;stroke-width:0.5;" x="661.34" xlink:href="#maa942b3b0b" y="36.1663219446"/>
     <use style="fill:#0000ff;stroke:#000000;stroke-width:0.5;" x="670.48" xlink:href="#maa942b3b0b" y="20.2991452148"/>
     <use style="fill:#0000ff;stroke:#000000;stroke-width:0.5;" x="679.62" xlink:href="#maa942b3b0b" y="45.3793094734"/>
     <use style="fill:#0000ff;stroke:#000000;stroke-width:0.5;" x="697.9" xlink:href="#maa942b3b0b" y="28.1218262899"/>
     <use style="fill:#0000ff;stroke:#000000;stroke-width:0.5;" x="707.04" xlink:href="#maa942b3b0b" y="126.41559592"/>
    </g>
   </g>
   <g id="patch_3">
    <path d="M 707.04 314.64 
L 707.04 12.96 
" style="fill:none;stroke:#000000;stroke-linecap:square;stroke-linejoin:miter;"/>
   </g>
   <g id="patch_4">
    <path d="M 48.96 12.96 
L 707.04 12.96 
" style="fill:none;stroke:#000000;stroke-linecap:square;stroke-linejoin:miter;"/>
   </g>
   <g id="patch_5">
    <path d="M 48.96 314.64 
L 707.04 314.64 
" style="fill:none;stroke:#000000;stroke-linecap:square;stroke-linejoin:miter;"/>
   </g>
   <g id="patch_6">
    <path d="M 48.96 314.64 
L 48.96 12.96 
" style="fill:none;stroke:#000000;stroke-linecap:square;stroke-linejoin:miter;"/>
   </g>
   <g id="matplotlib.axis_1">
    <g id="xtick_1">
     <g id="line2d_3">
      <defs>
       <path d="M 0 0 
L 0 -4 
" id="m8c6500a5fb" style="stroke:#000000;stroke-width:0.5;"/>
      </defs>
      <g>
       <use style="stroke:#000000;stroke-width:0.5;" x="122.08" xlink:href="#m8c6500a5fb" y="314.64"/>
      </g>
     </g>
     <g id="line2d_4">
      <defs>
       <path d="M 0 0 
L 0 4 
" id="m1b59fd7950" style="stroke:#000000;stroke-width:0.5;"/>
      </defs>
      <g>
       <use style="stroke:#000000;stroke-width:0.5;" x="122.08" xlink:href="#m1b59fd7950" y="12.96"/>
      </g>
     </g>
     <g id="text_1">
      <!-- 10 -->
      <defs>
       <path d="M 12.40625 8.296875 
L 28.515625 8.296875 
L 28.515625 63.921875 
L 10.984375 60.40625 
L 10.984375 69.390625 
L 28.421875 72.90625 
L 38.28125 72.90625 
L 38.28125 8.296875 
L 54.390625 8.296875 
L 54.390625 0 
L 12.40625 0 
z
" id="BitstreamVeraSans-Roman-31"/>
       <path d="M 31.78125 66.40625 
Q 24.171875 66.40625 20.328125 58.90625 
Q 16.5 51.421875 16.5 36.375 
Q 16.5 21.390625 20.328125 13.890625 
Q 24.171875 6.390625 31.78125 6.390625 
Q 39.453125 6.390625 43.28125 13.890625 
Q 47.125 21.390625 47.125 36.375 
Q 47.125 51.421875 43.28125 58.90625 
Q 39.453125 66.40625 31.78125 66.40625 
M 31.78125 74.21875 
Q 44.046875 74.21875 50.515625 64.515625 
Q 56.984375 54.828125 56.984375 36.375 
Q 56.984375 17.96875 50.515625 8.265625 
Q 44.046875 -1.421875 31.78125 -1.421875 
Q 19.53125 -1.421875 13.0625 8.265625 
Q 6.59375 17.96875 6.59375 36.375 
Q 6.59375 54.828125 13.0625 64.515625 
Q 19.53125 74.21875 31.78125 74.21875 
" id="BitstreamVeraSans-Roman-30"/>
      </defs>
      <g transform="translate(114.445 327.758125)scale(0.12 -0.12)">
       <use xlink:href="#BitstreamVeraSans-Roman-31"/>
       <use x="63.623046875" xlink:href="#BitstreamVeraSans-Roman-30"/>
      </g>
     </g>
    </g>
    <g id="xtick_2">
     <g id="line2d_5">
      <g>
       <use style="stroke:#000000;stroke-width:0.5;" x="213.48" xlink:href="#m8c6500a5fb" y="314.64"/>
      </g>
     </g>
     <g id="line2d_6">
      <g>
       <use style="stroke:#000000;stroke-width:0.5;" x="213.48" xlink:href="#m1b59fd7950" y="12.96"/>
      </g>
     </g>
     <g id="text_2">
      <!-- 20 -->
      <defs>
       <path d="M 19.1875 8.296875 
L 53.609375 8.296875 
L 53.609375 0 
L 7.328125 0 
L 7.328125 8.296875 
Q 12.9375 14.109375 22.625 23.890625 
Q 32.328125 33.6875 34.8125 36.53125 
Q 39.546875 41.84375 41.421875 45.53125 
Q 43.3125 49.21875 43.3125 52.78125 
Q 43.3125 58.59375 39.234375 62.25 
Q 35.15625 65.921875 28.609375 65.921875 
Q 23.96875 65.921875 18.8125 64.3125 
Q 13.671875 62.703125 7.8125 59.421875 
L 7.8125 69.390625 
Q 13.765625 71.78125 18.9375 73 
Q 24.125 74.21875 28.421875 74.21875 
Q 39.75 74.21875 46.484375 68.546875 
Q 53.21875 62.890625 53.21875 53.421875 
Q 53.21875 48.921875 51.53125 44.890625 
Q 49.859375 40.875 45.40625 35.40625 
Q 44.1875 33.984375 37.640625 27.21875 
Q 31.109375 20.453125 19.1875 8.296875 
" id="BitstreamVeraSans-Roman-32"/>
      </defs>
      <g transform="translate(205.845 327.758125)scale(0.12 -0.12)">
       <use xlink:href="#BitstreamVeraSans-Roman-32"/>
       <use x="63.623046875" xlink:href="#BitstreamVeraSans-Roman-30"/>
      </g>
     </g>
    </g>
    <g id="xtick_3">
     <g id="line2d_7">
      <g>
       <use style="stroke:#000000;stroke-width:0.5;" x="304.88" xlink:href="#m8c6500a5fb" y="314.64"/>
      </g>
     </g>
     <g id="line2d_8">
      <g>
       <use style="stroke:#000000;stroke-width:0.5;" x="304.88" xlink:href="#m1b59fd7950" y="12.96"/>
      </g>
     </g>
     <g id="text_3">
      <!-- 30 -->
      <defs>
       <path d="M 40.578125 39.3125 
Q 47.65625 37.796875 51.625 33 
Q 55.609375 28.21875 55.609375 21.1875 
Q 55.609375 10.40625 48.1875 4.484375 
Q 40.765625 -1.421875 27.09375 -1.421875 
Q 22.515625 -1.421875 17.65625 -0.515625 
Q 12.796875 0.390625 7.625 2.203125 
L 7.625 11.71875 
Q 11.71875 9.328125 16.59375 8.109375 
Q 21.484375 6.890625 26.8125 6.890625 
Q 36.078125 6.890625 40.9375 10.546875 
Q 45.796875 14.203125 45.796875 21.1875 
Q 45.796875 27.640625 41.28125 31.265625 
Q 36.765625 34.90625 28.71875 34.90625 
L 20.21875 34.90625 
L 20.21875 43.015625 
L 29.109375 43.015625 
Q 36.375 43.015625 40.234375 45.921875 
Q 44.09375 48.828125 44.09375 54.296875 
Q 44.09375 59.90625 40.109375 62.90625 
Q 36.140625 65.921875 28.71875 65.921875 
Q 24.65625 65.921875 20.015625 65.03125 
Q 15.375 64.15625 9.8125 62.3125 
L 9.8125 71.09375 
Q 15.4375 72.65625 20.34375 73.4375 
Q 25.25 74.21875 29.59375 74.21875 
Q 40.828125 74.21875 47.359375 69.109375 
Q 53.90625 64.015625 53.90625 55.328125 
Q 53.90625 49.265625 50.4375 45.09375 
Q 46.96875 40.921875 40.578125 39.3125 
" id="BitstreamVeraSans-Roman-33"/>
      </defs>
      <g transform="translate(297.245 327.758125)scale(0.12 -0.12)">
       <use xlink:href="#BitstreamVeraSans-Roman-33"/>
       <use x="63.623046875" xlink:href="#BitstreamVeraSans-Roman-30"/>
      </g>
     </g>
    </g>
    <g id="xtick_4">
     <g id="line2d_9">
      <g>
       <use style="stroke:#000000;stroke-width:0.5;" x="396.28" xlink:href="#m8c6500a5fb" y="314.64"/>
      </g>
     </g>
     <g id="line2d_10">
      <g>
       <use style="stroke:#000000;stroke-width:0.5;" x="396.28" xlink:href="#m1b59fd7950" y="12.96"/>
      </g>
     </g>
     <g id="text_4">
      <!-- 40 -->
      <defs>
       <path d="M 37.796875 64.3125 
L 12.890625 25.390625 
L 37.796875 25.390625 
z
M 35.203125 72.90625 
L 47.609375 72.90625 
L 47.609375 25.390625 
L 58.015625 25.390625 
L 58.015625 17.1875 
L 47.609375 17.1875 
L 47.609375 0 
L 37.796875 0 
L 37.796875 17.1875 
L 4.890625 17.1875 
L 4.890625 26.703125 
z
" id="BitstreamVeraSans-Roman-34"/>
      </defs>
      <g transform="translate(388.645 327.758125)scale(0.12 -0.12)">
       <use xlink:href="#BitstreamVeraSans-Roman-34"/>
       <use x="63.623046875" xlink:href="#BitstreamVeraSans-Roman-30"/>
      </g>
     </g>
    </g>
    <g id="xtick_5">
     <g id="line2d_11">
      <g>
       <use style="stroke:#000000;stroke-width:0.5;" x="487.68" xlink:href="#m8c6500a5fb" y="314.64"/>
      </g>
     </g>
     <g id="line2d_12">
      <g>
       <use style="stroke:#000000;stroke-width:0.5;" x="487.68" xlink:href="#m1b59fd7950" y="12.96"/>
      </g>
     </g>
     <g id="text_5">
      <!-- 50 -->
      <defs>
       <path d="M 10.796875 72.90625 
L 49.515625 72.90625 
L 49.515625 64.59375 
L 19.828125 64.59375 
L 19.828125 46.734375 
Q 21.96875 47.46875 24.109375 47.828125 
Q 26.265625 48.1875 28.421875 48.1875 
Q 40.625 48.1875 47.75 41.5 
Q 54.890625 34.8125 54.890625 23.390625 
Q 54.890625 11.625 47.5625 5.09375 
Q 40.234375 -1.421875 26.90625 -1.421875 
Q 22.3125 -1.421875 17.546875 -0.640625 
Q 12.796875 0.140625 7.71875 1.703125 
L 7.71875 11.625 
Q 12.109375 9.234375 16.796875 8.0625 
Q 21.484375 6.890625 26.703125 6.890625 
Q 35.15625 6.890625 40.078125 11.328125 
Q 45.015625 15.765625 45.015625 23.390625 
Q 45.015625 31 40.078125 35.4375 
Q 35.15625 39.890625 26.703125 39.890625 
Q 22.75 39.890625 18.8125 39.015625 
Q 14.890625 38.140625 10.796875 36.28125 
z
" id="BitstreamVeraSans-Roman-35"/>
      </defs>
      <g transform="translate(480.045 327.758125)scale(0.12 -0.12)">
       <use xlink:href="#BitstreamVeraSans-Roman-35"/>
       <use x="63.623046875" xlink:href="#BitstreamVeraSans-Roman-30"/>
      </g>
     </g>
    </g>
    <g id="xtick_6">
     <g id="line2d_13">
      <g>
       <use style="stroke:#000000;stroke-width:0.5;" x="579.08" xlink:href="#m8c6500a5fb" y="314.64"/>
      </g>
     </g>
     <g id="line2d_14">
      <g>
       <use style="stroke:#000000;stroke-width:0.5;" x="579.08" xlink:href="#m1b59fd7950" y="12.96"/>
      </g>
     </g>
     <g id="text_6">
      <!-- 60 -->
      <defs>
       <path d="M 33.015625 40.375 
Q 26.375 40.375 22.484375 35.828125 
Q 18.609375 31.296875 18.609375 23.390625 
Q 18.609375 15.53125 22.484375 10.953125 
Q 26.375 6.390625 33.015625 6.390625 
Q 39.65625 6.390625 43.53125 10.953125 
Q 47.40625 15.53125 47.40625 23.390625 
Q 47.40625 31.296875 43.53125 35.828125 
Q 39.65625 40.375 33.015625 40.375 
M 52.59375 71.296875 
L 52.59375 62.3125 
Q 48.875 64.0625 45.09375 64.984375 
Q 41.3125 65.921875 37.59375 65.921875 
Q 27.828125 65.921875 22.671875 59.328125 
Q 17.53125 52.734375 16.796875 39.40625 
Q 19.671875 43.65625 24.015625 45.921875 
Q 28.375 48.1875 33.59375 48.1875 
Q 44.578125 48.1875 50.953125 41.515625 
Q 57.328125 34.859375 57.328125 23.390625 
Q 57.328125 12.15625 50.6875 5.359375 
Q 44.046875 -1.421875 33.015625 -1.421875 
Q 20.359375 -1.421875 13.671875 8.265625 
Q 6.984375 17.96875 6.984375 36.375 
Q 6.984375 53.65625 15.1875 63.9375 
Q 23.390625 74.21875 37.203125 74.21875 
Q 40.921875 74.21875 44.703125 73.484375 
Q 48.484375 72.75 52.59375 71.296875 
" id="BitstreamVeraSans-Roman-36"/>
      </defs>
      <g transform="translate(571.445 327.758125)scale(0.12 -0.12)">
       <use xlink:href="#BitstreamVeraSans-Roman-36"/>
       <use x="63.623046875" xlink:href="#BitstreamVeraSans-Roman-30"/>
      </g>
     </g>
    </g>
    <g id="xtick_7">
     <g id="line2d_15">
      <g>
       <use style="stroke:#000000;stroke-width:0.5;" x="670.48" xlink:href="#m8c6500a5fb" y="314.64"/>
      </g>
     </g>
     <g id="line2d_16">
      <g>
       <use style="stroke:#000000;stroke-width:0.5;" x="670.48" xlink:href="#m1b59fd7950" y="12.96"/>
      </g>
     </g>
     <g id="text_7">
      <!-- 70 -->
      <defs>
       <path d="M 8.203125 72.90625 
L 55.078125 72.90625 
L 55.078125 68.703125 
L 28.609375 0 
L 18.3125 0 
L 43.21875 64.59375 
L 8.203125 64.59375 
z
" id="BitstreamVeraSans-Roman-37"/>
      </defs>
      <g transform="translate(662.845 327.758125)scale(0.12 -0.12)">
       <use xlink:href="#BitstreamVeraSans-Roman-37"/>
       <use x="63.623046875" xlink:href="#BitstreamVeraSans-Roman-30"/>
      </g>
     </g>
    </g>
    <g id="text_8">
     <!-- residue number -->
     <defs>
      <path d="M 44.28125 53.078125 
L 44.28125 44.578125 
Q 40.484375 46.53125 36.375 47.5 
Q 32.28125 48.484375 27.875 48.484375 
Q 21.1875 48.484375 17.84375 46.4375 
Q 14.5 44.390625 14.5 40.28125 
Q 14.5 37.15625 16.890625 35.375 
Q 19.28125 33.59375 26.515625 31.984375 
L 29.59375 31.296875 
Q 39.15625 29.25 43.1875 25.515625 
Q 47.21875 21.78125 47.21875 15.09375 
Q 47.21875 7.46875 41.1875 3.015625 
Q 35.15625 -1.421875 24.609375 -1.421875 
Q 20.21875 -1.421875 15.453125 -0.5625 
Q 10.6875 0.296875 5.421875 2 
L 5.421875 11.28125 
Q 10.40625 8.6875 15.234375 7.390625 
Q 20.0625 6.109375 24.8125 6.109375 
Q 31.15625 6.109375 34.5625 8.28125 
Q 37.984375 10.453125 37.984375 14.40625 
Q 37.984375 18.0625 35.515625 20.015625 
Q 33.0625 21.96875 24.703125 23.78125 
L 21.578125 24.515625 
Q 13.234375 26.265625 9.515625 29.90625 
Q 5.8125 33.546875 5.8125 39.890625 
Q 5.8125 47.609375 11.28125 51.796875 
Q 16.75 56 26.8125 56 
Q 31.78125 56 36.171875 55.265625 
Q 40.578125 54.546875 44.28125 53.078125 
" id="BitstreamVeraSans-Roman-73"/>
      <path d="M 48.6875 27.296875 
Q 48.6875 37.203125 44.609375 42.84375 
Q 40.53125 48.484375 33.40625 48.484375 
Q 26.265625 48.484375 22.1875 42.84375 
Q 18.109375 37.203125 18.109375 27.296875 
Q 18.109375 17.390625 22.1875 11.75 
Q 26.265625 6.109375 33.40625 6.109375 
Q 40.53125 6.109375 44.609375 11.75 
Q 48.6875 17.390625 48.6875 27.296875 
M 18.109375 46.390625 
Q 20.953125 51.265625 25.265625 53.625 
Q 29.59375 56 35.59375 56 
Q 45.5625 56 51.78125 48.09375 
Q 58.015625 40.1875 58.015625 27.296875 
Q 58.015625 14.40625 51.78125 6.484375 
Q 45.5625 -1.421875 35.59375 -1.421875 
Q 29.59375 -1.421875 25.265625 0.953125 
Q 20.953125 3.328125 18.109375 8.203125 
L 18.109375 0 
L 9.078125 0 
L 9.078125 75.984375 
L 18.109375 75.984375 
z
" id="BitstreamVeraSans-Roman-62"/>
      <path d="M 45.40625 46.390625 
L 45.40625 75.984375 
L 54.390625 75.984375 
L 54.390625 0 
L 45.40625 0 
L 45.40625 8.203125 
Q 42.578125 3.328125 38.25 0.953125 
Q 33.9375 -1.421875 27.875 -1.421875 
Q 17.96875 -1.421875 11.734375 6.484375 
Q 5.515625 14.40625 5.515625 27.296875 
Q 5.515625 40.1875 11.734375 48.09375 
Q 17.96875 56 27.875 56 
Q 33.9375 56 38.25 53.625 
Q 42.578125 51.265625 45.40625 46.390625 
M 14.796875 27.296875 
Q 14.796875 17.390625 18.875 11.75 
Q 22.953125 6.109375 30.078125 6.109375 
Q 37.203125 6.109375 41.296875 11.75 
Q 45.40625 17.390625 45.40625 27.296875 
Q 45.40625 37.203125 41.296875 42.84375 
Q 37.203125 48.484375 30.078125 48.484375 
Q 22.953125 48.484375 18.875 42.84375 
Q 14.796875 37.203125 14.796875 27.296875 
" id="BitstreamVeraSans-Roman-64"/>
      <path d="M 54.890625 33.015625 
L 54.890625 0 
L 45.90625 0 
L 45.90625 32.71875 
Q 45.90625 40.484375 42.875 44.328125 
Q 39.84375 48.1875 33.796875 48.1875 
Q 26.515625 48.1875 22.3125 43.546875 
Q 18.109375 38.921875 18.109375 30.90625 
L 18.109375 0 
L 9.078125 0 
L 9.078125 54.6875 
L 18.109375 54.6875 
L 18.109375 46.1875 
Q 21.34375 51.125 25.703125 53.5625 
Q 30.078125 56 35.796875 56 
Q 45.21875 56 50.046875 50.171875 
Q 54.890625 44.34375 54.890625 33.015625 
" id="BitstreamVeraSans-Roman-6e"/>
      <path d="M 9.421875 54.6875 
L 18.40625 54.6875 
L 18.40625 0 
L 9.421875 0 
z
M 9.421875 75.984375 
L 18.40625 75.984375 
L 18.40625 64.59375 
L 9.421875 64.59375 
z
" id="BitstreamVeraSans-Roman-69"/>
      <path d="M 56.203125 29.59375 
L 56.203125 25.203125 
L 14.890625 25.203125 
Q 15.484375 15.921875 20.484375 11.0625 
Q 25.484375 6.203125 34.421875 6.203125 
Q 39.59375 6.203125 44.453125 7.46875 
Q 49.3125 8.734375 54.109375 11.28125 
L 54.109375 2.78125 
Q 49.265625 0.734375 44.1875 -0.34375 
Q 39.109375 -1.421875 33.890625 -1.421875 
Q 20.796875 -1.421875 13.15625 6.1875 
Q 5.515625 13.8125 5.515625 26.8125 
Q 5.515625 40.234375 12.765625 48.109375 
Q 20.015625 56 32.328125 56 
Q 43.359375 56 49.78125 48.890625 
Q 56.203125 41.796875 56.203125 29.59375 
M 47.21875 32.234375 
Q 47.125 39.59375 43.09375 43.984375 
Q 39.0625 48.390625 32.421875 48.390625 
Q 24.90625 48.390625 20.390625 44.140625 
Q 15.875 39.890625 15.1875 32.171875 
z
" id="BitstreamVeraSans-Roman-65"/>
      <path id="BitstreamVeraSans-Roman-20"/>
      <path d="M 52 44.1875 
Q 55.375 50.25 60.0625 53.125 
Q 64.75 56 71.09375 56 
Q 79.640625 56 84.28125 50.015625 
Q 88.921875 44.046875 88.921875 33.015625 
L 88.921875 0 
L 79.890625 0 
L 79.890625 32.71875 
Q 79.890625 40.578125 77.09375 44.375 
Q 74.3125 48.1875 68.609375 48.1875 
Q 61.625 48.1875 57.5625 43.546875 
Q 53.515625 38.921875 53.515625 30.90625 
L 53.515625 0 
L 44.484375 0 
L 44.484375 32.71875 
Q 44.484375 40.625 41.703125 44.40625 
Q 38.921875 48.1875 33.109375 48.1875 
Q 26.21875 48.1875 22.15625 43.53125 
Q 18.109375 38.875 18.109375 30.90625 
L 18.109375 0 
L 9.078125 0 
L 9.078125 54.6875 
L 18.109375 54.6875 
L 18.109375 46.1875 
Q 21.1875 51.21875 25.484375 53.609375 
Q 29.78125 56 35.6875 56 
Q 41.65625 56 45.828125 52.96875 
Q 50 49.953125 52 44.1875 
" id="BitstreamVeraSans-Roman-6d"/>
      <path d="M 41.109375 46.296875 
Q 39.59375 47.171875 37.8125 47.578125 
Q 36.03125 48 33.890625 48 
Q 26.265625 48 22.1875 43.046875 
Q 18.109375 38.09375 18.109375 28.8125 
L 18.109375 0 
L 9.078125 0 
L 9.078125 54.6875 
L 18.109375 54.6875 
L 18.109375 46.1875 
Q 20.953125 51.171875 25.484375 53.578125 
Q 30.03125 56 36.53125 56 
Q 37.453125 56 38.578125 55.875 
Q 39.703125 55.765625 41.0625 55.515625 
z
" id="BitstreamVeraSans-Roman-72"/>
      <path d="M 8.5 21.578125 
L 8.5 54.6875 
L 17.484375 54.6875 
L 17.484375 21.921875 
Q 17.484375 14.15625 20.5 10.265625 
Q 23.53125 6.390625 29.59375 6.390625 
Q 36.859375 6.390625 41.078125 11.03125 
Q 45.3125 15.671875 45.3125 23.6875 
L 45.3125 54.6875 
L 54.296875 54.6875 
L 54.296875 0 
L 45.3125 0 
L 45.3125 8.40625 
Q 42.046875 3.421875 37.71875 1 
Q 33.40625 -1.421875 27.6875 -1.421875 
Q 18.265625 -1.421875 13.375 4.4375 
Q 8.5 10.296875 8.5 21.578125 
" id="BitstreamVeraSans-Roman-75"/>
     </defs>
     <g transform="translate(330.42375 344.371875)scale(0.12 -0.12)">
      <use xlink:href="#BitstreamVeraSans-Roman-72"/>
      <use x="41.08203125" xlink:href="#BitstreamVeraSans-Roman-65"/>
      <use x="102.60546875" xlink:href="#BitstreamVeraSans-Roman-73"/>
      <use x="154.705078125" xlink:href="#BitstreamVeraSans-Roman-69"/>
      <use x="182.48828125" xlink:href="#BitstreamVeraSans-Roman-64"/>
      <use x="245.96484375" xlink:href="#BitstreamVeraSans-Roman-75"/>
      <use x="309.34375" xlink:href="#BitstreamVeraSans-Roman-65"/>
      <use x="370.8671875" xlink:href="#BitstreamVeraSans-Roman-20"/>
      <use x="402.654296875" xlink:href="#BitstreamVeraSans-Roman-6e"/>
      <use x="466.033203125" xlink:href="#BitstreamVeraSans-Roman-75"/>
      <use x="529.412109375" xlink:href="#BitstreamVeraSans-Roman-6d"/>
      <use x="626.82421875" xlink:href="#BitstreamVeraSans-Roman-62"/>
      <use x="690.30078125" xlink:href="#BitstreamVeraSans-Roman-65"/>
      <use x="751.82421875" xlink:href="#BitstreamVeraSans-Roman-72"/>
     </g>
    </g>
   </g>
   <g id="matplotlib.axis_2">
    <g id="ytick_1">
     <g id="line2d_17">
      <path clip-path="url(#p0d8639ea44)" d="M 48.96 290.230999 
L 707.04 290.230999 
" style="fill:none;stroke:#000000;stroke-dasharray:1.000000,3.000000;stroke-dashoffset:0.0;stroke-width:0.5;"/>
     </g>
     <g id="line2d_18">
      <defs>
       <path d="M 0 0 
L 4 0 
" id="m93f483bde7" style="stroke:#000000;stroke-width:0.5;"/>
      </defs>
      <g>
       <use style="stroke:#000000;stroke-width:0.5;" x="48.96" xlink:href="#m93f483bde7" y="290.230998736"/>
      </g>
     </g>
     <g id="line2d_19">
      <defs>
       <path d="M 0 0 
L -4 0 
" id="m92dcb31288" style="stroke:#000000;stroke-width:0.5;"/>
      </defs>
      <g>
       <use style="stroke:#000000;stroke-width:0.5;" x="707.04" xlink:href="#m92dcb31288" y="290.230998736"/>
      </g>
     </g>
     <g id="text_9">
      <!-- 3 -->
      <g transform="translate(37.325 293.542248736)scale(0.12 -0.12)">
       <use xlink:href="#BitstreamVeraSans-Roman-33"/>
      </g>
     </g>
    </g>
    <g id="ytick_2">
     <g id="line2d_20">
      <path clip-path="url(#p0d8639ea44)" d="M 48.96 252.091934 
L 707.04 252.091934 
" style="fill:none;stroke:#000000;stroke-dasharray:1.000000,3.000000;stroke-dashoffset:0.0;stroke-width:0.5;"/>
     </g>
     <g id="line2d_21">
      <g>
       <use style="stroke:#000000;stroke-width:0.5;" x="48.96" xlink:href="#m93f483bde7" y="252.09193426"/>
      </g>
     </g>
     <g id="line2d_22">
      <g>
       <use style="stroke:#000000;stroke-width:0.5;" x="707.04" xlink:href="#m92dcb31288" y="252.09193426"/>
      </g>
     </g>
     <g id="text_10">
      <!-- 4 -->
      <g transform="translate(37.325 255.40318426)scale(0.12 -0.12)">
       <use xlink:href="#BitstreamVeraSans-Roman-34"/>
      </g>
     </g>
    </g>
    <g id="ytick_3">
     <g id="line2d_23">
      <path clip-path="url(#p0d8639ea44)" d="M 48.96 213.95287 
L 707.04 213.95287 
" style="fill:none;stroke:#000000;stroke-dasharray:1.000000,3.000000;stroke-dashoffset:0.0;stroke-width:0.5;"/>
     </g>
     <g id="line2d_24">
      <g>
       <use style="stroke:#000000;stroke-width:0.5;" x="48.96" xlink:href="#m93f483bde7" y="213.952869785"/>
      </g>
     </g>
     <g id="line2d_25">
      <g>
       <use style="stroke:#000000;stroke-width:0.5;" x="707.04" xlink:href="#m92dcb31288" y="213.952869785"/>
      </g>
     </g>
     <g id="text_11">
      <!-- 5 -->
      <g transform="translate(37.325 217.264119785)scale(0.12 -0.12)">
       <use xlink:href="#BitstreamVeraSans-Roman-35"/>
      </g>
     </g>
    </g>
    <g id="ytick_4">
     <g id="line2d_26">
      <path clip-path="url(#p0d8639ea44)" d="M 48.96 175.813805 
L 707.04 175.813805 
" style="fill:none;stroke:#000000;stroke-dasharray:1.000000,3.000000;stroke-dashoffset:0.0;stroke-width:0.5;"/>
     </g>
     <g id="line2d_27">
      <g>
       <use style="stroke:#000000;stroke-width:0.5;" x="48.96" xlink:href="#m93f483bde7" y="175.81380531"/>
      </g>
     </g>
     <g id="line2d_28">
      <g>
       <use style="stroke:#000000;stroke-width:0.5;" x="707.04" xlink:href="#m92dcb31288" y="175.81380531"/>
      </g>
     </g>
     <g id="text_12">
      <!-- 6 -->
      <g transform="translate(37.325 179.12505531)scale(0.12 -0.12)">
       <use xlink:href="#BitstreamVeraSans-Roman-36"/>
      </g>
     </g>
    </g>
    <g id="ytick_5">
     <g id="line2d_29">
      <path clip-path="url(#p0d8639ea44)" d="M 48.96 137.674741 
L 707.04 137.674741 
" style="fill:none;stroke:#000000;stroke-dasharray:1.000000,3.000000;stroke-dashoffset:0.0;stroke-width:0.5;"/>
     </g>
     <g id="line2d_30">
      <g>
       <use style="stroke:#000000;stroke-width:0.5;" x="48.96" xlink:href="#m93f483bde7" y="137.674740834"/>
      </g>
     </g>
     <g id="line2d_31">
      <g>
       <use style="stroke:#000000;stroke-width:0.5;" x="707.04" xlink:href="#m92dcb31288" y="137.674740834"/>
      </g>
     </g>
     <g id="text_13">
      <!-- 7 -->
      <g transform="translate(37.325 140.985990834)scale(0.12 -0.12)">
       <use xlink:href="#BitstreamVeraSans-Roman-37"/>
      </g>
     </g>
    </g>
    <g id="ytick_6">
     <g id="line2d_32">
      <path clip-path="url(#p0d8639ea44)" d="M 48.96 99.535676 
L 707.04 99.535676 
" style="fill:none;stroke:#000000;stroke-dasharray:1.000000,3.000000;stroke-dashoffset:0.0;stroke-width:0.5;"/>
     </g>
     <g id="line2d_33">
      <g>
       <use style="stroke:#000000;stroke-width:0.5;" x="48.96" xlink:href="#m93f483bde7" y="99.535676359"/>
      </g>
     </g>
     <g id="line2d_34">
      <g>
       <use style="stroke:#000000;stroke-width:0.5;" x="707.04" xlink:href="#m92dcb31288" y="99.535676359"/>
      </g>
     </g>
     <g id="text_14">
      <!-- 8 -->
      <defs>
       <path d="M 31.78125 34.625 
Q 24.75 34.625 20.71875 30.859375 
Q 16.703125 27.09375 16.703125 20.515625 
Q 16.703125 13.921875 20.71875 10.15625 
Q 24.75 6.390625 31.78125 6.390625 
Q 38.8125 6.390625 42.859375 10.171875 
Q 46.921875 13.96875 46.921875 20.515625 
Q 46.921875 27.09375 42.890625 30.859375 
Q 38.875 34.625 31.78125 34.625 
M 21.921875 38.8125 
Q 15.578125 40.375 12.03125 44.71875 
Q 8.5 49.078125 8.5 55.328125 
Q 8.5 64.0625 14.71875 69.140625 
Q 20.953125 74.21875 31.78125 74.21875 
Q 42.671875 74.21875 48.875 69.140625 
Q 55.078125 64.0625 55.078125 55.328125 
Q 55.078125 49.078125 51.53125 44.71875 
Q 48 40.375 41.703125 38.8125 
Q 48.828125 37.15625 52.796875 32.3125 
Q 56.78125 27.484375 56.78125 20.515625 
Q 56.78125 9.90625 50.3125 4.234375 
Q 43.84375 -1.421875 31.78125 -1.421875 
Q 19.734375 -1.421875 13.25 4.234375 
Q 6.78125 9.90625 6.78125 20.515625 
Q 6.78125 27.484375 10.78125 32.3125 
Q 14.796875 37.15625 21.921875 38.8125 
M 18.3125 54.390625 
Q 18.3125 48.734375 21.84375 45.5625 
Q 25.390625 42.390625 31.78125 42.390625 
Q 38.140625 42.390625 41.71875 45.5625 
Q 45.3125 48.734375 45.3125 54.390625 
Q 45.3125 60.0625 41.71875 63.234375 
Q 38.140625 66.40625 31.78125 66.40625 
Q 25.390625 66.40625 21.84375 63.234375 
Q 18.3125 60.0625 18.3125 54.390625 
" id="BitstreamVeraSans-Roman-38"/>
      </defs>
      <g transform="translate(37.325 102.846926359)scale(0.12 -0.12)">
       <use xlink:href="#BitstreamVeraSans-Roman-38"/>
      </g>
     </g>
    </g>
    <g id="ytick_7">
     <g id="line2d_35">
      <path clip-path="url(#p0d8639ea44)" d="M 48.96 61.396612 
L 707.04 61.396612 
" style="fill:none;stroke:#000000;stroke-dasharray:1.000000,3.000000;stroke-dashoffset:0.0;stroke-width:0.5;"/>
     </g>
     <g id="line2d_36">
      <g>
       <use style="stroke:#000000;stroke-width:0.5;" x="48.96" xlink:href="#m93f483bde7" y="61.3966118837"/>
      </g>
     </g>
     <g id="line2d_37">
      <g>
       <use style="stroke:#000000;stroke-width:0.5;" x="707.04" xlink:href="#m92dcb31288" y="61.3966118837"/>
      </g>
     </g>
     <g id="text_15">
      <!-- 9 -->
      <defs>
       <path d="M 10.984375 1.515625 
L 10.984375 10.5 
Q 14.703125 8.734375 18.5 7.8125 
Q 22.3125 6.890625 25.984375 6.890625 
Q 35.75 6.890625 40.890625 13.453125 
Q 46.046875 20.015625 46.78125 33.40625 
Q 43.953125 29.203125 39.59375 26.953125 
Q 35.25 24.703125 29.984375 24.703125 
Q 19.046875 24.703125 12.671875 31.3125 
Q 6.296875 37.9375 6.296875 49.421875 
Q 6.296875 60.640625 12.9375 67.421875 
Q 19.578125 74.21875 30.609375 74.21875 
Q 43.265625 74.21875 49.921875 64.515625 
Q 56.59375 54.828125 56.59375 36.375 
Q 56.59375 19.140625 48.40625 8.859375 
Q 40.234375 -1.421875 26.421875 -1.421875 
Q 22.703125 -1.421875 18.890625 -0.6875 
Q 15.09375 0.046875 10.984375 1.515625 
M 30.609375 32.421875 
Q 37.25 32.421875 41.125 36.953125 
Q 45.015625 41.5 45.015625 49.421875 
Q 45.015625 57.28125 41.125 61.84375 
Q 37.25 66.40625 30.609375 66.40625 
Q 23.96875 66.40625 20.09375 61.84375 
Q 16.21875 57.28125 16.21875 49.421875 
Q 16.21875 41.5 20.09375 36.953125 
Q 23.96875 32.421875 30.609375 32.421875 
" id="BitstreamVeraSans-Roman-39"/>
      </defs>
      <g transform="translate(37.325 64.7078618837)scale(0.12 -0.12)">
       <use xlink:href="#BitstreamVeraSans-Roman-39"/>
      </g>
     </g>
    </g>
    <g id="ytick_8">
     <g id="line2d_38">
      <path clip-path="url(#p0d8639ea44)" d="M 48.96 23.257547 
L 707.04 23.257547 
" style="fill:none;stroke:#000000;stroke-dasharray:1.000000,3.000000;stroke-dashoffset:0.0;stroke-width:0.5;"/>
     </g>
     <g id="line2d_39">
      <g>
       <use style="stroke:#000000;stroke-width:0.5;" x="48.96" xlink:href="#m93f483bde7" y="23.2575474083"/>
      </g>
     </g>
     <g id="line2d_40">
      <g>
       <use style="stroke:#000000;stroke-width:0.5;" x="707.04" xlink:href="#m92dcb31288" y="23.2575474083"/>
      </g>
     </g>
     <g id="text_16">
      <!-- 10 -->
      <g transform="translate(29.69 26.5687974083)scale(0.12 -0.12)">
       <use xlink:href="#BitstreamVeraSans-Roman-31"/>
       <use x="63.623046875" xlink:href="#BitstreamVeraSans-Roman-30"/>
      </g>
     </g>
    </g>
    <g id="text_17">
     <!-- value -->
     <defs>
      <path d="M 9.421875 75.984375 
L 18.40625 75.984375 
L 18.40625 0 
L 9.421875 0 
z
" id="BitstreamVeraSans-Roman-6c"/>
      <path d="M 2.984375 54.6875 
L 12.5 54.6875 
L 29.59375 8.796875 
L 46.6875 54.6875 
L 56.203125 54.6875 
L 35.6875 0 
L 23.484375 0 
z
" id="BitstreamVeraSans-Roman-76"/>
      <path d="M 34.28125 27.484375 
Q 23.390625 27.484375 19.1875 25 
Q 14.984375 22.515625 14.984375 16.5 
Q 14.984375 11.71875 18.140625 8.90625 
Q 21.296875 6.109375 26.703125 6.109375 
Q 34.1875 6.109375 38.703125 11.40625 
Q 43.21875 16.703125 43.21875 25.484375 
L 43.21875 27.484375 
z
M 52.203125 31.203125 
L 52.203125 0 
L 43.21875 0 
L 43.21875 8.296875 
Q 40.140625 3.328125 35.546875 0.953125 
Q 30.953125 -1.421875 24.3125 -1.421875 
Q 15.921875 -1.421875 10.953125 3.296875 
Q 6 8.015625 6 15.921875 
Q 6 25.140625 12.171875 29.828125 
Q 18.359375 34.515625 30.609375 34.515625 
L 43.21875 34.515625 
L 43.21875 35.40625 
Q 43.21875 41.609375 39.140625 45 
Q 35.0625 48.390625 27.6875 48.390625 
Q 23 48.390625 18.546875 47.265625 
Q 14.109375 46.140625 10.015625 43.890625 
L 10.015625 52.203125 
Q 14.9375 54.109375 19.578125 55.046875 
Q 24.21875 56 28.609375 56 
Q 40.484375 56 46.34375 49.84375 
Q 52.203125 43.703125 52.203125 31.203125 
" id="BitstreamVeraSans-Roman-61"/>
     </defs>
     <g transform="translate(22.194375 180.189375)rotate(-90.0)scale(0.12 -0.12)">
      <use xlink:href="#BitstreamVeraSans-Roman-76"/>
      <use x="59.1796875" xlink:href="#BitstreamVeraSans-Roman-61"/>
      <use x="120.458984375" xlink:href="#BitstreamVeraSans-Roman-6c"/>
      <use x="148.2421875" xlink:href="#BitstreamVeraSans-Roman-75"/>
      <use x="211.62109375" xlink:href="#BitstreamVeraSans-Roman-65"/>
     </g>
    </g>
   </g>
   <g id="legend_1">
    <g id="patch_7">
     <path d="M 56.16 307.44 
L 136.6605 307.44 
L 136.6605 260.847 
L 56.16 260.847 
z
" style="fill:#ffffff;stroke:#000000;stroke-linejoin:miter;"/>
    </g>
    <g id="line2d_41">
     <path d="M 66.24 272.50875 
L 86.4 272.50875 
" style="fill:none;stroke:#ff0000;stroke-linecap:square;stroke-width:2.0;"/>
    </g>
    <g id="line2d_42">
     <g>
      <use style="fill:#ff0000;stroke:#000000;stroke-width:0.5;" x="66.24" xlink:href="#md4ff837faf" y="272.50875"/>
      <use style="fill:#ff0000;stroke:#000000;stroke-width:0.5;" x="86.4" xlink:href="#md4ff837faf" y="272.50875"/>
     </g>
    </g>
    <g id="text_18">
     <!-- exp -->
     <defs>
      <path d="M 18.109375 8.203125 
L 18.109375 -20.796875 
L 9.078125 -20.796875 
L 9.078125 54.6875 
L 18.109375 54.6875 
L 18.109375 46.390625 
Q 20.953125 51.265625 25.265625 53.625 
Q 29.59375 56 35.59375 56 
Q 45.5625 56 51.78125 48.09375 
Q 58.015625 40.1875 58.015625 27.296875 
Q 58.015625 14.40625 51.78125 6.484375 
Q 45.5625 -1.421875 35.59375 -1.421875 
Q 29.59375 -1.421875 25.265625 0.953125 
Q 20.953125 3.328125 18.109375 8.203125 
M 48.6875 27.296875 
Q 48.6875 37.203125 44.609375 42.84375 
Q 40.53125 48.484375 33.40625 48.484375 
Q 26.265625 48.484375 22.1875 42.84375 
Q 18.109375 37.203125 18.109375 27.296875 
Q 18.109375 17.390625 22.1875 11.75 
Q 26.265625 6.109375 33.40625 6.109375 
Q 40.53125 6.109375 44.609375 11.75 
Q 48.6875 17.390625 48.6875 27.296875 
" id="BitstreamVeraSans-Roman-70"/>
      <path d="M 54.890625 54.6875 
L 35.109375 28.078125 
L 55.90625 0 
L 45.3125 0 
L 29.390625 21.484375 
L 13.484375 0 
L 2.875 0 
L 24.125 28.609375 
L 4.6875 54.6875 
L 15.28125 54.6875 
L 29.78125 35.203125 
L 44.28125 54.6875 
z
" id="BitstreamVeraSans-Roman-78"/>
     </defs>
     <g transform="translate(102.24 277.54875)scale(0.144 -0.144)">
      <use xlink:href="#BitstreamVeraSans-Roman-65"/>
      <use x="61.5078125" xlink:href="#BitstreamVeraSans-Roman-78"/>
      <use x="120.6875" xlink:href="#BitstreamVeraSans-Roman-70"/>
     </g>
    </g>
    <g id="line2d_43">
     <path d="M 66.24 293.64525 
L 86.4 293.64525 
" style="fill:none;stroke:#0000ff;stroke-linecap:square;stroke-width:2.0;"/>
    </g>
    <g id="line2d_44">
     <g>
      <use style="fill:#0000ff;stroke:#000000;stroke-width:0.5;" x="66.24" xlink:href="#maa942b3b0b" y="293.64525"/>
      <use style="fill:#0000ff;stroke:#000000;stroke-width:0.5;" x="86.4" xlink:href="#maa942b3b0b" y="293.64525"/>
     </g>
    </g>
    <g id="text_19">
     <!-- calc -->
     <defs>
      <path d="M 48.78125 52.59375 
L 48.78125 44.1875 
Q 44.96875 46.296875 41.140625 47.34375 
Q 37.3125 48.390625 33.40625 48.390625 
Q 24.65625 48.390625 19.8125 42.84375 
Q 14.984375 37.3125 14.984375 27.296875 
Q 14.984375 17.28125 19.8125 11.734375 
Q 24.65625 6.203125 33.40625 6.203125 
Q 37.3125 6.203125 41.140625 7.25 
Q 44.96875 8.296875 48.78125 10.40625 
L 48.78125 2.09375 
Q 45.015625 0.34375 40.984375 -0.53125 
Q 36.96875 -1.421875 32.421875 -1.421875 
Q 20.0625 -1.421875 12.78125 6.34375 
Q 5.515625 14.109375 5.515625 27.296875 
Q 5.515625 40.671875 12.859375 48.328125 
Q 20.21875 56 33.015625 56 
Q 37.15625 56 41.109375 55.140625 
Q 45.0625 54.296875 48.78125 52.59375 
" id="BitstreamVeraSans-Roman-63"/>
     </defs>
     <g transform="translate(102.24 298.68525)scale(0.144 -0.144)">
      <use xlink:href="#BitstreamVeraSans-Roman-63"/>
      <use x="54.98046875" xlink:href="#BitstreamVeraSans-Roman-61"/>
      <use x="116.259765625" xlink:href="#BitstreamVeraSans-Roman-6c"/>
      <use x="144.04296875" xlink:href="#BitstreamVeraSans-Roman-63"/>
     </g>
    </g>
   </g>
  </g>
 </g>
 <defs>
  <clipPath id="p0d8639ea44">
   <rect height="301.68" width="658.08" x="48.96" y="12.96"/>
  </clipPath>
 </defs>
</svg>
