<?xml version="1.0" encoding="utf-8" standalone="no"?>
<!DOCTYPE svg PUBLIC "-//W3C//DTD SVG 1.1//EN"
  "http://www.w3.org/Graphics/SVG/1.1/DTD/svg11.dtd">
<!-- Created with matplotlib (http://matplotlib.org/) -->
<svg height="360pt" version="1.1" viewBox="0 0 720 360" width="720pt" xmlns="http://www.w3.org/2000/svg" xmlns:xlink="http://www.w3.org/1999/xlink">
 <defs>
  <style type="text/css">
*{stroke-linecap:butt;stroke-linejoin:round;stroke-miterlimit:100000;}
  </style>
 </defs>
 <g id="figure_1">
  <g id="patch_1">
   <path d="M 0 360 
L 720 360 
L 720 0 
L 0 0 
z
" style="fill:#ffffff;"/>
  </g>
  <g id="axes_1">
   <g id="patch_2">
    <path d="M 52.8975 314.64 
L 707.04 314.64 
L 707.04 13.021055 
L 52.8975 13.021055 
z
" style="fill:#ffffff;"/>
   </g>
   <g id="line2d_1">
    <path clip-path="url(#pa5a34f6c49)" d="M 52.8975 278.263846 
L 62.377826 141.853268 
L 71.858152 294.178413 
L 81.338478 230.520144 
L 90.818804 288.873557 
L 100.29913 287.357884 
L 109.779457 163.830528 
L 119.259783 275.990336 
L 128.740109 273.716827 
L 138.220435 260.833605 
L 147.700761 257.802259 
L 157.181087 260.833605 
L 166.661413 294.93625 
L 176.141739 225.215288 
L 185.622065 254.013076 
L 195.102391 173.682403 
L 204.582717 251.739567 
L 223.54337 270.68548 
L 242.504022 283.568702 
L 251.984348 167.61971 
L 270.945 233.55149 
L 280.425326 241.887692 
L 289.905652 208.542884 
L 308.866304 223.699615 
L 318.34663 234.309326 
L 327.826957 148.673797 
L 337.307283 153.978653 
L 346.787609 264.622788 
L 356.267935 288.115721 
L 365.748261 209.30072 
L 403.669565 197.175336 
L 413.149891 239.614182 
L 422.630217 298.725433 
L 432.110543 169.135383 
L 441.59087 265.380625 
L 451.071196 277.506009 
L 460.551522 157.767835 
L 470.031848 13.021055 
L 479.512174 210.058557 
L 488.9925 275.990336 
L 498.472826 280.537355 
L 507.953152 285.842211 
L 517.433478 289.631394 
L 526.913804 63.038267 
L 545.874457 269.927644 
L 555.354783 309.335144 
L 564.835109 137.306249 
L 574.315435 141.853268 
L 583.795761 166.104037 
L 593.276087 279.021682 
L 602.756413 93.351729 
L 612.236739 292.66274 
L 621.717065 269.927644 
L 631.197391 85.773364 
L 640.677717 160.799181 
L 650.158043 228.246634 
L 659.63837 314.64 
L 669.118696 272.95899 
L 678.599022 257.044423 
L 697.559674 221.426105 
L 707.04 275.2325 
" style="fill:none;stroke:#ff0000;stroke-linecap:square;stroke-width:2.0;"/>
    <defs>
     <path d="M 0 3 
C 0.795609 3 1.55874 2.683901 2.12132 2.12132 
C 2.683901 1.55874 3 0.795609 3 0 
C 3 -0.795609 2.683901 -1.55874 2.12132 -2.12132 
C 1.55874 -2.683901 0.795609 -3 0 -3 
C -0.795609 -3 -1.55874 -2.683901 -2.12132 -2.12132 
C -2.683901 -1.55874 -3 -0.795609 -3 0 
C -3 0.795609 -2.683901 1.55874 -2.12132 2.12132 
C -1.55874 2.683901 -0.795609 3 0 3 
z
" id="mc138b99d3c" style="stroke:#000000;stroke-width:0.5;"/>
    </defs>
    <g clip-path="url(#pa5a34f6c49)">
     <use style="fill:#ff0000;stroke:#000000;stroke-width:0.5;" x="52.8975" xlink:href="#mc138b99d3c" y="278.263845862"/>
     <use style="fill:#ff0000;stroke:#000000;stroke-width:0.5;" x="62.377826087" xlink:href="#mc138b99d3c" y="141.853267847"/>
     <use style="fill:#ff0000;stroke:#000000;stroke-width:0.5;" x="71.8581521739" xlink:href="#mc138b99d3c" y="294.178413298"/>
     <use style="fill:#ff0000;stroke:#000000;stroke-width:0.5;" x="81.3384782609" xlink:href="#mc138b99d3c" y="230.520143557"/>
     <use style="fill:#ff0000;stroke:#000000;stroke-width:0.5;" x="90.8188043478" xlink:href="#mc138b99d3c" y="288.873557486"/>
     <use style="fill:#ff0000;stroke:#000000;stroke-width:0.5;" x="100.299130435" xlink:href="#mc138b99d3c" y="287.357884397"/>
     <use style="fill:#ff0000;stroke:#000000;stroke-width:0.5;" x="109.779456522" xlink:href="#mc138b99d3c" y="163.830527638"/>
     <use style="fill:#ff0000;stroke:#000000;stroke-width:0.5;" x="119.259782609" xlink:href="#mc138b99d3c" y="275.990336229"/>
     <use style="fill:#ff0000;stroke:#000000;stroke-width:0.5;" x="128.740108696" xlink:href="#mc138b99d3c" y="273.716826595"/>
     <use style="fill:#ff0000;stroke:#000000;stroke-width:0.5;" x="138.220434783" xlink:href="#mc138b99d3c" y="260.833605338"/>
     <use style="fill:#ff0000;stroke:#000000;stroke-width:0.5;" x="147.70076087" xlink:href="#mc138b99d3c" y="257.80225916"/>
     <use style="fill:#ff0000;stroke:#000000;stroke-width:0.5;" x="157.181086957" xlink:href="#mc138b99d3c" y="260.833605338"/>
     <use style="fill:#ff0000;stroke:#000000;stroke-width:0.5;" x="166.661413043" xlink:href="#mc138b99d3c" y="294.936249842"/>
     <use style="fill:#ff0000;stroke:#000000;stroke-width:0.5;" x="176.14173913" xlink:href="#mc138b99d3c" y="225.215287745"/>
     <use style="fill:#ff0000;stroke:#000000;stroke-width:0.5;" x="185.622065217" xlink:href="#mc138b99d3c" y="254.013076437"/>
     <use style="fill:#ff0000;stroke:#000000;stroke-width:0.5;" x="195.102391304" xlink:href="#mc138b99d3c" y="173.682402717"/>
     <use style="fill:#ff0000;stroke:#000000;stroke-width:0.5;" x="204.582717391" xlink:href="#mc138b99d3c" y="251.739566804"/>
     <use style="fill:#ff0000;stroke:#000000;stroke-width:0.5;" x="223.543369565" xlink:href="#mc138b99d3c" y="270.685480417"/>
     <use style="fill:#ff0000;stroke:#000000;stroke-width:0.5;" x="242.504021739" xlink:href="#mc138b99d3c" y="283.568701674"/>
     <use style="fill:#ff0000;stroke:#000000;stroke-width:0.5;" x="251.984347826" xlink:href="#mc138b99d3c" y="167.619710361"/>
     <use style="fill:#ff0000;stroke:#000000;stroke-width:0.5;" x="270.945" xlink:href="#mc138b99d3c" y="233.551489735"/>
     <use style="fill:#ff0000;stroke:#000000;stroke-width:0.5;" x="280.425326087" xlink:href="#mc138b99d3c" y="241.887691725"/>
     <use style="fill:#ff0000;stroke:#000000;stroke-width:0.5;" x="289.905652174" xlink:href="#mc138b99d3c" y="208.542883766"/>
     <use style="fill:#ff0000;stroke:#000000;stroke-width:0.5;" x="308.866304348" xlink:href="#mc138b99d3c" y="223.699614656"/>
     <use style="fill:#ff0000;stroke:#000000;stroke-width:0.5;" x="318.346630435" xlink:href="#mc138b99d3c" y="234.30932628"/>
     <use style="fill:#ff0000;stroke:#000000;stroke-width:0.5;" x="327.826956522" xlink:href="#mc138b99d3c" y="148.673796748"/>
     <use style="fill:#ff0000;stroke:#000000;stroke-width:0.5;" x="337.307282609" xlink:href="#mc138b99d3c" y="153.978652559"/>
     <use style="fill:#ff0000;stroke:#000000;stroke-width:0.5;" x="346.787608696" xlink:href="#mc138b99d3c" y="264.622788061"/>
     <use style="fill:#ff0000;stroke:#000000;stroke-width:0.5;" x="356.267934783" xlink:href="#mc138b99d3c" y="288.115720941"/>
     <use style="fill:#ff0000;stroke:#000000;stroke-width:0.5;" x="365.74826087" xlink:href="#mc138b99d3c" y="209.30072031"/>
     <use style="fill:#ff0000;stroke:#000000;stroke-width:0.5;" x="403.669565217" xlink:href="#mc138b99d3c" y="197.175335598"/>
     <use style="fill:#ff0000;stroke:#000000;stroke-width:0.5;" x="413.149891304" xlink:href="#mc138b99d3c" y="239.614182091"/>
     <use style="fill:#ff0000;stroke:#000000;stroke-width:0.5;" x="422.630217391" xlink:href="#mc138b99d3c" y="298.725432565"/>
     <use style="fill:#ff0000;stroke:#000000;stroke-width:0.5;" x="432.110543478" xlink:href="#mc138b99d3c" y="169.13538345"/>
     <use style="fill:#ff0000;stroke:#000000;stroke-width:0.5;" x="441.590869565" xlink:href="#mc138b99d3c" y="265.380624605"/>
     <use style="fill:#ff0000;stroke:#000000;stroke-width:0.5;" x="451.071195652" xlink:href="#mc138b99d3c" y="277.506009318"/>
     <use style="fill:#ff0000;stroke:#000000;stroke-width:0.5;" x="460.551521739" xlink:href="#mc138b99d3c" y="157.767835282"/>
     <use style="fill:#ff0000;stroke:#000000;stroke-width:0.5;" x="470.031847826" xlink:href="#mc138b99d3c" y="13.0210552764"/>
     <use style="fill:#ff0000;stroke:#000000;stroke-width:0.5;" x="479.512173913" xlink:href="#mc138b99d3c" y="210.058556855"/>
     <use style="fill:#ff0000;stroke:#000000;stroke-width:0.5;" x="488.9925" xlink:href="#mc138b99d3c" y="275.990336229"/>
     <use style="fill:#ff0000;stroke:#000000;stroke-width:0.5;" x="498.472826087" xlink:href="#mc138b99d3c" y="280.537355496"/>
     <use style="fill:#ff0000;stroke:#000000;stroke-width:0.5;" x="507.953152174" xlink:href="#mc138b99d3c" y="285.842211308"/>
     <use style="fill:#ff0000;stroke:#000000;stroke-width:0.5;" x="517.433478261" xlink:href="#mc138b99d3c" y="289.63139403"/>
     <use style="fill:#ff0000;stroke:#000000;stroke-width:0.5;" x="526.913804348" xlink:href="#mc138b99d3c" y="63.0382672155"/>
     <use style="fill:#ff0000;stroke:#000000;stroke-width:0.5;" x="545.874456522" xlink:href="#mc138b99d3c" y="269.927643873"/>
     <use style="fill:#ff0000;stroke:#000000;stroke-width:0.5;" x="555.354782609" xlink:href="#mc138b99d3c" y="309.335144188"/>
     <use style="fill:#ff0000;stroke:#000000;stroke-width:0.5;" x="564.835108696" xlink:href="#mc138b99d3c" y="137.30624858"/>
     <use style="fill:#ff0000;stroke:#000000;stroke-width:0.5;" x="574.315434783" xlink:href="#mc138b99d3c" y="141.853267847"/>
     <use style="fill:#ff0000;stroke:#000000;stroke-width:0.5;" x="583.79576087" xlink:href="#mc138b99d3c" y="166.104037272"/>
     <use style="fill:#ff0000;stroke:#000000;stroke-width:0.5;" x="593.276086957" xlink:href="#mc138b99d3c" y="279.021682407"/>
     <use style="fill:#ff0000;stroke:#000000;stroke-width:0.5;" x="602.756413043" xlink:href="#mc138b99d3c" y="93.3517289967"/>
     <use style="fill:#ff0000;stroke:#000000;stroke-width:0.5;" x="612.23673913" xlink:href="#mc138b99d3c" y="292.662740209"/>
     <use style="fill:#ff0000;stroke:#000000;stroke-width:0.5;" x="621.717065217" xlink:href="#mc138b99d3c" y="269.927643873"/>
     <use style="fill:#ff0000;stroke:#000000;stroke-width:0.5;" x="631.197391304" xlink:href="#mc138b99d3c" y="85.7733635514"/>
     <use style="fill:#ff0000;stroke:#000000;stroke-width:0.5;" x="640.677717391" xlink:href="#mc138b99d3c" y="160.79918146"/>
     <use style="fill:#ff0000;stroke:#000000;stroke-width:0.5;" x="650.158043478" xlink:href="#mc138b99d3c" y="228.246633923"/>
     <use style="fill:#ff0000;stroke:#000000;stroke-width:0.5;" x="659.638369565" xlink:href="#mc138b99d3c" y="314.64"/>
     <use style="fill:#ff0000;stroke:#000000;stroke-width:0.5;" x="669.118695652" xlink:href="#mc138b99d3c" y="272.958990051"/>
     <use style="fill:#ff0000;stroke:#000000;stroke-width:0.5;" x="678.599021739" xlink:href="#mc138b99d3c" y="257.044422616"/>
     <use style="fill:#ff0000;stroke:#000000;stroke-width:0.5;" x="697.559673913" xlink:href="#mc138b99d3c" y="221.426105023"/>
     <use style="fill:#ff0000;stroke:#000000;stroke-width:0.5;" x="707.04" xlink:href="#mc138b99d3c" y="275.232499684"/>
    </g>
   </g>
   <g id="line2d_2">
    <path clip-path="url(#pa5a34f6c49)" d="M 52.8975 286.819714 
L 62.377826 188.646427 
L 71.858152 213.994844 
L 81.338478 228.449668 
L 90.818804 285.294874 
L 100.29913 283.53847 
L 109.779457 191.262113 
L 119.259783 287.06168 
L 128.740109 284.467452 
L 138.220435 284.509362 
L 147.700761 245.649046 
L 157.181087 263.874539 
L 166.661413 281.657248 
L 176.141739 206.270769 
L 185.622065 283.358241 
L 195.102391 140.584641 
L 204.582717 242.680907 
L 223.54337 277.27159 
L 242.504022 279.126057 
L 251.984348 177.691695 
L 270.945 205.309879 
L 280.425326 179.253007 
L 289.905652 170.80706 
L 308.866304 200.415926 
L 318.34663 198.763229 
L 327.826957 170.664038 
L 337.307283 173.466702 
L 346.787609 268.082442 
L 356.267935 264.720729 
L 365.748261 268.185643 
L 403.669565 231.29743 
L 413.149891 285.542565 
L 422.630217 275.312607 
L 432.110543 206.125475 
L 441.59087 278.984034 
L 451.071196 211.838397 
L 460.551522 149.481153 
L 470.031848 106.370043 
L 479.512174 269.280967 
L 488.9925 260.31641 
L 498.472826 259.449734 
L 507.953152 279.885822 
L 517.433478 285.554743 
L 526.913804 215.784361 
L 545.874457 266.14801 
L 555.354783 274.760564 
L 564.835109 170.564221 
L 574.315435 179.188318 
L 583.795761 182.664494 
L 593.276087 285.770557 
L 602.756413 107.958838 
L 612.236739 267.494736 
L 621.717065 273.861584 
L 631.197391 118.042685 
L 640.677717 209.308287 
L 650.158043 254.942375 
L 659.63837 264.491577 
L 669.118696 279.994232 
L 678.599022 252.835731 
L 697.559674 231.417697 
L 707.04 281.106132 
" style="fill:none;stroke:#0000ff;stroke-linecap:square;stroke-width:2.0;"/>
    <defs>
     <path d="M 0 3 
C 0.795609 3 1.55874 2.683901 2.12132 2.12132 
C 2.683901 1.55874 3 0.795609 3 0 
C 3 -0.795609 2.683901 -1.55874 2.12132 -2.12132 
C 1.55874 -2.683901 0.795609 -3 0 -3 
C -0.795609 -3 -1.55874 -2.683901 -2.12132 -2.12132 
C -2.683901 -1.55874 -3 -0.795609 -3 0 
C -3 0.795609 -2.683901 1.55874 -2.12132 2.12132 
C -1.55874 2.683901 -0.795609 3 0 3 
z
" id="m7394f47360" style="stroke:#000000;stroke-width:0.5;"/>
    </defs>
    <g clip-path="url(#pa5a34f6c49)">
     <use style="fill:#0000ff;stroke:#000000;stroke-width:0.5;" x="52.8975" xlink:href="#m7394f47360" y="286.819713908"/>
     <use style="fill:#0000ff;stroke:#000000;stroke-width:0.5;" x="62.377826087" xlink:href="#m7394f47360" y="188.646427411"/>
     <use style="fill:#0000ff;stroke:#000000;stroke-width:0.5;" x="71.8581521739" xlink:href="#m7394f47360" y="213.994844288"/>
     <use style="fill:#0000ff;stroke:#000000;stroke-width:0.5;" x="81.3384782609" xlink:href="#m7394f47360" y="228.449668398"/>
     <use style="fill:#0000ff;stroke:#000000;stroke-width:0.5;" x="90.8188043478" xlink:href="#m7394f47360" y="285.294874485"/>
     <use style="fill:#0000ff;stroke:#000000;stroke-width:0.5;" x="100.299130435" xlink:href="#m7394f47360" y="283.538469557"/>
     <use style="fill:#0000ff;stroke:#000000;stroke-width:0.5;" x="109.779456522" xlink:href="#m7394f47360" y="191.262112981"/>
     <use style="fill:#0000ff;stroke:#000000;stroke-width:0.5;" x="119.259782609" xlink:href="#m7394f47360" y="287.061680308"/>
     <use style="fill:#0000ff;stroke:#000000;stroke-width:0.5;" x="128.740108696" xlink:href="#m7394f47360" y="284.467451952"/>
     <use style="fill:#0000ff;stroke:#000000;stroke-width:0.5;" x="138.220434783" xlink:href="#m7394f47360" y="284.509361946"/>
     <use style="fill:#0000ff;stroke:#000000;stroke-width:0.5;" x="147.70076087" xlink:href="#m7394f47360" y="245.649045844"/>
     <use style="fill:#0000ff;stroke:#000000;stroke-width:0.5;" x="157.181086957" xlink:href="#m7394f47360" y="263.874539355"/>
     <use style="fill:#0000ff;stroke:#000000;stroke-width:0.5;" x="166.661413043" xlink:href="#m7394f47360" y="281.657248284"/>
     <use style="fill:#0000ff;stroke:#000000;stroke-width:0.5;" x="176.14173913" xlink:href="#m7394f47360" y="206.270768656"/>
     <use style="fill:#0000ff;stroke:#000000;stroke-width:0.5;" x="185.622065217" xlink:href="#m7394f47360" y="283.358241467"/>
     <use style="fill:#0000ff;stroke:#000000;stroke-width:0.5;" x="195.102391304" xlink:href="#m7394f47360" y="140.58464121"/>
     <use style="fill:#0000ff;stroke:#000000;stroke-width:0.5;" x="204.582717391" xlink:href="#m7394f47360" y="242.6809069"/>
     <use style="fill:#0000ff;stroke:#000000;stroke-width:0.5;" x="223.543369565" xlink:href="#m7394f47360" y="277.27159001"/>
     <use style="fill:#0000ff;stroke:#000000;stroke-width:0.5;" x="242.504021739" xlink:href="#m7394f47360" y="279.126056516"/>
     <use style="fill:#0000ff;stroke:#000000;stroke-width:0.5;" x="251.984347826" xlink:href="#m7394f47360" y="177.691694665"/>
     <use style="fill:#0000ff;stroke:#000000;stroke-width:0.5;" x="270.945" xlink:href="#m7394f47360" y="205.309879001"/>
     <use style="fill:#0000ff;stroke:#000000;stroke-width:0.5;" x="280.425326087" xlink:href="#m7394f47360" y="179.253007286"/>
     <use style="fill:#0000ff;stroke:#000000;stroke-width:0.5;" x="289.905652174" xlink:href="#m7394f47360" y="170.807059907"/>
     <use style="fill:#0000ff;stroke:#000000;stroke-width:0.5;" x="308.866304348" xlink:href="#m7394f47360" y="200.415925604"/>
     <use style="fill:#0000ff;stroke:#000000;stroke-width:0.5;" x="318.346630435" xlink:href="#m7394f47360" y="198.763229382"/>
     <use style="fill:#0000ff;stroke:#000000;stroke-width:0.5;" x="327.826956522" xlink:href="#m7394f47360" y="170.664038255"/>
     <use style="fill:#0000ff;stroke:#000000;stroke-width:0.5;" x="337.307282609" xlink:href="#m7394f47360" y="173.466701998"/>
     <use style="fill:#0000ff;stroke:#000000;stroke-width:0.5;" x="346.787608696" xlink:href="#m7394f47360" y="268.08244172"/>
     <use style="fill:#0000ff;stroke:#000000;stroke-width:0.5;" x="356.267934783" xlink:href="#m7394f47360" y="264.720729304"/>
     <use style="fill:#0000ff;stroke:#000000;stroke-width:0.5;" x="365.74826087" xlink:href="#m7394f47360" y="268.185643394"/>
     <use style="fill:#0000ff;stroke:#000000;stroke-width:0.5;" x="403.669565217" xlink:href="#m7394f47360" y="231.297430216"/>
     <use style="fill:#0000ff;stroke:#000000;stroke-width:0.5;" x="413.149891304" xlink:href="#m7394f47360" y="285.542565357"/>
     <use style="fill:#0000ff;stroke:#000000;stroke-width:0.5;" x="422.630217391" xlink:href="#m7394f47360" y="275.312607038"/>
     <use style="fill:#0000ff;stroke:#000000;stroke-width:0.5;" x="432.110543478" xlink:href="#m7394f47360" y="206.125475345"/>
     <use style="fill:#0000ff;stroke:#000000;stroke-width:0.5;" x="441.590869565" xlink:href="#m7394f47360" y="278.984034467"/>
     <use style="fill:#0000ff;stroke:#000000;stroke-width:0.5;" x="451.071195652" xlink:href="#m7394f47360" y="211.838396781"/>
     <use style="fill:#0000ff;stroke:#000000;stroke-width:0.5;" x="460.551521739" xlink:href="#m7394f47360" y="149.48115322"/>
     <use style="fill:#0000ff;stroke:#000000;stroke-width:0.5;" x="470.031847826" xlink:href="#m7394f47360" y="106.37004311"/>
     <use style="fill:#0000ff;stroke:#000000;stroke-width:0.5;" x="479.512173913" xlink:href="#m7394f47360" y="269.28096665"/>
     <use style="fill:#0000ff;stroke:#000000;stroke-width:0.5;" x="488.9925" xlink:href="#m7394f47360" y="260.316409522"/>
     <use style="fill:#0000ff;stroke:#000000;stroke-width:0.5;" x="498.472826087" xlink:href="#m7394f47360" y="259.449734279"/>
     <use style="fill:#0000ff;stroke:#000000;stroke-width:0.5;" x="507.953152174" xlink:href="#m7394f47360" y="279.885822062"/>
     <use style="fill:#0000ff;stroke:#000000;stroke-width:0.5;" x="517.433478261" xlink:href="#m7394f47360" y="285.554742584"/>
     <use style="fill:#0000ff;stroke:#000000;stroke-width:0.5;" x="526.913804348" xlink:href="#m7394f47360" y="215.784360894"/>
     <use style="fill:#0000ff;stroke:#000000;stroke-width:0.5;" x="545.874456522" xlink:href="#m7394f47360" y="266.148010432"/>
     <use style="fill:#0000ff;stroke:#000000;stroke-width:0.5;" x="555.354782609" xlink:href="#m7394f47360" y="274.760563581"/>
     <use style="fill:#0000ff;stroke:#000000;stroke-width:0.5;" x="564.835108696" xlink:href="#m7394f47360" y="170.564220683"/>
     <use style="fill:#0000ff;stroke:#000000;stroke-width:0.5;" x="574.315434783" xlink:href="#m7394f47360" y="179.188318474"/>
     <use style="fill:#0000ff;stroke:#000000;stroke-width:0.5;" x="583.79576087" xlink:href="#m7394f47360" y="182.664493738"/>
     <use style="fill:#0000ff;stroke:#000000;stroke-width:0.5;" x="593.276086957" xlink:href="#m7394f47360" y="285.77055657"/>
     <use style="fill:#0000ff;stroke:#000000;stroke-width:0.5;" x="602.756413043" xlink:href="#m7394f47360" y="107.958838311"/>
     <use style="fill:#0000ff;stroke:#000000;stroke-width:0.5;" x="612.23673913" xlink:href="#m7394f47360" y="267.494735575"/>
     <use style="fill:#0000ff;stroke:#000000;stroke-width:0.5;" x="621.717065217" xlink:href="#m7394f47360" y="273.861584162"/>
     <use style="fill:#0000ff;stroke:#000000;stroke-width:0.5;" x="631.197391304" xlink:href="#m7394f47360" y="118.042685205"/>
     <use style="fill:#0000ff;stroke:#000000;stroke-width:0.5;" x="640.677717391" xlink:href="#m7394f47360" y="209.308286831"/>
     <use style="fill:#0000ff;stroke:#000000;stroke-width:0.5;" x="650.158043478" xlink:href="#m7394f47360" y="254.942375368"/>
     <use style="fill:#0000ff;stroke:#000000;stroke-width:0.5;" x="659.638369565" xlink:href="#m7394f47360" y="264.49157737"/>
     <use style="fill:#0000ff;stroke:#000000;stroke-width:0.5;" x="669.118695652" xlink:href="#m7394f47360" y="279.994231882"/>
     <use style="fill:#0000ff;stroke:#000000;stroke-width:0.5;" x="678.599021739" xlink:href="#m7394f47360" y="252.835730567"/>
     <use style="fill:#0000ff;stroke:#000000;stroke-width:0.5;" x="697.559673913" xlink:href="#m7394f47360" y="231.417696942"/>
     <use style="fill:#0000ff;stroke:#000000;stroke-width:0.5;" x="707.04" xlink:href="#m7394f47360" y="281.106132268"/>
    </g>
   </g>
   <g id="patch_3">
    <path d="M 707.04 314.64 
L 707.04 13.021055 
" style="fill:none;stroke:#000000;stroke-linecap:square;stroke-linejoin:miter;"/>
   </g>
   <g id="patch_4">
    <path d="M 52.8975 13.021055 
L 707.04 13.021055 
" style="fill:none;stroke:#000000;stroke-linecap:square;stroke-linejoin:miter;"/>
   </g>
   <g id="patch_5">
    <path d="M 52.8975 314.64 
L 707.04 314.64 
" style="fill:none;stroke:#000000;stroke-linecap:square;stroke-linejoin:miter;"/>
   </g>
   <g id="patch_6">
    <path d="M 52.8975 314.64 
L 52.8975 13.021055 
" style="fill:none;stroke:#000000;stroke-linecap:square;stroke-linejoin:miter;"/>
   </g>
   <g id="matplotlib.axis_1">
    <g id="xtick_1">
     <g id="line2d_3">
      <defs>
       <path d="M 0 0 
L 0 -4 
" id="m60d2c1079a" style="stroke:#000000;stroke-width:0.5;"/>
      </defs>
      <g>
       <use style="stroke:#000000;stroke-width:0.5;" x="128.740108696" xlink:href="#m60d2c1079a" y="314.64"/>
      </g>
     </g>
     <g id="line2d_4">
      <defs>
       <path d="M 0 0 
L 0 4 
" id="mad50a87caa" style="stroke:#000000;stroke-width:0.5;"/>
      </defs>
      <g>
       <use style="stroke:#000000;stroke-width:0.5;" x="128.740108696" xlink:href="#mad50a87caa" y="13.0210552764"/>
      </g>
     </g>
     <g id="text_1">
      <!-- 10 -->
      <defs>
       <path d="M 12.40625 8.296875 
L 28.515625 8.296875 
L 28.515625 63.921875 
L 10.984375 60.40625 
L 10.984375 69.390625 
L 28.421875 72.90625 
L 38.28125 72.90625 
L 38.28125 8.296875 
L 54.390625 8.296875 
L 54.390625 0 
L 12.40625 0 
z
" id="BitstreamVeraSans-Roman-31"/>
       <path d="M 31.78125 66.40625 
Q 24.171875 66.40625 20.328125 58.90625 
Q 16.5 51.421875 16.5 36.375 
Q 16.5 21.390625 20.328125 13.890625 
Q 24.171875 6.390625 31.78125 6.390625 
Q 39.453125 6.390625 43.28125 13.890625 
Q 47.125 21.390625 47.125 36.375 
Q 47.125 51.421875 43.28125 58.90625 
Q 39.453125 66.40625 31.78125 66.40625 
M 31.78125 74.21875 
Q 44.046875 74.21875 50.515625 64.515625 
Q 56.984375 54.828125 56.984375 36.375 
Q 56.984375 17.96875 50.515625 8.265625 
Q 44.046875 -1.421875 31.78125 -1.421875 
Q 19.53125 -1.421875 13.0625 8.265625 
Q 6.59375 17.96875 6.59375 36.375 
Q 6.59375 54.828125 13.0625 64.515625 
Q 19.53125 74.21875 31.78125 74.21875 
" id="BitstreamVeraSans-Roman-30"/>
      </defs>
      <g transform="translate(121.105108696 327.758125)scale(0.12 -0.12)">
       <use xlink:href="#BitstreamVeraSans-Roman-31"/>
       <use x="63.623046875" xlink:href="#BitstreamVeraSans-Roman-30"/>
      </g>
     </g>
    </g>
    <g id="xtick_2">
     <g id="line2d_5">
      <g>
       <use style="stroke:#000000;stroke-width:0.5;" x="223.543369565" xlink:href="#m60d2c1079a" y="314.64"/>
      </g>
     </g>
     <g id="line2d_6">
      <g>
       <use style="stroke:#000000;stroke-width:0.5;" x="223.543369565" xlink:href="#mad50a87caa" y="13.0210552764"/>
      </g>
     </g>
     <g id="text_2">
      <!-- 20 -->
      <defs>
       <path d="M 19.1875 8.296875 
L 53.609375 8.296875 
L 53.609375 0 
L 7.328125 0 
L 7.328125 8.296875 
Q 12.9375 14.109375 22.625 23.890625 
Q 32.328125 33.6875 34.8125 36.53125 
Q 39.546875 41.84375 41.421875 45.53125 
Q 43.3125 49.21875 43.3125 52.78125 
Q 43.3125 58.59375 39.234375 62.25 
Q 35.15625 65.921875 28.609375 65.921875 
Q 23.96875 65.921875 18.8125 64.3125 
Q 13.671875 62.703125 7.8125 59.421875 
L 7.8125 69.390625 
Q 13.765625 71.78125 18.9375 73 
Q 24.125 74.21875 28.421875 74.21875 
Q 39.75 74.21875 46.484375 68.546875 
Q 53.21875 62.890625 53.21875 53.421875 
Q 53.21875 48.921875 51.53125 44.890625 
Q 49.859375 40.875 45.40625 35.40625 
Q 44.1875 33.984375 37.640625 27.21875 
Q 31.109375 20.453125 19.1875 8.296875 
" id="BitstreamVeraSans-Roman-32"/>
      </defs>
      <g transform="translate(215.908369565 327.758125)scale(0.12 -0.12)">
       <use xlink:href="#BitstreamVeraSans-Roman-32"/>
       <use x="63.623046875" xlink:href="#BitstreamVeraSans-Roman-30"/>
      </g>
     </g>
    </g>
    <g id="xtick_3">
     <g id="line2d_7">
      <g>
       <use style="stroke:#000000;stroke-width:0.5;" x="318.346630435" xlink:href="#m60d2c1079a" y="314.64"/>
      </g>
     </g>
     <g id="line2d_8">
      <g>
       <use style="stroke:#000000;stroke-width:0.5;" x="318.346630435" xlink:href="#mad50a87caa" y="13.0210552764"/>
      </g>
     </g>
     <g id="text_3">
      <!-- 30 -->
      <defs>
       <path d="M 40.578125 39.3125 
Q 47.65625 37.796875 51.625 33 
Q 55.609375 28.21875 55.609375 21.1875 
Q 55.609375 10.40625 48.1875 4.484375 
Q 40.765625 -1.421875 27.09375 -1.421875 
Q 22.515625 -1.421875 17.65625 -0.515625 
Q 12.796875 0.390625 7.625 2.203125 
L 7.625 11.71875 
Q 11.71875 9.328125 16.59375 8.109375 
Q 21.484375 6.890625 26.8125 6.890625 
Q 36.078125 6.890625 40.9375 10.546875 
Q 45.796875 14.203125 45.796875 21.1875 
Q 45.796875 27.640625 41.28125 31.265625 
Q 36.765625 34.90625 28.71875 34.90625 
L 20.21875 34.90625 
L 20.21875 43.015625 
L 29.109375 43.015625 
Q 36.375 43.015625 40.234375 45.921875 
Q 44.09375 48.828125 44.09375 54.296875 
Q 44.09375 59.90625 40.109375 62.90625 
Q 36.140625 65.921875 28.71875 65.921875 
Q 24.65625 65.921875 20.015625 65.03125 
Q 15.375 64.15625 9.8125 62.3125 
L 9.8125 71.09375 
Q 15.4375 72.65625 20.34375 73.4375 
Q 25.25 74.21875 29.59375 74.21875 
Q 40.828125 74.21875 47.359375 69.109375 
Q 53.90625 64.015625 53.90625 55.328125 
Q 53.90625 49.265625 50.4375 45.09375 
Q 46.96875 40.921875 40.578125 39.3125 
" id="BitstreamVeraSans-Roman-33"/>
      </defs>
      <g transform="translate(310.711630435 327.758125)scale(0.12 -0.12)">
       <use xlink:href="#BitstreamVeraSans-Roman-33"/>
       <use x="63.623046875" xlink:href="#BitstreamVeraSans-Roman-30"/>
      </g>
     </g>
    </g>
    <g id="xtick_4">
     <g id="line2d_9">
      <g>
       <use style="stroke:#000000;stroke-width:0.5;" x="413.149891304" xlink:href="#m60d2c1079a" y="314.64"/>
      </g>
     </g>
     <g id="line2d_10">
      <g>
       <use style="stroke:#000000;stroke-width:0.5;" x="413.149891304" xlink:href="#mad50a87caa" y="13.0210552764"/>
      </g>
     </g>
     <g id="text_4">
      <!-- 40 -->
      <defs>
       <path d="M 37.796875 64.3125 
L 12.890625 25.390625 
L 37.796875 25.390625 
z
M 35.203125 72.90625 
L 47.609375 72.90625 
L 47.609375 25.390625 
L 58.015625 25.390625 
L 58.015625 17.1875 
L 47.609375 17.1875 
L 47.609375 0 
L 37.796875 0 
L 37.796875 17.1875 
L 4.890625 17.1875 
L 4.890625 26.703125 
z
" id="BitstreamVeraSans-Roman-34"/>
      </defs>
      <g transform="translate(405.514891304 327.758125)scale(0.12 -0.12)">
       <use xlink:href="#BitstreamVeraSans-Roman-34"/>
       <use x="63.623046875" xlink:href="#BitstreamVeraSans-Roman-30"/>
      </g>
     </g>
    </g>
    <g id="xtick_5">
     <g id="line2d_11">
      <g>
       <use style="stroke:#000000;stroke-width:0.5;" x="507.953152174" xlink:href="#m60d2c1079a" y="314.64"/>
      </g>
     </g>
     <g id="line2d_12">
      <g>
       <use style="stroke:#000000;stroke-width:0.5;" x="507.953152174" xlink:href="#mad50a87caa" y="13.0210552764"/>
      </g>
     </g>
     <g id="text_5">
      <!-- 50 -->
      <defs>
       <path d="M 10.796875 72.90625 
L 49.515625 72.90625 
L 49.515625 64.59375 
L 19.828125 64.59375 
L 19.828125 46.734375 
Q 21.96875 47.46875 24.109375 47.828125 
Q 26.265625 48.1875 28.421875 48.1875 
Q 40.625 48.1875 47.75 41.5 
Q 54.890625 34.8125 54.890625 23.390625 
Q 54.890625 11.625 47.5625 5.09375 
Q 40.234375 -1.421875 26.90625 -1.421875 
Q 22.3125 -1.421875 17.546875 -0.640625 
Q 12.796875 0.140625 7.71875 1.703125 
L 7.71875 11.625 
Q 12.109375 9.234375 16.796875 8.0625 
Q 21.484375 6.890625 26.703125 6.890625 
Q 35.15625 6.890625 40.078125 11.328125 
Q 45.015625 15.765625 45.015625 23.390625 
Q 45.015625 31 40.078125 35.4375 
Q 35.15625 39.890625 26.703125 39.890625 
Q 22.75 39.890625 18.8125 39.015625 
Q 14.890625 38.140625 10.796875 36.28125 
z
" id="BitstreamVeraSans-Roman-35"/>
      </defs>
      <g transform="translate(500.318152174 327.758125)scale(0.12 -0.12)">
       <use xlink:href="#BitstreamVeraSans-Roman-35"/>
       <use x="63.623046875" xlink:href="#BitstreamVeraSans-Roman-30"/>
      </g>
     </g>
    </g>
    <g id="xtick_6">
     <g id="line2d_13">
      <g>
       <use style="stroke:#000000;stroke-width:0.5;" x="602.756413043" xlink:href="#m60d2c1079a" y="314.64"/>
      </g>
     </g>
     <g id="line2d_14">
      <g>
       <use style="stroke:#000000;stroke-width:0.5;" x="602.756413043" xlink:href="#mad50a87caa" y="13.0210552764"/>
      </g>
     </g>
     <g id="text_6">
      <!-- 60 -->
      <defs>
       <path d="M 33.015625 40.375 
Q 26.375 40.375 22.484375 35.828125 
Q 18.609375 31.296875 18.609375 23.390625 
Q 18.609375 15.53125 22.484375 10.953125 
Q 26.375 6.390625 33.015625 6.390625 
Q 39.65625 6.390625 43.53125 10.953125 
Q 47.40625 15.53125 47.40625 23.390625 
Q 47.40625 31.296875 43.53125 35.828125 
Q 39.65625 40.375 33.015625 40.375 
M 52.59375 71.296875 
L 52.59375 62.3125 
Q 48.875 64.0625 45.09375 64.984375 
Q 41.3125 65.921875 37.59375 65.921875 
Q 27.828125 65.921875 22.671875 59.328125 
Q 17.53125 52.734375 16.796875 39.40625 
Q 19.671875 43.65625 24.015625 45.921875 
Q 28.375 48.1875 33.59375 48.1875 
Q 44.578125 48.1875 50.953125 41.515625 
Q 57.328125 34.859375 57.328125 23.390625 
Q 57.328125 12.15625 50.6875 5.359375 
Q 44.046875 -1.421875 33.015625 -1.421875 
Q 20.359375 -1.421875 13.671875 8.265625 
Q 6.984375 17.96875 6.984375 36.375 
Q 6.984375 53.65625 15.1875 63.9375 
Q 23.390625 74.21875 37.203125 74.21875 
Q 40.921875 74.21875 44.703125 73.484375 
Q 48.484375 72.75 52.59375 71.296875 
" id="BitstreamVeraSans-Roman-36"/>
      </defs>
      <g transform="translate(595.121413043 327.758125)scale(0.12 -0.12)">
       <use xlink:href="#BitstreamVeraSans-Roman-36"/>
       <use x="63.623046875" xlink:href="#BitstreamVeraSans-Roman-30"/>
      </g>
     </g>
    </g>
    <g id="xtick_7">
     <g id="line2d_15">
      <g>
       <use style="stroke:#000000;stroke-width:0.5;" x="697.559673913" xlink:href="#m60d2c1079a" y="314.64"/>
      </g>
     </g>
     <g id="line2d_16">
      <g>
       <use style="stroke:#000000;stroke-width:0.5;" x="697.559673913" xlink:href="#mad50a87caa" y="13.0210552764"/>
      </g>
     </g>
     <g id="text_7">
      <!-- 70 -->
      <defs>
       <path d="M 8.203125 72.90625 
L 55.078125 72.90625 
L 55.078125 68.703125 
L 28.609375 0 
L 18.3125 0 
L 43.21875 64.59375 
L 8.203125 64.59375 
z
" id="BitstreamVeraSans-Roman-37"/>
      </defs>
      <g transform="translate(689.924673913 327.758125)scale(0.12 -0.12)">
       <use xlink:href="#BitstreamVeraSans-Roman-37"/>
       <use x="63.623046875" xlink:href="#BitstreamVeraSans-Roman-30"/>
      </g>
     </g>
    </g>
    <g id="text_8">
     <!-- residue number -->
     <defs>
      <path d="M 44.28125 53.078125 
L 44.28125 44.578125 
Q 40.484375 46.53125 36.375 47.5 
Q 32.28125 48.484375 27.875 48.484375 
Q 21.1875 48.484375 17.84375 46.4375 
Q 14.5 44.390625 14.5 40.28125 
Q 14.5 37.15625 16.890625 35.375 
Q 19.28125 33.59375 26.515625 31.984375 
L 29.59375 31.296875 
Q 39.15625 29.25 43.1875 25.515625 
Q 47.21875 21.78125 47.21875 15.09375 
Q 47.21875 7.46875 41.1875 3.015625 
Q 35.15625 -1.421875 24.609375 -1.421875 
Q 20.21875 -1.421875 15.453125 -0.5625 
Q 10.6875 0.296875 5.421875 2 
L 5.421875 11.28125 
Q 10.40625 8.6875 15.234375 7.390625 
Q 20.0625 6.109375 24.8125 6.109375 
Q 31.15625 6.109375 34.5625 8.28125 
Q 37.984375 10.453125 37.984375 14.40625 
Q 37.984375 18.0625 35.515625 20.015625 
Q 33.0625 21.96875 24.703125 23.78125 
L 21.578125 24.515625 
Q 13.234375 26.265625 9.515625 29.90625 
Q 5.8125 33.546875 5.8125 39.890625 
Q 5.8125 47.609375 11.28125 51.796875 
Q 16.75 56 26.8125 56 
Q 31.78125 56 36.171875 55.265625 
Q 40.578125 54.546875 44.28125 53.078125 
" id="BitstreamVeraSans-Roman-73"/>
      <path d="M 48.6875 27.296875 
Q 48.6875 37.203125 44.609375 42.84375 
Q 40.53125 48.484375 33.40625 48.484375 
Q 26.265625 48.484375 22.1875 42.84375 
Q 18.109375 37.203125 18.109375 27.296875 
Q 18.109375 17.390625 22.1875 11.75 
Q 26.265625 6.109375 33.40625 6.109375 
Q 40.53125 6.109375 44.609375 11.75 
Q 48.6875 17.390625 48.6875 27.296875 
M 18.109375 46.390625 
Q 20.953125 51.265625 25.265625 53.625 
Q 29.59375 56 35.59375 56 
Q 45.5625 56 51.78125 48.09375 
Q 58.015625 40.1875 58.015625 27.296875 
Q 58.015625 14.40625 51.78125 6.484375 
Q 45.5625 -1.421875 35.59375 -1.421875 
Q 29.59375 -1.421875 25.265625 0.953125 
Q 20.953125 3.328125 18.109375 8.203125 
L 18.109375 0 
L 9.078125 0 
L 9.078125 75.984375 
L 18.109375 75.984375 
z
" id="BitstreamVeraSans-Roman-62"/>
      <path d="M 45.40625 46.390625 
L 45.40625 75.984375 
L 54.390625 75.984375 
L 54.390625 0 
L 45.40625 0 
L 45.40625 8.203125 
Q 42.578125 3.328125 38.25 0.953125 
Q 33.9375 -1.421875 27.875 -1.421875 
Q 17.96875 -1.421875 11.734375 6.484375 
Q 5.515625 14.40625 5.515625 27.296875 
Q 5.515625 40.1875 11.734375 48.09375 
Q 17.96875 56 27.875 56 
Q 33.9375 56 38.25 53.625 
Q 42.578125 51.265625 45.40625 46.390625 
M 14.796875 27.296875 
Q 14.796875 17.390625 18.875 11.75 
Q 22.953125 6.109375 30.078125 6.109375 
Q 37.203125 6.109375 41.296875 11.75 
Q 45.40625 17.390625 45.40625 27.296875 
Q 45.40625 37.203125 41.296875 42.84375 
Q 37.203125 48.484375 30.078125 48.484375 
Q 22.953125 48.484375 18.875 42.84375 
Q 14.796875 37.203125 14.796875 27.296875 
" id="BitstreamVeraSans-Roman-64"/>
      <path d="M 54.890625 33.015625 
L 54.890625 0 
L 45.90625 0 
L 45.90625 32.71875 
Q 45.90625 40.484375 42.875 44.328125 
Q 39.84375 48.1875 33.796875 48.1875 
Q 26.515625 48.1875 22.3125 43.546875 
Q 18.109375 38.921875 18.109375 30.90625 
L 18.109375 0 
L 9.078125 0 
L 9.078125 54.6875 
L 18.109375 54.6875 
L 18.109375 46.1875 
Q 21.34375 51.125 25.703125 53.5625 
Q 30.078125 56 35.796875 56 
Q 45.21875 56 50.046875 50.171875 
Q 54.890625 44.34375 54.890625 33.015625 
" id="BitstreamVeraSans-Roman-6e"/>
      <path d="M 9.421875 54.6875 
L 18.40625 54.6875 
L 18.40625 0 
L 9.421875 0 
z
M 9.421875 75.984375 
L 18.40625 75.984375 
L 18.40625 64.59375 
L 9.421875 64.59375 
z
" id="BitstreamVeraSans-Roman-69"/>
      <path d="M 56.203125 29.59375 
L 56.203125 25.203125 
L 14.890625 25.203125 
Q 15.484375 15.921875 20.484375 11.0625 
Q 25.484375 6.203125 34.421875 6.203125 
Q 39.59375 6.203125 44.453125 7.46875 
Q 49.3125 8.734375 54.109375 11.28125 
L 54.109375 2.78125 
Q 49.265625 0.734375 44.1875 -0.34375 
Q 39.109375 -1.421875 33.890625 -1.421875 
Q 20.796875 -1.421875 13.15625 6.1875 
Q 5.515625 13.8125 5.515625 26.8125 
Q 5.515625 40.234375 12.765625 48.109375 
Q 20.015625 56 32.328125 56 
Q 43.359375 56 49.78125 48.890625 
Q 56.203125 41.796875 56.203125 29.59375 
M 47.21875 32.234375 
Q 47.125 39.59375 43.09375 43.984375 
Q 39.0625 48.390625 32.421875 48.390625 
Q 24.90625 48.390625 20.390625 44.140625 
Q 15.875 39.890625 15.1875 32.171875 
z
" id="BitstreamVeraSans-Roman-65"/>
      <path id="BitstreamVeraSans-Roman-20"/>
      <path d="M 52 44.1875 
Q 55.375 50.25 60.0625 53.125 
Q 64.75 56 71.09375 56 
Q 79.640625 56 84.28125 50.015625 
Q 88.921875 44.046875 88.921875 33.015625 
L 88.921875 0 
L 79.890625 0 
L 79.890625 32.71875 
Q 79.890625 40.578125 77.09375 44.375 
Q 74.3125 48.1875 68.609375 48.1875 
Q 61.625 48.1875 57.5625 43.546875 
Q 53.515625 38.921875 53.515625 30.90625 
L 53.515625 0 
L 44.484375 0 
L 44.484375 32.71875 
Q 44.484375 40.625 41.703125 44.40625 
Q 38.921875 48.1875 33.109375 48.1875 
Q 26.21875 48.1875 22.15625 43.53125 
Q 18.109375 38.875 18.109375 30.90625 
L 18.109375 0 
L 9.078125 0 
L 9.078125 54.6875 
L 18.109375 54.6875 
L 18.109375 46.1875 
Q 21.1875 51.21875 25.484375 53.609375 
Q 29.78125 56 35.6875 56 
Q 41.65625 56 45.828125 52.96875 
Q 50 49.953125 52 44.1875 
" id="BitstreamVeraSans-Roman-6d"/>
      <path d="M 41.109375 46.296875 
Q 39.59375 47.171875 37.8125 47.578125 
Q 36.03125 48 33.890625 48 
Q 26.265625 48 22.1875 43.046875 
Q 18.109375 38.09375 18.109375 28.8125 
L 18.109375 0 
L 9.078125 0 
L 9.078125 54.6875 
L 18.109375 54.6875 
L 18.109375 46.1875 
Q 20.953125 51.171875 25.484375 53.578125 
Q 30.03125 56 36.53125 56 
Q 37.453125 56 38.578125 55.875 
Q 39.703125 55.765625 41.0625 55.515625 
z
" id="BitstreamVeraSans-Roman-72"/>
      <path d="M 8.5 21.578125 
L 8.5 54.6875 
L 17.484375 54.6875 
L 17.484375 21.921875 
Q 17.484375 14.15625 20.5 10.265625 
Q 23.53125 6.390625 29.59375 6.390625 
Q 36.859375 6.390625 41.078125 11.03125 
Q 45.3125 15.671875 45.3125 23.6875 
L 45.3125 54.6875 
L 54.296875 54.6875 
L 54.296875 0 
L 45.3125 0 
L 45.3125 8.40625 
Q 42.046875 3.421875 37.71875 1 
Q 33.40625 -1.421875 27.6875 -1.421875 
Q 18.265625 -1.421875 13.375 4.4375 
Q 8.5 10.296875 8.5 21.578125 
" id="BitstreamVeraSans-Roman-75"/>
     </defs>
     <g transform="translate(332.3925 344.371875)scale(0.12 -0.12)">
      <use xlink:href="#BitstreamVeraSans-Roman-72"/>
      <use x="41.08203125" xlink:href="#BitstreamVeraSans-Roman-65"/>
      <use x="102.60546875" xlink:href="#BitstreamVeraSans-Roman-73"/>
      <use x="154.705078125" xlink:href="#BitstreamVeraSans-Roman-69"/>
      <use x="182.48828125" xlink:href="#BitstreamVeraSans-Roman-64"/>
      <use x="245.96484375" xlink:href="#BitstreamVeraSans-Roman-75"/>
      <use x="309.34375" xlink:href="#BitstreamVeraSans-Roman-65"/>
      <use x="370.8671875" xlink:href="#BitstreamVeraSans-Roman-20"/>
      <use x="402.654296875" xlink:href="#BitstreamVeraSans-Roman-6e"/>
      <use x="466.033203125" xlink:href="#BitstreamVeraSans-Roman-75"/>
      <use x="529.412109375" xlink:href="#BitstreamVeraSans-Roman-6d"/>
      <use x="626.82421875" xlink:href="#BitstreamVeraSans-Roman-62"/>
      <use x="690.30078125" xlink:href="#BitstreamVeraSans-Roman-65"/>
      <use x="751.82421875" xlink:href="#BitstreamVeraSans-Roman-72"/>
     </g>
    </g>
   </g>
   <g id="matplotlib.axis_2">
    <g id="ytick_1">
     <g id="line2d_17">
      <path clip-path="url(#pa5a34f6c49)" d="M 52.8975 284.326538 
L 707.04 284.326538 
" style="fill:none;stroke:#000000;stroke-dasharray:1.000000,3.000000;stroke-dashoffset:0.0;stroke-width:0.5;"/>
     </g>
     <g id="line2d_18">
      <defs>
       <path d="M 0 0 
L 4 0 
" id="m0232461948" style="stroke:#000000;stroke-width:0.5;"/>
      </defs>
      <g>
       <use style="stroke:#000000;stroke-width:0.5;" x="52.8975" xlink:href="#m0232461948" y="284.326538219"/>
      </g>
     </g>
     <g id="line2d_19">
      <defs>
       <path d="M 0 0 
L -4 0 
" id="m69fa3973c1" style="stroke:#000000;stroke-width:0.5;"/>
      </defs>
      <g>
       <use style="stroke:#000000;stroke-width:0.5;" x="707.04" xlink:href="#m69fa3973c1" y="284.326538219"/>
      </g>
     </g>
     <g id="text_9">
      <!-- 0.0 -->
      <defs>
       <path d="M 10.6875 12.40625 
L 21 12.40625 
L 21 0 
L 10.6875 0 
z
" id="BitstreamVeraSans-Roman-2e"/>
      </defs>
      <g transform="translate(29.81375 287.637788219)scale(0.12 -0.12)">
       <use xlink:href="#BitstreamVeraSans-Roman-30"/>
       <use x="63.623046875" xlink:href="#BitstreamVeraSans-Roman-2e"/>
       <use x="95.41015625" xlink:href="#BitstreamVeraSans-Roman-30"/>
      </g>
     </g>
    </g>
    <g id="ytick_2">
     <g id="line2d_20">
      <path clip-path="url(#pa5a34f6c49)" d="M 52.8975 246.434711 
L 707.04 246.434711 
" style="fill:none;stroke:#000000;stroke-dasharray:1.000000,3.000000;stroke-dashoffset:0.0;stroke-width:0.5;"/>
     </g>
     <g id="line2d_21">
      <g>
       <use style="stroke:#000000;stroke-width:0.5;" x="52.8975" xlink:href="#m0232461948" y="246.434710992"/>
      </g>
     </g>
     <g id="line2d_22">
      <g>
       <use style="stroke:#000000;stroke-width:0.5;" x="707.04" xlink:href="#m69fa3973c1" y="246.434710992"/>
      </g>
     </g>
     <g id="text_10">
      <!-- 0.5 -->
      <g transform="translate(29.81375 249.745960992)scale(0.12 -0.12)">
       <use xlink:href="#BitstreamVeraSans-Roman-30"/>
       <use x="63.623046875" xlink:href="#BitstreamVeraSans-Roman-2e"/>
       <use x="95.41015625" xlink:href="#BitstreamVeraSans-Roman-35"/>
      </g>
     </g>
    </g>
    <g id="ytick_3">
     <g id="line2d_23">
      <path clip-path="url(#pa5a34f6c49)" d="M 52.8975 208.542884 
L 707.04 208.542884 
" style="fill:none;stroke:#000000;stroke-dasharray:1.000000,3.000000;stroke-dashoffset:0.0;stroke-width:0.5;"/>
     </g>
     <g id="line2d_24">
      <g>
       <use style="stroke:#000000;stroke-width:0.5;" x="52.8975" xlink:href="#m0232461948" y="208.542883766"/>
      </g>
     </g>
     <g id="line2d_25">
      <g>
       <use style="stroke:#000000;stroke-width:0.5;" x="707.04" xlink:href="#m69fa3973c1" y="208.542883766"/>
      </g>
     </g>
     <g id="text_11">
      <!-- 1.0 -->
      <g transform="translate(29.81375 211.854133766)scale(0.12 -0.12)">
       <use xlink:href="#BitstreamVeraSans-Roman-31"/>
       <use x="63.623046875" xlink:href="#BitstreamVeraSans-Roman-2e"/>
       <use x="95.41015625" xlink:href="#BitstreamVeraSans-Roman-30"/>
      </g>
     </g>
    </g>
    <g id="ytick_4">
     <g id="line2d_26">
      <path clip-path="url(#pa5a34f6c49)" d="M 52.8975 170.651057 
L 707.04 170.651057 
" style="fill:none;stroke:#000000;stroke-dasharray:1.000000,3.000000;stroke-dashoffset:0.0;stroke-width:0.5;"/>
     </g>
     <g id="line2d_27">
      <g>
       <use style="stroke:#000000;stroke-width:0.5;" x="52.8975" xlink:href="#m0232461948" y="170.651056539"/>
      </g>
     </g>
     <g id="line2d_28">
      <g>
       <use style="stroke:#000000;stroke-width:0.5;" x="707.04" xlink:href="#m69fa3973c1" y="170.651056539"/>
      </g>
     </g>
     <g id="text_12">
      <!-- 1.5 -->
      <g transform="translate(29.81375 173.962306539)scale(0.12 -0.12)">
       <use xlink:href="#BitstreamVeraSans-Roman-31"/>
       <use x="63.623046875" xlink:href="#BitstreamVeraSans-Roman-2e"/>
       <use x="95.41015625" xlink:href="#BitstreamVeraSans-Roman-35"/>
      </g>
     </g>
    </g>
    <g id="ytick_5">
     <g id="line2d_29">
      <path clip-path="url(#pa5a34f6c49)" d="M 52.8975 132.759229 
L 707.04 132.759229 
" style="fill:none;stroke:#000000;stroke-dasharray:1.000000,3.000000;stroke-dashoffset:0.0;stroke-width:0.5;"/>
     </g>
     <g id="line2d_30">
      <g>
       <use style="stroke:#000000;stroke-width:0.5;" x="52.8975" xlink:href="#m0232461948" y="132.759229312"/>
      </g>
     </g>
     <g id="line2d_31">
      <g>
       <use style="stroke:#000000;stroke-width:0.5;" x="707.04" xlink:href="#m69fa3973c1" y="132.759229312"/>
      </g>
     </g>
     <g id="text_13">
      <!-- 2.0 -->
      <g transform="translate(29.81375 136.070479312)scale(0.12 -0.12)">
       <use xlink:href="#BitstreamVeraSans-Roman-32"/>
       <use x="63.623046875" xlink:href="#BitstreamVeraSans-Roman-2e"/>
       <use x="95.41015625" xlink:href="#BitstreamVeraSans-Roman-30"/>
      </g>
     </g>
    </g>
    <g id="ytick_6">
     <g id="line2d_32">
      <path clip-path="url(#pa5a34f6c49)" d="M 52.8975 94.867402 
L 707.04 94.867402 
" style="fill:none;stroke:#000000;stroke-dasharray:1.000000,3.000000;stroke-dashoffset:0.0;stroke-width:0.5;"/>
     </g>
     <g id="line2d_33">
      <g>
       <use style="stroke:#000000;stroke-width:0.5;" x="52.8975" xlink:href="#m0232461948" y="94.8674020858"/>
      </g>
     </g>
     <g id="line2d_34">
      <g>
       <use style="stroke:#000000;stroke-width:0.5;" x="707.04" xlink:href="#m69fa3973c1" y="94.8674020858"/>
      </g>
     </g>
     <g id="text_14">
      <!-- 2.5 -->
      <g transform="translate(29.81375 98.1786520858)scale(0.12 -0.12)">
       <use xlink:href="#BitstreamVeraSans-Roman-32"/>
       <use x="63.623046875" xlink:href="#BitstreamVeraSans-Roman-2e"/>
       <use x="95.41015625" xlink:href="#BitstreamVeraSans-Roman-35"/>
      </g>
     </g>
    </g>
    <g id="ytick_7">
     <g id="line2d_35">
      <path clip-path="url(#pa5a34f6c49)" d="M 52.8975 56.975575 
L 707.04 56.975575 
" style="fill:none;stroke:#000000;stroke-dasharray:1.000000,3.000000;stroke-dashoffset:0.0;stroke-width:0.5;"/>
     </g>
     <g id="line2d_36">
      <g>
       <use style="stroke:#000000;stroke-width:0.5;" x="52.8975" xlink:href="#m0232461948" y="56.9755748592"/>
      </g>
     </g>
     <g id="line2d_37">
      <g>
       <use style="stroke:#000000;stroke-width:0.5;" x="707.04" xlink:href="#m69fa3973c1" y="56.9755748592"/>
      </g>
     </g>
     <g id="text_15">
      <!-- 3.0 -->
      <g transform="translate(29.81375 60.2868248592)scale(0.12 -0.12)">
       <use xlink:href="#BitstreamVeraSans-Roman-33"/>
       <use x="63.623046875" xlink:href="#BitstreamVeraSans-Roman-2e"/>
       <use x="95.41015625" xlink:href="#BitstreamVeraSans-Roman-30"/>
      </g>
     </g>
    </g>
    <g id="ytick_8">
     <g id="line2d_38">
      <path clip-path="url(#pa5a34f6c49)" d="M 52.8975 19.083748 
L 707.04 19.083748 
" style="fill:none;stroke:#000000;stroke-dasharray:1.000000,3.000000;stroke-dashoffset:0.0;stroke-width:0.5;"/>
     </g>
     <g id="line2d_39">
      <g>
       <use style="stroke:#000000;stroke-width:0.5;" x="52.8975" xlink:href="#m0232461948" y="19.0837476326"/>
      </g>
     </g>
     <g id="line2d_40">
      <g>
       <use style="stroke:#000000;stroke-width:0.5;" x="707.04" xlink:href="#m69fa3973c1" y="19.0837476326"/>
      </g>
     </g>
     <g id="text_16">
      <!-- 3.5 -->
      <g transform="translate(29.81375 22.3949976326)scale(0.12 -0.12)">
       <use xlink:href="#BitstreamVeraSans-Roman-33"/>
       <use x="63.623046875" xlink:href="#BitstreamVeraSans-Roman-2e"/>
       <use x="95.41015625" xlink:href="#BitstreamVeraSans-Roman-35"/>
      </g>
     </g>
    </g>
    <g id="text_17">
     <!-- value -->
     <defs>
      <path d="M 9.421875 75.984375 
L 18.40625 75.984375 
L 18.40625 0 
L 9.421875 0 
z
" id="BitstreamVeraSans-Roman-6c"/>
      <path d="M 2.984375 54.6875 
L 12.5 54.6875 
L 29.59375 8.796875 
L 46.6875 54.6875 
L 56.203125 54.6875 
L 35.6875 0 
L 23.484375 0 
z
" id="BitstreamVeraSans-Roman-76"/>
      <path d="M 34.28125 27.484375 
Q 23.390625 27.484375 19.1875 25 
Q 14.984375 22.515625 14.984375 16.5 
Q 14.984375 11.71875 18.140625 8.90625 
Q 21.296875 6.109375 26.703125 6.109375 
Q 34.1875 6.109375 38.703125 11.40625 
Q 43.21875 16.703125 43.21875 25.484375 
L 43.21875 27.484375 
z
M 52.203125 31.203125 
L 52.203125 0 
L 43.21875 0 
L 43.21875 8.296875 
Q 40.140625 3.328125 35.546875 0.953125 
Q 30.953125 -1.421875 24.3125 -1.421875 
Q 15.921875 -1.421875 10.953125 3.296875 
Q 6 8.015625 6 15.921875 
Q 6 25.140625 12.171875 29.828125 
Q 18.359375 34.515625 30.609375 34.515625 
L 43.21875 34.515625 
L 43.21875 35.40625 
Q 43.21875 41.609375 39.140625 45 
Q 35.0625 48.390625 27.6875 48.390625 
Q 23 48.390625 18.546875 47.265625 
Q 14.109375 46.140625 10.015625 43.890625 
L 10.015625 52.203125 
Q 14.9375 54.109375 19.578125 55.046875 
Q 24.21875 56 28.609375 56 
Q 40.484375 56 46.34375 49.84375 
Q 52.203125 43.703125 52.203125 31.203125 
" id="BitstreamVeraSans-Roman-61"/>
     </defs>
     <g transform="translate(22.318125 180.219902638)rotate(-90.0)scale(0.12 -0.12)">
      <use xlink:href="#BitstreamVeraSans-Roman-76"/>
      <use x="59.1796875" xlink:href="#BitstreamVeraSans-Roman-61"/>
      <use x="120.458984375" xlink:href="#BitstreamVeraSans-Roman-6c"/>
      <use x="148.2421875" xlink:href="#BitstreamVeraSans-Roman-75"/>
      <use x="211.62109375" xlink:href="#BitstreamVeraSans-Roman-65"/>
     </g>
    </g>
   </g>
   <g id="legend_1">
    <g id="patch_7">
     <path d="M 60.0975 307.44 
L 140.598 307.44 
L 140.598 260.847 
L 60.0975 260.847 
z
" style="fill:#ffffff;stroke:#000000;stroke-linejoin:miter;"/>
    </g>
    <g id="line2d_41">
     <path d="M 70.1775 272.50875 
L 90.3375 272.50875 
" style="fill:none;stroke:#ff0000;stroke-linecap:square;stroke-width:2.0;"/>
    </g>
    <g id="line2d_42">
     <g>
      <use style="fill:#ff0000;stroke:#000000;stroke-width:0.5;" x="70.1775" xlink:href="#mc138b99d3c" y="272.50875"/>
      <use style="fill:#ff0000;stroke:#000000;stroke-width:0.5;" x="90.3375" xlink:href="#mc138b99d3c" y="272.50875"/>
     </g>
    </g>
    <g id="text_18">
     <!-- exp -->
     <defs>
      <path d="M 18.109375 8.203125 
L 18.109375 -20.796875 
L 9.078125 -20.796875 
L 9.078125 54.6875 
L 18.109375 54.6875 
L 18.109375 46.390625 
Q 20.953125 51.265625 25.265625 53.625 
Q 29.59375 56 35.59375 56 
Q 45.5625 56 51.78125 48.09375 
Q 58.015625 40.1875 58.015625 27.296875 
Q 58.015625 14.40625 51.78125 6.484375 
Q 45.5625 -1.421875 35.59375 -1.421875 
Q 29.59375 -1.421875 25.265625 0.953125 
Q 20.953125 3.328125 18.109375 8.203125 
M 48.6875 27.296875 
Q 48.6875 37.203125 44.609375 42.84375 
Q 40.53125 48.484375 33.40625 48.484375 
Q 26.265625 48.484375 22.1875 42.84375 
Q 18.109375 37.203125 18.109375 27.296875 
Q 18.109375 17.390625 22.1875 11.75 
Q 26.265625 6.109375 33.40625 6.109375 
Q 40.53125 6.109375 44.609375 11.75 
Q 48.6875 17.390625 48.6875 27.296875 
" id="BitstreamVeraSans-Roman-70"/>
      <path d="M 54.890625 54.6875 
L 35.109375 28.078125 
L 55.90625 0 
L 45.3125 0 
L 29.390625 21.484375 
L 13.484375 0 
L 2.875 0 
L 24.125 28.609375 
L 4.6875 54.6875 
L 15.28125 54.6875 
L 29.78125 35.203125 
L 44.28125 54.6875 
z
" id="BitstreamVeraSans-Roman-78"/>
     </defs>
     <g transform="translate(106.1775 277.54875)scale(0.144 -0.144)">
      <use xlink:href="#BitstreamVeraSans-Roman-65"/>
      <use x="61.5078125" xlink:href="#BitstreamVeraSans-Roman-78"/>
      <use x="120.6875" xlink:href="#BitstreamVeraSans-Roman-70"/>
     </g>
    </g>
    <g id="line2d_43">
     <path d="M 70.1775 293.64525 
L 90.3375 293.64525 
" style="fill:none;stroke:#0000ff;stroke-linecap:square;stroke-width:2.0;"/>
    </g>
    <g id="line2d_44">
     <g>
      <use style="fill:#0000ff;stroke:#000000;stroke-width:0.5;" x="70.1775" xlink:href="#m7394f47360" y="293.64525"/>
      <use style="fill:#0000ff;stroke:#000000;stroke-width:0.5;" x="90.3375" xlink:href="#m7394f47360" y="293.64525"/>
     </g>
    </g>
    <g id="text_19">
     <!-- calc -->
     <defs>
      <path d="M 48.78125 52.59375 
L 48.78125 44.1875 
Q 44.96875 46.296875 41.140625 47.34375 
Q 37.3125 48.390625 33.40625 48.390625 
Q 24.65625 48.390625 19.8125 42.84375 
Q 14.984375 37.3125 14.984375 27.296875 
Q 14.984375 17.28125 19.8125 11.734375 
Q 24.65625 6.203125 33.40625 6.203125 
Q 37.3125 6.203125 41.140625 7.25 
Q 44.96875 8.296875 48.78125 10.40625 
L 48.78125 2.09375 
Q 45.015625 0.34375 40.984375 -0.53125 
Q 36.96875 -1.421875 32.421875 -1.421875 
Q 20.0625 -1.421875 12.78125 6.34375 
Q 5.515625 14.109375 5.515625 27.296875 
Q 5.515625 40.671875 12.859375 48.328125 
Q 20.21875 56 33.015625 56 
Q 37.15625 56 41.109375 55.140625 
Q 45.0625 54.296875 48.78125 52.59375 
" id="BitstreamVeraSans-Roman-63"/>
     </defs>
     <g transform="translate(106.1775 298.68525)scale(0.144 -0.144)">
      <use xlink:href="#BitstreamVeraSans-Roman-63"/>
      <use x="54.98046875" xlink:href="#BitstreamVeraSans-Roman-61"/>
      <use x="116.259765625" xlink:href="#BitstreamVeraSans-Roman-6c"/>
      <use x="144.04296875" xlink:href="#BitstreamVeraSans-Roman-63"/>
     </g>
    </g>
   </g>
  </g>
 </g>
 <defs>
  <clipPath id="pa5a34f6c49">
   <rect height="301.618944724" width="654.1425" x="52.8975" y="13.0210552764"/>
  </clipPath>
 </defs>
</svg>
