<?xml version="1.0" encoding="utf-8" standalone="no"?>
<!DOCTYPE svg PUBLIC "-//W3C//DTD SVG 1.1//EN"
  "http://www.w3.org/Graphics/SVG/1.1/DTD/svg11.dtd">
<!-- Created with matplotlib (http://matplotlib.org/) -->
<svg height="360pt" version="1.1" viewBox="0 0 432 360" width="432pt" xmlns="http://www.w3.org/2000/svg" xmlns:xlink="http://www.w3.org/1999/xlink">
 <defs>
  <style type="text/css">
*{stroke-linecap:butt;stroke-linejoin:round;stroke-miterlimit:100000;}
  </style>
 </defs>
 <g id="figure_1">
  <g id="patch_1">
   <path d="M 0 360 
L 432 360 
L 432 0 
L 0 0 
z
" style="fill:#ffffff;"/>
  </g>
  <g id="axes_1">
   <g id="patch_2">
    <path d="M 41.4225 314.64 
L 419.04 314.64 
L 419.04 12.96 
L 41.4225 12.96 
z
" style="fill:#ffffff;"/>
   </g>
   <g id="line2d_1">
    <path clip-path="url(#pf02a706ef3)" d="M 41.4225 314.64 
L 49.667424 308.0531 
L 57.912347 301.466201 
L 66.157271 294.879301 
L 74.402194 288.292402 
L 82.647118 281.705502 
L 90.892041 275.118603 
L 99.136965 268.531703 
L 107.381889 261.944803 
L 115.626812 255.357904 
L 123.871736 248.771004 
L 132.116659 242.184105 
L 140.361583 235.597205 
L 148.606507 229.010306 
L 156.85143 222.423406 
L 165.096354 215.836507 
L 173.341277 209.249607 
L 181.586201 202.662707 
L 189.831124 196.075808 
L 198.076048 189.488908 
L 206.320972 182.902009 
L 214.565895 176.315109 
L 222.810819 169.72821 
L 231.055742 163.14131 
L 239.300666 156.55441 
L 247.54559 149.967511 
L 255.790513 143.380611 
L 264.035437 136.793712 
L 272.28036 130.206812 
L 280.525284 123.619913 
L 288.770207 117.033013 
L 297.015131 110.446114 
L 305.260055 103.859214 
L 313.504978 97.272314 
L 321.749902 90.685415 
L 329.994825 84.098515 
L 338.239749 77.511616 
L 346.484672 70.924716 
L 354.729596 64.337817 
L 362.97452 57.750917 
L 371.219443 51.164017 
L 379.464367 44.577118 
L 387.70929 37.990218 
L 395.954214 31.403319 
L 404.199138 24.816419 
L 412.444061 18.22952 
L 420.688985 11.64262 
L 428.933908 5.055721 
L 433 1.807305 
" style="fill:none;stroke:#ff0000;stroke-linecap:square;stroke-width:2.0;"/>
   </g>
   <g id="line2d_2">
    <defs>
     <path d="M 0 3 
C 0.795609 3 1.55874 2.683901 2.12132 2.12132 
C 2.683901 1.55874 3 0.795609 3 0 
C 3 -0.795609 2.683901 -1.55874 2.12132 -2.12132 
C 1.55874 -2.683901 0.795609 -3 0 -3 
C -0.795609 -3 -1.55874 -2.683901 -2.12132 -2.12132 
C -2.683901 -1.55874 -3 -0.795609 -3 0 
C -3 0.795609 -2.683901 1.55874 -2.12132 2.12132 
C -1.55874 2.683901 -0.795609 3 0 3 
z
" id="mca564b11b1" style="stroke:#000000;stroke-width:0.5;"/>
    </defs>
    <g clip-path="url(#pf02a706ef3)">
     <use style="fill:#0000ff;stroke:#000000;stroke-width:0.5;" x="105.73290393" xlink:href="#mca564b11b1" y="270.698700409"/>
     <use style="fill:#0000ff;stroke:#000000;stroke-width:0.5;" x="254.141528384" xlink:href="#mca564b11b1" y="185.369273817"/>
     <use style="fill:#0000ff;stroke:#000000;stroke-width:0.5;" x="88.4185644105" xlink:href="#mca564b11b1" y="207.401396346"/>
     <use style="fill:#0000ff;stroke:#000000;stroke-width:0.5;" x="157.675922489" xlink:href="#mca564b11b1" y="219.965118076"/>
     <use style="fill:#0000ff;stroke:#000000;stroke-width:0.5;" x="94.190010917" xlink:href="#mca564b11b1" y="269.373353381"/>
     <use style="fill:#0000ff;stroke:#000000;stroke-width:0.5;" x="95.8389956332" xlink:href="#mca564b11b1" y="267.846736205"/>
     <use style="fill:#0000ff;stroke:#000000;stroke-width:0.5;" x="230.23125" xlink:href="#mca564b11b1" y="187.642753272"/>
     <use style="fill:#0000ff;stroke:#000000;stroke-width:0.5;" x="108.206381004" xlink:href="#mca564b11b1" y="270.909010718"/>
     <use style="fill:#0000ff;stroke:#000000;stroke-width:0.5;" x="110.679858079" xlink:href="#mca564b11b1" y="268.654181263"/>
     <use style="fill:#0000ff;stroke:#000000;stroke-width:0.5;" x="124.696228166" xlink:href="#mca564b11b1" y="268.690608238"/>
     <use style="fill:#0000ff;stroke:#000000;stroke-width:0.5;" x="127.994197598" xlink:href="#mca564b11b1" y="234.914327453"/>
     <use style="fill:#0000ff;stroke:#000000;stroke-width:0.5;" x="124.696228166" xlink:href="#mca564b11b1" y="250.755407713"/>
     <use style="fill:#0000ff;stroke:#000000;stroke-width:0.5;" x="87.5940720524" xlink:href="#mca564b11b1" y="266.211632214"/>
     <use style="fill:#0000ff;stroke:#000000;stroke-width:0.5;" x="163.447368996" xlink:href="#mca564b11b1" y="200.687849635"/>
     <use style="fill:#0000ff;stroke:#000000;stroke-width:0.5;" x="132.116659389" xlink:href="#mca564b11b1" y="267.690087078"/>
     <use style="fill:#0000ff;stroke:#000000;stroke-width:0.5;" x="219.512849345" xlink:href="#mca564b11b1" y="143.595337099"/>
     <use style="fill:#0000ff;stroke:#000000;stroke-width:0.5;" x="134.590136463" xlink:href="#mca564b11b1" y="232.334505557"/>
     <use style="fill:#0000ff;stroke:#000000;stroke-width:0.5;" x="113.977827511" xlink:href="#mca564b11b1" y="262.399742859"/>
     <use style="fill:#0000ff;stroke:#000000;stroke-width:0.5;" x="99.9614574236" xlink:href="#mca564b11b1" y="264.011592368"/>
     <use style="fill:#0000ff;stroke:#000000;stroke-width:0.5;" x="226.10878821" xlink:href="#mca564b11b1" y="175.847731888"/>
     <use style="fill:#0000ff;stroke:#000000;stroke-width:0.5;" x="154.377953057" xlink:href="#mca564b11b1" y="199.852671694"/>
     <use style="fill:#0000ff;stroke:#000000;stroke-width:0.5;" x="145.308537118" xlink:href="#mca564b11b1" y="177.204780383"/>
     <use style="fill:#0000ff;stroke:#000000;stroke-width:0.5;" x="181.586200873" xlink:href="#mca564b11b1" y="169.863803294"/>
     <use style="fill:#0000ff;stroke:#000000;stroke-width:0.5;" x="165.096353712" xlink:href="#mca564b11b1" y="195.598986685"/>
     <use style="fill:#0000ff;stroke:#000000;stroke-width:0.5;" x="153.553460699" xlink:href="#mca564b11b1" y="194.162510164"/>
     <use style="fill:#0000ff;stroke:#000000;stroke-width:0.5;" x="246.721097162" xlink:href="#mca564b11b1" y="169.739492945"/>
     <use style="fill:#0000ff;stroke:#000000;stroke-width:0.5;" x="240.949650655" xlink:href="#mca564b11b1" y="172.175488506"/>
     <use style="fill:#0000ff;stroke:#000000;stroke-width:0.5;" x="120.573766376" xlink:href="#mca564b11b1" y="254.41279669"/>
     <use style="fill:#0000ff;stroke:#000000;stroke-width:0.5;" x="95.0145032751" xlink:href="#mca564b11b1" y="251.490891934"/>
     <use style="fill:#0000ff;stroke:#000000;stroke-width:0.5;" x="180.761708515" xlink:href="#mca564b11b1" y="254.502496648"/>
     <use style="fill:#0000ff;stroke:#000000;stroke-width:0.5;" x="193.953586245" xlink:href="#mca564b11b1" y="222.4403116"/>
     <use style="fill:#0000ff;stroke:#000000;stroke-width:0.5;" x="147.782014192" xlink:href="#mca564b11b1" y="269.588639237"/>
     <use style="fill:#0000ff;stroke:#000000;stroke-width:0.5;" x="83.471610262" xlink:href="#mca564b11b1" y="260.697050613"/>
     <use style="fill:#0000ff;stroke:#000000;stroke-width:0.5;" x="224.459803493" xlink:href="#mca564b11b1" y="200.561564824"/>
     <use style="fill:#0000ff;stroke:#000000;stroke-width:0.5;" x="119.749274017" xlink:href="#mca564b11b1" y="263.888150844"/>
     <use style="fill:#0000ff;stroke:#000000;stroke-width:0.5;" x="106.557396288" xlink:href="#mca564b11b1" y="205.527073546"/>
     <use style="fill:#0000ff;stroke:#000000;stroke-width:0.5;" x="236.827188865" xlink:href="#mca564b11b1" y="151.327932142"/>
     <use style="fill:#0000ff;stroke:#000000;stroke-width:0.5;" x="394.305229258" xlink:href="#mca564b11b1" y="113.856982185"/>
     <use style="fill:#0000ff;stroke:#000000;stroke-width:0.5;" x="179.937216157" xlink:href="#mca564b11b1" y="255.454520449"/>
     <use style="fill:#0000ff;stroke:#000000;stroke-width:0.5;" x="108.206381004" xlink:href="#mca564b11b1" y="247.662782527"/>
     <use style="fill:#0000ff;stroke:#000000;stroke-width:0.5;" x="103.259426856" xlink:href="#mca564b11b1" y="246.909493071"/>
     <use style="fill:#0000ff;stroke:#000000;stroke-width:0.5;" x="97.4879803493" xlink:href="#mca564b11b1" y="264.671958957"/>
     <use style="fill:#0000ff;stroke:#000000;stroke-width:0.5;" x="93.365518559" xlink:href="#mca564b11b1" y="269.599223336"/>
     <use style="fill:#0000ff;stroke:#000000;stroke-width:0.5;" x="339.888733624" xlink:href="#mca564b11b1" y="208.956793249"/>
     <use style="fill:#0000ff;stroke:#000000;stroke-width:0.5;" x="114.802319869" xlink:href="#mca564b11b1" y="252.731444069"/>
     <use style="fill:#0000ff;stroke:#000000;stroke-width:0.5;" x="71.9287172489" xlink:href="#mca564b11b1" y="260.217230151"/>
     <use style="fill:#0000ff;stroke:#000000;stroke-width:0.5;" x="259.088482533" xlink:href="#mca564b11b1" y="169.652734353"/>
     <use style="fill:#0000ff;stroke:#000000;stroke-width:0.5;" x="254.141528384" xlink:href="#mca564b11b1" y="177.148554709"/>
     <use style="fill:#0000ff;stroke:#000000;stroke-width:0.5;" x="227.757772926" xlink:href="#mca564b11b1" y="180.169947315"/>
     <use style="fill:#0000ff;stroke:#000000;stroke-width:0.5;" x="104.908411572" xlink:href="#mca564b11b1" y="269.78680271"/>
     <use style="fill:#0000ff;stroke:#000000;stroke-width:0.5;" x="306.909039301" xlink:href="#mca564b11b1" y="115.237917756"/>
     <use style="fill:#0000ff;stroke:#000000;stroke-width:0.5;" x="90.0675491266" xlink:href="#mca564b11b1" y="253.901979235"/>
     <use style="fill:#0000ff;stroke:#000000;stroke-width:0.5;" x="114.802319869" xlink:href="#mca564b11b1" y="259.435862825"/>
     <use style="fill:#0000ff;stroke:#000000;stroke-width:0.5;" x="315.153962882" xlink:href="#mca564b11b1" y="124.002510488"/>
     <use style="fill:#0000ff;stroke:#000000;stroke-width:0.5;" x="233.529219432" xlink:href="#mca564b11b1" y="203.327973985"/>
     <use style="fill:#0000ff;stroke:#000000;stroke-width:0.5;" x="160.149399563" xlink:href="#mca564b11b1" y="242.991824985"/>
     <use style="fill:#0000ff;stroke:#000000;stroke-width:0.5;" x="66.1572707424" xlink:href="#mca564b11b1" y="251.291719594"/>
     <use style="fill:#0000ff;stroke:#000000;stroke-width:0.5;" x="111.504350437" xlink:href="#mca564b11b1" y="264.766185687"/>
     <use style="fill:#0000ff;stroke:#000000;stroke-width:0.5;" x="128.818689956" xlink:href="#mca564b11b1" y="241.16078928"/>
     <use style="fill:#0000ff;stroke:#000000;stroke-width:0.5;" x="167.569830786" xlink:href="#mca564b11b1" y="222.544844015"/>
     <use style="fill:#0000ff;stroke:#000000;stroke-width:0.5;" x="109.030873362" xlink:href="#mca564b11b1" y="265.732617858"/>
    </g>
   </g>
   <g id="patch_3">
    <path d="M 419.04 314.64 
L 419.04 12.96 
" style="fill:none;stroke:#000000;stroke-linecap:square;stroke-linejoin:miter;"/>
   </g>
   <g id="patch_4">
    <path d="M 41.4225 12.96 
L 419.04 12.96 
" style="fill:none;stroke:#000000;stroke-linecap:square;stroke-linejoin:miter;"/>
   </g>
   <g id="patch_5">
    <path d="M 41.4225 314.64 
L 419.04 314.64 
" style="fill:none;stroke:#000000;stroke-linecap:square;stroke-linejoin:miter;"/>
   </g>
   <g id="patch_6">
    <path d="M 41.4225 314.64 
L 41.4225 12.96 
" style="fill:none;stroke:#000000;stroke-linecap:square;stroke-linejoin:miter;"/>
   </g>
   <g id="matplotlib.axis_1">
    <g id="xtick_1">
     <g id="line2d_3">
      <defs>
       <path d="M 0 0 
L 0 -4 
" id="m713e285bf3" style="stroke:#000000;stroke-width:0.5;"/>
      </defs>
      <g>
       <use style="stroke:#000000;stroke-width:0.5;" x="99.1369650655" xlink:href="#m713e285bf3" y="314.64"/>
      </g>
     </g>
     <g id="line2d_4">
      <defs>
       <path d="M 0 0 
L 0 4 
" id="m37cdb35528" style="stroke:#000000;stroke-width:0.5;"/>
      </defs>
      <g>
       <use style="stroke:#000000;stroke-width:0.5;" x="99.1369650655" xlink:href="#m37cdb35528" y="12.96"/>
      </g>
     </g>
     <g id="text_1">
      <!-- 0 -->
      <defs>
       <path d="M 31.78125 66.40625 
Q 24.171875 66.40625 20.328125 58.90625 
Q 16.5 51.421875 16.5 36.375 
Q 16.5 21.390625 20.328125 13.890625 
Q 24.171875 6.390625 31.78125 6.390625 
Q 39.453125 6.390625 43.28125 13.890625 
Q 47.125 21.390625 47.125 36.375 
Q 47.125 51.421875 43.28125 58.90625 
Q 39.453125 66.40625 31.78125 66.40625 
M 31.78125 74.21875 
Q 44.046875 74.21875 50.515625 64.515625 
Q 56.984375 54.828125 56.984375 36.375 
Q 56.984375 17.96875 50.515625 8.265625 
Q 44.046875 -1.421875 31.78125 -1.421875 
Q 19.53125 -1.421875 13.0625 8.265625 
Q 6.59375 17.96875 6.59375 36.375 
Q 6.59375 54.828125 13.0625 64.515625 
Q 19.53125 74.21875 31.78125 74.21875 
" id="BitstreamVeraSans-Roman-30"/>
      </defs>
      <g transform="translate(95.3194650655 327.758125)scale(0.12 -0.12)">
       <use xlink:href="#BitstreamVeraSans-Roman-30"/>
      </g>
     </g>
    </g>
    <g id="xtick_2">
     <g id="line2d_5">
      <g>
       <use style="stroke:#000000;stroke-width:0.5;" x="181.586200873" xlink:href="#m713e285bf3" y="314.64"/>
      </g>
     </g>
     <g id="line2d_6">
      <g>
       <use style="stroke:#000000;stroke-width:0.5;" x="181.586200873" xlink:href="#m37cdb35528" y="12.96"/>
      </g>
     </g>
     <g id="text_2">
      <!-- 1 -->
      <defs>
       <path d="M 12.40625 8.296875 
L 28.515625 8.296875 
L 28.515625 63.921875 
L 10.984375 60.40625 
L 10.984375 69.390625 
L 28.421875 72.90625 
L 38.28125 72.90625 
L 38.28125 8.296875 
L 54.390625 8.296875 
L 54.390625 0 
L 12.40625 0 
z
" id="BitstreamVeraSans-Roman-31"/>
      </defs>
      <g transform="translate(177.768700873 327.758125)scale(0.12 -0.12)">
       <use xlink:href="#BitstreamVeraSans-Roman-31"/>
      </g>
     </g>
    </g>
    <g id="xtick_3">
     <g id="line2d_7">
      <g>
       <use style="stroke:#000000;stroke-width:0.5;" x="264.035436681" xlink:href="#m713e285bf3" y="314.64"/>
      </g>
     </g>
     <g id="line2d_8">
      <g>
       <use style="stroke:#000000;stroke-width:0.5;" x="264.035436681" xlink:href="#m37cdb35528" y="12.96"/>
      </g>
     </g>
     <g id="text_3">
      <!-- 2 -->
      <defs>
       <path d="M 19.1875 8.296875 
L 53.609375 8.296875 
L 53.609375 0 
L 7.328125 0 
L 7.328125 8.296875 
Q 12.9375 14.109375 22.625 23.890625 
Q 32.328125 33.6875 34.8125 36.53125 
Q 39.546875 41.84375 41.421875 45.53125 
Q 43.3125 49.21875 43.3125 52.78125 
Q 43.3125 58.59375 39.234375 62.25 
Q 35.15625 65.921875 28.609375 65.921875 
Q 23.96875 65.921875 18.8125 64.3125 
Q 13.671875 62.703125 7.8125 59.421875 
L 7.8125 69.390625 
Q 13.765625 71.78125 18.9375 73 
Q 24.125 74.21875 28.421875 74.21875 
Q 39.75 74.21875 46.484375 68.546875 
Q 53.21875 62.890625 53.21875 53.421875 
Q 53.21875 48.921875 51.53125 44.890625 
Q 49.859375 40.875 45.40625 35.40625 
Q 44.1875 33.984375 37.640625 27.21875 
Q 31.109375 20.453125 19.1875 8.296875 
" id="BitstreamVeraSans-Roman-32"/>
      </defs>
      <g transform="translate(260.217936681 327.758125)scale(0.12 -0.12)">
       <use xlink:href="#BitstreamVeraSans-Roman-32"/>
      </g>
     </g>
    </g>
    <g id="xtick_4">
     <g id="line2d_9">
      <g>
       <use style="stroke:#000000;stroke-width:0.5;" x="346.484672489" xlink:href="#m713e285bf3" y="314.64"/>
      </g>
     </g>
     <g id="line2d_10">
      <g>
       <use style="stroke:#000000;stroke-width:0.5;" x="346.484672489" xlink:href="#m37cdb35528" y="12.96"/>
      </g>
     </g>
     <g id="text_4">
      <!-- 3 -->
      <defs>
       <path d="M 40.578125 39.3125 
Q 47.65625 37.796875 51.625 33 
Q 55.609375 28.21875 55.609375 21.1875 
Q 55.609375 10.40625 48.1875 4.484375 
Q 40.765625 -1.421875 27.09375 -1.421875 
Q 22.515625 -1.421875 17.65625 -0.515625 
Q 12.796875 0.390625 7.625 2.203125 
L 7.625 11.71875 
Q 11.71875 9.328125 16.59375 8.109375 
Q 21.484375 6.890625 26.8125 6.890625 
Q 36.078125 6.890625 40.9375 10.546875 
Q 45.796875 14.203125 45.796875 21.1875 
Q 45.796875 27.640625 41.28125 31.265625 
Q 36.765625 34.90625 28.71875 34.90625 
L 20.21875 34.90625 
L 20.21875 43.015625 
L 29.109375 43.015625 
Q 36.375 43.015625 40.234375 45.921875 
Q 44.09375 48.828125 44.09375 54.296875 
Q 44.09375 59.90625 40.109375 62.90625 
Q 36.140625 65.921875 28.71875 65.921875 
Q 24.65625 65.921875 20.015625 65.03125 
Q 15.375 64.15625 9.8125 62.3125 
L 9.8125 71.09375 
Q 15.4375 72.65625 20.34375 73.4375 
Q 25.25 74.21875 29.59375 74.21875 
Q 40.828125 74.21875 47.359375 69.109375 
Q 53.90625 64.015625 53.90625 55.328125 
Q 53.90625 49.265625 50.4375 45.09375 
Q 46.96875 40.921875 40.578125 39.3125 
" id="BitstreamVeraSans-Roman-33"/>
      </defs>
      <g transform="translate(342.667172489 327.758125)scale(0.12 -0.12)">
       <use xlink:href="#BitstreamVeraSans-Roman-33"/>
      </g>
     </g>
    </g>
    <g id="text_5">
     <!-- experimental -->
     <defs>
      <path d="M 9.421875 54.6875 
L 18.40625 54.6875 
L 18.40625 0 
L 9.421875 0 
z
M 9.421875 75.984375 
L 18.40625 75.984375 
L 18.40625 64.59375 
L 9.421875 64.59375 
z
" id="BitstreamVeraSans-Roman-69"/>
      <path d="M 34.28125 27.484375 
Q 23.390625 27.484375 19.1875 25 
Q 14.984375 22.515625 14.984375 16.5 
Q 14.984375 11.71875 18.140625 8.90625 
Q 21.296875 6.109375 26.703125 6.109375 
Q 34.1875 6.109375 38.703125 11.40625 
Q 43.21875 16.703125 43.21875 25.484375 
L 43.21875 27.484375 
z
M 52.203125 31.203125 
L 52.203125 0 
L 43.21875 0 
L 43.21875 8.296875 
Q 40.140625 3.328125 35.546875 0.953125 
Q 30.953125 -1.421875 24.3125 -1.421875 
Q 15.921875 -1.421875 10.953125 3.296875 
Q 6 8.015625 6 15.921875 
Q 6 25.140625 12.171875 29.828125 
Q 18.359375 34.515625 30.609375 34.515625 
L 43.21875 34.515625 
L 43.21875 35.40625 
Q 43.21875 41.609375 39.140625 45 
Q 35.0625 48.390625 27.6875 48.390625 
Q 23 48.390625 18.546875 47.265625 
Q 14.109375 46.140625 10.015625 43.890625 
L 10.015625 52.203125 
Q 14.9375 54.109375 19.578125 55.046875 
Q 24.21875 56 28.609375 56 
Q 40.484375 56 46.34375 49.84375 
Q 52.203125 43.703125 52.203125 31.203125 
" id="BitstreamVeraSans-Roman-61"/>
      <path d="M 9.421875 75.984375 
L 18.40625 75.984375 
L 18.40625 0 
L 9.421875 0 
z
" id="BitstreamVeraSans-Roman-6c"/>
      <path d="M 54.890625 54.6875 
L 35.109375 28.078125 
L 55.90625 0 
L 45.3125 0 
L 29.390625 21.484375 
L 13.484375 0 
L 2.875 0 
L 24.125 28.609375 
L 4.6875 54.6875 
L 15.28125 54.6875 
L 29.78125 35.203125 
L 44.28125 54.6875 
z
" id="BitstreamVeraSans-Roman-78"/>
      <path d="M 54.890625 33.015625 
L 54.890625 0 
L 45.90625 0 
L 45.90625 32.71875 
Q 45.90625 40.484375 42.875 44.328125 
Q 39.84375 48.1875 33.796875 48.1875 
Q 26.515625 48.1875 22.3125 43.546875 
Q 18.109375 38.921875 18.109375 30.90625 
L 18.109375 0 
L 9.078125 0 
L 9.078125 54.6875 
L 18.109375 54.6875 
L 18.109375 46.1875 
Q 21.34375 51.125 25.703125 53.5625 
Q 30.078125 56 35.796875 56 
Q 45.21875 56 50.046875 50.171875 
Q 54.890625 44.34375 54.890625 33.015625 
" id="BitstreamVeraSans-Roman-6e"/>
      <path d="M 18.109375 8.203125 
L 18.109375 -20.796875 
L 9.078125 -20.796875 
L 9.078125 54.6875 
L 18.109375 54.6875 
L 18.109375 46.390625 
Q 20.953125 51.265625 25.265625 53.625 
Q 29.59375 56 35.59375 56 
Q 45.5625 56 51.78125 48.09375 
Q 58.015625 40.1875 58.015625 27.296875 
Q 58.015625 14.40625 51.78125 6.484375 
Q 45.5625 -1.421875 35.59375 -1.421875 
Q 29.59375 -1.421875 25.265625 0.953125 
Q 20.953125 3.328125 18.109375 8.203125 
M 48.6875 27.296875 
Q 48.6875 37.203125 44.609375 42.84375 
Q 40.53125 48.484375 33.40625 48.484375 
Q 26.265625 48.484375 22.1875 42.84375 
Q 18.109375 37.203125 18.109375 27.296875 
Q 18.109375 17.390625 22.1875 11.75 
Q 26.265625 6.109375 33.40625 6.109375 
Q 40.53125 6.109375 44.609375 11.75 
Q 48.6875 17.390625 48.6875 27.296875 
" id="BitstreamVeraSans-Roman-70"/>
      <path d="M 56.203125 29.59375 
L 56.203125 25.203125 
L 14.890625 25.203125 
Q 15.484375 15.921875 20.484375 11.0625 
Q 25.484375 6.203125 34.421875 6.203125 
Q 39.59375 6.203125 44.453125 7.46875 
Q 49.3125 8.734375 54.109375 11.28125 
L 54.109375 2.78125 
Q 49.265625 0.734375 44.1875 -0.34375 
Q 39.109375 -1.421875 33.890625 -1.421875 
Q 20.796875 -1.421875 13.15625 6.1875 
Q 5.515625 13.8125 5.515625 26.8125 
Q 5.515625 40.234375 12.765625 48.109375 
Q 20.015625 56 32.328125 56 
Q 43.359375 56 49.78125 48.890625 
Q 56.203125 41.796875 56.203125 29.59375 
M 47.21875 32.234375 
Q 47.125 39.59375 43.09375 43.984375 
Q 39.0625 48.390625 32.421875 48.390625 
Q 24.90625 48.390625 20.390625 44.140625 
Q 15.875 39.890625 15.1875 32.171875 
z
" id="BitstreamVeraSans-Roman-65"/>
      <path d="M 52 44.1875 
Q 55.375 50.25 60.0625 53.125 
Q 64.75 56 71.09375 56 
Q 79.640625 56 84.28125 50.015625 
Q 88.921875 44.046875 88.921875 33.015625 
L 88.921875 0 
L 79.890625 0 
L 79.890625 32.71875 
Q 79.890625 40.578125 77.09375 44.375 
Q 74.3125 48.1875 68.609375 48.1875 
Q 61.625 48.1875 57.5625 43.546875 
Q 53.515625 38.921875 53.515625 30.90625 
L 53.515625 0 
L 44.484375 0 
L 44.484375 32.71875 
Q 44.484375 40.625 41.703125 44.40625 
Q 38.921875 48.1875 33.109375 48.1875 
Q 26.21875 48.1875 22.15625 43.53125 
Q 18.109375 38.875 18.109375 30.90625 
L 18.109375 0 
L 9.078125 0 
L 9.078125 54.6875 
L 18.109375 54.6875 
L 18.109375 46.1875 
Q 21.1875 51.21875 25.484375 53.609375 
Q 29.78125 56 35.6875 56 
Q 41.65625 56 45.828125 52.96875 
Q 50 49.953125 52 44.1875 
" id="BitstreamVeraSans-Roman-6d"/>
      <path d="M 41.109375 46.296875 
Q 39.59375 47.171875 37.8125 47.578125 
Q 36.03125 48 33.890625 48 
Q 26.265625 48 22.1875 43.046875 
Q 18.109375 38.09375 18.109375 28.8125 
L 18.109375 0 
L 9.078125 0 
L 9.078125 54.6875 
L 18.109375 54.6875 
L 18.109375 46.1875 
Q 20.953125 51.171875 25.484375 53.578125 
Q 30.03125 56 36.53125 56 
Q 37.453125 56 38.578125 55.875 
Q 39.703125 55.765625 41.0625 55.515625 
z
" id="BitstreamVeraSans-Roman-72"/>
      <path d="M 18.3125 70.21875 
L 18.3125 54.6875 
L 36.8125 54.6875 
L 36.8125 47.703125 
L 18.3125 47.703125 
L 18.3125 18.015625 
Q 18.3125 11.328125 20.140625 9.421875 
Q 21.96875 7.515625 27.59375 7.515625 
L 36.8125 7.515625 
L 36.8125 0 
L 27.59375 0 
Q 17.1875 0 13.234375 3.875 
Q 9.28125 7.765625 9.28125 18.015625 
L 9.28125 47.703125 
L 2.6875 47.703125 
L 2.6875 54.6875 
L 9.28125 54.6875 
L 9.28125 70.21875 
z
" id="BitstreamVeraSans-Roman-74"/>
     </defs>
     <g transform="translate(190.32 344.371875)scale(0.12 -0.12)">
      <use xlink:href="#BitstreamVeraSans-Roman-65"/>
      <use x="61.5078125" xlink:href="#BitstreamVeraSans-Roman-78"/>
      <use x="120.6875" xlink:href="#BitstreamVeraSans-Roman-70"/>
      <use x="184.1640625" xlink:href="#BitstreamVeraSans-Roman-65"/>
      <use x="245.6875" xlink:href="#BitstreamVeraSans-Roman-72"/>
      <use x="286.80078125" xlink:href="#BitstreamVeraSans-Roman-69"/>
      <use x="314.583984375" xlink:href="#BitstreamVeraSans-Roman-6d"/>
      <use x="411.99609375" xlink:href="#BitstreamVeraSans-Roman-65"/>
      <use x="473.51953125" xlink:href="#BitstreamVeraSans-Roman-6e"/>
      <use x="536.8984375" xlink:href="#BitstreamVeraSans-Roman-74"/>
      <use x="576.107421875" xlink:href="#BitstreamVeraSans-Roman-61"/>
      <use x="637.38671875" xlink:href="#BitstreamVeraSans-Roman-6c"/>
     </g>
    </g>
   </g>
   <g id="matplotlib.axis_2">
    <g id="ytick_1">
     <g id="line2d_11">
      <defs>
       <path d="M 0 0 
L 4 0 
" id="m575eee637d" style="stroke:#000000;stroke-width:0.5;"/>
      </defs>
      <g>
       <use style="stroke:#000000;stroke-width:0.5;" x="41.4225" xlink:href="#m575eee637d" y="268.531703057"/>
      </g>
     </g>
     <g id="line2d_12">
      <defs>
       <path d="M 0 0 
L -4 0 
" id="m08217421ff" style="stroke:#000000;stroke-width:0.5;"/>
      </defs>
      <g>
       <use style="stroke:#000000;stroke-width:0.5;" x="419.04" xlink:href="#m08217421ff" y="268.531703057"/>
      </g>
     </g>
     <g id="text_6">
      <!-- 0 -->
      <g transform="translate(29.7875 271.842953057)scale(0.12 -0.12)">
       <use xlink:href="#BitstreamVeraSans-Roman-30"/>
      </g>
     </g>
    </g>
    <g id="ytick_2">
     <g id="line2d_13">
      <g>
       <use style="stroke:#000000;stroke-width:0.5;" x="41.4225" xlink:href="#m575eee637d" y="202.662707424"/>
      </g>
     </g>
     <g id="line2d_14">
      <g>
       <use style="stroke:#000000;stroke-width:0.5;" x="419.04" xlink:href="#m08217421ff" y="202.662707424"/>
      </g>
     </g>
     <g id="text_7">
      <!-- 1 -->
      <g transform="translate(29.7875 205.973957424)scale(0.12 -0.12)">
       <use xlink:href="#BitstreamVeraSans-Roman-31"/>
      </g>
     </g>
    </g>
    <g id="ytick_3">
     <g id="line2d_15">
      <g>
       <use style="stroke:#000000;stroke-width:0.5;" x="41.4225" xlink:href="#m575eee637d" y="136.79371179"/>
      </g>
     </g>
     <g id="line2d_16">
      <g>
       <use style="stroke:#000000;stroke-width:0.5;" x="419.04" xlink:href="#m08217421ff" y="136.79371179"/>
      </g>
     </g>
     <g id="text_8">
      <!-- 2 -->
      <g transform="translate(29.7875 140.10496179)scale(0.12 -0.12)">
       <use xlink:href="#BitstreamVeraSans-Roman-32"/>
      </g>
     </g>
    </g>
    <g id="ytick_4">
     <g id="line2d_17">
      <g>
       <use style="stroke:#000000;stroke-width:0.5;" x="41.4225" xlink:href="#m575eee637d" y="70.9247161572"/>
      </g>
     </g>
     <g id="line2d_18">
      <g>
       <use style="stroke:#000000;stroke-width:0.5;" x="419.04" xlink:href="#m08217421ff" y="70.9247161572"/>
      </g>
     </g>
     <g id="text_9">
      <!-- 3 -->
      <g transform="translate(29.7875 74.2359661572)scale(0.12 -0.12)">
       <use xlink:href="#BitstreamVeraSans-Roman-33"/>
      </g>
     </g>
    </g>
    <g id="text_10">
     <!-- calculated -->
     <defs>
      <path d="M 48.78125 52.59375 
L 48.78125 44.1875 
Q 44.96875 46.296875 41.140625 47.34375 
Q 37.3125 48.390625 33.40625 48.390625 
Q 24.65625 48.390625 19.8125 42.84375 
Q 14.984375 37.3125 14.984375 27.296875 
Q 14.984375 17.28125 19.8125 11.734375 
Q 24.65625 6.203125 33.40625 6.203125 
Q 37.3125 6.203125 41.140625 7.25 
Q 44.96875 8.296875 48.78125 10.40625 
L 48.78125 2.09375 
Q 45.015625 0.34375 40.984375 -0.53125 
Q 36.96875 -1.421875 32.421875 -1.421875 
Q 20.0625 -1.421875 12.78125 6.34375 
Q 5.515625 14.109375 5.515625 27.296875 
Q 5.515625 40.671875 12.859375 48.328125 
Q 20.21875 56 33.015625 56 
Q 37.15625 56 41.109375 55.140625 
Q 45.0625 54.296875 48.78125 52.59375 
" id="BitstreamVeraSans-Roman-63"/>
      <path d="M 8.5 21.578125 
L 8.5 54.6875 
L 17.484375 54.6875 
L 17.484375 21.921875 
Q 17.484375 14.15625 20.5 10.265625 
Q 23.53125 6.390625 29.59375 6.390625 
Q 36.859375 6.390625 41.078125 11.03125 
Q 45.3125 15.671875 45.3125 23.6875 
L 45.3125 54.6875 
L 54.296875 54.6875 
L 54.296875 0 
L 45.3125 0 
L 45.3125 8.40625 
Q 42.046875 3.421875 37.71875 1 
Q 33.40625 -1.421875 27.6875 -1.421875 
Q 18.265625 -1.421875 13.375 4.4375 
Q 8.5 10.296875 8.5 21.578125 
" id="BitstreamVeraSans-Roman-75"/>
      <path d="M 45.40625 46.390625 
L 45.40625 75.984375 
L 54.390625 75.984375 
L 54.390625 0 
L 45.40625 0 
L 45.40625 8.203125 
Q 42.578125 3.328125 38.25 0.953125 
Q 33.9375 -1.421875 27.875 -1.421875 
Q 17.96875 -1.421875 11.734375 6.484375 
Q 5.515625 14.40625 5.515625 27.296875 
Q 5.515625 40.1875 11.734375 48.09375 
Q 17.96875 56 27.875 56 
Q 33.9375 56 38.25 53.625 
Q 42.578125 51.265625 45.40625 46.390625 
M 14.796875 27.296875 
Q 14.796875 17.390625 18.875 11.75 
Q 22.953125 6.109375 30.078125 6.109375 
Q 37.203125 6.109375 41.296875 11.75 
Q 45.40625 17.390625 45.40625 27.296875 
Q 45.40625 37.203125 41.296875 42.84375 
Q 37.203125 48.484375 30.078125 48.484375 
Q 22.953125 48.484375 18.875 42.84375 
Q 14.796875 37.203125 14.796875 27.296875 
" id="BitstreamVeraSans-Roman-64"/>
     </defs>
     <g transform="translate(22.291875 194.74125)rotate(-90.0)scale(0.12 -0.12)">
      <use xlink:href="#BitstreamVeraSans-Roman-63"/>
      <use x="54.98046875" xlink:href="#BitstreamVeraSans-Roman-61"/>
      <use x="116.259765625" xlink:href="#BitstreamVeraSans-Roman-6c"/>
      <use x="144.04296875" xlink:href="#BitstreamVeraSans-Roman-63"/>
      <use x="199.0234375" xlink:href="#BitstreamVeraSans-Roman-75"/>
      <use x="262.40234375" xlink:href="#BitstreamVeraSans-Roman-6c"/>
      <use x="290.185546875" xlink:href="#BitstreamVeraSans-Roman-61"/>
      <use x="351.46484375" xlink:href="#BitstreamVeraSans-Roman-74"/>
      <use x="390.673828125" xlink:href="#BitstreamVeraSans-Roman-65"/>
      <use x="452.197265625" xlink:href="#BitstreamVeraSans-Roman-64"/>
     </g>
    </g>
   </g>
  </g>
 </g>
 <defs>
  <clipPath id="pf02a706ef3">
   <rect height="301.68" width="377.6175" x="41.4225" y="12.96"/>
  </clipPath>
 </defs>
</svg>
