<?xml version="1.0" encoding="utf-8" standalone="no"?>
<!DOCTYPE svg PUBLIC "-//W3C//DTD SVG 1.1//EN"
  "http://www.w3.org/Graphics/SVG/1.1/DTD/svg11.dtd">
<!-- Created with matplotlib (http://matplotlib.org/) -->
<svg height="360pt" version="1.1" viewBox="0 0 720 360" width="720pt" xmlns="http://www.w3.org/2000/svg" xmlns:xlink="http://www.w3.org/1999/xlink">
 <defs>
  <style type="text/css">
*{stroke-linecap:butt;stroke-linejoin:round;stroke-miterlimit:100000;}
  </style>
 </defs>
 <g id="figure_1">
  <g id="patch_1">
   <path d="M 0 360 
L 720 360 
L 720 0 
L 0 0 
z
" style="fill:#ffffff;"/>
  </g>
  <g id="axes_1">
   <g id="patch_2">
    <path d="M 52.785 314.64 
L 707.04 314.64 
L 707.04 12.96 
L 52.785 12.96 
z
" style="fill:#ffffff;"/>
   </g>
   <g id="line2d_1">
    <path clip-path="url(#p0db274212c)" d="M 52.785 199.214609 
L 61.5084 60.179478 
L 70.2318 207.084522 
L 78.9552 12.96 
L 87.6786 123.138783 
L 96.402 58.867826 
L 105.1254 104.775652 
L 113.8488 188.721391 
L 122.5722 172.981565 
L 131.2956 231.350087 
L 140.019 182.16313 
L 148.7424 89.035826 
L 157.4658 159.865043 
L 166.1892 100.840696 
L 174.9126 129.697043 
L 183.636 111.333913 
L 192.3594 136.255304 
L 201.0828 87.724174 
L 209.8062 211.019478 
L 218.5296 180.851478 
L 227.253 138.878609 
L 235.9764 107.398957 
L 244.6998 276.602087 
L 253.4232 242.49913 
L 262.1466 155.930087 
L 270.87 308.081739 
L 279.5934 151.99513 
L 288.3168 207.084522 
L 297.0402 201.837913 
L 305.7636 292.341913 
L 314.487 251.680696 
L 323.2104 183.474783 
L 331.9338 186.098087 
L 340.6572 153.306783 
L 349.3806 216.921913 
L 358.104 171.669913 
L 366.8274 144.125217 
L 375.5508 212.33113 
L 384.2742 174.293217 
L 392.9976 166.423304 
L 401.721 199.214609 
L 410.4444 163.8 
L 419.1678 49.686261 
L 427.8912 104.775652 
L 436.6146 75.919304 
L 445.338 268.732174 
L 454.0614 258.238957 
L 462.7848 149.371826 
L 471.5082 162.488348 
L 480.2316 217.577739 
L 488.955 157.241739 
L 497.6784 178.228174 
L 506.4018 228.070957 
L 515.1252 133.632 
L 523.8486 66.737739 
L 532.572 220.201043 
L 541.2954 195.279652 
L 550.0188 190.033043 
L 558.7422 144.125217 
L 567.4656 182.16313 
L 576.189 309.393391 
L 584.9124 163.8 
L 593.6358 232.005913 
L 602.3592 314.64 
L 611.0826 144.125217 
L 619.806 58.867826 
L 628.5294 86.412522 
L 637.2528 78.542609 
L 645.9762 74.607652 
L 654.6996 178.228174 
L 663.423 94.282435 
L 672.1464 192.656348 
L 680.8698 175.60487 
L 689.5932 190.033043 
L 698.3166 232.005913 
L 707.04 254.959826 
" style="fill:none;stroke:#ff0000;stroke-linecap:square;stroke-width:2.0;"/>
    <defs>
     <path d="M 0 3 
C 0.795609 3 1.55874 2.683901 2.12132 2.12132 
C 2.683901 1.55874 3 0.795609 3 0 
C 3 -0.795609 2.683901 -1.55874 2.12132 -2.12132 
C 1.55874 -2.683901 0.795609 -3 0 -3 
C -0.795609 -3 -1.55874 -2.683901 -2.12132 -2.12132 
C -2.683901 -1.55874 -3 -0.795609 -3 0 
C -3 0.795609 -2.683901 1.55874 -2.12132 2.12132 
C -1.55874 2.683901 -0.795609 3 0 3 
z
" id="m17b68016aa" style="stroke:#000000;stroke-width:0.5;"/>
    </defs>
    <g clip-path="url(#p0db274212c)">
     <use style="fill:#ff0000;stroke:#000000;stroke-width:0.5;" x="52.785" xlink:href="#m17b68016aa" y="199.214608696"/>
     <use style="fill:#ff0000;stroke:#000000;stroke-width:0.5;" x="61.5084" xlink:href="#m17b68016aa" y="60.1794782609"/>
     <use style="fill:#ff0000;stroke:#000000;stroke-width:0.5;" x="70.2318" xlink:href="#m17b68016aa" y="207.084521739"/>
     <use style="fill:#ff0000;stroke:#000000;stroke-width:0.5;" x="78.9552" xlink:href="#m17b68016aa" y="12.96"/>
     <use style="fill:#ff0000;stroke:#000000;stroke-width:0.5;" x="87.6786" xlink:href="#m17b68016aa" y="123.138782609"/>
     <use style="fill:#ff0000;stroke:#000000;stroke-width:0.5;" x="96.402" xlink:href="#m17b68016aa" y="58.867826087"/>
     <use style="fill:#ff0000;stroke:#000000;stroke-width:0.5;" x="105.1254" xlink:href="#m17b68016aa" y="104.775652174"/>
     <use style="fill:#ff0000;stroke:#000000;stroke-width:0.5;" x="113.8488" xlink:href="#m17b68016aa" y="188.721391304"/>
     <use style="fill:#ff0000;stroke:#000000;stroke-width:0.5;" x="122.5722" xlink:href="#m17b68016aa" y="172.981565217"/>
     <use style="fill:#ff0000;stroke:#000000;stroke-width:0.5;" x="131.2956" xlink:href="#m17b68016aa" y="231.350086957"/>
     <use style="fill:#ff0000;stroke:#000000;stroke-width:0.5;" x="140.019" xlink:href="#m17b68016aa" y="182.163130435"/>
     <use style="fill:#ff0000;stroke:#000000;stroke-width:0.5;" x="148.7424" xlink:href="#m17b68016aa" y="89.035826087"/>
     <use style="fill:#ff0000;stroke:#000000;stroke-width:0.5;" x="157.4658" xlink:href="#m17b68016aa" y="159.865043478"/>
     <use style="fill:#ff0000;stroke:#000000;stroke-width:0.5;" x="166.1892" xlink:href="#m17b68016aa" y="100.840695652"/>
     <use style="fill:#ff0000;stroke:#000000;stroke-width:0.5;" x="174.9126" xlink:href="#m17b68016aa" y="129.697043478"/>
     <use style="fill:#ff0000;stroke:#000000;stroke-width:0.5;" x="183.636" xlink:href="#m17b68016aa" y="111.333913043"/>
     <use style="fill:#ff0000;stroke:#000000;stroke-width:0.5;" x="192.3594" xlink:href="#m17b68016aa" y="136.255304348"/>
     <use style="fill:#ff0000;stroke:#000000;stroke-width:0.5;" x="201.0828" xlink:href="#m17b68016aa" y="87.724173913"/>
     <use style="fill:#ff0000;stroke:#000000;stroke-width:0.5;" x="209.8062" xlink:href="#m17b68016aa" y="211.019478261"/>
     <use style="fill:#ff0000;stroke:#000000;stroke-width:0.5;" x="218.5296" xlink:href="#m17b68016aa" y="180.851478261"/>
     <use style="fill:#ff0000;stroke:#000000;stroke-width:0.5;" x="227.253" xlink:href="#m17b68016aa" y="138.878608696"/>
     <use style="fill:#ff0000;stroke:#000000;stroke-width:0.5;" x="235.9764" xlink:href="#m17b68016aa" y="107.398956522"/>
     <use style="fill:#ff0000;stroke:#000000;stroke-width:0.5;" x="244.6998" xlink:href="#m17b68016aa" y="276.602086957"/>
     <use style="fill:#ff0000;stroke:#000000;stroke-width:0.5;" x="253.4232" xlink:href="#m17b68016aa" y="242.499130435"/>
     <use style="fill:#ff0000;stroke:#000000;stroke-width:0.5;" x="262.1466" xlink:href="#m17b68016aa" y="155.930086957"/>
     <use style="fill:#ff0000;stroke:#000000;stroke-width:0.5;" x="270.87" xlink:href="#m17b68016aa" y="308.08173913"/>
     <use style="fill:#ff0000;stroke:#000000;stroke-width:0.5;" x="279.5934" xlink:href="#m17b68016aa" y="151.995130435"/>
     <use style="fill:#ff0000;stroke:#000000;stroke-width:0.5;" x="288.3168" xlink:href="#m17b68016aa" y="207.084521739"/>
     <use style="fill:#ff0000;stroke:#000000;stroke-width:0.5;" x="297.0402" xlink:href="#m17b68016aa" y="201.837913043"/>
     <use style="fill:#ff0000;stroke:#000000;stroke-width:0.5;" x="305.7636" xlink:href="#m17b68016aa" y="292.341913043"/>
     <use style="fill:#ff0000;stroke:#000000;stroke-width:0.5;" x="314.487" xlink:href="#m17b68016aa" y="251.680695652"/>
     <use style="fill:#ff0000;stroke:#000000;stroke-width:0.5;" x="323.2104" xlink:href="#m17b68016aa" y="183.474782609"/>
     <use style="fill:#ff0000;stroke:#000000;stroke-width:0.5;" x="331.9338" xlink:href="#m17b68016aa" y="186.098086957"/>
     <use style="fill:#ff0000;stroke:#000000;stroke-width:0.5;" x="340.6572" xlink:href="#m17b68016aa" y="153.306782609"/>
     <use style="fill:#ff0000;stroke:#000000;stroke-width:0.5;" x="349.3806" xlink:href="#m17b68016aa" y="216.921913043"/>
     <use style="fill:#ff0000;stroke:#000000;stroke-width:0.5;" x="358.104" xlink:href="#m17b68016aa" y="171.669913043"/>
     <use style="fill:#ff0000;stroke:#000000;stroke-width:0.5;" x="366.8274" xlink:href="#m17b68016aa" y="144.125217391"/>
     <use style="fill:#ff0000;stroke:#000000;stroke-width:0.5;" x="375.5508" xlink:href="#m17b68016aa" y="212.331130435"/>
     <use style="fill:#ff0000;stroke:#000000;stroke-width:0.5;" x="384.2742" xlink:href="#m17b68016aa" y="174.293217391"/>
     <use style="fill:#ff0000;stroke:#000000;stroke-width:0.5;" x="392.9976" xlink:href="#m17b68016aa" y="166.423304348"/>
     <use style="fill:#ff0000;stroke:#000000;stroke-width:0.5;" x="401.721" xlink:href="#m17b68016aa" y="199.214608696"/>
     <use style="fill:#ff0000;stroke:#000000;stroke-width:0.5;" x="410.4444" xlink:href="#m17b68016aa" y="163.8"/>
     <use style="fill:#ff0000;stroke:#000000;stroke-width:0.5;" x="419.1678" xlink:href="#m17b68016aa" y="49.6862608696"/>
     <use style="fill:#ff0000;stroke:#000000;stroke-width:0.5;" x="427.8912" xlink:href="#m17b68016aa" y="104.775652174"/>
     <use style="fill:#ff0000;stroke:#000000;stroke-width:0.5;" x="436.6146" xlink:href="#m17b68016aa" y="75.9193043478"/>
     <use style="fill:#ff0000;stroke:#000000;stroke-width:0.5;" x="445.338" xlink:href="#m17b68016aa" y="268.732173913"/>
     <use style="fill:#ff0000;stroke:#000000;stroke-width:0.5;" x="454.0614" xlink:href="#m17b68016aa" y="258.238956522"/>
     <use style="fill:#ff0000;stroke:#000000;stroke-width:0.5;" x="462.7848" xlink:href="#m17b68016aa" y="149.371826087"/>
     <use style="fill:#ff0000;stroke:#000000;stroke-width:0.5;" x="471.5082" xlink:href="#m17b68016aa" y="162.488347826"/>
     <use style="fill:#ff0000;stroke:#000000;stroke-width:0.5;" x="480.2316" xlink:href="#m17b68016aa" y="217.57773913"/>
     <use style="fill:#ff0000;stroke:#000000;stroke-width:0.5;" x="488.955" xlink:href="#m17b68016aa" y="157.24173913"/>
     <use style="fill:#ff0000;stroke:#000000;stroke-width:0.5;" x="497.6784" xlink:href="#m17b68016aa" y="178.228173913"/>
     <use style="fill:#ff0000;stroke:#000000;stroke-width:0.5;" x="506.4018" xlink:href="#m17b68016aa" y="228.070956522"/>
     <use style="fill:#ff0000;stroke:#000000;stroke-width:0.5;" x="515.1252" xlink:href="#m17b68016aa" y="133.632"/>
     <use style="fill:#ff0000;stroke:#000000;stroke-width:0.5;" x="523.8486" xlink:href="#m17b68016aa" y="66.7377391304"/>
     <use style="fill:#ff0000;stroke:#000000;stroke-width:0.5;" x="532.572" xlink:href="#m17b68016aa" y="220.201043478"/>
     <use style="fill:#ff0000;stroke:#000000;stroke-width:0.5;" x="541.2954" xlink:href="#m17b68016aa" y="195.279652174"/>
     <use style="fill:#ff0000;stroke:#000000;stroke-width:0.5;" x="550.0188" xlink:href="#m17b68016aa" y="190.033043478"/>
     <use style="fill:#ff0000;stroke:#000000;stroke-width:0.5;" x="558.7422" xlink:href="#m17b68016aa" y="144.125217391"/>
     <use style="fill:#ff0000;stroke:#000000;stroke-width:0.5;" x="567.4656" xlink:href="#m17b68016aa" y="182.163130435"/>
     <use style="fill:#ff0000;stroke:#000000;stroke-width:0.5;" x="576.189" xlink:href="#m17b68016aa" y="309.393391304"/>
     <use style="fill:#ff0000;stroke:#000000;stroke-width:0.5;" x="584.9124" xlink:href="#m17b68016aa" y="163.8"/>
     <use style="fill:#ff0000;stroke:#000000;stroke-width:0.5;" x="593.6358" xlink:href="#m17b68016aa" y="232.005913043"/>
     <use style="fill:#ff0000;stroke:#000000;stroke-width:0.5;" x="602.3592" xlink:href="#m17b68016aa" y="314.64"/>
     <use style="fill:#ff0000;stroke:#000000;stroke-width:0.5;" x="611.0826" xlink:href="#m17b68016aa" y="144.125217391"/>
     <use style="fill:#ff0000;stroke:#000000;stroke-width:0.5;" x="619.806" xlink:href="#m17b68016aa" y="58.867826087"/>
     <use style="fill:#ff0000;stroke:#000000;stroke-width:0.5;" x="628.5294" xlink:href="#m17b68016aa" y="86.4125217391"/>
     <use style="fill:#ff0000;stroke:#000000;stroke-width:0.5;" x="637.2528" xlink:href="#m17b68016aa" y="78.5426086957"/>
     <use style="fill:#ff0000;stroke:#000000;stroke-width:0.5;" x="645.9762" xlink:href="#m17b68016aa" y="74.6076521739"/>
     <use style="fill:#ff0000;stroke:#000000;stroke-width:0.5;" x="654.6996" xlink:href="#m17b68016aa" y="178.228173913"/>
     <use style="fill:#ff0000;stroke:#000000;stroke-width:0.5;" x="663.423" xlink:href="#m17b68016aa" y="94.2824347826"/>
     <use style="fill:#ff0000;stroke:#000000;stroke-width:0.5;" x="672.1464" xlink:href="#m17b68016aa" y="192.656347826"/>
     <use style="fill:#ff0000;stroke:#000000;stroke-width:0.5;" x="680.8698" xlink:href="#m17b68016aa" y="175.604869565"/>
     <use style="fill:#ff0000;stroke:#000000;stroke-width:0.5;" x="689.5932" xlink:href="#m17b68016aa" y="190.033043478"/>
     <use style="fill:#ff0000;stroke:#000000;stroke-width:0.5;" x="698.3166" xlink:href="#m17b68016aa" y="232.005913043"/>
     <use style="fill:#ff0000;stroke:#000000;stroke-width:0.5;" x="707.04" xlink:href="#m17b68016aa" y="254.959826087"/>
    </g>
   </g>
   <g id="line2d_2">
    <path clip-path="url(#p0db274212c)" d="M 52.785 168.583595 
L 61.5084 125.116754 
L 70.2318 107.116951 
L 78.9552 59.503977 
L 87.6786 100.744945 
L 96.402 83.223895 
L 105.1254 120.685993 
L 113.8488 223.82645 
L 122.5722 202.067452 
L 131.2956 246.773805 
L 140.019 173.857749 
L 148.7424 83.007473 
L 157.4658 153.902273 
L 166.1892 131.087395 
L 174.9126 128.774952 
L 183.636 131.622549 
L 192.3594 135.947066 
L 201.0828 131.277584 
L 209.8062 202.521284 
L 218.5296 170.976049 
L 227.253 165.027706 
L 235.9764 138.290989 
L 244.6998 273.645623 
L 253.4232 239.082277 
L 262.1466 190.644273 
L 270.87 288.072485 
L 279.5934 239.765647 
L 288.3168 234.282941 
L 297.0402 237.632901 
L 305.7636 267.941248 
L 314.487 224.571469 
L 323.2104 189.825802 
L 331.9338 208.880174 
L 340.6572 152.901482 
L 349.3806 250.664165 
L 358.104 221.099525 
L 366.8274 184.617232 
L 375.5508 197.575043 
L 384.2742 169.346977 
L 392.9976 168.00778 
L 401.721 88.589864 
L 410.4444 150.996963 
L 419.1678 78.395704 
L 427.8912 89.656238 
L 436.6146 104.36904 
L 445.338 300.020325 
L 454.0614 241.866914 
L 462.7848 152.051531 
L 471.5082 156.530824 
L 480.2316 214.200235 
L 488.955 158.406486 
L 497.6784 182.161819 
L 506.4018 240.079132 
L 515.1252 149.445279 
L 523.8486 100.291113 
L 532.572 226.691098 
L 541.2954 211.75925 
L 550.0188 193.714851 
L 558.7422 168.996766 
L 567.4656 211.531023 
L 576.189 271.171847 
L 584.9124 150.025029 
L 593.6358 236.868208 
L 602.3592 219.179266 
L 611.0826 147.486982 
L 619.806 80.780287 
L 628.5294 107.742609 
L 637.2528 78.61475 
L 645.9762 93.153102 
L 654.6996 162.233887 
L 663.423 92.038198 
L 672.1464 150.531327 
L 680.8698 132.362321 
L 689.5932 204.475646 
L 698.3166 248.902616 
L 707.04 248.941966 
" style="fill:none;stroke:#0000ff;stroke-linecap:square;stroke-width:2.0;"/>
    <defs>
     <path d="M 0 3 
C 0.795609 3 1.55874 2.683901 2.12132 2.12132 
C 2.683901 1.55874 3 0.795609 3 0 
C 3 -0.795609 2.683901 -1.55874 2.12132 -2.12132 
C 1.55874 -2.683901 0.795609 -3 0 -3 
C -0.795609 -3 -1.55874 -2.683901 -2.12132 -2.12132 
C -2.683901 -1.55874 -3 -0.795609 -3 0 
C -3 0.795609 -2.683901 1.55874 -2.12132 2.12132 
C -1.55874 2.683901 -0.795609 3 0 3 
z
" id="m0244776d98" style="stroke:#000000;stroke-width:0.5;"/>
    </defs>
    <g clip-path="url(#p0db274212c)">
     <use style="fill:#0000ff;stroke:#000000;stroke-width:0.5;" x="52.785" xlink:href="#m0244776d98" y="168.583595478"/>
     <use style="fill:#0000ff;stroke:#000000;stroke-width:0.5;" x="61.5084" xlink:href="#m0244776d98" y="125.116754087"/>
     <use style="fill:#0000ff;stroke:#000000;stroke-width:0.5;" x="70.2318" xlink:href="#m0244776d98" y="107.116951304"/>
     <use style="fill:#0000ff;stroke:#000000;stroke-width:0.5;" x="78.9552" xlink:href="#m0244776d98" y="59.5039773913"/>
     <use style="fill:#0000ff;stroke:#000000;stroke-width:0.5;" x="87.6786" xlink:href="#m0244776d98" y="100.744945043"/>
     <use style="fill:#0000ff;stroke:#000000;stroke-width:0.5;" x="96.402" xlink:href="#m0244776d98" y="83.2238953043"/>
     <use style="fill:#0000ff;stroke:#000000;stroke-width:0.5;" x="105.1254" xlink:href="#m0244776d98" y="120.685993043"/>
     <use style="fill:#0000ff;stroke:#000000;stroke-width:0.5;" x="113.8488" xlink:href="#m0244776d98" y="223.826450087"/>
     <use style="fill:#0000ff;stroke:#000000;stroke-width:0.5;" x="122.5722" xlink:href="#m0244776d98" y="202.067452174"/>
     <use style="fill:#0000ff;stroke:#000000;stroke-width:0.5;" x="131.2956" xlink:href="#m0244776d98" y="246.77380487"/>
     <use style="fill:#0000ff;stroke:#000000;stroke-width:0.5;" x="140.019" xlink:href="#m0244776d98" y="173.85774887"/>
     <use style="fill:#0000ff;stroke:#000000;stroke-width:0.5;" x="148.7424" xlink:href="#m0244776d98" y="83.0074726957"/>
     <use style="fill:#0000ff;stroke:#000000;stroke-width:0.5;" x="157.4658" xlink:href="#m0244776d98" y="153.902272696"/>
     <use style="fill:#0000ff;stroke:#000000;stroke-width:0.5;" x="166.1892" xlink:href="#m0244776d98" y="131.087394783"/>
     <use style="fill:#0000ff;stroke:#000000;stroke-width:0.5;" x="174.9126" xlink:href="#m0244776d98" y="128.774952"/>
     <use style="fill:#0000ff;stroke:#000000;stroke-width:0.5;" x="183.636" xlink:href="#m0244776d98" y="131.62254887"/>
     <use style="fill:#0000ff;stroke:#000000;stroke-width:0.5;" x="192.3594" xlink:href="#m0244776d98" y="135.947066087"/>
     <use style="fill:#0000ff;stroke:#000000;stroke-width:0.5;" x="201.0828" xlink:href="#m0244776d98" y="131.277584348"/>
     <use style="fill:#0000ff;stroke:#000000;stroke-width:0.5;" x="209.8062" xlink:href="#m0244776d98" y="202.521283826"/>
     <use style="fill:#0000ff;stroke:#000000;stroke-width:0.5;" x="218.5296" xlink:href="#m0244776d98" y="170.976049043"/>
     <use style="fill:#0000ff;stroke:#000000;stroke-width:0.5;" x="227.253" xlink:href="#m0244776d98" y="165.027706435"/>
     <use style="fill:#0000ff;stroke:#000000;stroke-width:0.5;" x="235.9764" xlink:href="#m0244776d98" y="138.290988522"/>
     <use style="fill:#0000ff;stroke:#000000;stroke-width:0.5;" x="244.6998" xlink:href="#m0244776d98" y="273.645622957"/>
     <use style="fill:#0000ff;stroke:#000000;stroke-width:0.5;" x="253.4232" xlink:href="#m0244776d98" y="239.082276522"/>
     <use style="fill:#0000ff;stroke:#000000;stroke-width:0.5;" x="262.1466" xlink:href="#m0244776d98" y="190.644273391"/>
     <use style="fill:#0000ff;stroke:#000000;stroke-width:0.5;" x="270.87" xlink:href="#m0244776d98" y="288.072485217"/>
     <use style="fill:#0000ff;stroke:#000000;stroke-width:0.5;" x="279.5934" xlink:href="#m0244776d98" y="239.765647304"/>
     <use style="fill:#0000ff;stroke:#000000;stroke-width:0.5;" x="288.3168" xlink:href="#m0244776d98" y="234.282941217"/>
     <use style="fill:#0000ff;stroke:#000000;stroke-width:0.5;" x="297.0402" xlink:href="#m0244776d98" y="237.63290087"/>
     <use style="fill:#0000ff;stroke:#000000;stroke-width:0.5;" x="305.7636" xlink:href="#m0244776d98" y="267.941247652"/>
     <use style="fill:#0000ff;stroke:#000000;stroke-width:0.5;" x="314.487" xlink:href="#m0244776d98" y="224.571468522"/>
     <use style="fill:#0000ff;stroke:#000000;stroke-width:0.5;" x="323.2104" xlink:href="#m0244776d98" y="189.825802435"/>
     <use style="fill:#0000ff;stroke:#000000;stroke-width:0.5;" x="331.9338" xlink:href="#m0244776d98" y="208.880173565"/>
     <use style="fill:#0000ff;stroke:#000000;stroke-width:0.5;" x="340.6572" xlink:href="#m0244776d98" y="152.901482087"/>
     <use style="fill:#0000ff;stroke:#000000;stroke-width:0.5;" x="349.3806" xlink:href="#m0244776d98" y="250.664165217"/>
     <use style="fill:#0000ff;stroke:#000000;stroke-width:0.5;" x="358.104" xlink:href="#m0244776d98" y="221.099525217"/>
     <use style="fill:#0000ff;stroke:#000000;stroke-width:0.5;" x="366.8274" xlink:href="#m0244776d98" y="184.617231652"/>
     <use style="fill:#0000ff;stroke:#000000;stroke-width:0.5;" x="375.5508" xlink:href="#m0244776d98" y="197.575043478"/>
     <use style="fill:#0000ff;stroke:#000000;stroke-width:0.5;" x="384.2742" xlink:href="#m0244776d98" y="169.346977043"/>
     <use style="fill:#0000ff;stroke:#000000;stroke-width:0.5;" x="392.9976" xlink:href="#m0244776d98" y="168.007780174"/>
     <use style="fill:#0000ff;stroke:#000000;stroke-width:0.5;" x="401.721" xlink:href="#m0244776d98" y="88.5898643478"/>
     <use style="fill:#0000ff;stroke:#000000;stroke-width:0.5;" x="410.4444" xlink:href="#m0244776d98" y="150.99696313"/>
     <use style="fill:#0000ff;stroke:#000000;stroke-width:0.5;" x="419.1678" xlink:href="#m0244776d98" y="78.3957036522"/>
     <use style="fill:#0000ff;stroke:#000000;stroke-width:0.5;" x="427.8912" xlink:href="#m0244776d98" y="89.6562375652"/>
     <use style="fill:#0000ff;stroke:#000000;stroke-width:0.5;" x="436.6146" xlink:href="#m0244776d98" y="104.36904"/>
     <use style="fill:#0000ff;stroke:#000000;stroke-width:0.5;" x="445.338" xlink:href="#m0244776d98" y="300.02032487"/>
     <use style="fill:#0000ff;stroke:#000000;stroke-width:0.5;" x="454.0614" xlink:href="#m0244776d98" y="241.866914087"/>
     <use style="fill:#0000ff;stroke:#000000;stroke-width:0.5;" x="462.7848" xlink:href="#m0244776d98" y="152.051531478"/>
     <use style="fill:#0000ff;stroke:#000000;stroke-width:0.5;" x="471.5082" xlink:href="#m0244776d98" y="156.530823652"/>
     <use style="fill:#0000ff;stroke:#000000;stroke-width:0.5;" x="480.2316" xlink:href="#m0244776d98" y="214.200234783"/>
     <use style="fill:#0000ff;stroke:#000000;stroke-width:0.5;" x="488.955" xlink:href="#m0244776d98" y="158.406486261"/>
     <use style="fill:#0000ff;stroke:#000000;stroke-width:0.5;" x="497.6784" xlink:href="#m0244776d98" y="182.161818783"/>
     <use style="fill:#0000ff;stroke:#000000;stroke-width:0.5;" x="506.4018" xlink:href="#m0244776d98" y="240.079132174"/>
     <use style="fill:#0000ff;stroke:#000000;stroke-width:0.5;" x="515.1252" xlink:href="#m0244776d98" y="149.445278609"/>
     <use style="fill:#0000ff;stroke:#000000;stroke-width:0.5;" x="523.8486" xlink:href="#m0244776d98" y="100.291113391"/>
     <use style="fill:#0000ff;stroke:#000000;stroke-width:0.5;" x="532.572" xlink:href="#m0244776d98" y="226.691098435"/>
     <use style="fill:#0000ff;stroke:#000000;stroke-width:0.5;" x="541.2954" xlink:href="#m0244776d98" y="211.759250087"/>
     <use style="fill:#0000ff;stroke:#000000;stroke-width:0.5;" x="550.0188" xlink:href="#m0244776d98" y="193.71485113"/>
     <use style="fill:#0000ff;stroke:#000000;stroke-width:0.5;" x="558.7422" xlink:href="#m0244776d98" y="168.996765913"/>
     <use style="fill:#0000ff;stroke:#000000;stroke-width:0.5;" x="567.4656" xlink:href="#m0244776d98" y="211.531022609"/>
     <use style="fill:#0000ff;stroke:#000000;stroke-width:0.5;" x="576.189" xlink:href="#m0244776d98" y="271.171846957"/>
     <use style="fill:#0000ff;stroke:#000000;stroke-width:0.5;" x="584.9124" xlink:href="#m0244776d98" y="150.02502887"/>
     <use style="fill:#0000ff;stroke:#000000;stroke-width:0.5;" x="593.6358" xlink:href="#m0244776d98" y="236.868207652"/>
     <use style="fill:#0000ff;stroke:#000000;stroke-width:0.5;" x="602.3592" xlink:href="#m0244776d98" y="219.179266435"/>
     <use style="fill:#0000ff;stroke:#000000;stroke-width:0.5;" x="611.0826" xlink:href="#m0244776d98" y="147.486981913"/>
     <use style="fill:#0000ff;stroke:#000000;stroke-width:0.5;" x="619.806" xlink:href="#m0244776d98" y="80.7802873043"/>
     <use style="fill:#0000ff;stroke:#000000;stroke-width:0.5;" x="628.5294" xlink:href="#m0244776d98" y="107.742609391"/>
     <use style="fill:#0000ff;stroke:#000000;stroke-width:0.5;" x="637.2528" xlink:href="#m0244776d98" y="78.6147495652"/>
     <use style="fill:#0000ff;stroke:#000000;stroke-width:0.5;" x="645.9762" xlink:href="#m0244776d98" y="93.1531022609"/>
     <use style="fill:#0000ff;stroke:#000000;stroke-width:0.5;" x="654.6996" xlink:href="#m0244776d98" y="162.233887304"/>
     <use style="fill:#0000ff;stroke:#000000;stroke-width:0.5;" x="663.423" xlink:href="#m0244776d98" y="92.038197913"/>
     <use style="fill:#0000ff;stroke:#000000;stroke-width:0.5;" x="672.1464" xlink:href="#m0244776d98" y="150.531326609"/>
     <use style="fill:#0000ff;stroke:#000000;stroke-width:0.5;" x="680.8698" xlink:href="#m0244776d98" y="132.362320696"/>
     <use style="fill:#0000ff;stroke:#000000;stroke-width:0.5;" x="689.5932" xlink:href="#m0244776d98" y="204.475645565"/>
     <use style="fill:#0000ff;stroke:#000000;stroke-width:0.5;" x="698.3166" xlink:href="#m0244776d98" y="248.902616348"/>
     <use style="fill:#0000ff;stroke:#000000;stroke-width:0.5;" x="707.04" xlink:href="#m0244776d98" y="248.941965913"/>
    </g>
   </g>
   <g id="patch_3">
    <path d="M 52.785 314.64 
L 52.785 12.96 
" style="fill:none;stroke:#000000;stroke-linecap:square;stroke-linejoin:miter;"/>
   </g>
   <g id="patch_4">
    <path d="M 52.785 314.64 
L 707.04 314.64 
" style="fill:none;stroke:#000000;stroke-linecap:square;stroke-linejoin:miter;"/>
   </g>
   <g id="patch_5">
    <path d="M 707.04 314.64 
L 707.04 12.96 
" style="fill:none;stroke:#000000;stroke-linecap:square;stroke-linejoin:miter;"/>
   </g>
   <g id="patch_6">
    <path d="M 52.785 12.96 
L 707.04 12.96 
" style="fill:none;stroke:#000000;stroke-linecap:square;stroke-linejoin:miter;"/>
   </g>
   <g id="matplotlib.axis_1">
    <g id="xtick_1">
     <g id="line2d_3">
      <defs>
       <path d="M 0 0 
L 0 -4 
" id="mb2c229501c" style="stroke:#000000;stroke-width:0.5;"/>
      </defs>
      <g>
       <use style="stroke:#000000;stroke-width:0.5;" x="131.2956" xlink:href="#mb2c229501c" y="314.64"/>
      </g>
     </g>
     <g id="line2d_4">
      <defs>
       <path d="M 0 0 
L 0 4 
" id="md03be3c067" style="stroke:#000000;stroke-width:0.5;"/>
      </defs>
      <g>
       <use style="stroke:#000000;stroke-width:0.5;" x="131.2956" xlink:href="#md03be3c067" y="12.96"/>
      </g>
     </g>
     <g id="text_1">
      <!-- 10 -->
      <defs>
       <path d="M 31.78125 66.40625 
Q 24.171875 66.40625 20.328125 58.90625 
Q 16.5 51.421875 16.5 36.375 
Q 16.5 21.390625 20.328125 13.890625 
Q 24.171875 6.390625 31.78125 6.390625 
Q 39.453125 6.390625 43.28125 13.890625 
Q 47.125 21.390625 47.125 36.375 
Q 47.125 51.421875 43.28125 58.90625 
Q 39.453125 66.40625 31.78125 66.40625 
M 31.78125 74.21875 
Q 44.046875 74.21875 50.515625 64.515625 
Q 56.984375 54.828125 56.984375 36.375 
Q 56.984375 17.96875 50.515625 8.265625 
Q 44.046875 -1.421875 31.78125 -1.421875 
Q 19.53125 -1.421875 13.0625 8.265625 
Q 6.59375 17.96875 6.59375 36.375 
Q 6.59375 54.828125 13.0625 64.515625 
Q 19.53125 74.21875 31.78125 74.21875 
" id="BitstreamVeraSans-Roman-30"/>
       <path d="M 12.40625 8.296875 
L 28.515625 8.296875 
L 28.515625 63.921875 
L 10.984375 60.40625 
L 10.984375 69.390625 
L 28.421875 72.90625 
L 38.28125 72.90625 
L 38.28125 8.296875 
L 54.390625 8.296875 
L 54.390625 0 
L 12.40625 0 
z
" id="BitstreamVeraSans-Roman-31"/>
      </defs>
      <g transform="translate(123.6606 327.758125)scale(0.12 -0.12)">
       <use xlink:href="#BitstreamVeraSans-Roman-31"/>
       <use x="63.623046875" xlink:href="#BitstreamVeraSans-Roman-30"/>
      </g>
     </g>
    </g>
    <g id="xtick_2">
     <g id="line2d_5">
      <g>
       <use style="stroke:#000000;stroke-width:0.5;" x="218.5296" xlink:href="#mb2c229501c" y="314.64"/>
      </g>
     </g>
     <g id="line2d_6">
      <g>
       <use style="stroke:#000000;stroke-width:0.5;" x="218.5296" xlink:href="#md03be3c067" y="12.96"/>
      </g>
     </g>
     <g id="text_2">
      <!-- 20 -->
      <defs>
       <path d="M 19.1875 8.296875 
L 53.609375 8.296875 
L 53.609375 0 
L 7.328125 0 
L 7.328125 8.296875 
Q 12.9375 14.109375 22.625 23.890625 
Q 32.328125 33.6875 34.8125 36.53125 
Q 39.546875 41.84375 41.421875 45.53125 
Q 43.3125 49.21875 43.3125 52.78125 
Q 43.3125 58.59375 39.234375 62.25 
Q 35.15625 65.921875 28.609375 65.921875 
Q 23.96875 65.921875 18.8125 64.3125 
Q 13.671875 62.703125 7.8125 59.421875 
L 7.8125 69.390625 
Q 13.765625 71.78125 18.9375 73 
Q 24.125 74.21875 28.421875 74.21875 
Q 39.75 74.21875 46.484375 68.546875 
Q 53.21875 62.890625 53.21875 53.421875 
Q 53.21875 48.921875 51.53125 44.890625 
Q 49.859375 40.875 45.40625 35.40625 
Q 44.1875 33.984375 37.640625 27.21875 
Q 31.109375 20.453125 19.1875 8.296875 
" id="BitstreamVeraSans-Roman-32"/>
      </defs>
      <g transform="translate(210.8946 327.758125)scale(0.12 -0.12)">
       <use xlink:href="#BitstreamVeraSans-Roman-32"/>
       <use x="63.623046875" xlink:href="#BitstreamVeraSans-Roman-30"/>
      </g>
     </g>
    </g>
    <g id="xtick_3">
     <g id="line2d_7">
      <g>
       <use style="stroke:#000000;stroke-width:0.5;" x="305.7636" xlink:href="#mb2c229501c" y="314.64"/>
      </g>
     </g>
     <g id="line2d_8">
      <g>
       <use style="stroke:#000000;stroke-width:0.5;" x="305.7636" xlink:href="#md03be3c067" y="12.96"/>
      </g>
     </g>
     <g id="text_3">
      <!-- 30 -->
      <defs>
       <path d="M 40.578125 39.3125 
Q 47.65625 37.796875 51.625 33 
Q 55.609375 28.21875 55.609375 21.1875 
Q 55.609375 10.40625 48.1875 4.484375 
Q 40.765625 -1.421875 27.09375 -1.421875 
Q 22.515625 -1.421875 17.65625 -0.515625 
Q 12.796875 0.390625 7.625 2.203125 
L 7.625 11.71875 
Q 11.71875 9.328125 16.59375 8.109375 
Q 21.484375 6.890625 26.8125 6.890625 
Q 36.078125 6.890625 40.9375 10.546875 
Q 45.796875 14.203125 45.796875 21.1875 
Q 45.796875 27.640625 41.28125 31.265625 
Q 36.765625 34.90625 28.71875 34.90625 
L 20.21875 34.90625 
L 20.21875 43.015625 
L 29.109375 43.015625 
Q 36.375 43.015625 40.234375 45.921875 
Q 44.09375 48.828125 44.09375 54.296875 
Q 44.09375 59.90625 40.109375 62.90625 
Q 36.140625 65.921875 28.71875 65.921875 
Q 24.65625 65.921875 20.015625 65.03125 
Q 15.375 64.15625 9.8125 62.3125 
L 9.8125 71.09375 
Q 15.4375 72.65625 20.34375 73.4375 
Q 25.25 74.21875 29.59375 74.21875 
Q 40.828125 74.21875 47.359375 69.109375 
Q 53.90625 64.015625 53.90625 55.328125 
Q 53.90625 49.265625 50.4375 45.09375 
Q 46.96875 40.921875 40.578125 39.3125 
" id="BitstreamVeraSans-Roman-33"/>
      </defs>
      <g transform="translate(298.1286 327.758125)scale(0.12 -0.12)">
       <use xlink:href="#BitstreamVeraSans-Roman-33"/>
       <use x="63.623046875" xlink:href="#BitstreamVeraSans-Roman-30"/>
      </g>
     </g>
    </g>
    <g id="xtick_4">
     <g id="line2d_9">
      <g>
       <use style="stroke:#000000;stroke-width:0.5;" x="392.9976" xlink:href="#mb2c229501c" y="314.64"/>
      </g>
     </g>
     <g id="line2d_10">
      <g>
       <use style="stroke:#000000;stroke-width:0.5;" x="392.9976" xlink:href="#md03be3c067" y="12.96"/>
      </g>
     </g>
     <g id="text_4">
      <!-- 40 -->
      <defs>
       <path d="M 37.796875 64.3125 
L 12.890625 25.390625 
L 37.796875 25.390625 
z
M 35.203125 72.90625 
L 47.609375 72.90625 
L 47.609375 25.390625 
L 58.015625 25.390625 
L 58.015625 17.1875 
L 47.609375 17.1875 
L 47.609375 0 
L 37.796875 0 
L 37.796875 17.1875 
L 4.890625 17.1875 
L 4.890625 26.703125 
z
" id="BitstreamVeraSans-Roman-34"/>
      </defs>
      <g transform="translate(385.3626 327.758125)scale(0.12 -0.12)">
       <use xlink:href="#BitstreamVeraSans-Roman-34"/>
       <use x="63.623046875" xlink:href="#BitstreamVeraSans-Roman-30"/>
      </g>
     </g>
    </g>
    <g id="xtick_5">
     <g id="line2d_11">
      <g>
       <use style="stroke:#000000;stroke-width:0.5;" x="480.2316" xlink:href="#mb2c229501c" y="314.64"/>
      </g>
     </g>
     <g id="line2d_12">
      <g>
       <use style="stroke:#000000;stroke-width:0.5;" x="480.2316" xlink:href="#md03be3c067" y="12.96"/>
      </g>
     </g>
     <g id="text_5">
      <!-- 50 -->
      <defs>
       <path d="M 10.796875 72.90625 
L 49.515625 72.90625 
L 49.515625 64.59375 
L 19.828125 64.59375 
L 19.828125 46.734375 
Q 21.96875 47.46875 24.109375 47.828125 
Q 26.265625 48.1875 28.421875 48.1875 
Q 40.625 48.1875 47.75 41.5 
Q 54.890625 34.8125 54.890625 23.390625 
Q 54.890625 11.625 47.5625 5.09375 
Q 40.234375 -1.421875 26.90625 -1.421875 
Q 22.3125 -1.421875 17.546875 -0.640625 
Q 12.796875 0.140625 7.71875 1.703125 
L 7.71875 11.625 
Q 12.109375 9.234375 16.796875 8.0625 
Q 21.484375 6.890625 26.703125 6.890625 
Q 35.15625 6.890625 40.078125 11.328125 
Q 45.015625 15.765625 45.015625 23.390625 
Q 45.015625 31 40.078125 35.4375 
Q 35.15625 39.890625 26.703125 39.890625 
Q 22.75 39.890625 18.8125 39.015625 
Q 14.890625 38.140625 10.796875 36.28125 
z
" id="BitstreamVeraSans-Roman-35"/>
      </defs>
      <g transform="translate(472.5966 327.758125)scale(0.12 -0.12)">
       <use xlink:href="#BitstreamVeraSans-Roman-35"/>
       <use x="63.623046875" xlink:href="#BitstreamVeraSans-Roman-30"/>
      </g>
     </g>
    </g>
    <g id="xtick_6">
     <g id="line2d_13">
      <g>
       <use style="stroke:#000000;stroke-width:0.5;" x="567.4656" xlink:href="#mb2c229501c" y="314.64"/>
      </g>
     </g>
     <g id="line2d_14">
      <g>
       <use style="stroke:#000000;stroke-width:0.5;" x="567.4656" xlink:href="#md03be3c067" y="12.96"/>
      </g>
     </g>
     <g id="text_6">
      <!-- 60 -->
      <defs>
       <path d="M 33.015625 40.375 
Q 26.375 40.375 22.484375 35.828125 
Q 18.609375 31.296875 18.609375 23.390625 
Q 18.609375 15.53125 22.484375 10.953125 
Q 26.375 6.390625 33.015625 6.390625 
Q 39.65625 6.390625 43.53125 10.953125 
Q 47.40625 15.53125 47.40625 23.390625 
Q 47.40625 31.296875 43.53125 35.828125 
Q 39.65625 40.375 33.015625 40.375 
M 52.59375 71.296875 
L 52.59375 62.3125 
Q 48.875 64.0625 45.09375 64.984375 
Q 41.3125 65.921875 37.59375 65.921875 
Q 27.828125 65.921875 22.671875 59.328125 
Q 17.53125 52.734375 16.796875 39.40625 
Q 19.671875 43.65625 24.015625 45.921875 
Q 28.375 48.1875 33.59375 48.1875 
Q 44.578125 48.1875 50.953125 41.515625 
Q 57.328125 34.859375 57.328125 23.390625 
Q 57.328125 12.15625 50.6875 5.359375 
Q 44.046875 -1.421875 33.015625 -1.421875 
Q 20.359375 -1.421875 13.671875 8.265625 
Q 6.984375 17.96875 6.984375 36.375 
Q 6.984375 53.65625 15.1875 63.9375 
Q 23.390625 74.21875 37.203125 74.21875 
Q 40.921875 74.21875 44.703125 73.484375 
Q 48.484375 72.75 52.59375 71.296875 
" id="BitstreamVeraSans-Roman-36"/>
      </defs>
      <g transform="translate(559.8306 327.758125)scale(0.12 -0.12)">
       <use xlink:href="#BitstreamVeraSans-Roman-36"/>
       <use x="63.623046875" xlink:href="#BitstreamVeraSans-Roman-30"/>
      </g>
     </g>
    </g>
    <g id="xtick_7">
     <g id="line2d_15">
      <g>
       <use style="stroke:#000000;stroke-width:0.5;" x="654.6996" xlink:href="#mb2c229501c" y="314.64"/>
      </g>
     </g>
     <g id="line2d_16">
      <g>
       <use style="stroke:#000000;stroke-width:0.5;" x="654.6996" xlink:href="#md03be3c067" y="12.96"/>
      </g>
     </g>
     <g id="text_7">
      <!-- 70 -->
      <defs>
       <path d="M 8.203125 72.90625 
L 55.078125 72.90625 
L 55.078125 68.703125 
L 28.609375 0 
L 18.3125 0 
L 43.21875 64.59375 
L 8.203125 64.59375 
z
" id="BitstreamVeraSans-Roman-37"/>
      </defs>
      <g transform="translate(647.0646 327.758125)scale(0.12 -0.12)">
       <use xlink:href="#BitstreamVeraSans-Roman-37"/>
       <use x="63.623046875" xlink:href="#BitstreamVeraSans-Roman-30"/>
      </g>
     </g>
    </g>
    <g id="text_8">
     <!-- residue number -->
     <defs>
      <path d="M 9.421875 54.6875 
L 18.40625 54.6875 
L 18.40625 0 
L 9.421875 0 
z
M 9.421875 75.984375 
L 18.40625 75.984375 
L 18.40625 64.59375 
L 9.421875 64.59375 
z
" id="BitstreamVeraSans-Roman-69"/>
      <path d="M 54.890625 33.015625 
L 54.890625 0 
L 45.90625 0 
L 45.90625 32.71875 
Q 45.90625 40.484375 42.875 44.328125 
Q 39.84375 48.1875 33.796875 48.1875 
Q 26.515625 48.1875 22.3125 43.546875 
Q 18.109375 38.921875 18.109375 30.90625 
L 18.109375 0 
L 9.078125 0 
L 9.078125 54.6875 
L 18.109375 54.6875 
L 18.109375 46.1875 
Q 21.34375 51.125 25.703125 53.5625 
Q 30.078125 56 35.796875 56 
Q 45.21875 56 50.046875 50.171875 
Q 54.890625 44.34375 54.890625 33.015625 
" id="BitstreamVeraSans-Roman-6e"/>
      <path d="M 41.109375 46.296875 
Q 39.59375 47.171875 37.8125 47.578125 
Q 36.03125 48 33.890625 48 
Q 26.265625 48 22.1875 43.046875 
Q 18.109375 38.09375 18.109375 28.8125 
L 18.109375 0 
L 9.078125 0 
L 9.078125 54.6875 
L 18.109375 54.6875 
L 18.109375 46.1875 
Q 20.953125 51.171875 25.484375 53.578125 
Q 30.03125 56 36.53125 56 
Q 37.453125 56 38.578125 55.875 
Q 39.703125 55.765625 41.0625 55.515625 
z
" id="BitstreamVeraSans-Roman-72"/>
      <path id="BitstreamVeraSans-Roman-20"/>
      <path d="M 52 44.1875 
Q 55.375 50.25 60.0625 53.125 
Q 64.75 56 71.09375 56 
Q 79.640625 56 84.28125 50.015625 
Q 88.921875 44.046875 88.921875 33.015625 
L 88.921875 0 
L 79.890625 0 
L 79.890625 32.71875 
Q 79.890625 40.578125 77.09375 44.375 
Q 74.3125 48.1875 68.609375 48.1875 
Q 61.625 48.1875 57.5625 43.546875 
Q 53.515625 38.921875 53.515625 30.90625 
L 53.515625 0 
L 44.484375 0 
L 44.484375 32.71875 
Q 44.484375 40.625 41.703125 44.40625 
Q 38.921875 48.1875 33.109375 48.1875 
Q 26.21875 48.1875 22.15625 43.53125 
Q 18.109375 38.875 18.109375 30.90625 
L 18.109375 0 
L 9.078125 0 
L 9.078125 54.6875 
L 18.109375 54.6875 
L 18.109375 46.1875 
Q 21.1875 51.21875 25.484375 53.609375 
Q 29.78125 56 35.6875 56 
Q 41.65625 56 45.828125 52.96875 
Q 50 49.953125 52 44.1875 
" id="BitstreamVeraSans-Roman-6d"/>
      <path d="M 56.203125 29.59375 
L 56.203125 25.203125 
L 14.890625 25.203125 
Q 15.484375 15.921875 20.484375 11.0625 
Q 25.484375 6.203125 34.421875 6.203125 
Q 39.59375 6.203125 44.453125 7.46875 
Q 49.3125 8.734375 54.109375 11.28125 
L 54.109375 2.78125 
Q 49.265625 0.734375 44.1875 -0.34375 
Q 39.109375 -1.421875 33.890625 -1.421875 
Q 20.796875 -1.421875 13.15625 6.1875 
Q 5.515625 13.8125 5.515625 26.8125 
Q 5.515625 40.234375 12.765625 48.109375 
Q 20.015625 56 32.328125 56 
Q 43.359375 56 49.78125 48.890625 
Q 56.203125 41.796875 56.203125 29.59375 
M 47.21875 32.234375 
Q 47.125 39.59375 43.09375 43.984375 
Q 39.0625 48.390625 32.421875 48.390625 
Q 24.90625 48.390625 20.390625 44.140625 
Q 15.875 39.890625 15.1875 32.171875 
z
" id="BitstreamVeraSans-Roman-65"/>
      <path d="M 45.40625 46.390625 
L 45.40625 75.984375 
L 54.390625 75.984375 
L 54.390625 0 
L 45.40625 0 
L 45.40625 8.203125 
Q 42.578125 3.328125 38.25 0.953125 
Q 33.9375 -1.421875 27.875 -1.421875 
Q 17.96875 -1.421875 11.734375 6.484375 
Q 5.515625 14.40625 5.515625 27.296875 
Q 5.515625 40.1875 11.734375 48.09375 
Q 17.96875 56 27.875 56 
Q 33.9375 56 38.25 53.625 
Q 42.578125 51.265625 45.40625 46.390625 
M 14.796875 27.296875 
Q 14.796875 17.390625 18.875 11.75 
Q 22.953125 6.109375 30.078125 6.109375 
Q 37.203125 6.109375 41.296875 11.75 
Q 45.40625 17.390625 45.40625 27.296875 
Q 45.40625 37.203125 41.296875 42.84375 
Q 37.203125 48.484375 30.078125 48.484375 
Q 22.953125 48.484375 18.875 42.84375 
Q 14.796875 37.203125 14.796875 27.296875 
" id="BitstreamVeraSans-Roman-64"/>
      <path d="M 44.28125 53.078125 
L 44.28125 44.578125 
Q 40.484375 46.53125 36.375 47.5 
Q 32.28125 48.484375 27.875 48.484375 
Q 21.1875 48.484375 17.84375 46.4375 
Q 14.5 44.390625 14.5 40.28125 
Q 14.5 37.15625 16.890625 35.375 
Q 19.28125 33.59375 26.515625 31.984375 
L 29.59375 31.296875 
Q 39.15625 29.25 43.1875 25.515625 
Q 47.21875 21.78125 47.21875 15.09375 
Q 47.21875 7.46875 41.1875 3.015625 
Q 35.15625 -1.421875 24.609375 -1.421875 
Q 20.21875 -1.421875 15.453125 -0.5625 
Q 10.6875 0.296875 5.421875 2 
L 5.421875 11.28125 
Q 10.40625 8.6875 15.234375 7.390625 
Q 20.0625 6.109375 24.8125 6.109375 
Q 31.15625 6.109375 34.5625 8.28125 
Q 37.984375 10.453125 37.984375 14.40625 
Q 37.984375 18.0625 35.515625 20.015625 
Q 33.0625 21.96875 24.703125 23.78125 
L 21.578125 24.515625 
Q 13.234375 26.265625 9.515625 29.90625 
Q 5.8125 33.546875 5.8125 39.890625 
Q 5.8125 47.609375 11.28125 51.796875 
Q 16.75 56 26.8125 56 
Q 31.78125 56 36.171875 55.265625 
Q 40.578125 54.546875 44.28125 53.078125 
" id="BitstreamVeraSans-Roman-73"/>
      <path d="M 8.5 21.578125 
L 8.5 54.6875 
L 17.484375 54.6875 
L 17.484375 21.921875 
Q 17.484375 14.15625 20.5 10.265625 
Q 23.53125 6.390625 29.59375 6.390625 
Q 36.859375 6.390625 41.078125 11.03125 
Q 45.3125 15.671875 45.3125 23.6875 
L 45.3125 54.6875 
L 54.296875 54.6875 
L 54.296875 0 
L 45.3125 0 
L 45.3125 8.40625 
Q 42.046875 3.421875 37.71875 1 
Q 33.40625 -1.421875 27.6875 -1.421875 
Q 18.265625 -1.421875 13.375 4.4375 
Q 8.5 10.296875 8.5 21.578125 
" id="BitstreamVeraSans-Roman-75"/>
      <path d="M 48.6875 27.296875 
Q 48.6875 37.203125 44.609375 42.84375 
Q 40.53125 48.484375 33.40625 48.484375 
Q 26.265625 48.484375 22.1875 42.84375 
Q 18.109375 37.203125 18.109375 27.296875 
Q 18.109375 17.390625 22.1875 11.75 
Q 26.265625 6.109375 33.40625 6.109375 
Q 40.53125 6.109375 44.609375 11.75 
Q 48.6875 17.390625 48.6875 27.296875 
M 18.109375 46.390625 
Q 20.953125 51.265625 25.265625 53.625 
Q 29.59375 56 35.59375 56 
Q 45.5625 56 51.78125 48.09375 
Q 58.015625 40.1875 58.015625 27.296875 
Q 58.015625 14.40625 51.78125 6.484375 
Q 45.5625 -1.421875 35.59375 -1.421875 
Q 29.59375 -1.421875 25.265625 0.953125 
Q 20.953125 3.328125 18.109375 8.203125 
L 18.109375 0 
L 9.078125 0 
L 9.078125 75.984375 
L 18.109375 75.984375 
z
" id="BitstreamVeraSans-Roman-62"/>
     </defs>
     <g transform="translate(332.33625 344.371875)scale(0.12 -0.12)">
      <use xlink:href="#BitstreamVeraSans-Roman-72"/>
      <use x="41.08203125" xlink:href="#BitstreamVeraSans-Roman-65"/>
      <use x="102.60546875" xlink:href="#BitstreamVeraSans-Roman-73"/>
      <use x="154.705078125" xlink:href="#BitstreamVeraSans-Roman-69"/>
      <use x="182.48828125" xlink:href="#BitstreamVeraSans-Roman-64"/>
      <use x="245.96484375" xlink:href="#BitstreamVeraSans-Roman-75"/>
      <use x="309.34375" xlink:href="#BitstreamVeraSans-Roman-65"/>
      <use x="370.8671875" xlink:href="#BitstreamVeraSans-Roman-20"/>
      <use x="402.654296875" xlink:href="#BitstreamVeraSans-Roman-6e"/>
      <use x="466.033203125" xlink:href="#BitstreamVeraSans-Roman-75"/>
      <use x="529.412109375" xlink:href="#BitstreamVeraSans-Roman-6d"/>
      <use x="626.82421875" xlink:href="#BitstreamVeraSans-Roman-62"/>
      <use x="690.30078125" xlink:href="#BitstreamVeraSans-Roman-65"/>
      <use x="751.82421875" xlink:href="#BitstreamVeraSans-Roman-72"/>
     </g>
    </g>
   </g>
   <g id="matplotlib.axis_2">
    <g id="ytick_1">
     <g id="line2d_17">
      <path clip-path="url(#p0db274212c)" d="M 52.785 297.588522 
L 707.04 297.588522 
" style="fill:none;stroke:#000000;stroke-dasharray:1.000000,3.000000;stroke-dashoffset:0.0;stroke-width:0.5;"/>
     </g>
     <g id="line2d_18">
      <defs>
       <path d="M 0 0 
L 4 0 
" id="mb0ee6fc49c" style="stroke:#000000;stroke-width:0.5;"/>
      </defs>
      <g>
       <use style="stroke:#000000;stroke-width:0.5;" x="52.785" xlink:href="#mb0ee6fc49c" y="297.588521739"/>
      </g>
     </g>
     <g id="line2d_19">
      <defs>
       <path d="M 0 0 
L -4 0 
" id="m4f7ecf67a2" style="stroke:#000000;stroke-width:0.5;"/>
      </defs>
      <g>
       <use style="stroke:#000000;stroke-width:0.5;" x="707.04" xlink:href="#m4f7ecf67a2" y="297.588521739"/>
      </g>
     </g>
     <g id="text_9">
      <!-- 3.5 -->
      <defs>
       <path d="M 10.6875 12.40625 
L 21 12.40625 
L 21 0 
L 10.6875 0 
z
" id="BitstreamVeraSans-Roman-2e"/>
      </defs>
      <g transform="translate(29.70125 300.899771739)scale(0.12 -0.12)">
       <use xlink:href="#BitstreamVeraSans-Roman-33"/>
       <use x="63.623046875" xlink:href="#BitstreamVeraSans-Roman-2e"/>
       <use x="95.41015625" xlink:href="#BitstreamVeraSans-Roman-35"/>
      </g>
     </g>
    </g>
    <g id="ytick_2">
     <g id="line2d_20">
      <path clip-path="url(#p0db274212c)" d="M 52.785 232.005913 
L 707.04 232.005913 
" style="fill:none;stroke:#000000;stroke-dasharray:1.000000,3.000000;stroke-dashoffset:0.0;stroke-width:0.5;"/>
     </g>
     <g id="line2d_21">
      <g>
       <use style="stroke:#000000;stroke-width:0.5;" x="52.785" xlink:href="#mb0ee6fc49c" y="232.005913043"/>
      </g>
     </g>
     <g id="line2d_22">
      <g>
       <use style="stroke:#000000;stroke-width:0.5;" x="707.04" xlink:href="#m4f7ecf67a2" y="232.005913043"/>
      </g>
     </g>
     <g id="text_10">
      <!-- 4.0 -->
      <g transform="translate(29.70125 235.317163043)scale(0.12 -0.12)">
       <use xlink:href="#BitstreamVeraSans-Roman-34"/>
       <use x="63.623046875" xlink:href="#BitstreamVeraSans-Roman-2e"/>
       <use x="95.41015625" xlink:href="#BitstreamVeraSans-Roman-30"/>
      </g>
     </g>
    </g>
    <g id="ytick_3">
     <g id="line2d_23">
      <path clip-path="url(#p0db274212c)" d="M 52.785 166.423304 
L 707.04 166.423304 
" style="fill:none;stroke:#000000;stroke-dasharray:1.000000,3.000000;stroke-dashoffset:0.0;stroke-width:0.5;"/>
     </g>
     <g id="line2d_24">
      <g>
       <use style="stroke:#000000;stroke-width:0.5;" x="52.785" xlink:href="#mb0ee6fc49c" y="166.423304348"/>
      </g>
     </g>
     <g id="line2d_25">
      <g>
       <use style="stroke:#000000;stroke-width:0.5;" x="707.04" xlink:href="#m4f7ecf67a2" y="166.423304348"/>
      </g>
     </g>
     <g id="text_11">
      <!-- 4.5 -->
      <g transform="translate(29.70125 169.734554348)scale(0.12 -0.12)">
       <use xlink:href="#BitstreamVeraSans-Roman-34"/>
       <use x="63.623046875" xlink:href="#BitstreamVeraSans-Roman-2e"/>
       <use x="95.41015625" xlink:href="#BitstreamVeraSans-Roman-35"/>
      </g>
     </g>
    </g>
    <g id="ytick_4">
     <g id="line2d_26">
      <path clip-path="url(#p0db274212c)" d="M 52.785 100.840696 
L 707.04 100.840696 
" style="fill:none;stroke:#000000;stroke-dasharray:1.000000,3.000000;stroke-dashoffset:0.0;stroke-width:0.5;"/>
     </g>
     <g id="line2d_27">
      <g>
       <use style="stroke:#000000;stroke-width:0.5;" x="52.785" xlink:href="#mb0ee6fc49c" y="100.840695652"/>
      </g>
     </g>
     <g id="line2d_28">
      <g>
       <use style="stroke:#000000;stroke-width:0.5;" x="707.04" xlink:href="#m4f7ecf67a2" y="100.840695652"/>
      </g>
     </g>
     <g id="text_12">
      <!-- 5.0 -->
      <g transform="translate(29.70125 104.151945652)scale(0.12 -0.12)">
       <use xlink:href="#BitstreamVeraSans-Roman-35"/>
       <use x="63.623046875" xlink:href="#BitstreamVeraSans-Roman-2e"/>
       <use x="95.41015625" xlink:href="#BitstreamVeraSans-Roman-30"/>
      </g>
     </g>
    </g>
    <g id="ytick_5">
     <g id="line2d_29">
      <path clip-path="url(#p0db274212c)" d="M 52.785 35.258087 
L 707.04 35.258087 
" style="fill:none;stroke:#000000;stroke-dasharray:1.000000,3.000000;stroke-dashoffset:0.0;stroke-width:0.5;"/>
     </g>
     <g id="line2d_30">
      <g>
       <use style="stroke:#000000;stroke-width:0.5;" x="52.785" xlink:href="#mb0ee6fc49c" y="35.2580869565"/>
      </g>
     </g>
     <g id="line2d_31">
      <g>
       <use style="stroke:#000000;stroke-width:0.5;" x="707.04" xlink:href="#m4f7ecf67a2" y="35.2580869565"/>
      </g>
     </g>
     <g id="text_13">
      <!-- 5.5 -->
      <g transform="translate(29.70125 38.5693369565)scale(0.12 -0.12)">
       <use xlink:href="#BitstreamVeraSans-Roman-35"/>
       <use x="63.623046875" xlink:href="#BitstreamVeraSans-Roman-2e"/>
       <use x="95.41015625" xlink:href="#BitstreamVeraSans-Roman-35"/>
      </g>
     </g>
    </g>
    <g id="text_14">
     <!-- value -->
     <defs>
      <path d="M 34.28125 27.484375 
Q 23.390625 27.484375 19.1875 25 
Q 14.984375 22.515625 14.984375 16.5 
Q 14.984375 11.71875 18.140625 8.90625 
Q 21.296875 6.109375 26.703125 6.109375 
Q 34.1875 6.109375 38.703125 11.40625 
Q 43.21875 16.703125 43.21875 25.484375 
L 43.21875 27.484375 
z
M 52.203125 31.203125 
L 52.203125 0 
L 43.21875 0 
L 43.21875 8.296875 
Q 40.140625 3.328125 35.546875 0.953125 
Q 30.953125 -1.421875 24.3125 -1.421875 
Q 15.921875 -1.421875 10.953125 3.296875 
Q 6 8.015625 6 15.921875 
Q 6 25.140625 12.171875 29.828125 
Q 18.359375 34.515625 30.609375 34.515625 
L 43.21875 34.515625 
L 43.21875 35.40625 
Q 43.21875 41.609375 39.140625 45 
Q 35.0625 48.390625 27.6875 48.390625 
Q 23 48.390625 18.546875 47.265625 
Q 14.109375 46.140625 10.015625 43.890625 
L 10.015625 52.203125 
Q 14.9375 54.109375 19.578125 55.046875 
Q 24.21875 56 28.609375 56 
Q 40.484375 56 46.34375 49.84375 
Q 52.203125 43.703125 52.203125 31.203125 
" id="BitstreamVeraSans-Roman-61"/>
      <path d="M 9.421875 75.984375 
L 18.40625 75.984375 
L 18.40625 0 
L 9.421875 0 
z
" id="BitstreamVeraSans-Roman-6c"/>
      <path d="M 2.984375 54.6875 
L 12.5 54.6875 
L 29.59375 8.796875 
L 46.6875 54.6875 
L 56.203125 54.6875 
L 35.6875 0 
L 23.484375 0 
z
" id="BitstreamVeraSans-Roman-76"/>
     </defs>
     <g transform="translate(22.205625 180.189375)rotate(-90.0)scale(0.12 -0.12)">
      <use xlink:href="#BitstreamVeraSans-Roman-76"/>
      <use x="59.1796875" xlink:href="#BitstreamVeraSans-Roman-61"/>
      <use x="120.458984375" xlink:href="#BitstreamVeraSans-Roman-6c"/>
      <use x="148.2421875" xlink:href="#BitstreamVeraSans-Roman-75"/>
      <use x="211.62109375" xlink:href="#BitstreamVeraSans-Roman-65"/>
     </g>
    </g>
   </g>
   <g id="legend_1">
    <g id="patch_7">
     <path d="M 59.985 307.44 
L 140.4855 307.44 
L 140.4855 260.847 
L 59.985 260.847 
z
" style="fill:#ffffff;stroke:#000000;stroke-linejoin:miter;"/>
    </g>
    <g id="line2d_32">
     <path d="M 70.065 272.50875 
L 90.225 272.50875 
" style="fill:none;stroke:#ff0000;stroke-linecap:square;stroke-width:2.0;"/>
    </g>
    <g id="line2d_33">
     <g>
      <use style="fill:#ff0000;stroke:#000000;stroke-width:0.5;" x="70.065" xlink:href="#m17b68016aa" y="272.50875"/>
      <use style="fill:#ff0000;stroke:#000000;stroke-width:0.5;" x="90.225" xlink:href="#m17b68016aa" y="272.50875"/>
     </g>
    </g>
    <g id="text_15">
     <!-- exp -->
     <defs>
      <path d="M 18.109375 8.203125 
L 18.109375 -20.796875 
L 9.078125 -20.796875 
L 9.078125 54.6875 
L 18.109375 54.6875 
L 18.109375 46.390625 
Q 20.953125 51.265625 25.265625 53.625 
Q 29.59375 56 35.59375 56 
Q 45.5625 56 51.78125 48.09375 
Q 58.015625 40.1875 58.015625 27.296875 
Q 58.015625 14.40625 51.78125 6.484375 
Q 45.5625 -1.421875 35.59375 -1.421875 
Q 29.59375 -1.421875 25.265625 0.953125 
Q 20.953125 3.328125 18.109375 8.203125 
M 48.6875 27.296875 
Q 48.6875 37.203125 44.609375 42.84375 
Q 40.53125 48.484375 33.40625 48.484375 
Q 26.265625 48.484375 22.1875 42.84375 
Q 18.109375 37.203125 18.109375 27.296875 
Q 18.109375 17.390625 22.1875 11.75 
Q 26.265625 6.109375 33.40625 6.109375 
Q 40.53125 6.109375 44.609375 11.75 
Q 48.6875 17.390625 48.6875 27.296875 
" id="BitstreamVeraSans-Roman-70"/>
      <path d="M 54.890625 54.6875 
L 35.109375 28.078125 
L 55.90625 0 
L 45.3125 0 
L 29.390625 21.484375 
L 13.484375 0 
L 2.875 0 
L 24.125 28.609375 
L 4.6875 54.6875 
L 15.28125 54.6875 
L 29.78125 35.203125 
L 44.28125 54.6875 
z
" id="BitstreamVeraSans-Roman-78"/>
     </defs>
     <g transform="translate(106.065 277.54875)scale(0.144 -0.144)">
      <use xlink:href="#BitstreamVeraSans-Roman-65"/>
      <use x="61.5078125" xlink:href="#BitstreamVeraSans-Roman-78"/>
      <use x="120.6875" xlink:href="#BitstreamVeraSans-Roman-70"/>
     </g>
    </g>
    <g id="line2d_34">
     <path d="M 70.065 293.64525 
L 90.225 293.64525 
" style="fill:none;stroke:#0000ff;stroke-linecap:square;stroke-width:2.0;"/>
    </g>
    <g id="line2d_35">
     <g>
      <use style="fill:#0000ff;stroke:#000000;stroke-width:0.5;" x="70.065" xlink:href="#m0244776d98" y="293.64525"/>
      <use style="fill:#0000ff;stroke:#000000;stroke-width:0.5;" x="90.225" xlink:href="#m0244776d98" y="293.64525"/>
     </g>
    </g>
    <g id="text_16">
     <!-- calc -->
     <defs>
      <path d="M 48.78125 52.59375 
L 48.78125 44.1875 
Q 44.96875 46.296875 41.140625 47.34375 
Q 37.3125 48.390625 33.40625 48.390625 
Q 24.65625 48.390625 19.8125 42.84375 
Q 14.984375 37.3125 14.984375 27.296875 
Q 14.984375 17.28125 19.8125 11.734375 
Q 24.65625 6.203125 33.40625 6.203125 
Q 37.3125 6.203125 41.140625 7.25 
Q 44.96875 8.296875 48.78125 10.40625 
L 48.78125 2.09375 
Q 45.015625 0.34375 40.984375 -0.53125 
Q 36.96875 -1.421875 32.421875 -1.421875 
Q 20.0625 -1.421875 12.78125 6.34375 
Q 5.515625 14.109375 5.515625 27.296875 
Q 5.515625 40.671875 12.859375 48.328125 
Q 20.21875 56 33.015625 56 
Q 37.15625 56 41.109375 55.140625 
Q 45.0625 54.296875 48.78125 52.59375 
" id="BitstreamVeraSans-Roman-63"/>
     </defs>
     <g transform="translate(106.065 298.68525)scale(0.144 -0.144)">
      <use xlink:href="#BitstreamVeraSans-Roman-63"/>
      <use x="54.98046875" xlink:href="#BitstreamVeraSans-Roman-61"/>
      <use x="116.259765625" xlink:href="#BitstreamVeraSans-Roman-6c"/>
      <use x="144.04296875" xlink:href="#BitstreamVeraSans-Roman-63"/>
     </g>
    </g>
   </g>
  </g>
 </g>
 <defs>
  <clipPath id="p0db274212c">
   <rect height="301.68" width="654.255" x="52.785" y="12.96"/>
  </clipPath>
 </defs>
</svg>
