<?xml version="1.0" encoding="utf-8" standalone="no"?>
<!DOCTYPE svg PUBLIC "-//W3C//DTD SVG 1.1//EN"
  "http://www.w3.org/Graphics/SVG/1.1/DTD/svg11.dtd">
<!-- Created with matplotlib (http://matplotlib.org/) -->
<svg height="360pt" version="1.1" viewBox="0 0 720 360" width="720pt" xmlns="http://www.w3.org/2000/svg" xmlns:xlink="http://www.w3.org/1999/xlink">
 <defs>
  <style type="text/css">
*{stroke-linecap:butt;stroke-linejoin:round;stroke-miterlimit:100000;}
  </style>
 </defs>
 <g id="figure_1">
  <g id="patch_1">
   <path d="M 0 360 
L 720 360 
L 720 0 
L 0 0 
z
" style="fill:#ffffff;"/>
  </g>
  <g id="axes_1">
   <g id="patch_2">
    <path d="M 51.5475 314.64 
L 707.04 314.64 
L 707.04 12.96 
L 51.5475 12.96 
z
" style="fill:#ffffff;"/>
   </g>
   <g id="line2d_1">
    <path clip-path="url(#p8d7c1354d5)" d="M 51.5475 275.70086 
L 60.779789 156.916819 
L 79.244366 292.220495 
L 88.476655 164.389987 
L 97.708944 259.57455 
L 106.941232 116.404381 
L 116.173521 158.096793 
L 125.40581 254.854654 
L 134.638099 194.28266 
L 153.102676 39.312751 
L 162.334965 261.934498 
L 171.567254 12.96 
L 180.799542 270.58764 
L 199.26412 250.528083 
L 217.728697 138.823885 
L 226.960986 258.394576 
L 236.193275 211.982269 
L 245.425563 134.890639 
L 254.657852 129.384094 
L 263.890141 193.102686 
L 273.12243 104.211317 
L 282.354718 314.64 
L 291.587007 83.758435 
L 300.819296 186.022842 
L 310.051585 135.283963 
L 319.283873 206.082399 
L 328.516162 204.5091 
L 337.748451 122.697575 
L 346.980739 222.208709 
L 356.213028 220.635411 
L 365.445317 237.941695 
L 374.677606 101.851369 
L 393.142183 209.228996 
L 402.374472 57.01236 
L 411.606761 145.903729 
L 420.839049 144.33043 
L 430.071338 221.815385 
L 439.303627 100.27807 
L 457.768204 95.16485 
L 467.000493 244.628214 
L 485.46507 99.491421 
L 494.697359 135.677288 
L 503.929648 80.218514 
L 540.858803 246.594837 
L 550.091092 37.346128 
L 559.32338 210.015645 
L 568.555669 219.062112 
L 577.787958 17.286571 
L 587.020246 186.809492 
L 596.252535 130.564068 
L 605.484824 285.927301 
L 614.717113 173.436454 
L 623.949401 41.672699 
L 633.18169 229.288553 
L 642.413979 292.61382 
L 651.646268 276.48751 
L 660.878556 269.407666 
L 670.110845 147.870352 
L 679.343134 243.841565 
L 697.807711 254.854654 
L 707.04 190.742738 
" style="fill:none;stroke:#ff0000;stroke-linecap:square;stroke-width:2.0;"/>
    <defs>
     <path d="M 0 3 
C 0.795609 3 1.55874 2.683901 2.12132 2.12132 
C 2.683901 1.55874 3 0.795609 3 0 
C 3 -0.795609 2.683901 -1.55874 2.12132 -2.12132 
C 1.55874 -2.683901 0.795609 -3 0 -3 
C -0.795609 -3 -1.55874 -2.683901 -2.12132 -2.12132 
C -2.683901 -1.55874 -3 -0.795609 -3 0 
C -3 0.795609 -2.683901 1.55874 -2.12132 2.12132 
C -1.55874 2.683901 -0.795609 3 0 3 
z
" id="maaa95ca053" style="stroke:#000000;stroke-width:0.5;"/>
    </defs>
    <g clip-path="url(#p8d7c1354d5)">
     <use style="fill:#ff0000;stroke:#000000;stroke-width:0.5;" x="51.5475" xlink:href="#maaa95ca053" y="275.700860495"/>
     <use style="fill:#ff0000;stroke:#000000;stroke-width:0.5;" x="60.7797887324" xlink:href="#maaa95ca053" y="156.916818774"/>
     <use style="fill:#ff0000;stroke:#000000;stroke-width:0.5;" x="79.2443661972" xlink:href="#maaa95ca053" y="292.220495437"/>
     <use style="fill:#ff0000;stroke:#000000;stroke-width:0.5;" x="88.4766549296" xlink:href="#maaa95ca053" y="164.389986962"/>
     <use style="fill:#ff0000;stroke:#000000;stroke-width:0.5;" x="97.708943662" xlink:href="#maaa95ca053" y="259.574550196"/>
     <use style="fill:#ff0000;stroke:#000000;stroke-width:0.5;" x="106.941232394" xlink:href="#maaa95ca053" y="116.404380704"/>
     <use style="fill:#ff0000;stroke:#000000;stroke-width:0.5;" x="116.173521127" xlink:href="#maaa95ca053" y="158.096792699"/>
     <use style="fill:#ff0000;stroke:#000000;stroke-width:0.5;" x="125.405809859" xlink:href="#maaa95ca053" y="254.854654498"/>
     <use style="fill:#ff0000;stroke:#000000;stroke-width:0.5;" x="134.638098592" xlink:href="#maaa95ca053" y="194.282659713"/>
     <use style="fill:#ff0000;stroke:#000000;stroke-width:0.5;" x="153.102676056" xlink:href="#maaa95ca053" y="39.3127509778"/>
     <use style="fill:#ff0000;stroke:#000000;stroke-width:0.5;" x="162.334964789" xlink:href="#maaa95ca053" y="261.934498044"/>
     <use style="fill:#ff0000;stroke:#000000;stroke-width:0.5;" x="171.567253521" xlink:href="#maaa95ca053" y="12.96"/>
     <use style="fill:#ff0000;stroke:#000000;stroke-width:0.5;" x="180.799542254" xlink:href="#maaa95ca053" y="270.587640156"/>
     <use style="fill:#ff0000;stroke:#000000;stroke-width:0.5;" x="199.264119718" xlink:href="#maaa95ca053" y="250.528083442"/>
     <use style="fill:#ff0000;stroke:#000000;stroke-width:0.5;" x="217.728697183" xlink:href="#maaa95ca053" y="138.823885267"/>
     <use style="fill:#ff0000;stroke:#000000;stroke-width:0.5;" x="226.960985915" xlink:href="#maaa95ca053" y="258.394576271"/>
     <use style="fill:#ff0000;stroke:#000000;stroke-width:0.5;" x="236.193274648" xlink:href="#maaa95ca053" y="211.982268579"/>
     <use style="fill:#ff0000;stroke:#000000;stroke-width:0.5;" x="245.42556338" xlink:href="#maaa95ca053" y="134.890638853"/>
     <use style="fill:#ff0000;stroke:#000000;stroke-width:0.5;" x="254.657852113" xlink:href="#maaa95ca053" y="129.384093872"/>
     <use style="fill:#ff0000;stroke:#000000;stroke-width:0.5;" x="263.890140845" xlink:href="#maaa95ca053" y="193.102685789"/>
     <use style="fill:#ff0000;stroke:#000000;stroke-width:0.5;" x="273.122429577" xlink:href="#maaa95ca053" y="104.211316819"/>
     <use style="fill:#ff0000;stroke:#000000;stroke-width:0.5;" x="282.35471831" xlink:href="#maaa95ca053" y="314.64"/>
     <use style="fill:#ff0000;stroke:#000000;stroke-width:0.5;" x="291.587007042" xlink:href="#maaa95ca053" y="83.7584354628"/>
     <use style="fill:#ff0000;stroke:#000000;stroke-width:0.5;" x="300.819295775" xlink:href="#maaa95ca053" y="186.022842243"/>
     <use style="fill:#ff0000;stroke:#000000;stroke-width:0.5;" x="310.051584507" xlink:href="#maaa95ca053" y="135.283963494"/>
     <use style="fill:#ff0000;stroke:#000000;stroke-width:0.5;" x="319.283873239" xlink:href="#maaa95ca053" y="206.082398957"/>
     <use style="fill:#ff0000;stroke:#000000;stroke-width:0.5;" x="328.516161972" xlink:href="#maaa95ca053" y="204.509100391"/>
     <use style="fill:#ff0000;stroke:#000000;stroke-width:0.5;" x="337.748450704" xlink:href="#maaa95ca053" y="122.697574967"/>
     <use style="fill:#ff0000;stroke:#000000;stroke-width:0.5;" x="346.980739437" xlink:href="#maaa95ca053" y="222.208709257"/>
     <use style="fill:#ff0000;stroke:#000000;stroke-width:0.5;" x="356.213028169" xlink:href="#maaa95ca053" y="220.635410691"/>
     <use style="fill:#ff0000;stroke:#000000;stroke-width:0.5;" x="365.445316901" xlink:href="#maaa95ca053" y="237.941694915"/>
     <use style="fill:#ff0000;stroke:#000000;stroke-width:0.5;" x="374.677605634" xlink:href="#maaa95ca053" y="101.85136897"/>
     <use style="fill:#ff0000;stroke:#000000;stroke-width:0.5;" x="393.142183099" xlink:href="#maaa95ca053" y="209.228996089"/>
     <use style="fill:#ff0000;stroke:#000000;stroke-width:0.5;" x="402.374471831" xlink:href="#maaa95ca053" y="57.0123598435"/>
     <use style="fill:#ff0000;stroke:#000000;stroke-width:0.5;" x="411.606760563" xlink:href="#maaa95ca053" y="145.903728814"/>
     <use style="fill:#ff0000;stroke:#000000;stroke-width:0.5;" x="420.839049296" xlink:href="#maaa95ca053" y="144.330430248"/>
     <use style="fill:#ff0000;stroke:#000000;stroke-width:0.5;" x="430.071338028" xlink:href="#maaa95ca053" y="221.815384615"/>
     <use style="fill:#ff0000;stroke:#000000;stroke-width:0.5;" x="439.303626761" xlink:href="#maaa95ca053" y="100.278070404"/>
     <use style="fill:#ff0000;stroke:#000000;stroke-width:0.5;" x="457.768204225" xlink:href="#maaa95ca053" y="95.1648500652"/>
     <use style="fill:#ff0000;stroke:#000000;stroke-width:0.5;" x="467.000492958" xlink:href="#maaa95ca053" y="244.62821382"/>
     <use style="fill:#ff0000;stroke:#000000;stroke-width:0.5;" x="485.465070423" xlink:href="#maaa95ca053" y="99.4914211213"/>
     <use style="fill:#ff0000;stroke:#000000;stroke-width:0.5;" x="494.697359155" xlink:href="#maaa95ca053" y="135.677288136"/>
     <use style="fill:#ff0000;stroke:#000000;stroke-width:0.5;" x="503.929647887" xlink:href="#maaa95ca053" y="80.2185136897"/>
     <use style="fill:#ff0000;stroke:#000000;stroke-width:0.5;" x="540.858802817" xlink:href="#maaa95ca053" y="246.594837027"/>
     <use style="fill:#ff0000;stroke:#000000;stroke-width:0.5;" x="550.091091549" xlink:href="#maaa95ca053" y="37.3461277705"/>
     <use style="fill:#ff0000;stroke:#000000;stroke-width:0.5;" x="559.323380282" xlink:href="#maaa95ca053" y="210.015645372"/>
     <use style="fill:#ff0000;stroke:#000000;stroke-width:0.5;" x="568.555669014" xlink:href="#maaa95ca053" y="219.062112125"/>
     <use style="fill:#ff0000;stroke:#000000;stroke-width:0.5;" x="577.787957746" xlink:href="#maaa95ca053" y="17.2865710561"/>
     <use style="fill:#ff0000;stroke:#000000;stroke-width:0.5;" x="587.020246479" xlink:href="#maaa95ca053" y="186.809491525"/>
     <use style="fill:#ff0000;stroke:#000000;stroke-width:0.5;" x="596.252535211" xlink:href="#maaa95ca053" y="130.564067797"/>
     <use style="fill:#ff0000;stroke:#000000;stroke-width:0.5;" x="605.484823944" xlink:href="#maaa95ca053" y="285.927301173"/>
     <use style="fill:#ff0000;stroke:#000000;stroke-width:0.5;" x="614.717112676" xlink:href="#maaa95ca053" y="173.436453716"/>
     <use style="fill:#ff0000;stroke:#000000;stroke-width:0.5;" x="623.949401408" xlink:href="#maaa95ca053" y="41.6726988266"/>
     <use style="fill:#ff0000;stroke:#000000;stroke-width:0.5;" x="633.181690141" xlink:href="#maaa95ca053" y="229.288552803"/>
     <use style="fill:#ff0000;stroke:#000000;stroke-width:0.5;" x="642.413978873" xlink:href="#maaa95ca053" y="292.613820078"/>
     <use style="fill:#ff0000;stroke:#000000;stroke-width:0.5;" x="651.646267606" xlink:href="#maaa95ca053" y="276.487509778"/>
     <use style="fill:#ff0000;stroke:#000000;stroke-width:0.5;" x="660.878556338" xlink:href="#maaa95ca053" y="269.407666232"/>
     <use style="fill:#ff0000;stroke:#000000;stroke-width:0.5;" x="670.11084507" xlink:href="#maaa95ca053" y="147.870352021"/>
     <use style="fill:#ff0000;stroke:#000000;stroke-width:0.5;" x="679.343133803" xlink:href="#maaa95ca053" y="243.841564537"/>
     <use style="fill:#ff0000;stroke:#000000;stroke-width:0.5;" x="697.807711268" xlink:href="#maaa95ca053" y="254.854654498"/>
     <use style="fill:#ff0000;stroke:#000000;stroke-width:0.5;" x="707.04" xlink:href="#maaa95ca053" y="190.74273794"/>
    </g>
   </g>
   <g id="line2d_2">
    <path clip-path="url(#p8d7c1354d5)" d="M 51.5475 238.805436 
L 60.779789 152.988292 
L 79.244366 247.899102 
L 88.476655 174.508657 
L 97.708944 263.898761 
L 106.941232 164.260976 
L 116.173521 121.206875 
L 125.40581 220.115829 
L 134.638099 187.944233 
L 153.102676 122.273964 
L 162.334965 244.306474 
L 171.567254 107.163218 
L 180.799542 259.806612 
L 199.26412 228.08026 
L 217.728697 148.415893 
L 226.960986 229.074584 
L 236.193275 202.805611 
L 245.425563 186.081841 
L 254.657852 155.518943 
L 263.890141 140.626885 
L 273.12243 117.102532 
L 282.354718 247.181677 
L 291.587007 90.131475 
L 300.819296 147.855012 
L 310.051585 176.232992 
L 319.283873 186.630135 
L 328.516162 116.738313 
L 337.748451 117.890361 
L 346.980739 239.724636 
L 356.213028 227.288497 
L 365.445317 170.333909 
L 374.677606 120.907948 
L 393.142183 185.299125 
L 402.374472 142.538443 
L 411.606761 176.050096 
L 420.839049 109.820913 
L 430.071338 224.475046 
L 439.303627 95.476363 
L 457.768204 90.411915 
L 467.000493 216.89922 
L 485.46507 100.404721 
L 494.697359 178.250747 
L 503.929648 142.54395 
L 540.858803 162.609406 
L 550.091092 110.717693 
L 559.32338 169.634578 
L 568.555669 131.404603 
L 577.787958 124.72949 
L 587.020246 197.068578 
L 596.252535 117.745618 
L 605.484824 241.113071 
L 614.717113 109.987683 
L 623.949401 142.575022 
L 633.18169 195.60777 
L 642.413979 227.529212 
L 651.646268 204.506347 
L 660.878556 234.633048 
L 670.110845 167.652615 
L 679.343134 262.817119 
L 697.807711 230.15898 
L 707.04 176.364756 
" style="fill:none;stroke:#0000ff;stroke-linecap:square;stroke-width:2.0;"/>
    <defs>
     <path d="M 0 3 
C 0.795609 3 1.55874 2.683901 2.12132 2.12132 
C 2.683901 1.55874 3 0.795609 3 0 
C 3 -0.795609 2.683901 -1.55874 2.12132 -2.12132 
C 1.55874 -2.683901 0.795609 -3 0 -3 
C -0.795609 -3 -1.55874 -2.683901 -2.12132 -2.12132 
C -2.683901 -1.55874 -3 -0.795609 -3 0 
C -3 0.795609 -2.683901 1.55874 -2.12132 2.12132 
C -1.55874 2.683901 -0.795609 3 0 3 
z
" id="m26a560947b" style="stroke:#000000;stroke-width:0.5;"/>
    </defs>
    <g clip-path="url(#p8d7c1354d5)">
     <use style="fill:#0000ff;stroke:#000000;stroke-width:0.5;" x="51.5475" xlink:href="#m26a560947b" y="238.805435828"/>
     <use style="fill:#0000ff;stroke:#000000;stroke-width:0.5;" x="60.7797887324" xlink:href="#m26a560947b" y="152.988292256"/>
     <use style="fill:#0000ff;stroke:#000000;stroke-width:0.5;" x="79.2443661972" xlink:href="#m26a560947b" y="247.899101538"/>
     <use style="fill:#0000ff;stroke:#000000;stroke-width:0.5;" x="88.4766549296" xlink:href="#m26a560947b" y="174.508656688"/>
     <use style="fill:#0000ff;stroke:#000000;stroke-width:0.5;" x="97.708943662" xlink:href="#m26a560947b" y="263.898761304"/>
     <use style="fill:#0000ff;stroke:#000000;stroke-width:0.5;" x="106.941232394" xlink:href="#m26a560947b" y="164.26097648"/>
     <use style="fill:#0000ff;stroke:#000000;stroke-width:0.5;" x="116.173521127" xlink:href="#m26a560947b" y="121.206874576"/>
     <use style="fill:#0000ff;stroke:#000000;stroke-width:0.5;" x="125.405809859" xlink:href="#m26a560947b" y="220.11582884"/>
     <use style="fill:#0000ff;stroke:#000000;stroke-width:0.5;" x="134.638098592" xlink:href="#m26a560947b" y="187.944233116"/>
     <use style="fill:#0000ff;stroke:#000000;stroke-width:0.5;" x="153.102676056" xlink:href="#m26a560947b" y="122.273964329"/>
     <use style="fill:#0000ff;stroke:#000000;stroke-width:0.5;" x="162.334964789" xlink:href="#m26a560947b" y="244.306474263"/>
     <use style="fill:#0000ff;stroke:#000000;stroke-width:0.5;" x="171.567253521" xlink:href="#m26a560947b" y="107.163218253"/>
     <use style="fill:#0000ff;stroke:#000000;stroke-width:0.5;" x="180.799542254" xlink:href="#m26a560947b" y="259.806611734"/>
     <use style="fill:#0000ff;stroke:#000000;stroke-width:0.5;" x="199.264119718" xlink:href="#m26a560947b" y="228.080259505"/>
     <use style="fill:#0000ff;stroke:#000000;stroke-width:0.5;" x="217.728697183" xlink:href="#m26a560947b" y="148.415893299"/>
     <use style="fill:#0000ff;stroke:#000000;stroke-width:0.5;" x="226.960985915" xlink:href="#m26a560947b" y="229.074584198"/>
     <use style="fill:#0000ff;stroke:#000000;stroke-width:0.5;" x="236.193274648" xlink:href="#m26a560947b" y="202.805611369"/>
     <use style="fill:#0000ff;stroke:#000000;stroke-width:0.5;" x="245.42556338" xlink:href="#m26a560947b" y="186.081840939"/>
     <use style="fill:#0000ff;stroke:#000000;stroke-width:0.5;" x="254.657852113" xlink:href="#m26a560947b" y="155.518942999"/>
     <use style="fill:#0000ff;stroke:#000000;stroke-width:0.5;" x="263.890140845" xlink:href="#m26a560947b" y="140.626885424"/>
     <use style="fill:#0000ff;stroke:#000000;stroke-width:0.5;" x="273.122429577" xlink:href="#m26a560947b" y="117.102531943"/>
     <use style="fill:#0000ff;stroke:#000000;stroke-width:0.5;" x="282.35471831" xlink:href="#m26a560947b" y="247.181677392"/>
     <use style="fill:#0000ff;stroke:#000000;stroke-width:0.5;" x="291.587007042" xlink:href="#m26a560947b" y="90.1314746284"/>
     <use style="fill:#0000ff;stroke:#000000;stroke-width:0.5;" x="300.819295775" xlink:href="#m26a560947b" y="147.85501236"/>
     <use style="fill:#0000ff;stroke:#000000;stroke-width:0.5;" x="310.051584507" xlink:href="#m26a560947b" y="176.232991917"/>
     <use style="fill:#0000ff;stroke:#000000;stroke-width:0.5;" x="319.283873239" xlink:href="#m26a560947b" y="186.630135489"/>
     <use style="fill:#0000ff;stroke:#000000;stroke-width:0.5;" x="328.516161972" xlink:href="#m26a560947b" y="116.738313325"/>
     <use style="fill:#0000ff;stroke:#000000;stroke-width:0.5;" x="337.748450704" xlink:href="#m26a560947b" y="117.890361199"/>
     <use style="fill:#0000ff;stroke:#000000;stroke-width:0.5;" x="346.980739437" xlink:href="#m26a560947b" y="239.724635515"/>
     <use style="fill:#0000ff;stroke:#000000;stroke-width:0.5;" x="356.213028169" xlink:href="#m26a560947b" y="227.288497001"/>
     <use style="fill:#0000ff;stroke:#000000;stroke-width:0.5;" x="365.445316901" xlink:href="#m26a560947b" y="170.333908944"/>
     <use style="fill:#0000ff;stroke:#000000;stroke-width:0.5;" x="374.677605634" xlink:href="#m26a560947b" y="120.907947849"/>
     <use style="fill:#0000ff;stroke:#000000;stroke-width:0.5;" x="393.142183099" xlink:href="#m26a560947b" y="185.299124902"/>
     <use style="fill:#0000ff;stroke:#000000;stroke-width:0.5;" x="402.374471831" xlink:href="#m26a560947b" y="142.538443181"/>
     <use style="fill:#0000ff;stroke:#000000;stroke-width:0.5;" x="411.606760563" xlink:href="#m26a560947b" y="176.050095958"/>
     <use style="fill:#0000ff;stroke:#000000;stroke-width:0.5;" x="420.839049296" xlink:href="#m26a560947b" y="109.820912855"/>
     <use style="fill:#0000ff;stroke:#000000;stroke-width:0.5;" x="430.071338028" xlink:href="#m26a560947b" y="224.475045841"/>
     <use style="fill:#0000ff;stroke:#000000;stroke-width:0.5;" x="439.303626761" xlink:href="#m26a560947b" y="95.4763631812"/>
     <use style="fill:#0000ff;stroke:#000000;stroke-width:0.5;" x="457.768204225" xlink:href="#m26a560947b" y="90.4119150978"/>
     <use style="fill:#0000ff;stroke:#000000;stroke-width:0.5;" x="467.000492958" xlink:href="#m26a560947b" y="216.899219922"/>
     <use style="fill:#0000ff;stroke:#000000;stroke-width:0.5;" x="485.465070423" xlink:href="#m26a560947b" y="100.404720939"/>
     <use style="fill:#0000ff;stroke:#000000;stroke-width:0.5;" x="494.697359155" xlink:href="#m26a560947b" y="178.250747327"/>
     <use style="fill:#0000ff;stroke:#000000;stroke-width:0.5;" x="503.929647887" xlink:href="#m26a560947b" y="142.543949726"/>
     <use style="fill:#0000ff;stroke:#000000;stroke-width:0.5;" x="540.858802817" xlink:href="#m26a560947b" y="162.60940631"/>
     <use style="fill:#0000ff;stroke:#000000;stroke-width:0.5;" x="550.091091549" xlink:href="#m26a560947b" y="110.717693038"/>
     <use style="fill:#0000ff;stroke:#000000;stroke-width:0.5;" x="559.323380282" xlink:href="#m26a560947b" y="169.634577731"/>
     <use style="fill:#0000ff;stroke:#000000;stroke-width:0.5;" x="568.555669014" xlink:href="#m26a560947b" y="131.404602555"/>
     <use style="fill:#0000ff;stroke:#000000;stroke-width:0.5;" x="577.787957746" xlink:href="#m26a560947b" y="124.729490065"/>
     <use style="fill:#0000ff;stroke:#000000;stroke-width:0.5;" x="587.020246479" xlink:href="#m26a560947b" y="197.068578149"/>
     <use style="fill:#0000ff;stroke:#000000;stroke-width:0.5;" x="596.252535211" xlink:href="#m26a560947b" y="117.745617731"/>
     <use style="fill:#0000ff;stroke:#000000;stroke-width:0.5;" x="605.484823944" xlink:href="#m26a560947b" y="241.113071499"/>
     <use style="fill:#0000ff;stroke:#000000;stroke-width:0.5;" x="614.717112676" xlink:href="#m26a560947b" y="109.987682503"/>
     <use style="fill:#0000ff;stroke:#000000;stroke-width:0.5;" x="623.949401408" xlink:href="#m26a560947b" y="142.575022373"/>
     <use style="fill:#0000ff;stroke:#000000;stroke-width:0.5;" x="633.181690141" xlink:href="#m26a560947b" y="195.60777043"/>
     <use style="fill:#0000ff;stroke:#000000;stroke-width:0.5;" x="642.413978873" xlink:href="#m26a560947b" y="227.529211682"/>
     <use style="fill:#0000ff;stroke:#000000;stroke-width:0.5;" x="651.646267606" xlink:href="#m26a560947b" y="204.506347119"/>
     <use style="fill:#0000ff;stroke:#000000;stroke-width:0.5;" x="660.878556338" xlink:href="#m26a560947b" y="234.633048031"/>
     <use style="fill:#0000ff;stroke:#000000;stroke-width:0.5;" x="670.11084507" xlink:href="#m26a560947b" y="167.652614863"/>
     <use style="fill:#0000ff;stroke:#000000;stroke-width:0.5;" x="679.343133803" xlink:href="#m26a560947b" y="262.81711854"/>
     <use style="fill:#0000ff;stroke:#000000;stroke-width:0.5;" x="697.807711268" xlink:href="#m26a560947b" y="230.158980235"/>
     <use style="fill:#0000ff;stroke:#000000;stroke-width:0.5;" x="707.04" xlink:href="#m26a560947b" y="176.364755671"/>
    </g>
   </g>
   <g id="patch_3">
    <path d="M 51.5475 314.64 
L 707.04 314.64 
" style="fill:none;stroke:#000000;stroke-linecap:square;stroke-linejoin:miter;"/>
   </g>
   <g id="patch_4">
    <path d="M 51.5475 314.64 
L 51.5475 12.96 
" style="fill:none;stroke:#000000;stroke-linecap:square;stroke-linejoin:miter;"/>
   </g>
   <g id="patch_5">
    <path d="M 51.5475 12.96 
L 707.04 12.96 
" style="fill:none;stroke:#000000;stroke-linecap:square;stroke-linejoin:miter;"/>
   </g>
   <g id="patch_6">
    <path d="M 707.04 314.64 
L 707.04 12.96 
" style="fill:none;stroke:#000000;stroke-linecap:square;stroke-linejoin:miter;"/>
   </g>
   <g id="matplotlib.axis_1">
    <g id="xtick_1">
     <g id="line2d_3">
      <defs>
       <path d="M 0 0 
L 0 -4 
" id="me4c762e811" style="stroke:#000000;stroke-width:0.5;"/>
      </defs>
      <g>
       <use style="stroke:#000000;stroke-width:0.5;" x="134.638098592" xlink:href="#me4c762e811" y="314.64"/>
      </g>
     </g>
     <g id="line2d_4">
      <defs>
       <path d="M 0 0 
L 0 4 
" id="m37be559c73" style="stroke:#000000;stroke-width:0.5;"/>
      </defs>
      <g>
       <use style="stroke:#000000;stroke-width:0.5;" x="134.638098592" xlink:href="#m37be559c73" y="12.96"/>
      </g>
     </g>
     <g id="text_1">
      <!-- 10 -->
      <defs>
       <path d="M 12.40625 8.296875 
L 28.515625 8.296875 
L 28.515625 63.921875 
L 10.984375 60.40625 
L 10.984375 69.390625 
L 28.421875 72.90625 
L 38.28125 72.90625 
L 38.28125 8.296875 
L 54.390625 8.296875 
L 54.390625 0 
L 12.40625 0 
z
" id="BitstreamVeraSans-Roman-31"/>
       <path d="M 31.78125 66.40625 
Q 24.171875 66.40625 20.328125 58.90625 
Q 16.5 51.421875 16.5 36.375 
Q 16.5 21.390625 20.328125 13.890625 
Q 24.171875 6.390625 31.78125 6.390625 
Q 39.453125 6.390625 43.28125 13.890625 
Q 47.125 21.390625 47.125 36.375 
Q 47.125 51.421875 43.28125 58.90625 
Q 39.453125 66.40625 31.78125 66.40625 
M 31.78125 74.21875 
Q 44.046875 74.21875 50.515625 64.515625 
Q 56.984375 54.828125 56.984375 36.375 
Q 56.984375 17.96875 50.515625 8.265625 
Q 44.046875 -1.421875 31.78125 -1.421875 
Q 19.53125 -1.421875 13.0625 8.265625 
Q 6.59375 17.96875 6.59375 36.375 
Q 6.59375 54.828125 13.0625 64.515625 
Q 19.53125 74.21875 31.78125 74.21875 
" id="BitstreamVeraSans-Roman-30"/>
      </defs>
      <g transform="translate(127.003098592 327.758125)scale(0.12 -0.12)">
       <use xlink:href="#BitstreamVeraSans-Roman-31"/>
       <use x="63.623046875" xlink:href="#BitstreamVeraSans-Roman-30"/>
      </g>
     </g>
    </g>
    <g id="xtick_2">
     <g id="line2d_5">
      <g>
       <use style="stroke:#000000;stroke-width:0.5;" x="226.960985915" xlink:href="#me4c762e811" y="314.64"/>
      </g>
     </g>
     <g id="line2d_6">
      <g>
       <use style="stroke:#000000;stroke-width:0.5;" x="226.960985915" xlink:href="#m37be559c73" y="12.96"/>
      </g>
     </g>
     <g id="text_2">
      <!-- 20 -->
      <defs>
       <path d="M 19.1875 8.296875 
L 53.609375 8.296875 
L 53.609375 0 
L 7.328125 0 
L 7.328125 8.296875 
Q 12.9375 14.109375 22.625 23.890625 
Q 32.328125 33.6875 34.8125 36.53125 
Q 39.546875 41.84375 41.421875 45.53125 
Q 43.3125 49.21875 43.3125 52.78125 
Q 43.3125 58.59375 39.234375 62.25 
Q 35.15625 65.921875 28.609375 65.921875 
Q 23.96875 65.921875 18.8125 64.3125 
Q 13.671875 62.703125 7.8125 59.421875 
L 7.8125 69.390625 
Q 13.765625 71.78125 18.9375 73 
Q 24.125 74.21875 28.421875 74.21875 
Q 39.75 74.21875 46.484375 68.546875 
Q 53.21875 62.890625 53.21875 53.421875 
Q 53.21875 48.921875 51.53125 44.890625 
Q 49.859375 40.875 45.40625 35.40625 
Q 44.1875 33.984375 37.640625 27.21875 
Q 31.109375 20.453125 19.1875 8.296875 
" id="BitstreamVeraSans-Roman-32"/>
      </defs>
      <g transform="translate(219.325985915 327.758125)scale(0.12 -0.12)">
       <use xlink:href="#BitstreamVeraSans-Roman-32"/>
       <use x="63.623046875" xlink:href="#BitstreamVeraSans-Roman-30"/>
      </g>
     </g>
    </g>
    <g id="xtick_3">
     <g id="line2d_7">
      <g>
       <use style="stroke:#000000;stroke-width:0.5;" x="319.283873239" xlink:href="#me4c762e811" y="314.64"/>
      </g>
     </g>
     <g id="line2d_8">
      <g>
       <use style="stroke:#000000;stroke-width:0.5;" x="319.283873239" xlink:href="#m37be559c73" y="12.96"/>
      </g>
     </g>
     <g id="text_3">
      <!-- 30 -->
      <defs>
       <path d="M 40.578125 39.3125 
Q 47.65625 37.796875 51.625 33 
Q 55.609375 28.21875 55.609375 21.1875 
Q 55.609375 10.40625 48.1875 4.484375 
Q 40.765625 -1.421875 27.09375 -1.421875 
Q 22.515625 -1.421875 17.65625 -0.515625 
Q 12.796875 0.390625 7.625 2.203125 
L 7.625 11.71875 
Q 11.71875 9.328125 16.59375 8.109375 
Q 21.484375 6.890625 26.8125 6.890625 
Q 36.078125 6.890625 40.9375 10.546875 
Q 45.796875 14.203125 45.796875 21.1875 
Q 45.796875 27.640625 41.28125 31.265625 
Q 36.765625 34.90625 28.71875 34.90625 
L 20.21875 34.90625 
L 20.21875 43.015625 
L 29.109375 43.015625 
Q 36.375 43.015625 40.234375 45.921875 
Q 44.09375 48.828125 44.09375 54.296875 
Q 44.09375 59.90625 40.109375 62.90625 
Q 36.140625 65.921875 28.71875 65.921875 
Q 24.65625 65.921875 20.015625 65.03125 
Q 15.375 64.15625 9.8125 62.3125 
L 9.8125 71.09375 
Q 15.4375 72.65625 20.34375 73.4375 
Q 25.25 74.21875 29.59375 74.21875 
Q 40.828125 74.21875 47.359375 69.109375 
Q 53.90625 64.015625 53.90625 55.328125 
Q 53.90625 49.265625 50.4375 45.09375 
Q 46.96875 40.921875 40.578125 39.3125 
" id="BitstreamVeraSans-Roman-33"/>
      </defs>
      <g transform="translate(311.648873239 327.758125)scale(0.12 -0.12)">
       <use xlink:href="#BitstreamVeraSans-Roman-33"/>
       <use x="63.623046875" xlink:href="#BitstreamVeraSans-Roman-30"/>
      </g>
     </g>
    </g>
    <g id="xtick_4">
     <g id="line2d_9">
      <g>
       <use style="stroke:#000000;stroke-width:0.5;" x="411.606760563" xlink:href="#me4c762e811" y="314.64"/>
      </g>
     </g>
     <g id="line2d_10">
      <g>
       <use style="stroke:#000000;stroke-width:0.5;" x="411.606760563" xlink:href="#m37be559c73" y="12.96"/>
      </g>
     </g>
     <g id="text_4">
      <!-- 40 -->
      <defs>
       <path d="M 37.796875 64.3125 
L 12.890625 25.390625 
L 37.796875 25.390625 
z
M 35.203125 72.90625 
L 47.609375 72.90625 
L 47.609375 25.390625 
L 58.015625 25.390625 
L 58.015625 17.1875 
L 47.609375 17.1875 
L 47.609375 0 
L 37.796875 0 
L 37.796875 17.1875 
L 4.890625 17.1875 
L 4.890625 26.703125 
z
" id="BitstreamVeraSans-Roman-34"/>
      </defs>
      <g transform="translate(403.971760563 327.758125)scale(0.12 -0.12)">
       <use xlink:href="#BitstreamVeraSans-Roman-34"/>
       <use x="63.623046875" xlink:href="#BitstreamVeraSans-Roman-30"/>
      </g>
     </g>
    </g>
    <g id="xtick_5">
     <g id="line2d_11">
      <g>
       <use style="stroke:#000000;stroke-width:0.5;" x="503.929647887" xlink:href="#me4c762e811" y="314.64"/>
      </g>
     </g>
     <g id="line2d_12">
      <g>
       <use style="stroke:#000000;stroke-width:0.5;" x="503.929647887" xlink:href="#m37be559c73" y="12.96"/>
      </g>
     </g>
     <g id="text_5">
      <!-- 50 -->
      <defs>
       <path d="M 10.796875 72.90625 
L 49.515625 72.90625 
L 49.515625 64.59375 
L 19.828125 64.59375 
L 19.828125 46.734375 
Q 21.96875 47.46875 24.109375 47.828125 
Q 26.265625 48.1875 28.421875 48.1875 
Q 40.625 48.1875 47.75 41.5 
Q 54.890625 34.8125 54.890625 23.390625 
Q 54.890625 11.625 47.5625 5.09375 
Q 40.234375 -1.421875 26.90625 -1.421875 
Q 22.3125 -1.421875 17.546875 -0.640625 
Q 12.796875 0.140625 7.71875 1.703125 
L 7.71875 11.625 
Q 12.109375 9.234375 16.796875 8.0625 
Q 21.484375 6.890625 26.703125 6.890625 
Q 35.15625 6.890625 40.078125 11.328125 
Q 45.015625 15.765625 45.015625 23.390625 
Q 45.015625 31 40.078125 35.4375 
Q 35.15625 39.890625 26.703125 39.890625 
Q 22.75 39.890625 18.8125 39.015625 
Q 14.890625 38.140625 10.796875 36.28125 
z
" id="BitstreamVeraSans-Roman-35"/>
      </defs>
      <g transform="translate(496.294647887 327.758125)scale(0.12 -0.12)">
       <use xlink:href="#BitstreamVeraSans-Roman-35"/>
       <use x="63.623046875" xlink:href="#BitstreamVeraSans-Roman-30"/>
      </g>
     </g>
    </g>
    <g id="xtick_6">
     <g id="line2d_13">
      <g>
       <use style="stroke:#000000;stroke-width:0.5;" x="596.252535211" xlink:href="#me4c762e811" y="314.64"/>
      </g>
     </g>
     <g id="line2d_14">
      <g>
       <use style="stroke:#000000;stroke-width:0.5;" x="596.252535211" xlink:href="#m37be559c73" y="12.96"/>
      </g>
     </g>
     <g id="text_6">
      <!-- 60 -->
      <defs>
       <path d="M 33.015625 40.375 
Q 26.375 40.375 22.484375 35.828125 
Q 18.609375 31.296875 18.609375 23.390625 
Q 18.609375 15.53125 22.484375 10.953125 
Q 26.375 6.390625 33.015625 6.390625 
Q 39.65625 6.390625 43.53125 10.953125 
Q 47.40625 15.53125 47.40625 23.390625 
Q 47.40625 31.296875 43.53125 35.828125 
Q 39.65625 40.375 33.015625 40.375 
M 52.59375 71.296875 
L 52.59375 62.3125 
Q 48.875 64.0625 45.09375 64.984375 
Q 41.3125 65.921875 37.59375 65.921875 
Q 27.828125 65.921875 22.671875 59.328125 
Q 17.53125 52.734375 16.796875 39.40625 
Q 19.671875 43.65625 24.015625 45.921875 
Q 28.375 48.1875 33.59375 48.1875 
Q 44.578125 48.1875 50.953125 41.515625 
Q 57.328125 34.859375 57.328125 23.390625 
Q 57.328125 12.15625 50.6875 5.359375 
Q 44.046875 -1.421875 33.015625 -1.421875 
Q 20.359375 -1.421875 13.671875 8.265625 
Q 6.984375 17.96875 6.984375 36.375 
Q 6.984375 53.65625 15.1875 63.9375 
Q 23.390625 74.21875 37.203125 74.21875 
Q 40.921875 74.21875 44.703125 73.484375 
Q 48.484375 72.75 52.59375 71.296875 
" id="BitstreamVeraSans-Roman-36"/>
      </defs>
      <g transform="translate(588.617535211 327.758125)scale(0.12 -0.12)">
       <use xlink:href="#BitstreamVeraSans-Roman-36"/>
       <use x="63.623046875" xlink:href="#BitstreamVeraSans-Roman-30"/>
      </g>
     </g>
    </g>
    <g id="xtick_7">
     <g id="line2d_15">
      <g>
       <use style="stroke:#000000;stroke-width:0.5;" x="688.575422535" xlink:href="#me4c762e811" y="314.64"/>
      </g>
     </g>
     <g id="line2d_16">
      <g>
       <use style="stroke:#000000;stroke-width:0.5;" x="688.575422535" xlink:href="#m37be559c73" y="12.96"/>
      </g>
     </g>
     <g id="text_7">
      <!-- 70 -->
      <defs>
       <path d="M 8.203125 72.90625 
L 55.078125 72.90625 
L 55.078125 68.703125 
L 28.609375 0 
L 18.3125 0 
L 43.21875 64.59375 
L 8.203125 64.59375 
z
" id="BitstreamVeraSans-Roman-37"/>
      </defs>
      <g transform="translate(680.940422535 327.758125)scale(0.12 -0.12)">
       <use xlink:href="#BitstreamVeraSans-Roman-37"/>
       <use x="63.623046875" xlink:href="#BitstreamVeraSans-Roman-30"/>
      </g>
     </g>
    </g>
    <g id="text_8">
     <!-- residue number -->
     <defs>
      <path d="M 52 44.1875 
Q 55.375 50.25 60.0625 53.125 
Q 64.75 56 71.09375 56 
Q 79.640625 56 84.28125 50.015625 
Q 88.921875 44.046875 88.921875 33.015625 
L 88.921875 0 
L 79.890625 0 
L 79.890625 32.71875 
Q 79.890625 40.578125 77.09375 44.375 
Q 74.3125 48.1875 68.609375 48.1875 
Q 61.625 48.1875 57.5625 43.546875 
Q 53.515625 38.921875 53.515625 30.90625 
L 53.515625 0 
L 44.484375 0 
L 44.484375 32.71875 
Q 44.484375 40.625 41.703125 44.40625 
Q 38.921875 48.1875 33.109375 48.1875 
Q 26.21875 48.1875 22.15625 43.53125 
Q 18.109375 38.875 18.109375 30.90625 
L 18.109375 0 
L 9.078125 0 
L 9.078125 54.6875 
L 18.109375 54.6875 
L 18.109375 46.1875 
Q 21.1875 51.21875 25.484375 53.609375 
Q 29.78125 56 35.6875 56 
Q 41.65625 56 45.828125 52.96875 
Q 50 49.953125 52 44.1875 
" id="BitstreamVeraSans-Roman-6d"/>
      <path d="M 9.421875 54.6875 
L 18.40625 54.6875 
L 18.40625 0 
L 9.421875 0 
z
M 9.421875 75.984375 
L 18.40625 75.984375 
L 18.40625 64.59375 
L 9.421875 64.59375 
z
" id="BitstreamVeraSans-Roman-69"/>
      <path d="M 48.6875 27.296875 
Q 48.6875 37.203125 44.609375 42.84375 
Q 40.53125 48.484375 33.40625 48.484375 
Q 26.265625 48.484375 22.1875 42.84375 
Q 18.109375 37.203125 18.109375 27.296875 
Q 18.109375 17.390625 22.1875 11.75 
Q 26.265625 6.109375 33.40625 6.109375 
Q 40.53125 6.109375 44.609375 11.75 
Q 48.6875 17.390625 48.6875 27.296875 
M 18.109375 46.390625 
Q 20.953125 51.265625 25.265625 53.625 
Q 29.59375 56 35.59375 56 
Q 45.5625 56 51.78125 48.09375 
Q 58.015625 40.1875 58.015625 27.296875 
Q 58.015625 14.40625 51.78125 6.484375 
Q 45.5625 -1.421875 35.59375 -1.421875 
Q 29.59375 -1.421875 25.265625 0.953125 
Q 20.953125 3.328125 18.109375 8.203125 
L 18.109375 0 
L 9.078125 0 
L 9.078125 75.984375 
L 18.109375 75.984375 
z
" id="BitstreamVeraSans-Roman-62"/>
      <path d="M 44.28125 53.078125 
L 44.28125 44.578125 
Q 40.484375 46.53125 36.375 47.5 
Q 32.28125 48.484375 27.875 48.484375 
Q 21.1875 48.484375 17.84375 46.4375 
Q 14.5 44.390625 14.5 40.28125 
Q 14.5 37.15625 16.890625 35.375 
Q 19.28125 33.59375 26.515625 31.984375 
L 29.59375 31.296875 
Q 39.15625 29.25 43.1875 25.515625 
Q 47.21875 21.78125 47.21875 15.09375 
Q 47.21875 7.46875 41.1875 3.015625 
Q 35.15625 -1.421875 24.609375 -1.421875 
Q 20.21875 -1.421875 15.453125 -0.5625 
Q 10.6875 0.296875 5.421875 2 
L 5.421875 11.28125 
Q 10.40625 8.6875 15.234375 7.390625 
Q 20.0625 6.109375 24.8125 6.109375 
Q 31.15625 6.109375 34.5625 8.28125 
Q 37.984375 10.453125 37.984375 14.40625 
Q 37.984375 18.0625 35.515625 20.015625 
Q 33.0625 21.96875 24.703125 23.78125 
L 21.578125 24.515625 
Q 13.234375 26.265625 9.515625 29.90625 
Q 5.8125 33.546875 5.8125 39.890625 
Q 5.8125 47.609375 11.28125 51.796875 
Q 16.75 56 26.8125 56 
Q 31.78125 56 36.171875 55.265625 
Q 40.578125 54.546875 44.28125 53.078125 
" id="BitstreamVeraSans-Roman-73"/>
      <path d="M 45.40625 46.390625 
L 45.40625 75.984375 
L 54.390625 75.984375 
L 54.390625 0 
L 45.40625 0 
L 45.40625 8.203125 
Q 42.578125 3.328125 38.25 0.953125 
Q 33.9375 -1.421875 27.875 -1.421875 
Q 17.96875 -1.421875 11.734375 6.484375 
Q 5.515625 14.40625 5.515625 27.296875 
Q 5.515625 40.1875 11.734375 48.09375 
Q 17.96875 56 27.875 56 
Q 33.9375 56 38.25 53.625 
Q 42.578125 51.265625 45.40625 46.390625 
M 14.796875 27.296875 
Q 14.796875 17.390625 18.875 11.75 
Q 22.953125 6.109375 30.078125 6.109375 
Q 37.203125 6.109375 41.296875 11.75 
Q 45.40625 17.390625 45.40625 27.296875 
Q 45.40625 37.203125 41.296875 42.84375 
Q 37.203125 48.484375 30.078125 48.484375 
Q 22.953125 48.484375 18.875 42.84375 
Q 14.796875 37.203125 14.796875 27.296875 
" id="BitstreamVeraSans-Roman-64"/>
      <path id="BitstreamVeraSans-Roman-20"/>
      <path d="M 54.890625 33.015625 
L 54.890625 0 
L 45.90625 0 
L 45.90625 32.71875 
Q 45.90625 40.484375 42.875 44.328125 
Q 39.84375 48.1875 33.796875 48.1875 
Q 26.515625 48.1875 22.3125 43.546875 
Q 18.109375 38.921875 18.109375 30.90625 
L 18.109375 0 
L 9.078125 0 
L 9.078125 54.6875 
L 18.109375 54.6875 
L 18.109375 46.1875 
Q 21.34375 51.125 25.703125 53.5625 
Q 30.078125 56 35.796875 56 
Q 45.21875 56 50.046875 50.171875 
Q 54.890625 44.34375 54.890625 33.015625 
" id="BitstreamVeraSans-Roman-6e"/>
      <path d="M 8.5 21.578125 
L 8.5 54.6875 
L 17.484375 54.6875 
L 17.484375 21.921875 
Q 17.484375 14.15625 20.5 10.265625 
Q 23.53125 6.390625 29.59375 6.390625 
Q 36.859375 6.390625 41.078125 11.03125 
Q 45.3125 15.671875 45.3125 23.6875 
L 45.3125 54.6875 
L 54.296875 54.6875 
L 54.296875 0 
L 45.3125 0 
L 45.3125 8.40625 
Q 42.046875 3.421875 37.71875 1 
Q 33.40625 -1.421875 27.6875 -1.421875 
Q 18.265625 -1.421875 13.375 4.4375 
Q 8.5 10.296875 8.5 21.578125 
" id="BitstreamVeraSans-Roman-75"/>
      <path d="M 41.109375 46.296875 
Q 39.59375 47.171875 37.8125 47.578125 
Q 36.03125 48 33.890625 48 
Q 26.265625 48 22.1875 43.046875 
Q 18.109375 38.09375 18.109375 28.8125 
L 18.109375 0 
L 9.078125 0 
L 9.078125 54.6875 
L 18.109375 54.6875 
L 18.109375 46.1875 
Q 20.953125 51.171875 25.484375 53.578125 
Q 30.03125 56 36.53125 56 
Q 37.453125 56 38.578125 55.875 
Q 39.703125 55.765625 41.0625 55.515625 
z
" id="BitstreamVeraSans-Roman-72"/>
      <path d="M 56.203125 29.59375 
L 56.203125 25.203125 
L 14.890625 25.203125 
Q 15.484375 15.921875 20.484375 11.0625 
Q 25.484375 6.203125 34.421875 6.203125 
Q 39.59375 6.203125 44.453125 7.46875 
Q 49.3125 8.734375 54.109375 11.28125 
L 54.109375 2.78125 
Q 49.265625 0.734375 44.1875 -0.34375 
Q 39.109375 -1.421875 33.890625 -1.421875 
Q 20.796875 -1.421875 13.15625 6.1875 
Q 5.515625 13.8125 5.515625 26.8125 
Q 5.515625 40.234375 12.765625 48.109375 
Q 20.015625 56 32.328125 56 
Q 43.359375 56 49.78125 48.890625 
Q 56.203125 41.796875 56.203125 29.59375 
M 47.21875 32.234375 
Q 47.125 39.59375 43.09375 43.984375 
Q 39.0625 48.390625 32.421875 48.390625 
Q 24.90625 48.390625 20.390625 44.140625 
Q 15.875 39.890625 15.1875 32.171875 
z
" id="BitstreamVeraSans-Roman-65"/>
     </defs>
     <g transform="translate(331.7175 344.371875)scale(0.12 -0.12)">
      <use xlink:href="#BitstreamVeraSans-Roman-72"/>
      <use x="41.08203125" xlink:href="#BitstreamVeraSans-Roman-65"/>
      <use x="102.60546875" xlink:href="#BitstreamVeraSans-Roman-73"/>
      <use x="154.705078125" xlink:href="#BitstreamVeraSans-Roman-69"/>
      <use x="182.48828125" xlink:href="#BitstreamVeraSans-Roman-64"/>
      <use x="245.96484375" xlink:href="#BitstreamVeraSans-Roman-75"/>
      <use x="309.34375" xlink:href="#BitstreamVeraSans-Roman-65"/>
      <use x="370.8671875" xlink:href="#BitstreamVeraSans-Roman-20"/>
      <use x="402.654296875" xlink:href="#BitstreamVeraSans-Roman-6e"/>
      <use x="466.033203125" xlink:href="#BitstreamVeraSans-Roman-75"/>
      <use x="529.412109375" xlink:href="#BitstreamVeraSans-Roman-6d"/>
      <use x="626.82421875" xlink:href="#BitstreamVeraSans-Roman-62"/>
      <use x="690.30078125" xlink:href="#BitstreamVeraSans-Roman-65"/>
      <use x="751.82421875" xlink:href="#BitstreamVeraSans-Roman-72"/>
     </g>
    </g>
   </g>
   <g id="matplotlib.axis_2">
    <g id="ytick_1">
     <g id="line2d_17">
      <path clip-path="url(#p8d7c1354d5)" d="M 51.5475 281.207405 
L 707.04 281.207405 
" style="fill:none;stroke:#000000;stroke-dasharray:1.000000,3.000000;stroke-dashoffset:0.0;stroke-width:0.5;"/>
     </g>
     <g id="line2d_18">
      <defs>
       <path d="M 0 0 
L 4 0 
" id="me55ad3cfe2" style="stroke:#000000;stroke-width:0.5;"/>
      </defs>
      <g>
       <use style="stroke:#000000;stroke-width:0.5;" x="51.5475" xlink:href="#me55ad3cfe2" y="281.207405476"/>
      </g>
     </g>
     <g id="line2d_19">
      <defs>
       <path d="M 0 0 
L -4 0 
" id="mcb4523dc22" style="stroke:#000000;stroke-width:0.5;"/>
      </defs>
      <g>
       <use style="stroke:#000000;stroke-width:0.5;" x="707.04" xlink:href="#mcb4523dc22" y="281.207405476"/>
      </g>
     </g>
     <g id="text_9">
      <!-- −3 -->
      <defs>
       <path d="M 10.59375 35.5 
L 73.1875 35.5 
L 73.1875 27.203125 
L 10.59375 27.203125 
z
" id="BitstreamVeraSans-Roman-2212"/>
      </defs>
      <g transform="translate(29.856875 284.518655476)scale(0.12 -0.12)">
       <use xlink:href="#BitstreamVeraSans-Roman-2212"/>
       <use x="83.7890625" xlink:href="#BitstreamVeraSans-Roman-33"/>
      </g>
     </g>
    </g>
    <g id="ytick_2">
     <g id="line2d_20">
      <path clip-path="url(#p8d7c1354d5)" d="M 51.5475 241.874941 
L 707.04 241.874941 
" style="fill:none;stroke:#000000;stroke-dasharray:1.000000,3.000000;stroke-dashoffset:0.0;stroke-width:0.5;"/>
     </g>
     <g id="line2d_21">
      <g>
       <use style="stroke:#000000;stroke-width:0.5;" x="51.5475" xlink:href="#me55ad3cfe2" y="241.87494133"/>
      </g>
     </g>
     <g id="line2d_22">
      <g>
       <use style="stroke:#000000;stroke-width:0.5;" x="707.04" xlink:href="#mcb4523dc22" y="241.87494133"/>
      </g>
     </g>
     <g id="text_10">
      <!-- −2 -->
      <g transform="translate(29.856875 245.18619133)scale(0.12 -0.12)">
       <use xlink:href="#BitstreamVeraSans-Roman-2212"/>
       <use x="83.7890625" xlink:href="#BitstreamVeraSans-Roman-32"/>
      </g>
     </g>
    </g>
    <g id="ytick_3">
     <g id="line2d_23">
      <path clip-path="url(#p8d7c1354d5)" d="M 51.5475 202.542477 
L 707.04 202.542477 
" style="fill:none;stroke:#000000;stroke-dasharray:1.000000,3.000000;stroke-dashoffset:0.0;stroke-width:0.5;"/>
     </g>
     <g id="line2d_24">
      <g>
       <use style="stroke:#000000;stroke-width:0.5;" x="51.5475" xlink:href="#me55ad3cfe2" y="202.542477184"/>
      </g>
     </g>
     <g id="line2d_25">
      <g>
       <use style="stroke:#000000;stroke-width:0.5;" x="707.04" xlink:href="#mcb4523dc22" y="202.542477184"/>
      </g>
     </g>
     <g id="text_11">
      <!-- −1 -->
      <g transform="translate(29.856875 205.853727184)scale(0.12 -0.12)">
       <use xlink:href="#BitstreamVeraSans-Roman-2212"/>
       <use x="83.7890625" xlink:href="#BitstreamVeraSans-Roman-31"/>
      </g>
     </g>
    </g>
    <g id="ytick_4">
     <g id="line2d_26">
      <path clip-path="url(#p8d7c1354d5)" d="M 51.5475 163.210013 
L 707.04 163.210013 
" style="fill:none;stroke:#000000;stroke-dasharray:1.000000,3.000000;stroke-dashoffset:0.0;stroke-width:0.5;"/>
     </g>
     <g id="line2d_27">
      <g>
       <use style="stroke:#000000;stroke-width:0.5;" x="51.5475" xlink:href="#me55ad3cfe2" y="163.210013038"/>
      </g>
     </g>
     <g id="line2d_28">
      <g>
       <use style="stroke:#000000;stroke-width:0.5;" x="707.04" xlink:href="#mcb4523dc22" y="163.210013038"/>
      </g>
     </g>
     <g id="text_12">
      <!-- 0 -->
      <g transform="translate(39.9125 166.521263038)scale(0.12 -0.12)">
       <use xlink:href="#BitstreamVeraSans-Roman-30"/>
      </g>
     </g>
    </g>
    <g id="ytick_5">
     <g id="line2d_29">
      <path clip-path="url(#p8d7c1354d5)" d="M 51.5475 123.877549 
L 707.04 123.877549 
" style="fill:none;stroke:#000000;stroke-dasharray:1.000000,3.000000;stroke-dashoffset:0.0;stroke-width:0.5;"/>
     </g>
     <g id="line2d_30">
      <g>
       <use style="stroke:#000000;stroke-width:0.5;" x="51.5475" xlink:href="#me55ad3cfe2" y="123.877548892"/>
      </g>
     </g>
     <g id="line2d_31">
      <g>
       <use style="stroke:#000000;stroke-width:0.5;" x="707.04" xlink:href="#mcb4523dc22" y="123.877548892"/>
      </g>
     </g>
     <g id="text_13">
      <!-- 1 -->
      <g transform="translate(39.9125 127.188798892)scale(0.12 -0.12)">
       <use xlink:href="#BitstreamVeraSans-Roman-31"/>
      </g>
     </g>
    </g>
    <g id="ytick_6">
     <g id="line2d_32">
      <path clip-path="url(#p8d7c1354d5)" d="M 51.5475 84.545085 
L 707.04 84.545085 
" style="fill:none;stroke:#000000;stroke-dasharray:1.000000,3.000000;stroke-dashoffset:0.0;stroke-width:0.5;"/>
     </g>
     <g id="line2d_33">
      <g>
       <use style="stroke:#000000;stroke-width:0.5;" x="51.5475" xlink:href="#me55ad3cfe2" y="84.5450847458"/>
      </g>
     </g>
     <g id="line2d_34">
      <g>
       <use style="stroke:#000000;stroke-width:0.5;" x="707.04" xlink:href="#mcb4523dc22" y="84.5450847458"/>
      </g>
     </g>
     <g id="text_14">
      <!-- 2 -->
      <g transform="translate(39.9125 87.8563347458)scale(0.12 -0.12)">
       <use xlink:href="#BitstreamVeraSans-Roman-32"/>
      </g>
     </g>
    </g>
    <g id="ytick_7">
     <g id="line2d_35">
      <path clip-path="url(#p8d7c1354d5)" d="M 51.5475 45.212621 
L 707.04 45.212621 
" style="fill:none;stroke:#000000;stroke-dasharray:1.000000,3.000000;stroke-dashoffset:0.0;stroke-width:0.5;"/>
     </g>
     <g id="line2d_36">
      <g>
       <use style="stroke:#000000;stroke-width:0.5;" x="51.5475" xlink:href="#me55ad3cfe2" y="45.2126205997"/>
      </g>
     </g>
     <g id="line2d_37">
      <g>
       <use style="stroke:#000000;stroke-width:0.5;" x="707.04" xlink:href="#mcb4523dc22" y="45.2126205997"/>
      </g>
     </g>
     <g id="text_15">
      <!-- 3 -->
      <g transform="translate(39.9125 48.5238705997)scale(0.12 -0.12)">
       <use xlink:href="#BitstreamVeraSans-Roman-33"/>
      </g>
     </g>
    </g>
    <g id="text_16">
     <!-- value -->
     <defs>
      <path d="M 9.421875 75.984375 
L 18.40625 75.984375 
L 18.40625 0 
L 9.421875 0 
z
" id="BitstreamVeraSans-Roman-6c"/>
      <path d="M 2.984375 54.6875 
L 12.5 54.6875 
L 29.59375 8.796875 
L 46.6875 54.6875 
L 56.203125 54.6875 
L 35.6875 0 
L 23.484375 0 
z
" id="BitstreamVeraSans-Roman-76"/>
      <path d="M 34.28125 27.484375 
Q 23.390625 27.484375 19.1875 25 
Q 14.984375 22.515625 14.984375 16.5 
Q 14.984375 11.71875 18.140625 8.90625 
Q 21.296875 6.109375 26.703125 6.109375 
Q 34.1875 6.109375 38.703125 11.40625 
Q 43.21875 16.703125 43.21875 25.484375 
L 43.21875 27.484375 
z
M 52.203125 31.203125 
L 52.203125 0 
L 43.21875 0 
L 43.21875 8.296875 
Q 40.140625 3.328125 35.546875 0.953125 
Q 30.953125 -1.421875 24.3125 -1.421875 
Q 15.921875 -1.421875 10.953125 3.296875 
Q 6 8.015625 6 15.921875 
Q 6 25.140625 12.171875 29.828125 
Q 18.359375 34.515625 30.609375 34.515625 
L 43.21875 34.515625 
L 43.21875 35.40625 
Q 43.21875 41.609375 39.140625 45 
Q 35.0625 48.390625 27.6875 48.390625 
Q 23 48.390625 18.546875 47.265625 
Q 14.109375 46.140625 10.015625 43.890625 
L 10.015625 52.203125 
Q 14.9375 54.109375 19.578125 55.046875 
Q 24.21875 56 28.609375 56 
Q 40.484375 56 46.34375 49.84375 
Q 52.203125 43.703125 52.203125 31.203125 
" id="BitstreamVeraSans-Roman-61"/>
     </defs>
     <g transform="translate(22.36125 180.189375)rotate(-90.0)scale(0.12 -0.12)">
      <use xlink:href="#BitstreamVeraSans-Roman-76"/>
      <use x="59.1796875" xlink:href="#BitstreamVeraSans-Roman-61"/>
      <use x="120.458984375" xlink:href="#BitstreamVeraSans-Roman-6c"/>
      <use x="148.2421875" xlink:href="#BitstreamVeraSans-Roman-75"/>
      <use x="211.62109375" xlink:href="#BitstreamVeraSans-Roman-65"/>
     </g>
    </g>
   </g>
   <g id="legend_1">
    <g id="patch_7">
     <path d="M 58.7475 307.44 
L 139.248 307.44 
L 139.248 260.847 
L 58.7475 260.847 
z
" style="fill:#ffffff;stroke:#000000;stroke-linejoin:miter;"/>
    </g>
    <g id="line2d_38">
     <path d="M 68.8275 272.50875 
L 88.9875 272.50875 
" style="fill:none;stroke:#ff0000;stroke-linecap:square;stroke-width:2.0;"/>
    </g>
    <g id="line2d_39">
     <g>
      <use style="fill:#ff0000;stroke:#000000;stroke-width:0.5;" x="68.8275" xlink:href="#maaa95ca053" y="272.50875"/>
      <use style="fill:#ff0000;stroke:#000000;stroke-width:0.5;" x="88.9875" xlink:href="#maaa95ca053" y="272.50875"/>
     </g>
    </g>
    <g id="text_17">
     <!-- exp -->
     <defs>
      <path d="M 18.109375 8.203125 
L 18.109375 -20.796875 
L 9.078125 -20.796875 
L 9.078125 54.6875 
L 18.109375 54.6875 
L 18.109375 46.390625 
Q 20.953125 51.265625 25.265625 53.625 
Q 29.59375 56 35.59375 56 
Q 45.5625 56 51.78125 48.09375 
Q 58.015625 40.1875 58.015625 27.296875 
Q 58.015625 14.40625 51.78125 6.484375 
Q 45.5625 -1.421875 35.59375 -1.421875 
Q 29.59375 -1.421875 25.265625 0.953125 
Q 20.953125 3.328125 18.109375 8.203125 
M 48.6875 27.296875 
Q 48.6875 37.203125 44.609375 42.84375 
Q 40.53125 48.484375 33.40625 48.484375 
Q 26.265625 48.484375 22.1875 42.84375 
Q 18.109375 37.203125 18.109375 27.296875 
Q 18.109375 17.390625 22.1875 11.75 
Q 26.265625 6.109375 33.40625 6.109375 
Q 40.53125 6.109375 44.609375 11.75 
Q 48.6875 17.390625 48.6875 27.296875 
" id="BitstreamVeraSans-Roman-70"/>
      <path d="M 54.890625 54.6875 
L 35.109375 28.078125 
L 55.90625 0 
L 45.3125 0 
L 29.390625 21.484375 
L 13.484375 0 
L 2.875 0 
L 24.125 28.609375 
L 4.6875 54.6875 
L 15.28125 54.6875 
L 29.78125 35.203125 
L 44.28125 54.6875 
z
" id="BitstreamVeraSans-Roman-78"/>
     </defs>
     <g transform="translate(104.8275 277.54875)scale(0.144 -0.144)">
      <use xlink:href="#BitstreamVeraSans-Roman-65"/>
      <use x="61.5078125" xlink:href="#BitstreamVeraSans-Roman-78"/>
      <use x="120.6875" xlink:href="#BitstreamVeraSans-Roman-70"/>
     </g>
    </g>
    <g id="line2d_40">
     <path d="M 68.8275 293.64525 
L 88.9875 293.64525 
" style="fill:none;stroke:#0000ff;stroke-linecap:square;stroke-width:2.0;"/>
    </g>
    <g id="line2d_41">
     <g>
      <use style="fill:#0000ff;stroke:#000000;stroke-width:0.5;" x="68.8275" xlink:href="#m26a560947b" y="293.64525"/>
      <use style="fill:#0000ff;stroke:#000000;stroke-width:0.5;" x="88.9875" xlink:href="#m26a560947b" y="293.64525"/>
     </g>
    </g>
    <g id="text_18">
     <!-- calc -->
     <defs>
      <path d="M 48.78125 52.59375 
L 48.78125 44.1875 
Q 44.96875 46.296875 41.140625 47.34375 
Q 37.3125 48.390625 33.40625 48.390625 
Q 24.65625 48.390625 19.8125 42.84375 
Q 14.984375 37.3125 14.984375 27.296875 
Q 14.984375 17.28125 19.8125 11.734375 
Q 24.65625 6.203125 33.40625 6.203125 
Q 37.3125 6.203125 41.140625 7.25 
Q 44.96875 8.296875 48.78125 10.40625 
L 48.78125 2.09375 
Q 45.015625 0.34375 40.984375 -0.53125 
Q 36.96875 -1.421875 32.421875 -1.421875 
Q 20.0625 -1.421875 12.78125 6.34375 
Q 5.515625 14.109375 5.515625 27.296875 
Q 5.515625 40.671875 12.859375 48.328125 
Q 20.21875 56 33.015625 56 
Q 37.15625 56 41.109375 55.140625 
Q 45.0625 54.296875 48.78125 52.59375 
" id="BitstreamVeraSans-Roman-63"/>
     </defs>
     <g transform="translate(104.8275 298.68525)scale(0.144 -0.144)">
      <use xlink:href="#BitstreamVeraSans-Roman-63"/>
      <use x="54.98046875" xlink:href="#BitstreamVeraSans-Roman-61"/>
      <use x="116.259765625" xlink:href="#BitstreamVeraSans-Roman-6c"/>
      <use x="144.04296875" xlink:href="#BitstreamVeraSans-Roman-63"/>
     </g>
    </g>
   </g>
  </g>
 </g>
 <defs>
  <clipPath id="p8d7c1354d5">
   <rect height="301.68" width="655.4925" x="51.5475" y="12.96"/>
  </clipPath>
 </defs>
</svg>
